<svg xmlns="http://www.w3.org/2000/svg" width="111" height="111" viewBox="0 0 111 111"><g><g><path fill="#ff4b63" d="M7.266 37.96L37.96 7.266c9.687-9.686 25.393-9.686 35.08 0l30.693 30.694c9.687 9.687 9.687 25.392 0 35.08L73.04 103.732c-9.686 9.687-25.392 9.687-35.079 0L7.266 73.04c-9.686-9.687-9.686-25.392 0-35.079z"/></g><g><path fill="#fff" d="M67.376 58.157a.587.587 0 0 0-.17.522l1.682 9.733a2.917 2.917 0 0 1-1.18 2.881 2.972 2.972 0 0 1-3.126.224l-8.807-4.595a.597.597 0 0 0-.552 0l-8.807 4.595a2.968 2.968 0 0 1-3.126-.224 2.918 2.918 0 0 1-1.18-2.88l1.682-9.734a.587.587 0 0 0-.17-.522l-7.126-6.893a2.912 2.912 0 0 1-.75-3.02 2.943 2.943 0 0 1 2.395-2.004l9.846-1.42a.594.594 0 0 0 .447-.322l4.404-8.856A2.951 2.951 0 0 1 55.498 34c1.139 0 2.158.629 2.662 1.642l4.403 8.856a.594.594 0 0 0 .447.322l9.847 1.42a2.943 2.943 0 0 1 2.395 2.005 2.913 2.913 0 0 1-.75 3.019zM65.72 56.47l7.125-6.893a.57.57 0 0 0 .15-.604.576.576 0 0 0-.479-.401l-9.846-1.42a2.966 2.966 0 0 1-2.234-1.612l-4.404-8.855a.58.58 0 0 0-.532-.329.579.579 0 0 0-.532.328l-4.404 8.856a2.966 2.966 0 0 1-2.234 1.612l-9.847 1.42a.576.576 0 0 0-.479.4.571.571 0 0 0 .15.605l7.125 6.893a2.93 2.93 0 0 1 .854 2.607l-1.682 9.734a.572.572 0 0 0 .236.576c.09.064.33.198.625.044l8.807-4.595a2.988 2.988 0 0 1 2.762 0l8.807 4.596c.294.153.535.02.625-.045a.573.573 0 0 0 .236-.576l-1.682-9.734a2.93 2.93 0 0 1 .853-2.607zm3.91-19.183l-1.26 1.721a1.188 1.188 0 0 1-1.658.26 1.172 1.172 0 0 1-.263-1.645l1.26-1.721a1.193 1.193 0 0 1 1.658-.261c.53.383.648 1.12.263 1.646zM44.28 39.262a1.188 1.188 0 0 1-1.658-.26l-1.26-1.722a1.173 1.173 0 0 1 .263-1.646 1.193 1.193 0 0 1 1.658.26l1.26 1.722a1.172 1.172 0 0 1-.263 1.646zm-7.69 22.657l-2.038.657a1.19 1.19 0 0 1-1.496-.756 1.177 1.177 0 0 1 .762-1.485l2.039-.658a1.19 1.19 0 0 1 1.496.757 1.177 1.177 0 0 1-.763 1.485zm20.095 12.775v2.128c0 .65-.531 1.178-1.187 1.178a1.183 1.183 0 0 1-1.187-1.178v-2.128c0-.651.531-1.179 1.187-1.179s1.187.528 1.187 1.179zM77.94 61.82a1.187 1.187 0 0 1-1.496.757l-2.038-.658a1.176 1.176 0 0 1-.762-1.485 1.19 1.19 0 0 1 1.495-.756l2.04.658c.623.2.964.865.761 1.484z"/></g></g></svg>