<svg xmlns="http://www.w3.org/2000/svg" width="111" height="111" viewBox="0 0 111 111"><g><g><path fill="#9dcb48" d="M7.267 37.96L37.96 7.266c9.686-9.686 25.392-9.686 35.078 0l30.694 30.694c9.687 9.687 9.687 25.393 0 35.08L73.04 103.732c-9.686 9.687-25.392 9.687-35.078 0L7.267 73.04c-9.687-9.686-9.687-25.392 0-35.079z"/></g><g><path fill="#fff" d="M49.352 54.502c-3.28-3.685-2.735-10.002-2.675-10.604.213-4.56 2.394-6.725 4.183-7.735C52.641 35.153 54.5 35 55.445 35h.144c1.722.034 3.264.441 4.585 1.197 1.772 1.01 3.92 3.175 4.132 7.7.06.603.605 6.92-2.675 10.605-1.492 1.673-3.511 2.547-6.008 2.59h-.272c-2.497-.043-4.516-.917-5.999-2.59zm1.713-1.52c1.065 1.206 2.505 1.8 4.38 1.817H55.53c1.883-.017 3.314-.611 4.388-1.817 2.71-3.04 2.113-8.813 2.105-8.872-.009-.017-.009-.042-.009-.068-.264-5.757-4.175-6.69-6.476-6.741h-.102c-1.858 0-6.195.653-6.476 6.741 0 .017-.008.042-.008.068-.009.05-.588 5.85 2.113 8.872zm21.523 18.424c-.085.221-.247.408-.443.535C71.89 72.103 65.763 76 55.513 76c-10.25 0-16.377-3.889-16.633-4.059a1.09 1.09 0 0 1-.443-.535c-.452-1.137-.443-3.404-.434-3.846v-.025c.008-.068.008-.136.008-.212.051-1.673.162-5.604 3.86-6.87a.94.94 0 0 1 .085-.024c3.86-.977 7.038-3.184 7.072-3.21a1.151 1.151 0 0 1 1.602.28c.367.518.239 1.231-.28 1.597-.146.093-3.537 2.453-7.78 3.54-1.986.705-2.207 2.819-2.267 4.754 0 .077-.008.145-.008.213-.017.764.042 1.944.179 2.623 1.388.781 6.833 3.49 15.03 3.49 8.231 0 13.642-2.7 15.022-3.481.137-.68.188-1.86.18-2.624-.01-.067-.01-.135-.01-.212-.059-1.936-.28-4.05-2.266-4.755-4.243-1.086-7.634-3.438-7.78-3.54a1.143 1.143 0 0 1-.28-1.596 1.152 1.152 0 0 1 1.601-.28c.035.025 3.23 2.232 7.073 3.209l.085.025c3.698 1.257 3.809 5.188 3.86 6.869 0 .077.008.145.008.213v.025c.009.441.017 2.708-.409 3.837z"/></g></g></svg>