<svg width="17" height="17" viewBox="0 0 17 17" fill="none" xmlns="http://www.w3.org/2000/svg">
<g clip-path="url(#clip0)">
<path d="M16.5633 13.2113L13.7465 10.3946C13.1628 9.81083 12.2179 9.81073 11.6341 10.3946L10.9298 11.0988C10.3473 11.6813 9.39971 11.6812 8.81501 11.0965L5.86584 8.18637C5.28339 7.60392 5.28339 6.6563 5.86584 6.07385L6.57001 5.36968C7.15246 4.78726 7.15246 3.83961 6.57001 3.25717L3.75336 0.440478C3.17091 -0.141971 2.22319 -0.141905 1.64084 0.440478L0.936735 1.14465C0.0227199 2.05863 -0.246093 4.0738 0.235187 6.40366C0.541917 7.88854 1.42436 10.7474 3.88819 13.2113C6.34705 15.6702 9.18276 16.514 10.6542 16.7982C12.2717 17.1105 14.7024 17.1846 15.859 16.028L16.5633 15.3238C17.1456 14.7414 17.1456 13.7937 16.5633 13.2113ZM2.34508 1.14465C2.53925 0.950511 2.85508 0.950478 3.04928 1.14465L5.86597 3.96134C6.06014 4.15551 6.06014 4.47137 5.86597 4.66554L5.51565 5.01587L1.99472 1.49501L2.34508 1.14465ZM10.8431 15.8204C9.48348 15.5579 6.86353 14.7783 4.59237 12.5071C2.31198 10.2267 1.49468 7.57805 1.21046 6.20222C0.833972 4.37976 0.990724 3.00984 1.35629 2.26489L4.8465 5.75514C4.20598 6.72151 4.31124 8.04007 5.16406 8.89286L8.11322 11.803C8.96359 12.6533 10.2814 12.7592 11.2486 12.1182L14.7416 15.6113C13.6772 16.1511 12.0219 16.048 10.8431 15.8204ZM15.8591 14.6196L15.5087 14.97L11.9879 11.4491L12.3382 11.0988C12.5328 10.9042 12.8477 10.9042 13.0424 11.0988L15.859 13.9155C16.0532 14.1096 16.0532 14.4255 15.8591 14.6196Z" fill="#ABABAB"/>
<path d="M9.53038 0.00381851C9.2554 0.00381851 9.03247 0.226744 9.03247 0.501732C9.03247 0.776721 9.2554 0.999646 9.53038 0.999646C13.0996 0.999646 16.0034 3.90342 16.0034 7.47263C16.0034 7.74761 16.2263 7.97054 16.5013 7.97054C16.7763 7.97054 16.9992 7.74761 16.9992 7.47263C16.9992 3.35431 13.6487 0.00381851 9.53038 0.00381851Z" fill="#ABABAB"/>
<path d="M9.53038 1.99551C9.2554 1.99551 9.03247 2.21843 9.03247 2.49342C9.03247 2.76841 9.2554 2.99133 9.53038 2.99133C12.0014 2.99133 14.0117 5.00165 14.0117 7.47262C14.0117 7.74761 14.2346 7.97053 14.5096 7.97053C14.7846 7.97053 15.0075 7.74761 15.0075 7.47262C15.0075 4.45253 12.5505 1.99551 9.53038 1.99551Z" fill="#ABABAB"/>
<path d="M9.53038 3.98721C9.2554 3.98721 9.03247 4.21013 9.03247 4.48512C9.03247 4.76011 9.2554 4.98304 9.53038 4.98304C10.9032 4.98304 12.02 6.09986 12.02 7.47264C12.02 7.74763 12.2429 7.97056 12.5179 7.97056C12.7929 7.97056 13.0158 7.74763 13.0158 7.47264C13.0159 5.55078 11.4522 3.98721 9.53038 3.98721Z" fill="#ABABAB"/>
<path d="M9.53038 5.97889C9.2554 5.97889 9.03247 6.20181 9.03247 6.4768C9.03247 6.75179 9.2554 6.97472 9.53038 6.97472C9.80494 6.97472 10.0283 7.19807 10.0283 7.47263C10.0283 7.74762 10.2512 7.97055 10.5262 7.97055C10.8012 7.97055 11.0241 7.74762 11.0241 7.47263C11.0242 6.64896 10.3541 5.97889 9.53038 5.97889Z" fill="#ABABAB"/>
</g>
<defs>
<clipPath id="clip0">
<rect width="17" height="17" fill="white"/>
</clipPath>
</defs>
</svg>
