<svg width="88" height="88" viewBox="0 0 88 88" fill="none" xmlns="http://www.w3.org/2000/svg">
<path d="M22 0C18.975 0 16.5 2.475 16.5 5.5V82.5C16.5 85.525 18.975 88 22 88H77C80.025 88 82.5 85.525 82.5 82.5V22L60.5 0H22Z" fill="#E2E5E7"/>
<path d="M66 22H82.5L60.5 0V16.5C60.5 19.525 62.975 22 66 22Z" fill="#B0B7BD"/>
<path d="M82.5 38.5L66 22H82.5V38.5Z" fill="#CAD1D8"/>
<path d="M71.5 71.5C71.5 73.0125 70.2625 74.25 68.75 74.25H8.25C6.7375 74.25 5.5 73.0125 5.5 71.5V44C5.5 42.4875 6.7375 41.25 8.25 41.25H68.75C70.2625 41.25 71.5 42.4875 71.5 44V71.5Z" fill="#50BEE8"/>
<path d="M15.9116 66.0002C15.1856 66.0002 14.3936 65.6014 14.3936 64.6362V52.1484C14.3936 51.3564 15.1856 50.7844 15.9116 50.7844H20.9468C30.9953 50.7844 30.7726 66.0002 21.1421 66.0002H15.9116ZM17.2976 53.4657V63.3162H20.9468C26.8841 63.3162 27.1453 53.4657 20.9468 53.4657H17.2976Z" fill="white"/>
<path d="M39.1875 66.2201C35.1202 66.3961 30.8962 63.6901 30.8962 58.3029C30.8962 52.8936 35.1175 50.2344 39.1875 50.2344C43.0347 50.4296 47.058 53.0916 47.058 58.3029C47.058 63.5169 43.0347 66.2201 39.1875 66.2201ZM38.9455 53.0944C36.4815 53.0944 33.8002 54.8324 33.8002 58.3056C33.8002 61.7596 36.4842 63.5196 38.9455 63.5196C41.4755 63.5196 44.1787 61.7596 44.1787 58.3056C44.1787 54.8296 41.4755 53.0944 38.9455 53.0944Z" fill="white"/>
<path d="M49.6458 58.2809C49.6458 54.0377 52.3078 50.3884 57.365 50.3884C59.279 50.3884 60.797 50.9604 62.4003 52.3464C62.9943 52.8937 63.0603 53.8617 62.4663 54.4777C61.8723 55.0029 60.9703 54.9397 60.4423 54.4117C59.543 53.4657 58.619 53.2044 57.365 53.2044C53.9798 53.2044 52.3545 55.6024 52.3545 58.2837C52.3545 61.0117 53.9578 63.5169 57.365 63.5169C58.619 63.5169 59.785 63.0082 60.797 62.1089C61.4763 61.5809 62.4223 61.8422 62.8183 62.3729C63.1703 62.8569 63.3435 63.6709 62.5763 64.4382C61.0363 65.8709 59.191 66.1569 57.3623 66.1569C52.0438 66.1569 49.6458 62.5242 49.6458 58.2809Z" fill="white"/>
<path d="M68.75 74.25H16.5V77H68.75C70.2625 77 71.5 75.7625 71.5 74.25V71.5C71.5 73.0125 70.2625 74.25 68.75 74.25Z" fill="#CAD1D8"/>
</svg>
