<svg width="137" height="42" viewBox="0 0 137 42" fill="none" xmlns="http://www.w3.org/2000/svg">
<g clip-path="url(#clip0)">
<path d="M5.41228 38.0964C5.04351 38.0964 4.71353 37.9709 4.46584 37.7331C4.21815 37.4958 4.08763 37.1976 4.08763 36.872V33.1012H12.6577V29.2744H4.08763V24.3164H-0.00012207V37.1018C-0.00012207 37.7888 0.138477 38.4283 0.416075 39.0149C0.693673 39.6016 1.06828 40.1205 1.53279 40.5648C1.99721 41.0087 2.55072 41.3648 3.17926 41.6175C3.80723 41.8701 4.4788 42 5.18515 42H16.2532V38.0964H5.4122H5.41228ZM83.664 41.9407H79.5699V34.9163H68.8723V41.9407H64.7783V24.3905H68.8723V31.3958H79.5699V24.3905H83.664V41.9407ZM22.5373 36.8509C22.5373 37.1958 22.6758 37.508 22.9535 37.7504C23.2311 37.9926 23.5718 38.1138 23.9754 38.1138H37.4121V41.9407H23.6348C22.9593 41.9407 22.3008 41.8167 21.6858 41.5773C21.0702 41.3377 20.5249 40.997 20.0581 40.563C19.5915 40.1291 19.2225 39.6288 18.9606 39.0706C18.6986 38.5118 18.5633 37.8971 18.5633 37.2336V29.0826C18.5633 28.4191 18.6986 27.798 18.9606 27.2268C19.2225 26.6559 19.5946 26.1524 20.0581 25.7343C20.5221 25.3162 21.0676 24.9813 21.6858 24.7391C22.3041 24.4966 22.9536 24.3756 23.6348 24.3756H32.4536C33.2359 24.3756 33.9426 24.5093 34.5735 24.7775C35.2042 25.0455 35.7402 25.4088 36.1818 25.8681C36.6235 26.3274 36.9642 26.8692 37.2038 27.4943C37.4435 28.1194 37.5637 28.7956 37.5637 29.5034V34.9163H22.5374V36.8509H22.5373ZM33.5133 29.4654C33.5133 29.1079 33.3811 28.8083 33.116 28.5659C32.8509 28.3237 32.5112 28.2025 32.1127 28.2025H23.9754C23.5776 28.2025 23.2341 28.3269 22.9721 28.5659C22.7107 28.8051 22.5747 29.1143 22.5747 29.4654V31.3958H33.5133V29.4654H33.5133ZM46.8109 41.9407C46.11 41.9407 45.4269 41.8101 44.7989 41.5577C44.1712 41.3055 43.6152 40.9566 43.1462 40.5246C42.6809 40.0951 42.3039 39.5781 42.0294 38.994C41.7545 38.4101 41.6133 37.7823 41.6133 37.1188V29.1974C41.6133 28.5338 41.7518 27.9088 42.0294 27.322C42.307 26.7355 42.6808 26.2211 43.1462 25.7916C43.6152 25.3596 44.1712 25.0106 44.7989 24.7584C45.4269 24.5062 46.0984 24.3755 46.8109 24.3755H55.5671C56.2797 24.3755 56.9511 24.5062 57.5791 24.7584C58.2068 25.0106 58.7628 25.359 59.2318 25.7916C59.6967 26.2206 60.071 26.7354 60.3486 27.322C60.6263 27.9088 60.7647 28.5397 60.7647 29.1974V31.0342H56.677V29.3885C56.677 29.0826 56.5477 28.8054 56.2983 28.5659C56.0489 28.3268 55.7248 28.2025 55.3523 28.2025H47.0254C46.6526 28.2025 46.3285 28.3263 46.0789 28.5659C45.8295 28.8051 45.7009 29.0885 45.7009 29.3885V36.9277C45.7009 37.2277 45.8295 37.5112 46.0789 37.7503C46.3285 37.9898 46.6467 38.1137 47.0254 38.1137H55.3523C55.7305 38.1137 56.0489 37.9893 56.2983 37.7503C56.5477 37.5106 56.677 37.2336 56.677 36.9277V35.0524H60.7647V37.0804C60.7647 37.7381 60.623 38.3781 60.3486 38.9748C60.0737 39.5714 59.6968 40.0957 59.2318 40.5246C58.7628 40.9572 58.2068 41.3056 57.5791 41.5578C56.9511 41.8102 56.2738 41.9408 55.5671 41.9408H46.8109V41.9407Z" fill="white"/>
<path d="M46.7276 17.6822C46.015 17.6822 45.3461 17.5547 44.7154 17.2994C44.0847 17.0444 43.5356 16.7001 43.0626 16.266C42.5955 15.8326 42.2236 15.3224 41.946 14.7357C41.6683 14.1485 41.5298 13.5239 41.5298 12.8603V4.93887C41.5298 4.27548 41.6683 3.65026 41.946 3.06369C42.2236 2.47695 42.5954 1.96672 43.0626 1.53314C43.5356 1.09931 44.0847 0.754924 44.7154 0.499968C45.3461 0.244526 46.015 0.117007 46.7276 0.117007H55.4835C56.1962 0.117007 56.865 0.244445 57.4957 0.499968C58.1264 0.754843 58.6755 1.09923 59.1484 1.53314C59.6151 1.96672 59.9875 2.47687 60.2652 3.06369C60.5428 3.65026 60.6814 4.27548 60.6814 4.93887V6.7758H56.5935V5.13011C56.5935 4.82412 56.4675 4.54976 56.2149 4.30742C55.9628 4.06524 55.6472 3.94419 55.269 3.94419H46.9419C46.5633 3.94419 46.2481 4.06524 45.9955 4.30742C45.7434 4.54976 45.6173 4.82412 45.6173 5.13011V12.6692C45.6173 12.9752 45.7434 13.2495 45.9955 13.4918C46.248 13.7341 46.5633 13.8552 46.9419 13.8552H55.269C55.6472 13.8552 55.9627 13.7341 56.2149 13.4918C56.4674 13.2495 56.5935 12.9752 56.5935 12.6692V10.7941H60.6814V12.8221C60.6814 13.4855 60.5428 14.1169 60.2652 14.7163C59.9875 15.316 59.6152 15.8327 59.1484 16.2661C58.6755 16.7001 58.1264 17.0444 57.4957 17.2995C56.865 17.5547 56.1961 17.6823 55.4835 17.6823L46.7276 17.6822ZM137 12.7234C137 13.415 136.861 14.0622 136.582 14.6651C136.303 15.2667 135.929 15.7924 135.46 16.2407C134.991 16.6891 134.439 17.0425 133.806 17.298C133.173 17.5533 132.498 17.6821 131.791 17.6821H120.022V13.7612H131.563C131.943 13.7612 132.262 13.6436 132.513 13.4154C132.765 13.1868 132.894 12.8897 132.894 12.5304V10.7486H122.97C122.262 10.7486 121.589 10.6265 120.955 10.3834C120.321 10.1398 119.77 9.7993 119.301 9.36451C118.833 8.92939 118.458 8.41592 118.18 7.82644C117.902 7.23801 117.762 6.59661 117.762 5.90508V0.0373581H121.868V5.67406C121.868 6.03123 121.995 6.32815 122.248 6.55861C122.501 6.78833 122.819 6.90445 123.198 6.90445H132.894V0.0374389H137L137 12.7234ZM62.1489 17.6822L72.1788 0.117007H77.2824L67.2554 17.6762L62.1489 17.6822ZM5.4124 3.90343C5.03731 3.90343 4.71541 4.02764 4.46596 4.26675C4.21691 4.50585 4.08775 4.801 4.08775 5.12776V8.89866H12.6579V12.7256H4.08775V17.6835H0V4.89819C0 4.20933 0.138599 3.57158 0.416197 2.98493C0.693795 2.39836 1.06656 1.88076 1.53291 1.43505C1.99869 0.989342 2.54949 0.636785 3.17938 0.382395C3.80919 0.128408 4.47892 0 5.18527 0H16.2534V3.90343H5.4124ZM33.4264 5.15897C33.4264 4.80601 33.2892 4.5086 33.0146 4.26909C32.7402 4.02942 32.4018 3.90974 32.0034 3.90974H26.1835H20.4999V3.71438V0.123799H23.8209H26.1835H32.3411C33.0147 0.123799 33.6577 0.24404 34.2691 0.483229C34.8811 0.722337 35.4171 1.05767 35.8789 1.48656C36.3406 1.91602 36.7028 2.40774 36.9648 2.96277C37.2268 3.51781 37.3578 4.12435 37.3578 4.77973V11.7201V11.7508V12.7506V13.8968V14.634V17.6822H23.6181C22.8442 17.6822 22.1451 17.5497 21.5205 17.2848C20.8969 17.0196 20.3663 16.6602 19.93 16.206C19.4929 15.7517 19.1561 15.2152 18.9188 14.5973C18.6975 14.0201 18.58 13.4041 18.5653 12.7505H18.5629V12.643V12.6096V12.1671V12.1336C18.5674 11.4404 18.6859 10.7882 18.9188 10.1793C19.1562 9.56132 19.4929 9.02497 19.93 8.57069C20.3662 8.11592 20.8965 7.75665 21.5205 7.49224C22.1451 7.22685 22.8438 7.09488 23.6181 7.09488H31.6227H32.3411H32.358H32.3759H33.4264L33.4264 5.15897ZM33.4264 13.8968V12.8528V12.7506V12.1292V12.1128V10.8798H32.0598H32.0415H31.2181H23.9546C23.5554 10.8798 23.2232 11 22.9622 11.2396C22.7007 11.4783 22.5693 11.7757 22.5693 12.1292V12.6481C22.6094 12.9983 22.7006 13.2979 22.9622 13.5371C23.2232 13.7762 23.5554 13.8969 23.9546 13.8969L33.4264 13.8968ZM84.2362 17.6822C83.5241 17.6822 82.8544 17.5543 82.2236 17.2994C81.5933 17.0444 81.0427 16.7013 80.5709 16.266C80.1034 15.8345 79.7319 15.3156 79.4542 14.7162C79.177 14.1169 79.038 13.4855 79.038 12.822V4.93879C79.038 4.2754 79.1766 3.65018 79.4542 3.06361C79.7319 2.47687 80.1033 1.96478 80.5709 1.53306C81.0426 1.09794 81.5933 0.754843 82.2236 0.499887C82.8544 0.245011 83.5232 0.116926 84.2362 0.116926H92.9919C93.7045 0.116926 94.3733 0.24493 95.004 0.499887C95.6348 0.754763 96.1856 1.09794 96.6572 1.53306C97.1252 1.96478 97.4958 2.47679 97.7734 3.06361C98.0511 3.65018 98.19 4.27572 98.19 4.93879V12.822C98.19 13.4851 98.0507 14.1168 97.7734 14.7162C97.4958 15.3155 97.1252 15.8345 96.6572 16.266C96.1856 16.7013 95.6348 17.0443 95.004 17.2994C94.3733 17.5543 93.704 17.6822 92.9919 17.6822H84.2362ZM94.1019 5.13011C94.1019 4.82412 93.9758 4.54928 93.7237 4.30742C93.4716 4.06524 93.1555 3.94419 92.7773 3.94419H84.4503C84.0725 3.94419 83.7565 4.06572 83.5043 4.30742C83.2522 4.54976 83.1257 4.82461 83.1257 5.13011V12.6692C83.1257 12.9747 83.2521 13.2495 83.5043 13.4918C83.7564 13.7336 84.072 13.8552 84.4503 13.8552H92.7773C93.1559 13.8552 93.4715 13.7341 93.7237 13.4918C93.9758 13.2501 94.1019 12.9752 94.1019 12.6692V5.13011ZM107.402 3.94411C107.055 3.94411 106.738 4.06694 106.475 4.30734C106.211 4.54822 106.077 4.83795 106.077 5.16851V17.6821H101.989V4.82404C101.989 4.16057 102.128 3.54223 102.406 2.96811C102.683 2.39407 103.056 1.89653 103.522 1.47572C103.989 1.05492 104.538 0.72266 105.169 0.48048C105.8 0.238218 106.468 0.117007 107.175 0.117007H114.148V3.94411H107.402Z" fill="white"/>
<path d="M62.1489 17.6824L72.1788 0.117188H77.2824L67.2554 17.6764L62.1489 17.6824Z" fill="#9912EC"/>
<path d="M62.1489 17.6824L72.1788 0.117188H77.2824L67.2554 17.6764L62.1489 17.6824Z" fill="url(#paint0_linear)"/>
</g>
<defs>
<linearGradient id="paint0_linear" x1="69.7157" y1="0.117187" x2="69.7157" y2="17.6824" gradientUnits="userSpaceOnUse">
<stop stop-color="#235DE2"/>
<stop offset="0.0001" stop-color="#235DE2"/>
<stop offset="0.515525" stop-color="#464FDA"/>
<stop offset="0.515625" stop-color="#F3A72D"/>
<stop offset="1" stop-color="#F3A72D"/>
</linearGradient>
<clipPath id="clip0">
<rect width="137" height="42" fill="white"/>
</clipPath>
</defs>
</svg>
