<svg width="87" height="87" viewBox="0 0 87 87" fill="none" xmlns="http://www.w3.org/2000/svg">
<path d="M43.5001 0C25.0883 0 10.1094 14.9792 10.1094 33.3907C10.1094 40.7462 12.4552 47.7226 16.8927 53.5656C20.8778 58.8132 26.4165 62.8187 32.6107 64.9618L40.6558 85.074C41.1212 86.2372 42.2475 86.9997 43.5001 86.9997C44.7527 86.9997 45.879 86.2372 46.3444 85.074L54.3895 64.9618C60.5837 62.8187 66.1224 58.8132 70.1075 53.5656C74.545 47.7226 76.8908 40.7462 76.8908 33.3907C76.8908 14.9792 61.9119 0 43.5001 0ZM43.5001 21.2907C50.1721 21.2907 55.6004 26.7187 55.6004 33.391C55.6004 40.0631 50.1724 45.4916 43.5001 45.4916C36.828 45.4916 31.3998 40.0634 31.3998 33.391C31.3998 26.7187 36.828 21.2907 43.5001 21.2907Z" fill="#169877"/>
<circle cx="45.5" cy="34.5" r="18.5" fill="#169877"/>
<path d="M43.7833 18C33.0848 18 26 24.2667 26 33.904C26 43.4465 33.0848 49.8081 43.7833 49.8081C54.5294 49.8081 61.6142 43.4939 61.6142 33.904C61.5667 24.3141 54.5294 18 43.7833 18ZM54.0064 44.1111L43.8309 37.3222L33.6078 44.1111V39.1263L43.8309 32.3848L54.0064 39.1263V44.1111ZM54.0064 35.4232L43.8309 28.6818L33.6078 35.4232V30.4859L43.8309 23.697L54.0064 30.4859V35.4232Z" fill="white"/>
</svg>
