<svg width="34" height="34" viewBox="0 0 34 34" fill="none" xmlns="http://www.w3.org/2000/svg">
<path d="M33.7925 31.7893L23.9157 21.9125C25.789 19.5998 26.9167 16.6596 26.9167 13.4584C26.9167 6.03747 20.8792 0 13.4583 0C6.0374 0 0 6.03747 0 13.4584C0 20.8793 6.03747 26.9168 13.4584 26.9168C16.6596 26.9168 19.5998 25.7891 21.9125 23.9158L31.7893 33.7925C32.066 34.0691 32.5144 34.0691 32.7911 33.7925L33.7925 32.791C34.0691 32.5144 34.0691 32.0658 33.7925 31.7893ZM13.4584 24.0834C7.59941 24.0834 2.83336 19.3174 2.83336 13.4584C2.83336 7.59941 7.59941 2.83336 13.4584 2.83336C19.3174 2.83336 24.0834 7.59941 24.0834 13.4584C24.0834 19.3174 19.3174 24.0834 13.4584 24.0834Z" fill="white"/>
<path d="M14.8571 13.2857C14.7783 13.2857 14.7143 13.2217 14.7143 13.1429V10H13.2857V13.1429C13.2857 13.2217 13.2217 13.2857 13.1429 13.2857H10V14.7143H13.1429C13.2217 14.7143 13.2857 14.7783 13.2857 14.8571V18H14.7143V14.8571C14.7143 14.7783 14.7783 14.7143 14.8571 14.7143H18V13.2857H14.8571Z" fill="white"/>
</svg>
