<svg width="245" height="54" viewBox="0 0 245 54" fill="none" xmlns="http://www.w3.org/2000/svg">
<path d="M23.727 24.7818V31.0485H0V0.712128H7.32255V24.7343H23.727V24.7818Z" fill="#333333"/>
<path d="M103.23 7.0268H91.961V31.049H84.6384V7.0268H73.3693V0.760132H103.23V7.0268Z" fill="#333333"/>
<path d="M128.573 31.0485L121.916 20.1293H115.829V31.0485H108.507V0.712128H121.868C129.096 0.712128 134.231 3.65556 134.278 10.4444C134.278 14.7646 131.901 17.4232 128.763 18.8475L136.703 31.0485H128.573ZM115.829 14.3848H121.868C124.769 14.3848 126.813 13.2929 126.813 10.4919C126.813 7.83334 124.721 6.74141 121.773 6.74141H115.782V14.3848H115.829Z" fill="#333333"/>
<path d="M166.707 25.0667H149.494L146.879 31.0485H139.224L152.727 0.712128H163.569L177.073 31.0485H169.322L166.707 25.0667ZM151.967 19.2273H164.329L158.148 4.79496L151.967 19.2273Z" fill="#333333"/>
<path d="M212.687 15.8566C212.687 24.3071 206.791 31.0485 195.854 31.0485H182.493V0.712128H196.473C206.933 0.759602 212.687 7.31111 212.687 15.8566ZM205.174 15.7616C205.174 10.2545 201.703 6.74141 196.568 6.74141H189.768V24.9717H196.568C201.703 25.0192 205.174 21.3162 205.174 15.7616Z" fill="#333333"/>
<path d="M244.307 25.0192V31.0485H219.772V0.712128H244.069V6.74141H227.094V12.1061H243.308V17.9929H227.094V25.0667H244.307V25.0192Z" fill="#333333"/>
<path d="M75.6505 50.9879V45.1485H73.2255V44.0091H79.4069V45.1485H76.9818V50.9879H75.6505Z" fill="#333333"/>
<path d="M80.0725 49.0889C80.0725 48.5667 80.2152 48.1394 80.5004 47.8071C80.7857 47.4748 81.1661 47.1899 81.6416 47.0475C82.1171 46.9051 82.5451 46.8101 82.973 46.7152C83.4009 46.6677 83.8289 46.6202 84.2568 46.6202H84.6372V46.4778C84.6372 45.4808 84.1142 44.9586 83.1156 44.9586C82.45 44.9586 81.7843 45.196 81.1661 45.6233L80.6431 44.6263C80.9284 44.3889 81.3088 44.199 81.7843 44.0566C82.2598 43.9141 82.7353 43.8192 83.2108 43.8192C84.1142 43.8192 84.7799 44.0566 85.2554 44.5313C85.7308 45.0061 85.9686 45.6707 85.9686 46.5727V50.9879H84.7323V50.2758L84.7799 49.7061H84.7323C84.5421 50.1333 84.2093 50.4657 83.7813 50.703C83.3534 50.9404 82.9255 51.0829 82.4024 51.0829C81.7843 51.0829 81.2137 50.893 80.7382 50.5132C80.3103 50.2283 80.0725 49.7061 80.0725 49.0889ZM81.4039 48.994C81.4039 49.2788 81.499 49.5637 81.7367 49.801C81.9745 50.0384 82.3073 50.1334 82.6877 50.1334C83.2583 50.1334 83.6862 49.896 84.0191 49.4212C84.3519 48.9465 84.5421 48.4717 84.5421 47.902V47.6172H84.2093C82.3549 47.6172 81.4039 48.0919 81.4039 48.994Z" fill="#333333"/>
<path d="M87.6328 50.9879L88.251 44.0091H89.725L91.4843 47.9495L91.8647 48.899H91.9122C92.0549 48.5667 92.1975 48.2344 92.2926 47.9495L94.0995 44.0091H95.5735L96.1916 50.9879H94.9078L94.6225 46.8576V45.6707H94.575C94.4323 46.003 94.2897 46.3353 94.147 46.6677L92.4828 50.1334H91.3416L89.6774 46.6677L89.2495 45.6232H89.2019V46.8101L88.9166 50.9404H87.6328V50.9879Z" fill="#333333"/>
<path d="M97.523 47.5222C97.523 46.4778 97.9034 45.6233 98.6166 44.9111C99.3299 44.199 100.233 43.8667 101.279 43.8667C102.325 43.8667 103.229 44.199 103.942 44.9111C104.655 45.6233 105.036 46.4778 105.036 47.5222C105.036 48.5667 104.655 49.4212 103.942 50.1333C103.229 50.8455 102.325 51.1778 101.279 51.1778C100.233 51.1778 99.3299 50.8455 98.6166 50.1333C97.9034 49.4212 97.523 48.5667 97.523 47.5222ZM98.9019 47.5222C98.9019 48.2344 99.1397 48.8515 99.6152 49.3263C100.091 49.801 100.661 50.0384 101.327 50.0384C101.993 50.0384 102.563 49.801 103.039 49.3263C103.514 48.8515 103.752 48.2344 103.752 47.5222C103.752 46.8101 103.514 46.1929 103.039 45.7657C102.563 45.2909 101.993 45.0536 101.327 45.0536C100.661 45.0536 100.091 45.2909 99.6152 45.7657C99.1397 46.1929 98.9019 46.7626 98.9019 47.5222Z" fill="#333333"/>
<path d="M105.654 50.9879L107.889 47.4273V47.3798L105.844 44.0091H107.271L108.982 46.8576H109.981V44.0091H111.265V46.8576H112.263L113.975 44.0091H115.401L113.357 47.3798V47.4273L115.592 50.9879H114.07L112.263 47.997H111.217V50.9879H109.933V47.997H108.935L107.08 50.9879H105.654Z" fill="#333333"/>
<path d="M116.162 47.5223C116.162 46.4303 116.495 45.5283 117.161 44.8637C117.826 44.199 118.682 43.8667 119.681 43.8667C120.632 43.8667 121.393 44.199 121.916 44.8162C122.439 45.4334 122.724 46.1929 122.724 47.1424C122.724 47.2849 122.724 47.4273 122.676 47.7121H117.589C117.636 48.4243 117.874 48.994 118.349 49.4212C118.825 49.8485 119.348 50.0384 120.014 50.0384C120.774 50.0384 121.44 49.7536 122.058 49.2313L122.629 50.2283C122.296 50.5132 121.868 50.7505 121.393 50.9404C120.917 51.1303 120.394 51.2253 119.919 51.2253C118.825 51.2253 117.922 50.893 117.256 50.1808C116.495 49.4212 116.162 48.5667 116.162 47.5223ZM117.589 46.7152H121.345C121.345 46.1455 121.155 45.6707 120.822 45.3859C120.489 45.0536 120.109 44.9111 119.633 44.9111C119.11 44.9111 118.682 45.0536 118.302 45.3859C117.922 45.7182 117.684 46.1455 117.589 46.7152Z" fill="#333333"/>
<path d="M124.293 50.9879V44.0091H125.625V46.8576H129.143V44.0091H130.475V50.9879H129.143V47.997H125.625V50.9879H124.293Z" fill="#333333"/>
<path d="M132.567 50.9879V44.0091H133.898V46.8576H137.417V44.0091H138.748V50.9879H137.417V47.997H133.898V50.9879H132.567Z" fill="#333333"/>
<path d="M140.412 47.5222C140.412 46.4778 140.793 45.6233 141.506 44.9111C142.219 44.199 143.123 43.8667 144.169 43.8667C145.215 43.8667 146.118 44.199 146.831 44.9111C147.545 45.6233 147.925 46.4778 147.925 47.5222C147.925 48.5667 147.545 49.4212 146.831 50.1333C146.118 50.8455 145.215 51.1778 144.169 51.1778C143.123 51.1778 142.219 50.8455 141.506 50.1333C140.793 49.4212 140.412 48.5667 140.412 47.5222ZM141.791 47.5222C141.791 48.2344 142.029 48.8515 142.504 49.3263C142.98 49.801 143.55 50.0384 144.216 50.0384C144.882 50.0384 145.452 49.801 145.928 49.3263C146.403 48.8515 146.641 48.2344 146.641 47.5222C146.641 46.8101 146.403 46.1929 145.928 45.7657C145.452 45.2909 144.882 45.0536 144.216 45.0536C143.55 45.0536 142.98 45.2909 142.504 45.7657C141.981 46.1929 141.791 46.7626 141.791 47.5222Z" fill="#333333"/>
<path d="M149.066 47.5223C149.066 46.4303 149.399 45.5283 150.065 44.8637C150.73 44.199 151.586 43.8667 152.585 43.8667C153.536 43.8667 154.297 44.199 154.82 44.8162C155.343 45.4334 155.628 46.1929 155.628 47.1424C155.628 47.2849 155.628 47.4273 155.58 47.7121H150.493C150.54 48.4243 150.778 48.994 151.253 49.4212C151.729 49.8485 152.252 50.0384 152.918 50.0384C153.678 50.0384 154.344 49.7536 154.962 49.2313L155.533 50.2283C155.2 50.5132 154.772 50.7505 154.297 50.9404C153.821 51.1303 153.298 51.2253 152.823 51.2253C151.729 51.2253 150.825 50.893 150.16 50.1808C149.447 49.4212 149.066 48.5667 149.066 47.5223ZM150.54 46.7152H154.297C154.297 46.1455 154.106 45.6707 153.774 45.3859C153.441 45.0536 153.06 44.9111 152.585 44.9111C152.062 44.9111 151.634 45.0536 151.253 45.3859C150.825 45.7182 150.635 46.1455 150.54 46.7152Z" fill="#333333"/>
<path d="M160.24 47.5222C160.24 46.4778 160.621 45.6233 161.334 44.9111C162.047 44.199 162.95 43.8667 163.997 43.8667C165.043 43.8667 165.946 44.199 166.659 44.9111C167.373 45.6233 167.753 46.4778 167.753 47.5222C167.753 48.5667 167.373 49.4212 166.659 50.1333C165.946 50.8455 165.043 51.1778 163.997 51.1778C162.95 51.1778 162.047 50.8455 161.334 50.1333C160.573 49.4212 160.24 48.5667 160.24 47.5222ZM161.572 47.5222C161.572 48.2344 161.809 48.8515 162.285 49.3263C162.76 49.801 163.331 50.0384 163.997 50.0384C164.662 50.0384 165.233 49.801 165.708 49.3263C166.184 48.8515 166.422 48.2344 166.422 47.5222C166.422 46.8101 166.184 46.1929 165.708 45.7657C165.233 45.3384 164.662 45.0536 163.997 45.0536C163.331 45.0536 162.76 45.2909 162.285 45.7657C161.809 46.1929 161.572 46.7626 161.572 47.5222Z" fill="#333333"/>
<path d="M168.942 47.5222C168.942 46.4778 169.275 45.6232 169.988 44.9586C170.701 44.294 171.604 43.9616 172.698 43.9142V41.398H173.982V43.9142C175.076 43.9616 175.979 44.294 176.692 44.9586C177.405 45.6232 177.738 46.4778 177.738 47.5222C177.738 48.5667 177.405 49.4212 176.692 50.1334C175.979 50.798 175.076 51.1778 173.982 51.2253V53.8364H172.698V51.2253C171.604 51.1778 170.701 50.798 169.988 50.1334C169.275 49.4212 168.942 48.5667 168.942 47.5222ZM170.273 47.5222C170.273 48.2344 170.511 48.8515 170.939 49.3263C171.414 49.801 171.985 50.0384 172.698 50.0859V45.0061C171.985 45.0536 171.367 45.2909 170.939 45.7657C170.463 46.1455 170.273 46.7627 170.273 47.5222ZM173.982 50.0384C174.695 49.9909 175.313 49.7536 175.741 49.2788C176.217 48.8041 176.407 48.2344 176.407 47.4748C176.407 46.7152 176.169 46.1455 175.741 45.6707C175.266 45.2434 174.695 44.9586 173.982 44.9111V50.0384Z" fill="#333333"/>
<path d="M178.927 47.5222C178.927 46.4778 179.307 45.6233 180.021 44.9111C180.734 44.199 181.637 43.8667 182.683 43.8667C183.729 43.8667 184.633 44.199 185.346 44.9111C186.059 45.6233 186.44 46.4778 186.44 47.5222C186.44 48.5667 186.059 49.4212 185.346 50.1333C184.633 50.8455 183.729 51.1778 182.683 51.1778C181.637 51.1778 180.734 50.8455 180.021 50.1333C179.307 49.4212 178.927 48.5667 178.927 47.5222ZM180.306 47.5222C180.306 48.2344 180.544 48.8515 181.019 49.3263C181.495 49.801 182.065 50.0384 182.731 50.0384C183.397 50.0384 183.967 49.801 184.443 49.3263C184.918 48.8515 185.156 48.2344 185.156 47.5222C185.156 46.8101 184.918 46.1929 184.443 45.7657C183.967 45.2909 183.397 45.0536 182.731 45.0536C182.065 45.0536 181.495 45.2909 181.019 45.7657C180.544 46.1929 180.306 46.7626 180.306 47.5222Z" fill="#333333"/>
<path d="M188.056 53.7414V44.0091H189.293V44.6263L189.245 45.1485H189.293C189.53 44.7212 189.816 44.4364 190.244 44.199C190.672 43.9616 191.099 43.8667 191.623 43.8667C192.573 43.8667 193.287 44.199 193.857 44.8637C194.428 45.5283 194.666 46.4303 194.666 47.5222C194.666 48.6142 194.38 49.5162 193.762 50.1808C193.192 50.8455 192.431 51.1778 191.48 51.1778C190.529 51.1778 189.816 50.798 189.293 49.9909H189.245C189.293 50.1334 189.293 50.3707 189.293 50.6081V53.7889H188.056V53.7414ZM189.388 47.5222C189.388 48.1869 189.578 48.7566 189.911 49.2313C190.244 49.7061 190.767 49.9909 191.337 49.9909C191.908 49.9909 192.383 49.7536 192.764 49.3263C193.144 48.899 193.334 48.2818 193.334 47.5222C193.334 46.7627 193.144 46.1455 192.811 45.7182C192.431 45.2434 191.955 45.0536 191.385 45.0536C190.814 45.0536 190.339 45.2434 189.958 45.6707C189.578 46.098 189.388 46.7152 189.388 47.5222Z" fill="#333333"/>
<path d="M196.092 50.9879L196.71 44.0091H198.184L199.944 47.9495L200.324 48.899H200.372C200.514 48.5667 200.657 48.2344 200.752 47.9495L202.559 44.0091H204.033L204.651 50.9879H203.367L203.082 46.8576V45.6707H203.034C202.892 46.003 202.749 46.3353 202.606 46.6677L200.942 50.1334H199.801L198.137 46.6677L197.709 45.6232H197.661V46.8101L197.376 50.9404H196.092V50.9879Z" fill="#333333"/>
<path d="M205.697 51.0829V49.896C206.22 49.801 206.601 49.4687 206.886 48.899C207.171 48.3293 207.266 47.4273 207.266 46.1929V44.0566H211.926V51.0354H210.595V45.1485H208.55V46.1929C208.55 47.8071 208.312 48.994 207.884 49.801C207.409 50.6081 206.696 51.0354 205.697 51.0829Z" fill="#333333"/>
<path d="M213.543 47.5223C213.543 46.4303 213.875 45.5283 214.541 44.8637C215.207 44.199 216.063 43.8667 217.061 43.8667C218.012 43.8667 218.773 44.199 219.296 44.8162C219.819 45.4334 220.104 46.1929 220.104 47.1424C220.104 47.2849 220.104 47.4273 220.057 47.7121H214.969C215.017 48.4243 215.254 48.994 215.73 49.4212C216.205 49.8485 216.728 50.0384 217.394 50.0384C218.155 50.0384 218.821 49.7536 219.439 49.2313L220.009 50.2283C219.676 50.5132 219.248 50.7505 218.773 50.9404C218.297 51.1303 217.774 51.2253 217.299 51.2253C216.205 51.2253 215.302 50.893 214.636 50.1808C213.875 49.4212 213.543 48.5667 213.543 47.5223ZM214.969 46.7152H218.725C218.725 46.1455 218.535 45.6707 218.202 45.3859C217.87 45.0536 217.489 44.9111 217.014 44.9111C216.491 44.9111 216.063 45.0536 215.682 45.3859C215.302 45.7182 215.064 46.1455 214.969 46.7152Z" fill="#333333"/>
<path d="M221.673 50.9879V44.0091H223.005V46.8576H226.523V44.0091H227.855V50.9879H226.523V47.997H223.005V50.9879H221.673Z" fill="#333333"/>
<path d="M229.995 50.9879V44.0091H231.278V48.1869C231.278 48.6616 231.278 48.994 231.231 49.1364H231.278C231.326 49.0414 231.516 48.7091 231.897 48.1869L234.892 44.0091H236.176V50.9879H234.892V46.8101C234.892 46.6677 234.892 46.4778 234.892 46.2879C234.892 46.0505 234.892 45.9081 234.892 45.9081H234.845C234.845 45.9081 234.654 46.2404 234.227 46.8101L231.183 50.9879H229.995Z" fill="#333333"/>
<path d="M237.793 47.5223C237.793 46.4303 238.125 45.5283 238.791 44.8637C239.457 44.199 240.313 43.8667 241.311 43.8667C242.262 43.8667 243.023 44.199 243.546 44.8162C244.069 45.4334 244.354 46.1929 244.354 47.1424C244.354 47.2849 244.354 47.4273 244.307 47.7121H239.219C239.267 48.4243 239.504 48.994 239.98 49.4212C240.455 49.8485 240.978 50.0384 241.644 50.0384C242.405 50.0384 243.071 49.7536 243.689 49.2313L244.259 50.2283C243.926 50.5132 243.498 50.7505 243.023 50.9404C242.548 51.1303 242.024 51.2253 241.549 51.2253C240.455 51.2253 239.552 50.893 238.886 50.1808C238.125 49.4212 237.793 48.5667 237.793 47.5223ZM239.219 46.7152H242.975C242.975 46.1455 242.785 45.6707 242.452 45.3859C242.12 45.0536 241.739 44.9111 241.264 44.9111C240.741 44.9111 240.313 45.0536 239.932 45.3859C239.552 45.7182 239.314 46.1455 239.219 46.7152Z" fill="#333333"/>
<path d="M44.5534 0C33.8549 0 26.7701 6.26667 26.7701 15.904C26.7701 25.4465 33.8549 31.8081 44.5534 31.8081C55.2995 31.8081 62.3843 25.4939 62.3843 15.904C62.3368 6.31414 55.2995 0 44.5534 0ZM54.7765 26.1111L44.601 19.3222L34.3779 26.1111V21.1263L44.601 14.3848L54.7765 21.1263V26.1111ZM54.7765 17.4232L44.601 10.6818L34.3779 17.4232V12.4859L44.601 5.69697L54.7765 12.4859V17.4232Z" fill="#375245"/>
</svg>
