<svg width="21" height="21" viewBox="0 0 21 21" fill="none" xmlns="http://www.w3.org/2000/svg">
<g clip-path="url(#clip0)">
<path d="M10.5 21C6.88101 21 3.9375 18.0565 3.9375 14.4375V5.25C3.9375 4.76614 4.32955 4.37505 4.81245 4.37505C5.2955 4.37505 5.68755 4.76614 5.68755 5.25V14.4375C5.68755 17.0905 7.84616 19.2499 10.5 19.2499C13.1538 19.2499 15.3124 17.0905 15.3124 14.4375V4.81245C15.3124 3.12376 13.9387 1.75005 12.2501 1.75005C10.5612 1.75005 9.1875 3.12376 9.1875 4.81245V13.5626C9.1875 14.2861 9.7763 14.8751 10.5 14.8751C11.2237 14.8751 11.8125 14.2861 11.8125 13.5626V5.25C11.8125 4.76614 12.2046 4.37505 12.6874 4.37505C13.1705 4.37505 13.5626 4.76614 13.5626 5.25V13.5626C13.5626 15.2512 12.1887 16.6249 10.5 16.6249C8.81131 16.6249 7.43745 15.2512 7.43745 13.5626V4.81245C7.43745 2.15957 9.59605 0 12.2501 0C14.9039 0 17.0625 2.15957 17.0625 4.81245V14.4375C17.0625 18.0565 14.119 21 10.5 21Z" fill="#919191"/>
</g>
<defs>
<clipPath id="clip0">
<rect width="21" height="21" fill="white"/>
</clipPath>
</defs>
</svg>
