<svg width="495" height="662" viewBox="0 0 495 662" fill="none" xmlns="http://www.w3.org/2000/svg">
<mask id="mask0" mask-type="alpha" maskUnits="userSpaceOnUse" x="0" y="0" width="495" height="662">
<g clip-path="url(#clip0)">
<path d="M192.533 698H-179.734V62.5292H-40.1339V30.5375H28.2119L38.3911 8.725L42.7536 0H124.187L128.549 8.725L140.183 30.5375H208.529V61.075H348.129V356.271H317.591V93.0667H208.529V139.6H-9.5964V109.062H176.537V62.5292H121.279L116.916 53.8042L105.283 31.9917H61.6578L50.0244 53.8042L45.6619 62.5292H-9.5964V93.0667H-149.196V667.462H192.533V698ZM426.654 433.342C487.729 494.417 487.729 591.846 426.654 652.921C365.579 713.996 268.149 713.996 207.074 652.921C145.999 591.846 145.999 494.417 207.074 433.342C268.149 372.267 365.579 372.267 426.654 433.342ZM441.195 542.404C441.195 474.058 385.937 418.8 316.137 418.8C282.691 418.8 252.154 431.887 228.887 455.154C180.899 503.142 180.899 581.667 228.887 631.108C276.874 679.096 355.399 679.096 404.841 631.108C428.108 607.842 441.195 577.304 441.195 542.404ZM-86.6672 495.871H52.9328V526.408H-86.6672V495.871ZM-86.6672 434.796H115.462V465.333H-86.6672V434.796ZM-86.6672 341.729H255.062V372.267H-86.6672V341.729ZM-86.6672 216.671H255.062V247.208H-86.6672C-86.6672 248.662 -86.6672 216.671 -86.6672 216.671ZM-86.6672 279.2H255.062V309.737H-86.6672V279.2Z" fill="#E2E2E2"/>
<path d="M315.578 592.293L402.828 505.043L378.107 483.231L302.491 558.847L261.774 518.131L239.961 539.943L292.311 592.293L303.945 603.927L315.578 592.293Z" fill="#E2E2E2"/>
</g>
</mask>
<g mask="url(#mask0)">
<rect y="-77" width="618" height="739" fill="white"/>
</g>
<defs>
<clipPath id="clip0">
<rect width="495" height="662" fill="white"/>
</clipPath>
</defs>
</svg>
