<?xml version="1.0" standalone="no"?>
<!DOCTYPE svg PUBLIC "-//W3C//DTD SVG 1.1//EN" "http://www.w3.org/Graphics/SVG/1.1/DTD/svg11.dtd" >
<svg>
<metadata>
Created by FontForge 20090914 at Sun Apr  9 14:25:40 2017
 By www-data
Copyright (c) 2011-2014 by tyPoland Lukasz Dziedzic (http://www.typoland.com/) with Reserved Font Name "Lato". Licensed under the SIL Open Font License, Version 1.1 (http://scripts.sil.org/OFL). 
</metadata>
<defs>
<font id="Lato-Heavy" horiz-adv-x="800" >
  <font-face 
    font-family="Lato Heavy"
    font-weight="800"
    font-stretch="normal"
    units-per-em="2000"
    panose-1="2 15 5 2 2 2 4 3 2 3"
    ascent="1610"
    descent="-390"
    x-height="1031"
    cap-height="1451"
    bbox="-151 -415.998 2684 1926"
    underline-thickness="99"
    underline-position="-412"
    unicode-range="U+0020-U+04FF"
  />
<missing-glyph horiz-adv-x="1107" 
d="M235 1149c39.333 31.333 84.001 57.5 134.001 78.5s109 31.5 177 31.5c48.667 0 92.334 -6.5 131.001 -19.5s71.167 -31.167 97.5 -54.5s46.5 -51.666 60.5 -84.999s21 -70 21 -110c0 -36.667 -4.5 -68.167 -13.5 -94.5s-20.333 -49.333 -34 -69s-28.667 -36.5 -45 -50.5
l-46.5 -39c-14.667 -12 -27.834 -23.833 -39.501 -35.5s-19.167 -24.834 -22.5 -39.501l-25 -94h-188l-19 114c-4.66699 25.333 -3.5 47 3.5 65s17 34.167 30 48.5s28 27.5 45 39.5s32.833 24.667 47.5 38s27 28 37 44s15 35 15 57c0 19.333 -6.33301 35.333 -19 48
s-33 19 -61 19c-23.333 0 -42.5 -2 -57.5 -6s-28 -8.5 -39 -13.5l-30.5 -13.5c-9.33301 -4 -19.333 -6 -30 -6c-24.667 0 -43.334 10.667 -56.001 32zM380.001 321c0 20 3.66699 38.833 11 56.5s17.666 33 30.999 46s28.833 23.333 46.5 31s37.167 11.5 58.5 11.5
c20.667 0 39.834 -3.83301 57.501 -11.5s33 -18 46 -31s23.333 -28.333 31 -46s11.5 -36.5 11.5 -56.5s-3.83301 -38.833 -11.5 -56.5s-18 -33 -31 -46s-28.333 -23.167 -46 -30.5s-36.834 -11 -57.501 -11c-21.333 0 -40.833 3.66699 -58.5 11s-33.167 17.5 -46.5 30.5
s-23.666 28.333 -30.999 46s-11 36.5 -11 56.5zM41.001 1451h1025v-1451h-1025v1451zM111.001 74h876v1303h-876v-1303z" />
    <glyph glyph-name="f_b.liga" unicode="fb" horiz-adv-x="1883" 
d="M1132 912c40.667 40.667 85.667 73.335 135 98.002s104.666 37 165.999 37c59.333 0 112.833 -11.833 160.5 -35.5s88.334 -57.5 122.001 -101.5s59.667 -97.167 78 -159.5s27.5 -132.166 27.5 -209.499c0 -83.333 -10.5 -159.166 -31.5 -227.499
s-50.833 -126.833 -89.5 -175.5s-84.834 -86.334 -138.501 -113.001s-113.5 -40 -179.5 -40c-32 0 -60.667 3.16699 -86 9.5s-48.666 15.166 -69.999 26.499s-41 24.833 -59 40.5s-35 33.167 -51 52.5l-11 -62c-4.66699 -19.333 -12.334 -32.833 -23.001 -40.5
s-25 -11.5 -43 -11.5h-183v1310c-24.667 9.33301 -50.5 16.833 -77.5 22.5s-53.5 8.5 -79.5 8.5c-39.333 0 -74.166 -6.33301 -104.499 -19s-55.833 -30.334 -76.5 -53.001s-36.334 -49.5 -47.001 -80.5s-16 -64.5 -16 -100.5v-63h256v-192h-247v-833h-275v833l-80 14
c-20.667 4 -37.5 11.333 -50.5 22s-19.5 26 -19.5 46v110h150v63c0 62 9.83301 119.167 29.5 171.5s50.667 97.5 93 135.5s96.833 67.667 163.5 89s147.334 32 242.001 32c32.667 0 63.5 -1.16699 92.5 -3.5s58.5 -5 88.5 -8s61.5 -5.83301 94.5 -8.5
s70.5 -4.33398 112.5 -5.00098h27v-579zM1132 272.001c26 -30 54.168 -50.999 84.501 -62.999s61.833 -18 94.5 -18c34 0 64.833 6.16699 92.5 18.5s51.5 32 71.5 59s35.333 62.167 46 105.5s16 95.666 16 156.999c0 54.667 -4.33301 101.167 -13 139.5
s-21.5 69.833 -38.5 94.5s-37.833 42.667 -62.5 54s-53.334 17 -86.001 17c-43.333 0 -80.833 -9.5 -112.5 -28.5s-62.5 -46.833 -92.5 -83.5v-452z" />
    <glyph glyph-name="f_f_b.liga" unicode="ffb" horiz-adv-x="2538" 
d="M189 0l-0.00195312 832.998l-80 14c-20.667 4 -37.5 11.333 -50.5 22s-19.5 26 -19.5 46v110h150v50c0 58.667 9.16699 111.834 27.5 159.501s44.5 88 78.5 121s75.667 58.5 125 76.5s105 27 167 27c24 0 46.833 -1.66699 68.5 -5s43.5 -8 65.5 -14l-6 -136
c-1.33301 -20 -10.166 -33.333 -26.499 -40s-34.5 -10 -54.5 -10c-28 0 -53.167 -3 -75.5 -9s-41.166 -16.167 -56.499 -30.5s-27 -33.666 -35 -57.999s-12 -54.5 -12 -90.5v-41h389v63c0 62 9.83301 119.167 29.5 171.5s50.667 97.5 93 135.5s96.833 67.667 163.5 89
s147.334 32 242.001 32c34.667 0 67.167 -1.33301 97.5 -4l93 -8.5c31.667 -3 65.5 -5.83301 101.5 -8.5s77 -4 123 -4v-579c40.667 40.667 85.667 73.334 135 98.001s104.666 37 165.999 37c59.333 0 112.833 -11.833 160.5 -35.5s88.334 -57.5 122 -101.5
c33.667 -44 59.667 -97.167 78 -159.5s27.5 -132.166 27.5 -209.499c0 -83.333 -10.5 -159.166 -31.5 -227.499s-50.833 -126.833 -89.5 -175.5s-84.834 -86.334 -138.5 -113.001c-53.667 -26.667 -113.5 -40 -179.5 -40c-32 0 -60.667 3.16699 -86 9.5
s-48.666 15.166 -69.999 26.499s-41 24.833 -59 40.5s-35 33.167 -51 52.5l-11 -62c-4.66699 -19.333 -12.334 -32.833 -23.001 -40.5s-25 -11.5 -43 -11.5h-183v1310c-24.667 9.33301 -50.334 16.833 -77.001 22.5s-53.334 8.5 -80.001 8.5
c-39.333 0 -74.166 -6.33301 -104.499 -19s-55.666 -30.334 -75.999 -53.001s-35.833 -49.5 -46.5 -80.5s-16 -64.5 -16 -100.5v-63h255v-192h-247v-833h-275v833h-380v-833h-275zM1787 271.998c26 -30 54.168 -50.999 84.501 -62.999s61.833 -18 94.5 -18
c34 0 64.833 6.16699 92.5 18.5s51.5 32 71.5 59s35.333 62.167 46 105.5s16 95.666 16 156.999c0 54.667 -4.33301 101.167 -13 139.5s-21.5 69.833 -38.5 94.5s-37.833 42.667 -62.5 54s-53.334 17 -86.001 17c-43.333 0 -80.833 -9.5 -112.5 -28.5
s-62.5 -46.833 -92.5 -83.5v-452z" />
    <glyph glyph-name="f_f.liga" unicode="ff" horiz-adv-x="1379" 
d="M189 0l-0.00292969 832.996l-80 14c-20.667 4 -37.5 11.333 -50.5 22s-19.5 26 -19.5 46v110h150v50c0 58.667 9.16699 111.834 27.5 159.501s44.5 88 78.5 121s75.667 58.5 125 76.5s105 27 167 27c24 0 46.833 -1.66699 68.5 -5s43.5 -8 65.5 -14l-6 -136
c-1.33301 -20 -10.166 -33.333 -26.499 -40s-34.5 -10 -54.5 -10c-28 0 -53.167 -3 -75.5 -9s-41.166 -16.167 -56.499 -30.5s-27 -33.666 -35 -57.999s-12 -54.5 -12 -90.5v-41h389v85c0 58.667 9.16699 111.834 27.5 159.501s44.5 88 78.5 121s75.667 58.5 125 76.5
s105 27 167 27c24 0 46.833 -1.5 68.5 -4.5s43.5 -7.5 65.5 -13.5l-6 -136c-1.33301 -20.667 -10.166 -34.167 -26.499 -40.5s-34.5 -9.5 -54.5 -9.5c-28 0 -53.167 -3 -75.5 -9s-41 -16.167 -56 -30.5s-26.5 -33.666 -34.5 -57.999s-12 -54.5 -12 -90.5v-77h255v-192h-247
v-833h-275v833h-380v-833h-275z" />
    <glyph glyph-name="f_h.liga" unicode="fh" horiz-adv-x="1875" 
d="M1132 930c19.333 17.333 39.499 33.1699 60.499 47.5029s43.333 26.666 67 36.999s49 18.333 76 24s56.167 8.5 87.5 8.5c56 0 105.667 -9.66699 149 -29s79.833 -46.333 109.5 -81s52 -76 67 -124s22.5 -100.667 22.5 -158v-655h-275v655
c0 57.333 -13.333 101.833 -40 133.5s-66 47.5 -118 47.5c-38.667 0 -75 -8.33301 -109 -25s-66.333 -40 -97 -70v-741h-276v1310c-24.667 9.33301 -50.5 16.833 -77.5 22.5s-53.5 8.5 -79.5 8.5c-39.333 0 -74.166 -6.33301 -104.499 -19s-55.833 -30.334 -76.5 -53.001
s-36.334 -49.5 -47.001 -80.5s-16 -64.5 -16 -100.5v-63h256v-192h-247v-833h-275v833l-80 14c-20.667 4 -37.5 11.333 -50.5 22s-19.5 26 -19.5 46v110h150v63c0 62 9.83301 119.167 29.5 171.5s50.667 97.5 93 135.5s96.833 67.667 163.5 89s147.334 32 242.001 32
c32.667 0 63.5 -1.16699 92.5 -3.5s58.5 -5 88.5 -8s61.5 -5.83301 94.5 -8.5s70.5 -4.33398 112.5 -5.00098h27v-561z" />
    <glyph glyph-name="f_f_h.liga" unicode="ffh" horiz-adv-x="2531" 
d="M189 0l-0.00292969 833.002l-80 14c-20.667 4 -37.5 11.333 -50.5 22s-19.5 26 -19.5 46v110h150v50c0 58.667 9.16699 111.834 27.5 159.501s44.5 88 78.5 121s75.667 58.5 125 76.5s105 27 167 27c24 0 46.833 -1.66699 68.5 -5s43.5 -8 65.5 -14l-6 -136
c-1.33301 -20 -10.166 -33.333 -26.499 -40s-34.5 -10 -54.5 -10c-28 0 -53.167 -3 -75.5 -9s-41.166 -16.167 -56.499 -30.5s-27 -33.666 -35 -57.999s-12 -54.5 -12 -90.5v-41h389v63c0 62 9.83301 119.167 29.5 171.5s50.667 97.5 93 135.5s96.833 67.667 163.5 89
s147.334 32 242.001 32c32.667 0 63.5 -1.16699 92.5 -3.5s58.5 -5 88.5 -8s61.5 -5.83301 94.5 -8.5s70.5 -4.33398 112.5 -5.00098h27v-561c19.333 17.333 39.5 33.166 60.5 47.499s43.333 26.666 67 36.999s49 18.333 76 24s56.167 8.5 87.5 8.5
c56 0 105.667 -9.66699 149 -29s79.833 -46.333 109.5 -81s52 -76 67 -124s22.5 -100.667 22.5 -158v-655h-275v655c0 57.333 -13.333 101.833 -40 133.5s-66 47.5 -118 47.5c-38.667 0 -75 -8.33301 -109 -25s-66.333 -40 -97 -70v-741h-276v1310
c-24.667 9.33301 -50.334 16.833 -77.001 22.5s-53.334 8.5 -80.001 8.5c-39.333 0 -74.166 -6.33301 -104.499 -19s-55.666 -30.334 -75.999 -53.001s-35.833 -49.5 -46.5 -80.5s-16 -64.5 -16 -100.5v-63h255v-192h-247v-833h-275v833h-380v-833h-275z" />
    <glyph glyph-name="f_i.liga" unicode="fi" horiz-adv-x="1225" 
d="M189 0v833.004l-80 14c-20.667 4 -37.5 11.333 -50.5 22s-19.5 26 -19.5 46v110h150v25c0 62.667 10.5 121.167 31.5 175.5s53.333 101.666 97 141.999s99 72 166 95s146.5 34.5 238.5 34.5c28.667 0 58.334 -1.5 89.001 -4.5s57 -7.5 79 -13.5l-9 -141
c-0.666992 -8 -3.16699 -14.333 -7.5 -19s-10.166 -8.33398 -17.499 -11.001s-15.5 -4.33398 -24.5 -5.00098s-18.5 -1 -28.5 -1c-66.667 0 -122.334 -5.5 -167.001 -16.5s-80.334 -27.5 -107.001 -49.5s-45.5 -49.333 -56.5 -82s-16.5 -70.334 -16.5 -113.001v-16h646
v-1025h-276v833h-361v-833h-276z" />
    <glyph glyph-name="f_f_i.liga" unicode="ffi" horiz-adv-x="1880" 
d="M189 0l0.000976562 833l-80 14c-20.667 4 -37.5 11.333 -50.5 22s-19.5 26 -19.5 46v110h150v50c0 58.667 9.16699 111.834 27.5 159.501s44.666 88 78.999 121s76 58.5 125 76.5s104.5 27 166.5 27c24.667 0 47.667 -1.66699 69 -5s43 -8 65 -14l-5 -136
c-1.33301 -20 -10.333 -33.333 -27 -40s-34.667 -10 -54 -10c-28.667 0 -54 -3 -76 -9s-40.667 -16.167 -56 -30.5s-27 -33.666 -35 -57.999s-12 -54.5 -12 -90.5v-41h388v25c0 62.667 10.5 121.167 31.5 175.5s53.333 101.666 97 141.999s99 72 166 95
s146.5 34.5 238.5 34.5c28.667 0 58.334 -1.5 89.001 -4.5s57 -7.5 79 -13.5l-9 -141c-1.33301 -16 -9.66602 -26 -24.999 -30s-33 -6 -53 -6c-66.667 0 -122.334 -5.5 -167.001 -16.5s-80.334 -27.5 -107.001 -49.5s-45.5 -49.333 -56.5 -82s-16.5 -70.334 -16.5 -113.001
v-16h646v-1025h-276v833h-361v-833h-276v833h-379v-833h-276z" />
    <glyph glyph-name="f_j.liga" unicode="fj" horiz-adv-x="1225" 
d="M189 0l0.000976562 833.003l-80 14c-20.667 4 -37.5 11.333 -50.5 22s-19.5 26 -19.5 46v110h150v25c0 62.667 10.5 121.167 31.5 175.5s53.333 101.666 97 141.999s99 72 166 95s146.5 34.5 238.5 34.5c28.667 0 58.334 -1.5 89.001 -4.5s57 -7.5 79 -13.5l-9 -141
c-0.666992 -8 -3.16699 -14.333 -7.5 -19s-10.166 -8.33398 -17.499 -11.001s-15.5 -4.33398 -24.5 -5.00098s-18.5 -1 -28.5 -1c-66.667 0 -122.334 -5.5 -167.001 -16.5s-80.334 -27.5 -107.001 -49.5s-45.5 -49.333 -56.5 -82s-16.5 -70.334 -16.5 -113.001v-16h646
v-1045c0 -46.667 -6 -90.5 -18 -131.5s-31.5 -76.833 -58.5 -107.5s-62.333 -55 -106 -73s-97.5 -27 -161.5 -27c-24 0 -46.5 1.66699 -67.5 5s-42.5 8 -64.5 14l10 146c1.33301 13.333 6.16602 22.666 14.499 27.999s24.833 8 49.5 8s45 2.16699 61 6.5
s28.833 11.833 38.5 22.5s16.5 24.834 20.5 42.501s6 39.834 6 66.501v853h-361v-833h-276z" />
    <glyph glyph-name="f_f_j.liga" unicode="ffj" horiz-adv-x="1880" 
d="M189 0l0.00195312 832.999l-80 14c-20.667 4 -37.5 11.333 -50.5 22s-19.5 26 -19.5 46v110h150v50c0 58.667 9.16699 111.834 27.5 159.501s44.666 88 78.999 121s76 58.5 125 76.5s104.5 27 166.5 27c24.667 0 47.667 -1.66699 69 -5s43 -8 65 -14l-5 -136
c-1.33301 -20 -10.333 -33.333 -27 -40s-34.667 -10 -54 -10c-28.667 0 -54 -3 -76 -9s-40.667 -16.167 -56 -30.5s-27 -33.666 -35 -57.999s-12 -54.5 -12 -90.5v-41h388v25c0 62.667 10.5 121.167 31.5 175.5s53.333 101.666 97 141.999s99 72 166 95
s146.5 34.5 238.5 34.5c28.667 0 58.334 -1.5 89.001 -4.5s57 -7.5 79 -13.5l-9 -141c-1.33301 -16 -9.66602 -26 -24.999 -30s-33 -6 -53 -6c-66.667 0 -122.334 -5.5 -167.001 -16.5s-80.334 -27.5 -107.001 -49.5s-45.5 -49.333 -56.5 -82s-16.5 -70.334 -16.5 -113.001
v-16h646v-1045c0 -46.667 -6 -90.5 -18 -131.5s-31.5 -76.833 -58.5 -107.5s-62.333 -55 -106 -73s-97.5 -27 -161.5 -27c-24 0 -46.5 1.66699 -67.5 5s-42.167 8 -63.5 14l9 146c1.33301 13.333 6.16602 22.666 14.499 27.999s24.833 8 49.5 8s45 2.16699 61 6.5
s28.833 11.833 38.5 22.5s16.5 24.834 20.5 42.501s6 39.834 6 66.501v853h-361v-833h-276v833h-379v-833h-276z" />
    <glyph glyph-name="f_k.liga" unicode="fk" horiz-adv-x="1832" 
d="M189 0v833.001l-80 14c-20.667 4 -37.5 11.333 -50.5 22s-19.5 26 -19.5 46v110h150v63c0 62 9.83301 119.167 29.5 171.5s50.667 97.5 93 135.5s96.833 67.667 163.5 89s147.334 32 242.001 32c34.667 0 67.167 -1.33301 97.5 -4l93 -8.5
c31.667 -3 65.5 -5.83301 101.5 -8.5s77 -4 123 -4v-846h46c17.333 0 31 2.5 41 7.5s20 14.167 30 27.5l228 304c11.333 15.333 24.166 27 38.499 35s32.5 12 54.5 12h252l-296 -376c-23.333 -31.333 -50.333 -56 -81 -74c15.333 -10.667 28.666 -23 39.999 -37
s22.333 -29.667 33 -47l319 -497h-248c-21.333 0 -39.666 3.5 -54.999 10.5s-28 19.5 -38 37.5l-232 379c-9.33301 16 -19 26.333 -29 31s-25 7 -45 7h-58v-465h-276v1310c-24.667 9.33301 -50.5 16.833 -77.5 22.5s-53.5 8.5 -79.5 8.5
c-39.333 0 -74.166 -6.33301 -104.499 -19s-55.833 -30.334 -76.5 -53.001s-36.334 -49.5 -47.001 -80.5s-16 -64.5 -16 -100.5v-63h256v-192h-247v-833h-275z" />
    <glyph glyph-name="f_f_k.liga" unicode="ffk" horiz-adv-x="2488" 
d="M189 0l0.000976562 833.001l-80 14c-20.667 4 -37.5 11.333 -50.5 22s-19.5 26 -19.5 46v110h150v50c0 58.667 9.16699 111.834 27.5 159.501s44.666 88 78.999 121s76 58.5 125 76.5s104.5 27 166.5 27c24.667 0 47.667 -1.66699 69 -5s43 -8 65 -14l-5 -136
c-1.33301 -20 -10.333 -33.333 -27 -40s-34.667 -10 -54 -10c-28.667 0 -54 -3 -76 -9s-40.667 -16.167 -56 -30.5s-27 -33.666 -35 -57.999s-12 -54.5 -12 -90.5v-41h388v63c0 62 9.83301 119.167 29.5 171.5s50.667 97.5 93 135.5s96.833 67.667 163.5 89
s147.334 32 242.001 32c32.667 0 63.5 -1.16699 92.5 -3.5s58.5 -5 88.5 -8s61.667 -5.83301 95 -8.5s70.666 -4.33398 111.999 -5.00098h27v-846h46c17.333 0 31 2.5 41 7.5s20 14.167 30 27.5l228 304c11.333 15.333 24.166 27 38.5 35c14.333 8 32.5 12 54.5 12h252
l-296 -376c-23.333 -31.333 -50.333 -56 -81 -74c15.333 -10.667 28.666 -23 40 -37c11.333 -14 22.333 -29.667 33 -47l319 -497h-248c-21.333 0 -39.666 3.5 -54.999 10.5s-28 19.5 -38 37.5l-232 379c-9.33301 16 -19 26.333 -29 31s-25 7 -45 7h-58v-465h-276v1311
c-24.667 9.33301 -50.334 16.666 -77.001 21.999s-53 8 -79 8c-39.333 0 -74.166 -6.33301 -104.499 -19s-55.833 -30.334 -76.5 -53.001s-36.334 -49.5 -47.001 -80.5s-16 -64.5 -16 -100.5v-63h256v-192h-247v-833h-276v833h-379v-833h-276z" />
    <glyph glyph-name="f_l.liga" unicode="fl" horiz-adv-x="1243" 
d="M189 0l-0.00195312 833l-80 14c-20.667 4 -37.5 11.333 -50.5 22s-19.5 26 -19.5 46v110h150v40c0 54 8.66699 106 26 156s43.833 94.333 79.5 133s81 69.667 136 93s120.167 35 195.5 35c62.667 0 121.834 -2.16699 177.501 -6.5s111.834 -6.5 168.501 -6.5h155v-1469
h-274v1282c-34.667 1.33301 -68.5 2.83301 -101.5 4.5s-60.167 2.5 -81.5 2.5c-69.333 0 -122.333 -19.167 -159 -57.5s-55 -93.833 -55 -166.5v-40h234v-192h-225v-833h-276z" />
    <glyph glyph-name="f_f_l.liga" unicode="ffl" horiz-adv-x="1897" 
d="M189 0l-0.00390625 832.998l-80 14c-20.667 4 -37.5 11.333 -50.5 22s-19.5 26 -19.5 46v110h150v50c0 58.667 9.16699 111.834 27.5 159.501s44.5 88 78.5 121s75.667 58.5 125 76.5s105 27 167 27c24 0 46.833 -1.66699 68.5 -5s43.5 -8 65.5 -14l-6 -136
c-1.33301 -20 -10.166 -33.333 -26.499 -40s-34.5 -10 -54.5 -10c-28 0 -53.167 -3 -75.5 -9s-41.166 -16.167 -56.499 -30.5s-27 -33.666 -35 -57.999s-12 -54.5 -12 -90.5v-41h389v40c0 54 8.66699 106 26 156s43.833 94.333 79.5 133s80.834 69.667 135.501 93
s119.667 35 195 35c62.667 0 122.167 -2.16699 178.5 -6.5s112.5 -6.5 168.5 -6.5h154v-1469h-274v1282c-34.667 1.33301 -68.5 2.83301 -101.5 4.5s-60.167 2.5 -81.5 2.5c-69.333 0 -122.166 -19.167 -158.499 -57.5s-54.5 -93.833 -54.5 -166.5v-40h255v-192h-247v-833
h-275v833h-380v-833h-275z" />
    <glyph glyph-name="f_t.liga" unicode="ft" horiz-adv-x="1434" 
d="M1135 833l0.00195312 -538c0 -28.667 7 -51.334 21 -68.001s33.333 -25 58 -25c13.333 0 24.666 1.5 33.999 4.5s17.333 6.33301 24 10l18.5 10c5.66699 3 11.5 4.5 17.5 4.5c8 0 14.667 -1.83301 20 -5.5s10.666 -9.83398 15.999 -18.501l83 -132
c-38 -30 -81 -52.667 -129 -68s-97.667 -23 -149 -23c-46.667 0 -88 6.83301 -124 20.5s-66.333 33.167 -91 58.5s-43.334 56 -56.001 92s-19 76.667 -19 122v556h-395v-833h-275v833l-80 14c-20.667 4 -37.5 11.333 -50.5 22s-19.5 26 -19.5 46v110h150v68
c0 58.667 9.16699 111.834 27.5 159.501s44.5 88 78.5 121s75.667 58.5 125 76.5s105 27 167 27c24 0 46.833 -1.5 68.5 -4.5s43.5 -7.5 65.5 -13.5l-6 -136c-1.33301 -20.667 -10.166 -34.167 -26.499 -40.5s-34.5 -9.5 -54.5 -9.5c-28 0 -53.167 -3 -75.5 -9
s-41.166 -16.167 -56.499 -30.5s-27 -33.666 -35 -57.999s-12 -54.5 -12 -90.5v-60h418l58 269c7.33301 30 27.666 45 60.999 45h143v-314h266v-192h-266z" />
    <glyph glyph-name="f_f_t.liga" unicode="fft" horiz-adv-x="2089" 
d="M189 0l0.00292969 832.999l-80 14c-20.667 4 -37.5 11.333 -50.5 22s-19.5 26 -19.5 46v110h150v50c0 58.667 9.16699 111.834 27.5 159.501s44.666 88 78.999 121s76 58.5 125 76.5s104.5 27 166.5 27c24.667 0 47.667 -1.66699 69 -5s43 -8 65 -14l-5 -136
c-1.33301 -20 -10.333 -33.333 -27 -40s-34.667 -10 -54 -10c-28.667 0 -54 -3 -76 -9s-40.667 -16.167 -56 -30.5s-27 -33.666 -35 -57.999s-12 -54.5 -12 -90.5v-41h388v68c0 58.667 9.16699 111.834 27.5 159.501s44.666 88 78.999 121s76 58.5 125 76.5
s104.5 27 166.5 27c24.667 0 47.667 -1.5 69 -4.5s43 -7.5 65 -13.5l-5 -136c-0.666992 -10 -3.5 -18.333 -8.5 -25s-11.167 -11.834 -18.5 -15.501s-15.666 -6.16699 -24.999 -7.5s-19 -2 -29 -2c-28.667 0 -54 -3 -76 -9s-40.667 -16.167 -56 -30.5
s-27 -33.666 -35 -57.999s-12 -54.5 -12 -90.5v-60h418l57 269c7.33301 30 27.666 45 60.999 45h143v-314h267v-192h-267v-538c0 -28.667 7 -51.334 21 -68.001s33.667 -25 59 -25c13.333 0 24.5 1.5 33.5 4.5s17 6.33301 24 10l19 10c5.66699 3 11.5 4.5 17.5 4.5
c8 0 14.667 -1.83301 20 -5.5s10.666 -9.83398 15.999 -18.501l83 -132c-38 -30 -81 -52.667 -129 -68s-98 -23 -150 -23c-46.667 0 -88 6.83301 -124 20.5s-66.167 33.167 -90.5 58.5s-42.833 56 -55.5 92s-19 76.667 -19 122v556h-395v-833h-276v833h-379v-833h-276z" />
    <glyph glyph-name="t_f.liga" unicode="tf" horiz-adv-x="1419" 
d="M882 0l0.00195312 833h-426v-538c0 -28.667 6.83301 -51.334 20.5 -68.001s33.167 -25 58.5 -25c13.333 0 24.666 1.5 33.999 4.5s17.333 6.33301 24 10l18.5 10c5.66699 3 11.5 4.5 17.5 4.5c8 0 14.667 -1.83301 20 -5.5s10.666 -9.83398 15.999 -18.501l83 -132
c-38 -30 -81 -52.667 -129 -68s-97.667 -23 -149 -23c-46.667 0 -88 6.83301 -124 20.5s-66.333 33.167 -91 58.5s-43.334 56 -56.001 92s-19 76.667 -19 122v556h-97c-14.667 0 -27.167 4.66699 -37.5 14s-15.5 23.333 -15.5 42v108l165 30l56 267
c7.33301 30 27.666 45 60.999 45h144v-314h426v68c0 58.667 9.16699 111.834 27.5 159.501s44.5 88 78.5 121s75.667 58.5 125 76.5s105 27 167 27c24 0 46.833 -1.5 68.5 -4.5s43.5 -7.5 65.5 -13.5l-6 -136c-1.33301 -20.667 -10.166 -34.167 -26.499 -40.5
s-34.5 -9.5 -54.5 -9.5c-28 0 -53.167 -3 -75.5 -9s-41.166 -16.167 -56.499 -30.5s-27 -33.666 -35 -57.999s-12 -54.5 -12 -90.5v-60h256v-192h-247v-833h-275z" />
    <glyph glyph-name="t_t.liga" unicode="tt" horiz-adv-x="1423" 
d="M470 -16c-46.667 0 -87.9922 6.83691 -123.992 20.5039s-66.333 33.167 -91 58.5s-43.334 56 -56.001 92s-19 76.667 -19 122v556h-97c-14.667 0 -27.167 4.66699 -37.5 14s-15.5 23.333 -15.5 42v108l165 30l56 267c7.33301 30 27.666 45 60.999 45h144v-314h406l58 269
c7.33301 30 27.666 45 60.999 45h143v-314h266v-192h-266v-538c0 -28.667 7 -51.334 21 -68.001s33.333 -25 58 -25c13.333 0 24.666 1.5 33.999 4.5s17.333 6.33301 24 10l18.5 10c5.66699 3 11.5 4.5 17.5 4.5c8 0 14.667 -1.83301 20 -5.5
s10.666 -9.83398 15.999 -18.501l83 -132c-38 -30 -81 -52.667 -129 -68s-97.667 -23 -149 -23c-46.667 0 -88 6.83301 -124 20.5s-66.333 33.167 -91 58.5s-43.334 56 -56.001 92s-19 76.667 -19 122v556h-392v-538c0 -28.667 6.83301 -51.334 20.5 -68.001
s33.167 -25 58.5 -25c13.333 0 24.666 1.5 33.999 4.5s17.333 6.33301 24 10l18.5 10c5.66699 3 11.5 4.5 17.5 4.5c8 0 14.667 -1.83301 20 -5.5s10.666 -9.83398 15.999 -18.501l83 -132c-38 -30 -81 -52.667 -129 -68s-97.667 -23 -149 -23z" />
    <glyph glyph-name="t_t_f.liga" unicode="ttf" horiz-adv-x="2087" 
d="M2076 1323c-1.33301 -20.667 -10.1582 -34.165 -26.4922 -40.498c-16.333 -6.33301 -34.5 -9.5 -54.5 -9.5c-28 0 -53.167 -3 -75.5 -9s-41 -16.167 -56 -30.5s-26.5 -33.666 -34.5 -57.999s-12 -54.5 -12 -90.5v-60h255v-192h-247v-833h-275v833h-426v-538
c0 -28.667 7 -51.334 21 -68.001s33.333 -25 58 -25c13.333 0 24.666 1.5 33.999 4.5s17.333 6.33301 24 10l18.5 10c5.66699 3 11.5 4.5 17.5 4.5c8 0 14.667 -1.83301 20 -5.5s10.666 -9.83398 15.999 -18.501l83 -132c-38 -30 -81 -52.667 -129 -68s-97.667 -23 -149 -23
c-46.667 0 -88 6.83301 -124 20.5s-66.333 33.167 -91 58.5s-43.334 56 -56.001 92s-19 76.667 -19 122v556h-392v-538c0 -28.667 6.83301 -51.334 20.5 -68.001s33.167 -25 58.5 -25c13.333 0 24.666 1.5 33.999 4.5s17.333 6.33301 24 10l18.5 10
c5.66699 3 11.5 4.5 17.5 4.5c8 0 14.667 -1.83301 20 -5.5s10.666 -9.83398 15.999 -18.501l83 -132c-38 -30 -81 -52.667 -129 -68s-97.667 -23 -149 -23c-46.667 0 -88 6.83301 -124 20.5s-66.333 33.167 -91 58.5s-43.334 56 -56.001 92s-19 76.667 -19 122v556h-97
c-14.667 0 -27.167 4.66699 -37.5 14s-15.5 23.333 -15.5 42v108l165 30l56 267c7.33301 30 27.666 45 60.999 45h144v-314h407l57 269c7.33301 30 27.666 45 60.999 45h143v-314h426v68c0 58.667 9.16699 111.834 27.5 159.501s44.5 88 78.5 121s75.667 58.5 125 76.5
s105 27 167 27c24 0 46.833 -1.5 68.5 -4.5s43.5 -7.5 65.5 -13.5z" />
    <glyph glyph-name="t_i.liga" unicode="ti" horiz-adv-x="1310" 
d="M1188 0l-274.996 0.00195312v833h-457v-538c0 -28.667 6.83301 -51.334 20.5 -68.001s33.167 -25 58.5 -25c13.333 0 24.666 1.5 33.999 4.5s17.333 6.33301 24 10l18.5 10c5.66699 3 11.5 4.5 17.5 4.5c8 0 14.667 -1.83301 20 -5.5s10.666 -9.83398 15.999 -18.501
l83 -132c-38 -30 -81 -52.667 -129 -68s-97.667 -23 -149 -23c-46.667 0 -88 6.83301 -124 20.5s-66.333 33.167 -91 58.5s-43.334 56 -56.001 92s-19 76.667 -19 122v556h-97c-14.667 0 -27.167 4.66699 -37.5 14s-15.5 23.333 -15.5 42v108l165 30l56 267
c7.33301 30 27.666 45 60.999 45h144v-314h732v-1025zM1231 1326c0 -22.667 -4.66699 -44.167 -14 -64.5s-21.833 -38 -37.5 -53s-34 -27 -55 -36s-43.5 -13.5 -67.5 -13.5c-22.667 0 -44.167 4.5 -64.5 13.5s-38.166 21 -53.499 36s-27.5 32.667 -36.5 53
s-13.5 41.833 -13.5 64.5c0 23.333 4.5 45.166 13.5 65.499s21.167 38.166 36.5 53.499s33.166 27.5 53.499 36.5s41.833 13.5 64.5 13.5c24 0 46.5 -4.5 67.5 -13.5s39.333 -21.167 55 -36.5s28.167 -33.166 37.5 -53.499s14 -42.166 14 -65.499z" />
    <glyph glyph-name="t_t_i.liga" unicode="tti" horiz-adv-x="1959" 
d="M1836 0l-274.992 0.00390625v833h-437v-538c0 -28.667 7 -51.334 21 -68.001s33.333 -25 58 -25c13.333 0 24.666 1.5 33.999 4.5s17.333 6.33301 24 10l18.5 10c5.66699 3 11.5 4.5 17.5 4.5c8 0 14.667 -1.83301 20 -5.5s10.666 -9.83398 15.999 -18.501l83 -132
c-38 -30 -81 -52.667 -129 -68s-97.667 -23 -149 -23c-46.667 0 -88 6.83301 -124 20.5s-66.333 33.167 -91 58.5s-43.334 56 -56.001 92s-19 76.667 -19 122v556h-392v-538c0 -28.667 6.83301 -51.334 20.5 -68.001s33.167 -25 58.5 -25c13.333 0 24.666 1.5 33.999 4.5
s17.333 6.33301 24 10l18.5 10c5.66699 3 11.5 4.5 17.5 4.5c8 0 14.667 -1.83301 20 -5.5s10.666 -9.83398 15.999 -18.501l83 -132c-38 -30 -81 -52.667 -129 -68s-97.667 -23 -149 -23c-46.667 0 -88 6.83301 -124 20.5s-66.333 33.167 -91 58.5s-43.334 56 -56.001 92
s-19 76.667 -19 122v556h-97c-14.667 0 -27.167 4.66699 -37.5 14s-15.5 23.333 -15.5 42v108l165 30l56 267c7.33301 30 27.666 45 60.999 45h144v-314h407l57 269c7.33301 30 27.666 45 60.999 45h143v-314h712v-1025zM1874.01 1326c0 -22.667 -4.66699 -44.167 -14 -64.5
s-21.833 -38 -37.5 -53s-34 -27 -55 -36s-43.5 -13.5 -67.5 -13.5c-22.667 0 -44.167 4.5 -64.5 13.5s-38.166 21 -53.499 36s-27.5 32.667 -36.5 53s-13.5 41.833 -13.5 64.5c0 23.333 4.5 45.166 13.5 65.499s21.167 38.166 36.5 53.499s33.166 27.5 53.499 36.5
s41.833 13.5 64.5 13.5c24 0 46.5 -4.5 67.5 -13.5s39.333 -21.167 55 -36.5s28.167 -33.166 37.5 -53.499s14 -42.166 14 -65.499z" />
    <glyph glyph-name=".notdef" horiz-adv-x="1107" 
d="M235 1149c39.333 31.333 84.001 57.5 134.001 78.5s109 31.5 177 31.5c48.667 0 92.334 -6.5 131.001 -19.5s71.167 -31.167 97.5 -54.5s46.5 -51.666 60.5 -84.999s21 -70 21 -110c0 -36.667 -4.5 -68.167 -13.5 -94.5s-20.333 -49.333 -34 -69s-28.667 -36.5 -45 -50.5
l-46.5 -39c-14.667 -12 -27.834 -23.833 -39.501 -35.5s-19.167 -24.834 -22.5 -39.501l-25 -94h-188l-19 114c-4.66699 25.333 -3.5 47 3.5 65s17 34.167 30 48.5s28 27.5 45 39.5s32.833 24.667 47.5 38s27 28 37 44s15 35 15 57c0 19.333 -6.33301 35.333 -19 48
s-33 19 -61 19c-23.333 0 -42.5 -2 -57.5 -6s-28 -8.5 -39 -13.5l-30.5 -13.5c-9.33301 -4 -19.333 -6 -30 -6c-24.667 0 -43.334 10.667 -56.001 32zM380.001 321c0 20 3.66699 38.833 11 56.5s17.666 33 30.999 46s28.833 23.333 46.5 31s37.167 11.5 58.5 11.5
c20.667 0 39.834 -3.83301 57.501 -11.5s33 -18 46 -31s23.333 -28.333 31 -46s11.5 -36.5 11.5 -56.5s-3.83301 -38.833 -11.5 -56.5s-18 -33 -31 -46s-28.333 -23.167 -46 -30.5s-36.834 -11 -57.501 -11c-21.333 0 -40.833 3.66699 -58.5 11s-33.167 17.5 -46.5 30.5
s-23.666 28.333 -30.999 46s-11 36.5 -11 56.5zM41.001 1451h1025v-1451h-1025v1451zM111.001 74h876v1303h-876v-1303z" />
    <glyph glyph-name="glyph1" horiz-adv-x="0" 
 />
    <glyph glyph-name="glyph1" horiz-adv-x="0" 
 />
    <glyph glyph-name="space" unicode=" " horiz-adv-x="475" 
 />
    <glyph glyph-name="exclam" unicode="!" horiz-adv-x="572" 
d="M416 1451l-0.00195312 -572c0 -60.667 -3.16699 -120.667 -9.5 -180s-15.166 -121 -26.499 -185h-186c-11.333 64 -20.166 125.667 -26.499 185s-9.5 119.333 -9.5 180v572h258zM120.998 145c0 22 4.16699 42.833 12.5 62.5s19.833 36.667 34.5 51
s31.834 25.666 51.501 33.999s41.167 12.5 64.5 12.5c22.667 0 43.834 -4.16699 63.501 -12.5s36.834 -19.666 51.501 -33.999s26.334 -31.333 35.001 -51s13 -40.5 13 -62.5c0 -22.667 -4.33301 -43.667 -13 -63s-20.334 -36.166 -35.001 -50.499
s-31.834 -25.5 -51.501 -33.5s-40.834 -12 -63.501 -12c-23.333 0 -44.833 4 -64.5 12s-36.834 19.167 -51.501 33.5s-26.167 31.166 -34.5 50.499s-12.5 40.333 -12.5 63z" />
    <glyph glyph-name="quotedbl" unicode="&#x22;" horiz-adv-x="811" 
d="M334 1451l0.000976562 -287l-24 -157c-5.33301 -32 -14.833 -56.667 -28.5 -74s-36.167 -26 -67.5 -26c-27.333 0 -48.333 8.66699 -63 26s-25.334 42 -32.001 74l-25 157v287h240zM716.001 1451l0.000976562 -287l-24 -157c-5.33301 -32 -14.833 -56.667 -28.5 -74
s-36.167 -26 -67.5 -26c-27.333 0 -48.333 8.66699 -63 26s-25.334 42 -32.001 74l-25 157v287h240z" />
    <glyph glyph-name="numbersign" unicode="#" horiz-adv-x="1160" 
d="M689 855h-187l-46 -257h187zM1141 1051l-21 -113.997c-5.33301 -28 -17 -48.667 -35 -62s-46.667 -20 -86 -20h-83l-46 -257h126c28 0 47.833 -8.33301 59.5 -25s14.5 -45 8.5 -85l-14 -86h-208l-74 -402h-127c-12.667 0 -24.5 3 -35.5 9s-20.333 14.167 -28 24.5
s-13 22.166 -16 35.499s-2.83301 27.666 0.5 42.999l53 290h-186l-54 -304c-6.66699 -35.333 -21.667 -60.5 -45 -75.5s-49.666 -22.5 -78.999 -22.5h-122l73 402h-103c-28 0 -47.833 8.16699 -59.5 24.5s-14.5 44.5 -8.5 84.5l14 87h185l46 257h-207l21 114
c5.33301 28 17.166 48.667 35.499 62s47.166 20 86.499 20h91l58 309c5.33301 28 18.833 50.167 40.5 66.5s46.834 24.5 75.501 24.5h126l-74 -400h187l74 400h123c28.667 0 51.5 -8.83301 68.5 -26.5s23.167 -39.834 18.5 -66.501l-57 -307h198z" />
    <glyph glyph-name="dollar" unicode="$" horiz-adv-x="1160" 
d="M639 214c64 9.33301 112 31.1689 144 65.502s48 80.166 48 137.499c0 22.667 -4 42.5 -12 59.5s-19 32.167 -33 45.5s-30.667 25.166 -50 35.499s-40.333 19.5 -63 27.5zM562 1234c-34 -4.66699 -62.999 -12.165 -86.999 -22.498s-43.5 -22.833 -58.5 -37.5
s-26 -30.834 -33 -48.501s-10.5 -36.5 -10.5 -56.5c0 -22.667 3.83301 -42.834 11.5 -60.501s18.5 -33.5 32.5 -47.5s30.667 -26.5 50 -37.5s40.666 -20.833 63.999 -29.5zM696.001 840.005c32 -9.33301 64.001 -19.5029 96.001 -30.5029s62.667 -23.5 92 -37.5
s56.666 -30.333 81.999 -49s47.5 -40.5 66.5 -65.5s33.833 -53.833 44.5 -86.5s16 -70 16 -112c0 -62 -10.5 -120.5 -31.5 -175.5s-51.833 -103.667 -92.5 -146s-90.334 -76.833 -149.001 -103.5s-126 -42.667 -202 -48l-12 -136c-1.33301 -17.333 -8.66602 -33 -21.999 -47
s-30.666 -21 -51.999 -21h-101l19 211c-38 5.33301 -75.5 13.5 -112.5 24.5s-72.5 24.333 -106.5 40s-66 33.334 -96 53.001s-57 41.167 -81 64.5l85 125c7.33301 10.667 17.333 19.5 30 26.5s25.667 10.5 39 10.5c15.333 0 31.333 -4.66699 48 -14s35.167 -20.5 55.5 -33.5
s43.333 -26.167 69 -39.5s55.5 -23.666 89.5 -30.999l38 415c-32 8.66699 -63.833 18.5 -95.5 29.5s-62.167 23.833 -91.5 38.5s-56.5 31.834 -81.5 51.501s-46.833 43.167 -65.5 70.5s-33.334 58.833 -44.001 94.5s-16 76.834 -16 123.501c0 52 10.333 102.5 31 151.5
s50.834 92.833 90.501 131.5s88.5 70.5 146.5 95.5s124.667 39.5 200 43.5l11 119c1.33301 17.333 8.83301 32.833 22.5 46.5s30.834 20.5 51.501 20.5h102l-18 -196c72 -12.667 133.667 -33.334 185 -62.001s95.333 -61 132 -97l-68 -100
c-9.33301 -15.333 -19.333 -26.5 -30 -33.5s-23.334 -10.5 -38.001 -10.5c-10 0 -21.833 2.83301 -35.5 8.5s-28.834 12.667 -45.501 21s-35.167 16.833 -55.5 25.5s-41.833 16 -64.5 22z" />
    <glyph glyph-name="percent" unicode="%" horiz-adv-x="1654" 
d="M755 1100c0 -54 -9.33203 -103 -27.999 -147s-43.834 -81.833 -75.501 -113.5s-68.167 -56 -109.5 -73s-84.333 -25.5 -129 -25.5c-49.333 0 -94.666 8.5 -135.999 25.5s-77.166 41.333 -107.499 73s-54 69.5 -71 113.5s-25.5 93 -25.5 147c0 56 8.5 106.5 25.5 151.5
s40.667 83.333 71 115s66.166 56.167 107.499 73.5s86.666 26 135.999 26s95 -8.66699 137 -26s78.167 -41.833 108.5 -73.5s54 -70 71 -115s25.5 -95.5 25.5 -151.5zM543.001 1100c0 36 -3.33301 66.167 -10 90.5s-15.834 43.833 -27.501 58.5s-25.5 25.167 -41.5 31.5
s-33 9.5 -51 9.5s-34.833 -3.16699 -50.5 -9.5s-29 -16.833 -40 -31.5s-19.667 -34.167 -26 -58.5s-9.5 -54.5 -9.5 -90.5c0 -35.333 3.16699 -64.666 9.5 -87.999s15 -42.166 26 -56.499s24.333 -24.5 40 -30.5s32.5 -9 50.5 -9s35 3 51 9s29.833 16.167 41.5 30.5
s20.834 33.166 27.501 56.499s10 52.666 10 87.999zM1225 1409c9.33301 10.667 20.498 20.333 33.498 29s31.167 13 54.5 13h201l-1085 -1411c-9.33301 -11.333 -20.666 -20.833 -33.999 -28.5s-29.666 -11.5 -48.999 -11.5h-205zM1581 340.999
c0 -54 -9.33203 -103 -27.999 -147s-43.834 -81.833 -75.501 -113.5s-68.167 -56 -109.5 -73s-84.333 -25.5 -129 -25.5c-49.333 0 -94.666 8.5 -135.999 25.5s-77.166 41.333 -107.499 73s-54 69.5 -71 113.5s-25.5 93 -25.5 147c0 56 8.5 106.5 25.5 151.5
s40.667 83.333 71 115s66.166 56 107.499 73s86.666 25.5 135.999 25.5s95 -8.5 137 -25.5s78.167 -41.333 108.5 -73s54 -70 71 -115s25.5 -95.5 25.5 -151.5zM1369 340.999c0 36 -3.33301 66.167 -10 90.5s-15.834 43.833 -27.501 58.5s-25.5 25.167 -41.5 31.5
s-33 9.5 -51 9.5s-34.833 -3.16699 -50.5 -9.5s-29 -16.833 -40 -31.5s-19.667 -34.167 -26 -58.5s-9.5 -54.5 -9.5 -90.5c0 -35.333 3.16699 -64.666 9.5 -87.999s15 -42.166 26 -56.499s24.333 -24.5 40 -30.5s32.5 -9 50.5 -9s35 3 51 9s29.833 16.167 41.5 30.5
s20.834 33.166 27.501 56.499s10 52.666 10 87.999z" />
    <glyph glyph-name="ampersand" unicode="&#x26;" horiz-adv-x="1456" 
d="M477 663c-46 -33.333 -78.999 -69.9971 -98.999 -109.997s-30 -82.333 -30 -127c0 -34.667 5.66699 -65.834 17 -93.501s27 -51.334 47 -71.001s43.667 -34.834 71 -45.501s56.666 -16 87.999 -16c52 0 100.167 7.5 144.5 22.5s84.833 36.5 121.5 64.5zM1456 0.00292969
h-270.997c-14 0 -26.5 0.666992 -37.5 2s-21.167 4 -30.5 8s-18.333 9.33301 -27 16s-17.667 15 -27 25l-82 86c-64 -48.667 -134.5 -86.334 -211.5 -113.001s-159.5 -40 -247.5 -40c-56.667 0 -112.334 9.83301 -167.001 29.5s-103.334 47.667 -146.001 84
s-77 80.333 -103 132s-39 109.834 -39 174.501c0 44.667 7 87 21 127s33.833 77 59.5 111s56 65 91 93s73.5 52 115.5 72c-34 49.333 -58.5 97.5 -73.5 144.5s-22.5 93.5 -22.5 139.5c0 50.667 9.33301 98.834 28 144.501s45.667 85.667 81 120s78.833 61.5 130.5 81.5
s110.5 30 176.5 30c61.333 0 116 -9.16699 164 -27.5s88.667 -42.833 122 -73.5s59.5 -65.667 78.5 -105s30.5 -80.333 34.5 -123l-176 -36c-32.667 -6.66699 -56.334 6.66602 -71.001 39.999c-13.333 34.667 -31.833 63.167 -55.5 85.5s-55.834 33.5 -96.501 33.5
c-25.333 0 -48 -4.5 -68 -13.5s-36.833 -21.167 -50.5 -36.5s-24 -33.166 -31 -53.499s-10.5 -41.833 -10.5 -64.5c0 -18.667 1.83301 -36.667 5.5 -54s9.66699 -34.833 18 -52.5s19.5 -35.834 33.5 -54.501s31 -38.667 51 -60l373 -390c20.667 40.667 37 83.5 49 128.5
s20 91.167 24 138.5c2 17.333 7.83301 31 17.5 41s22.834 15 39.501 15h173c0 -92 -12.833 -179 -38.5 -261s-61.5 -157.333 -107.5 -226z" />
    <glyph glyph-name="quotesingle" unicode="'" horiz-adv-x="429" 
d="M334 1451l0.000976562 -287l-24 -157c-5.33301 -32 -14.833 -56.667 -28.5 -74s-36.167 -26 -67.5 -26c-27.333 0 -48.333 8.66699 -63 26s-25.334 42 -32.001 74l-25 157v287h240z" />
    <glyph glyph-name="parenleft" unicode="(" horiz-adv-x="555" 
d="M305 627c0 -135.333 15.833 -269 47.5 -401s76.834 -255.667 135.501 -371c8 -14.667 12.5 -27.5 13.5 -38.5s0 -20.833 -3 -29.5s-7.66699 -16 -14 -22s-13.5 -11.333 -21.5 -16l-122 -73c-49.333 76 -91.333 152.333 -126 229s-63 154.5 -85 233.5
s-38.167 159 -48.5 240s-15.5 163.833 -15.5 248.5c0 84 5.16699 166.667 15.5 248s26.5 161.333 48.5 240s50.333 156.5 85 233.5s76.667 153.167 126 228.5l122 -72c8 -4.66699 15.167 -10 21.5 -16s11 -13.333 14 -22s4 -18.667 3 -30s-5.5 -24.333 -13.5 -39
c-58.667 -114.667 -103.834 -238 -135.501 -370s-47.5 -265.667 -47.5 -401z" />
    <glyph glyph-name="parenright" unicode=")" horiz-adv-x="555" 
d="M250 627c0 135.333 -15.833 269 -47.5 401s-76.834 255.333 -135.501 370c-8 14.667 -12.5 27.667 -13.5 39s0 21.333 3 30s7.66699 16 14 22s13.166 11.333 20.499 16l123 72c48.667 -75.333 90.334 -151.5 125.001 -228.5s63 -154.833 85 -233.5
s38.167 -158.667 48.5 -240s15.5 -164 15.5 -248c0 -84.667 -5.16699 -167.5 -15.5 -248.5s-26.5 -161 -48.5 -240s-50.333 -156.833 -85 -233.5s-76.334 -153 -125.001 -229l-123 73c-7.33301 4.66699 -14.166 10 -20.499 16s-11 13.333 -14 22s-4 18.5 -3 29.5
s5.5 23.833 13.5 38.5c58.667 115.333 103.834 239 135.501 371s47.5 265.667 47.5 401z" />
    <glyph glyph-name="asterisk" unicode="*" horiz-adv-x="850" 
d="M604 1203c-12 -7.33301 -24.167 -13.5 -36.5 -18.5s-24.833 -8.83301 -37.5 -11.5c24.667 -4 49.334 -13.667 74.001 -29l153 -91l-64 -109l-153 91c-12 7.33301 -23.333 14.833 -34 22.5s-20 16.167 -28 25.5c8 -23.333 12 -48.666 12 -75.999v-180h-131v178
c0 13.333 0.833008 26.5 2.5 39.5s4.5 25.167 8.5 36.5c-15.333 -17.333 -35.333 -32.666 -60 -45.999l-152 -89l-65 109l153 89c12.667 7.33301 25.167 13.5 37.5 18.5s24.833 8.5 37.5 10.5c-12.667 2 -25.334 5.66699 -38.001 11s-25 11.666 -37 18.999l-153 91l64 108
l153 -91c24.667 -13.333 45 -29 61 -47c-8 22.667 -12 47.667 -12 75v181h131v-179c0 -13.333 -0.833008 -26.5 -2.5 -39.5s-4.5 -25.167 -8.5 -36.5c8 9.33301 17.167 17.666 27.5 24.999s21.5 14.333 33.5 21l152 89l65 -108z" />
    <glyph glyph-name="plus" unicode="+" horiz-adv-x="1160" 
d="M1071 571h-380v-405h-224v405h-378v201h378v404h224v-404h380v-201z" />
    <glyph glyph-name="comma" unicode="," horiz-adv-x="473" 
d="M113 -246c-7.33301 6 -12.499 12.001 -15.499 18.001s-4.5 13.333 -4.5 22c0 6 2.16699 12.5 6.5 19.5s9.5 13.5 15.5 19.5l27 29.5c10.667 11.667 21.334 24.667 32.001 39s20.5 30.166 29.5 47.499s15.833 35.666 20.5 54.999c-22 0.666992 -42 5.33398 -60 14.001
s-33.333 20 -46 34s-22.5 30.5 -29.5 49.5s-10.5 39.5 -10.5 61.5c0 20 3.66699 38.667 11 56s17.833 32.333 31.5 45s30 22.667 49 30s40.167 11 63.5 11c27.333 0 51.166 -4.83301 71.499 -14.5s37.166 -22.5 50.499 -38.5s23.333 -34.833 30 -56.5s10 -44.5 10 -68.5
c0 -32.667 -5 -67.167 -15 -103.5s-25 -72.833 -45 -109.5s-44.5 -72.5 -73.5 -107.5s-62.5 -66.833 -100.5 -95.5z" />
    <glyph glyph-name="hyphen" unicode="-" horiz-adv-x="747" 
d="M109 719h528v-226h-528v226z" />
    <glyph glyph-name="period" unicode="." horiz-adv-x="476" 
d="M75 145c0 22 4.16699 42.833 12.5 62.5s19.833 36.667 34.5 51s31.834 25.666 51.501 33.999s41.167 12.5 64.5 12.5c22.667 0 44 -4.16699 64 -12.5s37.333 -19.666 52 -33.999s26.167 -31.333 34.5 -51s12.5 -40.5 12.5 -62.5c0 -22.667 -4.16699 -43.667 -12.5 -63
s-19.833 -36.166 -34.5 -50.499s-32 -25.5 -52 -33.5s-41.333 -12 -64 -12c-23.333 0 -44.833 4 -64.5 12s-36.834 19.167 -51.501 33.5s-26.167 31.166 -34.5 50.499s-12.5 40.333 -12.5 63z" />
    <glyph glyph-name="slash" unicode="/" horiz-adv-x="944" 
d="M317 4c-12.667 -33.333 -32.832 -58.5 -60.499 -75.5s-55.834 -25.5 -84.501 -25.5h-117l577 1493c11.333 30 29.333 53.333 54 70s53 25 85 25h118z" />
    <glyph glyph-name="zero" unicode="0" horiz-adv-x="1160" 
d="M1115 726c0 -126.667 -13.667 -236.667 -41 -330s-65 -170.5 -113 -231.5s-104.833 -106.333 -170.5 -136s-136.5 -44.5 -212.5 -44.5s-146.667 14.833 -212 44.5s-121.666 75 -168.999 136s-84.5 138.167 -111.5 231.5s-40.5 203.333 -40.5 330s13.5 236.5 40.5 329.5
s64.167 170 111.5 231s103.666 106.333 168.999 136s136 44.5 212 44.5s146.833 -14.833 212.5 -44.5s122.5 -75 170.5 -136s85.667 -138 113 -231s41 -202.833 41 -329.5zM830 726c0 102.667 -7.16699 187.334 -21.5 254.001s-33.166 119.334 -56.499 158.001
s-50.166 65.667 -80.499 81s-61.5 23 -93.5 23s-62.833 -7.66699 -92.5 -23s-56 -42.333 -79 -81s-41.5 -91.334 -55.5 -158.001s-21 -151.334 -21 -254.001c0 -103.333 7 -188.333 21 -255s32.5 -119.334 55.5 -158.001s49.333 -65.667 79 -81s60.5 -23 92.5 -23
s63.167 7.66699 93.5 23s57.166 42.333 80.499 81s42.166 91.334 56.499 158.001s21.5 151.667 21.5 255z" />
    <glyph glyph-name="one" unicode="1" horiz-adv-x="1160" 
d="M1042 203l0.000976562 -202.999h-814v203h288v794c0 17.333 0.333008 35 1 53s1.66699 36.333 3 55l-190 -158c-13.333 -10 -26.333 -16.333 -39 -19s-24.667 -2.83398 -36 -0.500977s-21.333 6.33301 -30 12s-15.334 11.5 -20.001 17.5l-87 117l446 378h227v-1249h251z
" />
    <glyph glyph-name="two" unicode="2" horiz-adv-x="1160" 
d="M979 253c30 0 53.501 -8.33496 70.501 -25.002s25.5 -38.667 25.5 -66v-162h-1006v90c0 17.333 3.66699 36.166 11 56.499s19.666 38.833 36.999 55.5l430 431c36.667 36.667 69 71.834 97 105.501s51.333 66.667 70 99s32.667 65.166 42 98.499s14 68.333 14 105
c0 64.667 -16.667 113.834 -50 147.501s-80.333 50.5 -141 50.5c-26.667 0 -51.167 -3.83301 -73.5 -11.5s-42.333 -18.167 -60 -31.5s-32.834 -29 -45.501 -47s-22 -37.667 -28 -59c-12 -33.333 -28.167 -55.5 -48.5 -66.5s-49.166 -13.5 -86.499 -7.5l-146 26
c10.667 70.667 30.667 132.667 60 186s66 97.666 110 132.999s94.333 61.833 151 79.5s117.667 26.5 183 26.5c68.667 0 131.167 -10.167 187.5 -30.5s104.5 -48.666 144.5 -84.999s71 -80.166 93 -131.499s33 -108 33 -170c0 -53.333 -7.66699 -102.666 -23 -147.999
s-36.166 -88.5 -62.499 -129.5s-56.833 -80.833 -91.5 -119.5l-110 -117l-308 -315c34 10 67.667 17.833 101 23.5s64.666 8.5 93.999 8.5h326z" />
    <glyph glyph-name="three" unicode="3" horiz-adv-x="1160" 
d="M99 1042c10.667 70.667 30.665 132.669 59.998 186.002s66 97.666 110 132.999s94.167 61.833 150.5 79.5s117.166 26.5 182.499 26.5c69.333 0 131.5 -9.83301 186.5 -29.5s101.5 -46.5 139.5 -80.5s67.167 -73.667 87.5 -119s30.5 -94 30.5 -146
c0 -46 -4.83301 -86.5 -14.5 -121.5s-24 -65.5 -43 -91.5s-42.333 -48 -70 -66s-59.5 -33 -95.5 -45c166.667 -54.667 250 -165.667 250 -333c0 -74 -13.667 -139.167 -41 -195.5s-64 -103.5 -110 -141.5s-99.5 -66.5 -160.5 -85.5s-124.833 -28.5 -191.5 -28.5
c-70.667 0 -133 8 -187 24s-101.5 40 -142.5 72s-76.167 72.167 -105.5 120.5s-55 104.833 -77 169.5l122 50c32 13.333 61.833 17 89.5 11s47.5 -20.667 59.5 -44c13.333 -25.333 27.5 -48.666 42.5 -69.999s31.833 -39.833 50.5 -55.5s39.834 -27.834 63.501 -36.501
s50.834 -13 81.501 -13c38.667 0 72.334 6.33301 101.001 19s52.667 29.167 72 49.5s33.833 43.333 43.5 69s14.5 51.167 14.5 76.5c0 33.333 -3 63.5 -9 90.5s-19.833 50 -41.5 69s-53.667 33.667 -96 44s-99.833 15.5 -172.5 15.5v194c60.667 0 110.334 5 149.001 15
s69 24 91 42s37.167 39.667 45.5 65s12.5 53 12.5 83c0 63.333 -16.5 111.666 -49.5 144.999s-79.833 50 -140.5 50c-26.667 0 -51.167 -3.83301 -73.5 -11.5s-42.333 -18.167 -60 -31.5s-32.834 -29 -45.501 -47s-22 -37.667 -28 -59c-12.667 -33.333 -29 -55.5 -49 -66.5
s-49 -13.5 -87 -7.5z" />
    <glyph glyph-name="four" unicode="4" horiz-adv-x="1160" 
d="M704 554v431.999c0 22.667 0.833008 46.834 2.5 72.501s4.16699 52.5 7.5 80.5l-420 -585h410zM1112 553.999l-0.00195312 -156c0 -14.667 -4.83301 -27.167 -14.5 -37.5s-23.167 -15.5 -40.5 -15.5h-113v-345h-240v345h-599c-17.333 0 -33.166 5.33301 -47.499 16
s-23.166 24.667 -26.499 42l-29 138l680 911h262v-898h168z" />
    <glyph glyph-name="five" unicode="5" horiz-adv-x="1160" 
d="M423 931c30 6 58.8301 10.3379 86.4971 13.0049s54.5 4 80.5 4c76 0 143.167 -11.5 201.5 -34.5s107.333 -54.5 147 -94.5s69.5 -87 89.5 -141s30 -112 30 -174c0 -77.333 -13.667 -147.833 -41 -211.5s-65.166 -118.334 -113.499 -164.001s-106 -81.167 -173 -106.5
s-140.167 -38 -219.5 -38c-46 0 -90 4.83301 -132 14.5s-81.167 22.667 -117.5 39s-70.166 35.166 -101.499 56.499s-59.333 43.666 -84 66.999l85 116c18 24.667 41.333 37 70 37c18 0 35.667 -5.33301 53 -16l59 -35.5c22 -13 47.667 -24.833 77 -35.5s65 -16 107 -16
c43.333 0 81 7.16699 113 21.5s58.5 34 79.5 59s36.667 54.667 47 89s15.5 71.166 15.5 110.499c0 75.333 -21.5 133.5 -64.5 174.5s-105.5 61.5 -187.5 61.5c-67.333 0 -135 -12.667 -203 -38l-171 48l122 714h728v-116c0 -19.333 -2.83301 -36.833 -8.5 -52.5
s-15 -29.334 -28 -41.001s-29.667 -20.667 -50 -27s-45.166 -9.5 -74.499 -9.5h-375z" />
    <glyph glyph-name="six" unicode="6" horiz-adv-x="1160" 
d="M542 930l-43.999 -53.001c25.333 11.333 52.666 20 81.999 26s61 9 95 9c54 0 106.667 -9 158 -27s97 -45 137 -81s72.167 -81.167 96.5 -135.5s36.5 -118.166 36.5 -191.499c0 -67.333 -12.5 -131 -37.5 -191s-60.333 -112.333 -106 -157s-100.334 -80 -164.001 -106
s-134.5 -39 -212.5 -39c-79.333 0 -150.333 12.5 -213 37.5s-116 60.167 -160 105.5s-77.667 99.5 -101 162.5s-35 132.5 -35 208.5c0 70 13.833 141 41.5 213s69.834 146 126.501 222l337 454c13.333 17.333 33 32.333 59 45s55.667 19 89 19h245zM578.001 205.999
c36 0 69.332 6.33301 99.999 19s57 30.334 79 53.001s39.333 49.167 52 79.5s19 63.5 19 99.5c0 39.333 -6 74.666 -18 105.999s-29 57.833 -51 79.5s-48.333 38.167 -79 49.5s-64.667 17 -102 17c-35.333 0 -67.666 -6.16699 -96.999 -18.5s-54.5 -29.666 -75.5 -51.999
s-37.333 -48.833 -49 -79.5s-17.5 -64.334 -17.5 -101.001c0 -38 5 -72.5 15 -103.5s25 -57.5 45 -79.5s44.833 -39 74.5 -51s64.5 -18 104.5 -18z" />
    <glyph glyph-name="seven" unicode="7" horiz-adv-x="1160" 
d="M1097 1451l0.000976562 -118.001c0 -34.667 -3.83301 -62.667 -11.5 -84s-15.167 -39.333 -22.5 -54l-528 -1103c-13.333 -25.333 -31.333 -47 -54 -65s-53.334 -27 -92.001 -27h-200l541 1077c13.333 25.333 27 48.333 41 69s29.667 40.334 47 59.001h-669
c-16 0 -30.5 6.33301 -43.5 19s-19.5 27 -19.5 43v184h1011z" />
    <glyph glyph-name="eight" unicode="8" horiz-adv-x="1160" 
d="M580 195c38 0 71.167 5.66699 99.5 17s51.833 26.833 70.5 46.5s32.667 43 42 70s14 56.167 14 87.5c0 72 -18.5 127.833 -55.5 167.5s-93.833 59.5 -170.5 59.5s-133.5 -19.833 -170.5 -59.5s-55.5 -95.5 -55.5 -167.5c0 -31.333 4.66699 -60.5 14 -87.5
s23.333 -50.333 42 -70s42.167 -35.167 70.5 -46.5s61.5 -17 99.5 -17zM580 1263c-34 0 -63.1689 -5.33301 -87.502 -16s-44.333 -24.834 -60 -42.501s-27.167 -38.167 -34.5 -61.5s-11 -47.666 -11 -72.999c0 -27.333 3 -53.833 9 -79.5s16.333 -48.5 31 -68.5
s34.334 -36 59.001 -48s56 -18 94 -18s69.333 6 94 18s44.334 28 59.001 48s25 42.833 31 68.5s9 52.167 9 79.5c0 25.333 -3.66699 49.666 -11 72.999s-18.833 43.833 -34.5 61.5s-35.667 31.834 -60 42.501s-53.5 16 -87.5 16zM837.998 756
c88 -29.333 152.006 -73.5 192.006 -132.5s60 -129.833 60 -212.5c0 -64.667 -12.333 -123.334 -37 -176.001s-59.334 -97.5 -104.001 -134.5s-98.334 -65.667 -161.001 -86s-132 -30.5 -208 -30.5s-145.333 10.167 -208 30.5s-116.334 49 -161.001 86
s-79.334 81.833 -104.001 134.5s-37 111.334 -37 176.001c0 82.667 20 153.5 60 212.5s104 103.167 192 132.5c-68.667 30 -119.834 72 -153.501 126s-50.5 118.333 -50.5 193c0 56 11.333 107.833 34 155.5s54.5 89 95.5 124s89.833 62.5 146.5 82.5s118.667 30 186 30
s129.333 -10 186 -30s105.5 -47.5 146.5 -82.5s72.833 -76.333 95.5 -124s34 -99.5 34 -155.5c0 -74.667 -16.833 -139 -50.5 -193s-84.834 -96 -153.501 -126z" />
    <glyph glyph-name="nine" unicode="9" horiz-adv-x="1160" 
d="M350 1012c0 -76.667 18.8301 -135.002 56.4971 -175.002s92.834 -60 165.501 -60c36.667 0 69.5 5.83301 98.5 17.5s53.167 27.834 72.5 48.501s34.166 45.334 44.499 74.001s15.5 60 15.5 94c0 38 -5.66699 71.5 -17 100.5s-27.166 53.5 -47.499 73.5
s-44.5 35.167 -72.5 45.5s-59 15.5 -93 15.5c-34.667 0 -65.667 -5.83301 -93 -17.5s-50.666 -28 -69.999 -49s-34.166 -45.833 -44.499 -74.5s-15.5 -59.667 -15.5 -93zM640.997 556.998l29.002 36.999l28 36c-32 -18.667 -66.833 -32.834 -104.5 -42.501
s-77.5 -14.5 -119.5 -14.5c-48.667 0 -96.834 8.66699 -144.501 26s-90.5 43.333 -128.5 78s-68.667 78.167 -92 130.5s-35 113.833 -35 184.5c0 64.667 12 125.834 36 183.501s58 108 102 151s96.833 77.167 158.5 102.5s130.167 38 205.5 38
c76 0 144.333 -11.833 205 -35.5s112 -56.834 154 -99.501s74.333 -93.5 97 -152.5s34 -123.833 34 -194.5c0 -46 -3.66699 -89.667 -11 -131s-18 -80.666 -32 -117.999s-30.833 -73.666 -50.5 -108.999s-41.834 -70 -66.501 -104l-323 -461
c-13.333 -17.333 -32.5 -32 -57.5 -44s-53.5 -18 -85.5 -18h-254z" />
    <glyph glyph-name="colon" unicode=":" horiz-adv-x="522" 
d="M98 145c0 22 4.16699 42.833 12.5 62.5s19.833 36.667 34.5 51s31.834 25.666 51.501 33.999s41.167 12.5 64.5 12.5c22.667 0 44 -4.16699 64 -12.5s37.333 -19.666 52 -33.999s26.167 -31.333 34.5 -51s12.5 -40.5 12.5 -62.5c0 -22.667 -4.16699 -43.667 -12.5 -63
s-19.833 -36.166 -34.5 -50.499s-32 -25.5 -52 -33.5s-41.333 -12 -64 -12c-23.333 0 -44.833 4 -64.5 12s-36.834 19.167 -51.501 33.5s-26.167 31.166 -34.5 50.499s-12.5 40.333 -12.5 63zM98 845c0 22 4.16699 42.833 12.5 62.5s19.833 36.667 34.5 51
s31.834 25.666 51.501 33.999s41.167 12.5 64.5 12.5c22.667 0 44 -4.16699 64 -12.5s37.333 -19.666 52 -33.999s26.167 -31.333 34.5 -51s12.5 -40.5 12.5 -62.5c0 -22.667 -4.16699 -43.667 -12.5 -63s-19.833 -36.166 -34.5 -50.499s-32 -25.5 -52 -33.5
s-41.333 -12 -64 -12c-23.333 0 -44.833 4 -64.5 12s-36.834 19.167 -51.501 33.5s-26.167 31.166 -34.5 50.499s-12.5 40.333 -12.5 63z" />
    <glyph glyph-name="semicolon" unicode=";" horiz-adv-x="549" 
d="M152 -246c-7.33301 6 -12.499 12.001 -15.499 18.001s-4.5 13.333 -4.5 22c0 6 2.16699 12.5 6.5 19.5s9.5 13.5 15.5 19.5l27 29.5c10.667 11.667 21.334 24.667 32.001 39s20.5 30.166 29.5 47.499s15.833 35.666 20.5 54.999c-22 0.666992 -42 5.33398 -60 14.001
s-33.333 20 -46 34s-22.5 30.5 -29.5 49.5s-10.5 39.5 -10.5 61.5c0 20 3.66699 38.667 11 56s17.833 32.333 31.5 45s30 22.667 49 30s40.167 11 63.5 11c27.333 0 51.166 -4.83301 71.499 -14.5s37.166 -22.5 50.499 -38.5s23.333 -34.833 30 -56.5s10 -44.5 10 -68.5
c0 -32.667 -5 -67.167 -15 -103.5s-25 -72.833 -45 -109.5s-44.5 -72.5 -73.5 -107.5s-62.5 -66.833 -100.5 -95.5zM109.001 845.001c0 22 4.16699 42.833 12.5 62.5s19.833 36.667 34.5 51s31.834 25.666 51.501 33.999s41.167 12.5 64.5 12.5
c22.667 0 44 -4.16699 64 -12.5s37.333 -19.666 52 -33.999s26.167 -31.333 34.5 -51s12.5 -40.5 12.5 -62.5c0 -22.667 -4.16699 -43.667 -12.5 -63s-19.833 -36.166 -34.5 -50.499s-32 -25.5 -52 -33.5s-41.333 -12 -64 -12c-23.333 0 -44.833 4 -64.5 12
s-36.834 19.167 -51.501 33.5s-26.167 31.166 -34.5 50.499s-12.5 40.333 -12.5 63z" />
    <glyph glyph-name="less" unicode="&#x3c;" horiz-adv-x="1160" 
d="M574 712c-16 -8 -33.167 -15 -51.5 -21s-37.5 -11.667 -57.5 -17c40 -9.33301 76.333 -22 109 -38l327 -171c17.333 -8 29.5 -18 36.5 -30s10.5 -25.333 10.5 -40v-194l-801 419v109l801 418v-194c0 -14 -3.5 -27 -10.5 -39s-19.167 -22 -36.5 -30z" />
    <glyph glyph-name="equal" unicode="=" horiz-adv-x="1160" 
d="M132 593h896v-201h-896v201zM132 952h896v-201h-896v201z" />
    <glyph glyph-name="greater" unicode="&#x3e;" horiz-adv-x="1160" 
d="M1013 729v-109l-801 -419v194c0 14.667 3.5 28 10.5 40s19.167 22 36.5 30l327 171c16.667 8 34 15.167 52 21.5s37.333 11.833 58 16.5c-20.667 4.66699 -40 10.167 -58 16.5s-35.333 13.5 -52 21.5l-327 172c-17.333 8 -29.5 18 -36.5 30s-10.5 25 -10.5 39v194z" />
    <glyph glyph-name="question" unicode="?" horiz-adv-x="930" 
d="M66 1319c24 20.667 49.833 39.999 77.5 57.999s57.667 33.667 90 47s67.333 23.833 105 31.5s78.167 11.5 121.5 11.5c60 0 114.333 -8.16699 163 -24.5s90.334 -39.666 125.001 -69.999s61.5 -66.833 80.5 -109.5s28.5 -90.334 28.5 -143.001
c0 -50.667 -7.16699 -94.5 -21.5 -131.5s-32.333 -69.167 -54 -96.5s-45.5 -51 -71.5 -71l-74 -56c-23.333 -17.333 -43.5 -34.5 -60.5 -51.5s-27.5 -35.833 -31.5 -56.5l-25 -143h-189l-19 162c-4.66699 32 -0.666992 59.833 12 83.5s29.667 45.334 51 65.001
s45.166 38.667 71.499 57s51 38 74 59s42.333 44.667 58 71s23.5 57.5 23.5 93.5c0 44 -15.167 79 -45.5 105s-70.5 39 -120.5 39c-36.667 0 -67.5 -4 -92.5 -12s-46.5 -16.833 -64.5 -26.5s-33.333 -18.5 -46 -26.5s-24.667 -12 -36 -12c-25.333 0 -44.333 11 -57 33z
M253 144.999c0 22 4.16699 42.833 12.5 62.5s19.833 36.667 34.5 51s31.834 25.666 51.501 33.999s41.167 12.5 64.5 12.5c22.667 0 44 -4.16699 64 -12.5s37.333 -19.666 52 -33.999s26.167 -31.333 34.5 -51s12.5 -40.5 12.5 -62.5c0 -22.667 -4.16699 -43.667 -12.5 -63
s-19.833 -36.166 -34.5 -50.499s-32 -25.5 -52 -33.5s-41.333 -12 -64 -12c-23.333 0 -44.833 4 -64.5 12s-36.834 19.167 -51.501 33.5s-26.167 31.166 -34.5 50.499s-12.5 40.333 -12.5 63z" />
    <glyph glyph-name="at" unicode="@" horiz-adv-x="1692" 
d="M1018 796c-9.33301 1.33301 -18.834 2.33496 -28.501 3.00195s-19.5 1 -29.5 1c-38 0 -73.667 -8.5 -107 -25.5s-62.5 -40 -87.5 -69s-44.667 -62.5 -59 -100.5s-21.5 -78 -21.5 -120c0 -41.333 8.33301 -72.833 25 -94.5s41 -32.5 73 -32.5c16 0 32 2.5 48 7.5
s31.333 13.667 46 26s27.834 28.666 39.501 48.999s21.5 46.166 29.5 77.499zM1158 547.002c-9.33301 -39.333 -14.1582 -71.8311 -14.4912 -97.498s3.16699 -45.834 10.5 -60.501s17.833 -24.834 31.5 -30.501s29.5 -8.5 47.5 -8.5c26 0 50.667 8.66699 74 26
s43.666 41.5 60.999 72.5s31 67.667 41 110s15 88.5 15 138.5c0 84.667 -13 159.5 -39 224.5s-62.5 119.167 -109.5 162.5s-103.5 76.166 -169.5 98.499s-138.667 33.5 -218 33.5c-58 0 -113.167 -7.33301 -165.5 -22s-100.833 -35.5 -145.5 -62.5s-85 -59.5 -121 -97.5
s-66.667 -80.333 -92 -127s-44.833 -96.834 -58.5 -150.501s-20.5 -109.834 -20.5 -168.501c0 -108 16.667 -203 50 -285s79.166 -150.333 137.499 -205s127.166 -95.834 206.499 -123.501s165.333 -41.5 258 -41.5c52 0 100.167 2.83301 144.5 8.5s85 13.167 122 22.5
s70.167 20 99.5 32s55 24.333 77 37c19.333 10.667 36.166 13.834 50.499 9.50098s24.833 -15.166 31.5 -32.499l38 -97c-68.667 -45.333 -149.5 -82.333 -242.5 -111s-199.833 -43 -320.5 -43c-122.667 0 -236 19.167 -340 57.5s-193.833 93.333 -269.5 165
s-134.834 158.667 -177.501 261s-64 217.5 -64 345.5c0 70.667 9.33301 139.667 28 207s45 130.666 79 189.999s75.167 113.833 123.5 163.5s102.166 92.334 161.499 128.001s123.5 63.5 192.5 83.5s141.5 30 217.5 30c63.333 0 125.5 -7.16699 186.5 -21.5
s118.667 -35.333 173 -63s104.333 -61.667 150 -102s85 -86.166 118 -137.499s58.667 -107.833 77 -169.5s27.5 -128.167 27.5 -199.5s-10.667 -138.166 -32 -200.499s-51 -116.833 -89 -163.5s-83.167 -83.334 -135.5 -110.001s-109.5 -40 -171.5 -40c-44 0 -84 10 -120 30
s-62 53 -78 99c-39.333 -46 -80.833 -78.833 -124.5 -98.5s-90.834 -29.5 -141.501 -29.5c-42.667 0 -79.834 7.33301 -111.501 22s-58.167 35.167 -79.5 61.5s-37.333 57.5 -48 93.5s-16 75 -16 117c0 38 4.83301 76.5 14.5 115.5s24.167 76.667 43.5 113
s43.666 70.5 72.999 102.5s63.666 59.833 102.999 83.5s83.833 42.334 133.5 56.001s104.834 20.5 165.501 20.5c27.333 0 52.333 -1 75 -3s44 -5 64 -9s38.833 -9 56.5 -15s35.5 -12.667 53.5 -20z" />
    <glyph glyph-name="A" unicode="A" horiz-adv-x="1404" 
d="M918 551l-157.004 444.001c-9.33301 23.333 -19.166 50.666 -29.499 81.999s-20.166 65.333 -29.499 102c-9.33301 -37.333 -19.166 -71.833 -29.499 -103.5s-20.166 -59.167 -29.499 -82.5l-156 -442h431zM1422 0.000976562l-232.999 0.00195312
c-26 0 -47.167 6.16699 -63.5 18.5s-28.5 28.166 -36.5 47.499l-98 277h-578l-98 -277c-6.66699 -16.667 -18.334 -31.834 -35.001 -45.501s-37.667 -20.5 -63 -20.5h-235l567 1451h307z" />
    <glyph glyph-name="B" unicode="B" horiz-adv-x="1327" 
d="M709 230c48 0 87.5 5.83496 118.5 17.502s55.833 27.167 74.5 46.5s31.667 41.5 39 66.5s11 50.833 11 77.5c0 29.333 -4.33301 55.666 -13 78.999s-22.667 43.166 -42 59.499s-44.5 28.833 -75.5 37.5s-69.167 13 -114.5 13h-255v-397h257zM452 1223v-391.999h197
c42 0 79.333 3.5 112 10.5s60 18.167 82 33.5s38.833 35.5 50.5 60.5s17.5 55.167 17.5 90.5c0 36 -4.83301 66.667 -14.5 92s-24.5 45.666 -44.5 60.999s-45.333 26.5 -76 33.5s-67 10.5 -109 10.5h-215zM667 1451c97.333 0 180.499 -9.16504 249.499 -27.498
s125.333 -44.333 169 -78s75.5 -74.5 95.5 -122.5s30 -101.667 30 -161c0 -33.333 -4.83301 -65.333 -14.5 -96s-24.667 -59.5 -45 -86.5s-46.5 -51.5 -78.5 -73.5s-70 -40.667 -114 -56c98.667 -23.333 171.667 -61.333 219 -114s71 -121 71 -205
c0 -61.333 -11.833 -118.333 -35.5 -171s-58.167 -98.334 -103.5 -137.001s-101.166 -68.834 -167.499 -90.501s-142.5 -32.5 -228.5 -32.5h-562v1451h515z" />
    <glyph glyph-name="C" unicode="C" horiz-adv-x="1318" 
d="M1140 357c16.667 0 30.6729 -5.99609 42.0059 -17.9961l119 -127c-58.667 -74.667 -131.5 -131.334 -218.5 -170.001s-190.5 -58 -310.5 -58c-108.667 0 -206.334 18.5 -293.001 55.5s-160.334 88.5 -221.001 154.5s-107.334 144.333 -140.001 235s-49 189.667 -49 297
c0 72 7.83301 140.5 23.5 205.5s38.5 124.833 68.5 179.5s66.167 104 108.5 148s90.166 81.5 143.499 112.5s111.5 54.667 174.5 71s130.167 24.5 201.5 24.5c53.333 0 103.833 -4.66699 151.5 -14s92.167 -22.333 133.5 -39s79.5 -36.834 114.5 -60.501
s66.5 -49.5 94.5 -77.5l-101 -138c-6 -8.66699 -13.667 -16.334 -23 -23.001s-22 -10 -38 -10s-32.167 5.66699 -48.5 17s-36.333 24 -60 38s-53.334 26.667 -89.001 38s-80.834 17 -135.501 17c-60.667 0 -116.334 -11 -167.001 -33s-94.167 -53.833 -130.5 -95.5
s-64.5 -92.834 -84.5 -153.501s-30 -129.667 -30 -207c0 -78 10.833 -147.5 32.5 -208.5s51.334 -112.5 89.001 -154.5s81.667 -73.833 132 -95.5s104.166 -32.5 161.499 -32.5c34 0 64.833 1.66699 92.5 5s53.334 9 77.001 17s46 18.333 67 31s42.167 28.667 63.5 48
c7.33301 6 15 11 23 15s16.667 6 26 6z" />
    <glyph glyph-name="D" unicode="D" horiz-adv-x="1522" 
d="M1453 726c0 -106 -17.833 -203.5 -53.5 -292.5s-86 -165.5 -151 -229.5s-143.167 -114 -234.5 -150s-192.666 -54 -303.999 -54h-558v1451h558c111.333 0 212.666 -18 303.999 -54s169.5 -86.167 234.5 -150.5s115.333 -140.833 151 -229.5s53.5 -185.667 53.5 -291z
M1145 726c0 76 -10 144.333 -30 205s-48.667 112 -86 154s-82.833 74.333 -136.5 97s-114.5 34 -182.5 34h-256v-981h256c68 0 128.833 11.167 182.5 33.5s99.167 54.666 136.5 96.999s66 93.833 86 154.5s30 129.334 30 206.001z" />
    <glyph glyph-name="E" unicode="E" horiz-adv-x="1148" 
d="M454 1216v-373h484v-227h-484v-381h622v-235h-924v1451h924v-235h-622z" />
    <glyph glyph-name="F" unicode="F" horiz-adv-x="1132" 
d="M454 1216v-401h522v-236h-522v-579h-302v1451h924v-235h-622z" />
    <glyph glyph-name="G" unicode="G" horiz-adv-x="1449" 
d="M858 739l497.998 -0.00390625v-599c-74 -54 -152.833 -93.5 -236.5 -118.5s-172.167 -37.5 -265.5 -37.5c-119.333 0 -227.333 18.5 -324 55.5s-179.334 88.5 -248.001 154.5s-121.667 144.333 -159 235s-56 189.667 -56 297c0 108.667 17.833 208.334 53.5 299.001
s86.5 168.667 152.5 234s145.833 116.333 239.5 153s198.5 55 314.5 55c60 0 116 -4.83301 168 -14.5s100 -23 144 -40s84.333 -37.167 121 -60.5s70 -49 100 -77l-87 -134c-13.333 -21.333 -30.666 -34.333 -51.999 -39s-44.666 0.666016 -69.999 15.999
c-24 14.667 -47.5 27.834 -70.5 39.501s-47.5 21.834 -73.5 30.501s-54.333 15.334 -85 20.001s-66 7 -106 7c-67.333 0 -128.333 -11.667 -183 -35s-101.167 -56.333 -139.5 -99s-67.833 -94 -88.5 -154s-31 -127 -31 -201c0 -80 11.333 -151.5 34 -214.5
s54.667 -116.167 96 -159.5s90.833 -76.333 148.5 -99s121.834 -34 192.501 -34c48 0 90.833 4.83301 128.5 14.5s74.5 22.834 110.5 39.501v244h-164c-19.333 0 -34.5 5.16699 -45.5 15.5s-16.5 23.5 -16.5 39.5v167z" />
    <glyph glyph-name="H" unicode="H" horiz-adv-x="1547" 
d="M1395 1451v-1451h-302v625h-639v-625h-302v1451h302v-616h639v616h302z" />
    <glyph glyph-name="I" unicode="I" horiz-adv-x="606" 
d="M454 0h-302v1451h302v-1451z" />
    <glyph glyph-name="J" unicode="J" horiz-adv-x="864" 
d="M726 520c0 -81.333 -9.99805 -154.832 -29.998 -220.499s-50.167 -122 -90.5 -169s-90.833 -83.167 -151.5 -108.5s-131.334 -38 -212.001 -38c-36.667 0 -72.834 2.16699 -108.501 6.5s-73.167 11.166 -112.5 20.499l8 88l8 88c2 16 8.33301 28.833 19 38.5
s26 14.5 46 14.5c11.333 0 25.833 -2 43.5 -6s39.5 -6 65.5 -6c36 0 67.333 5 94 15s49 26.333 67 49s31.5 52.167 40.5 88.5s13.5 80.5 13.5 132.5v938h300v-931z" />
    <glyph glyph-name="K" unicode="K" horiz-adv-x="1390" 
d="M452 852h58.9971c49.333 0 85 15.333 107 46l367 491c17.333 23.333 36.333 39.5 57 48.5s46 13.5 76 13.5h260l-462 -595c-30 -38.667 -61 -66.334 -93 -83.001c23.333 -9.33301 44.333 -21.5 63 -36.5s36.667 -34.833 54 -59.5l474 -677h-267
c-17.333 0 -32.166 1.33301 -44.499 4s-23.166 6.33398 -32.499 11.001s-17.333 10.5 -24 17.5s-13 15.167 -19 24.5l-373 522c-12.667 18 -27.667 30.833 -45 38.5s-41.666 11.5 -72.999 11.5h-84v-629h-300v1451h300v-599z" />
    <glyph glyph-name="L" unicode="L" horiz-adv-x="1044" 
d="M1013 244v-244h-861v1451h300v-1207h561z" />
    <glyph glyph-name="M" unicode="M" horiz-adv-x="1903" 
d="M1752 1451l-0.00195312 -1451h-265v891c0 18.667 0.5 38.667 1.5 60s2.83301 43 5.5 65l-415 -787c-22.667 -43.333 -57.667 -65 -105 -65h-42c-23.333 0 -44 5.5 -62 16.5s-32.333 27.167 -43 48.5l-417 790c2 -23.333 3.66699 -45.833 5 -67.5s2 -41.834 2 -60.501
v-891h-265v1451h228c12.667 0 24 -0.333008 34 -1s18.833 -2.5 26.5 -5.5s14.667 -7.66699 21 -14s12.5 -15.166 18.5 -26.499l406 -774c12.667 -23.333 24.5 -47.333 35.5 -72s21.5 -50 31.5 -76c10 26.667 20.5 52.667 31.5 78s22.833 49.666 35.5 72.999l403 771
c6 11.333 12.333 20.166 19 26.499s13.834 11 21.501 14s16.334 4.83301 26.001 5.5s21.167 1 34.5 1h228z" />
    <glyph glyph-name="N" unicode="N" horiz-adv-x="1547" 
d="M1395 1451v-1451h-155c-23.333 0 -43 3.83301 -59 11.5s-31.667 20.834 -47 39.501l-723 920c2 -23.333 3.5 -46.333 4.5 -69s1.5 -43.667 1.5 -63v-839h-265v1451h158c12.667 0 23.5 -0.5 32.5 -1.5s17.167 -3.33301 24.5 -7s14.333 -8.5 21 -14.5s14 -14 22 -24
l728 -924c-2.66699 25.333 -4.66699 49.833 -6 73.5s-2 46.167 -2 67.5v830h265z" />
    <glyph glyph-name="O" unicode="O" horiz-adv-x="1622" 
d="M1554 726c0 -106 -17.833 -204.335 -53.5 -295.002s-86 -169 -151 -235s-143.167 -117.833 -234.5 -155.5s-192.666 -56.5 -303.999 -56.5s-212.666 18.833 -303.999 56.5s-169.666 89.5 -234.999 155.5s-115.833 144.333 -151.5 235s-53.5 189 -53.5 295
s17.833 204.167 53.5 294.5s86.167 168.5 151.5 234.5s143.666 117.833 234.999 155.5s192.666 56.5 303.999 56.5s212.666 -18.833 303.999 -56.5s169.5 -89.667 234.5 -156s115.333 -144.666 151 -234.999s53.5 -188.166 53.5 -293.499zM1247 725.998
c0 76 -10 144.167 -30 204.5s-48.833 111.666 -86.5 153.999s-83.334 74.666 -137.001 96.999s-114.5 33.5 -182.5 33.5s-129 -11.167 -183 -33.5s-99.833 -54.666 -137.5 -96.999s-66.5 -93.666 -86.5 -153.999s-30 -128.5 -30 -204.5c0 -76.667 10 -145.167 30 -205.5
s48.833 -111.5 86.5 -153.5s83.5 -74.167 137.5 -96.5s115 -33.5 183 -33.5s128.833 11.167 182.5 33.5s99.334 54.5 137.001 96.5s66.5 93.167 86.5 153.5s30 128.833 30 205.5z" />
    <glyph glyph-name="P" unicode="P" horiz-adv-x="1254" 
d="M642 729c94 0 162.833 22.667 206.5 68s65.5 107.333 65.5 186c0 36 -5.5 68.833 -16.5 98.5s-27.667 55 -50 76s-50.5 37.167 -84.5 48.5s-74.333 17 -121 17h-190v-494h190zM642 1451c99.333 0 185.166 -11.668 257.499 -35.001s131.833 -55.833 178.5 -97.5
s81.167 -91.167 103.5 -148.5s33.5 -119.666 33.5 -186.999c0 -71.333 -11.667 -136.666 -35 -195.999s-58.666 -110.333 -105.999 -153s-107 -75.834 -179 -99.501s-156.333 -35.5 -253 -35.5h-190v-499h-300v1451h490z" />
    <glyph glyph-name="Q" unicode="Q" horiz-adv-x="1623" 
d="M375 726c0 -76.667 10 -145.167 30 -205.5s48.833 -111.5 86.5 -153.5s83.5 -74.167 137.5 -96.5s115 -33.5 183 -33.5s128.833 11.167 182.5 33.5s99.334 54.5 137.001 96.5s66.5 93.167 86.5 153.5s30 128.833 30 205.5c0 76 -10 144.167 -30 204.5
s-48.833 111.666 -86.5 153.999s-83.334 74.666 -137.001 96.999s-114.5 33.5 -182.5 33.5s-129 -11.167 -183 -33.5s-99.833 -54.666 -137.5 -96.999s-66.5 -93.666 -86.5 -153.999s-30 -128.5 -30 -204.5zM1633 -278l-246.999 -0.000976562
c-36 0 -68.167 4.66699 -96.5 14s-54.5 26.666 -78.5 51.999l-197 219c-64.667 -15.333 -132 -23 -202 -23c-111.333 0 -212.666 18.833 -303.999 56.5s-169.666 89.5 -234.999 155.5s-115.833 144.333 -151.5 235s-53.5 189 -53.5 295s17.833 204.167 53.5 294.5
s86.167 168.5 151.5 234.5s143.666 117.833 234.999 155.5s192.666 56.5 303.999 56.5s212.666 -18.833 303.999 -56.5s169.5 -89.667 234.5 -156s115.333 -144.666 151 -234.999s53.5 -188.166 53.5 -293.499c0 -64 -6.5 -125.167 -19.5 -183.5s-31.833 -113 -56.5 -164
s-55 -98.167 -91 -141.5s-76.667 -81.333 -122 -114z" />
    <glyph glyph-name="R" unicode="R" horiz-adv-x="1299" 
d="M606 764c48.667 0 90.666 6.16699 125.999 18.5s64.333 29.333 87 51s39.334 47.167 50.001 76.5s16 61.333 16 96c0 68.667 -22.833 122 -68.5 160s-115.167 57 -208.5 57h-156v-459h154zM1309 0l-270.998 -0.000976562c-50.667 0 -87.334 19.333 -110.001 58l-276 445
c-11.333 17.333 -23.833 30 -37.5 38s-33.834 12 -60.501 12h-102v-553h-300v1451h456c101.333 0 188 -10.5 260 -31.5s131 -50.167 177 -87.5s79.667 -81.833 101 -133.5s32 -108.5 32 -170.5c0 -48 -6.83301 -93.5 -20.5 -136.5s-33.5 -82.167 -59.5 -117.5
s-58 -66.666 -96 -93.999s-81.333 -49.333 -130 -66c19.333 -10.667 37.333 -23.5 54 -38.5s31.667 -32.833 45 -53.5z" />
    <glyph glyph-name="S" unicode="S" horiz-adv-x="1102" 
d="M938 1173c-9.33301 -15.333 -18.8301 -26.5039 -28.4971 -33.5039s-22.167 -10.5 -37.5 -10.5c-14.667 0 -30.5 5.16699 -47.5 15.5s-36.833 21.5 -59.5 33.5s-48.667 23.167 -78 33.5s-63.666 15.5 -102.999 15.5c-69.333 0 -121.333 -15.5 -156 -46.5
s-52 -71.5 -52 -121.5c0 -32 9.5 -58.5 28.5 -79.5s44 -39.167 75 -54.5s66.167 -29 105.5 -41s79.666 -25.167 120.999 -39.5s81.666 -31.166 120.999 -50.499s74.5 -43.666 105.5 -72.999s56 -65.166 75 -107.499s28.5 -93.833 28.5 -154.5
c0 -66 -11.5 -127.833 -34.5 -185.5s-56.167 -108 -99.5 -151s-96.833 -76.833 -160.5 -101.5s-135.834 -37 -216.501 -37c-46 0 -91.833 4.66699 -137.5 14s-89.667 22.333 -132 39s-82.166 36.667 -119.499 60s-70 49.333 -98 78l88 142c7.33301 10.667 17 19.5 29 26.5
s24.667 10.5 38 10.5c18 0 37 -6.66699 57 -20l69 -44c26 -16 56.167 -30.667 90.5 -44s75.5 -20 123.5 -20c70 0 124.167 16 162.5 48s57.5 79.667 57.5 143c0 36.667 -9.5 66.334 -28.5 89.001s-43.833 41.667 -74.5 57s-65.667 28.5 -105 39.5
s-79.666 23.167 -120.999 36.5s-81.666 29.333 -120.999 48s-74.333 43.334 -105 74.001s-55.5 68.667 -74.5 114s-28.5 101.666 -28.5 168.999c0 54 10.667 106.333 32 157s52.666 95.667 93.999 135s92.166 71 152.499 95s129.5 36 207.5 36
c87.333 0 168.166 -13.5 242.499 -40.5s137.166 -64.5 188.499 -112.5z" />
    <glyph glyph-name="T" unicode="T" horiz-adv-x="1208" 
d="M1179 1209h-424v-1209h-301v1209h-424v242h1149v-242z" />
    <glyph glyph-name="U" unicode="U" horiz-adv-x="1491" 
d="M746 240c48.667 0 92.333 8.16699 131 24.5s71.334 39.5 98.001 69.5s47 66.333 61 109s21 90.667 21 144v864h300v-864c0 -88 -14.167 -168.833 -42.5 -242.5s-68.833 -137.167 -121.5 -190.5s-116.667 -95 -192 -125s-160.333 -45 -255 -45s-179.834 15 -255.501 45
s-139.834 71.667 -192.501 125s-93.167 116.833 -121.5 190.5s-42.5 154.5 -42.5 242.5v864h300v-864c0 -53.333 7 -101.333 21 -144s34.333 -79 61 -109s59.334 -53.167 98.001 -69.5s82.667 -24.5 132 -24.5z" />
    <glyph glyph-name="V" unicode="V" horiz-adv-x="1404" 
d="M1422 1451l-584 -1451h-272l-584 1451h242c26 0 47.167 -6.16699 63.5 -18.5s28.5 -28.166 36.5 -47.499l314 -836c12 -31.333 23.833 -65.5 35.5 -102.5s22.5 -75.833 32.5 -116.5c8.66699 40.667 18.167 79.5 28.5 116.5s21.5 71.167 33.5 102.5l312 836
c6.66699 16.667 18.5 31.834 35.5 45.501s38.167 20.5 63.5 20.5h243z" />
    <glyph glyph-name="W" unicode="W" horiz-adv-x="2115" 
d="M2104 1451l-449.998 -1451h-271l-297 949c-4.66699 13.333 -9.33398 28 -14.001 44s-9 33 -13 51c-4 -18 -8.33301 -35 -13 -51s-9.33398 -30.667 -14.001 -44l-300 -949h-272l-449 1451h252c26 0 47.833 -6 65.5 -18s29.167 -28 34.5 -48l225 -818l16.5 -73.5
c5.66699 -26.333 11.167 -54.166 16.5 -83.499c6 30 12.333 58 19 84s14 50.333 22 73l262 818c5.33301 16.667 16.833 31.834 34.5 45.501s39.167 20.5 64.5 20.5h88c26 0 47.167 -6.16699 63.5 -18.5s28.5 -28.166 36.5 -47.499l261 -818c8 -21.333 15.333 -44.5 22 -69.5
s13 -51.5 19 -79.5l15.5 79.5c5 25 10.167 48.167 15.5 69.5l225 818c4.66699 17.333 16 32.666 34 45.999s39.667 20 65 20h236z" />
    <glyph glyph-name="X" unicode="X" horiz-adv-x="1359" 
d="M1361 0l-299.999 0.000976562c-20 0 -36.167 5 -48.5 15s-22.166 21.667 -29.499 35l-314 534l-9.5 -21.5c-3 -7 -6.5 -13.5 -10.5 -19.5l-298 -493c-8.66699 -12.667 -18.834 -24.167 -30.501 -34.5s-26.5 -15.5 -44.5 -15.5h-280l475 747l-457 704h300
c20 0 34.667 -2.66699 44 -8s17.666 -14 24.999 -26l312 -513c3.33301 8 7 16.167 11 24.5s8.66699 16.833 14 25.5l280 458c8 13.333 16.833 23.166 26.5 29.499s21.5 9.5 35.5 9.5h287l-461 -691z" />
    <glyph glyph-name="Y" unicode="Y" horiz-adv-x="1316" 
d="M808 558l0.00195312 -558h-300v558l-527 893h264c26 0 46.833 -6.16699 62.5 -18.5s28.167 -28.166 37.5 -47.499l238 -457l43.5 -86c13 -26.667 24.5 -53.334 34.5 -80.001c9.33301 26.667 20.166 53.5 32.499 80.5s26.166 55.5 41.499 85.5l236 457c8 16 20 31 36 45
s36.667 21 62 21h266z" />
    <glyph glyph-name="Z" unicode="Z" horiz-adv-x="1214" 
d="M1165 1341c0 -15.333 -2.50098 -30.833 -7.50098 -46.5s-12.167 -30.167 -21.5 -43.5l-716 -1016h725v-235h-1110v117c0 14 2.33301 27.833 7 41.5s11.334 26.167 20.001 37.5l718 1020h-694v235h1079v-110z" />
    <glyph glyph-name="bracketleft" unicode="[" horiz-adv-x="633" 
d="M388 1376v-1516h125c21.333 0 38.833 -6.83301 52.5 -20.5s20.5 -29.834 20.5 -48.501v-106h-428v1867h428v-107c0 -18.667 -6.83301 -34.834 -20.5 -48.501s-31.167 -20.5 -52.5 -20.5h-125z" />
    <glyph glyph-name="backslash" unicode="\" horiz-adv-x="944" 
d="M55 1491h116.997c32.667 0 61.334 -8.33301 86.001 -25s42.667 -40 54 -70l577 -1493h-117c-29.333 0 -57.666 8.5 -84.999 25.5s-47.666 42.167 -60.999 75.5z" />
    <glyph glyph-name="bracketright" unicode="]" horiz-adv-x="633" 
d="M475 -315l-427 -0.00195312v106c0 18.667 6.66699 34.834 20 48.501s30.666 20.5 51.999 20.5h125v1516h-125c-21.333 0 -38.666 6.83301 -51.999 20.5s-20 29.834 -20 48.501v107h427v-1867z" />
    <glyph glyph-name="asciicircum" unicode="^" horiz-adv-x="1160" 
d="M1075 676l-201.999 0.000976562c-16.667 0 -30.5 4 -41.5 12s-19.833 18.667 -26.5 32l-174 363c-11.333 23.333 -21.333 45.166 -30 65.499s-16.334 40.833 -23.001 61.5c-6 -20.667 -13 -41.167 -21 -61.5l-27 -65.5l-161 -363c-5.33301 -12.667 -14 -23.167 -26 -31.5
s-27 -12.5 -45 -12.5h-213l401 775h179z" />
    <glyph glyph-name="underscore" unicode="_" horiz-adv-x="939" 
d="M863 -122v-176h-788v176h788z" />
    <glyph glyph-name="grave" unicode="`" 
d="M316 1467c28.667 0 50.167 -4.66699 64.5 -14s26.833 -23.333 37.5 -42l139 -244h-156c-20.667 0 -37.5 2.83301 -50.5 8.5s-26.167 15.5 -39.5 29.5l-253 262h258z" />
    <glyph glyph-name="a" unicode="a" horiz-adv-x="1024" 
d="M653 431c-67.333 -3.33301 -123.333 -9.16797 -168 -17.501s-80.167 -19.166 -106.5 -32.499s-45 -28.5 -56 -45.5s-16.5 -35.5 -16.5 -55.5c0 -40 11.167 -68.333 33.5 -85s53.5 -25 93.5 -25c46 0 85.833 8.16699 119.5 24.5s67.167 41.833 100.5 76.5v160zM91 887.998
c60.667 54.667 127.669 95.501 201.002 122.501s152.666 40.5 237.999 40.5c61.333 0 116.166 -10 164.499 -30s89.333 -47.833 123 -83.5s59.5 -78.167 77.5 -127.5s27 -103.333 27 -162v-648h-126c-26 0 -45.833 3.66699 -59.5 11s-24.834 22.666 -33.501 45.999l-22 66
c-26 -22.667 -51.167 -42.667 -75.5 -60s-49.5 -31.833 -75.5 -43.5s-53.833 -20.5 -83.5 -26.5s-62.834 -9 -99.501 -9c-45.333 0 -86.666 6 -123.999 18s-69.5 29.833 -96.5 53.5s-47.833 53.167 -62.5 88.5s-22 76 -22 122c0 38 9.66699 76 29 114s52.5 72.5 99.5 103.5
s109.667 56.667 188 77s176.5 31.833 294.5 34.5v53c0 64.667 -13.667 112.167 -41 142.5s-66.666 45.5 -117.999 45.5c-38 0 -69.667 -4.5 -95 -13.5s-47.5 -18.667 -66.5 -29l-53.5 -29c-16.667 -9 -36 -13.5 -58 -13.5c-19.333 0 -35.5 4.83301 -48.5 14.5
s-23.833 21.167 -32.5 34.5z" />
    <glyph glyph-name="b" unicode="b" horiz-adv-x="1142" 
d="M390 272c26 -30 54.168 -50.999 84.501 -62.999s61.833 -18 94.5 -18c34 0 64.833 6.16699 92.5 18.5s51.5 32 71.5 59s35.333 62.167 46 105.5s16 95.666 16 156.999c0 54.667 -4.33301 101.167 -13 139.5s-21.5 69.833 -38.5 94.5s-37.833 42.667 -62.5 54
s-53.334 17 -86.001 17c-43.333 0 -80.833 -9.5 -112.5 -28.5s-62.5 -46.833 -92.5 -83.5v-452zM390.001 912.001c40.667 40.667 85.668 73.333 135.001 98s104.666 37 165.999 37c59.333 0 112.833 -11.833 160.5 -35.5s88.334 -57.5 122.001 -101.5
s59.667 -97.167 78 -159.5s27.5 -132.166 27.5 -209.499c0 -83.333 -10.5 -159.166 -31.5 -227.499s-50.833 -126.833 -89.5 -175.5s-84.834 -86.334 -138.501 -113.001s-113.5 -40 -179.5 -40c-32 0 -60.667 3.16699 -86 9.5s-48.666 15.166 -69.999 26.499
s-41 24.833 -59 40.5s-35 33.167 -51 52.5l-11 -62c-4.66699 -19.333 -12.334 -32.833 -23.001 -40.5s-25 -11.5 -43 -11.5h-183v1491h276v-579z" />
    <glyph glyph-name="c" unicode="c" horiz-adv-x="968" 
d="M862 801c-8 -10.667 -15.998 -18.833 -23.998 -24.5s-19.333 -8.5 -34 -8.5c-13.333 0 -26.166 3.83301 -38.499 11.5s-26.5 16 -42.5 25s-35 17.333 -57 25s-49.333 11.5 -82 11.5c-41.333 0 -77.166 -7.5 -107.499 -22.5s-55.5 -36.5 -75.5 -64.5
s-34.833 -62 -44.5 -102s-14.5 -85 -14.5 -135c0 -105.333 21.167 -186 63.5 -242s100.166 -84 173.499 -84c25.333 0 47.166 2.16699 65.499 6.5s34.333 9.83301 48 16.5s25.5 14 35.5 22l28.5 22c9 6.66699 18 12.167 27 16.5s19.167 6.5 30.5 6.5c21.333 0 38 -8 50 -24
l79 -100c-29.333 -34 -60.666 -62.167 -93.999 -84.5s-67.833 -40 -103.5 -53s-71.834 -22 -108.501 -27s-73 -7.5 -109 -7.5c-63.333 0 -123.333 11.833 -180 35.5s-106.334 58.167 -149.001 103.5s-76.5 101 -101.5 167s-37.5 141.333 -37.5 226
c0 75.333 11 145.333 33 210s54.333 120.667 97 168s95.5 84.5 158.5 111.5s135.833 40.5 218.5 40.5c78.667 0 147.667 -12.667 207 -38s112.666 -62 159.999 -110z" />
    <glyph glyph-name="d" unicode="d" horiz-adv-x="1142" 
d="M751 763c-26 30 -54.166 51.001 -84.499 63.001s-62.5 18 -96.5 18c-33.333 0 -63.666 -6.33301 -90.999 -19s-50.833 -32.5 -70.5 -59.5s-34.834 -61.5 -45.501 -103.5s-16 -92 -16 -150c0 -57.333 4.33301 -106 13 -146s21.167 -72.333 37.5 -97
s36.166 -42.5 59.499 -53.5s49.333 -16.5 78 -16.5c48.667 0 89.5 9.66699 122.5 29s64.167 46.666 93.5 81.999v453zM1027 1491l0.000976562 -1491h-170c-35.333 0 -58 16 -68 48l-23 90c-20.667 -22.667 -42.5 -43.334 -65.5 -62.001s-47.833 -34.834 -74.5 -48.501
s-55.334 -24.167 -86.001 -31.5s-64 -11 -100 -11c-55.333 0 -106 11.667 -152 35s-85.833 57.5 -119.5 102.5s-59.834 100.167 -78.501 165.5s-28 140 -28 224c0 76.667 10.5 148 31.5 214s50.833 123 89.5 171s85.334 85.667 140.001 113s115.334 41 182.001 41
c56 0 103.167 -8.33301 141.5 -25s73.166 -39.334 104.499 -68.001v533h276z" />
    <glyph glyph-name="e" unicode="e" horiz-adv-x="1072" 
d="M768 637c0 28.667 -3.83398 55.999 -11.501 81.999s-19.834 49 -36.501 69s-37.667 35.833 -63 47.5s-55.666 17.5 -90.999 17.5c-66 0 -117.667 -18.667 -155 -56s-61.666 -90.666 -72.999 -159.999h430zM333.999 472.999
c8.66699 -96.667 36.166 -167.334 82.499 -212.001s106.833 -67 181.5 -67c38 0 70.833 4.5 98.5 13.5s52 19 73 30l57 30c17 9 33.833 13.5 50.5 13.5c21.333 0 38 -8 50 -24l80 -100c-29.333 -34 -61.666 -62.167 -96.999 -84.5s-72 -40 -110 -53s-76.333 -22 -115 -27
s-76 -7.5 -112 -7.5c-72 0 -139.167 11.833 -201.5 35.5s-116.666 58.667 -162.999 105s-82.833 103.833 -109.5 172.5s-40 148.334 -40 239.001c0 70 11.5 136 34.5 198s56.167 116 99.5 162s96 82.5 158 109.5s132 40.5 210 40.5c66 0 126.833 -10.5 182.5 -31.5
s103.667 -51.5 144 -91.5s71.666 -89.167 93.999 -147.5s33.5 -124.833 33.5 -199.5c0 -20.667 -1 -37.667 -3 -51s-5.33301 -24 -10 -32s-11 -13.5 -19 -16.5s-18.333 -4.5 -31 -4.5h-618z" />
    <glyph glyph-name="f" unicode="f" horiz-adv-x="724" 
d="M189 0l-0.00195312 832.998l-80 14c-20.667 4 -37.5 11.333 -50.5 22s-19.5 26 -19.5 46v110h150v68c0 58.667 9.16699 111.834 27.5 159.501s44.5 88 78.5 121s75.667 58.5 125 76.5s105 27 167 27c24 0 46.833 -1.5 68.5 -4.5s43.5 -7.5 65.5 -13.5l-6 -136
c-1.33301 -20.667 -10.166 -34.167 -26.499 -40.5s-34.5 -9.5 -54.5 -9.5c-28 0 -53.167 -3 -75.5 -9s-41.166 -16.167 -56.499 -30.5s-27 -33.666 -35 -57.999s-12 -54.5 -12 -90.5v-60h256v-192h-247v-833h-275z" />
    <glyph glyph-name="g" unicode="g" horiz-adv-x="1063" 
d="M498 554c56.667 0 98.501 14.333 125.501 43s40.5 65.667 40.5 111c0 47.333 -13.5 84.5 -40.5 111.5s-68.833 40.5 -125.5 40.5s-98.334 -13.5 -125.001 -40.5s-40 -64.167 -40 -111.5c0 -44.667 13.5 -81.5 40.5 -110.5s68.5 -43.5 124.5 -43.5zM759.001 -42
c0 18 -5.66504 32.668 -16.998 44.001s-26.5 20.333 -45.5 27s-41.5 11.5 -67.5 14.5s-53.667 5.33301 -83 7s-59.666 3.16699 -90.999 4.5s-62 3.66602 -92 6.99902c-23.333 -14 -42.5 -30.5 -57.5 -49.5s-22.5 -40.5 -22.5 -64.5c0 -16.667 3.83301 -32 11.5 -46
s20.5 -26 38.5 -36s41.667 -17.833 71 -23.5s66 -8.5 110 -8.5c45.333 0 83.666 3 114.999 9s56.666 14.5 75.999 25.5s33.166 24.167 41.499 39.5s12.5 32 12.5 50zM1033 997.001l-0.000976562 -101.001c0 -16 -4.5 -28.667 -13.5 -38s-23.833 -16.333 -44.5 -21l-84 -17
c11.333 -32.667 17 -67.667 17 -105c0 -51.333 -10.5 -97.5 -31.5 -138.5s-49.833 -76 -86.5 -105s-80 -51.333 -130 -67s-104 -23.5 -162 -23.5c-36.667 0 -71 3 -103 9c-28 -17.333 -42 -36.333 -42 -57c0 -19.333 9.5 -33.333 28.5 -42s44 -14.834 75 -18.501
s66.333 -6 106 -7s80 -3.16699 121 -6.5s81.333 -9.16602 121 -17.499s75 -22 106 -41s56 -44.167 75 -75.5s28.5 -71.666 28.5 -120.999c0 -46 -11.333 -90.667 -34 -134s-55.5 -82 -98.5 -116s-95.833 -61.333 -158.5 -82s-134 -31 -214 -31
c-79.333 0 -148.166 7.5 -206.499 22.5s-106.666 35 -144.999 60s-66.833 53.833 -85.5 86.5s-28 66.667 -28 102c0 46 14 85 42 117s66.667 57.667 116 77c-26 14.667 -46.833 33.834 -62.5 57.501s-23.5 54.5 -23.5 92.5c0 30.667 11.167 63 33.5 97
s56.833 62.333 103.5 85c-52.667 28 -94.334 65.5 -125.001 112.5s-46 101.833 -46 164.5c0 51.333 10.5 97.666 31.5 138.999s50.167 76.5 87.5 105.5s81.333 51.167 132 66.5s105.667 23 165 23c88 0 165.667 -17.333 233 -52h302z" />
    <glyph glyph-name="h" unicode="h" horiz-adv-x="1134" 
d="M390 930c19.333 17.333 39.5 33.168 60.5 47.501s43.333 26.666 67 36.999s49 18.333 76 24s56.167 8.5 87.5 8.5c56 0 105.667 -9.66699 149 -29s79.833 -46.333 109.5 -81s52 -76 67 -124s22.5 -100.667 22.5 -158v-655h-275v655c0 57.333 -13.333 101.833 -40 133.5
s-66 47.5 -118 47.5c-38.667 0 -75 -8.33301 -109 -25s-66.333 -40 -97 -70v-741h-276v1491h276v-561z" />
    <glyph glyph-name="i" unicode="i" horiz-adv-x="520" 
d="M398 1031v-1031h-276v1031h276zM431 1324c0 -23.333 -4.66699 -45 -14 -65s-21.833 -37.667 -37.5 -53s-34 -27.333 -55 -36s-43.5 -13 -67.5 -13c-22.667 0 -44.167 4.33301 -64.5 13s-38.166 20.667 -53.499 36s-27.5 33 -36.5 53s-13.5 41.667 -13.5 65
s4.5 45.166 13.5 65.499s21.167 38.166 36.5 53.499s33.166 27.333 53.499 36s41.833 13 64.5 13c24 0 46.5 -4.33301 67.5 -13s39.333 -20.667 55 -36s28.167 -33.166 37.5 -53.499s14 -42.166 14 -65.499z" />
    <glyph glyph-name="j" unicode="j" horiz-adv-x="520" 
d="M398 1031l0.000976562 -1051c0 -46.667 -6 -90.5 -18 -131.5s-31.5 -76.833 -58.5 -107.5s-62.333 -55 -106 -73s-97.5 -27 -161.5 -27c-24 0 -46.5 1.66699 -67.5 5s-42.5 8 -64.5 14l10 146c1.33301 13.333 6.16602 22.666 14.499 27.999s24.833 8 49.5 8
s45 2.16699 61 6.5s28.833 11.833 38.5 22.5s16.5 24.834 20.5 42.501s6 39.834 6 66.501v1051h276zM431.001 1324c0 -23.333 -4.66699 -45 -14 -65s-21.833 -37.667 -37.5 -53s-34 -27.333 -55 -36s-43.5 -13 -67.5 -13c-22.667 0 -44.167 4.33301 -64.5 13
s-38.166 20.667 -53.499 36s-27.5 33 -36.5 53s-13.5 41.667 -13.5 65s4.5 45.166 13.5 65.499s21.167 38.166 36.5 53.499s33.166 27.333 53.499 36s41.833 13 64.5 13c24 0 46.5 -4.33301 67.5 -13s39.333 -20.667 55 -36s28.167 -33.166 37.5 -53.499
s14 -42.166 14 -65.499z" />
    <glyph glyph-name="k" unicode="k" horiz-adv-x="1091" 
d="M390 1491l0.000976562 -846h46c17.333 0 31 2.5 41 7.5s20 14.167 30 27.5l228 304c11.333 15.333 24.166 27 38.499 35s32.5 12 54.5 12h252l-296 -376c-23.333 -31.333 -50.333 -56 -81 -74c15.333 -10.667 28.666 -23 39.999 -37s22.333 -29.667 33 -47l319 -497h-248
c-21.333 0 -39.666 3.5 -54.999 10.5s-28 19.5 -38 37.5l-232 379c-9.33301 16 -19 26.333 -29 31s-25 7 -45 7h-58v-465h-276v1491h276z" />
    <glyph glyph-name="l" unicode="l" horiz-adv-x="508" 
d="M392 1491v-1491h-276v1491h276z" />
    <glyph glyph-name="m" unicode="m" horiz-adv-x="1687" 
d="M114 0l0.00195312 1031h170c34.667 0 57.667 -16 69 -48l16 -67c18 18.667 36.5 36 55.5 52s39.5 29.833 61.5 41.5s45.833 20.834 71.5 27.501s53.5 10 83.5 10c63.333 0 115.666 -16.833 156.999 -50.5s72.666 -78.5 93.999 -134.5
c16.667 32.667 37.167 60.834 61.5 84.501s51 42.834 80 57.501s59.667 25.5 92 32.5s64.833 10.5 97.5 10.5c58 0 109.333 -8.66699 154 -26s82.167 -42.833 112.5 -76.5s53.5 -74.834 69.5 -123.501s24 -104 24 -166v-655h-276v655c0 120.667 -51.667 181 -155 181
c-23.333 0 -44.833 -3.83301 -64.5 -11.5s-37 -19.167 -52 -34.5s-26.667 -34.333 -35 -57s-12.5 -48.667 -12.5 -78v-655h-276v655c0 65.333 -12.833 111.833 -38.5 139.5s-63.5 41.5 -113.5 41.5c-32 0 -62.167 -7.5 -90.5 -22.5s-54.833 -35.833 -79.5 -62.5v-751h-276z
" />
    <glyph glyph-name="n" unicode="n" horiz-adv-x="1134" 
d="M370 911c20.667 20 42.167 38.333 64.5 55s46 31 71 43s52 21.333 81 28s60.5 10 94.5 10c56 0 105.667 -9.66699 149 -29s79.833 -46.333 109.5 -81s52 -76 67 -124s22.5 -100.667 22.5 -158v-655h-275v655c0 57.333 -13.333 101.833 -40 133.5s-66 47.5 -118 47.5
c-38.667 0 -75 -8.33301 -109 -25s-66.333 -40 -97 -70v-741h-276v1031h170c34.667 0 57.667 -16 69 -48z" />
    <glyph glyph-name="o" unicode="o" horiz-adv-x="1155" 
d="M579 1047c77.333 0 147.666 -12.333 210.999 -37s117.666 -59.834 162.999 -105.501s80.333 -101.167 105 -166.5s37 -139 37 -221s-12.333 -155.833 -37 -221.5s-59.667 -121.5 -105 -167.5s-99.666 -81.333 -162.999 -106s-133.666 -37 -210.999 -37
c-78 0 -148.833 12.333 -212.5 37s-118.167 60 -163.5 106s-80.5 101.833 -105.5 167.5s-37.5 139.5 -37.5 221.5s12.5 155.667 37.5 221s60.167 120.833 105.5 166.5s99.833 80.834 163.5 105.501s134.5 37 212.5 37zM579 192c78.667 0 137 27.167 175 81.5
s57 135.166 57 242.499c0 106.667 -19 187.167 -57 241.5s-96.333 81.5 -175 81.5c-80.667 0 -140 -27.167 -178 -81.5s-57 -134.833 -57 -241.5c0 -107.333 19 -188.166 57 -242.499s97.333 -81.5 178 -81.5z" />
    <glyph glyph-name="p" unicode="p" horiz-adv-x="1142" 
d="M390 272c26 -30 54.166 -51 84.499 -63s62.833 -18 97.5 -18c33.333 0 63.666 6.33301 90.999 19s50.833 32.5 70.5 59.5s34.834 61.5 45.501 103.5s16 92 16 150c0 57.333 -4.5 106 -13.5 146s-21.667 72.333 -38 97s-36.166 42.5 -59.499 53.5s-49.333 16.5 -78 16.5
c-48.667 0 -89.5 -9.5 -122.5 -28.5s-64.167 -46.833 -93.5 -83.5v-452zM373.999 896c20.667 22.667 42.668 43.498 66.001 62.498s48.333 35.333 75 49s55.334 24.334 86.001 32.001s64 11.5 100 11.5c55.333 0 106.166 -11.833 152.499 -35.5s86.166 -58 119.499 -103
s59.333 -100.167 78 -165.5s28 -140 28 -224c0 -77.333 -10.5 -148.833 -31.5 -214.5s-50.833 -122.5 -89.5 -170.5s-85.167 -85.5 -139.5 -112.5s-114.833 -40.5 -181.5 -40.5c-56 0 -103.5 8.33301 -142.5 25s-73.833 39.334 -104.5 68.001v-411h-276v1364h170
c34.667 0 57.667 -16 69 -48z" />
    <glyph glyph-name="q" unicode="q" horiz-adv-x="1141" 
d="M751 763c-26 30 -54.166 51.001 -84.499 63.001s-62.5 18 -96.5 18c-33.333 0 -63.666 -6.33301 -90.999 -19s-50.833 -32.5 -70.5 -59.5s-34.834 -61.5 -45.501 -103.5s-16 -92 -16 -150c0 -57.333 4.33301 -106 13 -146s21.167 -72.333 37.5 -97
s36.166 -42.5 59.499 -53.5s49.333 -16.5 78 -16.5c48.667 0 89.5 9.66699 122.5 29s64.167 46.666 93.5 81.999v453zM1027 1031v-1364h-276v455c-40 -41.333 -85 -74.5 -135 -99.5s-108.667 -37.5 -176 -37.5c-55.333 0 -106 11.667 -152 35s-85.833 57.5 -119.5 102.5
s-59.834 100.167 -78.501 165.5s-28 140 -28 224c0 76.667 10.5 148 31.5 214s50.833 123 89.5 171s85.334 85.667 140.001 113s115.334 41 182.001 41c31.333 0 60 -2.83301 86 -8.5s49.833 -13.5 71.5 -23.5s41.667 -22.333 60 -37s36.166 -31 53.499 -49l13 50
c10 32 32.667 48 68 48h170z" />
    <glyph glyph-name="r" unicode="r" horiz-adv-x="754" 
d="M373 861c32.667 58.667 70.3311 104.998 112.998 138.998s92.667 51 150 51c46.667 0 84.667 -11 114 -33l-18 -204c-3.33301 -13.333 -8.5 -22.5 -15.5 -27.5s-16.5 -7.5 -28.5 -7.5c-10.667 0 -26 1.5 -46 4.5s-38.667 4.5 -56 4.5
c-25.333 0 -47.833 -3.66699 -67.5 -11s-37.167 -17.666 -52.5 -30.999s-29.166 -29.666 -41.499 -48.999s-23.833 -41.333 -34.5 -66v-631h-276v1031h163c28 0 47.333 -5 58 -15s18.334 -27.333 23.001 -52z" />
    <glyph glyph-name="s" unicode="s" horiz-adv-x="885" 
d="M755 819c-7.33301 -11.333 -14.835 -19.5029 -22.502 -24.5029s-18.167 -7.5 -31.5 -7.5s-27 3.33301 -41 10l-47 21.5c-17.333 7.66699 -37.166 14.834 -59.499 21.501s-48.166 10 -77.499 10c-44.667 0 -79.334 -9.16699 -104.001 -27.5s-37 -42.5 -37 -72.5
c0 -20.667 7 -38 21 -52s32.5 -26.167 55.5 -36.5s49.167 -20 78.5 -29s59.5 -18.833 90.5 -29.5s61.167 -23 90.5 -37s55.5 -31.5 78.5 -52.5s41.5 -46.333 55.5 -76s21 -65.5 21 -107.5c0 -50 -9.16699 -96.167 -27.5 -138.5s-45.166 -78.833 -80.499 -109.5
s-79.333 -54.667 -132 -72s-113.334 -26 -182.001 -26c-35.333 0 -70.333 3.16699 -105 9.5s-67.667 15.333 -99 27s-60.666 25.167 -87.999 40.5s-51 32 -71 50l64 103c7.33301 12 16.5 21.333 27.5 28s25.167 10 42.5 10c16.667 0 32 -4.16699 46 -12.5l47 -27
c17.333 -9.66699 37.833 -18.667 61.5 -27s53.167 -12.5 88.5 -12.5c26.667 0 49.667 3 69 9s35 14.167 47 24.5s20.833 22 26.5 35s8.5 26.5 8.5 40.5c0 22.667 -7.16699 41.167 -21.5 55.5s-33 26.833 -56 37.5s-49.5 20.334 -79.5 29.001s-60.5 18.334 -91.5 29.001
s-61.333 23.334 -91 38.001s-56 33.167 -79 55.5s-41.667 49.833 -56 82.5s-21.5 72.334 -21.5 119.001c0 42.667 8.33301 83.167 25 121.5s41.667 72.166 75 101.499s74.833 52.666 124.5 69.999s107.167 26 172.5 26c73.333 0 140 -12 200 -36s109.333 -55.333 148 -94z
" />
    <glyph glyph-name="t" unicode="t" horiz-adv-x="755" 
d="M470 -16c-46.667 0 -87.9961 6.83496 -123.996 20.502s-66.333 33.167 -91 58.5s-43.334 56 -56.001 92s-19 76.667 -19 122v556h-97c-14.667 0 -27.167 4.66699 -37.5 14s-15.5 23.333 -15.5 42v108l165 30l56 267c7.33301 30 27.666 45 60.999 45h144v-314h266v-192
h-266v-538c0 -28.667 6.83301 -51.334 20.5 -68.001s33.167 -25 58.5 -25c13.333 0 24.666 1.5 33.999 4.5s17.333 6.33301 24 10l18.5 10c5.66699 3 11.5 4.5 17.5 4.5c8 0 14.667 -1.83301 20 -5.5s10.666 -9.83398 15.999 -18.501l83 -132c-38 -30 -81 -52.667 -129 -68
s-97.667 -23 -149 -23z" />
    <glyph glyph-name="u" unicode="u" horiz-adv-x="1133" 
d="M1019 1031l-0.000976562 -1031h-170c-35.333 0 -58 16 -68 48l-18 72c-20.667 -20 -42 -38.333 -64 -55s-45.5 -31 -70.5 -43s-52 -21.333 -81 -28s-60.5 -10 -94.5 -10c-56 0 -105.833 9.66699 -149.5 29s-80.167 46.333 -109.5 81s-51.666 76 -66.999 124
s-23 100.667 -23 158v655h276v-655c0 -57.333 13.167 -101.833 39.5 -133.5s65.5 -47.5 117.5 -47.5c38.667 0 75 8.5 109 25.5s66.333 40.167 97 69.5v741h276z" />
    <glyph glyph-name="v" unicode="v" horiz-adv-x="1066" 
d="M1063 1031l-405 -1031h-250l-405 1031h229c20 0 36.667 -4.66699 50 -14s22.666 -21.333 27.999 -36l173 -510c11.333 -34.667 21.333 -68.5 30 -101.5s16.334 -66.167 23.001 -99.5c7.33301 33.333 15.5 66.5 24.5 99.5s19.5 66.833 31.5 101.5l179 510
c4.66699 14.667 13.667 26.667 27 36s29 14 47 14h218z" />
    <glyph glyph-name="w" unicode="w" horiz-adv-x="1619" 
d="M1607 1031l-324.001 -1031h-223c-11.333 0 -21.5 3.66699 -30.5 11s-15.833 19.666 -20.5 36.999l-168 558c-6.66699 21.333 -12.5 42.5 -17.5 63.5s-9.5 42.167 -13.5 63.5l-14.5 -64.5c-5 -21.667 -10.833 -43.167 -17.5 -64.5l-170 -556
c-9.33301 -32 -29.333 -48 -60 -48h-212l-324 1031h220c20 0 36.833 -4.66699 50.5 -14s22.834 -21.333 27.501 -36l127 -510c8 -32.667 15 -64.334 21 -95.001s11.667 -61 17 -91c8 30 16.5 60.333 25.5 91l28.5 95l151 512c4.66699 14 13.667 25.667 27 35s29 14 47 14
h122c19.333 0 35.833 -4.66699 49.5 -14s22.834 -21 27.501 -35l146 -512l27 -94.5c8.66699 -31 16.667 -62.167 24 -93.5c5.33301 30.667 11.166 61.5 17.499 92.5s13.833 62.833 22.5 95.5l133 510c4.66699 14.667 13.667 26.667 27 36s29 14 47 14h210z" />
    <glyph glyph-name="x" unicode="x" horiz-adv-x="1064" 
d="M1065 0h-264.998c-20 0 -36.167 5 -48.5 15s-22.166 21.667 -29.499 35l-203 339c-6 -22.667 -14.667 -42.667 -26 -60l-174 -279c-8 -12.667 -17.833 -24.167 -29.5 -34.5s-26.5 -15.5 -44.5 -15.5h-246l350 532l-336 499h265c20 0 34.667 -2.66699 44 -8
s17.666 -14 24.999 -26l202 -327c3.33301 11.333 7.66602 22.833 12.999 34.5s11.666 23.167 18.999 34.5l155 253c16 26 36.667 39 62 39h253l-336 -487z" />
    <glyph glyph-name="y" unicode="y" horiz-adv-x="1064" 
d="M1070 1031l-556 -1308c-8.66699 -18.667 -19.167 -32.667 -31.5 -42s-31.833 -14 -58.5 -14h-205l195 416l-414 948h242c22 0 39 -5 51 -15s20.667 -21.667 26 -35l196 -493c7.33301 -19.333 13.833 -38.833 19.5 -58.5l16.5 -58.5c12 39.333 25.667 78.666 41 117.999
l182 492c5.33301 14.667 15 26.667 29 36s29.333 14 46 14h221z" />
    <glyph glyph-name="z" unicode="z" horiz-adv-x="925" 
d="M867 919c0 -19.333 -3.33105 -38.166 -9.99805 -56.499s-15.334 -33.166 -26.001 -44.499l-463 -610h486v-208h-805v114c0 11.333 3.16699 25.666 9.5 42.999s15.166 33.666 26.499 48.999l467 617h-474v208h789v-112z" />
    <glyph glyph-name="braceleft" unicode="{" horiz-adv-x="616" 
d="M500 1376c-44.667 0 -78.167 -13.833 -100.5 -41.5s-33.5 -65.834 -33.5 -114.501c0 -36.667 1.66699 -71.667 5 -105s7.16602 -65.5 11.499 -96.5s8.16602 -61.5 11.499 -91.5s5 -60.333 5 -91c0 -25.333 -3.5 -49.5 -10.5 -72.5s-17.167 -44 -30.5 -63
s-29.833 -35.667 -49.5 -50s-41.834 -25.166 -66.501 -32.499c24.667 -7.33301 46.834 -18.166 66.501 -32.499s36.167 -31 49.5 -50s23.5 -40 30.5 -63s10.5 -46.833 10.5 -71.5c0 -30.667 -1.66699 -61.167 -5 -91.5s-7.16602 -61 -11.499 -92
s-8.16602 -63.167 -11.499 -96.5s-5 -68.333 -5 -105c0 -48 11.167 -86 33.5 -114s55.833 -42 100.5 -42h5c4.66699 0 10.334 -1 17.001 -3s13 -5.33301 19 -10s11.167 -10.334 15.5 -17.001s6.5 -15 6.5 -25v-120h-53c-66 0 -123.167 8.33301 -171.5 25
s-88.333 40.167 -120 70.5s-55 67 -70 110s-22.5 90.5 -22.5 142.5c0 32 2 63.5 6 94.5s8.5 62 13.5 93s9.66699 61.667 14 92s6.5 60.833 6.5 91.5c0 40 -8.66699 72.667 -26 98s-46.666 38 -87.999 38v156c41.333 0 70.666 12.667 87.999 38s26 58 26 98
c0 30.667 -2.16699 61.167 -6.5 91.5s-9 61 -14 92s-9.5 62 -13.5 93s-6 62.5 -6 94.5c0 52 7.5 99.5 22.5 142.5s38.333 79.833 70 110.5s71.667 54.334 120 71.001s105.5 25 171.5 25h53v-121c0 -10 -2.16699 -18.333 -6.5 -25s-9.5 -12.334 -15.5 -17.001
s-12.333 -8 -19 -10s-12.334 -3 -17.001 -3h-5z" />
    <glyph glyph-name="bar" unicode="|" horiz-adv-x="530" 
d="M158 1552h214v-1894h-214v1894z" />
    <glyph glyph-name="braceright" unicode="}" horiz-adv-x="616" 
d="M564 540c-41.333 0 -70.666 -12.667 -87.999 -38s-26 -58 -26 -98c0 -30.667 2 -61.167 6 -91.5s8.5 -61 13.5 -92s9.66699 -62 14 -93s6.5 -62.5 6.5 -94.5c0 -52 -7.5 -99.5 -22.5 -142.5s-38.333 -79.667 -70 -110s-71.667 -53.833 -120 -70.5s-105.5 -25 -171.5 -25
h-53v120c0 10 2 18.333 6 25s9 12.334 15 17.001s12.333 8 19 10s12.667 3 18 3h5c44.667 0 78.167 14 100.5 42s33.5 66 33.5 114c0 36.667 -1.66699 71.667 -5 105s-7.16602 65.5 -11.499 96.5s-8.16602 61.667 -11.499 92s-5 60.833 -5 91.5c0 24.667 3.5 48.5 10.5 71.5
s17.167 44 30.5 63s29.833 35.667 49.5 50s42.167 25.166 67.5 32.499c-25.333 7.33301 -47.833 18.166 -67.5 32.499s-36.167 31 -49.5 50s-23.5 40 -30.5 63s-10.5 47.167 -10.5 72.5c0 30.667 1.66699 61 5 91s7.16602 60.5 11.499 91.5s8.16602 63.167 11.499 96.5
s5 68.333 5 105c0 48.667 -11.167 86.834 -33.5 114.501s-55.833 41.5 -100.5 41.5h-5c-5.33301 0 -11.333 1 -18 3s-13 5.33301 -19 10s-11 10.334 -15 17.001s-6 15 -6 25v121h53c66 0 123.167 -8.33301 171.5 -25s88.333 -40.334 120 -71.001s55 -67.5 70 -110.5
s22.5 -90.5 22.5 -142.5c0 -32 -2.16699 -63.5 -6.5 -94.5s-9 -62 -14 -93s-9.5 -61.667 -13.5 -92s-6 -60.833 -6 -91.5c0 -40 8.66699 -72.667 26 -98s46.666 -38 87.999 -38v-156z" />
    <glyph glyph-name="asciitilde" unicode="~" horiz-adv-x="1160" 
d="M741 661c35.333 0 62.5 11.168 81.5 33.501s28.5 54.5 28.5 96.5h222c0 -54 -7 -102.5 -21 -145.5s-34.5 -79.833 -61.5 -110.5s-60 -54.167 -99 -70.5s-83.167 -24.5 -132.5 -24.5c-35.333 0 -69 4.33301 -101 13s-62 18 -90 28l-77.5 28
c-23.667 8.66699 -45.5 13 -65.5 13c-35.333 0 -62.5 -11.167 -81.5 -33.5s-28.5 -54.5 -28.5 -96.5h-222c0 54 7 102.667 21 146s34.5 80.166 61.5 110.499s60 53.833 99 70.5s83.167 25 132.5 25c35.333 0 69 -4.33301 101 -13s62 -18.167 90 -28.5l77.5 -28.5
c23.667 -8.66699 45.5 -13 65.5 -13z" />
    <glyph glyph-name="uni0400" unicode="&#x400;" horiz-adv-x="1148" 
d="M454 1216v-373h484v-227h-484v-381h622v-235h-924v1451h924v-235h-622zM472 1864c14 0 26.168 -0.333984 36.501 -1.00098s19.666 -2.5 27.999 -5.5s16.166 -7.33301 23.499 -13s15 -13.5 23 -23.5l213 -271h-200c-10.667 0 -20 0.166992 -28 0.5s-15.333 1.33301 -22 3
s-13.167 4.33398 -19.5 8.00098s-13.166 8.5 -20.499 14.5l-322 288h288z" />
    <glyph glyph-name="afii10023" unicode="&#x401;" horiz-adv-x="1148" 
d="M454 1216v-373h484v-227h-484v-381h622v-235h-924v1451h924v-235h-622zM550 1667c0 -19.333 -3.83301 -37.5 -11.5 -54.5s-18.334 -31.667 -32.001 -44s-29.5 -22.166 -47.5 -29.499s-37 -11 -57 -11c-18.667 0 -36.334 3.66699 -53.001 11s-31.5 17.166 -44.5 29.499
s-23.333 27 -31 44s-11.5 35.167 -11.5 54.5s3.83301 37.833 11.5 55.5s18 33 31 46s27.833 23.333 44.5 31s34.334 11.5 53.001 11.5c20 0 39 -3.83301 57 -11.5s33.833 -18 47.5 -31s24.334 -28.333 32.001 -46s11.5 -36.167 11.5 -55.5zM998 1667
c0 -19.333 -3.83301 -37.5 -11.5 -54.5s-18 -31.667 -31 -44s-28.167 -22.166 -45.5 -29.499s-36 -11 -56 -11s-38.667 3.66699 -56 11s-32.5 17.166 -45.5 29.499s-23.333 27 -31 44s-11.5 35.167 -11.5 54.5s3.83301 37.833 11.5 55.5s18 33 31 46s28.167 23.333 45.5 31
s36 11.5 56 11.5s38.667 -3.83301 56 -11.5s32.5 -18 45.5 -31s23.333 -28.333 31 -46s11.5 -36.167 11.5 -55.5z" />
    <glyph glyph-name="afii10051" unicode="&#x402;" horiz-adv-x="1514" 
d="M957 860c96.667 0 179.332 -10.6689 247.999 -32.002s124.5 -50.333 167.5 -87s74.5 -79.167 94.5 -127.5s30 -99.833 30 -154.5c0 -69.333 -12.167 -132.166 -36.5 -188.499s-59.5 -104.5 -105.5 -144.5s-102.5 -71 -169.5 -93s-143.5 -33 -229.5 -33h-82v230h82
c48 0 87.667 5.33301 119 16s56.166 25.167 74.499 43.5s31.333 39.5 39 63.5s11.5 49.333 11.5 76c0 30 -3.83301 57.333 -11.5 82s-20.667 45.834 -39 63.501s-43.166 31.167 -74.499 40.5s-70.666 14 -117.999 14h-256v-629h-300v1217h-373v234h1077v-234h-404v-357h256z
" />
    <glyph glyph-name="afii10052" unicode="&#x403;" horiz-adv-x="1086" 
d="M1056 1224h-602v-1224h-302v1451h904v-227zM1054 1864l-323 -286c-7.33301 -6 -14.333 -10.833 -21 -14.5s-13.5 -6.5 -20.5 -8.5s-14.667 -3.33301 -23 -4s-17.5 -1 -27.5 -1h-200l200 271c7.33301 10 14.5 17.833 21.5 23.5s14.667 10 23 13s17.833 4.83301 28.5 5.5
s23 1 37 1h305z" />
    <glyph glyph-name="afii10053" unicode="&#x404;" horiz-adv-x="1330" 
d="M1140 357c16.667 0 30.6729 -5.99609 42.0059 -17.9961l119 -127c-58.667 -74.667 -131.5 -131.334 -218.5 -170.001s-190.5 -58 -310.5 -58c-108.667 0 -206.334 18.5 -293.001 55.5s-160.334 88.5 -221.001 154.5s-107.334 144.333 -140.001 235s-49 189.667 -49 297
c0 72 7.83301 140.5 23.5 205.5s38.5 124.833 68.5 179.5s66.167 104 108.5 148s90.166 81.5 143.499 112.5s111.5 54.667 174.5 71s130.167 24.5 201.5 24.5c53.333 0 103.833 -4.66699 151.5 -14s92.167 -22.333 133.5 -39s79.5 -36.834 114.5 -60.501
s66.5 -49.5 94.5 -77.5l-101 -138c-6 -8.66699 -13.667 -16.334 -23 -23.001s-22 -10 -38 -10s-32.167 5.66699 -48.5 17s-36.333 24 -60 38s-53.334 26.667 -89.001 38s-80.834 17 -135.501 17c-52.667 0 -101.5 -8.16699 -146.5 -24.5s-84.833 -40.333 -119.5 -72
s-63.834 -70.5 -87.501 -116.5s-40.167 -98.333 -49.5 -157h644v-219h-646c8.66699 -62.667 25.334 -118.334 50.001 -167.001s55 -89.5 91 -122.5s76.667 -58.167 122 -75.5s93.666 -26 144.999 -26c34 0 64.833 1.66699 92.5 5s53.334 9 77.001 17s46 18.333 67 31
s42.167 28.667 63.5 48c7.33301 6 15 11 23 15s16.667 6 26 6z" />
    <glyph glyph-name="afii10054" unicode="&#x405;" horiz-adv-x="1102" 
d="M938 1173c-9.33301 -15.333 -18.8301 -26.5039 -28.4971 -33.5039s-22.167 -10.5 -37.5 -10.5c-14.667 0 -30.5 5.16699 -47.5 15.5s-36.833 21.5 -59.5 33.5s-48.667 23.167 -78 33.5s-63.666 15.5 -102.999 15.5c-69.333 0 -121.333 -15.5 -156 -46.5
s-52 -71.5 -52 -121.5c0 -32 9.5 -58.5 28.5 -79.5s44 -39.167 75 -54.5s66.167 -29 105.5 -41s79.666 -25.167 120.999 -39.5s81.666 -31.166 120.999 -50.499s74.5 -43.666 105.5 -72.999s56 -65.166 75 -107.499s28.5 -93.833 28.5 -154.5
c0 -66 -11.5 -127.833 -34.5 -185.5s-56.167 -108 -99.5 -151s-96.833 -76.833 -160.5 -101.5s-135.834 -37 -216.501 -37c-46 0 -91.833 4.66699 -137.5 14s-89.667 22.333 -132 39s-82.166 36.667 -119.499 60s-70 49.333 -98 78l88 142c7.33301 10.667 17 19.5 29 26.5
s24.667 10.5 38 10.5c18 0 37 -6.66699 57 -20l69 -44c26 -16 56.167 -30.667 90.5 -44s75.5 -20 123.5 -20c70 0 124.167 16 162.5 48s57.5 79.667 57.5 143c0 36.667 -9.5 66.334 -28.5 89.001s-43.833 41.667 -74.5 57s-65.667 28.5 -105 39.5
s-79.666 23.167 -120.999 36.5s-81.666 29.333 -120.999 48s-74.333 43.334 -105 74.001s-55.5 68.667 -74.5 114s-28.5 101.666 -28.5 168.999c0 54 10.667 106.333 32 157s52.666 95.667 93.999 135s92.166 71 152.499 95s129.5 36 207.5 36
c87.333 0 168.166 -13.5 242.499 -40.5s137.166 -64.5 188.499 -112.5z" />
    <glyph glyph-name="afii10055" unicode="&#x406;" horiz-adv-x="606" 
d="M454 0h-302v1451h302v-1451z" />
    <glyph glyph-name="afii10056" unicode="&#x407;" horiz-adv-x="606" 
d="M454 0h-302v1451h302v-1451zM227 1667c0 -19.333 -3.83301 -37.5 -11.5 -54.5s-18.334 -31.667 -32.001 -44s-29.5 -22.166 -47.5 -29.499s-37 -11 -57 -11c-18.667 0 -36.334 3.66699 -53.001 11s-31.5 17.166 -44.5 29.499s-23.333 27 -31 44s-11.5 35.167 -11.5 54.5
s3.83301 37.833 11.5 55.5s18 33 31 46s27.833 23.333 44.5 31s34.334 11.5 53.001 11.5c20 0 39 -3.83301 57 -11.5s33.833 -18 47.5 -31s24.334 -28.333 32.001 -46s11.5 -36.167 11.5 -55.5zM675 1667c0 -19.333 -3.83301 -37.5 -11.5 -54.5s-18 -31.667 -31 -44
s-28.167 -22.166 -45.5 -29.499s-36 -11 -56 -11s-38.667 3.66699 -56 11s-32.5 17.166 -45.5 29.499s-23.333 27 -31 44s-11.5 35.167 -11.5 54.5s3.83301 37.833 11.5 55.5s18 33 31 46s28.167 23.333 45.5 31s36 11.5 56 11.5s38.667 -3.83301 56 -11.5
s32.5 -18 45.5 -31s23.333 -28.333 31 -46s11.5 -36.167 11.5 -55.5z" />
    <glyph glyph-name="afii10057" unicode="&#x408;" horiz-adv-x="864" 
d="M726 520c0 -81.333 -9.99805 -154.832 -29.998 -220.499s-50.167 -122 -90.5 -169s-90.833 -83.167 -151.5 -108.5s-131.334 -38 -212.001 -38c-36.667 0 -72.834 2.16699 -108.501 6.5s-73.167 11.166 -112.5 20.499l8 88l8 88c2 16 8.33301 28.833 19 38.5
s26 14.5 46 14.5c11.333 0 25.833 -2 43.5 -6s39.5 -6 65.5 -6c36 0 67.333 5 94 15s49 26.333 67 49s31.5 52.167 40.5 88.5s13.5 80.5 13.5 132.5v938h300v-931z" />
    <glyph glyph-name="afii10058" unicode="&#x409;" horiz-adv-x="2143" 
d="M1568 230c48 0 87.667 5.33203 119 15.999s56.166 25.167 74.499 43.5s31.333 39.5 39 63.5s11.5 49.333 11.5 76c0 30 -3.83301 57.333 -11.5 82s-20.667 45.834 -39 63.501s-43.166 31.167 -74.499 40.5s-71 14 -119 14h-217v-399h217zM1568 859.999
c97.333 0 180.168 -10.668 248.501 -32.001s124.166 -50.333 167.499 -87s75 -79.167 95 -127.5s30 -99.833 30 -154.5c0 -69.333 -12.167 -132.166 -36.5 -188.499s-59.5 -104.5 -105.5 -144.5s-102.5 -71 -169.5 -93s-143.5 -33 -229.5 -33h-519v1224h-362
c-10 -180 -23.667 -335.667 -41 -467s-38.166 -242.833 -62.499 -334.5s-52 -166 -83 -223s-65 -101.333 -102 -133s-76.667 -53.167 -119 -64.5s-86.833 -17 -133.5 -17c-52.667 0 -90.667 4.66699 -114 14s-35 23 -35 41v185h80c21.333 0 43.5 3.5 66.5 10.5
s45.667 23.667 68 50s44 65.5 65 117.5s40 123.5 57 214.5s31.667 204.333 44 340s21.166 300.167 26.499 493.5h947v-591h217z" />
    <glyph glyph-name="afii10059" unicode="&#x40a;" horiz-adv-x="2188" 
d="M1612 230c48 0 87.668 5.33203 119.001 15.999s56.166 25.167 74.499 43.5s31.333 39.5 39 63.5s11.5 49.333 11.5 76c0 30 -3.66699 57.333 -11 82s-20.333 45.834 -39 63.501s-43.5 31.167 -74.5 40.5s-70.5 14 -118.5 14h-218v-399h217zM1613 859.999
c96.667 0 179.333 -10.668 248 -32.001s124.5 -50.333 167.5 -87s74.5 -79.167 94.5 -127.5s30 -99.833 30 -154.5c0 -69.333 -12.167 -132.166 -36.5 -188.499s-59.5 -104.5 -105.5 -144.5s-102.5 -71 -169.5 -93s-143.5 -33 -229.5 -33h-519v625h-639v-625h-302v1451h302
v-616h639v616h302v-591h218z" />
    <glyph glyph-name="afii10060" unicode="&#x40b;" horiz-adv-x="1524" 
d="M701 852c114.667 27.333 219 43.333 313 48s174.167 -7.5 240.5 -36.5s117.666 -77.167 153.999 -144.5s54.5 -159 54.5 -275v-445h-303v446c0 51.333 -5 95 -15 131s-31 62.833 -63 80.5s-78.167 25.667 -138.5 24s-141.166 -14.5 -242.499 -38.5v-642h-300v1217h-373
v234h1077v-234h-404v-365z" />
    <glyph glyph-name="afii10061" unicode="&#x40c;" horiz-adv-x="1413" 
d="M1414 0l-273.999 0.000976562c-27.333 0 -50.333 7.16699 -69 21.5s-36 35.5 -52 63.5l-277 472c-8 14 -16.5 25.667 -25.5 35s-18.667 16.833 -29 22.5s-22 9.5 -35 11.5s-27.5 3 -43.5 3h-157v-629h-300v1451h300v-599h131c26 0 48.667 4.66699 68 14
s37.333 26.666 54 51.999l293 454c14 23.333 31 42.333 51 57s44 22 72 22h257l-376 -577c-16.667 -26 -36.334 -47.5 -59.001 -64.5s-47.667 -30.5 -75 -40.5c42.667 -11.333 78.667 -29.833 108 -55.5s57 -61.5 83 -107.5zM1178 1864l-323 -286
c-7.33301 -6 -14.333 -10.833 -21 -14.5s-13.5 -6.5 -20.5 -8.5s-14.667 -3.33301 -23 -4s-17.5 -1 -27.5 -1h-200l200 271c7.33301 10 14.5 17.833 21.5 23.5s14.667 10 23 13s17.833 4.83301 28.5 5.5s23 1 37 1h305z" />
    <glyph glyph-name="uni040D" unicode="&#x40d;" horiz-adv-x="1547" 
d="M1395 1451v-1451h-302v865c0 36 1 73.833 3 113.5s6 81.5 12 125.5c-14.667 -39.333 -30.334 -76 -47.001 -110s-32.667 -63.667 -48 -89l-503 -813c-6.66699 -11.333 -14.667 -22.333 -24 -33s-19.5 -20.5 -30.5 -29.5s-23 -16.167 -36 -21.5s-26.833 -8 -41.5 -8h-226
v1451h302v-865c0 -36 -1 -73.833 -3 -113.5s-6 -81.5 -12 -125.5c14.667 39.333 30.334 76 47.001 110s32.667 63.667 48 89l503 814c6.66699 10.667 14.667 21.5 24 32.5s19.5 20.833 30.5 29.5s23 15.667 36 21s26.833 8 41.5 8h226zM631 1864
c14 0 26.168 -0.333984 36.501 -1.00098s19.666 -2.5 27.999 -5.5s16.166 -7.33301 23.499 -13s15 -13.5 23 -23.5l213 -271h-200c-10.667 0 -20 0.166992 -28 0.5s-15.333 1.33301 -22 3s-13.167 4.33398 -19.5 8.00098s-13.166 8.5 -20.499 14.5l-322 288h288z" />
    <glyph glyph-name="afii10062" unicode="&#x40e;" horiz-adv-x="1305" 
d="M1332 1451l-584.999 -1245c-21.333 -44.667 -44.333 -81.334 -69 -110.001s-51.167 -51.167 -79.5 -67.5s-58.5 -27.666 -90.5 -33.999s-66.333 -9.5 -103 -9.5c-52.667 0 -90.667 4.66699 -114 14s-35 23 -35 41v185h81c13.333 0 27.5 1.16699 42.5 3.5
s30 7.33301 45 15s29.5 18.5 43.5 32.5s27 33 39 57l52 103l-582 1015h282c26 0 46.667 -6.16699 62 -18.5s28 -28.166 38 -47.499l252 -486c16.667 -30.667 31.5 -61.334 44.5 -92.001s24.5 -61.667 34.5 -93c18 62.667 42 124.334 72 185.001l222 486
c8 16 20.167 31 36.5 45s37.166 21 62.499 21h249zM683.001 1668c24 0 43.835 2.16699 59.502 6.5s28 12.166 37 23.499s15.333 26.5 19 45.5s5.5 43.5 5.5 73.5h163c19.333 0 33.5 -8 42.5 -24s13.5 -33 13.5 -51c0 -34.667 -8.16699 -65 -24.5 -91
s-39.5 -47.833 -69.5 -65.5s-65.833 -30.834 -107.5 -39.501s-87.834 -13 -138.501 -13s-96.834 4.33301 -138.501 13s-77.5 21.834 -107.5 39.501s-53.167 39.5 -69.5 65.5s-24.5 56.333 -24.5 91c0 18 4.5 35 13.5 51s23.167 24 42.5 24h163
c0 -30 1.83301 -54.5 5.5 -73.5s10 -34.167 19 -45.5s21.333 -19.166 37 -23.499s35.5 -6.5 59.5 -6.5z" />
    <glyph glyph-name="afii10145" unicode="&#x40f;" horiz-adv-x="1499" 
d="M1347 1451v-1451h-460v-258c0 -25.333 -8.83301 -45.666 -26.5 -60.999s-40.5 -23 -68.5 -23h-181v342h-459v1451h302v-1224h591v1224h302z" />
    <glyph glyph-name="afii10017" unicode="&#x410;" horiz-adv-x="1397" 
d="M915 551l-157.003 443.999c-9.33301 23.333 -19.166 50.833 -29.499 82.5s-20.5 65.834 -30.5 102.501c-9.33301 -37.333 -19.166 -72 -29.499 -104s-20.166 -59.667 -29.499 -83l-156 -442h432zM1418 -0.000976562l-232 0.00195312c-26 0 -47.167 6.16699 -63.5 18.5
s-28.5 28.166 -36.5 47.499l-98 277h-579l-98 -277c-6 -16.667 -17.5 -31.834 -34.5 -45.501s-38.167 -20.5 -63.5 -20.5h-234l566 1451h307z" />
    <glyph glyph-name="afii10018" unicode="&#x411;" horiz-adv-x="1267" 
d="M670 230c47.333 0 86.665 5.33203 117.998 15.999s56.333 25.167 75 43.5s31.834 39.5 39.501 63.5s11.5 49.333 11.5 76c0 30 -3.83301 57.333 -11.5 82s-20.667 45.834 -39 63.501s-43.166 31.167 -74.499 40.5s-71 14 -119 14h-218v-399h218zM669.999 859.999
c96.667 0 179.333 -10.668 248 -32.001s124.5 -50.333 167.5 -87s74.5 -79.167 94.5 -127.5s30 -99.833 30 -154.5c0 -69.333 -12.167 -132.166 -36.5 -188.499s-59.5 -104.5 -105.5 -144.5s-102.5 -71 -169.5 -93s-143.167 -33 -228.5 -33h-518v1451h1004v-228h-704v-363
h218z" />
    <glyph glyph-name="afii10019" unicode="&#x412;" horiz-adv-x="1327" 
d="M709 230c48 0 87.5 5.83496 118.5 17.502s55.833 27.167 74.5 46.5s31.667 41.5 39 66.5s11 50.833 11 77.5c0 29.333 -4.33301 55.666 -13 78.999s-22.667 43.166 -42 59.499s-44.5 28.833 -75.5 37.5s-69.167 13 -114.5 13h-255v-397h257zM452 1223v-391.999h197
c42 0 79.333 3.5 112 10.5s60 18.167 82 33.5s38.833 35.5 50.5 60.5s17.5 55.167 17.5 90.5c0 36 -4.83301 66.667 -14.5 92s-24.5 45.666 -44.5 60.999s-45.333 26.5 -76 33.5s-67 10.5 -109 10.5h-215zM667 1451c97.333 0 180.499 -9.16504 249.499 -27.498
s125.333 -44.333 169 -78s75.5 -74.5 95.5 -122.5s30 -101.667 30 -161c0 -33.333 -4.83301 -65.333 -14.5 -96s-24.667 -59.5 -45 -86.5s-46.5 -51.5 -78.5 -73.5s-70 -40.667 -114 -56c98.667 -23.333 171.667 -61.333 219 -114s71 -121 71 -205
c0 -61.333 -11.833 -118.333 -35.5 -171s-58.167 -98.334 -103.5 -137.001s-101.166 -68.834 -167.499 -90.501s-142.5 -32.5 -228.5 -32.5h-562v1451h515z" />
    <glyph glyph-name="afii10020" unicode="&#x413;" horiz-adv-x="1086" 
d="M1056 1224h-602v-1224h-302v1451h904v-227z" />
    <glyph glyph-name="afii10021" unicode="&#x414;" horiz-adv-x="1635" 
d="M1066 227l-0.00195312 997.002h-361c-8 -134.667 -18.667 -254.667 -32 -360s-28.666 -198.333 -45.999 -279s-36.666 -150.334 -57.999 -209.001s-44.333 -108.334 -69 -149.001h566zM1589 227.002v-485.003c0 -25.333 -8.83301 -45.666 -26.5 -60.999
s-40.5 -23 -68.5 -23h-180v342h-1024v-258c0 -25.333 -8.83301 -45.666 -26.5 -60.999s-40.5 -23 -68.5 -23h-181v569h161c17.333 10 35 25.833 53 47.5s35.5 52.334 52.5 92.001s33 89.667 48 150s28.667 134 41 221s23 189.167 32 306.5s15.5 253 19.5 407h947v-1224h221z
" />
    <glyph glyph-name="afii10022" unicode="&#x415;" horiz-adv-x="1148" 
d="M454 1216v-373h484v-227h-484v-381h622v-235h-924v1451h924v-235h-622z" />
    <glyph glyph-name="afii10024" unicode="&#x416;" horiz-adv-x="2160" 
d="M2164 0h-201c-43.333 0 -80.5 9.16699 -111.5 27.5s-55.5 43.166 -73.5 74.499l-268 446c-17.333 30 -37.166 51 -59.499 63s-49.5 18 -81.5 18h-148v-629h-283v629h-147c-32.667 0 -60 -6 -82 -18s-41.667 -33 -59 -63l-268 -446
c-18.667 -31.333 -43.334 -56.166 -74.001 -74.499s-68 -27.5 -112 -27.5h-200l357 610c25.333 42.667 52.5 76.667 81.5 102s61.833 44.666 98.5 57.999c-30 12 -55.833 28.5 -77.5 49.5s-42.5 47.167 -62.5 78.5l-354 553h238c30 0 57.833 -7.33301 83.5 -22
s46.167 -35 61.5 -61l269 -444c16.667 -29.333 35.334 -48.666 56.001 -57.999s44 -14 70 -14h121v599h283v-599h121c26.667 0 50.167 4.66699 70.5 14s39.166 28.666 56.499 57.999l269 444c15.333 26 35.833 46.333 61.5 61s53.5 22 83.5 22h238l-354 -553
c-20 -31.333 -40.833 -57.5 -62.5 -78.5s-47.5 -37.5 -77.5 -49.5c36.667 -13.333 69.5 -32.666 98.5 -57.999s55.833 -59.333 80.5 -102z" />
    <glyph glyph-name="afii10025" unicode="&#x417;" horiz-adv-x="1168" 
d="M69 1313c56.667 48 124.67 85.6641 204.003 112.997s166.666 41 261.999 41c80 0 152.167 -9.33301 216.5 -28s119.166 -44.834 164.499 -78.501s80.166 -74 104.499 -121s36.5 -98.833 36.5 -155.5c0 -66.667 -14.833 -127.667 -44.5 -183
s-75.5 -100.666 -137.5 -135.999c32 -16 61.5 -34.667 88.5 -56s50 -45 69 -71s33.833 -54 44.5 -84s16 -61.667 16 -95c0 -66 -12.333 -127.833 -37 -185.5s-60.5 -107.667 -107.5 -150s-104.833 -75.833 -173.5 -100.5s-147 -37 -235 -37c-50 0 -99.833 4.66699 -149.5 14
s-97.167 22.333 -142.5 39s-87.833 36.667 -127.5 60s-74.834 49.333 -105.501 78l89 142c7.33301 10.667 16.833 19.5 28.5 26.5s24.5 10.5 38.5 10.5c18.667 0 38.667 -6.66699 60 -20s46.333 -28 75 -44s62.667 -30.667 102 -44s86.333 -20 141 -20
c82.667 0 147 17.333 193 52s69 90.334 69 167.001c0 30.667 -6.5 58.167 -19.5 82.5s-31.167 44.833 -54.5 61.5s-51.666 29.334 -84.999 38.001s-70 12.667 -110 12h-208l-1 238h186c83.333 0 147 15.333 191 46s66 75.334 66 134.001c0 51.333 -20.5 92 -61.5 122
s-101.5 45 -181.5 45c-46 0 -86 -5 -120 -15s-63.5 -21.167 -88.5 -33.5s-46.667 -23.5 -65 -33.5s-34.833 -15 -49.5 -15c-15.333 0 -28 3.5 -38 10.5s-19.667 17.833 -29 32.5z" />
    <glyph glyph-name="afii10026" unicode="&#x418;" horiz-adv-x="1547" 
d="M1395 1451v-1451h-302v865c0 36 1 73.833 3 113.5s6 81.5 12 125.5c-14.667 -39.333 -30.334 -76 -47.001 -110s-32.667 -63.667 -48 -89l-503 -813c-6.66699 -11.333 -14.667 -22.333 -24 -33s-19.5 -20.5 -30.5 -29.5s-23 -16.167 -36 -21.5s-26.833 -8 -41.5 -8h-226
v1451h302v-865c0 -36 -1 -73.833 -3 -113.5s-6 -81.5 -12 -125.5c14.667 39.333 30.334 76 47.001 110s32.667 63.667 48 89l503 814c6.66699 10.667 14.667 21.5 24 32.5s19.5 20.833 30.5 29.5s23 15.667 36 21s26.833 8 41.5 8h226z" />
    <glyph glyph-name="afii10027" unicode="&#x419;" horiz-adv-x="1547" 
d="M1395 1451v-1451h-302v865c0 36 1 73.833 3 113.5s6 81.5 12 125.5c-14.667 -39.333 -30.334 -76 -47.001 -110s-32.667 -63.667 -48 -89l-503 -813c-6.66699 -11.333 -14.667 -22.333 -24 -33s-19.5 -20.5 -30.5 -29.5s-23 -16.167 -36 -21.5s-26.833 -8 -41.5 -8h-226
v1451h302v-865c0 -36 -1 -73.833 -3 -113.5s-6 -81.5 -12 -125.5c14.667 39.333 30.334 76 47.001 110s32.667 63.667 48 89l503 814c6.66699 10.667 14.667 21.5 24 32.5s19.5 20.833 30.5 29.5s23 15.667 36 21s26.833 8 41.5 8h226zM789 1668
c24 0 43.835 2.16699 59.502 6.5s28 12.166 37 23.499s15.333 26.5 19 45.5s5.5 43.5 5.5 73.5h163c19.333 0 33.5 -8 42.5 -24s13.5 -33 13.5 -51c0 -34.667 -8.16699 -65 -24.5 -91s-39.5 -47.833 -69.5 -65.5s-65.833 -30.834 -107.5 -39.501s-87.834 -13 -138.501 -13
s-96.834 4.33301 -138.501 13s-77.5 21.834 -107.5 39.501s-53.167 39.5 -69.5 65.5s-24.5 56.333 -24.5 91c0 18 4.5 35 13.5 51s23.167 24 42.5 24h163c0 -30 1.83301 -54.5 5.5 -73.5s10 -34.167 19 -45.5s21.333 -19.166 37 -23.499s35.5 -6.5 59.5 -6.5z" />
    <glyph glyph-name="afii10028" unicode="&#x41a;" horiz-adv-x="1413" 
d="M1414 0l-273.999 0.000976562c-27.333 0 -50.333 7.16699 -69 21.5s-36 35.5 -52 63.5l-277 472c-8 14 -16.5 25.667 -25.5 35s-18.667 16.833 -29 22.5s-22 9.5 -35 11.5s-27.5 3 -43.5 3h-157v-629h-300v1451h300v-599h131c26 0 48.667 4.66699 68 14
s37.333 26.666 54 51.999l293 454c14 23.333 31 42.333 51 57s44 22 72 22h257l-376 -577c-16.667 -26 -36.334 -47.5 -59.001 -64.5s-47.667 -30.5 -75 -40.5c42.667 -11.333 78.667 -29.833 108 -55.5s57 -61.5 83 -107.5z" />
    <glyph glyph-name="afii10029" unicode="&#x41b;" horiz-adv-x="1503" 
d="M1351 0h-302v1224h-362c-10 -180 -23.667 -335.667 -41 -467s-38.166 -242.833 -62.499 -334.5s-52 -166 -83 -223s-65 -101.333 -102 -133s-76.667 -53.167 -119 -64.5s-86.833 -17 -133.5 -17c-52.667 0 -90.667 4.66699 -114 14s-35 23 -35 41v185h80
c21.333 0 43.5 3.5 66.5 10.5s45.667 23.667 68 50s44 65.5 65 117.5s40 123.5 57 214.5s31.667 204.333 44 340s21.166 300.167 26.499 493.5h947v-1451z" />
    <glyph glyph-name="afii10030" unicode="&#x41c;" horiz-adv-x="1903" 
d="M1752 1451l-0.00195312 -1451h-265v891c0 18.667 0.5 38.667 1.5 60s2.83301 43 5.5 65l-415 -787c-22.667 -43.333 -57.667 -65 -105 -65h-42c-23.333 0 -44 5.5 -62 16.5s-32.333 27.167 -43 48.5l-417 790c2 -23.333 3.66699 -45.833 5 -67.5s2 -41.834 2 -60.501
v-891h-265v1451h228c12.667 0 24 -0.333008 34 -1s18.833 -2.5 26.5 -5.5s14.667 -7.66699 21 -14s12.5 -15.166 18.5 -26.499l406 -774c12.667 -23.333 24.5 -47.333 35.5 -72s21.5 -50 31.5 -76c10 26.667 20.5 52.667 31.5 78s22.833 49.666 35.5 72.999l403 771
c6 11.333 12.333 20.166 19 26.499s13.834 11 21.501 14s16.334 4.83301 26.001 5.5s21.167 1 34.5 1h228z" />
    <glyph glyph-name="afii10031" unicode="&#x41d;" horiz-adv-x="1547" 
d="M1395 1451v-1451h-302v625h-639v-625h-302v1451h302v-616h639v616h302z" />
    <glyph glyph-name="afii10032" unicode="&#x41e;" horiz-adv-x="1622" 
d="M1554 726c0 -106 -17.833 -204.335 -53.5 -295.002s-86 -169 -151 -235s-143.167 -117.833 -234.5 -155.5s-192.666 -56.5 -303.999 -56.5s-212.666 18.833 -303.999 56.5s-169.666 89.5 -234.999 155.5s-115.833 144.333 -151.5 235s-53.5 189 -53.5 295
s17.833 204.167 53.5 294.5s86.167 168.5 151.5 234.5s143.666 117.833 234.999 155.5s192.666 56.5 303.999 56.5s212.666 -18.833 303.999 -56.5s169.5 -89.667 234.5 -156s115.333 -144.666 151 -234.999s53.5 -188.166 53.5 -293.499zM1247 725.998
c0 76 -10 144.167 -30 204.5s-48.833 111.666 -86.5 153.999s-83.334 74.666 -137.001 96.999s-114.5 33.5 -182.5 33.5s-129 -11.167 -183 -33.5s-99.833 -54.666 -137.5 -96.999s-66.5 -93.666 -86.5 -153.999s-30 -128.5 -30 -204.5c0 -76.667 10 -145.167 30 -205.5
s48.833 -111.5 86.5 -153.5s83.5 -74.167 137.5 -96.5s115 -33.5 183 -33.5s128.833 11.167 182.5 33.5s99.334 54.5 137.001 96.5s66.5 93.167 86.5 153.5s30 128.833 30 205.5z" />
    <glyph glyph-name="afii10033" unicode="&#x41f;" horiz-adv-x="1499" 
d="M1347 0h-302v1224h-591v-1224h-302v1451h1195v-1451z" />
    <glyph glyph-name="afii10034" unicode="&#x420;" horiz-adv-x="1254" 
d="M642 729c94 0 162.833 22.667 206.5 68s65.5 107.333 65.5 186c0 36 -5.5 68.833 -16.5 98.5s-27.667 55 -50 76s-50.5 37.167 -84.5 48.5s-74.333 17 -121 17h-190v-494h190zM642 1451c99.333 0 185.166 -11.668 257.499 -35.001s131.833 -55.833 178.5 -97.5
s81.167 -91.167 103.5 -148.5s33.5 -119.666 33.5 -186.999c0 -71.333 -11.667 -136.666 -35 -195.999s-58.666 -110.333 -105.999 -153s-107 -75.834 -179 -99.501s-156.333 -35.5 -253 -35.5h-190v-499h-300v1451h490z" />
    <glyph glyph-name="afii10035" unicode="&#x421;" horiz-adv-x="1318" 
d="M1140 357c16.667 0 30.6729 -5.99609 42.0059 -17.9961l119 -127c-58.667 -74.667 -131.5 -131.334 -218.5 -170.001s-190.5 -58 -310.5 -58c-108.667 0 -206.334 18.5 -293.001 55.5s-160.334 88.5 -221.001 154.5s-107.334 144.333 -140.001 235s-49 189.667 -49 297
c0 72 7.83301 140.5 23.5 205.5s38.5 124.833 68.5 179.5s66.167 104 108.5 148s90.166 81.5 143.499 112.5s111.5 54.667 174.5 71s130.167 24.5 201.5 24.5c53.333 0 103.833 -4.66699 151.5 -14s92.167 -22.333 133.5 -39s79.5 -36.834 114.5 -60.501
s66.5 -49.5 94.5 -77.5l-101 -138c-6 -8.66699 -13.667 -16.334 -23 -23.001s-22 -10 -38 -10s-32.167 5.66699 -48.5 17s-36.333 24 -60 38s-53.334 26.667 -89.001 38s-80.834 17 -135.501 17c-60.667 0 -116.334 -11 -167.001 -33s-94.167 -53.833 -130.5 -95.5
s-64.5 -92.834 -84.5 -153.501s-30 -129.667 -30 -207c0 -78 10.833 -147.5 32.5 -208.5s51.334 -112.5 89.001 -154.5s81.667 -73.833 132 -95.5s104.166 -32.5 161.499 -32.5c34 0 64.833 1.66699 92.5 5s53.334 9 77.001 17s46 18.333 67 31s42.167 28.667 63.5 48
c7.33301 6 15 11 23 15s16.667 6 26 6z" />
    <glyph glyph-name="afii10036" unicode="&#x422;" horiz-adv-x="1208" 
d="M1179 1209h-424v-1209h-301v1209h-424v242h1149v-242z" />
    <glyph glyph-name="afii10037" unicode="&#x423;" horiz-adv-x="1305" 
d="M1332 1451l-584.999 -1245c-21.333 -44.667 -44.333 -81.334 -69 -110.001s-51.167 -51.167 -79.5 -67.5s-58.5 -27.666 -90.5 -33.999s-66.333 -9.5 -103 -9.5c-52.667 0 -90.667 4.66699 -114 14s-35 23 -35 41v185h81c13.333 0 27.5 1.16699 42.5 3.5
s30 7.33301 45 15s29.5 18.5 43.5 32.5s27 33 39 57l52 103l-582 1015h282c26 0 46.667 -6.16699 62 -18.5s28 -28.166 38 -47.499l252 -486c16.667 -30.667 31.5 -61.334 44.5 -92.001s24.5 -61.667 34.5 -93c18 62.667 42 124.334 72 185.001l222 486
c8 16 20.167 31 36.5 45s37.166 21 62.499 21h249z" />
    <glyph glyph-name="afii10038" unicode="&#x424;" horiz-adv-x="1627" 
d="M956 400c46.667 1.33301 89.5 11.332 128.5 29.999s72.5 44 100.5 76s49.667 69.5 65 112.5s23 89.167 23 138.5c0 48.667 -7.66699 94.334 -23 137.001s-37 80 -65 112s-61.5 57.5 -100.5 76.5s-81.833 29.167 -128.5 30.5v-713zM672 1113
c-47.333 -1.33301 -90.5 -11.499 -129.5 -30.499s-72.5 -44.5 -100.5 -76.5s-49.667 -69.333 -65 -112s-23 -88.334 -23 -137.001c0 -49.333 7.66699 -95.5 23 -138.5s37 -80.5 65 -112.5s61.5 -57.333 100.5 -76s82.167 -28.667 129.5 -30v713zM956 1340
c88.667 -3.33301 170.667 -20.666 246 -51.999s140.5 -73.166 195.5 -125.499s98 -113.333 129 -183s46.5 -143.834 46.5 -222.501c0 -79.333 -15.5 -153.833 -46.5 -223.5s-74 -130.667 -129 -183s-120.167 -94.333 -195.5 -126s-157.333 -49.167 -246 -52.5v-172h-284v172
c-88.667 3.33301 -170.834 20.833 -246.501 52.5s-141 73.667 -196 126s-98 113.333 -129 183s-46.5 144.167 -46.5 223.5c0 78.667 15.5 152.834 46.5 222.501s74 130.667 129 183s120.333 94.166 196 125.499s157.834 48.666 246.501 51.999v170h284v-170z" />
    <glyph glyph-name="afii10039" unicode="&#x425;" horiz-adv-x="1359" 
d="M1361 0l-299.999 0.000976562c-20 0 -36.167 5 -48.5 15s-22.166 21.667 -29.499 35l-314 534l-9.5 -21.5c-3 -7 -6.5 -13.5 -10.5 -19.5l-298 -493c-8.66699 -12.667 -18.834 -24.167 -30.501 -34.5s-26.5 -15.5 -44.5 -15.5h-280l475 747l-457 704h300
c20 0 34.667 -2.66699 44 -8s17.666 -14 24.999 -26l312 -513c3.33301 8 7 16.167 11 24.5s8.66699 16.833 14 25.5l280 458c8 13.333 16.833 23.166 26.5 29.499s21.5 9.5 35.5 9.5h287l-461 -691z" />
    <glyph glyph-name="afii10040" unicode="&#x426;" horiz-adv-x="1601" 
d="M1549 227v-485.001c0 -25.333 -8.66699 -45.666 -26 -60.999s-40 -23 -68 -23h-181v342h-1122v1451h302v-1224h591v1224h302v-1224h202z" />
    <glyph glyph-name="afii10041" unicode="&#x427;" horiz-adv-x="1364" 
d="M1212 1451l0.00390625 -1451h-302v565c-78.667 -18.667 -153.834 -32.334 -225.501 -41.001s-138.5 -11 -200.5 -7s-118.333 15.333 -169 34s-93.834 46.167 -129.501 82.5s-63.334 82.166 -83.001 137.499s-29.5 122 -29.5 200v480h302v-481
c0 -52 8.16699 -96 24.5 -132s44.666 -62.667 84.999 -80s95 -25 164 -23s156.167 15.333 261.5 40v676h302z" />
    <glyph glyph-name="afii10042" unicode="&#x428;" horiz-adv-x="2177" 
d="M2025 1451v-1451h-1873v1451h302v-1224h483v1224h302v-1224h484v1224h302z" />
    <glyph glyph-name="afii10043" unicode="&#x429;" horiz-adv-x="2279" 
d="M2227 227v-485.001c0 -25.333 -8.66699 -45.666 -26 -60.999s-40 -23 -68 -23h-181v342h-1800v1451h302v-1224h483v1224h302v-1224h484v1224h302v-1224h202z" />
    <glyph glyph-name="afii10044" unicode="&#x42a;" horiz-adv-x="1529" 
d="M954 230c47.333 0 86.665 5.33203 117.998 15.999s56.333 25.167 75 43.5s31.834 39.5 39.501 63.5s11.5 49.333 11.5 76c0 30 -3.83301 57.333 -11.5 82s-20.667 45.834 -39 63.501s-43.166 31.167 -74.499 40.5s-71 14 -119 14h-218v-399h218zM953.999 859.999
c96.667 0 179.333 -10.668 248 -32.001s124.5 -50.333 167.5 -87s74.5 -79.167 94.5 -127.5s30 -99.833 30 -154.5c0 -69.333 -12.167 -132.166 -36.5 -188.499s-59.5 -104.5 -105.5 -144.5s-102.5 -71 -169.5 -93s-143.167 -33 -228.5 -33h-518v1216h-407v235h707v-591h218
z" />
    <glyph glyph-name="afii10045" unicode="&#x42b;" horiz-adv-x="1854" 
d="M670 230c47.333 0 86.665 5.33203 117.998 15.999s56.333 25.167 75 43.5s31.834 39.5 39.501 63.5s11.5 49.333 11.5 76c0 30 -3.83301 57.333 -11.5 82s-20.667 45.834 -39 63.501s-43.166 31.167 -74.499 40.5s-71 14 -119 14h-218v-399h218zM669.999 859.999
c96.667 0 179.333 -10.668 248 -32.001s124.5 -50.333 167.5 -87s74.5 -79.167 94.5 -127.5s30 -99.833 30 -154.5c0 -69.333 -12.167 -132.166 -36.5 -188.499s-59.5 -104.5 -105.5 -144.5s-102.5 -71 -169.5 -93s-143.167 -33 -228.5 -33h-518v1451h300v-591h218z
M1702 -0.00195312h-302v1451h302v-1451z" />
    <glyph glyph-name="afii10046" unicode="&#x42c;" horiz-adv-x="1245" 
d="M670 230c47.333 0 86.665 5.33203 117.998 15.999s56.333 25.167 75 43.5s31.834 39.5 39.501 63.5s11.5 49.333 11.5 76c0 30 -3.83301 57.333 -11.5 82s-20.667 45.834 -39 63.501s-43.166 31.167 -74.499 40.5s-71 14 -119 14h-218v-399h218zM669.999 859.999
c96.667 0 179.333 -10.668 248 -32.001s124.5 -50.333 167.5 -87s74.5 -79.167 94.5 -127.5s30 -99.833 30 -154.5c0 -69.333 -12.167 -132.166 -36.5 -188.499s-59.5 -104.5 -105.5 -144.5s-102.5 -71 -169.5 -93s-143.167 -33 -228.5 -33h-518v1451h300v-591h218z" />
    <glyph glyph-name="afii10047" unicode="&#x42d;" horiz-adv-x="1329" 
d="M47 1276c56 56.667 125.506 102.663 208.506 137.996s178.167 53 285.5 53c70.667 0 137.667 -8.16699 201 -24.5s121.666 -40 174.999 -71s101.166 -68.5 143.499 -112.5s78.5 -93.333 108.5 -148s52.833 -114.5 68.5 -179.5s23.5 -133.5 23.5 -205.5
c0 -107.333 -16.333 -206.333 -49 -297s-79.334 -169 -140.001 -235s-134.334 -117.5 -221.001 -154.5s-184.334 -55.5 -293.001 -55.5c-120 0 -223.5 19.333 -310.5 58s-159.833 95.334 -218.5 170.001l119 127c6.66699 6.66699 13.5 11.334 20.5 14.001s14.167 4 21.5 4
c9.33301 0 18.166 -2 26.499 -6s16.166 -9 23.499 -15c20.667 -19.333 41.667 -35.333 63 -48s43.666 -23 66.999 -31s48.833 -13.667 76.5 -17s58.5 -5 92.5 -5c50.667 0 98.834 8.66699 144.501 26s86.5 42.5 122.5 75.5s66.333 73.833 91 122.5
s41.334 104.334 50.001 167.001h-647v219h645c-9.33301 58.667 -25.833 111 -49.5 157s-52.834 84.833 -87.501 116.5s-74.5 55.667 -119.5 72s-93.5 24.5 -145.5 24.5c-55.333 0 -100.666 -5.66699 -135.999 -17s-65 -24 -89 -38s-44 -26.667 -60 -38s-32.333 -17 -49 -17
c-16 0 -28.5 3.33301 -37.5 10s-16.833 14.334 -23.5 23.001z" />
    <glyph glyph-name="afii10048" unicode="&#x42e;" horiz-adv-x="2152" 
d="M1385 228c62 0 117.167 11.667 165.5 35s89.166 56.5 122.499 99.5s58.666 95.167 75.999 156.5s26 130.333 26 207c0 76 -8.66699 144.667 -26 206s-42.666 113.5 -75.999 156.5s-74.166 76.167 -122.499 99.5s-103.5 35 -165.5 35s-117 -11.667 -165 -35
s-88.667 -56.5 -122 -99.5s-58.666 -95.167 -75.999 -156.5s-26 -130 -26 -206c0 -76.667 8.66699 -145.667 26 -207s42.666 -113.5 75.999 -156.5s74 -76.167 122 -99.5s103 -35 165 -35zM694 836c10.667 92 34.335 176.499 71.002 253.499s84.667 143.5 144 199.5
s129.166 99.667 209.499 131s169.166 47 266.499 47c106.667 0 203 -18.833 289 -56.5s159.333 -89.5 220 -155.5s107.167 -144.167 139.5 -234.5s48.5 -188.5 48.5 -294.5s-16.167 -204.167 -48.5 -294.5s-78.833 -168.666 -139.5 -234.999s-134 -118.166 -220 -155.499
s-182.333 -56 -289 -56c-97.333 0 -185.833 15.5 -265.5 46.5s-149 74 -208 129s-107 120.667 -144 197s-61.167 160.166 -72.5 251.499h-241v-609h-302v1451h302v-615h240z" />
    <glyph glyph-name="afii10049" unicode="&#x42f;" horiz-adv-x="1370" 
d="M918 822v399.002h-226c-48 0 -87.667 -5.33301 -119 -16s-56.166 -25 -74.499 -43s-31.333 -39 -39 -63s-11.5 -49.333 -11.5 -76c0 -30 3.66699 -57.333 11 -82s20.333 -45.834 39 -63.501s43.667 -31.334 75 -41.001s70.666 -14.5 117.999 -14.5h227zM1218 0.00195312
l-299.998 -0.000976562v592h-129c-31.333 0 -60.333 -6.83301 -87 -20.5s-52 -40.5 -76 -80.5l-232 -389c-18.667 -31.333 -43.334 -56.166 -74.001 -74.499s-68 -27.5 -112 -27.5h-227l317 503c21.333 34 44.666 62.5 69.999 85.5s55 41.833 89 56.5
c-52 14.667 -97.333 34.334 -136 59.001s-70.5 53.167 -95.5 85.5s-43.667 68 -56 107s-18.5 80.5 -18.5 124.5c0 62 12.167 119.333 36.5 172s59.5 98.167 105.5 136.5s102.5 68.166 169.5 89.499s143.5 32 229.5 32h526v-1451z" />
    <glyph glyph-name="afii10065" unicode="&#x430;" horiz-adv-x="1024" 
d="M653 431c-67.333 -3.33301 -123.333 -9.16797 -168 -17.501s-80.167 -19.166 -106.5 -32.499s-45 -28.5 -56 -45.5s-16.5 -35.5 -16.5 -55.5c0 -40 11.167 -68.333 33.5 -85s53.5 -25 93.5 -25c46 0 85.833 8.16699 119.5 24.5s67.167 41.833 100.5 76.5v160zM91 887.998
c60.667 54.667 127.669 95.501 201.002 122.501s152.666 40.5 237.999 40.5c61.333 0 116.166 -10 164.499 -30s89.333 -47.833 123 -83.5s59.5 -78.167 77.5 -127.5s27 -103.333 27 -162v-648h-126c-26 0 -45.833 3.66699 -59.5 11s-24.834 22.666 -33.501 45.999l-22 66
c-26 -22.667 -51.167 -42.667 -75.5 -60s-49.5 -31.833 -75.5 -43.5s-53.833 -20.5 -83.5 -26.5s-62.834 -9 -99.501 -9c-45.333 0 -86.666 6 -123.999 18s-69.5 29.833 -96.5 53.5s-47.833 53.167 -62.5 88.5s-22 76 -22 122c0 38 9.66699 76 29 114s52.5 72.5 99.5 103.5
s109.667 56.667 188 77s176.5 31.833 294.5 34.5v53c0 64.667 -13.667 112.167 -41 142.5s-66.666 45.5 -117.999 45.5c-38 0 -69.667 -4.5 -95 -13.5s-47.5 -18.667 -66.5 -29l-53.5 -29c-16.667 -9 -36 -13.5 -58 -13.5c-19.333 0 -35.5 4.83301 -48.5 14.5
s-23.833 21.167 -32.5 34.5z" />
    <glyph glyph-name="afii10066" unicode="&#x431;" horiz-adv-x="1186" 
d="M607 182c78.667 0 137.168 25.833 175.501 77.5s57.5 128.167 57.5 229.5s-18.833 177.833 -56.5 229.5s-95.834 77.5 -174.501 77.5c-158 0 -237 -99.667 -237 -299c0 -104 19 -182.5 57 -235.5s97.333 -79.5 178 -79.5zM680.001 1198
c-60.667 -3.33301 -112.502 -14.501 -155.502 -33.501s-78.5 -44.667 -106.5 -77s-49 -70.666 -63 -114.999s-22.333 -93.5 -25 -147.5c16.667 24.667 36.667 47.167 60 67.5s49.833 38 79.5 53s62 26.667 97 35s72.5 12.5 112.5 12.5c68 0 129.5 -12 184.5 -36
s101.833 -58 140.5 -102s68.334 -97 89.001 -159s31 -130.667 31 -206c0 -78 -12.5 -148.167 -37.5 -210.5s-60.167 -115.333 -105.5 -159s-99.666 -77.167 -162.999 -100.5s-133.666 -35 -210.999 -35c-76.667 0 -146.834 12.333 -210.501 37s-118.5 64.167 -164.5 118.5
s-81.833 125 -107.5 212s-38.5 192.833 -38.5 317.5c0 103.333 9.5 200 28.5 290s50.833 169.167 95.5 237.5s103.5 123.5 176.5 165.5s163.167 67 270.5 75l365 26l15 -140c3.33301 -30 -1 -55.333 -13 -76s-33.333 -31.667 -64 -33z" />
    <glyph glyph-name="afii10067" unicode="&#x432;" horiz-adv-x="1010" 
d="M545 185c46 0 82.5 11.667 109.5 35s40.5 55 40.5 95c0 16.667 -2 32.5 -6 47.5s-11.5 28 -22.5 39s-26.167 19.667 -45.5 26s-44.333 9.5 -75 9.5h-170v-252h169zM376 855l0.000976562 -251.001h148c44 0 79.667 12.5 107 37.5s41 57.5 41 97.5
c0 14.667 -2.33301 28.834 -7 42.501s-12.834 26 -24.501 37s-27 19.833 -46 26.5s-42.5 10 -70.5 10h-148zM532.001 1031c66 0 122.997 -6.33398 170.997 -19.001s87.667 -30.167 119 -52.5s54.5 -48.833 69.5 -79.5s22.5 -64 22.5 -100c0 -22 -2.83301 -45 -8.5 -69
s-15.667 -46.667 -30 -68s-33.833 -41 -58.5 -59s-56 -32 -94 -42c32.667 -7.33301 62.834 -17.666 90.501 -30.999s51.5 -29.666 71.5 -48.999s35.667 -42.166 47 -68.499s17 -55.833 17 -88.5c0 -53.333 -11.167 -99.333 -33.5 -138s-52.166 -70.334 -89.499 -95.001
s-80.166 -42.834 -128.499 -54.501s-98.5 -17.5 -150.5 -17.5h-433v1031h418z" />
    <glyph glyph-name="afii10068" unicode="&#x433;" horiz-adv-x="847" 
d="M825 830h-435v-830h-276v1031h711v-201z" />
    <glyph glyph-name="afii10069" unicode="&#x434;" horiz-adv-x="1280" 
d="M793 193v631h-225c-6 -80 -13.667 -152.667 -23 -218s-20.333 -123.833 -33 -175.5s-26.5 -97 -41.5 -136s-30.833 -72.833 -47.5 -101.5h370zM1250 201v-463c0 -24.667 -7.33301 -44.167 -22 -58.5s-33.334 -21.5 -56.001 -21.5h-173v342h-733v-266
c0 -19.333 -6 -36.833 -18 -52.5s-31.333 -23.5 -58 -23.5h-174v535h27c22.667 0 45 2.83301 67 8.5s43 18 63 37s38.833 47 56.5 84s33.834 86.5 48.501 148.5s27.5 138.667 38.5 230s19.833 201.333 26.5 330h717v-830h190z" />
    <glyph glyph-name="afii10070" unicode="&#x435;" horiz-adv-x="1072" 
d="M768 637c0 28.667 -3.83398 55.999 -11.501 81.999s-19.834 49 -36.501 69s-37.667 35.833 -63 47.5s-55.666 17.5 -90.999 17.5c-66 0 -117.667 -18.667 -155 -56s-61.666 -90.666 -72.999 -159.999h430zM333.999 472.999
c8.66699 -96.667 36.166 -167.334 82.499 -212.001s106.833 -67 181.5 -67c38 0 70.833 4.5 98.5 13.5s52 19 73 30l57 30c17 9 33.833 13.5 50.5 13.5c21.333 0 38 -8 50 -24l80 -100c-29.333 -34 -61.666 -62.167 -96.999 -84.5s-72 -40 -110 -53s-76.333 -22 -115 -27
s-76 -7.5 -112 -7.5c-72 0 -139.167 11.833 -201.5 35.5s-116.666 58.667 -162.999 105s-82.833 103.833 -109.5 172.5s-40 148.334 -40 239.001c0 70 11.5 136 34.5 198s56.167 116 99.5 162s96 82.5 158 109.5s132 40.5 210 40.5c66 0 126.833 -10.5 182.5 -31.5
s103.667 -51.5 144 -91.5s71.666 -89.167 93.999 -147.5s33.5 -124.833 33.5 -199.5c0 -20.667 -1 -37.667 -3 -51s-5.33301 -24 -10 -32s-11 -13.5 -19 -16.5s-18.333 -4.5 -31 -4.5h-618z" />
    <glyph glyph-name="afii10072" unicode="&#x436;" horiz-adv-x="1659" 
d="M1647 0h-189.999c-48.667 -0 -85.667 7.33301 -111 22s-45.333 38.334 -60 71.001l-133 273c-11.333 24 -27.166 41.833 -47.499 53.5s-43.5 17.5 -69.5 17.5h-73v-437h-267v437h-73c-26 0 -49.167 -5.83301 -69.5 -17.5s-36.166 -29.5 -47.499 -53.5l-133 -273
c-14.667 -32.667 -34.667 -56.334 -60 -71.001s-62.333 -22 -111 -22h-190l229 425c16.667 30.667 35.667 56 57 76s49 35.333 83 46c-24.667 9.33301 -45.667 22.333 -63 39s-34.333 38.667 -51 66l-229 379h217c25.333 0 48.5 -6.5 69.5 -19.5s37.5 -30.167 49.5 -51.5
l157 -285c11.333 -21.333 24.833 -36.833 40.5 -46.5s37.5 -14.5 65.5 -14.5h59v417h267v-417h54c28 0 50.667 4.83301 68 14.5s31.666 25.167 42.999 46.5l157 285c11.333 21.333 27.666 38.5 48.999 51.5s44.666 19.5 69.999 19.5h217l-230 -379
c-16 -27.333 -32.667 -49.333 -50 -66s-38.333 -29.667 -63 -39c34 -10.667 61.667 -26 83 -46s40 -45.333 56 -76z" />
    <glyph glyph-name="afii10073" unicode="&#x437;" horiz-adv-x="902" 
d="M56 917c40 38.667 89.0049 70.001 147.005 94.001s128 36 210 36c64 0 121.167 -7.66699 171.5 -23s92.833 -35.833 127.5 -61.5s61 -55.334 79 -89.001s27 -68.834 27 -105.501c0 -19.333 -2.83301 -39.333 -8.5 -60s-14.834 -40.834 -27.501 -60.501
s-29.334 -38.167 -50.001 -55.5s-46.334 -32 -77.001 -44c54 -21.333 97.833 -52.333 131.5 -93s50.5 -91.667 50.5 -153c0 -50.667 -11.833 -95.667 -35.5 -135s-54.834 -72.5 -93.501 -99.5s-82.834 -47.5 -132.501 -61.5s-100.5 -21 -152.5 -21
c-28.667 0 -59.834 2.5 -93.501 7.5s-67.834 14 -102.501 27s-69.167 30.667 -103.5 53s-66.166 50.5 -95.499 84.5l80 100c12 16 28.667 24 50 24c16.667 0 32 -4.66699 46 -14l47.5 -31c17.667 -11.333 38.5 -21.666 62.5 -30.999s54 -14 90 -14
c57.333 0 100.166 12.667 128.499 38s42.5 57.333 42.5 96c0 38 -15 67.667 -45 89s-79.333 32 -148 32h-116v175h116c60.667 0 106.834 10.333 138.501 31s47.5 48.334 47.5 83.001c0 32 -14 57.667 -42 77s-68.333 29 -121 29c-34 0 -62.667 -3.5 -86 -10.5
s-43.5 -14.5 -60.5 -22.5s-31.667 -15.5 -44 -22.5s-24.166 -10.5 -35.499 -10.5c-12.667 0 -23.5 2.33301 -32.5 7s-18.5 15 -28.5 31z" />
    <glyph glyph-name="afii10074" unicode="&#x438;" horiz-adv-x="1173" 
d="M1058 1031l-0.000976562 -1031h-276v567c0 15.333 0.833008 32.833 2.5 52.5s4.16699 39.167 7.5 58.5c-15.333 -33.333 -31 -61.666 -47 -84.999c-1.33301 -1.33301 -7.33301 -10 -18 -26l-42 -61.5l-58.5 -84.5l-66.5 -96l-179 -259
c-5.33301 -8 -11.5 -15.833 -18.5 -23.5s-14.667 -14.834 -23 -21.501s-17.166 -12 -26.499 -16s-19.333 -6 -30 -6h-169v1031h276v-567c0 -16 -1 -34 -3 -54s-4.66699 -39.667 -8 -59c8 17.333 16 33.333 24 48s16 27.667 24 39c0.666992 1.33301 6.5 10 17.5 26l42.5 61.5
l58.5 84.5l66.5 96l180 259c10 16 23.5 31.167 40.5 45.5s36.167 21.5 57.5 21.5h168z" />
    <glyph glyph-name="afii10075" unicode="&#x439;" horiz-adv-x="1173" 
d="M1058 1031l-0.000976562 -1031h-276v567c0 15.333 0.833008 32.833 2.5 52.5s4.16699 39.167 7.5 58.5c-15.333 -33.333 -31 -61.666 -47 -84.999c-1.33301 -1.33301 -7.33301 -10 -18 -26l-42 -61.5l-58.5 -84.5l-66.5 -96l-179 -259
c-5.33301 -8 -11.5 -15.833 -18.5 -23.5s-14.667 -14.834 -23 -21.501s-17.166 -12 -26.499 -16s-19.333 -6 -30 -6h-169v1031h276v-567c0 -16 -1 -34 -3 -54s-4.66699 -39.667 -8 -59c8 17.333 16 33.333 24 48s16 27.667 24 39c0.666992 1.33301 6.5 10 17.5 26l42.5 61.5
l58.5 84.5l66.5 96l180 259c10 16 23.5 31.167 40.5 45.5s36.167 21.5 57.5 21.5h168zM600.999 1296c24 0 43.835 2.5 59.502 7.5s28 13.5 37 25.5s15.333 27.833 19 47.5s5.5 44.5 5.5 74.5h163c19.333 0 33.5 -8 42.5 -24s13.5 -33 13.5 -51
c0 -34.667 -8.16699 -65.834 -24.5 -93.501s-39.5 -51.167 -69.5 -70.5s-65.833 -34.166 -107.5 -44.499s-87.834 -15.5 -138.501 -15.5s-96.834 5.16699 -138.501 15.5s-77.5 25.166 -107.5 44.499s-53.167 42.833 -69.5 70.5s-24.5 58.834 -24.5 93.501
c0 18 4.5 35 13.5 51s23.167 24 42.5 24h163c0 -30 1.83301 -54.833 5.5 -74.5s10 -35.5 19 -47.5s21.333 -20.5 37 -25.5s35.5 -7.5 59.5 -7.5z" />
    <glyph glyph-name="afii10076" unicode="&#x43a;" horiz-adv-x="1108" 
d="M726 960c13.333 20.667 31.499 37.667 54.499 51s47.167 20 72.5 20h218l-230 -379c-16.667 -28 -33.667 -50.167 -51 -66.5s-38.333 -29.166 -63 -38.499c34 -10.667 61.667 -26 83 -46s40.333 -45.333 57 -76l229 -425h-190c-24 0 -45.167 2 -63.5 6
s-34.666 10 -48.999 18s-26.833 17.667 -37.5 29s-20.667 24.666 -30 39.999l-132 273c-11.333 24 -27.333 41.833 -48 53.5s-44 17.5 -70 17.5h-86v-437h-276v1031h276v-417h72c28 0 49.833 4.83301 65.5 14.5s29.167 25.167 40.5 46.5z" />
    <glyph glyph-name="afii10077" unicode="&#x43b;" horiz-adv-x="1207" 
d="M1093 0l-275.994 -0.00195312v824h-223c-8.66699 -125.333 -21.334 -233 -38.001 -323s-36.667 -166.167 -60 -228.5s-49.333 -112.333 -78 -150s-59.334 -66.667 -92.001 -87s-66.334 -33.833 -101.001 -40.5s-69.667 -10 -105 -10c-41.333 0 -71 3.33301 -89 10
s-27 16.334 -27 29.001v168h62c21.333 0 42.666 3.16699 63.999 9.5s42.166 19.5 62.499 39.5s39.5 48.667 57.5 86s34.667 87 50 149s28.666 138.333 39.999 229s20.333 199.334 27 326.001h726v-1031z" />
    <glyph glyph-name="afii10078" unicode="&#x43c;" horiz-adv-x="1442" 
d="M1328 1032l0.000976562 -1032h-249v536c0 24 1.33301 51.333 4 82s6.33398 59.667 11.001 87l-280 -527c-16.667 -31.333 -42.334 -47 -77.001 -47h-30c-34 0 -60 15.667 -78 47l-283 529c5.33301 -27.333 9.5 -56.5 12.5 -87.5s4.5 -58.833 4.5 -83.5v-536h-249v1032
h230c18.667 0 37.334 -4 56.001 -12s34.667 -24 48 -48l212 -397c11.333 -21.333 22.166 -44.166 32.499 -68.499s20.166 -49.166 29.499 -74.499c8.66699 25.333 18.167 50.166 28.5 74.499s21.166 47.166 32.499 68.499l211 397c13.333 25.333 29.333 41.666 48 48.999
s37.334 11 56.001 11h230z" />
    <glyph glyph-name="afii10079" unicode="&#x43d;" horiz-adv-x="1144" 
d="M1029 1031v-1031h-275v447h-364v-447h-276v1031h276v-383h364v383h275z" />
    <glyph glyph-name="afii10080" unicode="&#x43e;" horiz-adv-x="1155" 
d="M579 1047c77.333 0 147.666 -12.333 210.999 -37s117.666 -59.834 162.999 -105.501s80.333 -101.167 105 -166.5s37 -139 37 -221s-12.333 -155.833 -37 -221.5s-59.667 -121.5 -105 -167.5s-99.666 -81.333 -162.999 -106s-133.666 -37 -210.999 -37
c-78 0 -148.833 12.333 -212.5 37s-118.167 60 -163.5 106s-80.5 101.833 -105.5 167.5s-37.5 139.5 -37.5 221.5s12.5 155.667 37.5 221s60.167 120.833 105.5 166.5s99.833 80.834 163.5 105.501s134.5 37 212.5 37zM579 192c78.667 0 137 27.167 175 81.5
s57 135.166 57 242.499c0 106.667 -19 187.167 -57 241.5s-96.333 81.5 -175 81.5c-80.667 0 -140 -27.167 -178 -81.5s-57 -134.833 -57 -241.5c0 -107.333 19 -188.166 57 -242.499s97.333 -81.5 178 -81.5z" />
    <glyph glyph-name="afii10081" unicode="&#x43f;" horiz-adv-x="1144" 
d="M1029 0h-275v830h-364v-830h-276v1031h915v-1031z" />
    <glyph glyph-name="afii10082" unicode="&#x440;" horiz-adv-x="1142" 
d="M390 272c26 -30 54.166 -51 84.499 -63s62.833 -18 97.5 -18c33.333 0 63.666 6.33301 90.999 19s50.833 32.5 70.5 59.5s34.834 61.5 45.501 103.5s16 92 16 150c0 57.333 -4.5 106 -13.5 146s-21.667 72.333 -38 97s-36.166 42.5 -59.499 53.5s-49.333 16.5 -78 16.5
c-48.667 0 -89.5 -9.5 -122.5 -28.5s-64.167 -46.833 -93.5 -83.5v-452zM373.999 896c20.667 22.667 42.668 43.498 66.001 62.498s48.333 35.333 75 49s55.334 24.334 86.001 32.001s64 11.5 100 11.5c55.333 0 106.166 -11.833 152.499 -35.5s86.166 -58 119.499 -103
s59.333 -100.167 78 -165.5s28 -140 28 -224c0 -77.333 -10.5 -148.833 -31.5 -214.5s-50.833 -122.5 -89.5 -170.5s-85.167 -85.5 -139.5 -112.5s-114.833 -40.5 -181.5 -40.5c-56 0 -103.5 8.33301 -142.5 25s-73.833 39.334 -104.5 68.001v-411h-276v1364h170
c34.667 0 57.667 -16 69 -48z" />
    <glyph glyph-name="afii10083" unicode="&#x441;" horiz-adv-x="968" 
d="M862 801c-8 -10.667 -15.998 -18.833 -23.998 -24.5s-19.333 -8.5 -34 -8.5c-13.333 0 -26.166 3.83301 -38.499 11.5s-26.5 16 -42.5 25s-35 17.333 -57 25s-49.333 11.5 -82 11.5c-41.333 0 -77.166 -7.5 -107.499 -22.5s-55.5 -36.5 -75.5 -64.5
s-34.833 -62 -44.5 -102s-14.5 -85 -14.5 -135c0 -105.333 21.167 -186 63.5 -242s100.166 -84 173.499 -84c25.333 0 47.166 2.16699 65.499 6.5s34.333 9.83301 48 16.5s25.5 14 35.5 22l28.5 22c9 6.66699 18 12.167 27 16.5s19.167 6.5 30.5 6.5c21.333 0 38 -8 50 -24
l79 -100c-29.333 -34 -60.666 -62.167 -93.999 -84.5s-67.833 -40 -103.5 -53s-71.834 -22 -108.501 -27s-73 -7.5 -109 -7.5c-63.333 0 -123.333 11.833 -180 35.5s-106.334 58.167 -149.001 103.5s-76.5 101 -101.5 167s-37.5 141.333 -37.5 226
c0 75.333 11 145.333 33 210s54.333 120.667 97 168s95.5 84.5 158.5 111.5s135.833 40.5 218.5 40.5c78.667 0 147.667 -12.667 207 -38s112.666 -62 159.999 -110z" />
    <glyph glyph-name="afii10084" unicode="&#x442;" horiz-adv-x="1032" 
d="M1010 830h-356v-830h-276v830h-356v201h988v-201z" />
    <glyph glyph-name="afii10085" unicode="&#x443;" horiz-adv-x="1064" 
d="M1070 1031l-556 -1308c-8.66699 -18.667 -19.167 -32.667 -31.5 -42s-31.833 -14 -58.5 -14h-205l195 416l-414 948h242c22 0 39 -5 51 -15s20.667 -21.667 26 -35l196 -493c7.33301 -19.333 13.833 -38.833 19.5 -58.5l16.5 -58.5c12 39.333 25.667 78.666 41 117.999
l182 492c5.33301 14.667 15 26.667 29 36s29.333 14 46 14h221z" />
    <glyph glyph-name="afii10086" unicode="&#x444;" horiz-adv-x="1484" 
d="M862 186c44.667 4 85 14.332 121 30.999s66.5 38.834 91.5 66.501s44.167 61 57.5 100s20 83.167 20 132.5c0 48.667 -6.66699 92.5 -20 131.5s-32.5 72.5 -57.5 100.5s-55.5 50.333 -91.5 67s-76.333 27 -121 31v-660zM622 845.999c-44.667 -4 -85 -14.333 -121 -31
s-66.5 -39 -91.5 -67s-44.167 -61.5 -57.5 -100.5s-20 -82.833 -20 -131.5c0 -49.333 6.66699 -93.5 20 -132.5s32.5 -72.5 57.5 -100.5s55.5 -50.167 91.5 -66.5s76.333 -26.5 121 -30.5v660zM871 1045c82 -5.33301 157 -21.1709 225 -47.5039
s126.5 -62.166 175.5 -107.499s87.167 -99.5 114.5 -162.5s41 -133.167 41 -210.5c0 -78 -13.667 -148.5 -41 -211.5s-65.5 -117.167 -114.5 -162.5s-107.5 -81.5 -175.5 -108.5s-143 -42.833 -225 -47.5v-329h-258v329c-82 4.66699 -157 20.334 -225 47.001
s-126.5 62.834 -175.5 108.501s-87.167 100 -114.5 163s-41 133.5 -41 211.5c0 77.333 13.667 147.5 41 210.5s65.5 117.167 114.5 162.5s107.5 81.333 175.5 108s143 42.334 225 47.001v406h258v-406z" />
    <glyph glyph-name="afii10087" unicode="&#x445;" horiz-adv-x="1064" 
d="M1065 0h-264.998c-20 0 -36.167 5 -48.5 15s-22.166 21.667 -29.499 35l-203 339c-6 -22.667 -14.667 -42.667 -26 -60l-174 -279c-8 -12.667 -17.833 -24.167 -29.5 -34.5s-26.5 -15.5 -44.5 -15.5h-246l350 532l-336 499h265c20 0 34.667 -2.66699 44 -8
s17.666 -14 24.999 -26l202 -327c3.33301 11.333 7.66602 22.833 12.999 34.5s11.666 23.167 18.999 34.5l155 253c16 26 36.667 39 62 39h253l-336 -487z" />
    <glyph glyph-name="afii10088" unicode="&#x446;" horiz-adv-x="1250" 
d="M1219 201l0.000976562 -463c0 -24.667 -7.33301 -44.167 -22 -58.5s-33.334 -21.5 -56.001 -21.5h-173v342h-854v1031h276v-830h364v830h275v-830h190z" />
    <glyph glyph-name="afii10089" unicode="&#x447;" horiz-adv-x="1065" 
d="M950 1031v-1031h-276v394c-88.667 -21.333 -170.334 -32.833 -245.001 -34.5s-139.167 8.5 -193.5 30.5s-96.666 57.333 -126.999 106s-45.5 112.667 -45.5 192v343h276v-302c0 -39.333 5.66699 -71.333 17 -96s30.166 -42.834 56.499 -54.501s60.833 -17 103.5 -16
s95.334 7.5 158.001 19.5v449h276z" />
    <glyph glyph-name="afii10090" unicode="&#x448;" horiz-adv-x="1671" 
d="M1556 1031v-1031h-1442v1031h276v-830h308v830h275v-830h308v830h275z" />
    <glyph glyph-name="afii10091" unicode="&#x449;" horiz-adv-x="1777" 
d="M1746 201l0.000976562 -463c0 -24.667 -7.33301 -44.167 -22 -58.5s-33.334 -21.5 -56.001 -21.5h-172v342h-1382v1031h276v-830h308v830h275v-830h308v830h275v-1031h1v201h189z" />
    <glyph glyph-name="afii10092" unicode="&#x44a;" horiz-adv-x="1195" 
d="M765 193c49.333 0 86.5 13 111.5 39s37.5 59.333 37.5 100c0 17.333 -2.83301 34 -8.5 50s-14.667 30 -27 42s-27.833 21.667 -46.5 29s-41 11 -67 11h-169v-271h169zM764 657c72 0 133.167 -8.83301 183.5 -26.5s91 -41.334 122 -71.001s53.5 -64 67.5 -103
s21 -80.167 21 -123.5c0 -49.333 -8.83301 -94.333 -26.5 -135s-43.167 -75.667 -76.5 -105s-74.333 -52.166 -123 -68.499s-104 -24.5 -166 -24.5h-432v827h-310v204h572v-374h168z" />
    <glyph glyph-name="afii10093" unicode="&#x44b;" horiz-adv-x="1500" 
d="M545 193c49.333 0 86.5 13 111.5 39s37.5 59.333 37.5 100c0 17.333 -2.83301 34 -8.5 50s-14.667 30 -27 42s-27.833 21.667 -46.5 29s-41 11 -67 11h-169v-271h169zM544 657c72 0 133.17 -8.83301 183.503 -26.5s91.166 -41.334 122.499 -71.001s54 -64 68 -103
s21 -80.167 21 -123.5c0 -49.333 -8.83301 -94.333 -26.5 -135s-43.334 -75.667 -77.001 -105s-74.834 -52.166 -123.501 -68.499s-104 -24.5 -166 -24.5h-432v1031h262v-374h168zM1385 1031v-1031h-275v1031h275z" />
    <glyph glyph-name="afii10094" unicode="&#x44c;" horiz-adv-x="975" 
d="M545 193c49.333 0 86.5 13 111.5 39s37.5 59.333 37.5 100c0 17.333 -2.83301 34 -8.5 50s-14.667 30 -27 42s-27.833 21.667 -46.5 29s-41 11 -67 11h-169v-271h169zM544 657c72 0 133.17 -8.83301 183.503 -26.5s91.166 -41.334 122.499 -71.001s54 -64 68 -103
s21 -80.167 21 -123.5c0 -49.333 -8.83301 -94.333 -26.5 -135s-43.334 -75.667 -77.001 -105s-74.834 -52.166 -123.501 -68.499s-104 -24.5 -166 -24.5h-432v1031h262v-374h168z" />
    <glyph glyph-name="afii10095" unicode="&#x44d;" horiz-adv-x="978" 
d="M44 899c47.333 48 100.667 84.666 160 109.999s128.333 38 207 38c82.667 0 155.5 -13.5 218.5 -40.5s116 -64.167 159 -111.5s75.5 -103.333 97.5 -168s33 -134.667 33 -210c0 -84.667 -12.5 -160 -37.5 -226s-58.833 -121.667 -101.5 -167s-92.5 -79.833 -149.5 -103.5
s-117.167 -35.5 -180.5 -35.5c-36 0 -72.333 2.5 -109 7.5s-72.834 14 -108.501 27s-70.167 30.667 -103.5 53s-64.666 50.5 -93.999 84.5l75 91c11.333 16.667 28 25 50 25c16.667 0 31.5 -4.33301 44.5 -13l43.5 -28c16 -10 35.667 -19.333 59 -28s54 -13 92 -13
c63.333 0 116.333 21 159 63s69.667 102.333 81 181h-416v184h413c-12.667 70.667 -39.334 125.334 -80.001 164.001s-94.667 58 -162 58c-32.667 0 -60.167 -3.33301 -82.5 -10s-41.666 -14.167 -57.999 -22.5l-43.5 -22.5c-12.667 -6.66699 -26 -10 -40 -10s-25 3 -33 9
s-16 14 -24 24z" />
    <glyph glyph-name="afii10096" unicode="&#x44e;" horiz-adv-x="1621" 
d="M1061 192c74.667 0 129.334 27.167 164.001 81.5s52 135.166 52 242.499c0 106.667 -17.333 187.167 -52 241.5s-89.334 81.5 -164.001 81.5s-129.334 -27.167 -164.001 -81.5s-52 -134.833 -52 -241.5c0 -107.333 17.333 -188.166 52 -242.499
s89.334 -81.5 164.001 -81.5zM577 620c8.66699 66.667 26.3291 126.332 52.9961 178.999s60.834 97.334 102.501 134.001s90.167 64.834 145.5 84.501s116.333 29.5 183 29.5c74.667 0 142.834 -12.333 204.501 -37s114.334 -59.834 158.001 -105.501
s77.5 -101.167 101.5 -166.5s36 -139 36 -221s-12.5 -155.833 -37.5 -221.5s-59.667 -121.5 -104 -167.5s-97 -81.333 -158 -106s-127.833 -37 -200.5 -37c-69.333 0 -132.166 10.167 -188.499 30.5s-105.333 49.666 -147 87.999s-75.167 84.833 -100.5 139.5
s-42 116.334 -50 185.001h-185v-428h-276v1031h276v-411h187z" />
    <glyph glyph-name="afii10097" unicode="&#x44f;" horiz-adv-x="1027" 
d="M650 573l0.000976562 282h-119c-28 0 -51.5 -4.16699 -70.5 -12.5s-34.333 -19.166 -46 -32.499s-19.834 -28.333 -24.501 -45s-7 -33.334 -7 -50.001c0 -44 14.167 -78.667 42.5 -104s65.5 -38 111.5 -38h113zM912.001 1031l0.00292969 -1031h-262v406h-28
c-20.667 0 -37.667 -1.83301 -51 -5.5s-24.5 -9 -33.5 -16s-16.5 -15.167 -22.5 -24.5l-19 -31l-141 -236c-8.66699 -15.333 -17.834 -28.833 -27.501 -40.5s-21 -21.334 -34 -29.001s-28.333 -13.5 -46 -17.5s-38.834 -6 -63.501 -6h-190l244 355
c15.333 26.667 33.166 48.5 53.499 65.5s44.5 30.167 72.5 39.5c-47.333 8.66699 -87.5 22.5 -120.5 41.5s-59.667 40.667 -80 65s-35 50.333 -44 78s-13.5 54.834 -13.5 81.501c0 38.667 7.83301 76.334 23.5 113.001s40.167 69.167 73.5 97.5s76.5 51.166 129.5 68.499
s116.5 26 190.5 26h389z" />
    <glyph glyph-name="uni0450" unicode="&#x450;" horiz-adv-x="1072" 
d="M768 637c0 28.667 -3.83398 55.999 -11.501 81.999s-19.834 49 -36.501 69s-37.667 35.833 -63 47.5s-55.666 17.5 -90.999 17.5c-66 0 -117.667 -18.667 -155 -56s-61.666 -90.666 -72.999 -159.999h430zM333.999 472.999
c8.66699 -96.667 36.166 -167.334 82.499 -212.001s106.833 -67 181.5 -67c38 0 70.833 4.5 98.5 13.5s52 19 73 30l57 30c17 9 33.833 13.5 50.5 13.5c21.333 0 38 -8 50 -24l80 -100c-29.333 -34 -61.666 -62.167 -96.999 -84.5s-72 -40 -110 -53s-76.333 -22 -115 -27
s-76 -7.5 -112 -7.5c-72 0 -139.167 11.833 -201.5 35.5s-116.666 58.667 -162.999 105s-82.833 103.833 -109.5 172.5s-40 148.334 -40 239.001c0 70 11.5 136 34.5 198s56.167 116 99.5 162s96 82.5 158 109.5s132 40.5 210 40.5c66 0 126.833 -10.5 182.5 -31.5
s103.667 -51.5 144 -91.5s71.666 -89.167 93.999 -147.5s33.5 -124.833 33.5 -199.5c0 -20.667 -1 -37.667 -3 -51s-5.33301 -24 -10 -32s-11 -13.5 -19 -16.5s-18.333 -4.5 -31 -4.5h-618zM482.998 1467c28.667 0 50.167 -4.66699 64.5 -14s26.833 -23.333 37.5 -42
l139 -244h-156c-20.667 0 -37.5 2.83301 -50.5 8.5s-26.167 15.5 -39.5 29.5l-253 262h258z" />
    <glyph glyph-name="afii10071" unicode="&#x451;" horiz-adv-x="1072" 
d="M768 637c0 28.667 -3.83398 55.999 -11.501 81.999s-19.834 49 -36.501 69s-37.667 35.833 -63 47.5s-55.666 17.5 -90.999 17.5c-66 0 -117.667 -18.667 -155 -56s-61.666 -90.666 -72.999 -159.999h430zM333.999 472.999
c8.66699 -96.667 36.166 -167.334 82.499 -212.001s106.833 -67 181.5 -67c38 0 70.833 4.5 98.5 13.5s52 19 73 30l57 30c17 9 33.833 13.5 50.5 13.5c21.333 0 38 -8 50 -24l80 -100c-29.333 -34 -61.666 -62.167 -96.999 -84.5s-72 -40 -110 -53s-76.333 -22 -115 -27
s-76 -7.5 -112 -7.5c-72 0 -139.167 11.833 -201.5 35.5s-116.666 58.667 -162.999 105s-82.833 103.833 -109.5 172.5s-40 148.334 -40 239.001c0 70 11.5 136 34.5 198s56.167 116 99.5 162s96 82.5 158 109.5s132 40.5 210 40.5c66 0 126.833 -10.5 182.5 -31.5
s103.667 -51.5 144 -91.5s71.666 -89.167 93.999 -147.5s33.5 -124.833 33.5 -199.5c0 -20.667 -1 -37.667 -3 -51s-5.33301 -24 -10 -32s-11 -13.5 -19 -16.5s-18.333 -4.5 -31 -4.5h-618zM507.998 1294c0 -20 -4 -38.667 -12 -56s-18.833 -32.5 -32.5 -45.5
s-29.667 -23.167 -48 -30.5s-37.833 -11 -58.5 -11c-19.333 0 -37.833 3.66699 -55.5 11s-33.167 17.5 -46.5 30.5s-24 28.167 -32 45.5s-12 36 -12 56s4 39 12 57s18.667 33.833 32 47.5s28.833 24.334 46.5 32.001s36.167 11.5 55.5 11.5
c20.667 0 40.167 -3.83301 58.5 -11.5s34.333 -18.334 48 -32.001s24.5 -29.5 32.5 -47.5s12 -37 12 -57zM922.998 1294c0 -20 -4 -38.667 -12 -56s-18.667 -32.5 -32 -45.5s-29.166 -23.167 -47.499 -30.5s-37.833 -11 -58.5 -11c-20 0 -39 3.66699 -57 11
s-33.667 17.5 -47 30.5s-23.833 28.167 -31.5 45.5s-11.5 36 -11.5 56s3.83301 39 11.5 57s18.167 33.833 31.5 47.5s29 24.334 47 32.001s37 11.5 57 11.5c20.667 0 40.167 -3.83301 58.5 -11.5s34.166 -18.334 47.499 -32.001s24 -29.5 32 -47.5s12 -37 12 -57z" />
    <glyph glyph-name="afii10099" unicode="&#x452;" horiz-adv-x="1132" 
d="M389 836c19.333 17.333 39.501 33.167 60.501 47.5s43.333 26.666 67 36.999s49 18.333 76 24s56.167 8.5 87.5 8.5c126.667 0 220.167 -40.167 280.5 -120.5s90.5 -198.5 90.5 -354.5c0 -68 -5.33301 -136.833 -16 -206.5s-25.834 -138.5 -45.501 -206.5
s-43.5 -134.833 -71.5 -200.5s-59.333 -128.5 -94 -188.5l-222 82c28.667 58 53.667 115.167 75 171.5s39.333 113.833 54 172.5s25.667 119 33 181s11 127 11 195c0 48.667 -4.5 89.834 -13.5 123.501s-21.5 61 -37.5 82s-35 36 -57 45s-46 13.5 -72 13.5
c-38.667 0 -75 -8.5 -109 -25.5s-66.333 -40.167 -97 -69.5v-647h-275v1073h-156v203h156v215h275v-215h304v-203h-304v-237z" />
    <glyph glyph-name="afii10100" unicode="&#x453;" horiz-adv-x="847" 
d="M825 830h-435v-830h-276v1031h711v-201zM807 1467l-252.999 -262c-13.333 -14 -26.5 -23.833 -39.5 -29.5s-29.833 -8.5 -50.5 -8.5h-166l140 244c10 18.667 22.167 32.667 36.5 42s36.166 14 65.499 14h267z" />
    <glyph glyph-name="afii10101" unicode="&#x454;" horiz-adv-x="978" 
d="M865 809c-8 -10 -15.998 -18 -23.998 -24s-19 -9 -33 -9s-27.333 3.33301 -40 10l-43.5 22.5c-16.333 8.33301 -35.666 15.833 -57.999 22.5s-49.833 10 -82.5 10c-67.333 0 -121.333 -19.5 -162 -58.5s-67.334 -93.5 -80.001 -163.5h414v-184h-418
c11.333 -79.333 38.5 -139.833 81.5 -181.5s96.167 -62.5 159.5 -62.5c38 0 68.667 4.33301 92 13s43.166 18 59.499 28s30.833 19.333 43.5 28s27.334 13 44.001 13c22 0 38.667 -8.33301 50 -25l75 -91c-29.333 -34 -60.666 -62.167 -93.999 -84.5s-67.833 -40 -103.5 -53
s-71.834 -22 -108.501 -27s-73 -7.5 -109 -7.5c-63.333 0 -123.333 11.833 -180 35.5s-106.334 58.167 -149.001 103.5s-76.5 101 -101.5 167s-37.5 141.333 -37.5 226c0 75.333 11 145.333 33 210s54.333 120.667 97 168s95.5 84.5 158.5 111.5s135.833 40.5 218.5 40.5
c78.667 0 147.667 -12.667 207 -38s112.666 -62 159.999 -110z" />
    <glyph glyph-name="afii10102" unicode="&#x455;" horiz-adv-x="885" 
d="M755 819c-7.33301 -11.333 -14.835 -19.5029 -22.502 -24.5029s-18.167 -7.5 -31.5 -7.5s-27 3.33301 -41 10l-47 21.5c-17.333 7.66699 -37.166 14.834 -59.499 21.501s-48.166 10 -77.499 10c-44.667 0 -79.334 -9.16699 -104.001 -27.5s-37 -42.5 -37 -72.5
c0 -20.667 7 -38 21 -52s32.5 -26.167 55.5 -36.5s49.167 -20 78.5 -29s59.5 -18.833 90.5 -29.5s61.167 -23 90.5 -37s55.5 -31.5 78.5 -52.5s41.5 -46.333 55.5 -76s21 -65.5 21 -107.5c0 -50 -9.16699 -96.167 -27.5 -138.5s-45.166 -78.833 -80.499 -109.5
s-79.333 -54.667 -132 -72s-113.334 -26 -182.001 -26c-35.333 0 -70.333 3.16699 -105 9.5s-67.667 15.333 -99 27s-60.666 25.167 -87.999 40.5s-51 32 -71 50l64 103c7.33301 12 16.5 21.333 27.5 28s25.167 10 42.5 10c16.667 0 32 -4.16699 46 -12.5l47 -27
c17.333 -9.66699 37.833 -18.667 61.5 -27s53.167 -12.5 88.5 -12.5c26.667 0 49.667 3 69 9s35 14.167 47 24.5s20.833 22 26.5 35s8.5 26.5 8.5 40.5c0 22.667 -7.16699 41.167 -21.5 55.5s-33 26.833 -56 37.5s-49.5 20.334 -79.5 29.001s-60.5 18.334 -91.5 29.001
s-61.333 23.334 -91 38.001s-56 33.167 -79 55.5s-41.667 49.833 -56 82.5s-21.5 72.334 -21.5 119.001c0 42.667 8.33301 83.167 25 121.5s41.667 72.166 75 101.499s74.833 52.666 124.5 69.999s107.167 26 172.5 26c73.333 0 140 -12 200 -36s109.333 -55.333 148 -94z
" />
    <glyph glyph-name="afii10103" unicode="&#x456;" horiz-adv-x="520" 
d="M398 1031v-1031h-276v1031h276zM431 1324c0 -23.333 -4.66699 -45 -14 -65s-21.833 -37.667 -37.5 -53s-34 -27.333 -55 -36s-43.5 -13 -67.5 -13c-22.667 0 -44.167 4.33301 -64.5 13s-38.166 20.667 -53.499 36s-27.5 33 -36.5 53s-13.5 41.667 -13.5 65
s4.5 45.166 13.5 65.499s21.167 38.166 36.5 53.499s33.166 27.333 53.499 36s41.833 13 64.5 13c24 0 46.5 -4.33301 67.5 -13s39.333 -20.667 55 -36s28.167 -33.166 37.5 -53.499s14 -42.166 14 -65.499z" />
    <glyph glyph-name="afii10104" unicode="&#x457;" horiz-adv-x="520" 
d="M398 1031v-1031h-276v1031h276zM240 1294c0 -20 -4 -38.667 -12 -56s-18.833 -32.5 -32.5 -45.5s-29.667 -23.167 -48 -30.5s-37.833 -11 -58.5 -11c-19.333 0 -37.666 3.66699 -54.999 11s-32.666 17.5 -45.999 30.5s-24 28.167 -32 45.5s-12 36 -12 56s4 39 12 57
s18.667 33.833 32 47.5s28.666 24.334 45.999 32.001s35.666 11.5 54.999 11.5c20.667 0 40.167 -3.83301 58.5 -11.5s34.333 -18.334 48 -32.001s24.5 -29.5 32.5 -47.5s12 -37 12 -57zM592 1294c0 -20 -3.83301 -38.667 -11.5 -56s-18.334 -32.5 -32.001 -45.5
s-29.5 -23.167 -47.5 -30.5s-37.333 -11 -58 -11c-20 0 -39 3.66699 -57 11s-33.667 17.5 -47 30.5s-23.833 28.167 -31.5 45.5s-11.5 36 -11.5 56s3.83301 39 11.5 57s18.167 33.833 31.5 47.5s29 24.334 47 32.001s37 11.5 57 11.5c20.667 0 40 -3.83301 58 -11.5
s33.833 -18.334 47.5 -32.001s24.334 -29.5 32.001 -47.5s11.5 -37 11.5 -57z" />
    <glyph glyph-name="afii10105" unicode="&#x458;" horiz-adv-x="520" 
d="M398 1031l0.000976562 -1051c0 -46.667 -6 -90.5 -18 -131.5s-31.5 -76.833 -58.5 -107.5s-62.333 -55 -106 -73s-97.5 -27 -161.5 -27c-24 0 -46.5 1.66699 -67.5 5s-42.5 8 -64.5 14l10 146c1.33301 13.333 6.16602 22.666 14.499 27.999s24.833 8 49.5 8
s45 2.16699 61 6.5s28.833 11.833 38.5 22.5s16.5 24.834 20.5 42.501s6 39.834 6 66.501v1051h276zM431.001 1324c0 -23.333 -4.66699 -45 -14 -65s-21.833 -37.667 -37.5 -53s-34 -27.333 -55 -36s-43.5 -13 -67.5 -13c-22.667 0 -44.167 4.33301 -64.5 13
s-38.166 20.667 -53.499 36s-27.5 33 -36.5 53s-13.5 41.667 -13.5 65s4.5 45.166 13.5 65.499s21.167 38.166 36.5 53.499s33.166 27.333 53.499 36s41.833 13 64.5 13c24 0 46.5 -4.33301 67.5 -13s39.333 -20.667 55 -36s28.167 -33.166 37.5 -53.499
s14 -42.166 14 -65.499z" />
    <glyph glyph-name="afii10106" unicode="&#x459;" horiz-adv-x="1691" 
d="M1262 193c49.333 0 86.333 13 111 39s37 59.333 37 100c0 17.333 -2.83301 34 -8.5 50s-14.5 30 -26.5 42s-27.5 21.667 -46.5 29s-41.5 11 -67.5 11h-168v-271h169zM1260 657c72 0 133.175 -8.83496 183.508 -26.502s91.166 -41.334 122.499 -71.001s54 -64 68 -103
s21 -80.167 21 -123.5c0 -49.333 -8.83301 -94.333 -26.5 -135s-43.334 -75.667 -77.001 -105s-74.667 -52.166 -123 -68.499s-103.5 -24.5 -165.5 -24.5h-446v824h-223c-8.66699 -125.333 -21.334 -233 -38.001 -323s-36.667 -166.167 -60 -228.5
s-49.333 -112.333 -78 -150s-59.334 -66.667 -92.001 -87s-66.334 -33.833 -101.001 -40.5s-69.667 -10 -105 -10c-41.333 0 -71 3.33301 -89 10s-27 16.334 -27 29.001v168h62c21.333 0 42.666 3.16699 63.999 9.5s42.166 19.5 62.499 39.5s39.5 48.667 57.5 86
s34.667 87 50 149s28.666 138.333 39.999 229s20.333 199.334 27 326.001h726v-374h167z" />
    <glyph glyph-name="afii10107" unicode="&#x45a;" horiz-adv-x="1628" 
d="M1199 193c48.667 0 85.5 13 110.5 39s37.5 59.333 37.5 100c0 17.333 -2.83301 34 -8.5 50s-14.5 30 -26.5 42s-27.5 21.667 -46.5 29s-41.5 11 -67.5 11h-169v-271h170zM1197 657c72 0 133.17 -8.83301 183.503 -26.5s91.166 -41.334 122.499 -71.001s54 -64 68 -103
s21 -80.167 21 -123.5c0 -49.333 -8.83301 -94.333 -26.5 -135s-43.334 -75.667 -77.001 -105s-74.834 -52.166 -123.501 -68.499s-104 -24.5 -166 -24.5h-445v447h-364v-447h-276v1031h276v-383h364v383h275v-374h168z" />
    <glyph glyph-name="afii10108" unicode="&#x45b;" horiz-adv-x="1134" 
d="M389 896c19.333 17.333 39.5 33.168 60.5 47.501s43.333 26.666 67 36.999s49 18.333 76 24s56.167 8.5 87.5 8.5c56 0 105.667 -9.66699 149 -29s79.833 -46.333 109.5 -81s52 -76 67 -124s22.5 -100.667 22.5 -158v-621h-275v621c0 57.333 -13.333 101.833 -40 133.5
s-66 47.5 -118 47.5c-38.667 0 -75 -8.5 -109 -25.5s-66.333 -40.167 -97 -69.5v-707h-275v1132h-139v167h139v192h275v-192h276v-167h-276v-236z" />
    <glyph glyph-name="afii10109" unicode="&#x45c;" horiz-adv-x="1108" 
d="M726 960c13.333 20.667 31.499 37.667 54.499 51s47.167 20 72.5 20h218l-230 -379c-16.667 -28 -33.667 -50.167 -51 -66.5s-38.333 -29.166 -63 -38.499c34 -10.667 61.667 -26 83 -46s40.333 -45.333 57 -76l229 -425h-190c-24 0 -45.167 2 -63.5 6
s-34.666 10 -48.999 18s-26.833 17.667 -37.5 29s-20.667 24.666 -30 39.999l-132 273c-11.333 24 -27.333 41.833 -48 53.5s-44 17.5 -70 17.5h-86v-437h-276v1031h276v-417h72c28 0 49.833 4.83301 65.5 14.5s29.167 25.167 40.5 46.5zM931.999 1467l-252.999 -262
c-13.333 -14 -26.5 -23.833 -39.5 -29.5s-29.833 -8.5 -50.5 -8.5h-166l140 244c10 18.667 22.167 32.667 36.5 42s36.166 14 65.499 14h267z" />
    <glyph glyph-name="uni045D" unicode="&#x45d;" horiz-adv-x="1173" 
d="M1058 1031l-0.000976562 -1031h-276v567c0 15.333 0.833008 32.833 2.5 52.5s4.16699 39.167 7.5 58.5c-15.333 -33.333 -31 -61.666 -47 -84.999c-1.33301 -1.33301 -7.33301 -10 -18 -26l-42 -61.5l-58.5 -84.5l-66.5 -96l-179 -259
c-5.33301 -8 -11.5 -15.833 -18.5 -23.5s-14.667 -14.834 -23 -21.501s-17.166 -12 -26.499 -16s-19.333 -6 -30 -6h-169v1031h276v-567c0 -16 -1 -34 -3 -54s-4.66699 -39.667 -8 -59c8 17.333 16 33.333 24 48s16 27.667 24 39c0.666992 1.33301 6.5 10 17.5 26l42.5 61.5
l58.5 84.5l66.5 96l180 259c10 16 23.5 31.167 40.5 45.5s36.167 21.5 57.5 21.5h168zM516.999 1467c28.667 0 50.167 -4.66699 64.5 -14s26.833 -23.333 37.5 -42l139 -244h-156c-20.667 0 -37.5 2.83301 -50.5 8.5s-26.167 15.5 -39.5 29.5l-253 262h258z" />
    <glyph glyph-name="afii10110" unicode="&#x45e;" horiz-adv-x="1064" 
d="M1070 1031l-556 -1308c-8.66699 -18.667 -19.167 -32.667 -31.5 -42s-31.833 -14 -58.5 -14h-205l195 416l-414 948h242c22 0 39 -5 51 -15s20.667 -21.667 26 -35l196 -493c7.33301 -19.333 13.833 -38.833 19.5 -58.5l16.5 -58.5c12 39.333 25.667 78.666 41 117.999
l182 492c5.33301 14.667 15 26.667 29 36s29.333 14 46 14h221zM557 1296c24 0 43.835 2.5 59.502 7.5s28 13.5 37 25.5s15.333 27.833 19 47.5s5.5 44.5 5.5 74.5h163c19.333 0 33.5 -8 42.5 -24s13.5 -33 13.5 -51c0 -34.667 -8.16699 -65.834 -24.5 -93.501
s-39.5 -51.167 -69.5 -70.5s-65.833 -34.166 -107.5 -44.499s-87.834 -15.5 -138.501 -15.5s-96.834 5.16699 -138.501 15.5s-77.5 25.166 -107.5 44.499s-53.167 42.833 -69.5 70.5s-24.5 58.834 -24.5 93.501c0 18 4.5 35 13.5 51s23.167 24 42.5 24h163
c0 -30 1.83301 -54.833 5.5 -74.5s10 -35.5 19 -47.5s21.333 -20.5 37 -25.5s35.5 -7.5 59.5 -7.5z" />
    <glyph glyph-name="afii10193" unicode="&#x45f;" horiz-adv-x="1144" 
d="M1029 1031l0.000976562 -1031h-332v-262c0 -24.667 -7.33301 -44.167 -22 -58.5s-33.334 -21.5 -56.001 -21.5h-172v342h-333v1031h276v-830h364v830h275z" />
    <glyph glyph-name="uni0460" unicode="&#x460;" horiz-adv-x="2153" 
d="M1195 1333c40 38.667 88.1719 70.5 144.505 95.5s124.5 37.5 204.5 37.5c96 0 177.667 -19.167 245 -57.5s122.166 -90.5 164.499 -156.5s73.166 -143.167 92.499 -231.5s29 -182.833 29 -283.5c0 -115.333 -12.167 -219.5 -36.5 -312.5s-60.5 -172.167 -108.5 -237.5
s-107.833 -115.5 -179.5 -150.5s-155.167 -52.5 -250.5 -52.5c-85.333 0 -162.666 14 -231.999 42s-133 68.667 -191 122c-58 -53.333 -121.667 -94 -191 -122s-147 -42 -233 -42c-95.333 0 -178.833 17.5 -250.5 52.5s-131.5 85.167 -179.5 150.5
s-84.167 144.5 -108.5 237.5s-36.5 197.167 -36.5 312.5c0 100.667 9.66699 195.167 29 283.5s50.333 165.5 93 231.5s97.667 118.167 165 156.5s149 57.5 245 57.5c79.333 0 147.333 -12.5 204 -37.5s105 -56.833 145 -95.5l-63 -147c-10 -15.333 -19.333 -25.5 -28 -30.5
s-19.334 -7.5 -32.001 -7.5c-11.333 0 -22.833 3.5 -34.5 10.5l-39.5 23c-14.667 8.33301 -31.834 16 -51.501 23s-42.834 10.5 -69.501 10.5c-41.333 0 -78.333 -10 -111 -30s-60.334 -50.333 -83.001 -91s-40 -92 -52 -154s-18 -135 -18 -219
c0 -78 5.66699 -147.167 17 -207.5s29 -111.166 53 -152.499s55.167 -72.666 93.5 -93.999s84.5 -32 138.5 -32c48.667 0 93.334 8.66699 134.001 26s78.334 43 113.001 77v442h302v-443c34.667 -34 72.167 -59.5 112.5 -76.5s84.833 -25.5 133.5 -25.5
c54 0 100.167 10.667 138.5 32s69.666 52.666 93.999 93.999s42.166 92.166 53.499 152.499s17 129.5 17 207.5c0 84 -6 157 -18 219s-29.333 113.333 -52 154s-50.334 71 -83.001 91s-69.667 30 -111 30c-27.333 0 -50.666 -3.5 -69.999 -10.5s-36.333 -14.667 -51 -23
l-39.5 -23c-11.667 -7 -23.167 -10.5 -34.5 -10.5c-12.667 0 -23.5 2.5 -32.5 7.5s-18.5 15.167 -28.5 30.5z" />
    <glyph glyph-name="uni0461" unicode="&#x461;" horiz-adv-x="1574" 
d="M1451 1031c13.333 -61.333 23.332 -118.331 29.999 -170.998s10 -105.334 10 -158.001c0 -77.333 -6.66699 -149 -20 -215s-32.5 -127.5 -57.5 -184.5s-55.667 -110.333 -92 -160s-77.5 -97.167 -123.5 -142.5h-162c-14 0 -25.333 2.66699 -34 8s-18.334 14 -29.001 26
c-34 36 -67.333 77.833 -100 125.5s-61.667 99.834 -87 156.501c-24.667 -55.333 -53.167 -107 -85.5 -155s-65.5 -90.667 -99.5 -128c-5.33301 -6 -10 -11 -14 -15s-8 -7.33301 -12 -10s-8.5 -4.66699 -13.5 -6s-11.5 -2 -19.5 -2h-166
c-38.667 38 -75.167 79.667 -109.5 125s-64.166 92.833 -89.499 142.5s-45.5 101.167 -60.5 154.5s-22.5 107 -22.5 161v448h189c27.333 0 47 -8 59 -24s18 -34 18 -54v-340c0 -76.667 13.667 -145.334 41 -206.001s63 -113 107 -157c20 22 39 46.333 57 73
s33.5 55.334 46.5 86.001s23.333 63.167 31 97.5s11.5 69.5 11.5 105.5v419h188c28 0 48 -8 60 -24s18 -34 18 -54v-331c0 -72.667 12.833 -140.334 38.5 -203.001s61.5 -119 107.5 -169c20.667 22 40.667 47.333 60 76s36.5 61.334 51.5 98.001s27 77.667 36 123
s13.5 95.666 13.5 150.999c0 40 -2.16699 74.5 -6.5 103.5s-9 54 -14 75s-9.66699 39 -14 54s-6.5 28.5 -6.5 40.5c0 15.333 4.83301 29.166 14.5 41.499s23.834 18.5 42.501 18.5h208z" />
    <glyph glyph-name="afii10146" unicode="&#x462;" horiz-adv-x="1478" 
d="M903 230c47.333 0 86.665 5.33203 117.998 15.999s56.333 25.167 75 43.5s31.834 39.5 39.501 63.5s11.5 49.333 11.5 76c0 30 -3.83301 57.333 -11.5 82s-20.667 45.834 -39 63.501s-43.166 31.167 -74.499 40.5s-71 14 -119 14h-218v-399h218zM902.999 859.999
c96.667 0 179.333 -10.668 248 -32.001s124.5 -50.333 167.5 -87s74.5 -79.167 94.5 -127.5s30 -99.833 30 -154.5c0 -69.333 -12.167 -132.166 -36.5 -188.499s-59.5 -104.5 -105.5 -144.5s-102.5 -71 -169.5 -93s-143.167 -33 -228.5 -33h-518v1041h-343v217h343v193h300
v-193h417v-217h-417v-181h218z" />
    <glyph glyph-name="afii10194" unicode="&#x463;" horiz-adv-x="1143" 
d="M721 193c49.333 0 86.5 13 111.5 39s37.5 59.333 37.5 100c0 17.333 -2.83301 34 -8.5 50s-14.667 30 -27 42s-27.833 21.667 -46.5 29s-41 11 -67 11h-189v-271h189zM720 657c72 0 133.167 -8.83301 183.5 -26.5s91 -41.334 122 -71.001s53.5 -64 67.5 -103
s21 -80.167 21 -123.5c0 -49.333 -8.83301 -94.333 -26.5 -135s-43.167 -75.667 -76.5 -105s-74.333 -52.166 -123 -68.499s-104 -24.5 -166 -24.5h-452v826h-244v204h244v262h262v-262h308v-204h-308v-169h188z" />
    <glyph glyph-name="uni0464" unicode="&#x464;" horiz-adv-x="1914" 
d="M1885 212c-56.667 -74.667 -126.998 -131.333 -210.998 -170s-183.667 -58 -299 -58c-96.667 0 -184.334 15.833 -263.001 47.5s-146.667 75.834 -204 132.501s-103.5 124.334 -138.5 203.001s-57.167 165 -66.5 259h-249v-626h-302v1451h302v-606h251
c12 92.667 37 177.167 75 253.5s86.833 141.833 146.5 196.5s128.834 97 207.501 127s164.667 45 258 45c104 0 195.667 -17.667 275 -53s146 -81.333 200 -138l-100 -138c-6.66699 -8.66699 -14.5 -16.334 -23.5 -23.001s-21.5 -10 -37.5 -10s-31.667 5.66699 -47 17
s-34.333 24 -57 38s-50.667 26.667 -84 38s-76 17 -128 17c-49.333 0 -94.833 -8.16699 -136.5 -24.5s-78.834 -40.333 -111.501 -72s-60 -70.5 -82 -116.5s-37.333 -98.333 -46 -157h582v-219h-584c8 -62.667 23.5 -118.334 46.5 -167.001s51.5 -89.5 85.5 -122.5
s72.333 -58.167 115 -75.5s88 -26 136 -26c31.333 0 59.833 1.66699 85.5 5s49.5 9 71.5 17s42.833 18.333 62.5 31s39.5 28.667 59.5 48c7.33301 6 15.166 11 23.499 15s16.833 6 25.5 6c16.667 0 31 -6 43 -18z" />
    <glyph glyph-name="uni0465" unicode="&#x465;" horiz-adv-x="1401" 
d="M1227 284c13.333 0 25.332 -5.33008 35.999 -15.9971l105 -112c-39.333 -56 -89.5 -97.833 -150.5 -125.5s-132.5 -41.5 -214.5 -41.5c-68.667 0 -130.667 10.833 -186 32.5s-103.5 51.667 -144.5 90s-74.333 84.166 -100 137.499s-42.5 111.666 -50.5 174.999h-142v-424
h-266v1031h266v-415h144c10 62.667 28.833 120.167 56.5 172.5s62.667 97.333 105 135s91.333 66.834 147 87.501s116.167 31 181.5 31c76 0 143.167 -13.167 201.5 -39.5s105.833 -59.833 142.5 -100.5l-90 -123c-5.33301 -7.33301 -12 -13.666 -20 -18.999s-19 -8 -33 -8
c-13.333 0 -25.166 3.5 -35.499 10.5l-35.5 23.5c-13.333 8.66699 -30.166 16.5 -50.499 23.5s-47.5 10.5 -81.5 10.5c-54 0 -100 -17.333 -138 -52s-63.667 -85.334 -77 -152.001h370v-192h-370c6.66699 -34.667 17.167 -65.334 31.5 -92.001s31.333 -49 51 -67
s41.5 -31.667 65.5 -41s49.333 -14 76 -14c17.333 0 33.333 0.833008 48 2.5s28.5 4.5 41.5 8.5s25.5 9.66699 37.5 17s24 16.666 36 27.999c13.333 12 27.666 18 42.999 18z" />
    <glyph glyph-name="uni0466" unicode="&#x466;" horiz-adv-x="1469" 
d="M886 768l-88 227c-10 25.333 -20.5 55.333 -31.5 90s-21.833 72 -32.5 112c-10 -40.667 -20.5 -78.5 -31.5 -113.5s-21.5 -65.167 -31.5 -90.5l-87 -225h302zM1499 0l-241.999 0.00195312c-26 0 -47.333 6.16699 -64 18.5s-28.667 28.166 -36 47.499l-191 494h-91v-560
h-285v560h-87l-191 -494c-6.66699 -16.667 -18.334 -31.834 -35.001 -45.501s-37.667 -20.5 -63 -20.5h-243l619 1451h289z" />
    <glyph glyph-name="uni0467" unicode="&#x467;" horiz-adv-x="1179" 
d="M692 523l-47.999 112.999c-8.66699 21.333 -17.834 46.833 -27.501 76.5s-19.167 61.834 -28.5 96.501c-8.66699 -35.333 -17.667 -68 -27 -98s-18 -55.667 -26 -77l-48 -111h205zM1193 -0.000976562h-214c-22.667 0 -41.167 5.33301 -55.5 16s-24.833 24.667 -31.5 42
l-121 282h-58v-340h-250v340h-54l-121 -282c-6 -14.667 -16.5 -28 -31.5 -40s-33.167 -18 -54.5 -18h-215l475 1031h255z" />
    <glyph glyph-name="uni0468" unicode="&#x468;" horiz-adv-x="2082" 
d="M1499 768l-88 227c-10 25.333 -20.5 55.333 -31.5 90s-21.833 72 -32.5 112c-10 -40.667 -20.5 -78.5 -31.5 -113.5s-21.5 -65.167 -31.5 -90.5l-87 -225h302zM2112 0l-241.999 0.00195312c-26 0 -47.333 6.16699 -64 18.5s-28.667 28.166 -36 47.499l-191 494h-91v-560
h-285v560h-87l-191 -494c-6.66699 -16.667 -18.334 -31.834 -35.001 -45.501s-37.667 -20.5 -63 -20.5h-243l239 560h-369v-560h-302v1451h302v-683h458l291 683h289z" />
    <glyph glyph-name="uni0469" unicode="&#x469;" horiz-adv-x="1659" 
d="M1172 523l-47.999 112.999c-8.66699 21.333 -17.834 46.833 -27.501 76.5s-18.834 61.834 -27.501 96.501c-9.33301 -35.333 -18.666 -68 -27.999 -98s-18.333 -55.667 -27 -77l-47 -111h205zM1672 -0.000976562h-213c-23.333 0 -42 5.33301 -56 16
s-24.667 24.667 -32 42l-121 282h-57v-340h-250v340h-55l-120 -282c-6 -14.667 -16.5 -28 -31.5 -40s-33.5 -18 -55.5 -18h-215l157 340h-243v-340h-266v1031h266v-508h327l235 508h255z" />
    <glyph glyph-name="uni046A" unicode="&#x46a;" horiz-adv-x="1734" 
d="M698 1028l58.5 -73c17.667 -22 33.5 -43.167 47.5 -63.5s26.167 -40.666 36.5 -60.999s18.833 -42.166 25.5 -65.499c6.66699 23.333 15 45.166 25 65.499s22 40.666 36 60.999s30 41.5 48 63.5l59 73l167 215h-670zM1731 0h-243.999
c-25.333 -0 -46.333 6.83301 -63 20.5s-28.334 28.834 -35.001 45.501l-129 395c-11.333 33.333 -23 60.833 -35 82.5s-26.5 38.667 -43.5 51s-37.5 21 -61.5 26s-53 7.5 -87 7.5h-15l-1 -1h-11v-627h-285v627h-6l-1 1h-11c-34 0 -63 -2.5 -87 -7.5s-44.5 -13.667 -61.5 -26
s-31.667 -29.333 -44 -51s-23.833 -49.167 -34.5 -82.5l-129 -395c-7.33301 -16.667 -19.333 -31.834 -36 -45.501s-37.667 -20.5 -63 -20.5h-243l187 485c18 46 38.167 88 60.5 126s48.166 71.333 77.499 100s62.5 52.667 99.5 72s79.167 33.333 126.5 42l-500 625h1620
l-500 -624c48 -8.66699 90.667 -22.667 128 -42s70.833 -43.333 100.5 -72s55.834 -62 78.501 -100s43 -80.333 61 -127z" />
    <glyph glyph-name="uni046B" unicode="&#x46b;" horiz-adv-x="1361" 
d="M534 773l51.001 -63c15.333 -18.667 29 -36.834 41 -54.501s22.5 -35.334 31.5 -53.001s16.5 -36.5 22.5 -56.5c5.33301 20 12.5 38.833 21.5 56.5s19.667 35.334 32 53.001s26.166 35.834 41.499 54.501l51 63l66 75h-425zM1360 0l-214.996 -0.000976562
c-21.333 0 -39.5 6 -54.5 18s-25.833 25.333 -32.5 40l-85 245c-8.66699 25.333 -17.834 46 -27.501 62s-21 28.5 -34 37.5s-28.333 15.167 -46 18.5s-38.834 5 -63.501 5v-426h-250v426c-23.333 -0.666992 -43.333 -2.83398 -60 -6.50098s-31.167 -10 -43.5 -19
s-23 -21.333 -32 -37s-17.833 -35.834 -26.5 -60.501l-85 -245c-6.66699 -14.667 -17.334 -28 -32.001 -40s-33 -18 -55 -18h-215l138 324c14.667 34.667 30.5 66.334 47.5 95.001s36 54.334 57 77.001s44.5 42 70.5 58s55.667 28.667 89 38l-370 439h1290l-370 -438
c34 -9.33301 64.167 -22 90.5 -38s50.166 -35.167 71.499 -57.5s40.333 -48.166 57 -77.499s32.667 -61.333 48 -96z" />
    <glyph glyph-name="uni046C" unicode="&#x46c;" horiz-adv-x="2359" 
d="M1324 1028l58.5 -72.5c17.667 -21.667 33.5 -42.667 47.5 -63s26.167 -40.666 36.5 -60.999s18.833 -42.166 25.5 -65.499c6.66699 23.333 15.167 45.166 25.5 65.499s22.5 40.666 36.5 60.999s29.833 41.333 47.5 63l58.5 72.5l167 215h-670zM2357 0h-242.998
c-25.333 -0 -46.333 6.83301 -63 20.5s-28.667 28.834 -36 45.501l-129 395c-11.333 33.333 -23 60.833 -35 82.5s-26.5 38.667 -43.5 51s-37.5 21 -61.5 26s-53 7.5 -87 7.5h-15l-1 -1h-11v-627h-285v627h-5l-1 1h-18c-31.333 0 -58.333 -2.33301 -81 -7
s-42.667 -13.167 -60 -25.5s-32.5 -29.333 -45.5 -51s-25.167 -49.5 -36.5 -83.5l-131 -395c-6.66699 -16.667 -18.334 -31.834 -35.001 -45.501s-37.667 -20.5 -63 -20.5h-243l186 484c11.333 30.667 29.666 58 54.999 82s55 44.667 89 62h-504v-628h-302v1451h302v-615
h721l-492 614h1619l-500 -624c48 -8.66699 90.667 -22.5 128 -41.5s70.833 -42.833 100.5 -71.5s55.834 -62.167 78.5 -100.5c22.667 -38.333 43 -80.833 61 -127.5z" />
    <glyph glyph-name="uni046D" unicode="&#x46d;" horiz-adv-x="1848" 
d="M1023 773l51.001 -63c15.333 -18.667 29 -36.834 41 -54.501s22.5 -35.334 31.5 -53.001s16.5 -36.5 22.5 -56.5c5.33301 20 12.5 38.833 21.5 56.5s19.667 35.334 32 53.001s26.166 35.834 41.499 54.501l51 63l66 75h-425zM1848 0l-214.996 -0.000976562
c-22 0 -40.333 6 -55 18s-25.334 25.333 -32.001 40l-85 245c-8.66699 25.333 -17.667 45.833 -27 61.5s-20.5 28 -33.5 37s-28.333 15.333 -46 19s-38.834 5.5 -63.501 5.5v-426h-250v426c-22 0 -41.333 -1.83301 -58 -5.5s-31.334 -10 -44.001 -19s-24 -21.333 -34 -37
s-19.333 -36.167 -28 -61.5l-88 -245c-6 -14.667 -16.333 -28 -31 -40s-33 -18 -55 -18h-214l138 324c8 21.333 21 40.5 39 57.5s39 31.833 63 44.5h-349v-426h-266v1031h266v-422h500l-356 422h1289l-370 -438c34 -9.33301 64.167 -22 90.5 -38
s50.166 -35.167 71.499 -57.5s40.333 -48.166 57 -77.499s32.667 -61.333 48 -96z" />
    <glyph glyph-name="uni046E" unicode="&#x46e;" horiz-adv-x="1140" 
d="M820 -395c-1.33301 32.667 -11.665 55.167 -30.998 67.5s-51.333 18.5 -96 18.5c-16 0 -30.167 -0.5 -42.5 -1.5s-25.333 -2.16699 -39 -3.5s-29.334 -2.5 -47.001 -3.5s-39.834 -1.5 -66.501 -1.5c-163.333 0 -284 24 -362 72s-117 122.667 -117 224
c0 93.333 29.833 165.5 89.5 216.5s143.5 76.5 251.5 76.5c42 0 79.667 -2.83301 113 -8.5s66.333 -8.5 99 -8.5c34 0 64 4.66699 90 14s47.667 22.5 65 39.5s30.333 37.333 39 61s13 49.5 13 77.5c0 34.667 -6.5 64.5 -19.5 89.5s-31.333 45.5 -55 61.5s-52 27.667 -85 35
s-69.833 10.666 -110.5 9.99902h-207l-1 238h185c84 0 148 15.333 192 46s66 75.334 66 134.001c0 51.333 -20.667 92 -62 122s-101.666 45 -180.999 45c-46 0 -86 -5 -120 -15s-63.5 -21.167 -88.5 -33.5l-65.5 -33.5c-18.667 -10 -35.334 -15 -50.001 -15
c-15.333 0 -27.833 3.5 -37.5 10.5s-19.167 17.833 -28.5 32.5l-74 141c56 48 123.833 85.667 203.5 113s167.167 41 262.5 41c80 0 152.167 -9.33301 216.5 -28s119.166 -44.834 164.499 -78.501s80.166 -74 104.499 -121s36.5 -98.833 36.5 -155.5
c0 -65.333 -14.333 -125.333 -43 -180s-72.667 -99.667 -132 -135c31.333 -15.333 60 -33.666 86 -54.999s48.167 -45.5 66.5 -72.5s32.666 -57 42.999 -90s15.5 -69.167 15.5 -108.5c0 -54 -10.167 -107 -30.5 -159s-51.5 -98.167 -93.5 -138.5s-95.5 -72.833 -160.5 -97.5
s-142.5 -37 -232.5 -37c-22 0 -41.167 0.666992 -57.5 2s-31 2.83301 -44 4.5l-35.5 4.5c-10.667 1.33301 -21 2 -31 2c-26 0 -45.167 -5.16699 -57.5 -15.5s-18.5 -24.5 -18.5 -42.5c0 -11.333 2.5 -21 7.5 -29s13.333 -14.667 25 -20s27.334 -9.33301 47.001 -12
s44.167 -4 73.5 -4c22 0 44.333 0.5 67 1.5s44.834 2.16699 66.501 3.5s42.334 2.5 62.001 3.5s37.5 1.5 53.5 1.5c50 0 91.667 -5.66699 125 -17s60 -27.333 80 -48s34 -45 42 -73s12 -58.667 12 -92c0 -8.66699 -0.5 -17.5 -1.5 -26.5s-3.5 -17.167 -7.5 -24.5
s-10.167 -13.333 -18.5 -18s-19.833 -7 -34.5 -7h-79v0z" />
    <glyph glyph-name="uni046F" unicode="&#x46f;" horiz-adv-x="889" 
d="M566 1026c38 -11.333 71.8408 -25.8359 101.508 -43.5029s54.667 -37.834 75 -60.501s35.833 -47 46.5 -73s16 -53 16 -81c0 -19.333 -2.83301 -39.333 -8.5 -60s-14.834 -40.834 -27.501 -60.501s-29.334 -38.167 -50.001 -55.5s-46 -32 -76 -44
c30 -12 56.333 -26.5 79 -43.5s41.5 -35.667 56.5 -56s26.333 -42.166 34 -65.499s11.5 -47 11.5 -71c0 -46 -8.83301 -88.667 -26.5 -128s-43.167 -73.166 -76.5 -101.499s-74.166 -50.666 -122.499 -66.999s-103.5 -24.5 -165.5 -24.5c-26 0 -51.333 1.16699 -76 3.5
s-44.334 3.5 -59.001 3.5c-19.333 0 -34.5 -3.66699 -45.5 -11s-16.5 -19.666 -16.5 -36.999c0 -22 8.66699 -37.5 26 -46.5s42 -13.5 74 -13.5c14 0 30.333 0.5 49 1.5s38.167 2.16699 58.5 3.5s40.5 2.5 60.5 3.5s38 1.5 54 1.5c50 0 91.5 -5.83301 124.5 -17.5
s59.5 -27.667 79.5 -48s34 -44.666 42 -72.999s12 -59.166 12 -92.499c0 -8.66699 -0.5 -17.334 -1.5 -26.001s-3.5 -16.667 -7.5 -24s-10.167 -13.333 -18.5 -18s-19.833 -7 -34.5 -7h-79c-1.33301 32.667 -11.5 55.167 -30.5 67.5s-51.167 18.5 -96.5 18.5
c-32 0 -63.667 -1.66699 -95 -5s-62.333 -5 -93 -5c-48 0 -92.667 6 -134 18s-77.5 29.667 -108.5 53s-55.333 52.333 -73 87s-26.5 74.667 -26.5 120c0 35.333 5.66699 68 17 98s28.5 56 51.5 78s51.333 39.333 85 52s73.167 19 118.5 19c19.333 0 39.5 -1 60.5 -3
s39.167 -3 54.5 -3c25.333 0 47.666 3.5 66.999 10.5s35.666 16.167 48.999 27.5s23.333 24.666 30 39.999s10 31.333 10 48c0 43.333 -14.833 76 -44.5 98s-78.834 33 -147.501 33h-116v175h116c60.667 0 106.667 10.333 138 31s47 48.334 47 83.001
c0 32 -13.833 57.667 -41.5 77s-68.167 29 -121.5 29c-34 0 -62.667 -3.5 -86 -10.5s-43.5 -14.5 -60.5 -22.5s-31.667 -15.5 -44 -22.5s-24.166 -10.5 -35.499 -10.5c-12.667 0 -23.334 2.33301 -32.001 7s-18 15 -28 31l-63 104c32.667 32 71.167 59 115.5 81
s96.5 36.667 156.5 44l-211 258h157c19.333 0 35.666 -2.33301 48.999 -7s25 -14 35 -28l64 -85c5.33301 -7.33301 10.833 -15.333 16.5 -24s11.167 -17.667 16.5 -27l16 27c5.33301 8.66699 10.666 16.667 15.999 24l60 79c12.667 16.667 29.667 29.5 51 38.5
s45.666 13.5 72.999 13.5c18 0 34.5 -1.66699 49.5 -5s29.5 -7.66602 43.5 -12.999v-124h-17c-18 0 -32.167 -4.33301 -42.5 -13s-19.5 -17.334 -27.5 -26.001z" />
    <glyph glyph-name="uni0470" unicode="&#x470;" horiz-adv-x="1681" 
d="M1599 1451l-0.00292969 -522.001c0 -84.667 -13 -161.667 -39 -231s-64.5 -129.166 -115.5 -179.499s-114.5 -90.333 -190.5 -120s-164.333 -47.5 -265 -53.5v-345h-302v345c-100 6 -187.833 24 -263.5 54s-139 70.167 -190 120.5s-89.333 110 -115 179
s-38.5 145.833 -38.5 230.5v522h202c32 0 56.667 -9.5 74 -28.5s26 -42.5 26 -70.5v-423c0 -53.333 4.83301 -100.5 14.5 -141.5s26.334 -76 50.001 -105s55 -51.833 94 -68.5s87.833 -27.334 146.5 -32.001v869h302v-869c58.667 4.66699 107.834 15.334 147.501 32.001
s71.334 39.334 95.001 68.001s40.5 63.667 50.5 105s15 88.666 15 141.999v423c0 28 8.66699 51.5 26 70.5s42 28.5 74 28.5h202z" />
    <glyph glyph-name="uni0471" unicode="&#x471;" horiz-adv-x="1602" 
d="M1463 1031c8 -42.667 15.1699 -83.8311 21.5029 -123.498s11.833 -79.167 16.5 -118.5s8.16699 -79 10.5 -119s3.5 -81 3.5 -123c0 -98.667 -14.833 -181.834 -44.5 -249.501s-70.334 -123 -122.001 -166s-112.5 -75.5 -182.5 -97.5s-145 -36.667 -225 -44v-322h-276v321
c-100.667 8 -186.667 25.5 -258 52.5s-129.833 62.833 -175.5 107.5s-79.167 97 -100.5 157s-32 127 -32 201v524h191c11.333 0 22 -3.33301 32 -10s18.833 -15 26.5 -25s13.834 -21 18.501 -33s7 -23.333 7 -34v-422c0 -88.667 25.167 -157.5 75.5 -206.5
s122.166 -80.833 215.499 -95.5v1246h276v-1249c48 6 90.5 16.167 127.5 30.5s68.167 35 93.5 62s44.5 61 57.5 102s19.5 91.167 19.5 150.5c0 54 -2.5 99.667 -7.5 137s-10.5 70.5 -16.5 99.5s-11.833 55.667 -17.5 80s-8.83398 51.166 -9.50098 80.499
c0 16 2.16699 29.5 6.5 40.5s10.166 20 17.499 27s15.5 12 24.5 15s18.167 4.5 27.5 4.5h199z" />
    <glyph glyph-name="afii10147" unicode="&#x472;" horiz-adv-x="1622" 
d="M380 626c8 -61.333 23.667 -116 47 -164s53.5 -88.667 90.5 -122s80.167 -58.833 129.5 -76.5s104 -26.5 164 -26.5s114.667 8.83301 164 26.5s92.333 43.167 129 76.5s66.667 74 90 122s39 102.667 47 164h-861zM1238 845c-10 58 -26.832 110 -50.499 156
s-53.667 84.833 -90 116.5s-78.5 55.834 -126.5 72.501s-101.333 25 -160 25s-112 -8.33301 -160 -25s-90.333 -40.834 -127 -72.501s-66.834 -70.5 -90.501 -116.5s-40.5 -98 -50.5 -156h855zM811.001 1467c111.333 0 212.666 -18.835 303.999 -56.502
s169.5 -89.667 234.5 -156s115.333 -144.666 151 -234.999s53.5 -188.166 53.5 -293.499c0 -106 -17.833 -204.333 -53.5 -295s-86 -169 -151 -235s-143.167 -117.833 -234.5 -155.5s-192.666 -56.5 -303.999 -56.5s-212.666 18.833 -303.999 56.5
s-169.666 89.5 -234.999 155.5s-115.833 144.333 -151.5 235s-53.5 189 -53.5 295s17.833 204.167 53.5 294.5s86.167 168.5 151.5 234.5s143.666 117.833 234.999 155.5s192.666 56.5 303.999 56.5z" />
    <glyph glyph-name="afii10195" unicode="&#x473;" horiz-adv-x="1155" 
d="M331 436c10 -84.667 36.167 -147.834 78.5 -189.501s98.833 -62.5 169.5 -62.5c68.667 0 124 20.833 166 62.5s68.333 104.834 79 189.501h-493zM821 612c-12 78.667 -38.666 137.667 -79.999 177s-95.333 59 -162 59c-68.667 0 -123.834 -19.667 -165.501 -59
s-68.5 -98.333 -80.5 -177h488zM579.001 1047c77.333 0 147.666 -12.333 210.999 -37s117.666 -59.834 162.999 -105.501s80.333 -101.167 105 -166.5s37 -139 37 -221s-12.333 -155.833 -37 -221.5s-59.667 -121.5 -105 -167.5s-99.666 -81.333 -162.999 -106
s-133.666 -37 -210.999 -37c-78 0 -148.833 12.333 -212.5 37s-118.167 60 -163.5 106s-80.5 101.833 -105.5 167.5s-37.5 139.5 -37.5 221.5s12.5 155.667 37.5 221s60.167 120.833 105.5 166.5s99.833 80.834 163.5 105.501s134.5 37 212.5 37z" />
    <glyph glyph-name="afii10148" unicode="&#x474;" horiz-adv-x="1438" 
d="M980 1231c24.667 78 62.668 135.832 114.001 173.499s120.666 56.5 207.999 56.5c26 0 47 -1 63 -3s28.333 -5.16699 37 -9.5s14.5 -10 17.5 -17s4.5 -15.5 4.5 -25.5v-184h-54c-30.667 0 -56.334 -8 -77.001 -24s-37.667 -42 -51 -78l-408 -1120h-272l-584 1451h241
c26 0 47.167 -6.16699 63.5 -18.5s28.5 -28.166 36.5 -47.499l314 -836c12 -30.667 24 -64.667 36 -102s22.667 -76 32 -116c8.66699 40 18.334 78.667 29.001 116s22 71.333 34 102z" />
    <glyph glyph-name="afii10196" unicode="&#x475;" horiz-adv-x="1110" 
d="M701 833c12.667 44 27.8311 79.666 45.498 106.999s37.5 48.833 59.5 64.5s46.167 26.334 72.5 32.001s54.833 8.5 85.5 8.5c24.667 0 44.667 -1.33301 60 -4s27.333 -6 36 -10s14.5 -8.33301 17.5 -13s4.5 -8.66699 4.5 -12v-149h-31c-26.667 0 -49.667 -5.5 -69 -16.5
s-33.666 -29.167 -42.999 -54.5l-282 -786h-250l-407 1031h229c20 0 36.833 -4.66699 50.5 -14s22.834 -21.333 27.501 -36l175 -510c24 -70 42.333 -139 55 -207c7.33301 34 15.5 68 24.5 102s18.833 69 29.5 105z" />
    <glyph glyph-name="uni0476" unicode="&#x476;" horiz-adv-x="1438" 
d="M980 1231c24.667 78 62.668 135.832 114.001 173.499s120.666 56.5 207.999 56.5c26 0 47 -1 63 -3s28.333 -5.16699 37 -9.5s14.5 -10 17.5 -17s4.5 -15.5 4.5 -25.5v-184h-54c-30.667 0 -56.334 -8 -77.001 -24s-37.667 -42 -51 -78l-408 -1120h-272l-584 1451h241
c26 0 47.167 -6.16699 63.5 -18.5s28.5 -28.166 36.5 -47.499l314 -836c12 -30.667 24 -64.667 36 -102s22.667 -76 32 -116c8.66699 40 18.334 78.667 29.001 116s22 71.333 34 102zM740.001 1826c28.667 0 52.167 -5.00098 70.5 -15.001s32.833 -23.667 43.5 -41l134 -220
h-130c-20.667 0 -37.167 3.33301 -49.5 10s-25.833 16.334 -40.5 29.001l-206 237h178zM359.001 1826c29.333 0 53.5 -5.16602 72.5 -15.499s35.5 -23.833 49.5 -40.5l182 -220h-148c-20.667 0 -38.5 3.16699 -53.5 9.5s-30.167 16.166 -45.5 29.499l-262 237h205z" />
    <glyph glyph-name="uni0477" unicode="&#x477;" horiz-adv-x="1110" 
d="M701 833c12.667 44 27.8311 79.666 45.498 106.999s37.5 48.833 59.5 64.5s46.167 26.334 72.5 32.001s54.833 8.5 85.5 8.5c24.667 0 44.667 -1.33301 60 -4s27.333 -6 36 -10s14.5 -8.33301 17.5 -13s4.5 -8.66699 4.5 -12v-149h-31c-26.667 0 -49.667 -5.5 -69 -16.5
s-33.666 -29.167 -42.999 -54.5l-282 -786h-250l-407 1031h229c20 0 36.833 -4.66699 50.5 -14s22.834 -21.333 27.501 -36l175 -510c24 -70 42.333 -139 55 -207c7.33301 34 15.5 68 24.5 102s18.833 69 29.5 105zM568.997 1467c28.667 0 50.333 -4.66699 65 -14
s26.667 -23.333 36 -42l122 -244h-112c-21.333 0 -38.833 2.5 -52.5 7.5s-26.167 15.167 -37.5 30.5l-200 262h179zM223.996 1467c14 0 26.1689 -1.33203 36.502 -3.99902s19.166 -6.33398 26.499 -11.001s14.166 -10.5 20.499 -17.5s12.5 -14.833 18.5 -23.5l177 -244h-130
c-21.333 0 -38.333 2.83301 -51 8.5s-25.667 15.5 -39 29.5l-256 262h197z" />
    <glyph glyph-name="uni0478" unicode="&#x478;" horiz-adv-x="2673" 
d="M1555 726c0 -106 -17.833 -204.335 -53.5 -295.002s-86 -169 -151 -235s-143.167 -117.833 -234.5 -155.5s-192.666 -56.5 -303.999 -56.5s-212.666 18.833 -303.999 56.5s-169.666 89.5 -234.999 155.5s-115.833 144.333 -151.5 235s-53.5 189 -53.5 295
s17.833 204.167 53.5 294.5s86.167 168.5 151.5 234.5s143.666 117.833 234.999 155.5s192.666 56.5 303.999 56.5s212.666 -18.833 303.999 -56.5s169.5 -89.667 234.5 -156s115.333 -144.666 151 -234.999s53.5 -188.166 53.5 -293.499zM1248 725.998
c0 76 -10 144.167 -30 204.5s-48.833 111.666 -86.5 153.999s-83.334 74.666 -137.001 96.999s-114.5 33.5 -182.5 33.5s-129 -11.167 -183 -33.5s-99.833 -54.666 -137.5 -96.999s-66.5 -93.666 -86.5 -153.999s-30 -128.5 -30 -204.5c0 -76.667 10 -145.167 30 -205.5
s48.833 -111.5 86.5 -153.5s83.5 -74.167 137.5 -96.5s115 -33.5 183 -33.5s128.833 11.167 182.5 33.5s99.334 54.5 137.001 96.5s66.5 93.167 86.5 153.5s30 128.833 30 205.5zM2684 1031l-556 -1308c-8.66699 -18.667 -19.167 -32.667 -31.5 -42s-31.833 -14 -58.5 -14
h-205l195 416l-414 948h242c22 0 39 -5 51 -15s20.667 -21.667 26 -35l196 -493c7.33301 -19.333 13.833 -38.833 19.5 -58.5l16.5 -58.5c12 39.333 25.667 78.666 41 117.999l182 492c5.33301 14.667 15 26.667 29 36s29.333 14 46 14h221z" />
    <glyph glyph-name="uni0479" unicode="&#x479;" horiz-adv-x="2228" 
d="M579 1047c77.333 0 147.666 -12.333 210.999 -37s117.666 -59.834 162.999 -105.501s80.333 -101.167 105 -166.5s37 -139 37 -221s-12.333 -155.833 -37 -221.5s-59.667 -121.5 -105 -167.5s-99.666 -81.333 -162.999 -106s-133.666 -37 -210.999 -37
c-78 0 -148.833 12.333 -212.5 37s-118.167 60 -163.5 106s-80.5 101.833 -105.5 167.5s-37.5 139.5 -37.5 221.5s12.5 155.667 37.5 221s60.167 120.833 105.5 166.5s99.833 80.834 163.5 105.501s134.5 37 212.5 37zM579 192c78.667 0 137 27.167 175 81.5
s57 135.166 57 242.499c0 106.667 -19 187.167 -57 241.5s-96.333 81.5 -175 81.5c-80.667 0 -140 -27.167 -178 -81.5s-57 -134.833 -57 -241.5c0 -107.333 19 -188.166 57 -242.499s97.333 -81.5 178 -81.5zM2234 1031l-556 -1308
c-8.66699 -18.667 -19.167 -32.667 -31.5 -42s-31.833 -14 -58.5 -14h-205l195 416l-414 948h242c22 0 39 -5 51 -15s20.667 -21.667 26 -35l196 -493c7.33301 -19.333 13.833 -38.833 19.5 -58.5l16.5 -58.5c12 39.333 25.667 78.666 41 117.999l182 492
c5.33301 14.667 15 26.667 29 36s29.333 14 46 14h221z" />
    <glyph glyph-name="uni047A" unicode="&#x47a;" horiz-adv-x="1737" 
d="M1035 248c52 10.667 98.3301 29.5 138.997 56.5s75 60.833 103 101.5s49.333 87.834 64 141.501s22 113.167 22 178.5s-7.33301 125 -22 179s-36 101.167 -64 141.5s-62.167 73.833 -102.5 100.5s-86.166 45.667 -137.499 57c-20 -22.667 -44.167 -40.334 -72.5 -53.001
s-59.166 -19 -92.499 -19c-34 0 -65.167 6.5 -93.5 19.5s-52.166 30.833 -71.499 53.5c-52 -10.667 -98.667 -29.167 -140 -55.5s-76.333 -60 -105 -101s-50.5 -88.5 -65.5 -142.5s-22.5 -114 -22.5 -180s7.5 -126.167 22.5 -180.5s36.833 -102 65.5 -143
s63.667 -74.667 105 -101s88.333 -44.5 141 -54.5c19.333 22 43 39.5 71 52.5s59 19.5 93 19.5c32.667 0 63 -6.33301 91 -19s52 -30 72 -52zM1670 726c0 -95.333 -14.501 -184.334 -43.501 -267.001s-70.167 -156.167 -123.5 -220.5s-117.833 -117.666 -193.5 -159.999
s-160.167 -70.5 -253.5 -84.5c-19.333 -30 -45 -53.833 -77 -71.5s-67.667 -26.5 -107 -26.5s-74.833 8.66699 -106.5 26s-56.834 40.666 -75.501 69.999c-94 13.333 -179.333 41 -256 83s-142.167 95.333 -196.5 160s-96.333 138.667 -126 222s-44.5 173 -44.5 269
s14.833 185.667 44.5 269s71.667 157.333 126 222s119.833 117.834 196.5 159.501s162.334 69.167 257.001 82.5c19.333 29.333 44.5 52.666 75.5 69.999s66.167 26 105.5 26s74.833 -8.83301 106.5 -26.5s57.167 -41.167 76.5 -70.5
c93.333 -14 177.833 -42.167 253.5 -84.5s140.334 -95.666 194.001 -159.999s95 -138 124 -221s43.5 -171.833 43.5 -266.5z" />
    <glyph glyph-name="uni047B" unicode="&#x47b;" horiz-adv-x="1324" 
d="M850 212c87.333 41.333 130.999 142.668 130.999 304.001c0 81.333 -11 147.5 -33 198.5s-56 86.5 -102 106.5c-19.333 -30 -45 -53.833 -77 -71.5s-67.667 -26.5 -107 -26.5c-40 0 -75.833 8.66699 -107.5 26s-57.167 41 -76.5 71c-46 -20 -79.833 -55.5 -101.5 -106.5
s-32.5 -116.833 -32.5 -197.5c0 -80 10.5 -145.333 31.5 -196s53.833 -86.334 98.5 -107.001c18 32 43.5 57.667 76.5 77s70.167 29 111.5 29s78.333 -9.66699 111 -29s58.334 -45.333 77.001 -78zM1266 517.002c0 -73.333 -9.99902 -140.001 -29.999 -200.001
s-48.333 -112.5 -85 -157.5s-80.834 -81.667 -132.501 -110s-109.5 -47.5 -173.5 -57.5c-19.333 -29.333 -44.833 -52.666 -76.5 -69.999s-67.167 -26 -106.5 -26s-74.833 8.66699 -106.5 26s-57.167 41 -76.5 71c-64 10 -121.833 29.167 -173.5 57.5s-95.667 65 -132 110
s-64.5 97.5 -84.5 157.5s-30 126.333 -30 199c0 72 9.66699 137.667 29 197s47 111.333 83 156s79.5 81.334 130.5 110.001s108.167 48.334 171.5 59.001c18 32 43.5 57.833 76.5 77.5s70.5 29.5 112.5 29.5c41.333 0 78.5 -9.83301 111.5 -29.5s58.833 -45.5 77.5 -77.5
c62.667 -10 119.667 -29.333 171 -58s95 -65.334 131 -110.001s63.833 -96.834 83.5 -156.501s29.5 -125.5 29.5 -197.5z" />
    <glyph glyph-name="uni047C" unicode="&#x47c;" horiz-adv-x="2155" 
d="M1513 1655c-68 0 -127.168 6.66504 -177.501 19.998s-95.333 28 -135 44l-106.5 44c-31.333 13.333 -62 20 -92 20c-34 0 -60.833 -10.5 -80.5 -31.5s-29.5 -52.833 -29.5 -95.5h-168c0 44 6.33301 82.833 19 116.5s30.667 61.834 54 84.501s51.666 39.834 84.999 51.501
s70.666 17.5 111.999 17.5c32 0 61.833 -3.16699 89.5 -9.5s54.334 -14.5 80.001 -24.5s51 -20.5 76 -31.5s51.333 -21.5 79 -31.5s57.334 -18.167 89.001 -24.5s66.834 -9.5 105.501 -9.5v-140zM1005 1408c0 9.33301 3.33203 16.499 9.99902 21.499s18 9.16699 34 12.5
c21.333 5.33301 37.333 12.166 48 20.499s16.667 21.833 18 40.5c-6.66699 -1.33301 -12.667 -2 -18 -2c-21.333 0 -39.166 2.5 -53.499 7.5s-26 11.5 -35 19.5s-15.333 17.333 -19 28s-5.5 22 -5.5 34c0 29.333 9.5 53.5 28.5 72.5s46.167 28.5 81.5 28.5
c42 0 73.833 -13.5 95.5 -40.5s32.5 -60.833 32.5 -101.5c0 -27.333 -4.5 -52.166 -13.5 -74.499s-22.5 -41.666 -40.5 -57.999s-40.5 -29 -67.5 -38s-58.833 -13.167 -95.5 -12.5v42zM1195 1333c40 38.667 88.3398 70.5 145.007 95.5s125 37.5 205 37.5
c96 0 177.667 -19.167 245 -57.5s122.166 -90.5 164.499 -156.5s73.166 -143.167 92.499 -231.5s29 -182.833 29 -283.5c0 -115.333 -12.167 -219.5 -36.5 -312.5s-60.5 -172.167 -108.5 -237.5s-107.833 -115.5 -179.5 -150.5s-155.167 -52.5 -250.5 -52.5
c-85.333 0 -162.666 14 -231.999 42s-133 69 -191 123c-58.667 -54 -122.667 -95 -192 -123s-146.666 -42 -231.999 -42c-95.333 0 -178.833 17.5 -250.5 52.5s-131.5 85.167 -179.5 150.5s-84.167 144.5 -108.5 237.5s-36.5 197.167 -36.5 312.5
c0 100.667 9.66699 195.167 29 283.5s50.166 165.5 92.499 231.5s97.166 118.167 164.499 156.5s149 57.5 245 57.5c80 0 148.333 -12.5 205 -37.5s105 -56.833 145 -95.5l-63 -147c-10 -15.333 -19.333 -25.5 -28 -30.5s-19.334 -7.5 -32.001 -7.5
c-11.333 0 -22.833 3.5 -34.5 10.5l-39.5 23c-14.667 8.33301 -31.834 16 -51.501 23s-42.834 10.5 -69.501 10.5c-41.333 0 -78.5 -10 -111.5 -30s-60.833 -50.333 -83.5 -91s-40 -92 -52 -154s-18 -135 -18 -219c0 -78 5.66699 -147.167 17 -207.5
s29.166 -111.166 53.499 -152.499s55.666 -72.666 93.999 -93.999s84.5 -32 138.5 -32c70 0 127.667 17.667 173 53s83 87.333 113 156h223c30 -68.667 67.667 -120.667 113 -156s103 -53 173 -53c54 0 100.167 10.667 138.5 32s69.666 52.666 93.999 93.999
s42.166 92.166 53.499 152.499s17 129.5 17 207.5c0 84 -6 157 -18 219s-29.333 113.333 -52 154s-50.5 71 -83.5 91s-70.167 30 -111.5 30c-27.333 0 -50.666 -3.5 -69.999 -10.5s-36.333 -14.667 -51 -23l-39 -23c-11.333 -7 -22.666 -10.5 -33.999 -10.5
c-13.333 0 -24.333 2.5 -33 7.5s-18 15.167 -28 30.5z" />
    <glyph glyph-name="uni047D" unicode="&#x47d;" horiz-adv-x="1564" 
d="M1222 1278c-45.333 0 -86.834 3.16699 -124.501 9.5s-72 14.166 -103 23.499s-59.5 19.5 -85.5 30.5l-73.5 30.5c-23 9.33301 -44.667 17.166 -65 23.499s-40.5 9.5 -60.5 9.5c-34 0 -60.833 -10.333 -80.5 -31s-29.5 -52.667 -29.5 -96h-168
c0 44 6.33301 82.833 19 116.5s30.667 61.834 54 84.501s51.666 39.834 84.999 51.501s70.666 17.5 111.999 17.5c32 0 61.833 -3.16699 89.5 -9.5s54.334 -14.5 80.001 -24.5s51.167 -20.5 76.5 -31.5s51.833 -21.5 79.5 -31.5s57.334 -18.167 89.001 -24.5
s66.834 -9.5 105.501 -9.5v-139zM712.999 1030c0 9.33301 3.33203 16.501 9.99902 21.501s18 9.16699 34 12.5c21.333 5.33301 37.333 12.166 48 20.499s16.667 22.166 18 41.499c-6.66699 -1.33301 -12.667 -2 -18 -2c-21.333 0 -39.166 2.5 -53.499 7.5s-26 11.5 -35 19.5
s-15.333 17.333 -19 28s-5.5 21.667 -5.5 33c0 29.333 9.5 53.666 28.5 72.999s46.167 29 81.5 29c42 0 73.833 -13.667 95.5 -41s32.5 -61.333 32.5 -102c0 -27.333 -4.5 -52.166 -13.5 -74.499s-22.5 -41.666 -40.5 -57.999s-40.5 -28.833 -67.5 -37.5
s-58.833 -13 -95.5 -13v42zM848.998 942.001c30 28.667 66.1631 52.335 108.496 71.002s93.833 28 154.5 28c70.667 0 130.5 -13.667 179.5 -41s88.833 -64.5 119.5 -111.5s52.834 -102 66.501 -165s20.5 -130.167 20.5 -201.5c0 -80 -8.33301 -152.667 -25 -218
s-42 -121.333 -76 -168s-77.167 -82.834 -129.5 -108.501s-114.166 -38.5 -185.499 -38.5c-60 0 -114.5 9.33301 -163.5 28s-94.5 46 -136.5 82c-42 -36 -87.333 -63.333 -136 -82s-103 -28 -163 -28c-71.333 0 -133.166 12.833 -185.499 38.5
s-95.666 61.834 -129.999 108.501s-59.833 102.667 -76.5 168s-25 138 -25 218c0 71.333 7 138.5 21 201.5s36.333 118 67 165s70.5 84.167 119.5 111.5s108.5 41 178.5 41c60.667 0 112.5 -9.33301 155.5 -28s79.167 -42.334 108.5 -71.001l-54 -131
c-9.33301 -14 -17.833 -23 -25.5 -27s-17.167 -6 -28.5 -6c-9.33301 0 -18.333 2.16699 -27 6.5s-17.834 9.16602 -27.501 14.499s-20.334 10.166 -32.001 14.499s-25.5 6.5 -41.5 6.5c-22.667 0 -43.334 -5.83301 -62.001 -17.5s-34.5 -30 -47.5 -55
s-23.167 -57.167 -30.5 -96.5s-11 -87 -11 -143c0 -46.667 2.66699 -88.5 8 -125.5s14.666 -68.167 27.999 -93.5s31.333 -44.833 54 -58.5s51.334 -20.5 86.001 -20.5c44.667 0 80.834 11.667 108.501 35s51.5 60.666 71.5 111.999h195
c19.333 -51.333 43 -88.666 71 -111.999s64.333 -35 109 -35c34.667 0 63.334 6.83301 86.001 20.5s40.5 33.167 53.5 58.5s22.167 56.5 27.5 93.5s8 78.833 8 125.5c0 56 -3.5 103.667 -10.5 143s-17 71.5 -30 96.5s-28.833 43.333 -47.5 55s-39.334 17.5 -62.001 17.5
c-16 0 -29.833 -2.16699 -41.5 -6.5s-22.5 -9.16602 -32.5 -14.499l-28 -14.5c-8.66699 -4.33301 -17.667 -6.5 -27 -6.5c-11.333 0 -20.666 2 -27.999 6s-15.666 13 -24.999 27z" />
    <glyph glyph-name="uni047E" unicode="&#x47e;" horiz-adv-x="2153" 
d="M1195 1333c40 38.667 88.1719 70.5 144.505 95.5s124.5 37.5 204.5 37.5c96 0 177.667 -19.167 245 -57.5s122.166 -90.5 164.499 -156.5s73.166 -143.167 92.499 -231.5s29 -182.833 29 -283.5c0 -115.333 -12.167 -219.5 -36.5 -312.5s-60.5 -172.167 -108.5 -237.5
s-107.833 -115.5 -179.5 -150.5s-155.167 -52.5 -250.5 -52.5c-85.333 0 -162.666 14 -231.999 42s-133 68.667 -191 122c-58 -53.333 -121.667 -94 -191 -122s-147 -42 -233 -42c-95.333 0 -178.833 17.5 -250.5 52.5s-131.5 85.167 -179.5 150.5
s-84.167 144.5 -108.5 237.5s-36.5 197.167 -36.5 312.5c0 100.667 9.66699 195.167 29 283.5s50.333 165.5 93 231.5s97.667 118.167 165 156.5s149 57.5 245 57.5c79.333 0 147.333 -12.5 204 -37.5s105 -56.833 145 -95.5l-63 -147c-10 -15.333 -19.333 -25.5 -28 -30.5
s-19.334 -7.5 -32.001 -7.5c-11.333 0 -22.833 3.5 -34.5 10.5l-39.5 23c-14.667 8.33301 -31.834 16 -51.501 23s-42.834 10.5 -69.501 10.5c-41.333 0 -78.333 -10 -111 -30s-60.334 -50.333 -83.001 -91s-40 -92 -52 -154s-18 -135 -18 -219
c0 -78 5.66699 -147.167 17 -207.5s29 -111.166 53 -152.499s55.167 -72.666 93.5 -93.999s84.5 -32 138.5 -32c48.667 0 93.334 8.66699 134.001 26s78.334 43 113.001 77v442h302v-443c34.667 -34 72.167 -59.5 112.5 -76.5s84.833 -25.5 133.5 -25.5
c54 0 100.167 10.667 138.5 32s69.666 52.666 93.999 93.999s42.166 92.166 53.499 152.499s17 129.5 17 207.5c0 84 -6 157 -18 219s-29.333 113.333 -52 154s-50.334 71 -83.001 91s-69.667 30 -111 30c-27.333 0 -50.666 -3.5 -69.999 -10.5s-36.333 -14.667 -51 -23
l-39.5 -23c-11.667 -7 -23.167 -10.5 -34.5 -10.5c-12.667 0 -23.5 2.5 -32.5 7.5s-18.5 15.167 -28.5 30.5zM1528 1801c0 -10.667 -0.670898 -19.501 -2.00391 -26.501s-3 -14.5 -5 -22.5l-68 -214c-3.33301 -10.667 -8.83301 -18.667 -16.5 -24s-15.5 -8 -23.5 -8
s-15.667 2.66699 -23 8s-12.666 13.333 -15.999 24l-39 131h-178l-42 -131c-3.33301 -10.667 -8.83301 -18.667 -16.5 -24s-15.5 -8 -23.5 -8s-15.667 2.66699 -23 8s-12.666 13.333 -15.999 24l-39 131h-181l-42 -131c-3.33301 -10.667 -8.83301 -18.667 -16.5 -24
s-15.667 -8 -24 -8s-16.166 2.66699 -23.499 8s-12.666 13.333 -15.999 24l-63 213c-1.33301 7.33301 -2.83301 14.833 -4.5 22.5s-2.5 16.834 -2.5 27.501h904z" />
    <glyph glyph-name="uni047F" unicode="&#x47f;" horiz-adv-x="1574" 
d="M1451 1031c13.333 -61.333 23.332 -118.331 29.999 -170.998s10 -105.334 10 -158.001c0 -77.333 -6.66699 -149 -20 -215s-32.5 -127.5 -57.5 -184.5s-55.667 -110.333 -92 -160s-77.5 -97.167 -123.5 -142.5h-162c-14 0 -25.333 2.66699 -34 8s-18.334 14 -29.001 26
c-34 36 -67.333 77.833 -100 125.5s-61.667 99.834 -87 156.501c-24.667 -55.333 -53.167 -107 -85.5 -155s-65.5 -90.667 -99.5 -128c-5.33301 -6 -10 -11 -14 -15s-8 -7.33301 -12 -10s-8.5 -4.66699 -13.5 -6s-11.5 -2 -19.5 -2h-166
c-38.667 38 -75.167 79.667 -109.5 125s-64.166 92.833 -89.499 142.5s-45.5 101.167 -60.5 154.5s-22.5 107 -22.5 161v448h189c27.333 0 47 -8 59 -24s18 -34 18 -54v-340c0 -76.667 13.667 -145.334 41 -206.001s63 -113 107 -157c20 22 39 46.333 57 73
s33.5 55.334 46.5 86.001s23.333 63.167 31 97.5s11.5 69.5 11.5 105.5v419h188c28 0 48 -8 60 -24s18 -34 18 -54v-331c0 -72.667 12.833 -140.334 38.5 -203.001s61.5 -119 107.5 -169c20.667 22 40.667 47.333 60 76s36.5 61.334 51.5 98.001s27 77.667 36 123
s13.5 95.666 13.5 150.999c0 40 -2.16699 74.5 -6.5 103.5s-9 54 -14 75s-9.66699 39 -14 54s-6.5 28.5 -6.5 40.5c0 15.333 4.83301 29.166 14.5 41.499s23.834 18.5 42.501 18.5h208zM1239 1381c0 -10.667 -0.670898 -19.501 -2.00391 -26.501s-3 -14.5 -5 -22.5l-68 -214
c-3.33301 -10.667 -8.83301 -18.667 -16.5 -24s-15.5 -8 -23.5 -8s-15.667 2.66699 -23 8s-12.666 13.333 -15.999 24l-39 131h-178l-42 -131c-3.33301 -10.667 -8.83301 -18.667 -16.5 -24s-15.5 -8 -23.5 -8s-15.667 2.66699 -23 8s-12.666 13.333 -15.999 24l-39 131
h-181l-42 -131c-3.33301 -10.667 -8.83301 -18.667 -16.5 -24s-15.667 -8 -24 -8s-16.166 2.66699 -23.499 8s-12.666 13.333 -15.999 24l-63 213c-1.33301 7.33301 -2.83301 14.833 -4.5 22.5s-2.5 16.834 -2.5 27.501h904z" />
    <glyph glyph-name="uni0480" unicode="&#x480;" horiz-adv-x="1270" 
d="M860 -5c-16.667 -1.33301 -32.8311 -2.16406 -48.498 -2.49707s-28.5 -0.5 -38.5 -0.5c-108.667 0 -206.334 18.167 -293.001 54.5s-160.334 87 -221.001 152s-107.334 142.333 -140.001 232s-49 188.167 -49 295.5c0 72 8 140.5 24 205.5s38.667 124.833 68 179.5
s65.333 104 108 148s90.667 81.5 144 112.5s111.5 54.667 174.5 71s130.167 24.5 201.5 24.5c53.333 0 103.833 -4.66699 151.5 -14s92.167 -22.333 133.5 -39s79.5 -36.834 114.5 -60.501s66.5 -49.5 94.5 -77.5l-101 -138c-6 -8.66699 -13.667 -16.334 -23 -23.001
s-22 -10 -38 -10c-16.667 0 -33 5.66699 -49 17s-36 24 -60 38s-53.667 26.667 -89 38s-80.666 17 -135.999 17c-60.667 0 -116.167 -11 -166.5 -33s-93.666 -53.833 -129.999 -95.5s-64.5 -92.834 -84.5 -153.501s-30 -129.667 -30 -207c0 -78 10.5 -147.5 31.5 -208.5
s50.167 -112.5 87.5 -154.5s81.5 -73.833 132.5 -95.5s106.167 -32.5 165.5 -32.5c40.667 0 72.667 1.83301 96 5.5s42.333 7.5 57 11.5s27.5 7.83301 38.5 11.5s24.5 5.5 40.5 5.5h85v-531c0 -24.667 -7.33301 -44.167 -22 -58.5s-33.334 -21.5 -56.001 -21.5h-173v337z
" />
    <glyph glyph-name="uni0481" unicode="&#x481;" horiz-adv-x="941" 
d="M573 -14c-7.33301 -0.666992 -14.8301 -0.999023 -22.4971 -0.999023h-22.5c-63.333 0 -123.333 11.833 -180 35.5s-106.334 58.167 -149.001 103.5s-76.5 101 -101.5 167s-37.5 141.333 -37.5 226c0 75.333 11 145.333 33 210s54.333 120.667 97 168
s95.5 84.5 158.5 111.5s135.833 40.5 218.5 40.5c78.667 0 147.667 -12.667 207 -38s112.666 -62 159.999 -110l-72 -98c-8 -10.667 -16 -18.834 -24 -24.501s-19.333 -8.5 -34 -8.5c-13.333 0 -26.166 3.83301 -38.499 11.5s-26.5 16 -42.5 25s-35 17.333 -57 25
s-49.333 11.5 -82 11.5c-41.333 0 -77.166 -7.5 -107.499 -22.5s-55.5 -36.5 -75.5 -64.5s-34.833 -62 -44.5 -102s-14.5 -85 -14.5 -135c0 -105.333 21.167 -186 63.5 -242s100.166 -84 173.499 -84c23.333 0 42.833 1.83301 58.5 5.5s28.667 7.5 39 11.5
s18.666 7.83301 24.999 11.5s11.833 5.5 16.5 5.5h105v-488c0 -24.667 -7.33301 -44.167 -22 -58.5s-33.334 -21.5 -56.001 -21.5h-172v329z" />
    <glyph glyph-name="uni0482" unicode="&#x482;" horiz-adv-x="1470" 
d="M952 799l-206 -300l360 -247l-136 -196l-360 247l-220 -320l-230 149l225 326l-361 248l135 196l361 -247l206 299l-362 248l136 196l361 -248l219 319l231 -149l-224 -325l359 -247l-135 -196z" />
    <glyph glyph-name="uni0483" unicode="&#x483;" 
d="M191 1176v-99.001h-72c-20 0 -39.167 3 -57.5 9s-34.5 15 -48.5 27s-25.167 26.833 -33.5 44.5s-12.5 38.167 -12.5 61.5c0 24.667 4 46.167 12 64.5s18.833 33.333 32.5 45s29.834 20.334 48.501 26.001s38.667 8.5 60 8.5h489v99h72c20 0 39.167 -3 57.5 -9
s34.5 -15 48.5 -27s25.167 -27 33.5 -45s12.5 -38.667 12.5 -62c0 -25.333 -4 -47 -12 -65s-19 -32.833 -33 -44.5s-30.333 -20.167 -49 -25.5s-38.334 -8 -59.001 -8h-489z" />
    <glyph glyph-name="uni0484" unicode="&#x484;" 
d="M523 1302c-25.333 0 -48.8311 -3.49902 -70.498 -10.499s-43.5 -15.833 -65.5 -26.5l-69 -35c-24 -12.667 -51.333 -24.334 -82 -35.001s-65.5 -19.5 -104.5 -26.5s-84.5 -10.5 -136.5 -10.5v162c43.333 0 82 3.66699 116 11s65.333 16.333 94 27s55.5 22.5 80.5 35.5
s50.5 24.833 76.5 35.5s53.667 19.667 83 27s62.333 11 99 11c52.667 0 97.334 -6.5 134.001 -19.5s66.5 -32.5 89.5 -58.5s39.667 -58.167 50 -96.5s15.5 -82.833 15.5 -133.5h-195c0 29.333 -3.33301 53.333 -10 72s-15.334 33.167 -26.001 43.5
s-22.834 17.5 -36.501 21.5s-27.834 6 -42.501 6z" />
    <glyph glyph-name="uni0485" unicode="&#x485;" 
d="M534 1102c-45.333 -0.666992 -84.666 5.33008 -117.999 17.9971s-61 29.834 -83 51.501s-38.5 47.167 -49.5 76.5s-16.5 60.333 -16.5 93c0 50 13.333 88.667 40 116s66 41 118 41c42.667 0 75.667 -11.667 99 -35s35 -53 35 -89c0 -14 -2.33301 -27.5 -7 -40.5
s-12.334 -24.667 -23.001 -35s-24.834 -18.5 -42.501 -24.5s-39.5 -9 -65.5 -9h-11c-3.33301 0 -6.66602 0.333008 -9.99902 1c3.33301 -20 11.333 -35.167 24 -45.5s31 -18.166 55 -23.499c20.667 -4.66699 35 -10.167 43 -16.5s12 -15.166 12 -26.499v-52z" />
    <glyph glyph-name="uni0486" unicode="&#x486;" 
d="M292 1153c0 10.667 4 19.333 12 26s22 12 42 16c26 5.33301 45.333 13 58 23s20 26 22 48c-3.33301 -0.666992 -6.66602 -1.16699 -9.99902 -1.5s-7 -0.5 -11 -0.5c-26 0 -47.833 3 -65.5 9s-31.834 14 -42.501 24s-18.334 21.667 -23.001 35s-7 27 -7 41
c0 36 11.5 65.5 34.5 88.5s56.167 34.5 99.5 34.5c26 0 48.833 -4.5 68.5 -13.5s36.167 -21.167 49.5 -36.5s23.333 -33.5 30 -54.5s10 -43.833 10 -68.5c0 -32.667 -5.5 -62.667 -16.5 -90s-27.667 -51 -50 -71s-50.166 -35.333 -83.499 -46s-72.333 -16 -117 -16v53z" />
    <glyph glyph-name="uni0488" unicode="&#x488;" horiz-adv-x="2276" 
d="M1137 23c46.667 0 87.667 -6.5 123 -19.5s64.666 -31.167 87.999 -54.5s40.833 -51 52.5 -83s17.5 -67 17.5 -105h-192c0 32 -5.83301 56 -17.5 72s-35.5 24 -71.5 24c-35.333 0 -58.666 -8 -69.999 -24s-17 -40 -17 -72h-193c0 38 5.83301 73 17.5 105
s29.167 59.667 52.5 83s52.5 41.5 87.5 54.5s75.833 19.5 122.5 19.5zM1137 1610c46.667 0 87.667 -6.5 123 -19.5s64.666 -31.167 87.999 -54.5s40.833 -51.166 52.5 -83.499s17.5 -67.5 17.5 -105.5h-192c0 32.667 -5.83301 57 -17.5 73s-35.5 24 -71.5 24
c-35.333 0 -58.666 -8 -69.999 -24s-17 -40.333 -17 -73h-193c0 38 5.83301 73.167 17.5 105.5s29.167 60.166 52.5 83.499s52.5 41.5 87.5 54.5s75.833 19.5 122.5 19.5zM339 817c46.667 0 87.499 -6.5 122.499 -19.5s64.333 -31.167 88 -54.5
s41.334 -51.166 53.001 -83.499s17.5 -67.5 17.5 -105.5h-193c0 32.667 -5.66699 57 -17 73s-35 24 -71 24s-59.667 -8 -71 -24s-17 -40.333 -17 -73h-192c0 38 5.83301 73.167 17.5 105.5s29.167 60.166 52.5 83.499s52.5 41.5 87.5 54.5s75.833 19.5 122.5 19.5zM1936 817
c46.667 0 87.499 -6.5 122.499 -19.5s64.333 -31.167 88 -54.5s41.334 -51.166 53.001 -83.499s17.5 -67.5 17.5 -105.5h-193c0 32.667 -5.66699 57 -17 73s-35 24 -71 24s-59.5 -8 -70.5 -24s-16.5 -40.333 -16.5 -73h-193c0 38 5.83301 73.167 17.5 105.5
s29.167 60.166 52.5 83.499s52.5 41.5 87.5 54.5s75.833 19.5 122.5 19.5zM531.998 368c46.667 0 87.668 -6.5 123.001 -19.5s64.666 -31.167 87.999 -54.5s40.833 -51 52.5 -83s17.5 -67 17.5 -105h-192c0 32 -5.83301 56 -17.5 72s-35.5 24 -71.5 24s-59.5 -8 -70.5 -24
s-16.5 -40 -16.5 -72h-193c0 38 5.83301 73 17.5 105s29.167 59.667 52.5 83s52.5 41.5 87.5 54.5s75.833 19.5 122.5 19.5zM1743 368c46.667 0 87.499 -6.5 122.499 -19.5s64.333 -31.167 88 -54.5s41.334 -51 53.001 -83s17.5 -67 17.5 -105h-193
c0 32 -5.83301 56 -17.5 72s-35.167 24 -70.5 24c-36 0 -59.667 -8 -71 -24s-17 -40 -17 -72h-192c0 38 5.83301 73 17.5 105s29.167 59.667 52.5 83s52.5 41.5 87.5 54.5s75.833 19.5 122.5 19.5zM531.998 1264c46.667 0 87.668 -6.5 123.001 -19.5
s64.666 -31.167 87.999 -54.5s40.833 -51 52.5 -83s17.5 -67 17.5 -105h-192c0 32.667 -5.83301 56.834 -17.5 72.501s-35.5 23.5 -71.5 23.5s-59.5 -7.83301 -70.5 -23.5s-16.5 -39.834 -16.5 -72.501h-193c0 38 5.83301 73 17.5 105s29.167 59.667 52.5 83
s52.5 41.5 87.5 54.5s75.833 19.5 122.5 19.5zM1743 1264c46.667 0 87.499 -6.5 122.499 -19.5s64.333 -31.167 88 -54.5s41.334 -51 53.001 -83s17.5 -67 17.5 -105h-193c0 32.667 -5.83301 56.834 -17.5 72.501s-35.167 23.5 -70.5 23.5c-36 0 -59.667 -7.83301 -71 -23.5
s-17 -39.834 -17 -72.501h-192c0 38 5.83301 73 17.5 105s29.167 59.667 52.5 83s52.5 41.5 87.5 54.5s75.833 19.5 122.5 19.5z" />
    <glyph glyph-name="uni0489" unicode="&#x489;" horiz-adv-x="2197" 
d="M1908 1280c0.666992 -8.66699 0 -15.8301 -2 -21.4971s-6 -11.167 -12 -16.5c-3.33301 -4 -8.83301 -6.83301 -16.5 -8.5s-15.167 -2.5 -22.5 -2.5c-10 -0.666992 -22 -1.33398 -36 -2.00098s-29 -2.33398 -45 -5.00098s-32.5 -6.66699 -49.5 -12s-33.167 -13 -48.5 -23
c13.333 -14 23 -29.333 29 -46s8.5 -33.5 7.5 -50.5s-5.33301 -33.833 -13 -50.5s-18.5 -32 -32.5 -46c-13.333 -12.667 -27.833 -22.167 -43.5 -28.5s-32 -9.33301 -49 -9s-34 4.16602 -51 11.499s-32.833 18 -47.5 32c-17.333 17.333 -29.5 35.5 -36.5 54.5
s-9.5 38 -7.5 57s8 37.333 18 55s22.667 34.167 38 49.5c20.667 20.667 46.167 39.5 76.5 56.5s63.5 31 99.5 42s74.5 18.5 115.5 22.5s83.167 3.33301 126.5 -2zM80 760.004c9.33301 12 21.332 18.001 35.999 18.001c5.33301 0 11.333 -2 18 -6s12.667 -8.66699 18 -14
l26.5 -24c10.333 -9.33301 22 -18.833 35 -28.5s27.333 -18.5 43 -26.5s32.167 -14 49.5 -18c0.666992 19.333 5 37 13 53s18.5 29.667 31.5 41s28.167 20.166 45.5 26.499s36 9.5 56 9.5c18 0 35 -3.33301 51 -10s30 -16 42 -28s21.333 -26.5 28 -43.5s10 -35.5 10 -55.5
c0 -24 -4.5 -45 -13.5 -63s-21 -33 -36 -45s-32.333 -21 -52 -27s-40.5 -9 -62.5 -9c-29.333 0 -60.666 4.5 -93.999 13.5s-66.666 22.333 -99.999 40s-65.833 39.5 -97.5 65.5s-60.834 56 -87.501 90zM294.999 4.00488c-1.33301 8.66699 -0.832031 15.8301 1.50098 21.4971
s6.16602 11.167 11.499 16.5c4 4 9.66699 6.83301 17 8.5s14.666 2.5 21.999 2.5c10 0.666992 22.167 1.33398 36.5 2.00098s29.5 2.33398 45.5 5.00098s32.333 6.66699 49 12s32.667 13 48 23c-13.333 14 -23 29.333 -29 46s-8.5 33.5 -7.5 50.5s5.5 33.833 13.5 50.5
s19 32 33 46c12.667 12.667 27 22.167 43 28.5s32.5 9.33301 49.5 9s33.833 -4.16602 50.5 -11.499s32.334 -18 47.001 -32c17.333 -17.333 29.5 -35.5 36.5 -54.5s9.5 -38 7.5 -57s-7.83301 -37.333 -17.5 -55s-22.5 -34.167 -38.5 -49.5
c-20.667 -20.667 -46 -39.5 -76 -56.5s-63 -31 -99 -42s-74.667 -18.5 -116 -22.5s-83.333 -3.33301 -126 2zM461 1447c8.66699 1.33301 15.8291 0.833984 21.4961 -1.49902s11.5 -6.16602 17.5 -11.499c4 -3.33301 7 -8.66602 9 -15.999s2.66699 -14.666 2 -21.999
c0.666992 -10 1.33398 -22 2.00098 -36s2.33398 -29 5.00098 -45s6.5 -32.5 11.5 -49.5s12.167 -33.167 21.5 -48.5c14.667 12.667 30.5 22 47.5 28s34.167 8.5 51.5 7.5s34.333 -5.33301 51 -13s32 -18.5 46 -32.5c12.667 -12.667 22.334 -26.834 29.001 -42.501
s9.83398 -31.834 9.50098 -48.501s-4.16602 -33.334 -11.499 -50.001s-18.333 -32.334 -33 -47.001c-18 -17.333 -36.5 -29.166 -55.5 -35.499s-38.167 -8.5 -57.5 -6.5s-38 7.66699 -56 17s-35 21.666 -51 36.999c-20.667 20.667 -39.5 46 -56.5 76s-31 63 -42 99
s-18.333 74.167 -22 114.5s-2.83398 81.833 2.49902 124.5zM983.995 -376.998c-7.33301 5.33301 -12.166 10.6641 -14.499 15.9971s-3.5 12 -3.5 20c0 5.33301 1.83301 11 5.5 17s8.16699 11.667 13.5 17l25 27c10 10.667 19.667 22.667 29 36s18.166 27.833 26.499 43.5
s14.5 32.5 18.5 50.5c-20 0.666992 -38 4.83398 -54 12.501s-29.833 17.834 -41.5 30.501s-20.667 27.5 -27 44.5s-9.5 35.5 -9.5 55.5c0 18 3.33301 34.833 10 50.5s16.167 29.167 28.5 40.5s27 20.333 44 27s35.833 10 56.5 10c24.667 0 46.167 -4.33301 64.5 -13
s33.5 -20.334 45.5 -35.001s21 -31.667 27 -51s9 -39.666 9 -60.999c0 -29.333 -4.5 -60.666 -13.5 -93.999s-22.333 -66.5 -40 -99.5s-39.667 -65.333 -66 -97s-56.833 -60.5 -91.5 -86.5zM1219 1661c7.33301 -5.33301 12.166 -10.6641 14.499 -15.9971s3.5 -12 3.5 -20
c0 -5.33301 -2 -11 -6 -17s-8.66699 -11.667 -14 -17l-24.5 -27c-9.66699 -10.667 -19.167 -22.667 -28.5 -36s-18.166 -27.833 -26.499 -43.5s-14.5 -32.5 -18.5 -50.5c19.333 -0.666992 37.166 -4.83398 53.499 -12.501s30.333 -17.834 42 -30.501s20.667 -27.5 27 -44.5
s9.5 -35.5 9.5 -55.5c0 -18 -3.33301 -34.833 -10 -50.5s-16.167 -29.167 -28.5 -40.5s-27 -20.333 -44 -27s-35.833 -10 -56.5 -10c-25.333 0 -47.166 4.33301 -65.499 13s-33.5 20.334 -45.5 35.001s-21 31.667 -27 51s-9 39.666 -9 60.999
c0 29.333 4.5 60.666 13.5 93.999s22.5 66.5 40.5 99.5s40.167 65.333 66.5 97s56.5 60.5 90.5 86.5zM1741 -162.998c-8.66699 -1.33301 -15.8281 -0.835938 -21.4951 1.49707s-11.167 6.16602 -16.5 11.499c-4 3.33301 -7 8.66602 -9 15.999s-2.66699 14.666 -2 21.999
c-0.666992 10 -1.33398 22.167 -2.00098 36.5s-2.33398 29.5 -5.00098 45.5s-6.66699 32.333 -12 49s-12.666 32.667 -21.999 48c-14.667 -13.333 -30.334 -22.833 -47.001 -28.5s-33.667 -8 -51 -7s-34.5 5.33301 -51.5 13s-32.5 18.5 -46.5 32.5
c-12.667 12.667 -22.167 26.834 -28.5 42.501s-9.33301 31.834 -9 48.501s4.16602 33.334 11.499 50.001s18.333 32.334 33 47.001c17.333 16.667 35.666 28.334 54.999 35.001s38.5 9 57.5 7s37.667 -7.66699 56 -17s35.166 -21.666 50.499 -36.999
c20.667 -21.333 39.5 -46.833 56.5 -76.5s31 -62.5 42 -98.5s18.5 -74.167 22.5 -114.5s3.33301 -81.833 -2 -124.5zM2123 523.999c-10 -12 -22.334 -17.999 -37.001 -17.999c-5.33301 0 -11.166 2 -17.5 6c-6.33301 4 -12.166 8.66699 -17.499 14l-26.5 24
c-10.333 9.33301 -22.166 18.666 -35.499 27.999s-27.833 18.166 -43.5 26.499s-32.167 14.5 -49.5 18.5c-0.666992 -19.333 -4.83398 -37 -12.501 -53s-18 -29.667 -31 -41s-28.167 -20.166 -45.5 -26.499s-36 -9.5 -56 -9.5c-18.667 0 -36 3.33301 -52 10
s-29.833 16 -41.5 28s-20.834 26.5 -27.501 43.5s-10 35.5 -10 55.5c0 24 4.5 45 13.5 63s21 33 36 45s32.167 21 51.5 27s40 9 62 9c29.333 0 60.666 -4.5 93.999 -13.5s66.833 -22.333 100.5 -40s66.334 -39.5 98.001 -65.5s60.834 -56 87.501 -90z" />
    <glyph glyph-name="uni048A" unicode="&#x48a;" horiz-adv-x="1625" 
d="M1073 1817c19.333 0 33.502 -8 42.502 -24s13.5 -33 13.5 -51c0 -34.667 -8.16699 -65 -24.5 -91s-39.5 -47.833 -69.5 -65.5s-65.833 -30.834 -107.5 -39.501s-87.834 -13 -138.501 -13s-96.834 4.33301 -138.501 13s-77.5 21.834 -107.5 39.501
s-53.167 39.5 -69.5 65.5s-24.5 56.333 -24.5 91c0 18 4.5 35 13.5 51s23.167 24 42.5 24h163c0 -30 1.83301 -54.5 5.5 -73.5s10 -34.167 19 -45.5s21.333 -19.166 37 -23.499s35.5 -6.5 59.5 -6.5s43.833 2.16699 59.5 6.5s28 12.166 37 23.499s15.333 26.5 19 45.5
s5.5 43.5 5.5 73.5h163zM1599 227l-161 -569h-293l107 342h-159v865c0 36 1 73.833 3 113.5s6 81.5 12 125.5c-14.667 -39.333 -30.334 -76 -47.001 -110s-32.667 -63.667 -48 -89l-503 -813c-6.66699 -11.333 -14.667 -22.333 -24 -33s-19.5 -20.5 -30.5 -29.5
s-23 -16.167 -36 -21.5s-26.833 -8 -41.5 -8h-226v1451h302v-865c0 -36 -1 -73.833 -3 -113.5s-6 -81.5 -12 -125.5c14.667 39.333 30.334 76 47.001 110s32.667 63.667 48 89l503 814c6.66699 10.667 14.667 21.5 24 32.5s19.5 20.833 30.5 29.5s23 15.667 36 21
s26.833 8 41.5 8h226v-1224h204z" />
    <glyph glyph-name="uni048B" unicode="&#x48b;" horiz-adv-x="1263" 
d="M885 1451c19.333 0 33.502 -8 42.502 -24s13.5 -33 13.5 -51c0 -34.667 -8.16699 -65.834 -24.5 -93.501s-39.5 -51.167 -69.5 -70.5s-65.833 -34.166 -107.5 -44.499s-87.834 -15.5 -138.501 -15.5s-96.834 5.16699 -138.501 15.5s-77.5 25.166 -107.5 44.499
s-53.167 42.833 -69.5 70.5s-24.5 58.834 -24.5 93.501c0 18 4.5 35 13.5 51s23.167 24 42.5 24h163c0 -30 1.83301 -54.833 5.5 -74.5s10 -35.5 19 -47.5s21.333 -20.5 37 -25.5s35.5 -7.5 59.5 -7.5s43.833 2.5 59.5 7.5s28 13.5 37 25.5s15.333 27.833 19 47.5
s5.5 44.5 5.5 74.5h163zM1254 201l-153.001 -543h-258l107 342h-168v567c0 15.333 0.833008 32.833 2.5 52.5s4.16699 39.167 7.5 58.5c-15.333 -33.333 -31 -61.666 -47 -84.999c-1.33301 -1.33301 -7.33301 -10 -18 -26l-42 -61.5l-58.5 -84.5l-66.5 -96l-179 -259
c-5.33301 -8 -11.5 -15.833 -18.5 -23.5s-14.667 -14.834 -23 -21.501s-17.166 -12 -26.499 -16s-19.333 -6 -30 -6h-169v1031h276v-567c0 -16 -1 -34 -3 -54s-4.66699 -39.667 -8 -59c8 17.333 16 33.333 24 48s16 27.667 24 39c0.666992 1.33301 6.5 10 17.5 26l42.5 61.5
l58.5 84.5l66.5 96l180 259c10 16 23.5 31.167 40.5 45.5s36.167 21.5 57.5 21.5h168v-830h196z" />
    <glyph glyph-name="uni048C" unicode="&#x48c;" horiz-adv-x="1360" 
d="M786 230c47.333 0 86.665 5.33203 117.998 15.999s56.333 25.167 75 43.5s31.834 39.5 39.501 63.5s11.5 49.333 11.5 76c0 30 -3.83301 57.333 -11.5 82s-20.667 45.834 -39 63.501s-43.166 31.167 -74.499 40.5s-71 14 -119 14h-218v-399h218zM785.999 859.999
c96.667 0 179.333 -10.668 248 -32.001s124.5 -50.333 167.5 -87s74.5 -79.167 94.5 -127.5s30 -99.833 30 -154.5c0 -69.333 -12.167 -132.166 -36.5 -188.499s-59.5 -104.5 -105.5 -144.5s-102.5 -71 -169.5 -93s-143.167 -33 -228.5 -33h-518v1049h-234v218h234v184h300
v-184h344v-218h-344v-189h218z" />
    <glyph glyph-name="uni048D" unicode="&#x48d;" horiz-adv-x="1064" 
d="M635 193c48.667 0 85.5 13 110.5 39s37.5 59.333 37.5 100c0 17.333 -2.83301 34 -8.5 50s-14.5 30 -26.5 42s-27.5 21.667 -46.5 29s-41.5 11 -67.5 11h-169v-271h170zM633 657c72 0 133.169 -8.83301 183.502 -26.5s91.166 -41.334 122.499 -71.001s54 -64 68 -103
s21 -80.167 21 -123.5c0 -49.333 -8.83301 -94.333 -26.5 -135s-43.334 -75.667 -77.001 -105s-74.667 -52.166 -123 -68.499s-103.5 -24.5 -165.5 -24.5h-432v750h-166v192h166v115h261v-115h210v-192h-210v-93h168z" />
    </font>
</defs>
</svg>
