<svg xmlns="http://www.w3.org/2000/svg" viewBox="0 0 1340.14 177.12"><path fill="#FFF" d="M406.4.8a91.2 91.2 0 0 1 25.8.3l1 .4 21.4 40 42.8 7.5a93.6 93.6 0 0 1 8.4 26.5c-9.5 11-19.6 21.3-29.3 32l3.8 30.8c.4 4 1.2 8 1 12v.3a96 96 0 0 1-22.4 16.6l-40-19-40.4 19.4a92.5 92.5 0 0 1-21.5-15.2l5.4-45c-10.5-11-20.7-22.2-31.4-33a90 90 0 0 1 8.3-26l-.6 1.5 44.8-8.8c1.3 0 1.6-1.4 2.2-2.2 6.8-12.8 14-25.4 20.7-38.2z"/><path fill="#D6161B" d="M339.3 48.4C352 22.8 378 4 406.3.8c-6.7 12.8-13.8 25.4-20.6 38.2-.6.8-1 2-2.2 2.2L338.7 50l.5-1.6zM432.2 1c27.8 4 53 22.6 65.2 48l-42.8-7.6-21.5-40-.8-.3z"/><path fill="#FFF" d="M41.7 3.7C43 3 44.4 3.2 46 3c13.3.2 27 0 40.3.2a3.8 3.8 0 0 1 3.6 5l-31 115A3.8 3.8 0 0 0 63 128h81.8a3.8 3.8 0 0 1 3.8 5c-2 8-4.4 16-6.5 24.2a4 4 0 0 1-4.5 3.3H4.5c-2.8.4-5.4-2.5-4.2-5.2L40 6.3a4.2 4.2 0 0 1 1.7-2.6zm159.8.3c2.2-1 4.6-.8 7-1Q268 3.3 328 3a5.3 5.3 0 0 1 4.3 1.6c2 2 1 5.5 0 7.8A119 119 0 0 0 317.8 33c-.7 1.3-1.7 2.8-3.4 2.6h-70a4.6 4.6 0 0 0-5 3.3c-2 6.7-3.7 13.5-5.5 20.4a4.5 4.5 0 0 0 4 6c21.4 0 42.6-.2 64 0a4.5 4.5 0 0 1 4 5.6c-1.8 7.6-4 15-6 22.7a4.5 4.5 0 0 1-4.4 3.6h-68.2a4.5 4.5 0 0 0-4.4 3.3l-6 22.5a4.5 4.5 0 0 0 5 5.4h84.4a4.7 4.7 0 0 1 4.3 6.3l-6 22.4a5 5 0 0 1-5.5 3.5H162.6a4 4 0 0 1-4-5L197.6 9a7.2 7.2 0 0 1 4-5.2zm343 4a6 6 0 0 1 6-4.8H583a6 6 0 0 1 6 3.5q21 40.3 42.3 80.6a1.4 1.4 0 0 0 2.8 0c8-28 15.4-56 23-84H700a3.7 3.7 0 0 1 3.8 4.7l-39 147.2c-.6 3-3 5.5-6 5.3H626a5.8 5.8 0 0 1-5.3-3.3l-43.3-76c-.7-1-1-2.5-2.4-2.6-1.6.3-1.4 2-1.8 3.2l-19.7 75.4a3.7 3.7 0 0 1-3.7 3.3q-21.6 0-43-.3a2.8 2.8 0 0 1-2-4.7A109.4 109.4 0 0 0 527.5 79c-.2-2.6-.8-5.4 0-8l17-63zm292.3-1.2H850c-5.4 8.6-11 17-16.3 25.7-4 6-7.4 12.7-13 17.4-5 4-11.8 3.4-17.8 3.5l1-9.2c4.2.2 9.2.2 11.3-4l-8.8-33.5H819c1.3 8 3 16 4 24 5-8 9.2-16 14-24zm46.6 0h13.2c-2.7 5.2-5.2 10.6-8.2 15.7a16.2 16.2 0 0 1-8 6.5c3.7.8 5.4 4.4 6 7.8l2 16h-13c-.7-5.2-.8-10.5-2-15.6-2-4.3-7.8-2.8-11.6-3l-4 18.6h-12.2l10-46h12.2l-3.8 18c4 0 9 .3 11.6-3.4 3-4.6 5-9.8 7.8-14.6zm21.9-.1H916c3.5 8.7 6.6 17.4 9.6 26.2 7.3-8.7 14.2-17.6 21.3-26.2h12l-10.4 46H936l5-21.5c-4.5 5.2-8.8 10.4-13.5 15.4h-9c-2.2-5-4-10.3-6.2-15.4-1.6 7-3.2 14.2-5 21.3-4 .6-8.3 0-12.4.3 3.3-15.5 6.8-31 10.3-46.3zm136.4.1h13.3l-7 13.6a18 18 0 0 1-9 8.6c3.5 1 5 4.5 5.6 7.8.8 5.3 1.4 10.7 2 16h-13c-.7-5.2-.7-10.6-2-15.8-2-4-7.6-2.6-11.4-3l-4 18.7H1004l10-46h12.2l-3.8 18c4 0 9.3.3 11.8-3.7 2.8-4.6 5-9.6 7.6-14.3zm22.6-.1h37l-2.2 9.6h-24.4l-2 8.6h21.6l-2.2 9.3h-21.4c-.8 3-1.5 6-2 9h26c-1 3.2-1.6 6.3-2.4 9.5h-38.4l10.5-46.2zm91 6.9c3.7-4.8 10-6.8 16-7.2 6.8-.4 14.2.8 20 5-2.4 2.7-4.8 5.3-7 8a16.8 16.8 0 0 0-14.5-2.7 8.7 8.7 0 0 0-6.2 6.8c-1 4.7-2.2 9.5-3 14.3 0 2.8 2.6 4.7 5 5.2a22.3 22.3 0 0 0 14.5-3c2 3 3.7 6 5.4 9-6.4 3.6-14 4.6-21.3 4-6-.4-12.5-3.3-15-9.2-2-4.7 0-9.8 1-14.6 1.3-5.2 1.7-11 5.2-15.6zm44.3-6.8h12.3l-4 18c4 0 9 .3 11.6-3.3 3-4.7 5.2-10 8-14.8h13q-3.3 6.8-7 13.6c-2 3.8-5 7.2-9 8.6 3.5 1 5.2 4.4 5.7 7.7.8 5.4 1.4 10.8 2 16h-13c-.6-5-.7-10.2-1.8-15.3-2-4.4-7.7-3-11.5-3.3-1.5 6.4-2.7 12.6-4 19h-12.3l10-46.2zM958.5 53L969 6.7h37q-1.2 4.7-2.2 9.5h-24.5l-2 8.6h21.5l-2 9.3H975l-2 9h26l-2.3 9.5h-38.6zM1144 12a13 13 0 0 0-10.5-5.2h-23.7l-10.5 46h12.5c1.4-5.5 2.5-11 4-16.7 4.6 0 9.4.3 14 0 6.4-.5 12.6-4.2 15-10 2-4.5 2-10-.7-14zm-13.3 14c-4 1.4-8.5.5-12.8.8.8-3.5 1.5-7 2.4-10.3 4 .4 8.5-.8 12.4 1 3.3 2 1.2 7.2-2 8.5zm190.5-19.2c-6 0-12.3-.6-17.7 2.5-6.5 3.2-10 11.5-7 18.3a11.2 11.2 0 0 0 5 5c-2.7 1-4.3 3.5-5.5 5.8-2.5 4.8-5 9.6-7.3 14.5h14.2c2.2-4.8 4-9.7 6.7-14.2 2.5-4 7.7-3.3 11.7-3.3-1.3 5.8-2.8 11.6-4 17.4h12.7l10-46.3zm2.3 19.2c-4-.2-8.3.5-12.3-.4-4-1.5-3-7.7 1-8.6 4.4-1.3 9-.4 13.6-.7l-2.2 9.7zm-45.8-19.2h-13l-29.3 46h13.7l5.2-9h17.4l1.3 9h13l-8.3-46zM1259.4 35l9-16c1 5.4 1.6 10.7 2 16zM793 27c-6-4.7-14.3-3-21.5-3.4l1.7-7.3h21.6l2.2-9.5h-34.2l-10.4 46H776c6 .3 12.5-1 17-5.4 5.3-5.2 6.5-15.5 0-20.4zm-8 10.7a6.5 6.5 0 0 1-6.2 5.4c-4 .4-8 .2-11.8.3.8-3.4 1.5-7 2.4-10.2 3.7.2 7.5 0 11.2.2 2.3 0 4.8 2 4.4 4.5z"/><path fill="#D6161B" d="M393.5 55.4h49l15 46.4c-13 9.8-26.3 19.3-39.6 29L378.2 102l15.2-46.6zm-62.7 18.9v.2c10.8 10.7 21 22 31.6 33l-5.3 45c-21-19.6-31-50-26.2-78.2z"/><path fill="#FFF" d="M746 74.6h12.3l-3.8 18c3 0 6.6.4 9.4-1.3 2.2-1.4 3.3-4 4.5-6.2 1.7-3.4 3.6-6.7 5.2-10.2 4.5-.4 9 0 13.4-.2-2 4.4-4.4 8.8-6.6 13.2-2 4-5 7.5-9.3 9 3.3 1 5 4 5.7 7.3 1 5.6 1.5 11.2 2.2 16.8h-13c-1-5-1-10.4-2-15.4-1.8-4.6-7.8-3-11.6-3.4l-4 18.8H736c3.4-15.4 6.8-30.8 10-46.2zm100.6.4c4-.8 8.4-.2 12.6-.4l-4 18h17l4-18H889l-10.6 46.2h-12.6c1.4-6.2 3-12.4 4.3-18.6h-17c-1.5 6.2-3 12.4-4.3 18.6H836l10.6-46zm47.2-.4h39.8l-2 9.7h-13.7c-3 12-5.6 24.3-8.4 36.4H897l8.4-36.4h-13.7l2-9.7z"/><path fill="#D6161B" d="M476.5 107.5c9.7-10.7 19.8-21 29.3-32 4.2 27-4.8 56-24.4 75 0-4.2-.7-8.2-1-12.2l-4-30.8z"/><path fill="#FFF" d="M827.8 77.6c-6.2-3.6-14-4.2-21-2.5s-12.7 7-14 14c-1.2 5.7-3 11.3-3.6 17-.4 6 4.4 11.2 9.8 13.2a31 31 0 0 0 23-.5c5.6-2.4 8.6-8.3 9.5-14 1-5 2.3-10 3-15s-2.5-9.6-6.7-12zm-9.2 28c-1.8 6.5-11.3 7.6-15.7 3.3-2.8-3.3-.3-7.4.2-11 1.3-4.6 1-11 6.4-13 4.4-2 11.8-.8 12.3 5-.7 5-2.2 10.4-3.4 15.6zM970 79.2c-6-4.8-14-5.8-21.4-4.5a20 20 0 0 0-13 7.6c-3 4-3.3 9.2-4.5 13.8-1 4.8-2.8 9.6-1.2 14.4 1.6 5 6.3 8 11 9.5a32 32 0 0 0 20-.8 16.3 16.3 0 0 0 10-11.6q2-8.5 3.6-17a12 12 0 0 0-4.5-11.4zm-10 21c-1 3.8-1.6 9-6 10.4-4.2 1.8-11.5 1-12.4-4.6.5-4.8 2-9.5 3-14.3.4-3 2-6 5-7 4.3-1.6 11-.6 12.3 4.4 0 3.8-1.6 7.5-2 11.2zm60.7-20.5a13.4 13.4 0 0 0-11-5h-23l-10.6 46h12.7l3.8-16.7c4.8 0 9.7.2 14.5-.2 6.2-.5 12.2-4.2 14.7-10 2-4.5 2-10-1-14zm-13.7 14c-4 1.3-8.3.5-12.4.7l2.3-10.2c4 .3 8.2-.6 12 .7 4 2 1.6 7.7-2 8.8zm49-19.1h-12.6c-10 15.3-19.7 30.8-29.6 46.2h13.7l5.2-9c5.8-.2 11.6 0 17.3 0 .5 3 1 6 1.3 9h13.2q-4-23-8.4-46.2zm-18 28.3c2.8-5.5 6-10.8 9-16l2 16h-11z"/><path fill="#D6161B" d="M378.6 167.6l40.4-19.4 40 19c-24.7 13-55.7 13.3-80.4.5z"/></svg>