<svg xmlns="http://www.w3.org/2000/svg" width="34" height="34" viewBox="0 0 34 34"><g><g><path d="M34 33.999h-2.656c0-7.91-6.435-14.344-14.344-14.344C9.09 19.655 2.656 26.09 2.656 34H0c0-4.54 1.768-8.81 4.98-12.02a16.929 16.929 0 0 1 6.46-4.052 9.824 9.824 0 0 1-4.268-8.1C7.172 4.408 11.58 0 17 0c5.42 0 9.828 4.409 9.828 9.829a9.825 9.825 0 0 1-4.267 8.099 16.93 16.93 0 0 1 6.46 4.051A16.89 16.89 0 0 1 34 34zM24.172 9.828c0-3.955-3.217-7.172-7.172-7.172-3.955 0-7.172 3.217-7.172 7.172 0 3.954 3.217 7.171 7.172 7.171 3.955 0 7.172-3.217 7.172-7.171z"/></g></g></svg>