<svg xmlns="http://www.w3.org/2000/svg" width="635.477" height="635.477"><g fill="#1c6ac9"><path d="M513.804 570.147c0 19.138-17.223 34.658-38.432 34.658H160.663c-21.238 0-38.465-15.53-38.465-34.658V273.949h391.596v296.199h.01zM91.469 243.798v350.641c0 22.678 19.916 41.038 44.441 41.038h363.667c24.524 0 44.44-18.36 44.44-41.038V243.798H91.469zm422.967-62.762H121.041V64.508c0-18.56 17.31-33.608 38.64-33.608H475.79c21.336 0 38.646 15.049 38.646 33.608v116.528zM499.558 0H135.9c-24.535 0-44.441 21.341-44.441 47.66v165.268h452.539V47.65c0-26.319-19.916-47.65-44.44-47.65z"/><path d="M197.32 138.516c0 7.697-6.9 13.921-15.423 13.921-8.504 0-15.413-6.224-15.413-13.921V76.051c0-7.688 6.89-13.911 15.413-13.911 8.514 0 15.423 6.224 15.423 13.911v62.465zm0 282.477c0 10.162-6.9 18.457-15.423 18.457-8.504 0-15.413-8.266-15.413-18.457v-82.697c0-10.172 6.89-18.447 15.413-18.447 8.514 0 15.423 8.256 15.423 18.447v82.697z"/></g></svg>