<svg width="24" height="25" viewBox="0 0 24 25" fill="none" xmlns="http://www.w3.org/2000/svg">
<path d="M19 11.8379H5C3.89543 11.8379 3 12.7333 3 13.8379V20.8379C3 21.9425 3.89543 22.8379 5 22.8379H19C20.1046 22.8379 21 21.9425 21 20.8379V13.8379C21 12.7333 20.1046 11.8379 19 11.8379Z" stroke="#4B4A4B" stroke-linecap="round" stroke-linejoin="round"/>
<path d="M7 11.8379V7.83789C7 6.51181 7.52678 5.24004 8.46447 4.30236C9.40215 3.36467 10.6739 2.83789 12 2.83789C13.3261 2.83789 14.5979 3.36467 15.5355 4.30236C16.4732 5.24004 17 6.51181 17 7.83789V11.8379" stroke="#4B4A4B" stroke-linecap="round" stroke-linejoin="round"/>
</svg>
