<svg xmlns="http://www.w3.org/2000/svg" xmlns:xlink="http://www.w3.org/1999/xlink" viewBox="0 0 70 31" id="svg16" width="70" height="31"><defs id="defs9"><style id="style2">.cls-1,.cls-2{fill:#596776}</style><symbol id="logo_koshelek_rus_compact_color" data-name="logo_koshelek_rus_compact_color" viewBox="0 0 344.39 154.77"><path class="cls-1" d="M168.72 87.74h5.41v12.11H178l7-12.11h5.87l-8.42 14.16v.1l8.92 15.5h-6.12l-7.25-13h-3.85v13h-5.41zm34.74 7.88c6.54 0 11.77 4.65 11.77 11.19 0 6.54-5.23 11.19-11.72 11.19s-11.73-4.61-11.73-11.19c0-6.58 5.22-11.2 11.69-11.2zm0 17.85a6.67 6.67 0 1 0-6.33-6.66 6.36 6.36 0 0 0 6.38 6.65zm16-17.35h5.07V113h6.66V96.12h5.07V113H243V96.12h5v21.37h-28.49zm43.79-.5c6.12 0 9.47 4.48 9.47 10.14a17 17 0 0 1-.17 2.05H257.9a6.05 6.05 0 0 0 6.41 5.66 10.1 10.1 0 0 0 6.12-2.35l2.1 3.81a13.52 13.52 0 0 1-8.59 3.06c-7.08 0-11.52-5.11-11.52-11.19-.01-6.58 4.47-11.19 10.88-11.19zm4.15 8.55c0-2.85-1.89-4.53-4.27-4.53a5.12 5.12 0 0 0-5.15 4.53zm7.84 8.84c2.64-.38 4.48-2.6 4.48-10.18v-6.7h15.59v21.37H290v-17.07h-5.2v2.39c0 9.3-2.47 14.67-9.55 14.88zm35.29-17.39c6.12 0 9.47 4.48 9.47 10.14a17 17 0 0 1-.17 2.05h-14.66a6.05 6.05 0 0 0 6.41 5.66 10.1 10.1 0 0 0 6.12-2.35l2.1 3.81a13.52 13.52 0 0 1-8.59 3.06c-7.08 0-11.52-5.11-11.52-11.19-.01-6.58 4.48-11.19 10.89-11.19zm4.15 8.55c0-2.85-1.89-4.53-4.27-4.53a5.12 5.12 0 0 0-5.15 4.53zm9.8-8h5.32v8.17h2.6l5.2-8.17h5.91l-6.79 10.18v.08l7.63 11.1h-6.16l-5.61-8.67h-2.77v8.67h-5.32z" id="path4" fill="#596776"/><path class="cls-2" d="M243.37 22.79v50.53a1.37 1.37 0 0 1-1.37 1.37h-10.32a1.37 1.37 0 0 1-1.37-1.37V22.79a1.37 1.37 0 0 1 1.37-1.37H242a1.37 1.37 0 0 1 1.37 1.37zm80.43-1.37h-11.55a1.37 1.37 0 0 0-1.31 1l-9.14 29.82-10-29.89a1.37 1.37 0 0 0-1.3-.93h-8.06a1.37 1.37 0 0 0-1.3.93L271 52.24l-9.14-29.86a1.37 1.37 0 0 0-1.31-1H249a1.38 1.38 0 0 0-1.11.57 1.35 1.35 0 0 0-.19 1.23l17 50.55a1.37 1.37 0 0 0 1.3.93h9.17a1.37 1.37 0 0 0 1.3-.93l9.95-29.53 9.95 29.53a1.37 1.37 0 0 0 1.3.93h9.17a1.37 1.37 0 0 0 1.3-.93l17-50.55a1.35 1.35 0 0 0-.19-1.23 1.38 1.38 0 0 0-1.15-.53zm17.37 0h-10.32a1.37 1.37 0 0 0-1.37 1.37v50.53a1.37 1.37 0 0 0 1.37 1.37h10.32a1.37 1.37 0 0 0 1.37-1.37V22.79a1.37 1.37 0 0 0-1.37-1.37zM224.33 73a1 1 0 0 1-.8 1.74h-12.65a1.73 1.73 0 0 1-1.33-.62l-2.14-2.58a28 28 0 1 1 8.34-8.36zm-25.07-11.3l-5.54-6.7a1.07 1.07 0 0 1 .82-1.76h11.59a16.37 16.37 0 0 0 .86-5.22c0-8.35-6.21-15.54-14.74-15.54-8.53 0-14.74 7.2-14.74 15.54s6.21 15.44 14.74 15.44a14.3 14.3 0 0 0 7.01-1.76zm-76.41 42.44c.45 3-.5 4.27-1.46 4.27s-2.36-1.22-3.9-3.64-2.08-5.11-1.33-6.5a2.15 2.15 0 0 1 2.87-.81c2.55.96 3.55 4.87 3.82 6.67zm-14.13 6.58c3.06 2.59 4 5.67 2.37 7.84a5 5 0 0 1-4.11 1.85 7.3 7.3 0 0 1-4.68-1.7c-2.78-2.43-3.6-6.38-1.78-8.62a4.05 4.05 0 0 1 3.25-1.36 7.82 7.82 0 0 1 4.95 1.98zm-5.12 25c13.19 0 27.5 4.52 43.34 18.56 1.59 1.41 3.7-.34 2.32-2.09-15.57-19.66-30-23.4-44.33-26.56C87.37 121.74 78.33 111.85 72 101c-1.25-2.16-1.81-1.78-1.93 1a61.41 61.41 0 0 0 .93 12.3h-2.14a45.5 45.5 0 1 1 45.5-45.5 46 46 0 0 1-.29 5.29 68.22 68.22 0 0 0-14.45-.27c-1.73.15-1.48 1-.18 1.19 15 2.72 25.37 12 27.74 29a.42.42 0 0 0 .76.17 68.84 68.84 0 1 0-59.08 33.5c10.05-.02 20.06-1.98 34.74-1.98z" id="path6" fill="#596776"/></symbol></defs><title id="title11">logo-qiwi-wallet-new</title><g id="main" transform="matrix(.54945 0 0 .54126 -.005 -.27)" stroke-width="1.834"><use width="344.39" height="154.77" transform="matrix(.37 0 0 .37 0 .5)" xlink:href="#logo_koshelek_rus_compact_color" id="use13"/></g></svg>