<svg xmlns="http://www.w3.org/2000/svg" viewBox="0 0 159.60562 361.23162" width="35.01" height="26"><g stroke-width="5.846"><path d="M315.68 361.011v.94h.909a.99.99 0 0 0 .497-.119.407.407 0 0 0 .181-.355.391.391 0 0 0-.181-.347c-.124-.082-.296-.119-.497-.119zm.918-.657c.469 0 .832.1 1.09.301.258.201.382.475.382.822a.917.917 0 0 1-.306.72c-.2.183-.487.302-.87.347l1.205 1.323h-.937l-1.118-1.314h-.363v1.314h-.784v-3.513zm-.239 4.727c.43 0 .832-.082 1.195-.237.373-.155.698-.365.975-.63.277-.264.497-.575.66-.94a2.887 2.887 0 0 0 0-2.3 3.031 3.031 0 0 0-.66-.94 3.147 3.147 0 0 0-.975-.629 3.186 3.186 0 0 0-1.195-.219 3.3 3.3 0 0 0-1.213.22 3.129 3.129 0 0 0-.994.629 2.854 2.854 0 0 0-.65.94c-.163.356-.24.739-.24 1.15 0 .41.077.793.24 1.15.153.364.373.675.65.94.277.264.611.474.994.629.372.155.783.237 1.213.237m0-6.743c.564 0 1.08.1 1.577.3a4.02 4.02 0 0 1 1.281.813c.363.337.65.739.86 1.204.21.457.316.95.316 1.47s-.106 1.012-.316 1.469a3.92 3.92 0 0 1-.86 1.204 4.363 4.363 0 0 1-1.28.812 4.139 4.139 0 0 1-1.578.301c-.573 0-1.099-.1-1.596-.3a4.174 4.174 0 0 1-1.29-.813 3.918 3.918 0 0 1-.86-1.204 3.478 3.478 0 0 1-.315-1.47c0-.52.105-1.012.315-1.469.21-.465.497-.867.86-1.204a3.86 3.86 0 0 1 1.29-.812 4.197 4.197 0 0 1 1.596-.301M-56 344.805c0-6.698 4.597-12.2 12.11-12.2 7.177 0 12.022 5.265 12.022 12.2s-4.845 12.2-12.023 12.2c-7.512 0-12.109-5.502-12.109-12.2m32.313 0V325.75h-8.678v4.627c-2.752-3.431-6.929-5.585-12.606-5.585-11.191 0-19.965 8.377-19.965 20.012 0 11.644 8.774 20.011 19.965 20.011 5.677 0 9.854-2.153 12.606-5.584v4.626h8.678zm293.255 0c0-6.698 4.597-12.2 12.11-12.2 7.186 0 12.022 5.265 12.022 12.2s-4.836 12.2-12.023 12.2c-7.512 0-12.109-5.502-12.109-12.2m32.323 0v-34.357h-8.688v19.93c-2.752-3.431-6.929-5.585-12.606-5.585-11.191 0-19.965 8.377-19.965 20.012 0 11.644 8.774 20.011 19.965 20.011 5.677 0 9.854-2.153 12.606-5.584v4.626h8.688zM84.032 332.212c5.591 0 9.185 3.349 10.102 9.244h-20.71c.927-5.503 4.424-9.244 10.608-9.244m.172-7.419c-11.698 0-19.879 8.13-19.879 20.012 0 12.118 8.515 20.011 20.462 20.011 6.012 0 11.517-1.432 16.362-5.338l-4.253-6.141c-3.345 2.546-7.607 3.988-11.612 3.988-5.591 0-10.685-2.473-11.937-9.335h29.637c.086-1.032.172-2.072.172-3.185-.086-11.881-7.77-20.012-18.952-20.012m104.786 20.012c0-6.698 4.597-12.2 12.109-12.2 7.177 0 12.023 5.265 12.023 12.2s-4.846 12.2-12.023 12.2c-7.512 0-12.11-5.502-12.11-12.2m32.314 0V325.75h-8.678v4.627c-2.762-3.431-6.93-5.585-12.606-5.585-11.192 0-19.965 8.377-19.965 20.012 0 11.644 8.773 20.011 19.965 20.011 5.677 0 9.844-2.153 12.606-5.584v4.626h8.678zm-81.323 0c0 11.561 8.43 20.011 21.294 20.011 6.011 0 10.016-1.277 14.355-4.544l-4.167-6.698c-3.26 2.236-6.68 3.431-10.446 3.431-6.93-.082-12.023-4.864-12.023-12.2 0-7.337 5.094-12.119 12.023-12.2 3.765 0 7.187 1.195 10.446 3.43l4.167-6.697c-4.34-3.267-8.344-4.545-14.355-4.545-12.864 0-21.294 8.45-21.294 20.012m111.887-20.012c-5.008 0-8.267 2.236-10.522 5.585v-4.627h-8.602v38.107h8.688v-21.362c0-6.305 2.838-9.81 8.515-9.81 1.759 0 3.594.238 5.429.959l2.676-7.812c-1.921-.72-4.425-1.04-6.184-1.04m-232.633 3.988c-4.177-2.628-9.93-3.988-16.276-3.988-10.112 0-16.62 4.627-16.62 12.2 0 6.215 4.845 10.047 13.772 11.243l4.1.557c4.76.638 7.005 1.834 7.005 3.987 0 2.948-3.173 4.627-9.098 4.627-6.012 0-10.35-1.834-13.275-3.988l-4.09 6.452c4.759 3.349 10.77 4.945 17.279 4.945 11.526 0 18.206-5.183 18.206-12.437 0-6.698-5.256-10.202-13.944-11.398l-4.09-.565c-3.756-.475-6.767-1.187-6.767-3.742 0-2.792 2.839-4.462 7.598-4.462 5.094 0 10.026 1.834 12.444 3.267zm111.973-3.988c-5.008 0-8.267 2.236-10.513 5.585v-4.627h-8.602v38.107h8.678v-21.362c0-6.305 2.839-9.81 8.516-9.81 1.758 0 3.593.238 5.428.959l2.676-7.812c-1.92-.72-4.425-1.04-6.183-1.04m-74.06.958H42.955V314.19H34.18v11.561h-8.095v7.574h8.095v17.384c0 8.842 3.594 14.107 13.858 14.107 3.766 0 8.105-1.113 10.857-2.947l-2.504-7.1c-2.59 1.433-5.428 2.154-7.684 2.154-4.339 0-5.753-2.555-5.753-6.378v-17.22h14.192zM-72.61 363.858v-23.917c0-9.007-6.012-15.066-15.703-15.148-5.094-.082-10.35 1.433-14.03 6.78-2.753-4.225-7.092-6.78-13.19-6.78-4.262 0-8.429 1.196-11.688 5.658v-4.7h-8.687v38.107h8.764v-21.125c0-6.615 3.842-10.129 9.777-10.129 5.763 0 8.678 3.587 8.678 10.047v21.207h8.773v-21.125c0-6.615 4.005-10.129 9.768-10.129 5.925 0 8.764 3.587 8.764 10.047v21.207z" fill="#59677f" fill-opacity=".941"/><path d="M148.238 261.072H16.715V35.386h131.523z" fill="none"/><path d="M25.14 148.21c0-45.78 22.45-86.561 57.41-112.842C56.986 16.15 24.72 4.68-10.345 4.68c-83.014 0-150.307 64.26-150.307 143.53 0 79.272 67.293 143.532 150.307 143.532 35.066 0 67.331-11.47 92.897-30.689-34.96-26.28-57.41-67.061-57.41-112.842" fill="#59677f" fill-opacity=".941"/><path d="M325.764 148.21c0 79.272-67.292 143.532-150.307 143.532-35.065 0-67.33-11.47-92.906-30.689 34.97-26.28 57.42-67.061 57.42-112.842 0-45.782-22.45-86.562-57.42-112.843C108.126 16.15 140.391 4.68 175.457 4.68c83.015 0 150.307 64.26 150.307 143.53" fill="#596776" fill-opacity=".941"/></g></svg>