<svg xmlns="http://www.w3.org/2000/svg" viewBox="0 0 93.000003 24.999999" width="93" height="25"><g stroke-width="2.558"><path fill="none" stroke-width="3.982" d="M0 0h93v25.148H0z"/><g fill="#596776"><path d="M14.895 6.333v6.482c0 .296-.248.518-.578.518h-.866c-.042 0-.083.037-.083.074v5.445c.207 0 .413.037.66.037 3.879 0 7.015-2.815 7.015-6.296 0-3.223-2.682-5.89-6.148-6.26zm-.165 9.704c-.495 0-.867-.37-.867-.778 0-.444.413-.777.867-.777.495 0 .866.37.866.777.042.408-.371.778-.866.778zm2.063 0c-.495 0-.867-.37-.867-.778 0-.444.413-.777.867-.777.495 0 .866.37.866.777 0 .408-.371.778-.866.778zm2.063 0c-.495 0-.867-.37-.867-.778 0-.444.413-.777.867-.777.495 0 .866.37.866.777 0 .408-.371.778-.866.778z"/><path d="M14.028 6.296c-3.878 0-7.014 2.815-7.014 6.297 0 3.037 2.352 5.555 5.529 6.148v-5.667c0-.26.248-.481.536-.518h.867c.041 0 .082-.037.082-.074zm-1.361 5.186c-.495 0-.867-.37-.867-.778 0-.445.413-.778.867-.778.495 0 .866.37.866.778 0 .407-.371.778-.866.778zm68.038.629v-2.37H78.93v6.296h1.775v-2.555h3.548v2.555h1.733V9.741h-1.733v2.37zM55.04 10.445c-.288-.556-.866-.852-1.443-.852-.578 0-1.156.296-1.444.852l-2.847 5.592h1.856l.62-1.333h3.63l.62 1.333h1.856zm-2.681 3l1.073-2.297c.04-.074.082-.074.123-.074.042 0 .124 0 .124.074l1.073 2.297zM34.163 8.593c-.825 0-1.361.407-1.733 1.185l-2.269 4.74-2.27-4.74c-.37-.778-.907-1.185-1.732-1.185-.784 0-1.568.481-1.568 1.555V16h1.733v-5.667l2.31 4.704c.29.667.826 1.074 1.527 1.074.743 0 1.238-.407 1.527-1.074l2.31-4.704v5.704h1.733v-5.852c0-1.074-.784-1.592-1.568-1.592zm4.663 6.111c-.083 0-.165-.074-.165-.148v-1.111h4.373v-1.297h-4.373v-.963c0-.074.082-.148.165-.148h4.332V9.704h-5.199c-.619 0-1.031.444-1.031.926v4.407c0 .482.454.926 1.031.926h5.199V14.63h-4.332zm7.261 1.333v-4.815c0-.074.083-.148.165-.148h4.333V9.741h-5.199c-.619 0-1.032.444-1.032.926V16h1.733zm31.688-3.148c0-2.185-1.073-3.222-3.713-3.222h-.62c-2.64 0-3.713 1.037-3.713 3.222 0 2.148 1.073 3.222 3.714 3.222h.577c2.682-.037 3.755-1.074 3.755-3.222zm-3.755 1.889h-.577c-1.444 0-2.022-.593-2.022-1.889 0-1.26.495-1.889 2.022-1.889h.577c1.486 0 2.022.63 2.022 1.889 0 1.296-.536 1.889-2.022 1.889zM64.86 8.74h-3.465c-2.6 0-3.631 1.186-3.631 3.223 0 .333.041.63.082.889.29 1.444 1.238 2.333 3.673 2.333h.784V16h1.732v-.815h.743c2.435 0 3.383-.889 3.672-2.333.042-.26.083-.556.083-.889-.041-2.037-1.114-3.222-3.672-3.222zm-2.64 5.149h-.784c-1.196 0-1.609-.407-1.857-1.037-.082-.222-.082-.556-.082-.889 0-1.333.701-1.889 1.692-1.889h1.072v3.815zm4.456-1c-.247.63-.701 1.037-1.857 1.037h-.784v-3.852h1.073c.99 0 1.692.556 1.692 1.889-.041.37-.041.667-.124.926z"/></g></g></svg>