<svg xmlns="http://www.w3.org/2000/svg" viewBox="0 0 69 25" width="69" height="25"><path d="M68.782 15.606s-1.453.227-3.196.227c-2.106 0-2.47-.681-2.47-2.348v-1.97c0-1.667.364-2.348 2.47-2.348 1.526 0 2.978.227 2.978.227l.218-3.03s-1.888-.228-3.486-.228c-4.285 0-5.883 1.44-5.883 4.925v3.03c0 3.864 1.888 4.924 5.883 4.924 1.598 0 3.704-.227 3.704-.227zM47.211 9.394h3.558v9.318h3.705V9.394h3.559l.218-3.182H46.993zm-5.666-3.106l-3.05 7.045h-.218l-3.123-7.12H31.74l-.799 12.5h3.486l.364-6.061h.217l2.252 4.772h2.397l1.96-4.772h.219l.436 6.06h3.559l-.872-12.424zM22.298 0H2.469C1.09 0 0 1.136 0 2.5v20C0 23.864 1.09 25 2.47 25h19.828c1.38 0 2.47-1.136 2.47-2.5v-20c0-1.364-1.09-2.5-2.47-2.5zm-9.95 21.742c-4.65 0-6.683-3.712-6.683-7.424 0-5.227 3.56-11.136 6.682-11.136 3.124 0 6.682 5.909 6.682 11.136.073 3.712-2.033 7.424-6.682 7.424z" fill="#596776" fill-rule="evenodd"/></svg>