<svg xmlns="http://www.w3.org/2000/svg" width="62" height="23"><path d="M0 8.1v3.32l9.102-.985V6.84L0 8.099m2.904 3.523V23h3.333V11.287l-3.333.335m7.427-4.951V23h3.511V6.185l-3.511.486m4.165-.577v3.757l5.07-.55V5.394l-5.07.701m0 6.553v3.824l3.328-.178v-3.928l-3.328.282m0 6.581V23h5.07v-3.922l-5.07.15M32.678 3.574V23h4.603V2.937l-4.603.637m5.463-.756v4.469l6.708-.726V1.89l-6.708.927m0 7.83v4.55l4.396-.236v-4.685l-4.396.37m0 7.878V23h6.708v-4.674l-6.708.199M20.908 5.207V23h4V4.654l-4 .553m4.746 13.69V23h5.806v-4.275l-5.806.172M59.887 1.67C58.433.318 56.3-.237 53.967.093v4.956c.944-.052 1.71.293 2.051.988.539 1.095-.017 2.739-1.328 4.261-2.023 2.35-7.403 7.16-7.403 7.16l7.723-.25c4.72-4.538 6.414-7.292 6.718-10.73a5.826 5.826 0 0 0-1.84-4.808M62 23v-5.186l-15.665.465m0 0l.002 4.72H62M53.066.205c-4.55.954-6.785 4.249-6.528 9.625l4.853-.423c-.221-3.038.723-3.758 1.677-4.155L53.066.204" fill="#596776"/></svg>