<svg xmlns="http://www.w3.org/2000/svg" viewBox="0 0 291.764 291.764" width="64" height="21"><g stroke-width=".32"><path d="M66.28.39L21.656 291.568h71.33L137.582.389H66.28zM281.438 119c-24.927-12.907-40.208-21.618-40.208-34.819.305-12.002 12.922-24.298 41.098-24.298 23.174-.61 40.207 5.1 53.129 10.782l6.473 3.029 9.697-60.922C337.537 7.062 315.198.77 287.605.77c-70.44 0-120.04 38.4-120.347 93.32-.583 40.529 35.51 63.019 62.521 76.51 27.594 13.84 36.986 22.813 36.986 35.109-.304 18.879-22.311 27.59-42.846 27.59-28.453 0-43.736-4.487-66.938-15.006l-9.393-4.487-9.975 63.313c16.756 7.81 47.57 14.683 79.555 15.034 74.86 0 123.57-37.818 124.182-96.35.244-32.108-18.789-56.7-59.913-76.804zM534.493 1.29h-55.187c-17.005 0-29.927 5.13-37.29 23.427L336.062 291.569h74.859l20.617-57.775h83.752l10.697 58.008h66.023zm-82.195 174.2c1.445.146 28.733-94.312 28.733-94.312l21.73 94.311h-50.463zM-37.948.39l-69.885 197.829-7.613-39.014c-12.922-45.015-53.434-93.931-98.645-118.23l63.994 250.303h75.471L37.524.42h-75.472z" data-original="#2394BC" class="active-path" data-old_color="#2394BC" fill="#596776"/><path d="M-138.955 37.943C-144.401 15.74-161.769.766-185.358.447h-110.677l-1.14 5.387c86.336 22.318 158.802 90.989 182.311 155.582z" data-original="#EFC75E" data-old_color="#EFC75E" fill="#596776"/></g></svg>