<svg xmlns="http://www.w3.org/2000/svg" width="512" height="512" viewBox="0 0 553.048 553.048"><path d="M235.706 256.624c-1.947 0-3.599.68-4.957 2.037-1.358 1.359-2.037 2.988-2.037 4.89v29.204c0 1.95.679 3.6 2.037 4.958 1.358 1.359 3.01 2.038 4.957 2.038 1.946 0 3.588-.68 4.925-2.038 1.335-1.358 2.004-3.008 2.004-4.958V263.55c0-1.902-.68-3.531-2.038-4.89-1.358-1.358-2.989-2.037-4.89-2.037zm56.235-26.216l4.822-8.895c.317-.59.204-1.04-.338-1.358-.59-.274-1.042-.135-1.358.406l-4.89 8.967c-4.302-1.902-8.853-2.855-13.652-2.855-4.8 0-9.35.953-13.651 2.855l-4.89-8.967c-.317-.541-.77-.679-1.358-.406-.544.319-.656.769-.339 1.358l4.823 8.895c-4.89 2.494-8.784 5.967-11.682 10.426-2.898 4.462-4.347 9.338-4.347 14.637h62.82c0-5.297-1.449-10.174-4.346-14.637-2.898-4.46-6.77-7.932-11.614-10.426zm-27.879 12.939a2.546 2.546 0 0 1-1.868.783 2.43 2.43 0 0 1-1.834-.783 2.603 2.603 0 0 1-.746-1.867c0-.724.249-1.346.746-1.867.498-.52 1.11-.78 1.834-.78s1.347.26 1.868.78c.52.522.782 1.143.782 1.867a2.558 2.558 0 0 1-.782 1.867zm28.626 0a2.436 2.436 0 0 1-1.833.783c-.726 0-1.349-.26-1.87-.783a2.541 2.541 0 0 1-.78-1.867c0-.724.26-1.346.78-1.867a2.55 2.55 0 0 1 1.87-.78c.724 0 1.334.26 1.833.78a2.61 2.61 0 0 1 .747 1.867c0 .725-.25 1.347-.747 1.867zm-47.338 59.799c0 2.085.725 3.85 2.173 5.298 1.45 1.448 3.214 2.172 5.297 2.172h5.026l.07 15.418c0 1.947.678 3.6 2.036 4.959s2.99 2.037 4.89 2.037c1.946 0 3.6-.679 4.957-2.037s2.038-3.011 2.038-4.959v-15.417h9.372v15.417c0 1.947.679 3.6 2.037 4.959s3.01 2.037 4.957 2.037c1.946 0 3.6-.679 4.958-2.037s2.037-3.011 2.037-4.959v-15.417h5.094c2.037 0 3.779-.724 5.23-2.172 1.448-1.448 2.172-3.213 2.172-5.298v-45.233h-62.343v45.232zm71.992-46.522c-1.902 0-3.532.67-4.89 2.004-1.358 1.337-2.037 2.979-2.037 4.923v29.204c0 1.95.679 3.6 2.037 4.958s2.989 2.038 4.89 2.038c1.946 0 3.599-.68 4.957-2.038s2.037-3.008 2.037-4.958V263.55c0-1.945-.678-3.586-2.037-4.923-1.358-1.335-3.011-2.004-4.957-2.004z" data-original="#000000" class="active-path" data-old_color="#ffffff" fill="#fff"/></svg>