<?xml version="1.0" standalone="no"?>
<!DOCTYPE svg PUBLIC "-//W3C//DTD SVG 20010904//EN"
 "http://www.w3.org/TR/2001/REC-SVG-20010904/DTD/svg10.dtd">
<svg version="1.0" xmlns="http://www.w3.org/2000/svg"
 width="700.000000pt" height="700.000000pt" viewBox="0 0 700.000000 700.000000"
 preserveAspectRatio="xMidYMid meet">
<metadata>
Created by potrace 1.14, written by Peter Selinger 2001-2017
</metadata>
<g transform="translate(0.000000,700.000000) scale(0.100000,-0.100000)"
fill="#000000" stroke="none">
<path d="M529 6985 c-14 -8 -34 -27 -44 -42 -18 -27 -19 -149 -19 -3443 0
-3298 1 -3416 19 -3443 40 -62 -200 -57 3017 -57 2896 0 2944 0 2975 20 17 10
37 29 44 42 10 18 13 494 13 2269 l0 2245 -22 36 c-12 20 -30 40 -40 44 -9 4
-519 9 -1132 10 -613 1 -1121 3 -1127 3 -10 1 -13 231 -13 1117 0 1243 4 1171
-66 1200 -50 21 -3567 20 -3605 -1z m3437 -1032 c0 -574 -3 -813 -10 -815 -6
0 -741 -2 -1633 -3 l-1623 -1 0 811 c0 446 2 814 5 816 2 3 737 5 1632 4
l1628 0 1 -812z m0 -1168 c1 -63 -2 -115 -5 -116 -3 0 -250 -1 -548 -2 l-543
-2 -32 -33 -33 -32 -5 -2183 -5 -2183 -1047 0 -1048 0 0 2333 0 2333 1633 0
1633 0 0 -115z m-588 -362 c5 -9 8 -366 3 -443 -1 -13 -25 -15 -163 -14 -90 1
-168 2 -174 3 -17 2 -14 454 3 461 26 10 324 4 331 -7z m2915 8 c4 -1 6 -105
5 -233 l-3 -232 -1325 -1 c-729 0 -1332 1 -1340 3 -13 3 -15 35 -14 225 0 123
3 227 6 232 4 6 492 9 1335 8 730 0 1331 -1 1336 -2z m0 -700 c4 -1 7 -788 7
-1749 l0 -1748 -1632 0 -1633 1 -1 1745 c-1 960 0 1747 2 1750 1 4 3222 5
3257 1z"/>
<path d="M1025 6181 c-25 -7 -55 -29 -75 -55 -13 -16 -15 -77 -16 -395 -2
-396 0 -416 44 -454 26 -24 90 -32 121 -15 13 7 34 26 45 41 20 28 21 39 22
405 2 362 1 378 -19 414 -11 20 -27 40 -36 44 -38 15 -67 20 -86 15z"/>
<path d="M1045 4783 c-47 -9 -77 -28 -93 -57 -15 -27 -17 -73 -18 -401 -1
-388 1 -410 43 -448 48 -43 146 -25 174 31 20 41 23 764 3 808 -16 34 -78 73
-109 67z"/>
<path d="M3924 4305 c-64 -27 -90 -94 -59 -158 25 -54 63 -65 230 -63 160 1
184 9 210 73 13 31 14 43 3 77 -23 71 -48 80 -212 82 -95 1 -153 -3 -172 -11z"/>
<path d="M4513 4308 c-60 -16 -94 -91 -70 -151 27 -63 52 -72 211 -73 78 0
153 3 167 8 40 14 70 52 75 95 6 44 -10 78 -49 107 -25 18 -43 21 -165 22 -75
0 -151 -3 -169 -8z"/>
<path d="M4539 3146 c-2 -2 -26 -6 -54 -10 -446 -54 -857 -386 -1022 -825 -88
-235 -102 -520 -38 -772 16 -60 71 -203 106 -271 81 -161 259 -357 419 -463
288 -192 589 -255 955 -200 68 10 216 59 304 101 381 180 648 528 721 939 17
96 21 344 6 415 -3 14 -7 36 -10 50 -3 14 -8 39 -12 55 -12 57 -47 160 -80
233 -29 63 -99 187 -114 202 -3 3 -25 31 -49 63 -97 127 -279 276 -436 354
-72 37 -222 89 -296 104 -30 6 -65 13 -79 15 -30 6 -316 14 -321 10z m332
-250 c104 -20 243 -74 341 -132 146 -87 315 -270 397 -431 23 -45 77 -203 86
-248 43 -238 17 -459 -80 -662 -125 -266 -344 -459 -621 -552 -368 -123 -786
-26 -1061 248 -174 172 -275 375 -308 616 -7 53 -8 226 -1 260 2 11 7 40 11
65 3 25 20 86 37 135 167 504 677 802 1199 701z"/>
<path d="M4500 2745 c-111 -24 -289 -93 -298 -117 -2 -4 -8 -8 -13 -8 -26 0
-156 -116 -220 -196 -119 -150 -186 -327 -194 -511 -3 -79 -3 -83 28 -118 24
-28 42 -38 72 -41 80 -9 125 39 131 142 17 267 187 499 435 592 62 23 106 31
199 38 36 3 75 11 87 20 73 47 73 150 1 194 -38 23 -133 25 -228 5z"/>
</g>
</svg>
