<svg id="Слой_1" data-name="Слой 1" xmlns="http://www.w3.org/2000/svg" viewBox="0 0 703.9 177"><defs><style>.cls-1{fill:#fff;}.cls-2{fill:#d71015;}</style></defs><title>logo_leon</title><path class="cls-1" d="M429.22,42.42a100.26,100.26,0,0,1,26.47.25l0,0c7.4,13.32,14.21,27,21.81,40.17,14.08,2.9,28.33,5,42.43,7.74l.38.12a89.47,89.47,0,0,1,8.17,26.56c-9.66,10.67-19.5,21.21-29.3,31.79,1.48,14.29,4.14,28.54,4.82,42.89a80.92,80.92,0,0,1-22.47,16.72c-13.25-6.5-26.68-12.64-40-18.92-13.3,6.73-26.93,12.77-40.25,19.46a96.34,96.34,0,0,1-21.36-15.12c1.57-15,3.48-30.08,5.21-45.09C374.71,138,364.4,126.8,353.77,116a85.21,85.21,0,0,1,7.66-24.59c15.34-2.76,30.72-5.66,45.92-9,7.39-13.24,14.52-26.62,21.85-39.9l0,0Z" transform="translate(-22.84 -41.65)"/><path class="cls-2" d="M361.43,91.36c12.3-26.29,38.84-45.85,67.77-48.9-7.33,13.28-14.46,26.66-21.85,39.9-15.2,3.34-30.58,6.24-45.92,9Z" transform="translate(-22.84 -41.65)"/><path class="cls-2" d="M455.71,42.69C483,47.07,508.45,65.31,520,90.6c-14.1-2.74-28.35-4.84-42.43-7.74-7.6-13.2-14.41-26.85-21.81-40.17Z" transform="translate(-22.84 -41.65)"/><path class="cls-1" d="M64.18,45.53l1.52-.8c14.25-.09,28.5,0,42.75,0a4.28,4.28,0,0,1,3.93,6.59C102.13,88.93,92.26,126.71,82,164.37a3.77,3.77,0,0,0,3.21,5.19q40.83,0,81.66,0c3.13-.54,6.07,3.34,4.18,6.16-2.24,7.72-4.26,15.48-6.3,23.24-.52,2.45-3.19,3.67-5.48,3.23q-66.06-.12-132.12,0c-2.35.15-5-2.34-4.08-4.81q19.11-72,38.3-144c1-2.57.8-5.78,2.84-7.84Z" transform="translate(-22.84 -41.65)"/><path class="cls-1" d="M220.41,51a7.09,7.09,0,0,1,6.68-6.26c41.52-.06,83,0,124.52,0,5,.07,6,6.49,3.11,9.66a134.88,134.88,0,0,0-15.4,22.15l-1.48.77c-23.37,0-46.74,0-70.13,0a5,5,0,0,0-5.62,3.39c-1.81,7.05-3.71,14.09-5.56,21.15-.72,2.39,2,5,4.26,5.09,20.51,0,41,0,61.56,0,3.11-.68,6.63,1.2,6.86,4.6q-3.24,12-6.4,24c-.44,2.7-3.75,3.83-6.12,3.57-22.63,0-45.28-.19-67.92.12-.56.39-1.69,1.17-2.25,1.58-2.84,8.34-4.78,17-7.08,25.52.76,1,2.31,2.86,3.09,3.82,28.6.19,57.2,0,85.8,0,2.61-.56,4.79,1.66,5.6,3.91-1.88,8.23-4.41,16.31-6.55,24.5a4.68,4.68,0,0,1-5.31,3.64c-46.15-.2-92.35.25-138.47-.22-.64-.7-1.9-2.1-2.55-2.8C194,149.71,207.32,100.36,220.41,51Z" transform="translate(-22.84 -41.65)"/><path class="cls-1" d="M567.25,49.46a6,6,0,0,1,6-4.74c11.59.11,23.21-.33,34.78.23l2.65,1.87c15.1,27.62,29.18,55.89,44.29,83.5l1.67-.91c7.95-28.17,15.34-56.54,23.27-84.71,14.92.27,29.95-.51,44.78.38l2.1,2.44c-13,49.85-26.48,99.58-39.66,149.4a6.2,6.2,0,0,1-6.77,5.19c-10.83-.12-21.66,0-32.47-.06-3.09-.23-4.51-3.5-5.85-5.83-14.64-25.47-28.91-51.24-43.83-76.53l-1.75,1.63c-7.29,26.58-13.39,53.59-21.29,80l-1.92.82c-14.89-.18-29.83,0-44.72-.39-.54-.66-1.63-2-2.2-2.63C544.7,175.74,554,145,549.46,115.37c5.75-22,11.92-43.94,17.79-65.91Z" transform="translate(-22.84 -41.65)"/><path class="cls-2" d="M416,97.31c16-.91,32.34,0,48.47-.47l1,.76c5,15.11,9.51,30.37,14.94,45.32-12.43,10.5-26.6,19.56-39.69,29.5-13.14-9.9-27.22-19-39.72-29.46,5.41-15.07,10.07-30.41,15-45.65Z" transform="translate(-22.84 -41.65)"/><path class="cls-2" d="M353.77,116c10.63,10.85,20.94,22,31.36,33.06-1.73,15-3.64,30-5.21,45.09-20.92-19.47-31.44-50-26.15-78.15Z" transform="translate(-22.84 -41.65)"/><path class="cls-2" d="M499.2,149.07c9.8-10.58,19.64-21.12,29.3-31.79C532.8,144,523.7,173.12,504,192c-.68-14.35-3.34-28.6-4.82-42.89Z" transform="translate(-22.84 -41.65)"/><path class="cls-2" d="M401.28,209.22c13.32-6.69,27-12.73,40.25-19.46,13.34,6.28,26.77,12.42,40,18.92-24.44,13.22-55.57,13.18-80.27.54Z" transform="translate(-22.84 -41.65)"/></svg>