<?xml version="1.0"?>
<svg xmlns="http://www.w3.org/2000/svg" xmlns:xlink="http://www.w3.org/1999/xlink" xmlns:svgjs="http://svgjs.com/svgjs" version="1.1" width="512" height="512" x="0" y="0" viewBox="0 0 512 512" style="enable-background:new 0 0 512 512" xml:space="preserve" class=""><g><g xmlns="http://www.w3.org/2000/svg"><path d="m98.38 175.088 14.171-14.17c.434-.434.819-.902 1.18-1.384h8.604l7.897 11.987c1.442 2.188 3.833 3.375 6.27 3.375 1.416 0 2.848-.401 4.119-1.238 3.459-2.279 4.416-6.93 2.137-10.389l-7.401-11.234 7.4-11.228c2.279-3.458 1.324-8.11-2.135-10.39-3.458-2.279-8.109-1.324-10.39 2.135l-7.897 11.981h-8.611c-.36-.48-.743-.945-1.174-1.376l-14.17-14.171c-.435-.435-.901-.817-1.38-1.175v-8.611l11.984-7.895c3.459-2.279 4.416-6.931 2.137-10.389-2.279-3.459-6.932-4.416-10.389-2.137l-11.232 7.4-11.231-7.399c-3.46-2.28-8.11-1.322-10.389 2.136-2.279 3.459-1.322 8.11 2.136 10.389l11.984 7.895v8.612c-.479.357-.945.74-1.379 1.174l-14.171 14.171c-.432.431-.815.897-1.175 1.376h-8.611l-7.897-11.981c-2.28-3.459-6.933-4.414-10.39-2.135-3.458 2.28-4.414 6.931-2.135 10.39l7.4 11.228-7.401 11.234c-2.279 3.459-1.322 8.11 2.137 10.389 1.271.837 2.703 1.238 4.119 1.238 2.438 0 4.829-1.187 6.27-3.375l7.897-11.987h8.604c.361.482.746.95 1.18 1.383l14.171 14.171c.435.435.901.817 1.379 1.174v8.612l-11.984 7.896c-3.458 2.279-4.416 6.93-2.136 10.389 2.279 3.458 6.931 4.415 10.389 2.136l11.231-7.399 11.232 7.4c1.271.837 2.703 1.238 4.119 1.238 2.438 0 4.829-1.187 6.27-3.375 2.279-3.458 1.322-8.11-2.137-10.389l-11.982-7.896v-8.611c.479-.358.945-.74 1.38-1.175zm-19.597-23.051 10.717-10.718 10.718 10.718-10.718 10.718z" fill="#1b82fa" data-original="#000000" style=""/><path d="m499.5 71.747h-41.924c-4.142 0-7.5 3.358-7.5 7.5s3.358 7.5 7.5 7.5h39.424v138.577h-91.3c-7.659 0-21.878-5.863-33.303-10.573-5.927-2.444-11.526-4.752-15.935-6.147-47.884-15.15-153.041-15.15-200.925 0-4.409 1.395-10.008 3.703-15.935 6.147-11.425 4.71-25.644 10.573-33.303 10.573h-91.299v-138.577h407.576c4.142 0 7.5-3.358 7.5-7.5s-3.358-7.5-7.5-7.5h-410.076c-6.893 0-12.5 5.607-12.5 12.5v225.748c0 6.893 5.607 12.5 12.5 12.5h226c4.142 0 7.5-3.358 7.5-7.5s-3.358-7.5-7.5-7.5h-158.852v-20.646h352.927v20.646h-159.075c-4.142 0-7.5 3.358-7.5 7.5s3.358 7.5 7.5 7.5h226c6.893 0 12.5-5.607 12.5-12.5v-225.748c0-6.893-5.607-12.5-12.5-12.5zm-51.924 235.747v-23.146c0-6.893-5.609-12.5-12.503-12.5h-357.923c-6.894 0-12.501 5.607-12.501 12.5v23.146h-49.649v-67.17h91.3c10.63 0 25.713-6.219 39.021-11.706 5.625-2.319 10.938-4.51 14.741-5.713 45.728-14.468 146.148-14.468 191.876 0 3.803 1.203 9.116 3.394 14.741 5.713 13.308 5.487 28.391 11.706 39.021 11.706h91.3v67.17z" fill="#1b82fa" data-original="#000000" style=""/><path d="m403.495 166.391v29.111c0 6.893 5.607 12.5 12.5 12.5h48.161c6.893 0 12.5-5.607 12.5-12.5v-29.111c0-6.893-5.607-12.5-12.5-12.5h-48.161c-6.892 0-12.5 5.608-12.5 12.5zm15 2.5h43.161v24.111h-43.161z" fill="#1b82fa" data-original="#000000" style=""/><path d="m188.634 401.317c2.592-2.443 6.929-6.533 6.929-14.082s-4.337-11.638-6.929-14.081c-2.151-2.028-2.219-2.262-2.219-3.167 0-.903.068-1.137 2.218-3.164 1.365-1.287 3.064-2.888 4.447-5.123 2.179-3.523 1.09-8.145-2.433-10.324s-8.145-1.089-10.324 2.433c-.347.561-1.139 1.308-1.978 2.098-2.592 2.443-6.93 6.531-6.93 14.08s4.337 11.638 6.929 14.081c2.151 2.028 2.219 2.262 2.219 3.167s-.068 1.14-2.219 3.167c-2.592 2.443-6.929 6.533-6.929 14.082 0 7.548 4.335 11.637 6.929 14.083 2.151 2.028 2.219 2.263 2.219 3.168s-.068 1.141-2.219 3.169c-.922.87-1.967 1.855-2.977 3.082-2.633 3.198-2.175 7.924 1.023 10.557 1.396 1.15 3.084 1.71 4.763 1.71 2.164 0 4.312-.932 5.794-2.733.409-.496 1.03-1.082 1.688-1.702 2.591-2.443 6.929-6.533 6.929-14.083s-4.338-11.639-6.93-14.083c-2.15-2.028-2.218-2.263-2.218-3.168s.067-1.139 2.218-3.167z" fill="#1b82fa" data-original="#000000" style=""/><path d="m261.145 401.317c2.592-2.443 6.93-6.532 6.93-14.082 0-7.549-4.338-11.638-6.93-14.082-2.151-2.027-2.219-2.262-2.219-3.167 0-.903.068-1.137 2.218-3.163 1.366-1.287 3.065-2.888 4.447-5.124 2.179-3.522 1.089-8.145-2.433-10.323-3.525-2.179-8.146-1.09-10.324 2.434-.347.56-1.139 1.307-1.978 2.097-2.592 2.443-6.93 6.531-6.93 14.08s4.338 11.638 6.93 14.082c2.151 2.027 2.219 2.262 2.219 3.167s-.068 1.14-2.219 3.167c-2.592 2.443-6.93 6.532-6.93 14.082 0 7.549 4.337 11.638 6.929 14.083 2.151 2.028 2.219 2.263 2.219 3.168s-.068 1.141-2.219 3.169c-.922.87-1.967 1.855-2.977 3.082-2.633 3.198-2.175 7.924 1.023 10.557 1.396 1.15 3.084 1.71 4.763 1.71 2.164 0 4.312-.932 5.794-2.733.409-.496 1.03-1.082 1.688-1.702 2.591-2.443 6.929-6.533 6.929-14.083s-4.338-11.639-6.93-14.083c-2.151-2.029-2.219-2.263-2.219-3.169 0-.904.068-1.139 2.219-3.167z" fill="#1b82fa" data-original="#000000" style=""/><path d="m333.655 401.317c2.592-2.443 6.929-6.533 6.929-14.082s-4.337-11.638-6.929-14.081c-2.151-2.028-2.219-2.262-2.219-3.167 0-2.098 3.845-3.728 6.665-8.286 2.179-3.523 1.09-8.145-2.433-10.324s-8.146-1.089-10.324 2.433c-.347.561-1.139 1.308-1.978 2.098-2.592 2.443-6.93 6.531-6.93 14.08s4.337 11.638 6.929 14.081c2.151 2.028 2.219 2.262 2.219 3.167s-.068 1.14-2.219 3.167c-2.592 2.443-6.929 6.533-6.929 14.082s4.337 11.638 6.929 14.083c2.151 2.028 2.219 2.263 2.219 3.169s-.068 1.141-2.219 3.169c-.922.87-1.967 1.855-2.978 3.082-2.632 3.198-2.174 7.924 1.024 10.557 1.396 1.149 3.084 1.709 4.762 1.709 2.165 0 4.312-.932 5.795-2.733.409-.496 1.03-1.082 1.688-1.702 2.591-2.443 6.928-6.533 6.928-14.082s-4.337-11.639-6.929-14.083c-2.151-2.029-2.219-2.263-2.219-3.169.001-.906.068-1.14 2.219-3.168z" fill="#1b82fa" data-original="#000000" style=""/></g></g></svg>
