<?xml version="1.0"?>
<svg xmlns="http://www.w3.org/2000/svg" xmlns:xlink="http://www.w3.org/1999/xlink" xmlns:svgjs="http://svgjs.com/svgjs" version="1.1" width="512" height="512" x="0" y="0" viewBox="0 0 480 480" style="enable-background:new 0 0 512 512" xml:space="preserve" class=""><g><path xmlns="http://www.w3.org/2000/svg" d="m424 432h-368c-4.417969 0-8-3.582031-8-8s-3.582031-8-8-8-8 3.582031-8 8c0 13.253906 10.746094 24 24 24h368c13.253906 0 24-10.746094 24-24 0-4.417969-3.582031-8-8-8s-8 3.582031-8 8-3.582031 8-8 8zm0 0" fill="#1b82fa" data-original="#000000" style="" class=""/><path xmlns="http://www.w3.org/2000/svg" d="m472 384h-32v-24c0-4.417969-3.582031-8-8-8h-106.847656c14.785156-11.890625 24.277344-29.144531 26.398437-48h8.449219c22.089844 0 40-17.910156 40-40s-17.910156-40-40-40h-8v-8c0-4.417969-3.582031-8-8-8h-128c-4.417969 0-8 3.582031-8 8v80c.003906 21.769531 9.878906 42.363281 26.847656 56h-42.847656v-240h24v8c.027344 22.082031 17.917969 39.972656 40 40v24c0 4.417969 3.582031 8 8 8h32c4.417969 0 8-3.582031 8-8v-24c8.589844-.015625 16.945312-2.824219 23.800781-8h.199219 56v8c0 4.417969 3.582031 8 8 8h64c13.253906 0 24-10.746094 24-24s-10.746094-24-24-24h-64c-4.417969 0-8 3.582031-8 8v8h-43.390625c2.230469-5.039062 3.386719-10.488281 3.390625-16v-8h56c4.417969 0 8-3.582031 8-8v-32c-.042969-39.746094-32.253906-71.9570312-72-72h-328c-4.417969 0-8 3.582031-8 8v416c.0351562 30.914062 25.085938 55.964844 56 56h368c30.914062-.035156 55.964844-25.085938 56-56v-32c0-4.417969-3.582031-8-8-8zm-72-248h56c4.417969 0 8 3.582031 8 8s-3.582031 8-8 8h-56zm-40 104c13.253906 0 24 10.746094 24 24s-10.746094 24-24 24h-8v-48zm-24-16v21.601562l-2.289062-.5625c-14.941407-3.621093-30.566407-3.273437-45.335938 1l-15.800781 4.59375c-11.117188 3.214844-22.84375 3.71875-34.199219 1.464844l-14.398438-2.882812v-25.214844zm-112 72v-30.457031l11.199219 2.25c13.878906 2.757812 28.214843 2.144531 41.808593-1.785157l15.800782-4.59375c12.082031-3.492187 24.867187-3.769531 37.085937-.796874l6.074219 1.472656v33.910156c0 30.929688-25.074219 56-56 56-30.929688 0-56-25.070312-56-56zm200 72v16h-232v-16zm-136-192h-16v-16h16zm40-56c0 13.253906-10.746094 24-24 24h-48c-13.253906 0-24-10.746094-24-24v-8h96zm-312-104h320c30.914062.035156 55.964844 25.085938 56 56v24h-208c-4.417969 0-8 3.582031-8 8v280h-160zm448 408c-.027344 22.082031-17.917969 39.972656-40 40h-368c-22.082031-.027344-39.972656-17.917969-40-40v-24h448zm0 0" fill="#1b82fa" data-original="#000000" style="" class=""/><path xmlns="http://www.w3.org/2000/svg" d="m120 160h-48c-13.253906 0-24 10.746094-24 24v144c0 13.253906 10.746094 24 24 24h48c13.253906 0 24-10.746094 24-24v-144c0-13.253906-10.746094-24-24-24zm8 168c0 4.417969-3.582031 8-8 8h-48c-4.417969 0-8-3.582031-8-8v-144c0-4.417969 3.582031-8 8-8h48c4.417969 0 8 3.582031 8 8zm0 0" fill="#1b82fa" data-original="#000000" style="" class=""/><path xmlns="http://www.w3.org/2000/svg" d="m96 192c-13.253906 0-24 10.746094-24 24s10.746094 24 24 24 24-10.746094 24-24-10.746094-24-24-24zm0 32c-4.417969 0-8-3.582031-8-8s3.582031-8 8-8 8 3.582031 8 8-3.582031 8-8 8zm0 0" fill="#1b82fa" data-original="#000000" style="" class=""/><path xmlns="http://www.w3.org/2000/svg" d="m96 264c-13.253906 0-24 10.746094-24 24s10.746094 24 24 24 24-10.746094 24-24-10.746094-24-24-24zm0 32c-4.417969 0-8-3.582031-8-8s3.582031-8 8-8 8 3.582031 8 8-3.582031 8-8 8zm0 0" fill="#1b82fa" data-original="#000000" style="" class=""/><path xmlns="http://www.w3.org/2000/svg" d="m72 64h256c4.417969 0 8-3.582031 8-8s-3.582031-8-8-8h-256c-4.417969 0-8 3.582031-8 8s3.582031 8 8 8zm0 0" fill="#1b82fa" data-original="#000000" style="" class=""/><path xmlns="http://www.w3.org/2000/svg" d="m352 64h8c4.417969 0 8-3.582031 8-8s-3.582031-8-8-8h-8c-4.417969 0-8 3.582031-8 8s3.582031 8 8 8zm0 0" fill="#1b82fa" data-original="#000000" style="" class=""/><path xmlns="http://www.w3.org/2000/svg" d="m56 56c0-4.417969-3.582031-8-8-8h-8c-4.417969 0-8 3.582031-8 8s3.582031 8 8 8h8c4.417969 0 8-3.582031 8-8zm0 0" fill="#1b82fa" data-original="#000000" style="" class=""/></g></svg>
