<?xml version="1.0"?>
<svg xmlns="http://www.w3.org/2000/svg" xmlns:xlink="http://www.w3.org/1999/xlink" xmlns:svgjs="http://svgjs.com/svgjs" version="1.1" width="512" height="512" x="0" y="0" viewBox="0 0 512 512" style="enable-background:new 0 0 512 512" xml:space="preserve" class=""><g><g xmlns="http://www.w3.org/2000/svg"><path d="m114.957 89.803v43.983c0 12.055 9.807 21.862 21.861 21.862s21.862-9.808 21.862-21.862v-43.983c0-12.055-9.808-21.861-21.862-21.861s-21.861 9.806-21.861 21.861zm28.724 0v43.983c0 3.784-3.078 6.862-6.862 6.862-3.783 0-6.861-3.078-6.861-6.862v-43.983c0-3.783 3.078-6.861 6.861-6.861 3.784-.001 6.862 3.078 6.862 6.861z" fill="#1b82fa" data-original="#000000" style="" class=""/><path d="m136.818 216.792c-12.055 0-21.861 9.808-21.861 21.862v43.982c0 9.702 6.355 17.944 15.119 20.793v26.84c0 4.143 3.357 7.5 7.5 7.5s7.5-3.357 7.5-7.5v-27.396c7.972-3.265 13.604-11.104 13.604-20.238v-43.982c.001-12.053-9.807-21.861-21.862-21.861zm-6.861 21.862c0-3.784 3.078-6.862 6.861-6.862 3.784 0 6.862 3.078 6.862 6.862v43.982c0 3.784-3.078 6.862-6.862 6.862-3.783 0-6.861-3.078-6.861-6.862z" fill="#1b82fa" data-original="#000000" style="" class=""/><path d="m424.279 183.546h-16.893l4.536-4.535c2.929-2.93 2.929-7.678 0-10.607-2.93-2.928-7.678-2.928-10.607 0l-15.143 15.143h-35.138l26.114-26.114h21.414c4.143 0 7.5-3.357 7.5-7.5s-3.357-7.5-7.5-7.5h-6.414l11.945-11.945c2.929-2.93 2.929-7.678 0-10.607-2.93-2.928-7.678-2.928-10.607 0l-11.944 11.944v-6.413c0-4.143-3.357-7.5-7.5-7.5s-7.5 3.357-7.5 7.5v21.413l-26.114 26.115v-35.137l15.143-15.143c2.929-2.93 2.929-7.678 0-10.607-2.93-2.928-7.678-2.928-10.607 0l-4.535 4.536v-16.896c0-4.143-3.357-7.5-7.5-7.5s-7.5 3.357-7.5 7.5v16.894l-4.537-4.537c-2.928-2.928-7.677-2.929-10.606.001-2.929 2.929-2.929 7.678.001 10.606l15.143 15.142v35.139l-26.343-26.343v-21.413c0-4.143-3.357-7.5-7.5-7.5s-7.5 3.357-7.5 7.5v6.413l-9.183-9.183c-2.929-2.927-7.677-2.929-10.607 0-2.929 2.93-2.929 7.678 0 10.607l9.184 9.184h-6.414c-4.143 0-7.5 3.357-7.5 7.5s3.357 7.5 7.5 7.5h21.414l26.342 26.342h-39.043l-15.143-15.143c-2.93-2.928-7.678-2.928-10.607 0-2.929 2.93-2.929 7.678 0 10.607l4.536 4.535h-159.345v-159.01c0-5.257 4.277-9.534 9.534-9.534h211.138c5.257 0 9.534 4.277 9.534 9.534v38.5c0 4.143 3.357 7.5 7.5 7.5s7.5-3.357 7.5-7.5v-38.5c0-13.528-11.006-24.534-24.534-24.534h-211.138c-13.528 0-24.534 11.006-24.534 24.534v468.196c0 10.625 8.645 19.27 19.27 19.27h16.473c7.88 0 14.887-4.717 17.853-12.018l11.659-28.701c1.917-3.945-.958-10.541-6.898-10.446h-43.357v-262.29h159.34l-4.536 4.535c-2.929 2.93-2.929 7.678 0 10.607 1.465 1.464 3.385 2.196 5.304 2.196s3.839-.732 5.304-2.196l15.143-15.143h39.043l-26.342 26.342h-21.414c-4.143 0-7.5 3.357-7.5 7.5s3.357 7.5 7.5 7.5h6.414l-9.184 9.184c-2.929 2.93-2.929 7.678 0 10.607 1.465 1.464 3.385 2.196 5.304 2.196 1.92 0 3.839-.732 5.304-2.196l9.183-9.183v6.413c0 4.143 3.357 7.5 7.5 7.5s7.5-3.357 7.5-7.5v-21.413l26.343-26.343v39.045l-15.143 15.142c-2.93 2.929-2.93 7.678-.001 10.606s7.678 2.93 10.606.001l4.537-4.537v191.425h-149.773c-4.143 0-7.5 3.357-7.5 7.5s3.357 7.5 7.5 7.5h101.37l9.809 24.147c2.966 7.3 9.973 12.017 17.853 12.017h16.473c10.625 0 19.27-8.645 19.27-19.27v-223.315l4.535 4.536c1.465 1.464 3.385 2.196 5.304 2.196s3.839-.732 5.304-2.196c2.929-2.93 2.929-7.678 0-10.607l-15.143-15.143v-39.043l26.114 26.115v21.413c0 4.143 3.357 7.5 7.5 7.5s7.5-3.357 7.5-7.5v-6.413l11.944 11.944c1.465 1.464 3.384 2.196 5.304 2.196 1.919 0 3.839-.732 5.304-2.196 2.929-2.93 2.929-7.678 0-10.607l-11.945-11.945h6.414c4.143 0 7.5-3.357 7.5-7.5s-3.357-7.5-7.5-7.5h-21.414l-26.114-26.114h35.138l15.143 15.143c1.465 1.464 3.385 2.196 5.304 2.196s3.839-.732 5.304-2.196c2.929-2.93 2.929-7.678 0-10.607l-4.536-4.535h16.893c4.143 0 7.5-3.357 7.5-7.5s-3.359-7.503-7.502-7.503zm-296.844 292.29-7.516 18.501c-.657 1.618-2.21 2.663-3.956 2.663h-16.473c-2.354 0-4.27-1.915-4.27-4.27v-16.895h32.215zm197.992 16.894c0 2.354-1.915 4.27-4.27 4.27h-16.473c-1.746 0-3.299-1.045-3.956-2.662l-7.516-18.502h32.214v16.894z" fill="#1b82fa" data-original="#000000" style="" class=""/></g></g></svg>
