<svg id="Layer_1" xmlns="http://www.w3.org/2000/svg" viewBox="0 0 87.3 80.5"><style>.st0{fill:#76b119}.st1{fill:#fff}</style><path class="st1" d="M75.5 80.4c-1.1.4-1.9 0-2.7-.8-8.5-8.5-17-17-25.4-25.5-.8-.8-.6-.8-1.3 0-7.5 7.4-14.9 14.9-22.4 22.3-.9.9-1.7 1.7-2.5 2.6-1 1-2.4.9-3.4 0l-8.7-8.7c-.5-.5-.8-1-.8-1.7 0-.5.1-.9.5-1.3l.6-.6C17.5 58.4 25.8 50.2 34 42c.7-.7.7-.5 0-1.3L22.9 29.6l-.2-.2c-.2-.2-.4-.3-.7-.1-.5.3-.9.5-1.4.7-.3.1-.4.3-.5.6-.3.6-.4 1.1-.4 1.7.1.9-.3 1.6-.9 2.2l-4 4c-1.1 1-2.3 1.1-3.3 0C7.9 35 4.3 31.4.8 27.9c-1-1-1-2.2 0-3.2l4.3-4.3c.5-.5 1.2-.8 1.9-.7.7.1 1.3 0 2-.2.3-.1.5-.3.7-.6.2-.5.4-.9.7-1.3.2-.3.1-.5-.1-.7-.2-.1-.3-.3-.5-.5-.8-.7-1-1.5-.8-2.5v-.1c.2-.2.4-.5.6-.7l8.7-8.7.3-.3c.8-.7 1.9-.7 2.7-.1l.3.3c.4.3.6.7 1 .8.4 0 .7-.3 1.1-.5 1.5-.6 2.7-1.4 4-2.3C29.7.9 32.1.1 34.6.1c2 0 3.9.4 5.7 1.2 2.1.9 3.9 2.2 5.5 3.8 1.2 1.2.7 3-.9 3.6-.1 0-.2.1-.3.1-1-.1-2.1-.2-3.1 0-1.3.2-2.4.6-3.4 1.4-.8.7-1.4 1.5-1.7 2.5-.3 1.1-.8 2.2-1.3 3.3-.2.4-.6.8-.5 1.2.2.4.6.7 1 1 1.4 1.5 2.8 2.9 4.3 4.3 0 0 0 .1.1.1l6.5 6.5c.3.3.4.3.7 0l3.5-3.5c.3-.3.3-.6.2-1-.5-2-.7-4-.5-6 .2-3 1.1-5.8 2.6-8.4.3-.4.5-.9.8-1.3.2-.1.3-.3.4-.5.1 0 .1-.1.1-.2.1 0 .1-.1.1-.1.1 0 .1-.1.1-.1 1-1.2 2.1-2.3 3.4-3.3 2.8-2.1 5.9-3.3 9.4-3.7 5.1-.5 9.8.8 13.9 3.9.7.5 1.1 1.2.9 2.1-.1.9-.7 1.4-1.5 1.7-.1 0-.2.1-.3.1-3.1.8-6.2 1.6-9.3 2.5-.4.1-.4.3-.5.6-.7 2.6-1.4 5.3-2.1 7.9-.1.5 0 .9.4 1.1.8 1 1.8 1.8 2.7 2.7l3 3c.3.3.5.3.9.2l9-2.4c.3-.1.5-.1.8-.2 1.6-.2 2.8 1.2 2.2 2.8-.4 1-.9 2-1.4 2.9-1.2 1.9-2.7 3.6-4.4 5.1l-.3.3c-.1 0-.2.1-.2.2-.1 0-.2.1-.3.2 0 0-.1 0-.1.1-.9.6-1.8 1.1-2.8 1.6-3.4 1.6-7 2.2-10.8 1.7-1.4-.2-2.7-.5-4-1-.2-.1-.4-.2-.7 0-1 1.1-2.1 2.1-3.2 3.2-.2.2-.2.3 0 .5l.2.2 7.2 7.2c.1.1.3.2.4.4.2.2.3.4.5.5l17.4 17.4.4.4c.9.9.9 2.1 0 3l-9 9c-.4.2-.6.3-.8.5zM74.3 5.8s0-.1-.1-.1-.2-.1-.3-.1c-2.2-.7-4.5-.9-6.8-.5-5.5 1-9.4 4-11.6 9.2-.9 2.1-1.2 4.2-1.1 6.5.1 1.4.4 2.8.8 4.1.3.9.1 1.7-.6 2.4l-.6.6L13.9 68l-.4.4c-.1.1-.1.3 0 .4l.3.3 5.2 5.2c.5.5.4.5.9 0l.3-.3 12.4-12.4L60.2 34c.9-.9 1.9-.9 2.9-.5 1.8.9 3.8 1.3 5.8 1.4 4.6.1 8.4-1.6 11.5-4.9.1-.1.3-.2.2-.4-.2-.1-.3 0-.5.1-1.7.5-3.5.9-5.2 1.4-1 .3-1.9.1-2.6-.7l-7.8-7.8c-.8-.8-1-1.6-.7-2.6 1-3.6 1.9-7.1 2.8-10.7.3-1 .8-1.6 1.9-1.9 1.8-.4 3.5-.9 5.2-1.3.2-.1.4-.1.6-.3zM38.4 5c-1.7-.7-3.4-1-5.2-.6-1.6.3-3 1-4.2 2-.7.6-1.5 1.1-2.4 1.4-1.1.4-2.1 1-3.1 1.6-.9.7-2.2.7-3.1-.4l-.3-.3c-.1-.1-.2-.1-.4 0l-.3.3-5.1 5.1c-.6.6-.6.5 0 1.1 1 1 1.1 1.9.3 3.1-.5.8-1.1 1.6-1.4 2.5-.3 1.2-1.2 1.8-2.2 2.3-1 .5-2 .7-3.1.7-.4 0-.7.2-.9.4l-1.5 1.5c-.4.4-.4.4 0 .8L10 31c.9.9 1.8 1.8 2.8 2.7.4.4.4.4.8 0l1.6-1.6c.3-.2.4-.5.4-.9.2-1.6.8-3 1.8-4.2.2-.3.5-.5.8-.6 1.2-.5 2.4-1.2 3.5-1.9.8-.5 1.8-.4 2.5.2.2.1.3.3.4.4l12.5 12.5c.1.1.3.2.4.4.2.2.3.2.5 0l5.7-5.7c.1-.1.2-.3 0-.4l-.3-.3-10.7-10.7-2-2c-.3-.3-.5-.5-.7-.8-.3-.7-.3-1.4.1-2.1 1.1-1.7 2-3.6 2.5-5.6 0-.2.1-.4.2-.6 1.2-2.2 2.9-3.9 5.3-4.9.1.3.2.2.3.1zm36.2 70.4c.2 0 .3-.2.4-.3l4.2-4.2c.4-.4.8-.9 1.3-1.3.2-.2.2-.4 0-.6l-1-1-23.1-23.1-.2-.2c-.2-.2-.4-.3-.6 0l-.3.3-4.9 4.9c-.7.7-.7.5 0 1.2C58.2 59 66.1 66.9 74 74.9l.4.4s.1 0 .2.1z"/></svg>