<?xml version="1.0"?>
<svg xmlns="http://www.w3.org/2000/svg" xmlns:xlink="http://www.w3.org/1999/xlink" xmlns:svgjs="http://svgjs.com/svgjs" version="1.1" width="512" height="512" x="0" y="0" viewBox="0 0 256 256" style="enable-background:new 0 0 512 512" xml:space="preserve" class=""><g>
<style xmlns="http://www.w3.org/2000/svg" type="text/css">
	.st0{fill:#7BAC51;}
	.st1{fill:#5D8E33;}
	.st2{fill:#99CA6F;}
	.st3{fill:#FCC24C;}
	.st4{fill:#690589;}
	.st5{fill:#FF4397;}
	.st6{fill:#FF9F70;}
	.st7{fill:#E18152;}
	.st8{fill:#D6D1CF;}
	.st9{fill:#F4EFED;}
	.st10{fill:#FFFFFF;}
	.st11{fill:#E12579;}
	.st12{fill:#DEA42E;}
	.st13{fill:#FCE06A;}
	.st14{fill:#FFBD8E;}
	.st15{fill:#FF61B5;}
</style>
<g xmlns="http://www.w3.org/2000/svg">
	<g>
		<path class="" d="M227,254H29c-14.888,0-27-12.112-27-27V29C2,14.112,14.112,2,29,2h198c14.888,0,27,12.112,27,27v198    C254,241.888,241.888,254,227,254z M29,6C16.317,6,6,16.318,6,29v198c0,12.682,10.317,23,23,23h198c12.683,0,23-10.318,23-23V29    c0-12.682-10.317-23-23-23H29z" fill="#1b82fa" data-original="#000000" style=""/>
	</g>
	<g>
		<path class="" d="M30.437,254c-1.104,0-2-0.896-2-2V4c0-1.104,0.896-2,2-2s2,0.896,2,2v248    C32.437,253.104,31.541,254,30.437,254z" fill="#1b82fa" data-original="#000000" style=""/>
	</g>
	<g>
		<path class="" d="M62.958,254c-1.104,0-2-0.896-2-2V4c0-1.104,0.896-2,2-2s2,0.896,2,2v248    C64.958,253.104,64.063,254,62.958,254z" fill="#1b82fa" data-original="#000000" style=""/>
	</g>
	<g>
		<path class="" d="M95.479,254c-1.104,0-2-0.896-2-2V4c0-1.104,0.896-2,2-2s2,0.896,2,2v248    C97.479,253.104,96.583,254,95.479,254z" fill="#1b82fa" data-original="#000000" style=""/>
	</g>
	<g>
		<path class="" d="M128,254c-1.104,0-2-0.896-2-2V4c0-1.104,0.896-2,2-2s2,0.896,2,2v248C130,253.104,129.104,254,128,254z" fill="#1b82fa" data-original="#000000" style=""/>
	</g>
	<g>
		<path class="" d="M160.521,254c-1.104,0-2-0.896-2-2V4c0-1.104,0.896-2,2-2s2,0.896,2,2v248    C162.521,253.104,161.626,254,160.521,254z" fill="#1b82fa" data-original="#000000" style=""/>
	</g>
	<g>
		<path class="" d="M193.042,254c-1.104,0-2-0.896-2-2V4c0-1.104,0.896-2,2-2s2,0.896,2,2v248    C195.042,253.104,194.146,254,193.042,254z" fill="#1b82fa" data-original="#000000" style=""/>
	</g>
	<g>
		<path class="" d="M225.563,254c-1.104,0-2-0.896-2-2V4c0-1.104,0.896-2,2-2s2,0.896,2,2v248    C227.563,253.104,226.668,254,225.563,254z" fill="#1b82fa" data-original="#000000" style=""/>
	</g>
	<g>
		<path class="" d="M252,227.563H4c-1.104,0-2-0.896-2-2s0.896-2,2-2h248c1.104,0,2,0.896,2,2S253.104,227.563,252,227.563z" fill="#1b82fa" data-original="#000000" style=""/>
	</g>
	<g>
		<path class="" d="M252,195.042H4c-1.104,0-2-0.896-2-2s0.896-2,2-2h248c1.104,0,2,0.896,2,2S253.104,195.042,252,195.042z" fill="#1b82fa" data-original="#000000" style=""/>
	</g>
	<g>
		<path class="" d="M252,162.521H4c-1.104,0-2-0.896-2-2s0.896-2,2-2h248c1.104,0,2,0.896,2,2S253.104,162.521,252,162.521z" fill="#1b82fa" data-original="#000000" style=""/>
	</g>
	<g>
		<path class="" d="M252,130H4c-1.104,0-2-0.896-2-2s0.896-2,2-2h248c1.104,0,2,0.896,2,2S253.104,130,252,130z" fill="#1b82fa" data-original="#000000" style=""/>
	</g>
	<g>
		<path class="" d="M252,97.479H4c-1.104,0-2-0.896-2-2s0.896-2,2-2h248c1.104,0,2,0.896,2,2S253.104,97.479,252,97.479z" fill="#1b82fa" data-original="#000000" style=""/>
	</g>
	<g>
		<path class="" d="M252,64.958H4c-1.104,0-2-0.896-2-2s0.896-2,2-2h248c1.104,0,2,0.896,2,2S253.104,64.958,252,64.958z" fill="#1b82fa" data-original="#000000" style=""/>
	</g>
	<g>
		<path class="" d="M252,32.437H4c-1.104,0-2-0.896-2-2s0.896-2,2-2h248c1.104,0,2,0.896,2,2S253.104,32.437,252,32.437z" fill="#1b82fa" data-original="#000000" style=""/>
	</g>
	<g>
		<path class="" d="M185.335,120.393h-48.037v12.362l44.999,11.598c7.704,1.986,15.21-3.832,15.21-11.787l0,0    C197.508,125.843,192.058,120.393,185.335,120.393z" fill="#1b82fa" data-original="#000000" style=""/>
	</g>
	<g>
		<circle class="" cx="128" cy="96.479" r="13.74" fill="#1b82fa" data-original="#000000" style=""/>
	</g>
	<g>
		<path class="" d="M128,180.05L128,180.05c-5.135,0-9.299-4.163-9.299-9.299v-51.234c0-5.135,4.163-9.299,9.299-9.299l0,0    c5.135,0,9.298,4.163,9.298,9.299v51.234C137.298,175.887,133.135,180.05,128,180.05z" fill="#1b82fa" data-original="#000000" style=""/>
	</g>
	<g>
		<path class="" d="M128.011,110.219h-0.022c-1.012,0-1.984,0.167-2.895,0.466c3.71,1.217,6.392,4.704,6.392,8.821v51.255    c0,4.118-2.682,7.604-6.392,8.821c0.912,0.299,1.883,0.466,2.895,0.466h0.022c5.13,0,9.288-4.158,9.288-9.288v-51.255    C137.298,114.377,133.14,110.219,128.011,110.219z" fill="#1b82fa" data-original="#000000" style=""/>
	</g>
	<g>
		<path class="" d="M128,82.739c-0.998,0-1.969,0.112-2.906,0.315c6.191,1.334,10.834,6.835,10.834,13.425    s-4.642,12.091-10.834,13.425c0.938,0.202,1.908,0.314,2.906,0.314c7.588,0,13.74-6.152,13.74-13.74    C141.74,88.891,135.588,82.739,128,82.739z" fill="#1b82fa" data-original="#000000" style=""/>
	</g>
	<g>
		<path class="" d="M70.665,120.393h48.037v12.362l-44.999,11.598c-7.704,1.986-15.21-3.832-15.21-11.787l0,0    C58.492,125.843,63.942,120.393,70.665,120.393z" fill="#1b82fa" data-original="#000000" style=""/>
	</g>
	<g>
		<path class="" d="M185.335,120.393h-9.688c6.723,0,12.172,5.45,12.172,12.172c0,5.197-3.211,9.464-7.58,11.257l2.057,0.53    c7.704,1.986,15.21-3.832,15.21-11.787C197.508,125.843,192.058,120.393,185.335,120.393z" fill="#1b82fa" data-original="#000000" style=""/>
	</g>
	<g>
		<path class="" d="M70.665,120.393h9.688c-6.723,0-12.172,5.45-12.172,12.172c0,5.197,3.211,9.464,7.58,11.257l-2.057,0.53    c-7.704,1.986-15.21-3.832-15.21-11.787C58.492,125.843,63.942,120.393,70.665,120.393z" fill="#1b82fa" data-original="#000000" style=""/>
	</g>
	<g>
		<path class="" d="M128,182.05c-6.23,0-11.299-5.068-11.299-11.298v-51.234c0-6.23,5.068-11.298,11.299-11.298    s11.299,5.068,11.299,11.298v51.234C139.299,176.981,134.23,182.05,128,182.05z M128,112.219c-4.024,0-7.299,3.274-7.299,7.298    v51.234c0,4.024,3.274,7.298,7.299,7.298s7.299-3.274,7.299-7.298v-51.234C135.299,115.493,132.024,112.219,128,112.219z" fill="#1b82fa" data-original="#000000" style=""/>
	</g>
	<g>
		<path class="" d="M128,112.219c-8.679,0-15.74-7.061-15.74-15.74c0-8.679,7.062-15.74,15.74-15.74s15.74,7.061,15.74,15.74    C143.74,105.158,136.679,112.219,128,112.219z M128,84.739c-6.474,0-11.74,5.267-11.74,11.74c0,6.474,5.267,11.74,11.74,11.74    s11.74-5.267,11.74-11.74C139.74,90.006,134.474,84.739,128,84.739z" fill="#1b82fa" data-original="#000000" style=""/>
	</g>
	<g>
		<path class="" d="M70.632,146.745c-3.1,0-6.126-1.022-8.648-2.977c-3.49-2.705-5.491-6.788-5.491-11.202    c0-7.815,6.358-14.173,14.173-14.173h48.036c1.104,0,2,0.896,2,2v12.362c0,0.912-0.617,1.709-1.501,1.937L74.202,146.29    C73.018,146.595,71.819,146.745,70.632,146.745z M70.665,122.393c-5.609,0-10.173,4.563-10.173,10.173    c0,3.168,1.437,6.099,3.941,8.04c2.505,1.942,5.704,2.6,8.771,1.811l43.497-11.211v-8.813H70.665z" fill="#1b82fa" data-original="#000000" style=""/>
	</g>
	<g>
		<path class="" d="M66.242,134.566c-1.104,0-2-0.896-2-2c0-3.542,2.881-6.423,6.423-6.423c1.104,0,2,0.896,2,2s-0.896,2-2,2    c-1.336,0-2.423,1.087-2.423,2.423C68.242,133.67,67.347,134.566,66.242,134.566z" fill="#1b82fa" data-original="#000000" style=""/>
	</g>
	<g>
		<path class="" d="M185.368,146.745c-1.188,0-2.386-0.15-3.57-0.456L136.8,134.692c-0.884-0.228-1.501-1.024-1.501-1.937    v-12.362c0-1.104,0.896-2,2-2h48.036c7.814,0,14.173,6.358,14.173,14.173c0,4.415-2.001,8.498-5.491,11.202    C191.494,145.723,188.467,146.745,185.368,146.745z M139.299,131.206l43.497,11.211c3.069,0.79,6.267,0.132,8.771-1.811    c2.505-1.941,3.941-4.872,3.941-8.04c0-5.609-4.563-10.173-10.173-10.173h-46.036V131.206z" fill="#1b82fa" data-original="#000000" style=""/>
	</g>
	<g>
		<path class="" d="M164.37,190.779c-0.813,0-1.577-0.499-1.876-1.306l-1.673-4.517c-1.971-5.321-5.202-10.183-9.346-14.06    c-5.748-5.376-9.792-12.255-11.692-19.893l-4.425-17.766c-0.26-1.042,0.349-2.102,1.379-2.403    c1.029-0.298,2.114,0.264,2.457,1.281c5.332,15.833,15.118,22.263,28.662,31.164c1.679,1.103,3.408,2.239,5.187,3.432l2.948,1.977    c0.917,0.615,1.162,1.857,0.547,2.775s-1.855,1.163-2.775,0.547l-2.948-1.977c-1.767-1.185-3.486-2.315-5.154-3.411    c-8.9-5.849-16.584-10.898-22.456-18.433l0.46,1.848c1.715,6.887,5.36,13.089,10.544,17.938c4.596,4.299,8.18,9.69,10.365,15.591    l1.673,4.517c0.383,1.036-0.146,2.187-1.182,2.57C164.836,190.739,164.601,190.779,164.37,190.779z" fill="#1b82fa" data-original="#000000" style=""/>
	</g>
	<g>
		<path class="" d="M91.63,190.779c-0.231,0-0.466-0.04-0.694-0.125c-1.036-0.384-1.564-1.534-1.182-2.57l1.673-4.517    c2.186-5.901,5.77-11.292,10.365-15.591c5.184-4.849,8.829-11.051,10.544-17.938l0.46-1.848    c-5.872,7.535-13.556,12.584-22.456,18.433c-1.668,1.096-3.388,2.226-5.154,3.411l-2.948,1.977    c-0.921,0.615-2.161,0.37-2.775-0.547c-0.615-0.917-0.37-2.16,0.547-2.775l2.948-1.977c1.778-1.192,3.508-2.329,5.187-3.432    c13.544-8.901,23.33-15.332,28.662-31.164c0.343-1.018,1.428-1.582,2.457-1.281c1.03,0.301,1.639,1.361,1.379,2.403l-4.425,17.767    c-1.9,7.637-5.944,14.516-11.692,19.892c-4.144,3.876-7.375,8.738-9.346,14.06l-1.673,4.517    C93.207,190.28,92.442,190.779,91.63,190.779z" fill="#1b82fa" data-original="#000000" style=""/>
	</g>
	<g>
		<path class="" d="M118.701,123.858c-0.835,0-1.614-0.527-1.896-1.362c-5.332-15.833-15.118-22.263-28.662-31.164    c-1.679-1.103-3.408-2.239-5.187-3.432l-2.948-1.977c-0.917-0.615-1.162-1.857-0.547-2.775c0.614-0.917,1.855-1.164,2.775-0.547    l2.948,1.977c1.767,1.185,3.486,2.315,5.154,3.411c13.68,8.989,24.484,16.09,30.257,33.23c0.353,1.047-0.21,2.181-1.257,2.534    C119.128,123.824,118.912,123.858,118.701,123.858z" fill="#1b82fa" data-original="#000000" style=""/>
	</g>
	<g>
		<path class="" d="M137.299,123.858c-0.211,0-0.427-0.034-0.639-0.105c-1.047-0.353-1.609-1.487-1.257-2.534    c5.772-17.141,16.577-24.241,30.257-33.23c1.668-1.096,3.388-2.226,5.154-3.411l2.948-1.977c0.919-0.617,2.16-0.371,2.775,0.547    c0.615,0.917,0.37,2.16-0.547,2.775l-2.948,1.977c-1.778,1.192-3.508,2.329-5.187,3.432c-13.544,8.901-23.33,15.332-28.662,31.164    C138.913,123.331,138.134,123.858,137.299,123.858z" fill="#1b82fa" data-original="#000000" style=""/>
	</g>
</g>
</g></svg>
