<?xml version="1.0"?>
<svg xmlns="http://www.w3.org/2000/svg" xmlns:xlink="http://www.w3.org/1999/xlink" xmlns:svgjs="http://svgjs.com/svgjs" version="1.1" width="512" height="512" x="0" y="0" viewBox="0 0 480 480" style="enable-background:new 0 0 512 512" xml:space="preserve" class=""><g>
<g xmlns="http://www.w3.org/2000/svg">
	<g>
		<path d="M408,176H72c-4.418,0-8,3.582-8,8v176c0,4.418,3.582,8,8,8h336c4.418,0,8-3.582,8-8V184C416,179.582,412.418,176,408,176z     M400,352H80V192h320V352z" fill="#1b82fa" data-original="#000000" style="" class=""/>
	</g>
</g>
<g xmlns="http://www.w3.org/2000/svg">
	<g>
		<path d="M64,32c-17.673,0-32,14.327-32,32s14.327,32,32,32s32-14.327,32-32S81.673,32,64,32z M64,80c-8.837,0-16-7.163-16-16    s7.163-16,16-16s16,7.163,16,16S72.837,80,64,80z" fill="#1b82fa" data-original="#000000" style="" class=""/>
	</g>
</g>
<g xmlns="http://www.w3.org/2000/svg">
	<g>
		<path d="M144,32c-17.673,0-32,14.327-32,32s14.327,32,32,32s32-14.327,32-32S161.673,32,144,32z M144,80c-8.837,0-16-7.163-16-16    s7.163-16,16-16s16,7.163,16,16S152.837,80,144,80z" fill="#1b82fa" data-original="#000000" style="" class=""/>
	</g>
</g>
<g xmlns="http://www.w3.org/2000/svg">
	<g>
		<rect x="192" y="40" width="32" height="16" fill="#1b82fa" data-original="#000000" style="" class=""/>
	</g>
</g>
<g xmlns="http://www.w3.org/2000/svg">
	<g>
		<rect x="192" y="72" width="32" height="16" fill="#1b82fa" data-original="#000000" style="" class=""/>
	</g>
</g>
<g xmlns="http://www.w3.org/2000/svg">
	<g>
		<path d="M288,32c-17.673,0-32,14.327-32,32s14.327,32,32,32c17.673,0,32-14.327,32-32S305.673,32,288,32z M288,80    c-8.837,0-16-7.163-16-16s7.163-16,16-16s16,7.163,16,16S296.837,80,288,80z" fill="#1b82fa" data-original="#000000" style="" class=""/>
	</g>
</g>
<g xmlns="http://www.w3.org/2000/svg">
	<g>
		<path d="M368,32c-17.673,0-32,14.327-32,32s14.327,32,32,32c17.673,0,32-14.327,32-32S385.673,32,368,32z M368,80    c-8.837,0-16-7.163-16-16s7.163-16,16-16s16,7.163,16,16S376.837,80,368,80z" fill="#1b82fa" data-original="#000000" style="" class=""/>
	</g>
</g>
<g xmlns="http://www.w3.org/2000/svg">
	<g>
		<rect x="416" y="40" width="32" height="16" fill="#1b82fa" data-original="#000000" style="" class=""/>
	</g>
</g>
<g xmlns="http://www.w3.org/2000/svg">
	<g>
		<rect x="416" y="72" width="32" height="16" fill="#1b82fa" data-original="#000000" style="" class=""/>
	</g>
</g>
<g xmlns="http://www.w3.org/2000/svg">
	<g>
		<path d="M456,0H24C10.745,0,0,10.745,0,24v432c0,13.255,10.745,24,24,24h432c13.255,0,24-10.745,24-24V24    C480,10.745,469.255,0,456,0z M464,456c0,4.418-3.582,8-8,8H24c-4.418,0-8-3.582-8-8v-24h448V456z M464,416H16V128h448V416z     M464,112H16V24c0-4.418,3.582-8,8-8h432c4.418,0,8,3.582,8,8V112z" fill="#1b82fa" data-original="#000000" style="" class=""/>
	</g>
</g>
<g xmlns="http://www.w3.org/2000/svg">
	<g>
		<path d="M344,440H136c-4.418,0-8,3.582-8,8s3.582,8,8,8h208c4.418,0,8-3.582,8-8S348.418,440,344,440z" fill="#1b82fa" data-original="#000000" style="" class=""/>
	</g>
</g>
<g xmlns="http://www.w3.org/2000/svg">
	<g>
		<path d="M392,440h-16c-4.418,0-8,3.582-8,8s3.582,8,8,8h16c4.418,0,8-3.582,8-8S396.418,440,392,440z" fill="#1b82fa" data-original="#000000" style="" class=""/>
	</g>
</g>
<g xmlns="http://www.w3.org/2000/svg">
	<g>
		<path d="M104,440H88c-4.418,0-8,3.582-8,8s3.582,8,8,8h16c4.418,0,8-3.582,8-8S108.418,440,104,440z" fill="#1b82fa" data-original="#000000" style="" class=""/>
	</g>
</g>
<g xmlns="http://www.w3.org/2000/svg">
</g>
<g xmlns="http://www.w3.org/2000/svg">
</g>
<g xmlns="http://www.w3.org/2000/svg">
</g>
<g xmlns="http://www.w3.org/2000/svg">
</g>
<g xmlns="http://www.w3.org/2000/svg">
</g>
<g xmlns="http://www.w3.org/2000/svg">
</g>
<g xmlns="http://www.w3.org/2000/svg">
</g>
<g xmlns="http://www.w3.org/2000/svg">
</g>
<g xmlns="http://www.w3.org/2000/svg">
</g>
<g xmlns="http://www.w3.org/2000/svg">
</g>
<g xmlns="http://www.w3.org/2000/svg">
</g>
<g xmlns="http://www.w3.org/2000/svg">
</g>
<g xmlns="http://www.w3.org/2000/svg">
</g>
<g xmlns="http://www.w3.org/2000/svg">
</g>
<g xmlns="http://www.w3.org/2000/svg">
</g>
</g></svg>
