<?xml version="1.0"?>
<svg xmlns="http://www.w3.org/2000/svg" xmlns:xlink="http://www.w3.org/1999/xlink" xmlns:svgjs="http://svgjs.com/svgjs" version="1.1" width="512" height="512" x="0" y="0" viewBox="0 0 512 512" style="enable-background:new 0 0 512 512" xml:space="preserve" class=""><g>
<g xmlns="http://www.w3.org/2000/svg">
	<g>
		<path d="M487.921,398.589c0.018-0.212,0.032-0.427,0.032-0.644v-6.68c0-34.53-28.092-62.622-62.622-62.622h-1.503V312.11    c0-17.403-14.159-31.562-31.562-31.562h-48.094c-17.403,0-31.562,14.159-31.562,31.562v16.532h-8.517    c-1.706,0-3.362,0.581-4.695,1.647l-13.615,10.891l-13.044-17.249c-2.504-3.31-7.215-3.966-10.527-1.462l-10.915,8.254    l-3.043-4.057L337.16,30.312c3.414-11.378-2.467-23.928-13.452-28.509C320.833,0.604,317.723,0,314.608,0h-47.056    c-10.15,0-19.126,6.47-22.338,16.098l-10.68,32.032c-7.798,0.569-14.646,5.912-17.113,13.317l-21.755,65.261    c-1.313,3.938,0.815,8.194,4.752,9.506c3.937,1.308,8.193-0.816,9.506-4.752l21.754-65.263c0.777-2.329,3.371-3.629,5.702-2.851    c2.328,0.776,3.63,3.37,2.852,5.702L131.267,395.953c-1.325-0.696-2.711-1.295-4.159-1.778c-1.448-0.483-2.918-0.836-4.395-1.073    l79.141-237.423c1.313-3.938-0.816-8.194-4.752-9.506c-3.942-1.312-8.194,0.815-9.506,4.752L106.17,395.204    c-0.054,0.162-0.093,0.326-0.135,0.489c-6.564,3.294-11.456,8.943-13.779,15.91L79.83,448.877H39.577    C17.755,448.877,0,466.631,0,488.454v16.031C0,508.636,3.364,512,7.515,512H199.89c4.151,0,7.515-3.364,7.515-7.515v-16.031    c0-21.823-17.755-39.577-39.577-39.577h-29.908l6.616-19.849c2.324-6.969,1.798-14.423-1.476-20.996    c0.035-0.093,0.083-0.176,0.115-0.271L254.493,73.806c2.469-7.405,0.192-15.792-5.699-20.922l10.681-32.032    c1.161-3.484,4.408-5.824,8.079-5.824h47.056c5.612,0,9.775,5.576,8.158,10.963L232.772,325.98    c-0.686,2.284-0.245,4.76,1.186,6.668l5.354,7.14l-15.457,11.689c-3.31,2.504-3.965,7.216-1.462,10.527l14.083,18.623    l-17.233,13.786c-1.781,1.426-2.82,3.585-2.82,5.867v48.094c0,21.823,17.755,39.577,39.577,39.577h16.365    c4.151,0,7.515-3.364,7.515-7.515s-3.364-7.515-7.515-7.515H256c-13.536,0-24.548-11.011-24.548-24.548v-44.483l75.278-60.22    h118.601c25.707,0,46.705,20.491,47.552,45.996c-7.547-3.162-15.825-4.916-24.507-4.916c-35.083,0-63.624,28.542-63.624,63.624    c0,8.697,1.758,16.99,4.932,24.548H303.76c-4.151,0-7.515,3.364-7.515,7.515s3.364,7.515,7.515,7.515h94.854    C410.281,502.592,428.245,512,448.376,512C483.458,512,512,483.458,512,448.376C512,428.23,502.578,410.255,487.921,398.589z     M106.514,416.355c2.155-6.469,9.359-10.085,15.842-7.921c6.472,2.156,10.084,9.356,7.922,15.842l-8.201,24.601H95.673    L106.514,416.355z M167.828,463.906c13.536,0,24.548,11.011,24.548,24.548v8.517H15.029v-8.517    c0-13.536,11.011-24.548,24.548-24.548H167.828z M248.215,371.236l-9.302-12.303l26.373-19.943l8.758,11.583L248.215,371.236z     M408.798,328.642H327.64V312.11c0-9.116,7.417-16.532,16.532-16.532h48.094c9.116,0,16.532,7.417,16.532,16.532V328.642z     M448.376,496.971c-26.795,0-48.595-21.8-48.595-48.595s21.8-48.595,48.595-48.595s48.595,21.8,48.595,48.595    S475.171,496.971,448.376,496.971z" fill="#1b82fa" data-original="#000000" style=""/>
	</g>
</g>
<g xmlns="http://www.w3.org/2000/svg">
	<g>
		<path d="M448.376,416.814c-17.403,0-31.562,14.159-31.562,31.562s14.159,31.562,31.562,31.562s31.562-14.159,31.562-31.562    S465.779,416.814,448.376,416.814z M448.376,464.908c-9.116,0-16.532-7.417-16.532-16.532s7.417-16.532,16.532-16.532    s16.532,7.417,16.532,16.532S457.492,464.908,448.376,464.908z" fill="#1b82fa" data-original="#000000" style=""/>
	</g>
</g>
<g xmlns="http://www.w3.org/2000/svg">
	<g>
		<path d="M376.235,368.72H312.11c-4.151,0-7.515,3.364-7.515,7.515c0,4.151,3.364,7.515,7.515,7.515h64.125    c4.151,0,7.515-3.364,7.515-7.515C383.75,372.084,380.386,368.72,376.235,368.72z" fill="#1b82fa" data-original="#000000" style=""/>
	</g>
</g>
<g xmlns="http://www.w3.org/2000/svg">
	<g>
		<path d="M360.203,400.783H312.11c-4.151,0-7.515,3.364-7.515,7.515c0,4.151,3.364,7.515,7.515,7.515h48.094    c4.151,0,7.515-3.364,7.515-7.515C367.718,404.146,364.355,400.783,360.203,400.783z" fill="#1b82fa" data-original="#000000" style=""/>
	</g>
</g>
<g xmlns="http://www.w3.org/2000/svg">
	<g>
		<path d="M344.172,432.845H312.11c-4.151,0-7.515,3.364-7.515,7.515c0,4.151,3.364,7.515,7.515,7.515h32.063    c4.151,0,7.515-3.364,7.515-7.515C351.687,436.209,348.323,432.845,344.172,432.845z" fill="#1b82fa" data-original="#000000" style=""/>
	</g>
</g>
<g xmlns="http://www.w3.org/2000/svg">
</g>
<g xmlns="http://www.w3.org/2000/svg">
</g>
<g xmlns="http://www.w3.org/2000/svg">
</g>
<g xmlns="http://www.w3.org/2000/svg">
</g>
<g xmlns="http://www.w3.org/2000/svg">
</g>
<g xmlns="http://www.w3.org/2000/svg">
</g>
<g xmlns="http://www.w3.org/2000/svg">
</g>
<g xmlns="http://www.w3.org/2000/svg">
</g>
<g xmlns="http://www.w3.org/2000/svg">
</g>
<g xmlns="http://www.w3.org/2000/svg">
</g>
<g xmlns="http://www.w3.org/2000/svg">
</g>
<g xmlns="http://www.w3.org/2000/svg">
</g>
<g xmlns="http://www.w3.org/2000/svg">
</g>
<g xmlns="http://www.w3.org/2000/svg">
</g>
<g xmlns="http://www.w3.org/2000/svg">
</g>
</g></svg>
