<svg width="14" height="14" viewBox="0 0 14 14" fill="none" xmlns="http://www.w3.org/2000/svg">
<path d="M11.5944 3.48446C11.5445 3.29769 11.4434 3.09868 11.3685 2.92444C10.4727 0.771554 8.51529 0 6.93482 0C4.81907 0 2.48881 1.4187 2.1777 4.34298V4.94043C2.1777 4.96536 2.1863 5.18933 2.1985 5.30137C2.3729 6.69501 3.47259 8.17614 4.29388 9.56978C5.17747 11.0629 6.09432 12.5318 7.00268 14C7.5628 13.0418 8.12089 12.0711 8.66824 11.1378C8.81742 10.8639 8.99058 10.5901 9.13992 10.3287C9.23946 10.1546 9.42961 9.98056 9.51649 9.81859C10.4 8.20091 11.8222 6.57074 11.8222 4.96533V4.30581C11.8223 4.13177 11.6065 3.52199 11.5944 3.48446ZM6.97355 6.48363C6.35163 6.48363 5.67089 6.17266 5.33488 5.31384C5.28482 5.17713 5.28885 4.90316 5.28885 4.87806V4.49229C5.28885 3.39745 6.21847 2.89957 7.02719 2.89957C8.02282 2.89957 8.79284 3.69613 8.79284 4.69175C8.79284 5.68734 7.96918 6.48363 6.97355 6.48363Z" fill="white"/>
</svg>
