<svg width="74" height="74" viewBox="0 0 74 74" fill="none" xmlns="http://www.w3.org/2000/svg">
<g clip-path="url(#clip0)">
<path d="M8.82638 24.5602C8.5577 24.2912 8.1848 24.1367 7.80469 24.1367C7.42457 24.1367 7.05182 24.2914 6.78285 24.5602C6.51388 24.829 6.35938 25.2019 6.35938 25.582C6.35938 25.9621 6.51388 26.335 6.78285 26.6037C7.05168 26.8727 7.42457 27.0273 7.80469 27.0273C8.1848 27.0273 8.5577 26.8727 8.82638 26.6037C9.09535 26.335 9.25 25.9621 9.25 25.582C9.25 25.2019 9.09535 24.829 8.82638 24.5602Z" fill="#FF9900" stroke="#FF9900"/>
<path d="M63.3047 0H34.0612C33.2631 0 32.6159 0.647211 32.6159 1.44531C32.6159 2.24341 33.2631 2.89062 34.0612 2.89062H63.3047C64.1016 2.89062 64.75 3.53899 64.75 4.33594V69.6641C64.75 70.461 64.1016 71.1094 63.3047 71.1094H10.6953C9.89837 71.1094 9.25 70.461 9.25 69.6641V30.9778C9.25 30.1797 8.60279 29.5325 7.80469 29.5325C7.00659 29.5325 6.35938 30.1797 6.35938 30.9778V69.6641C6.35938 72.0549 8.30448 74 10.6953 74H63.3047C65.6955 74 67.6406 72.0549 67.6406 69.6641V4.33594C67.6406 1.9451 65.6955 0 63.3047 0Z" fill="#FF9900" stroke="#FF9900"/>
<path d="M37 5.78125C36.0166 5.78125 35.0283 5.85641 34.0625 6.00441C33.2735 6.12552 32.732 6.86307 32.853 7.65206C32.9739 8.44106 33.7119 8.98189 34.5006 8.86164C35.322 8.73561 36.1629 8.67188 37 8.67188C46.0056 8.67188 53.3322 15.9985 53.3322 25.0041C53.3322 29.0032 51.8866 32.6704 49.4914 35.5129C48.4315 33.6904 46.9839 32.1183 45.2269 30.8989C44.2014 30.1872 43.0996 29.6192 41.9463 29.1988C43.2627 27.912 44.082 26.1188 44.082 24.137V22.7278C44.082 18.8226 40.9051 15.6457 37 15.6457C33.0949 15.6457 29.918 18.8226 29.918 22.7278V24.137C29.918 26.1188 30.7372 27.912 32.0537 29.1988C30.9005 29.6192 29.7987 30.1872 28.7731 30.8989C27.0077 32.1242 25.5543 33.7051 24.4931 35.5386C22.6681 33.37 21.3925 30.7025 20.8934 27.7267C20.7615 26.9398 20.0155 26.4087 19.229 26.5404C18.4417 26.6724 17.9106 27.4176 18.0425 28.2048C18.7857 32.6362 21.0862 36.6923 24.5204 39.6258C27.9937 42.5929 32.4257 44.227 36.9998 44.227C47.5993 44.227 56.2226 35.6037 56.2226 25.0042C56.2226 14.4047 47.5995 5.78125 37 5.78125ZM32.8086 22.7277C32.8086 20.4165 34.6889 18.5361 37 18.5361C39.311 18.5361 41.1914 20.4165 41.1914 22.7277V24.1369C41.1914 26.4479 39.311 28.3283 37 28.3283C34.6889 28.3283 32.8086 26.4479 32.8086 24.1369V22.7277ZM37 41.3362C33.087 41.3362 29.4693 39.9698 26.638 37.6533C28.5787 33.7145 32.5463 31.2189 37 31.2189C41.4445 31.2189 45.4045 33.7043 47.3496 37.6287C44.5302 39.9442 40.9246 41.3362 37 41.3362Z" fill="#FF9900" stroke="#FF9900"/>
<path d="M50.3485 57.5239H29.825C29.0269 57.5239 28.3797 58.1711 28.3797 58.9692C28.3797 59.7673 29.0269 60.4146 29.825 60.4146H50.3485C51.1467 60.4146 51.7938 59.7673 51.7938 58.9692C51.7938 58.1711 51.1466 57.5239 50.3485 57.5239Z" fill="#FF9900" stroke="#FF9900"/>
<path d="M24.6729 49.8532C24.4041 49.5842 24.0312 49.4297 23.6511 49.4297C23.2709 49.4297 22.8981 49.5843 22.6292 49.8532C22.3604 50.122 22.2057 50.4949 22.2057 50.875C22.2057 51.2564 22.3605 51.628 22.6292 51.8967C22.8981 52.1657 23.2709 52.3203 23.6511 52.3203C24.0312 52.3203 24.4041 52.1657 24.6729 51.8967C24.9432 51.628 25.0964 51.2551 25.0964 50.875C25.0964 50.4949 24.9432 50.122 24.6729 49.8532Z" fill="#FF9900" stroke="#FF9900"/>
<path d="M24.6729 57.9469C24.4041 57.6779 24.0326 57.5234 23.6511 57.5234C23.2709 57.5234 22.8981 57.6781 22.6292 57.9469C22.3604 58.2157 22.2057 58.5886 22.2057 58.9688C22.2057 59.3502 22.3605 59.7218 22.6292 59.9904C22.8981 60.2594 23.2709 60.4141 23.6511 60.4141C24.0312 60.4141 24.4041 60.2594 24.6729 59.9904C24.9432 59.7218 25.0964 59.3503 25.0964 58.9688C25.0964 58.5886 24.9432 58.2157 24.6729 57.9469Z" fill="#FF9900" stroke="#FF9900"/>
<path d="M50.3485 49.4302H29.825C29.0269 49.4302 28.3797 50.0774 28.3797 50.8755C28.3797 51.6736 29.0269 52.3208 29.825 52.3208H50.3485C51.1467 52.3208 51.7938 51.6736 51.7938 50.8755C51.7938 50.0774 51.1466 49.4302 50.3485 49.4302Z" fill="#FF9900" stroke="#FF9900"/>
<path d="M23.36 8.32895C22.7953 7.7647 21.8804 7.7647 21.3159 8.32895L16.6091 13.0358L15.0006 11.4273C14.4359 10.863 13.521 10.863 12.9565 11.4273C12.3921 11.9918 12.3921 12.907 12.9565 13.4714L15.587 16.1018C15.8692 16.384 16.239 16.5252 16.609 16.5252C16.979 16.5252 17.3487 16.384 17.6311 16.102L23.36 10.3731C23.9244 9.80852 23.9244 8.89334 23.36 8.32895Z" fill="#FF9900" stroke="#FF9900"/>
<path d="M18.2109 0C11.676 0 6.35938 5.31658 6.35938 11.8516C6.35938 18.3865 11.676 23.7031 18.2109 23.7031C24.7459 23.7031 30.0625 18.3865 30.0625 11.8516C30.0625 5.31658 24.7459 0 18.2109 0ZM18.2109 20.8125C13.2698 20.8125 9.25 16.7927 9.25 11.8516C9.25 6.91047 13.2698 2.89062 18.2109 2.89062C23.152 2.89062 27.1719 6.91047 27.1719 11.8516C27.1719 16.7927 23.152 20.8125 18.2109 20.8125Z" fill="#FF9900" stroke="#FF9900"/>
</g>
<defs>
<clipPath id="clip0">
<rect width="74" height="74" fill="white"/>
</clipPath>
</defs>
</svg>
