<svg width="13" height="13" viewBox="0 0 13 13" fill="none" xmlns="http://www.w3.org/2000/svg">
<g clip-path="url(#clip0)">
<path d="M12.7085 10.2738L10.7009 8.2659C10.301 7.86762 9.6388 7.87972 9.22498 8.29368L8.21352 9.30492C8.14962 9.2697 8.08348 9.23291 8.01394 9.19388C7.37521 8.83997 6.501 8.3549 5.58108 7.4343C4.65844 6.51177 4.17291 5.63622 3.81792 4.99708C3.78046 4.92937 3.74457 4.86409 3.70912 4.80209L4.38796 4.12426L4.7217 3.7901C5.13616 3.37554 5.14758 2.71351 4.74863 2.31407L2.74099 0.305979C2.34204 -0.0928987 1.67952 -0.0807979 1.26507 0.333766L0.699243 0.902838L0.714705 0.918188C0.524977 1.16028 0.366435 1.43949 0.248452 1.74059C0.139695 2.0272 0.0719827 2.3007 0.0410212 2.57476C-0.224075 4.77247 0.780214 6.78101 3.50573 9.50656C7.27321 13.2738 10.3093 12.9892 10.4403 12.9753C10.7256 12.9412 10.9989 12.873 11.2768 12.7651C11.5753 12.6485 11.8543 12.4902 12.0962 12.3009L12.1086 12.3119L12.6818 11.7506C13.0954 11.3361 13.1073 10.6738 12.7085 10.2738Z" fill="white"/>
</g>
<defs>
<clipPath id="clip0">
<rect width="13" height="13" fill="white"/>
</clipPath>
</defs>
</svg>
