<svg width="71" height="71" viewBox="0 0 71 71" fill="none" xmlns="http://www.w3.org/2000/svg">
<g clip-path="url(#clip0)">
<path d="M36.4984 0.406309C36.2391 0.148379 35.8827 0 35.518 0C35.1533 0 34.7956 0.14824 34.5376 0.406309C34.2783 0.664238 34.1313 1.02201 34.1313 1.38672C34.1313 1.75143 34.2783 2.1092 34.5376 2.36699C34.7956 2.62506 35.1533 2.77344 35.518 2.77344C35.8827 2.77344 36.2391 2.62506 36.4984 2.36699C36.7562 2.1092 36.9048 1.75143 36.9048 1.38672C36.9048 1.02201 36.7564 0.664238 36.4984 0.406309Z" fill="#FF9900" stroke="#FF9900" stroke-width="0.5"/>
<path d="M70.5941 33.133L56.3008 18.8326V10.2617C56.3008 8.73245 55.0566 7.48828 53.5273 7.48828H50.7539V1.38672C50.7539 0.620973 50.1329 0 49.3672 0H40.7234C39.9576 0 39.3366 0.620973 39.3366 1.38672C39.3366 2.15246 39.9576 2.77344 40.7234 2.77344H47.9805V7.48828H23.0195V2.77344H30.3228C31.0886 2.77344 31.7095 2.15246 31.7095 1.38672C31.7095 0.620973 31.0886 0 30.3228 0H21.6328C20.8671 0 20.2461 0.620973 20.2461 1.38672V7.48828H17.4727C15.9434 7.48828 14.6992 8.73245 14.6992 10.2617V60.7383H11.6484C10.8827 60.7383 10.2617 61.3593 10.2617 62.125V68.2266H2.77344V36.8867H11.6484C12.4142 36.8867 13.0352 36.2657 13.0352 35.5C13.0352 34.7343 12.4142 34.1133 11.6484 34.1133H1.38672C0.620973 34.1133 0 34.7343 0 35.5V69.6133C0 70.379 0.620973 71 1.38672 71H69.6133C70.379 71 71 70.379 71 69.6133V34.1133C71 33.7457 70.854 33.393 70.5941 33.133ZM43.3581 10.2617H53.5273V20.8008H43.3581V10.2617ZM43.3581 23.5742H53.5273V34.1133H43.3581V23.5742ZM43.3581 36.8867H53.5273V47.4258H43.3581V36.8867ZM43.3581 50.1992H53.5273V60.7383H43.3581V50.1992ZM30.4153 10.2617H40.5847V20.8008H30.4153V10.2617ZM30.4153 23.5742H40.5847V34.1133H30.4153V23.5742ZM30.4153 36.8867H40.5847V47.4258H30.4153V36.8867ZM30.4153 50.1992H40.5847V60.7383H30.4153V50.1992ZM17.4727 10.2617H27.6419V20.8008H17.4727V10.2617ZM17.4727 23.5742H27.6419V34.1133H17.4727V23.5742ZM17.4727 36.8867H27.6419V47.4258H17.4727V36.8867ZM17.4727 50.1992H27.6419V60.7383H17.4727V50.1992ZM57.9648 68.2266H13.0352V63.5117H54.9141H57.9648V68.2266ZM68.2266 68.2266H60.7383V62.125C60.7383 61.3593 60.1173 60.7383 59.3516 60.7383H56.3008V56.8379H60.7158C61.4816 56.8379 62.1025 56.2169 62.1025 55.4511C62.1025 54.6854 61.4816 54.0644 60.7158 54.0644H56.3008V50.1874H60.7158C61.4816 50.1874 62.1025 49.5665 62.1025 48.8007C62.1025 48.035 61.4816 47.414 60.7158 47.414H56.3008V43.5371H60.7158C61.4816 43.5371 62.1025 42.9162 62.1025 42.1504C62.1025 41.3847 61.4816 40.7637 60.7158 40.7637H56.3008V36.8867H60.7158C61.4816 36.8867 62.1025 36.2657 62.1025 35.5C62.1025 34.7343 61.4816 34.1133 60.7158 34.1133H56.3008V22.7559L68.2266 34.6875V68.2266Z" fill="#FF9900" stroke="#FF9900" stroke-width="0.5"/>
<path d="M9.7166 55.5518C9.45881 55.2924 9.10104 55.1455 8.73633 55.1455C8.37162 55.1455 8.01385 55.2925 7.75592 55.5518C7.49799 55.8097 7.34961 56.1675 7.34961 56.5322C7.34961 56.8969 7.49785 57.2547 7.75592 57.5126C8.01385 57.7704 8.37162 57.9189 8.73633 57.9189C9.10104 57.9189 9.45881 57.7706 9.7166 57.5126C9.97453 57.2547 10.123 56.8969 10.123 56.5322C10.123 56.1675 9.97467 55.8097 9.7166 55.5518Z" fill="#FF9900" stroke="#FF9900" stroke-width="0.5"/>
<path d="M8.73633 40.0376C7.97058 40.0376 7.34961 40.6586 7.34961 41.4243V51.3083C7.34961 52.074 7.97058 52.695 8.73633 52.695C9.50207 52.695 10.123 52.074 10.123 51.3083V41.4243C10.123 40.6586 9.50207 40.0376 8.73633 40.0376Z" fill="#FF9900" stroke="#FF9900" stroke-width="0.5"/>
</g>
<defs>
<clipPath id="clip0">
<rect width="71" height="71" fill="white"/>
</clipPath>
</defs>
</svg>
