<svg width="48" height="71" viewBox="0 0 48 71" fill="none" xmlns="http://www.w3.org/2000/svg">
<path d="M24.0871 49.1023C23.2787 49.9497 23.2787 51.3428 24.0871 52.1902C24.8955 53.0375 26.2245 53.0375 27.0329 52.1902C27.8413 51.3428 27.8413 49.9497 27.0329 49.1023C26.2245 48.2406 24.8955 48.2406 24.0871 49.1023Z" fill="#FF0126"/>
<path d="M13.7699 40.2118C12.9615 39.3643 11.6325 39.3643 10.8241 40.2118C10.0157 41.0592 10.0157 42.4525 10.8241 43.3C11.6325 44.1474 12.9615 44.1474 13.7699 43.3C14.5783 42.4525 14.5783 41.0736 13.7699 40.2118Z" fill="#FF0126"/>
<path d="M46.9959 5.17966C46.3519 3.54225 44.3789 0.784504 38.3777 0.727051C38.3092 0.727051 38.2544 0.727051 38.1859 0.727051C34.5002 0.727051 30.1157 1.74684 25.7998 3.61407C25.0051 3.95878 24.2378 4.31787 23.4979 4.70567L23.4568 4.66258C20.9906 2.14901 17.0583 2.14901 14.592 4.66258L2.50736 16.9719C0.904293 18.5949 0 20.8356 0 23.1768V64.8734C0 68.2344 2.60327 70.9634 5.8094 70.9634H32.2531C35.4593 70.9634 38.0625 68.2344 38.0625 64.8734V23.1768C38.0625 21.9847 37.8296 20.8069 37.3775 19.744C39.9396 18.2359 42.173 16.5123 43.8857 14.7025C48.0783 10.2355 47.6398 6.81707 46.9959 5.17966ZM7.26175 41.7629C7.26175 38.8615 9.52249 36.4916 12.2902 36.4916C15.0579 36.4916 17.3186 38.8615 17.3186 41.7629C17.3186 44.6643 15.0579 47.0342 12.2902 47.0342C9.52249 47.0342 7.27546 44.6786 7.26175 41.7629ZM11.5366 55.5516C11.0159 55.092 10.9474 54.2876 11.3722 53.7418L24.5804 37.0661C25.0188 36.5203 25.7861 36.4485 26.3067 36.8937C26.8274 37.3534 26.8959 38.1577 26.4711 38.7035L13.263 55.3792C12.8245 55.925 12.0573 55.9969 11.5366 55.5516ZM25.5669 55.925C22.7992 55.925 20.5384 53.5551 20.5384 50.6537C20.5384 47.7524 22.7992 45.3824 25.5669 45.3824C28.3345 45.3824 30.5953 47.7524 30.5953 50.6537C30.5953 53.5551 28.3345 55.925 25.5669 55.925ZM31.1433 17.2017C28.6223 18.2933 26.0327 19.0689 23.6761 19.4424C23.6761 19.5573 23.6898 19.6578 23.6898 19.7727C23.6898 22.5592 21.5386 24.8142 18.8806 24.8142C16.2225 24.8142 14.0714 22.5592 14.0714 19.7727C14.0714 16.9863 16.2225 14.7312 18.8806 14.7312C20.4699 14.7312 22.355 15.9665 22.7444 16.7708C23.1337 17.5752 25.3153 16.9743 29.7595 16.7129C34.2037 16.4516 33.0445 16.6409 32.1161 15.5926C31.1878 14.5443 27.2658 8.54066 27.2658 8.54066C27.4028 8.48321 27.5399 8.42576 27.6769 8.35394C31.3626 6.75962 35.1853 5.85473 38.1996 5.85473C38.2407 5.85473 38.2955 5.85473 38.3366 5.85473C41.2276 5.88346 42.31 6.70217 42.4744 7.13306C42.9814 8.45448 39.7615 13.4816 31.1433 17.2017Z" fill="#FF0126"/>
</svg>
