<svg width="29" height="29" viewBox="0 0 29 29" fill="none" xmlns="http://www.w3.org/2000/svg">
<path d="M22.6998 9.16978C21.9356 7.42281 20.8721 5.76024 19.5388 4.22805C17.2734 1.62496 15.0213 0.302631 14.9265 0.247633L14.5 0L14.0734 0.247633C13.9787 0.302688 11.7267 1.62496 9.4612 4.22805C8.12782 5.76024 7.06434 7.42281 6.30014 9.16978C5.34094 11.3626 4.85468 13.6909 4.85468 16.09C4.85468 21.0934 8.73903 25.2064 13.6505 25.5723V29H15.3496V25.5723C20.261 25.2064 24.1454 21.0934 24.1454 16.09C24.1453 13.6909 23.659 11.3626 22.6998 9.16978ZM10.705 5.3872C11.7735 4.15215 12.8512 3.22183 13.6504 2.60666V10.0362L9.12283 7.49735C9.59023 6.77059 10.1183 6.06553 10.705 5.3872ZM7.84286 9.88288C7.97648 9.57572 8.12069 9.27122 8.27469 8.96972L13.6504 11.9842V17.405L6.76233 13.5425C6.96935 12.2875 7.32959 11.0633 7.84286 9.88288ZM13.6505 23.8669C9.67717 23.5055 6.55378 20.156 6.55378 16.09C6.55378 15.8535 6.55995 15.6178 6.57043 15.3829L13.6505 19.3531V23.8669ZM21.143 9.85071C21.6637 11.0411 22.0287 12.2761 22.2376 13.5425L15.3496 17.405V11.9842L20.7255 8.96955C20.8742 9.26063 21.0135 9.55437 21.143 9.85071ZM15.3495 10.0362V2.60479C16.1372 3.21084 17.1967 4.12514 18.257 5.34353C18.8589 6.03523 19.3999 6.75479 19.8774 7.49718L15.3495 10.0362ZM15.3496 23.8669V19.3531L22.4295 15.383C22.44 15.6179 22.4462 15.8535 22.4462 16.0901C22.4462 20.1559 19.3229 23.5055 15.3496 23.8669Z" fill="#FFFBF7"/>
</svg>
