<svg width="52" height="74" viewBox="0 0 52 74" fill="none" xmlns="http://www.w3.org/2000/svg">
<circle cx="26" cy="22" r="12" fill="white"/>
<path d="M50.7715 18.1807C50.5028 17.2062 49.9572 16.1678 49.5536 15.2587C44.7236 4.02569 34.1701 0 25.6487 0C14.2413 0 1.67739 7.40229 0 22.6602V25.7774C0 25.9075 0.0463309 27.0761 0.112142 27.6607C1.05245 34.9322 6.98158 42.6602 11.4097 49.9317C16.1737 57.7224 21.1171 65.3863 26.0147 73.0469C29.0346 68.0477 32.0436 62.9828 34.9948 58.1131C35.7991 56.6839 36.7327 55.2556 37.5379 53.8915C38.0746 52.9833 39.0998 52.075 39.5682 51.2299C44.3321 42.7895 52 34.2838 52 25.9073V22.4662C52.0002 21.5581 50.837 18.3765 50.7715 18.1807ZM25.8576 33.8293C22.5044 33.8293 18.8341 32.2067 17.0224 27.7257C16.7525 27.0124 16.7743 25.583 16.7743 25.452V23.4392C16.7743 17.7267 21.7864 15.129 26.1468 15.129C31.5149 15.129 35.6666 19.2851 35.6666 24.4799C35.6666 29.6745 31.2257 33.8293 25.8576 33.8293Z" fill="#FF9900"/>
</svg>
