<svg width="89" height="89" viewBox="0 0 89 89" fill="none" xmlns="http://www.w3.org/2000/svg">
<path d="M73.1816 62.752H78.3965V67.9668H73.1816V62.752Z" fill="#FF9900"/>
<path d="M16.1776 43.6118C19.5591 45.8662 23.9991 47.1074 28.6816 47.1074C33.3641 47.1074 37.8042 45.8662 41.1857 43.6118C44.8925 41.1409 46.9336 37.7519 46.9336 34.0703C46.9336 30.3887 44.8925 26.9997 41.1857 24.5288C37.8042 22.2744 33.3641 21.0332 28.6816 21.0332C23.9991 21.0332 19.5591 22.2744 16.1776 24.5288C12.4708 26.9997 10.4297 30.3887 10.4297 34.0703C10.4297 37.7519 12.4708 41.1409 16.1776 43.6118ZM28.6816 26.248C35.7482 26.248 41.7188 29.8299 41.7188 34.0703C41.7188 38.3108 35.7482 41.8926 28.6816 41.8926C21.6151 41.8926 15.6445 38.3108 15.6445 34.0703C15.6445 29.8299 21.6151 26.248 28.6816 26.248Z" fill="#FF9900"/>
<path d="M28.6816 78.3965H89V52.3223H57.3633V34.0703C57.3633 27.6903 54.3036 21.7292 48.7479 17.2844C43.3626 12.976 36.2364 10.6035 28.6816 10.6035C21.1269 10.6035 14.0006 12.976 8.61536 17.2844C3.05965 21.7292 0 27.6903 0 34.0703V54.9297C0 68.8387 13.9708 78.3965 28.6816 78.3965ZM83.7852 73.1816H67.793V57.5371H83.7852V73.1816ZM52.1484 52.3223H46.7353C47.4293 51.8619 48.1015 51.373 48.7479 50.8563C50.0136 49.8432 51.1482 48.7513 52.1484 47.5943V52.3223ZM28.6816 15.8184C41.621 15.8184 52.1484 24.0059 52.1484 34.0703C52.1484 44.1347 41.621 52.3223 28.6816 52.3223C15.7423 52.3223 5.21484 44.1347 5.21484 34.0703C5.21484 24.0059 15.7423 15.8184 28.6816 15.8184ZM5.21484 47.5943C6.21503 48.7513 7.34967 49.8432 8.61536 50.8563C14.0006 55.1646 21.1269 57.5371 28.6816 57.5371H62.5781V73.1816H57.3633V62.752H52.1484V73.1816H46.9336V67.9668H41.7188V73.1816H36.5039V62.752H31.2891V73.0682C30.4254 73.1429 29.5535 73.1816 28.6816 73.1816C15.7423 73.1816 5.21484 64.9941 5.21484 54.9297V47.5943Z" fill="#FF9900"/>
<path d="M20.8594 31.4629H36.5039V36.6777H20.8594V31.4629Z" fill="#FF9900"/>
</svg>
