<svg width="78" height="78" viewBox="0 0 78 78" fill="none" xmlns="http://www.w3.org/2000/svg">
<path d="M68.974 27.5902L63.0424 21.4594L64.2373 13.015C64.4201 11.7234 63.5457 10.5196 62.2606 10.2945L53.8594 8.82181L49.8603 1.28499C49.249 0.133038 47.8334 -0.326709 46.6624 0.246202L39.0008 3.99124L31.3373 0.246202C30.1653 -0.326709 28.751 0.13336 28.1394 1.28563L24.1419 8.82181L15.7397 10.2945C14.455 10.5196 13.5803 11.7234 13.7631 13.015L14.9576 21.4594L9.02601 27.5902C8.11909 28.5277 8.11909 30.0153 9.02633 30.9529L14.9576 37.083L13.7631 45.5319C13.5806 46.8232 14.455 48.027 15.7397 48.2521L22.4641 49.4308V75.5819C22.4641 76.4198 22.8981 77.1981 23.6109 77.6385C23.9991 77.8787 24.4401 77.9999 24.8821 77.9999C25.2516 77.9999 25.622 77.9154 25.9635 77.7446L39.0011 71.2281L52.0369 77.7446C52.7861 78.1192 53.6766 78.0792 54.3894 77.6385C55.1023 77.1978 55.5362 76.4195 55.5362 75.5816V49.4311L62.2609 48.2517C63.5457 48.0264 64.4201 46.8228 64.2376 45.5313L63.0427 37.0824L68.974 30.9525C69.8806 30.0156 69.8806 28.5277 68.974 27.5902ZM40.0821 66.3618C39.4019 66.0216 38.6007 66.0213 37.9198 66.3618L27.3001 71.6698V55.677L28.1397 57.2597C28.751 58.4123 30.167 58.8717 31.3379 58.2985L39.0011 54.5509L46.6621 58.2985C47.0038 58.4655 47.3662 58.5448 47.7231 58.5448C48.5904 58.5448 49.4273 58.076 49.8606 57.26L50.7002 55.6786V71.6698L40.0821 66.3618ZM58.7448 34.5696C58.226 35.1057 57.9839 35.8511 58.0884 36.5898L59.121 43.8925L51.8602 45.1657C51.1258 45.2943 50.4916 45.755 50.1418 46.4137L46.6853 52.9263L40.0634 49.6871C39.7282 49.5233 39.3645 49.4411 39.0008 49.4411C38.6371 49.4411 38.2735 49.523 37.9385 49.6871L31.315 52.9263L27.8598 46.414C27.5104 45.755 26.8762 45.2943 26.1414 45.1657L18.879 43.8925L19.9113 36.5894C20.0158 35.8511 19.7736 35.1054 19.2549 34.5696L14.1284 29.2712L19.2552 23.9722C19.7736 23.436 20.0158 22.6906 19.9113 21.9523L18.879 14.6541L26.1414 13.3809C26.8762 13.2523 27.5104 12.7912 27.8602 12.1322L31.3154 5.61809L37.9391 8.85502C38.6091 9.18258 39.3929 9.18258 40.0628 8.85502L46.6846 5.61809L50.1418 12.1326C50.4913 12.7912 51.1254 13.252 51.8602 13.3809L59.121 14.6538L58.0884 21.952C57.9839 22.6906 58.226 23.436 58.7445 23.9722L63.8713 29.2712L58.7448 34.5696Z" fill="#FF9900"/>
<path d="M39.0008 12.7368C29.8823 12.7368 22.4638 20.154 22.4638 29.2713C22.4638 38.3904 29.8823 45.8093 39.0008 45.8093C48.118 45.8093 55.5356 38.3904 55.5356 29.2713C55.5356 20.154 48.118 12.7368 39.0008 12.7368ZM39.0008 40.9732C32.5489 40.9732 27.2998 35.7238 27.2998 29.2713C27.2998 22.8206 32.5489 17.5729 39.0008 17.5729C45.4515 17.5729 50.6995 22.8206 50.6995 29.2713C50.6995 35.7238 45.4515 40.9732 39.0008 40.9732Z" fill="#FF9900"/>
<path d="M43.93 23.1373L36.7872 30.2785L34.069 27.5636C33.1244 26.6196 31.5933 26.6205 30.6493 27.5655C29.7056 28.5105 29.7066 30.0412 30.6515 30.9849L35.0791 35.4076C35.5511 35.8793 36.1695 36.115 36.7878 36.115C37.4065 36.115 38.0255 35.879 38.4975 35.407L47.3491 26.5573C48.2938 25.6133 48.2938 24.0822 47.3494 23.1376C46.4054 22.1933 44.8744 22.193 43.93 23.1373Z" fill="#FF9900"/>
</svg>
