<svg width="32" height="32" viewBox="0 0 32 32" fill="none" xmlns="http://www.w3.org/2000/svg">
<g clip-path="url(#clip0)">
<path d="M29.4098 8.23942C29.3934 7.37546 29.3777 6.55929 29.3777 5.76971C29.3777 5.15113 28.8763 4.64963 28.2576 4.64963C23.4674 4.64963 19.8202 3.27297 16.7802 0.317151C16.3453 -0.105792 15.6532 -0.105642 15.2185 0.317151C12.1787 3.27297 8.53221 4.64963 3.74229 4.64963C3.1237 4.64963 2.62221 5.15113 2.62221 5.76971C2.62221 6.55944 2.60667 7.37591 2.5901 8.24002C2.43657 16.2801 2.2263 27.2914 15.6325 31.9383C15.7514 31.9795 15.8753 32.0001 15.9993 32.0001C16.1232 32.0001 16.2473 31.9795 16.3661 31.9383C29.7733 27.2913 29.5633 16.2797 29.4098 8.23942ZM15.9994 29.6914C4.50185 25.5147 4.67569 16.3651 4.82996 8.28273C4.83922 7.79766 4.84818 7.32752 4.85446 6.86664C9.34076 6.67728 12.9283 5.31779 15.9994 2.64244C19.0708 5.31779 22.659 6.67743 27.1456 6.86664C27.1519 7.32737 27.1608 7.79721 27.1701 8.28198C27.3242 16.3646 27.4979 25.5145 15.9994 29.6914Z" fill="white"/>
<path d="M19.8565 12.1092L14.4504 17.5151L12.1435 15.2081C11.7061 14.7709 10.9968 14.7709 10.5595 15.2081C10.1221 15.6457 10.1221 16.3548 10.5595 16.7922L13.6584 19.8911C13.8771 20.1098 14.1638 20.2191 14.4504 20.2191C14.737 20.2191 15.0237 20.1098 15.2424 19.8911L21.4403 13.6933C21.8779 13.2559 21.8779 12.5467 21.4405 12.1094C21.0032 11.672 20.294 11.6718 19.8565 12.1092Z" fill="white"/>
</g>
<defs>
<clipPath id="clip0">
<rect width="32" height="32" fill="white"/>
</clipPath>
</defs>
</svg>
