<svg width="68" height="68" viewBox="0 0 68 68" fill="none" xmlns="http://www.w3.org/2000/svg">
<path fill-rule="evenodd" clip-rule="evenodd" d="M34.0003 3.2207L64.3912 30.7028L34.0003 58.228L3.60889 30.7032L34.0003 3.2207ZM15.8129 23.9185H12.1091V27.2677L8.31045 30.7028L12.1091 34.2241V37.4875H15.7179L34.0003 53.9768L52.2345 37.4875H55.891V34.1383L59.6897 30.7032L55.891 27.3108V23.9185H52.14L34.0003 7.4719L15.8129 23.9185Z" fill="#FF9900"/>
<path fill-rule="evenodd" clip-rule="evenodd" d="M50.3353 23.9614H17.6174L34.0002 9.14697L50.3353 23.9614ZM55.891 32.4636V28.9855L57.8378 30.7028L55.891 32.4636ZM17.522 37.4446H50.4303L34.0002 52.3018L17.522 37.4446ZM12.109 28.9424V32.5494L10.1622 30.7028L12.109 28.9424Z" fill="#FF9900"/>
<path fill-rule="evenodd" clip-rule="evenodd" d="M5.17586 33.58L1.99447 30.7028L34.0002 1.76083L66.0055 30.7031L62.8237 33.5804L66.0055 36.4573L34.0002 65.4423L1.99447 36.4573L5.17586 33.58ZM64.8186 33.6231L68 36.5004L34.0002 67.2031L0 36.5004L3.18139 33.6231L0 30.7462L34.0002 0L68 30.7459L64.8186 33.6231Z" fill="#FF9900"/>
<path fill-rule="evenodd" clip-rule="evenodd" d="M34.0003 59.5599L61.9693 34.3105L64.3912 36.4572L34.0003 63.9824L3.60889 36.4572L6.03077 34.3105L34.0003 59.5599Z" fill="#FF9900"/>
<path fill-rule="evenodd" clip-rule="evenodd" d="M52.7572 36.4146H48.9283L48.7158 34.9975H46.5891L46.3766 36.4146H42.5477L45.1003 24.7778H49.7792L52.7572 36.4146ZM48.5454 31.9486L47.6099 29.2434L46.7166 31.9486H48.5454ZM32.9904 36.4146V24.7778H36.4646V28.256L38.3518 24.7778H42.1262L39.381 30.4888L42.2974 36.4146H38.6946L36.4646 32.7647V36.4146H32.9904ZM25.0789 36.4146V24.7778H31.6271V27.5257H28.868V29.3293H31.3328V31.7341H28.868V33.6236H31.7741V36.4146H25.0789ZM17.4327 36.4146L14.5679 24.7778H18.1719L19.5578 29.9306L21.2675 24.7778H24.8246L21.221 36.4146H17.4327Z" fill="#FF9900"/>
</svg>
