<svg width="18" height="18" viewBox="0 0 18 18" fill="none" xmlns="http://www.w3.org/2000/svg">
<g clip-path="url(#clip0)">
<path d="M17.9045 13.14C17.8827 13.093 17.8624 13.0541 17.8435 13.0229C17.5312 12.4604 16.9344 11.77 16.0535 10.9515L16.0349 10.9328L16.0256 10.9236L16.0161 10.9142H16.0067C15.6069 10.533 15.3537 10.2768 15.2477 10.1456C15.0537 9.89562 15.0102 9.64263 15.1162 9.3863C15.1911 9.19263 15.4725 8.78363 15.9597 8.15873C16.216 7.82756 16.4189 7.56214 16.5688 7.36216C17.6498 5.92507 18.1184 5.00675 17.9747 4.60684L17.9188 4.51339C17.8813 4.45713 17.7845 4.40566 17.6285 4.35872C17.4721 4.31188 17.2722 4.30413 17.0285 4.33535L14.3295 4.35399C14.2857 4.3385 14.2233 4.33994 14.142 4.35872C14.0607 4.37749 14.0201 4.38691 14.0201 4.38691L13.9731 4.41038L13.9358 4.43858C13.9046 4.45723 13.8702 4.49002 13.8327 4.53689C13.7954 4.5836 13.7641 4.63842 13.7392 4.70089C13.4453 5.45689 13.1112 6.15977 12.7363 6.80952C12.5051 7.19695 12.2928 7.53272 12.0989 7.81702C11.9052 8.10123 11.7428 8.31062 11.6117 8.44484C11.4804 8.57919 11.3619 8.68683 11.2555 8.76814C11.1492 8.84948 11.0681 8.88385 11.0119 8.87127C10.9556 8.8587 10.9026 8.84623 10.8524 8.83375C10.765 8.77749 10.6947 8.70098 10.6417 8.60414C10.5885 8.50731 10.5526 8.38543 10.5339 8.2386C10.5152 8.09167 10.5042 7.9653 10.501 7.85904C10.4981 7.75292 10.4995 7.60281 10.5058 7.40914C10.5123 7.21537 10.5152 7.08427 10.5152 7.01553C10.5152 6.77807 10.5198 6.52036 10.5291 6.24233C10.5386 5.9643 10.5462 5.74401 10.5526 5.58172C10.559 5.41927 10.562 5.2474 10.562 5.0662C10.562 4.885 10.5509 4.7429 10.5291 4.63977C10.5076 4.53676 10.4745 4.43678 10.431 4.33984C10.3872 4.24301 10.323 4.1681 10.2389 4.11492C10.1545 4.06181 10.0497 4.01966 9.92492 3.98835C9.59375 3.91341 9.17204 3.87287 8.65961 3.86657C7.49756 3.85409 6.75088 3.92913 6.41974 4.09158C6.28854 4.16022 6.16981 4.254 6.06365 4.37263C5.95116 4.51014 5.93547 4.58518 6.01668 4.59752C6.39161 4.65369 6.65704 4.78804 6.81325 5.00045L6.86955 5.11301C6.91334 5.19422 6.95706 5.33799 7.00081 5.54414C7.0445 5.75028 7.0727 5.97832 7.08511 6.22812C7.11629 6.68429 7.11629 7.07478 7.08511 7.39962C7.05383 7.72459 7.02428 7.97757 6.99609 8.15877C6.96789 8.33996 6.92574 8.48679 6.86955 8.59922C6.81325 8.71168 6.7758 8.78041 6.75702 8.80536C6.73828 8.83031 6.72265 8.84603 6.71025 8.8522C6.62904 8.88332 6.54458 8.89918 6.45716 8.89918C6.36962 8.89918 6.26346 8.85539 6.13853 8.76787C6.01363 8.68036 5.884 8.56016 5.74965 8.40706C5.61529 8.25393 5.46377 8.03994 5.29502 7.76506C5.12639 7.49018 4.95143 7.16531 4.77024 6.79045L4.62033 6.51859C4.52661 6.34369 4.39859 6.08904 4.23614 5.75484C4.07359 5.42052 3.92991 5.09712 3.80501 4.78472C3.75508 4.65352 3.68008 4.55363 3.58013 4.4849L3.53322 4.4567C3.50203 4.43175 3.45198 4.40526 3.38331 4.37703C3.31454 4.34884 3.24278 4.32862 3.16774 4.31618L0.599854 4.33482C0.337448 4.33482 0.159404 4.39427 0.0656552 4.513L0.0281359 4.56916C0.00939265 4.60044 -6.10352e-05 4.6504 -6.10352e-05 4.71917C-6.10352e-05 4.78791 0.0186822 4.87227 0.0562015 4.97216C0.431066 5.85319 0.838723 6.70287 1.27917 7.52133C1.71962 8.3398 2.10236 8.99909 2.42717 9.49863C2.75204 9.99853 3.08318 10.4703 3.42059 10.9138C3.75801 11.3574 3.98135 11.6417 4.09062 11.7666C4.20003 11.8918 4.28597 11.9853 4.34843 12.0478L4.58277 12.2727C4.73272 12.4226 4.95291 12.6023 5.24345 12.8115C5.53405 13.0209 5.85577 13.2271 6.20877 13.4303C6.56184 13.6332 6.97258 13.7987 7.44123 13.9268C7.90981 14.055 8.36589 14.1064 8.80952 14.0816H9.88731C10.1059 14.0627 10.2715 13.994 10.384 13.8754L10.4213 13.8284C10.4464 13.7911 10.4699 13.7332 10.4916 13.6552C10.5135 13.5771 10.5244 13.4911 10.5244 13.3975C10.518 13.1289 10.5384 12.8868 10.5852 12.6713C10.6319 12.4558 10.6851 12.2933 10.7447 12.1839C10.8042 12.0746 10.8713 11.9824 10.9461 11.9076C11.021 11.8327 11.0744 11.7873 11.1057 11.7716C11.1368 11.7559 11.1616 11.7453 11.1804 11.7389C11.3303 11.6889 11.5068 11.7373 11.7101 11.8842C11.9131 12.0311 12.1036 12.2124 12.2818 12.4278C12.4599 12.6435 12.6738 12.8854 12.9237 13.1541C13.1737 13.4228 13.3924 13.6225 13.5797 13.7539L13.7671 13.8664C13.8922 13.9414 14.0547 14.0101 14.2546 14.0726C14.4543 14.135 14.6291 14.1507 14.7793 14.1194L17.1784 14.082C17.4157 14.082 17.6004 14.0427 17.7313 13.9648C17.8626 13.8867 17.9405 13.8006 17.9657 13.7071C17.9907 13.6134 17.9921 13.5071 17.9704 13.3883C17.9482 13.2697 17.9263 13.1868 17.9045 13.14Z" fill="#A05700"/>
</g>
<defs>
<clipPath id="clip0">
<rect width="18" height="18" fill="white" transform="matrix(-1 0 0 1 18 0)"/>
</clipPath>
</defs>
</svg>
