<svg width="28" height="28" viewBox="0 0 28 28" fill="none" xmlns="http://www.w3.org/2000/svg">
<path d="M27.4043 2.91919H0.595745C0.268085 2.91919 0 3.18727 0 3.51493V24.4256C0 24.7532 0.268085 25.0213 0.595745 25.0213H27.4043C27.7319 25.0213 28 24.7532 28 24.4256V3.51493C28 3.18727 27.7319 2.91919 27.4043 2.91919ZM26.8085 23.8894H1.19149V4.11068H26.8085V23.8894Z" fill="#FFFBF7"/>
<path d="M3.15137 22.4595H3.16347H24.8425C25.1641 22.4656 25.4322 22.2094 25.4383 21.8875V21.8817V6.11821C25.4383 5.7966 25.1702 5.53434 24.8486 5.54039C24.8425 5.54039 24.8425 5.54039 24.8365 5.54039H3.16347C2.84163 5.53434 2.57355 5.79055 2.56773 6.1124V6.12426V21.8875C2.56168 22.2033 2.82976 22.4656 3.15137 22.4595ZM14.5957 6.73188H24.2468V21.2681H14.5957V6.73188ZM3.75317 6.73188H13.4042V21.2681H3.75317V6.73188Z" fill="#FFFBF7"/>
<path d="M16.383 12.5105C16.0553 12.5105 15.7872 12.7786 15.7872 13.1062V14.953C15.7872 15.2807 16.0553 15.5488 16.383 15.5488C16.7106 15.5488 16.9787 15.2807 16.9787 14.953V13.1062C16.9787 12.7786 16.7106 12.5105 16.383 12.5105Z" fill="#FFFBF7"/>
</svg>
