<svg width="72" height="72" viewBox="0 0 72 72" fill="none" xmlns="http://www.w3.org/2000/svg">
<path d="M6.46875 59.3438C5.30365 59.3438 4.35938 60.288 4.35938 61.4531V69.8906C4.35938 71.0557 5.30365 72 6.46875 72H65.5312C66.6964 72 67.6406 71.0557 67.6406 69.8906V61.4531C67.6406 60.288 66.6964 59.3438 65.5312 59.3438H63.4219V12.6562H65.5312C66.6964 12.6562 67.6406 11.712 67.6406 10.5469V2.10938C67.6406 0.944275 66.6964 0 65.5312 0H6.46875C5.30365 0 4.35938 0.944275 4.35938 2.10938V10.5469C4.35938 11.712 5.30365 12.6562 6.46875 12.6562H8.57812V59.3438H6.46875ZM63.4219 67.7812H8.57812V63.5625H63.4219V67.7812ZM33.8906 12.6562V25.4531H21.2344V12.6562H33.8906ZM50.7656 12.6562V25.4531H38.1094V12.6562H50.7656ZM38.1094 59.3438V46.5469H50.7656V59.3438H38.1094ZM21.2344 29.6719H33.8906V42.3281H21.2344V29.6719ZM38.1094 29.6719H50.7656V42.3281H38.1094V29.6719ZM21.2344 46.5469H33.8906V59.3438H21.2344V46.5469ZM59.2031 59.3438H54.9844V12.6562H59.2031V59.3438ZM8.57812 4.21875H63.4219V8.4375H8.57812V4.21875ZM12.7969 12.6562H17.0156V59.3438H12.7969V12.6562Z" fill="#FF9900"/>
</svg>
