<svg width="77" height="77" viewBox="0 0 77 77" fill="none" xmlns="http://www.w3.org/2000/svg">
<path d="M75.3617 8.02765H1.6383C0.737234 8.02765 0 8.76488 0 9.66595V67.1702C0 68.0713 0.737234 68.8085 1.6383 68.8085H75.3617C76.2628 68.8085 77 68.0713 77 67.1702V9.66595C77 8.76488 76.2628 8.02765 75.3617 8.02765ZM73.7234 65.6957H3.2766V11.3042H73.7234V65.6957Z" fill="#7B7F91"/>
<path d="M8.66633 61.7639H8.69961H68.317C69.2014 61.7805 69.9387 61.0759 69.9553 60.1908V60.1748V16.8252C69.9553 15.9408 69.2181 15.2196 68.3337 15.2362C68.317 15.2362 68.317 15.2362 68.3004 15.2362H8.69961C7.81454 15.2196 7.07731 15.9241 7.06131 16.8092V16.8418V60.1908C7.04467 61.0593 7.78191 61.7805 8.66633 61.7639ZM40.1383 18.5128H66.6787V58.4873H40.1383V18.5128ZM10.3213 18.5128H36.8617V58.4873H10.3213V18.5128Z" fill="#7B7F91"/>
<path d="M45.0532 34.4042C44.1521 34.4042 43.4149 35.1415 43.4149 36.0425V41.1213C43.4149 42.0223 44.1521 42.7596 45.0532 42.7596C45.9542 42.7596 46.6915 42.0223 46.6915 41.1213V36.0425C46.6915 35.1415 45.9542 34.4042 45.0532 34.4042Z" fill="#7B7F91"/>
</svg>
