<svg width="19" height="19" viewBox="0 0 19 19" fill="none" xmlns="http://www.w3.org/2000/svg">
<g clip-path="url(#clip0)">
<path d="M7.80552 9.7843C7.72307 9.70189 7.62818 9.66064 7.52099 9.66064C7.41376 9.66064 7.31887 9.70185 7.23646 9.7843L3.12966 13.8911L1.34841 12.1096C1.1917 11.9532 1.00635 11.8748 0.791795 11.8748C0.577241 11.8748 0.391673 11.9532 0.235004 12.1096C0.0782913 12.2665 0 12.4521 0 12.6666V18.2084C0 18.4227 0.0782913 18.6082 0.235004 18.765C0.391803 18.9215 0.577371 19 0.791795 19H6.33354C6.54796 19 6.73344 18.9215 6.89015 18.765C7.04678 18.6083 7.12516 18.4228 7.12516 18.2084C7.12516 17.9939 7.04678 17.8083 6.89015 17.6514L5.10891 15.8705L9.21571 11.7635C9.29812 11.681 9.33932 11.5864 9.33932 11.4791C9.33932 11.3717 9.29803 11.2772 9.21571 11.1944L7.80552 9.7843Z" fill="white"/>
<path d="M18.7652 0.235004C18.6086 0.0782913 18.423 0 18.2086 0H12.6668C12.4524 0 12.267 0.0782913 12.1102 0.235004C11.9536 0.39163 11.8753 0.577198 11.8753 0.791622C11.8753 1.00605 11.9536 1.19166 12.1102 1.34824L13.8912 3.12949L9.78442 7.23629C9.70206 7.31887 9.66077 7.41363 9.66077 7.52082C9.66077 7.62801 9.70206 7.72293 9.78442 7.80534L11.1948 9.21554C11.2772 9.29799 11.3718 9.33915 11.4791 9.33915C11.5865 9.33915 11.6811 9.29799 11.7635 9.21554L15.8706 5.10873L17.6515 6.88985C17.8083 7.04652 17.994 7.12503 18.2084 7.12503C18.4228 7.12503 18.6083 7.04652 18.765 6.88985C18.9216 6.73327 18.9999 6.54766 18.9999 6.33323V0.791492C19 0.576895 18.9222 0.391673 18.7652 0.235004Z" fill="white"/>
</g>
<defs>
<clipPath id="clip0">
<rect width="19" height="19" fill="white"/>
</clipPath>
</defs>
</svg>
