<svg xmlns="http://www.w3.org/2000/svg" width="41" height="39" viewBox="0 0 41 39"><g><g><path d="M16.773 3.614C16.773 1.618 18.442 0 20.5 0c2.059 0 3.727 1.619 3.727 3.615 0 1.997-1.668 3.616-3.727 3.616s-3.727-1.619-3.727-3.616zm1.863 0c0 1 .835 1.808 1.864 1.808 1.03 0 1.864-.809 1.864-1.808 0-.998-.835-1.807-1.864-1.807-1.03 0-1.864.81-1.864 1.807zm8.387 9.039v.723c0 .497-.513.768-1.025.768H15.002c-.512 0-1.025-.271-1.025-.768v-.723l.001-.048c.078-2.72 2.414-4.863 5.218-4.788h2.609l.049-.001c2.804-.048 5.118 2.116 5.169 4.837zm-1.957-.316c-.093-1.356-1.538-2.712-3.261-2.712h-2.61c-1.723 0-3.168 1.356-3.26 2.712zm-20.64 9.715c-.006-4.728 2.206-9.201 6.01-12.156a.954.954 0 0 1 1.182.123c.36.357.352.93-.017 1.278-3.36 2.618-5.314 6.574-5.311 10.755 0 .5-.417.904-.932.904-.515 0-.932-.404-.932-.904zm21.805 13.603a.943.943 0 0 1-.606 1.175 16.4 16.4 0 0 1-10.258-.018.851.851 0 0 1-.504-1.112.939.939 0 0 1 1.164-.587 14.585 14.585 0 0 0 9.014-.008.94.94 0 0 1 1.19.55zm2.236-26.12a.956.956 0 0 1 1.305-.227c4.255 2.934 6.789 7.68 6.802 12.744 0 .5-.417.904-.932.904-.515 0-.932-.404-.932-.904.007-4.476-2.236-8.675-6.01-11.252a.891.891 0 0 1-.233-1.266zM2.796 28.468c0-1.996 1.668-3.614 3.727-3.614 2.058 0 3.727 1.618 3.727 3.614 0 1.997-1.669 3.616-3.727 3.616-2.059 0-3.727-1.619-3.727-3.616zm1.863 0c0 1 .834 1.809 1.864 1.809 1.03 0 1.863-.81 1.863-1.809 0-.998-.834-1.807-1.863-1.807-1.03 0-1.864.81-1.864 1.807zm8.386 9.039v.723c0 .497-.512.768-1.025.768H1.025C.512 39 0 38.73 0 38.231v-.723l.001-.048c.078-2.72 2.414-4.863 5.217-4.788h2.61l.049-.001c2.804-.048 5.118 2.117 5.168 4.837zM1.957 37.19h9.132c-.094-1.355-1.538-2.71-3.262-2.71H5.218c-1.724 0-3.168 1.355-3.261 2.71zm32.52-12.336c2.059 0 3.727 1.618 3.727 3.614 0 1.997-1.668 3.616-3.727 3.616-2.058 0-3.727-1.619-3.727-3.616 0-1.996 1.669-3.614 3.727-3.614zm0 1.807c-1.029 0-1.863.81-1.863 1.807 0 1 .834 1.809 1.863 1.809 1.03 0 1.864-.81 1.864-1.809 0-.998-.834-1.807-1.864-1.807zM41 37.508v.723c0 .497-.513.768-1.025.768H28.98c-.513 0-1.026-.27-1.026-.768v-.723l.002-.048c.077-2.72 2.413-4.863 5.217-4.788h2.609l.05-.001c2.803-.048 5.118 2.117 5.168 4.837zM29.91 37.19h9.132c-.093-1.355-1.537-2.71-3.261-2.71h-2.61c-1.723 0-3.167 1.355-3.26 2.71z"/></g></g></svg>