<svg xmlns="http://www.w3.org/2000/svg" width="39" height="39" viewBox="0 0 39 39"><g><g><path d="M25.267 24.464c0 2.696-1.98 4.946-4.597 5.458v7.973c0 .609-.501 1.096-1.128 1.096-.627 0-1.129-.487-1.129-1.096v-7.973c-2.616-.512-4.597-2.762-4.597-5.458 0-2.695 1.981-4.945 4.597-5.456V1.096c0-.61.502-1.097 1.129-1.097s1.128.487 1.128 1.097v17.912c2.625.511 4.597 2.768 4.597 5.456zm-2.257 0c0-1.859-1.554-3.369-3.468-3.369s-3.469 1.51-3.469 3.37c0 1.859 1.555 3.37 3.469 3.37s3.468-1.511 3.468-3.37zm-11.56-9.2c0 2.696-1.98 4.946-4.596 5.457v17.174c0 .609-.502 1.096-1.129 1.096-.626 0-1.128-.487-1.128-1.096V20.73C1.981 20.217 0 17.968 0 15.273c0-2.696 1.98-4.946 4.597-5.457v-8.72c0-.61.502-1.097 1.128-1.097.627 0 1.129.487 1.129 1.097v8.72c2.616.511 4.597 2.753 4.597 5.449zm-2.256.009c0-1.86-1.555-3.37-3.469-3.37s-3.468 1.51-3.468 3.37 1.554 3.37 3.468 3.37c1.906 0 3.47-1.51 3.47-3.37zM39 15.265c0 2.695-1.981 4.945-4.597 5.456v17.182c0 .61-.502 1.096-1.129 1.096-.626 0-1.128-.486-1.128-1.096V20.73c-2.616-.513-4.597-2.762-4.597-5.457 0-2.696 1.98-4.946 4.597-5.457v-8.72c0-.61.502-1.097 1.128-1.097.627 0 1.129.487 1.129 1.097v8.72C37.027 10.327 39 12.57 39 15.265zm-2.257.008c0-1.86-1.554-3.37-3.469-3.37-1.914 0-3.468 1.51-3.468 3.37s1.554 3.37 3.468 3.37c1.915 0 3.47-1.51 3.47-3.37z"/></g></g></svg>