<svg height="512pt" viewBox="0 -16 512 512" width="512pt" xmlns="http://www.w3.org/2000/svg" fill="#fff"><path d="M286 390c90.98 0 165-74.02 165-165S376.98 60 286 60s-165 74.02-165 165 74.02 165 165 165zm89.996-174.926c16.602 0 32.305 5.778 44.848 16.36-1.114 23.609-8.324 45.644-20.078 64.578-4.926-13.223-12.676-25.352-22.954-35.63-13.332-13.327-29.769-22.41-47.683-26.581.117-.582.223-1.168.316-1.758 12.657-10.969 28.637-16.969 45.551-16.969zM286 240c-8.27 0-15-6.73-15-15s6.73-15 15-15 15 6.73 15 15-6.73 15-15 15zm-8.855 29.121c.593.117 1.187.227 1.789.32 10.93 12.645 16.91 28.598 16.91 45.48 0 16.634-5.801 32.364-16.422 44.919-23.625-1.14-45.672-8.387-64.606-20.184 30.907-11.543 54.61-37.98 62.329-70.535zm33.796-6.687a43.95 43.95 0 001.485-1.043c16.691 1.203 32.222 8.254 44.172 20.207 11.738 11.738 18.757 26.925 20.144 43.273-16.699 15.188-37.21 26.25-59.906 31.574 5.898-12.86 9.008-26.949 9.008-41.523 0-18.84-5.2-36.879-14.903-52.488zm-16.09-81.555a44.256 44.256 0 00-1.773-.317c-22.297-25.867-22.504-64.304-.617-90.406 23.574 1.117 45.582 8.313 64.496 20.043-13.172 4.93-25.254 12.664-35.496 22.906-13.356 13.356-22.445 29.829-26.61 47.774zm-33.765 6.672c-.484.32-.957.656-1.426 1-34.05-2.512-61.383-29.524-64.383-63.442 16.696-15.172 37.196-26.226 59.88-31.55-13.669 30.046-11.692 65.52 5.929 93.992zm-19.195 28.543c-.121.597-.23 1.199-.325 1.804-25.89 22.258-64.328 22.426-90.402.5 1.14-23.593 8.371-45.613 20.149-64.527 11.574 30.871 38.023 54.535 70.578 62.223zm-45.817 48.629c18.219 0 36.446-4.95 52.457-14.836a38.72 38.72 0 001.078 1.539c-2.59 34.02-29.64 61.293-63.562 64.226-15.168-16.715-26.215-37.23-31.52-59.933 13.153 6 27.348 9.004 41.547 9.004zM417.41 194.03c-12.832-5.863-26.883-8.957-41.414-8.957-18.879 0-36.95 5.215-52.582 14.957a41.131 41.131 0 00-.96-1.37c1.163-16.755 8.226-32.349 20.218-44.34 11.703-11.708 26.836-18.72 43.133-20.134 15.191 16.68 26.261 37.168 31.605 59.844zm0 0"/><path d="M0 0v450h61v30h90v-30h210v30h90v-30h61V0zm482 420h-61v30h-30v-30H121v30H91v-30H30V30h452zm0 0"/><path d="M61 270h30v30H61zm0-60h30v30H61zm0 120h30v30H61zm0-273h30v120H61zm0 0"/></svg>