<svg version="1.1" xmlns="http://www.w3.org/2000/svg" xmlns:xlink="http://www.w3.org/1999/xlink" width="150px" height="150px" viewBox="0,0,256,256"><g fill="#fe9900" fill-rule="nonzero" stroke="none" stroke-width="1" stroke-linecap="butt" stroke-linejoin="miter" stroke-miterlimit="10" stroke-dasharray="" stroke-dashoffset="0" font-family="none" font-weight="none" font-size="none" text-anchor="none" style="mix-blend-mode: normal"><g transform="scale(8.53333,8.53333)"><path d="M8.21,10.47l2.12,-0.53c0.42,-0.11 0.74,-0.43 0.85,-0.85l1.38,-5.26c0.13,-0.51 -0.09,-1.04 -0.54,-1.32c-0.43,-0.26 -1.1,-0.51 -2.06,-0.51c-2.99,0 -6.31,1.73 -6.31,13c0,11.27 3.32,13 6.31,13c0.96,0 1.63,-0.25 2.07,-0.52c0.45,-0.27 0.66,-0.8 0.53,-1.3c-0.33,-1.27 -1.05,-4.01 -1.38,-5.28c-0.11,-0.42 -0.43,-0.74 -0.85,-0.84l-2.12,-0.54c-0.47,-0.12 -0.82,-0.51 -0.88,-0.99c-0.1,-0.84 -0.24,-2.21 -0.24,-3.53c0,-1.32 0.14,-2.69 0.24,-3.53c0.06,-0.48 0.41,-0.88 0.88,-1zM22,6c-4.42,0 -8,3.13 -8,7c0,1.78 0.78,3.5 2.18,4.79c-0.35,0.78 -0.94,1.55 -1.85,2.24c-0.2,0.07 -0.33,0.26 -0.33,0.47c0,0.28 0.22,0.5 0.5,0.5c0.04,0 0.07,0 0.11,-0.01c1.7,-0.01 3.18,-0.64 4.41,-1.5c0.94,0.34 1.96,0.51 2.98,0.51c4.42,0 8,-3.13 8,-7c0,-3.87 -3.58,-7 -8,-7zM23,16h-5c-0.55,0 -1,-0.45 -1,-1c0,-0.55 0.45,-1 1,-1h5c0.55,0 1,0.45 1,1c0,0.55 -0.45,1 -1,1zM26,12h-8c-0.55,0 -1,-0.45 -1,-1c0,-0.55 0.45,-1 1,-1h8c0.55,0 1,0.45 1,1c0,0.55 -0.45,1 -1,1z"></path></g></g></svg>