<svg version="1.1" xmlns="http://www.w3.org/2000/svg" xmlns:xlink="http://www.w3.org/1999/xlink" width="150px" height="150px" viewBox="0,0,256,256"><g fill="#fe9900" fill-rule="nonzero" stroke="none" stroke-width="1" stroke-linecap="butt" stroke-linejoin="miter" stroke-miterlimit="10" stroke-dasharray="" stroke-dashoffset="0" font-family="none" font-weight="none" font-size="none" text-anchor="none" style="mix-blend-mode: normal"><g transform="scale(8.53333,8.53333)"><path d="M7,2c-1.105,0 -2,0.895 -2,2v9h5c1.008,0 1.91614,0.385 2.61914,1h3.38086c0.552,0 1,0.448 1,1c0,0.552 -0.448,1 -1,1h-2.14062c0.083,0.321 0.14063,0.653 0.14063,1v1c0.552,0 1,0.448 1,1c0,0.552 -0.448,1 -1,1v2h2c0.552,0 1,0.448 1,1c0,0.552 -0.448,1 -1,1h-2v4h9c1.105,0 2,-0.895 2,-2v-22c0,-1.105 -0.895,-2 -2,-2zM10,6h6c0.552,0 1,0.448 1,1c0,0.552 -0.448,1 -1,1h-6c-0.552,0 -1,-0.448 -1,-1c0,-0.552 0.448,-1 1,-1zM20,6c0.552,0 1,0.448 1,1c0,0.552 -0.448,1 -1,1c-0.552,0 -1,-0.448 -1,-1c0,-0.552 0.448,-1 1,-1zM10,10h4c0.552,0 1,0.448 1,1c0,0.552 -0.448,1 -1,1h-4c-0.552,0 -1,-0.448 -1,-1c0,-0.552 0.448,-1 1,-1zM20,10c0.552,0 1,0.448 1,1c0,0.552 -0.448,1 -1,1c-0.552,0 -1,-0.448 -1,-1c0,-0.552 0.448,-1 1,-1zM20,14c0.552,0 1,0.448 1,1c0,0.552 -0.448,1 -1,1c-0.552,0 -1,-0.448 -1,-1c0,-0.552 0.448,-1 1,-1zM2,15c-1.105,0 -2,0.895 -2,2v11c0,1.105 0.895,2 2,2h8c1.105,0 2,-0.895 2,-2v-11.00391c0,-1.105 -0.89109,-1.99414 -1.99609,-1.99414c-4.687,0.001 -8.00391,-0.00195 -8.00391,-0.00195zM2,17h8v3h-8zM20,18c0.552,0 1,0.448 1,1c0,0.552 -0.448,1 -1,1c-0.552,0 -1,-0.448 -1,-1c0,-0.552 0.448,-1 1,-1zM20,22c0.552,0 1,0.448 1,1c0,0.552 -0.448,1 -1,1c-0.552,0 -1,-0.448 -1,-1c0,-0.552 0.448,-1 1,-1zM3,23c0.552,0 1,0.448 1,1c0,0.552 -0.448,1 -1,1c-0.552,0 -1,-0.448 -1,-1c0,-0.552 0.448,-1 1,-1zM6,23c0.552,0 1,0.448 1,1c0,0.552 -0.448,1 -1,1c-0.552,0 -1,-0.448 -1,-1c0,-0.552 0.448,-1 1,-1zM9,23c0.552,0 1,0.448 1,1v3c0,0.552 -0.448,1 -1,1c-0.552,0 -1,-0.448 -1,-1v-3c0,-0.552 0.448,-1 1,-1zM3,26c0.552,0 1,0.448 1,1c0,0.552 -0.448,1 -1,1c-0.552,0 -1,-0.448 -1,-1c0,-0.552 0.448,-1 1,-1zM6,26c0.552,0 1,0.448 1,1c0,0.552 -0.448,1 -1,1c-0.552,0 -1,-0.448 -1,-1c0,-0.552 0.448,-1 1,-1z"></path></g></g></svg>