<svg version="1.1" xmlns="http://www.w3.org/2000/svg" xmlns:xlink="http://www.w3.org/1999/xlink" width="150px" height="150px" viewBox="0,0,256,256"><g fill="#fe9900" fill-rule="nonzero" stroke="none" stroke-width="1" stroke-linecap="butt" stroke-linejoin="miter" stroke-miterlimit="10" stroke-dasharray="" stroke-dashoffset="0" font-family="none" font-weight="none" font-size="none" text-anchor="none" style="mix-blend-mode: normal"><g transform="scale(5.12,5.12)"><path d="M31.9707,0c-0.21728,0.00687 -0.4264,0.08435 -0.5957,0.2207c0,0 -14.31562,11.48784 -18.56836,14.70703c-2.64683,2.00332 -4.10043,3.4557 -4.91602,4.86524c-0.81559,1.40954 -0.88867,2.72685 -0.88867,4.02734l-0.00195,19.17969c0,2.74952 2.25048,5 5,5h30c0.55226,-0.00006 0.99994,-0.44774 1,-1v-27c-0.00006,-0.55226 -0.44774,-0.99994 -1,-1h-5h-4v-18c0.00009,-0.27036 -0.10929,-0.52924 -0.3032,-0.71764c-0.19392,-0.1884 -0.45584,-0.29025 -0.72609,-0.28236zM31,3.06641v16.93359v10.46484l-17.55469,11.70313c-0.41285,0.27506 -0.56166,0.8112 -0.34965,1.2597c0.21201,0.4485 0.72076,0.6738 1.19535,0.52936l23,-7c0.42123,-0.12816 0.70909,-0.51673 0.70898,-0.95703v-15h3v25h-29c-1.66848,0 -3,-1.33152 -3,-3l0.00195,-19.17969c0,-1.24551 0.02998,-2.00718 0.61914,-3.02539c0.58916,-1.01821 1.8404,-2.34176 4.39258,-4.27344c3.975,-3.00896 14.88218,-11.76725 16.98633,-13.45508zM25.16602,17.01172c-0.22148,0.01784 -0.44158,0.05786 -0.6543,0.11523c-0.85085,0.22948 -1.65934,0.73888 -2.32031,1.47656c-0.66091,0.73762 -1.07173,1.58733 -1.16992,2.45313c-0.09819,0.8658 0.16688,1.82212 0.91016,2.40625c0.74332,0.58416 1.70564,0.63951 2.55664,0.41016c0.851,-0.22935 1.65934,-0.73888 2.32031,-1.47656c0.661,-0.73772 1.07175,-1.58717 1.16992,-2.45312c0.09817,-0.86595 -0.16669,-1.82197 -0.91016,-2.40625h-0.00195c-0.37171,-0.29172 -0.79691,-0.45156 -1.23633,-0.50977c-0.21971,-0.0291 -0.44258,-0.03346 -0.66406,-0.01562zM25.31836,19.00391c0.25562,-0.02329 0.4233,0.03456 0.51367,0.10547c0.12053,0.09472 0.20174,0.24063 0.16016,0.60742c-0.04158,0.3668 -0.25783,0.88142 -0.67383,1.3457c-0.41603,0.46432 -0.93082,0.76551 -1.35156,0.87891c-0.42075,0.1134 -0.67815,0.04406 -0.79883,-0.05078c-0.12072,-0.09487 -0.20172,-0.24097 -0.16016,-0.60742c0.04156,-0.36645 0.25774,-0.88132 0.67383,-1.3457c0.41603,-0.46432 0.93066,-0.76734 1.35156,-0.88086c0.10523,-0.02838 0.19995,-0.04497 0.28516,-0.05273zM33,21h3v14.25977l-15.79883,4.80664l12.35352,-8.23437c0.27818,-0.18547 0.44528,-0.49769 0.44531,-0.83203z"></path></g></g></svg>