<svg width="20" height="24" viewBox="0 0 20 24" fill="none" xmlns="http://www.w3.org/2000/svg">
<path d="M8.93783 12.0154L0.440487 3.82651C-0.146829 3.26051 -0.146829 2.34528 0.440487 1.7853L1.85255 0.424499C2.43986 -0.1415 3.38957 -0.1415 3.97063 0.424499L9.99375 6.22899L16.0169 0.424499C16.6042 -0.1415 17.5539 -0.1415 18.135 0.424499L19.5595 1.77928C20.1468 2.34528 20.1468 3.26051 19.5595 3.82049L11.0622 12.0094C10.4749 12.5814 9.52515 12.5814 8.93783 12.0154ZM11.0622 23.5762L19.5595 15.3873C20.1468 14.8213 20.1468 13.9061 19.5595 13.3461L18.1475 11.9853C17.5601 11.4193 16.6104 11.4193 16.0294 11.9853L10 17.7838L3.97688 11.9793C3.38957 11.4133 2.43986 11.4133 1.85879 11.9793L0.440487 13.3401C-0.146829 13.9061 -0.146829 14.8213 0.440487 15.3813L8.93783 23.5702C9.52515 24.1422 10.4749 24.1422 11.0622 23.5762Z" fill="#2B4363"/>
</svg>
