<svg width="1919" height="435" viewBox="0 0 1919 435" fill="none" xmlns="http://www.w3.org/2000/svg">
<mask id="mask0" mask-type="alpha" maskUnits="userSpaceOnUse" x="0" y="0" width="1919" height="435">
<rect width="1919" height="435" fill="#C4C4C4"/>
</mask>
<g mask="url(#mask0)">
<path opacity="0.2" d="M-133.864 488.221C-101.953 343.92 -133.236 133.562 0.136112 84.495C134.373 35.1101 219.184 250.941 349.719 310.315C481.604 370.303 699.475 284.348 749.788 425.476C800.286 567.119 597.537 661.779 520.609 789.658C464.106 883.587 451.175 1001.02 364.84 1065.39C250.807 1150.41 105.251 1257.88 -20.2859 1192.96C-145.597 1128.14 -133.818 939.821 -157.086 795.443C-174.059 690.133 -156.87 592.252 -133.864 488.221Z" fill="#ECF4FF"/>
<path opacity="0.2" d="M1373.81 864.159C1290.94 762.867 1128.61 674.386 1165.82 546.746C1203.28 418.279 1397.97 468.963 1508.75 401.36C1620.67 333.058 1677.45 121.455 1802.01 158.508C1927.02 195.697 1884.34 400.444 1931.82 527.214C1966.69 620.327 2041.09 692.84 2039.57 792.869C2037.57 924.991 2034.29 1093.07 1922.34 1153.91C1810.58 1214.63 1686.49 1105.16 1574.11 1045.8C1492.14 1002.5 1433.55 937.184 1373.81 864.159Z" fill="#ECF4FF"/>
</g>
</svg>
