<svg width="20" height="20" viewBox="0 0 20 20" fill="none" xmlns="http://www.w3.org/2000/svg">
<g clip-path="url(#clip0)">
<path d="M10 0.5C4.48603 0.5 2.68755e-05 4.53733 2.68755e-05 9.5C2.68755e-05 11.2347 0.548694 12.915 1.58936 14.368C1.39236 16.547 0.86436 18.1647 0.0976935 18.931C-0.00363979 19.0323 -0.0289731 19.1873 0.0350269 19.3153C0.0916935 19.4297 0.20836 19.5 0.33336 19.5C0.348694 19.5 0.364027 19.499 0.379694 19.4967C0.514693 19.4777 3.65069 19.0263 5.91903 17.717C7.20703 18.2367 8.57903 18.5 10 18.5C15.514 18.5 20 14.4627 20 9.5C20 4.53733 15.514 0.5 10 0.5ZM5.33336 10.8333C4.59803 10.8333 4.00003 10.2353 4.00003 9.5C4.00003 8.76467 4.59803 8.16667 5.33336 8.16667C6.06869 8.16667 6.66669 8.76467 6.66669 9.5C6.66669 10.2353 6.06869 10.8333 5.33336 10.8333ZM10 10.8333C9.26469 10.8333 8.66669 10.2353 8.66669 9.5C8.66669 8.76467 9.26469 8.16667 10 8.16667C10.7354 8.16667 11.3334 8.76467 11.3334 9.5C11.3334 10.2353 10.7354 10.8333 10 10.8333ZM14.6667 10.8333C13.9314 10.8333 13.3334 10.2353 13.3334 9.5C13.3334 8.76467 13.9314 8.16667 14.6667 8.16667C15.402 8.16667 16 8.76467 16 9.5C16 10.2353 15.402 10.8333 14.6667 10.8333Z" fill="#5a64cf"/>
</g>
<defs>
<clipPath id="clip0">
<rect width="20" height="20" fill="white"/>
</clipPath>
</defs>
</svg>
