<svg width="20" height="20" viewBox="0 0 20 20" fill="none" xmlns="http://www.w3.org/2000/svg">
<g clip-path="url(#clip0)">
<path d="M19.5941 16.0235L12.5212 3.00253C11.9874 2.10386 11.0446 1.56714 9.99926 1.56714C8.95395 1.56714 8.01114 2.10386 7.47731 3.00253C7.47329 3.0094 7.46989 3.01628 7.46587 3.02315L0.416492 16.003C-0.128781 16.9206 -0.139094 18.0226 0.388406 18.9505C0.917117 19.879 1.86962 20.4328 2.93786 20.4328H17.0216C18.0898 20.4328 19.0815 19.879 19.6102 18.9505C20.1377 18.0226 20.1274 16.9205 19.5941 16.0235ZM8.82622 7.52921C8.82622 6.88132 9.35141 6.35616 9.99926 6.35616C10.6472 6.35616 11.1723 6.88136 11.1723 7.52921V12.2214C11.1723 12.8692 10.6471 13.3945 9.99926 13.3945C9.35141 13.3945 8.82622 12.8692 8.82622 12.2214V7.52921ZM9.99926 18.0867C9.02899 18.0867 8.23965 17.2975 8.23965 16.3271C8.23965 15.3569 9.02895 14.5676 9.99926 14.5676C10.9695 14.5676 11.7588 15.3569 11.7588 16.3271C11.7589 17.2974 10.9696 18.0867 9.99926 18.0867Z" fill="#FE6F47"/>
</g>
<defs>
<clipPath id="clip0">
<rect width="20" height="20" fill="white"/>
</clipPath>
</defs>
</svg>
