<svg width="23" height="23" viewBox="0 0 23 23" fill="none" xmlns="http://www.w3.org/2000/svg">
<path d="M22.1643 1.10573L17.4924 0.0277377C16.9842 -0.0895534 16.4647 0.173824 16.2591 0.653545L14.1028 5.68467C14.0107 5.89958 13.991 6.13861 14.0466 6.36573C14.1022 6.59284 14.2301 6.79572 14.4111 6.94378L17.1341 9.17173C15.5181 12.6161 12.6896 15.4836 9.17173 17.1341L6.94379 14.4111C6.79572 14.2301 6.59284 14.1022 6.36573 14.0466C6.13862 13.991 5.89959 14.0107 5.68467 14.1028L0.653551 16.2591C0.173965 16.4646 -0.0895918 16.9841 0.0277442 17.4924L1.10574 22.1643C1.21777 22.6498 1.65077 23 2.15623 23C13.6602 23 23 13.6773 23 2.15623C23 1.65418 22.6535 1.21857 22.1643 1.10573Z" fill="white"/>
</svg>
