<svg width="23" height="25" viewBox="0 0 23 25" fill="none" xmlns="http://www.w3.org/2000/svg">
<path d="M20.4063 2.37137C19.8047 1.81494 17.37 0.0410091 11.9418 0.01723C11.9418 0.01723 5.54245 -0.367993 2.42569 2.50453C0.692053 4.24517 0.081016 6.79905 0.0147019 9.96168C-0.0516121 13.1243 -0.132136 19.0501 5.55666 20.6576H5.5614L5.55666 23.1116C5.55666 23.1116 5.51877 24.1055 6.17243 24.3053C6.95873 24.5526 7.42293 23.7964 8.17607 22.9832C8.58816 22.5361 9.15657 21.8798 9.58761 21.3804C13.4812 21.7086 16.4701 20.9572 16.8111 20.8478C17.5974 20.591 22.0452 20.0203 22.7652 14.0945C23.5136 7.9785 22.4052 4.11676 20.4063 2.37137V2.37137ZM21.0647 13.6475C20.4536 18.5935 16.849 18.9074 16.1859 19.1214C15.9017 19.2118 13.2728 19.8681 9.97128 19.6541C9.97128 19.6541 7.50819 22.636 6.74084 23.4112C6.48979 23.6632 6.21506 23.6395 6.2198 23.1401C6.2198 22.812 6.23875 19.0644 6.23875 19.0644C6.23401 19.0644 6.23401 19.0644 6.23875 19.0644C1.41677 17.7232 1.70097 12.6773 1.75308 10.0378C1.80518 7.39829 2.30254 5.23438 3.77092 3.7791C6.40927 1.3774 11.8423 1.73409 11.8423 1.73409C16.4322 1.75311 18.63 3.14181 19.1416 3.60789C20.8326 5.06317 21.6947 8.54444 21.0647 13.6475V13.6475ZM14.4806 9.80474C14.4996 10.2137 13.8885 10.2423 13.8696 9.83328C13.8175 8.78699 13.3296 8.27812 12.3254 8.22105C11.9181 8.19727 11.956 7.58377 12.3586 7.60754C13.6801 7.67888 14.4143 8.43982 14.4806 9.80474ZM15.4422 10.3422C15.4896 8.32568 14.2343 6.74674 11.8518 6.57077C11.4491 6.54224 11.4918 5.92873 11.8944 5.95727C14.6417 6.15701 16.1053 8.05459 16.0532 10.3564C16.0485 10.7654 15.4327 10.7464 15.4422 10.3422V10.3422ZM17.6684 10.9794C17.6732 11.3884 17.0574 11.3932 17.0574 10.9842C17.029 7.10818 14.457 4.99659 11.3355 4.97281C10.9328 4.96806 10.9328 4.35931 11.3355 4.35931C14.8264 4.38309 17.6353 6.80381 17.6684 10.9794V10.9794ZM17.1332 15.6449V15.6544C16.6216 16.558 15.6648 17.5568 14.6796 17.2381L14.6701 17.2238C13.6707 16.9433 11.3165 15.7258 9.82918 14.5368C9.06183 13.9281 8.3608 13.2099 7.82081 12.5203C7.33293 11.9068 6.84031 11.1792 6.3619 10.3041C5.35298 8.47311 5.13036 7.6551 5.13036 7.6551C4.813 6.66589 5.80297 5.70521 6.70768 5.19158H6.71716C7.15293 4.9633 7.56977 5.03939 7.84923 5.37706C7.84923 5.37706 8.43659 6.08092 8.68763 6.4281C8.92447 6.75149 9.24183 7.26988 9.40761 7.55999C9.69655 8.07837 9.51656 8.60627 9.23235 8.82504L8.66395 9.2816C8.37501 9.51463 8.4129 9.94742 8.4129 9.94742C8.4129 9.94742 9.25604 13.1481 12.406 13.9566C12.406 13.9566 12.837 13.9946 13.0691 13.7045L13.5238 13.1338C13.7417 12.8485 14.2675 12.6678 14.7838 12.9579C15.4801 13.3526 16.3659 13.9661 16.9532 14.5225C17.2848 14.7936 17.3606 15.2074 17.1332 15.6449Z" fill="white"/>
</svg>
