<svg width="23" height="23" viewBox="0 0 23 23" fill="none" xmlns="http://www.w3.org/2000/svg">
<path d="M19.5551 3.34219C17.404 1.18594 14.5393 0 11.4949 0C5.21094 0 0.0975446 5.11339 0.0975446 11.3973C0.0975446 13.4047 0.621205 15.3658 1.61719 17.096L0 23L6.04263 21.4136C7.70603 22.3223 9.57991 22.7998 11.4897 22.7998H11.4949C17.7737 22.7998 23 17.6864 23 11.4025C23 8.35804 21.7063 5.49844 19.5551 3.34219V3.34219ZM11.4949 20.8797C9.7904 20.8797 8.12187 20.4228 6.66897 19.5603L6.325 19.3549L2.74152 20.2944L3.69643 16.7982L3.47054 16.4388C2.52076 14.9295 2.02277 13.1891 2.02277 11.3973C2.02277 6.17612 6.27366 1.92522 11.5 1.92522C14.031 1.92522 16.408 2.91094 18.1946 4.70268C19.9813 6.49442 21.0799 8.87143 21.0748 11.4025C21.0748 16.6288 16.7161 20.8797 11.4949 20.8797V20.8797ZM16.6904 13.7846C16.408 13.6408 15.0065 12.9529 14.7446 12.8605C14.4828 12.7629 14.2929 12.7167 14.1029 13.0042C13.9129 13.2917 13.3688 13.9283 13.1993 14.1234C13.035 14.3134 12.8656 14.3391 12.5833 14.1953C10.9096 13.3585 9.81094 12.7013 8.70714 10.8069C8.41451 10.3038 8.99978 10.3397 9.54397 9.25134C9.63638 9.06138 9.59018 8.8971 9.5183 8.75335C9.44643 8.6096 8.87656 7.20804 8.6404 6.63817C8.40938 6.08371 8.17321 6.16071 7.99866 6.15045C7.83438 6.14018 7.64442 6.14018 7.45446 6.14018C7.26451 6.14018 6.95647 6.21205 6.69464 6.49442C6.43281 6.78192 5.69866 7.46987 5.69866 8.87143C5.69866 10.273 6.72031 11.6283 6.85893 11.8183C7.00268 12.0083 8.86629 14.8833 11.7259 16.1205C13.533 16.9009 14.2415 16.9676 15.1451 16.8342C15.6944 16.752 16.829 16.1462 17.0652 15.4788C17.3013 14.8114 17.3013 14.2415 17.2295 14.1234C17.1627 13.9951 16.9728 13.9232 16.6904 13.7846Z" fill="white"/>
</svg>
