<svg width="46" height="50" viewBox="0 0 46 50" fill="none" xmlns="http://www.w3.org/2000/svg">
<path d="M0 0V13.1868H45.6044V0H0ZM14.3773 8.18681H4.45055V4.89011H14.3773V8.18681ZM34.7253 8.24175H30.3297V4.94505H34.7253V8.24175ZM41.3187 8.24175H36.9231V4.94505H41.3187V8.24175Z" fill="#309db2"/>
<path d="M22.8572 42.2527C27.8562 42.2527 31.9231 38.1858 31.9231 33.1868C31.9231 28.1878 27.8562 24.1208 22.8572 24.1208C17.8582 24.1208 13.7913 28.1878 13.7913 33.1868C13.7913 38.1858 17.8582 42.2527 22.8572 42.2527Z" fill="#309db2"/>
<path d="M0 50H45.6044V16.4835H0V50ZM22.8571 20.8242C29.674 20.8242 35.2198 26.37 35.2198 33.1868C35.2198 40.0036 29.674 45.5495 22.8571 45.5495C16.0403 45.5495 10.4945 40.0036 10.4945 33.1868C10.4945 26.37 16.0403 20.8242 22.8571 20.8242Z" fill="#309db2"/>
</svg>
