<?xml version="1.0" encoding="iso-8859-1"?>
<!-- Generator: Adobe Illustrator 19.0.0, SVG Export Plug-In . SVG Version: 6.00 Build 0)  -->
<svg version="1.1" id="Capa_1" xmlns="http://www.w3.org/2000/svg" xmlns:xlink="http://www.w3.org/1999/xlink" x="0px" y="0px"
	 viewBox="0 0 480 480" style="enable-background:new 0 0 480 480;" xml:space="preserve" fill="#ba2b4f">
<g>
	<g>
		<path d="M440,160H288V8c0-4.418-3.582-8-8-8H40c-4.418,0-8,3.582-8,8v464c0,4.418,3.582,8,8,8h400c4.418,0,8-3.582,8-8V168
			C448,163.582,444.418,160,440,160z M48,16h224v112H48V16z M192,168v296H48V144h224v16h-72C195.582,160,192,163.582,192,168z
			 M232,176v32h-24v-32H232z M432,464H208V224h224V464z M432,208H248v-32h184V208z"/>
	</g>
</g>
<g>
	<g>
		<path d="M320,264c-48.601,0-88,39.399-88,88c0,48.601,39.399,88,88,88c48.601,0,88-39.399,88-88
			C407.943,303.423,368.577,264.057,320,264z M320,424c-39.764,0-72-32.236-72-72c0-39.765,32.236-72,72-72
			c39.765,0,72,32.235,72,72C391.956,391.746,359.746,423.956,320,424z"/>
	</g>
</g>
<g>
	<g>
		<path d="M320,290.664c-33.86,0.035-61.301,27.476-61.336,61.336c0,4.418,3.582,8,8,8s8-3.582,8-8
			c0.026-25.027,20.309-45.31,45.336-45.336c4.418,0,8-3.582,8-8S324.418,290.664,320,290.664z"/>
	</g>
</g>
<g>
	<g>
		<path d="M288,184h-16c-4.418,0-8,3.582-8,8s3.582,8,8,8h16c4.418,0,8-3.582,8-8S292.418,184,288,184z"/>
	</g>
</g>
<g>
	<g>
		<path d="M328,184h-16c-4.418,0-8,3.582-8,8s3.582,8,8,8h16c4.418,0,8-3.582,8-8S332.418,184,328,184z"/>
	</g>
</g>
<g>
	<g>
		<path d="M72,56c-4.418,0-8,3.582-8,8v48c0,4.418,3.582,8,8,8s8-3.582,8-8V64C80,59.582,76.418,56,72,56z"/>
	</g>
</g>
<g>
	<g>
		<path d="M72,152c-4.418,0-8,3.582-8,8v48c0,4.418,3.582,8,8,8s8-3.582,8-8v-48C80,155.582,76.418,152,72,152z"/>
	</g>
</g>
<g>
</g>
<g>
</g>
<g>
</g>
<g>
</g>
<g>
</g>
<g>
</g>
<g>
</g>
<g>
</g>
<g>
</g>
<g>
</g>
<g>
</g>
<g>
</g>
<g>
</g>
<g>
</g>
<g>
</g>
</svg>
