<svg width="20" height="20" viewBox="0 0 20 20" fill="none" xmlns="http://www.w3.org/2000/svg">
<path d="M10.0001 9.78131C12.2237 9.78131 14.0265 7.59171 14.0265 4.89069C14.0265 2.1896 13.4346 0 10.0001 0C6.56551 0 5.97351 2.1896 5.97351 4.89069C5.97351 7.59171 7.77631 9.78131 10.0001 9.78131Z" fill="#5a64cf"/>
<path d="M2.39484 17.2487C2.39415 17.084 2.39346 17.2023 2.39484 17.2487V17.2487Z" fill="#5a64cf"/>
<path d="M17.605 17.3774C17.6071 17.3323 17.6057 17.0646 17.605 17.3774V17.3774Z" fill="#5a64cf"/>
<path d="M17.5963 17.0513C17.5218 12.346 16.9072 11.0053 12.2048 10.1566C12.2048 10.1566 11.5428 11.0001 9.99998 11.0001C8.45712 11.0001 7.79506 10.1566 7.79506 10.1566C3.14392 10.996 2.49203 12.3169 2.40632 16.8985C2.39929 17.2726 2.39603 17.2922 2.39478 17.2488C2.39506 17.3302 2.3954 17.4807 2.3954 17.7431C2.3954 17.7431 3.51495 20.0001 9.99998 20.0001C16.4849 20.0001 17.6046 17.7431 17.6046 17.7431C17.6046 17.5745 17.6047 17.4573 17.6048 17.3775C17.6036 17.4043 17.6011 17.3523 17.5963 17.0513Z" fill="#5a64cf"/>
</svg>
