<svg width="20" height="20" viewBox="0 0 20 20" fill="none" xmlns="http://www.w3.org/2000/svg">
<g clip-path="url(#clip0)">
<path d="M17.0695 2.9275C13.1637 -0.977148 6.83202 -0.976211 2.92738 2.92965C-0.97727 6.83551 -0.976333 13.1671 2.92953 17.0718C6.83538 20.9764 13.167 20.9755 17.0717 17.0697C18.9469 15.1938 20.0001 12.6499 19.9995 9.9975C19.999 7.34555 18.945 4.80242 17.0695 2.9275ZM15.1442 13.9295C15.1437 13.93 15.1433 13.9304 15.1428 13.9309V13.9275L14.6362 14.4309C13.9809 15.0944 13.0266 15.3674 12.1195 15.1509C11.2056 14.9063 10.3369 14.5169 9.54616 13.9975C8.81155 13.528 8.13077 12.9792 7.51616 12.3609C6.95066 11.7995 6.44261 11.1831 5.99949 10.5209C5.5148 9.80828 5.13117 9.03203 4.85949 8.21418C4.54804 7.2534 4.80613 6.19914 5.52617 5.49086L6.11949 4.89754C6.28445 4.73184 6.55249 4.73125 6.71816 4.89621C6.71859 4.89664 6.71906 4.89707 6.71949 4.89754L8.59281 6.77086C8.75851 6.93582 8.75909 7.20387 8.59413 7.36953C8.5937 7.36996 8.59327 7.37039 8.59281 7.37086L7.49281 8.47086C7.17718 8.78305 7.13749 9.27914 7.39949 9.63754C7.79734 10.1836 8.23761 10.6973 8.71616 11.1742C9.24972 11.7101 9.82976 12.1975 10.4495 12.6309C10.8076 12.8807 11.293 12.8386 11.6028 12.5309L12.6661 11.4509C12.8311 11.2852 13.0991 11.2846 13.2648 11.4496C13.2652 11.45 13.2657 11.4504 13.2661 11.4509L15.1428 13.3309C15.3085 13.4958 15.3091 13.7638 15.1442 13.9295Z" fill="#5a64cf"/>
</g>
<defs>
<clipPath id="clip0">
<rect width="20" height="20" fill="white"/>
</clipPath>
</defs>
</svg>
