<svg width="50" height="50" viewBox="0 0 50 50" fill="none" xmlns="http://www.w3.org/2000/svg">
<path d="M12.1387 32.4706L5.16608 37.0117C5.02937 37.1093 5.06843 37.2656 5.10749 37.3144L8.87702 43.0859C10.4883 45.3906 13.0762 45.1367 14.3555 44.3652C21.504 40.0878 34.961 30.5273 44.4141 14.0038C45.5079 12.0995 44.8438 9.62884 42.9395 8.5058L37.1778 5.09759C37.0606 5.02923 36.9337 5.07806 36.8751 5.17572L32.627 12.3242C32.5684 12.4804 32.6075 12.5585 32.7051 12.6171L32.9591 12.7636C34.004 13.3788 34.7169 14.4238 34.9219 15.6249C35.127 16.8163 34.795 18.037 34.0137 18.9648C30.713 22.8808 25.4102 28.6816 18.9161 34.0722C18.1739 34.6874 17.2462 35.0195 16.2891 35.0195C14.8829 35.0195 13.5938 34.3163 12.8321 33.1542L12.4415 32.5488C12.3829 32.4511 12.2266 32.4023 12.1387 32.4706ZM12.295 48.9257C9.56062 48.9257 7.03132 47.5585 5.53718 45.2734L1.76765 39.5019C1.15241 38.5644 0.937568 37.4413 1.17194 36.3378C1.40632 35.2343 2.05085 34.2968 2.98835 33.6816L9.96101 29.1406C10.6446 28.6913 11.4454 28.457 12.2559 28.457C13.6817 28.457 15.0001 29.1699 15.7813 30.3613L16.1719 30.9667C16.2012 31.0156 16.2989 31.0253 16.3282 31.0058C22.4219 26.0058 27.7735 20.1953 30.9669 16.3964C30.9766 16.3867 31.0255 16.2695 30.9278 16.2011L30.6739 16.0546C29.7071 15.4785 29.0235 14.5702 28.7501 13.4765C28.4669 12.3925 28.6329 11.2597 29.2091 10.2929L33.4571 3.14447C35.0587 0.673765 37.8516 0.790952 39.2188 1.66986L44.9805 5.07806C48.7501 7.30462 50.0489 12.207 47.8809 15.9863C37.9591 33.3105 23.8966 43.3593 16.3868 47.8027C15.1466 48.5351 13.7305 48.9257 12.295 48.9257Z" fill="url(#paint0_linear)"/>
<path d="M3.34961 24.7461C2.24609 24.7461 1.35742 23.8574 1.35742 22.7539C1.35742 11.3477 10.6348 2.07031 22.041 2.07031C23.1445 2.07031 24.0332 2.95898 24.0332 4.0625C24.0332 5.16602 23.1445 6.05469 22.041 6.05469C12.832 6.05469 5.3418 13.5449 5.3418 22.7539C5.3418 23.8574 4.45312 24.7461 3.34961 24.7461Z" fill="url(#paint1_linear)"/>
<path d="M13.418 23.75C12.3145 23.75 11.4258 22.8613 11.4258 21.7578C11.4258 16.4551 15.7422 12.1289 21.0547 12.1289C22.1582 12.1289 23.0469 13.0176 23.0469 14.1211C23.0469 15.2246 22.1582 16.1133 21.0547 16.1133C17.9492 16.1133 15.4199 18.6426 15.4199 21.748C15.4102 22.8613 14.5215 23.75 13.418 23.75Z" fill="url(#paint2_linear)"/>
<defs>
<linearGradient id="paint0_linear" x1="1.07935" y1="48.9257" x2="56.1847" y2="38.1317" gradientUnits="userSpaceOnUse">
<stop stop-color="#8CD100"/>
<stop offset="1" stop-color="#04BEFE"/>
</linearGradient>
<linearGradient id="paint1_linear" x1="1.35742" y1="24.7461" x2="27.4718" y2="19.6333" gradientUnits="userSpaceOnUse">
<stop stop-color="#8CD100"/>
<stop offset="1" stop-color="#04BEFE"/>
</linearGradient>
<linearGradient id="paint2_linear" x1="11.4258" y1="23.75" x2="24.8091" y2="21.1297" gradientUnits="userSpaceOnUse">
<stop stop-color="#8CD100"/>
<stop offset="1" stop-color="#04BEFE"/>
</linearGradient>
</defs>
</svg>
