<svg width="60" height="60" viewBox="0 0 60 60" fill="none" xmlns="http://www.w3.org/2000/svg">
<circle cx="30" cy="30" r="30" fill="url(#paint0_linear)"/>
<path d="M45.0254 16.7812H43.9414V14.252C43.9414 12.4588 42.4826 11 40.6895 11C38.8963 11 37.4375 12.4588 37.4375 14.252V15.1397C37.4375 16.263 36.6832 17.2631 35.603 17.5717L34.5469 17.8735V17.8652C34.5469 17.2666 34.0615 16.7812 33.4629 16.7812H29.127C28.5283 16.7812 28.043 17.2666 28.043 17.8652V22.707H15.252C13.4588 22.707 12 24.1659 12 25.959V46.916C12 47.3158 12.22 47.6831 12.5725 47.8717C12.7328 47.9576 12.9085 48 13.0839 48C13.2942 48 13.5039 47.9389 13.6852 47.8179L17.7482 45.1094H38.377C40.1701 45.1094 41.6289 43.6505 41.6289 41.8574V30.5117H45.0254C47.217 30.5117 49 28.7287 49 26.5371V20.7559C49 18.5643 47.217 16.7812 45.0254 16.7812ZM30.2109 18.9492H32.3789V28.3438H30.2109V18.9492ZM39.4609 41.8574C39.4609 42.4551 38.9747 42.9414 38.377 42.9414H17.4199C17.2059 42.9414 16.9967 43.0048 16.8187 43.1235L14.168 44.8906V25.959C14.168 25.3613 14.6542 24.875 15.252 24.875H28.043V29.4277C28.043 30.0264 28.5283 30.5117 29.127 30.5117H33.4629C34.0198 30.5117 34.4781 30.0916 34.5394 29.5511C35.505 30.1669 36.6405 30.5117 37.8213 30.5117H39.4609V41.8574ZM46.832 26.5371C46.832 27.5333 46.0216 28.3438 45.0254 28.3438H37.8213C36.5033 28.3438 35.2724 27.6788 34.5469 26.5916V20.1282L36.1986 19.6563C38.2045 19.0832 39.6055 17.2259 39.6055 15.1397V14.252C39.6055 13.6542 40.0917 13.168 40.6895 13.168C41.2872 13.168 41.7734 13.6542 41.7734 14.252V17.8652C41.7734 18.4639 42.2588 18.9492 42.8574 18.9492H45.0254C46.0216 18.9492 46.832 19.7597 46.832 20.7559V26.5371Z" fill="white"/>
<path d="M17.4199 31.3789H24.6465C25.2451 31.3789 25.7305 30.8936 25.7305 30.2949C25.7305 29.6963 25.2451 29.2109 24.6465 29.2109H17.4199C16.8213 29.2109 16.3359 29.6963 16.3359 30.2949C16.3359 30.8936 16.8213 31.3789 17.4199 31.3789Z" fill="white"/>
<path d="M36.209 33.5469H17.4199C16.8213 33.5469 16.3359 34.0322 16.3359 34.6309C16.3359 35.2295 16.8213 35.7148 17.4199 35.7148H36.209C36.8076 35.7148 37.293 35.2295 37.293 34.6309C37.293 34.0322 36.8076 33.5469 36.209 33.5469Z" fill="white"/>
<path d="M36.209 37.8828H17.4199C16.8213 37.8828 16.3359 38.3681 16.3359 38.9668C16.3359 39.5654 16.8213 40.0508 17.4199 40.0508H36.209C36.8076 40.0508 37.293 39.5654 37.293 38.9668C37.293 38.3681 36.8076 37.8828 36.209 37.8828Z" fill="white"/>
<defs>
<linearGradient id="paint0_linear" x1="8.9407e-07" y1="60" x2="69.0985" y2="46.4714" gradientUnits="userSpaceOnUse">
<stop stop-color="#ba2b4f"/>
<stop offset="1" stop-color="#ba2b4f"/>
</linearGradient>
</defs>
</svg>
