<svg width="30" height="36" viewBox="0 0 30 36" fill="none" xmlns="http://www.w3.org/2000/svg">
<path d="M16.5933 17.9769L29.3393 30.2602C30.2202 31.1092 30.2202 32.4821 29.3393 33.322L27.2212 35.3633C26.3402 36.2122 24.9157 36.2122 24.044 35.3633L15.0094 26.6565L5.9747 35.3632C5.09372 36.2122 3.66916 36.2122 2.79756 35.3632L0.66073 33.3311C-0.220244 32.4821 -0.220244 31.1092 0.66073 30.2693L13.4067 17.9859C14.2877 17.1279 15.7123 17.1279 16.5933 17.9769ZM13.4067 0.635627L0.660732 12.919C-0.220243 13.768 -0.220243 15.1408 0.660732 15.9808L2.77882 18.022C3.6598 18.871 5.08435 18.871 5.95595 18.022L15 9.32431L24.0347 18.0311C24.9157 18.88 26.3402 18.88 27.2118 18.0311L29.3393 15.9898C30.2202 15.1408 30.2202 13.768 29.3393 12.928L16.5933 0.644657C15.7123 -0.213373 14.2877 -0.213371 13.4067 0.635627Z" fill="#ba2b4f"/>
</svg>
