<svg width="665" height="294" viewBox="0 0 665 294" fill="none" xmlns="http://www.w3.org/2000/svg">
<mask id="mask0" mask-type="alpha" maskUnits="userSpaceOnUse" x="0" y="0" width="665" height="294">
<rect width="665" height="294" fill="#C4C4C4"/>
</mask>
<g mask="url(#mask0)">
<path opacity="0.2" d="M573.181 41.147C599.688 48.5425 629.12 48.4911 650.493 65.8037C671.501 82.8199 674.839 112.574 689.435 135.314C707.097 162.831 741.457 181.35 745.477 213.785C749.556 246.698 729.011 277.604 710.482 305.13C691.513 333.31 669.901 363.182 637.654 373.96C605.956 384.555 573.156 364.212 539.791 362.183C504.576 360.041 462.584 384.552 435.753 361.679C408.276 338.256 428.269 291.157 416.477 257.06C406.088 227.02 373.295 206.687 371.185 174.977C369.003 142.174 386.451 111.273 404.968 84.0885C423.835 56.3895 445.774 26.0535 478.279 17.7557C510.394 9.55724 541.256 32.2397 573.181 41.147Z" fill="#ECF4FF"/>
<path d="M669.651 241.169C677.896 252.152 661.536 272.801 672.085 281.595C688.081 294.929 720.641 276.201 732.342 293.426C741.142 306.38 715.319 318.781 705.784 331.202C698.451 340.753 690.69 349.176 682.657 358.146C672.503 369.484 667.066 387.992 652.163 391.076C637.523 394.106 623.807 382.008 612.064 372.756C601.989 364.818 593.007 354.524 589.957 342.065C587.209 330.84 601.212 319.08 596.356 308.593C587.703 289.906 557.04 285.267 554.213 264.869C551.882 248.055 569.147 231.804 584.805 225.248C600.417 218.712 617.71 228.197 634.345 231.319C646.562 233.611 662.189 231.228 669.651 241.169Z" fill="#ba2b4f"/>
</g>
</svg>
