<svg version="1.1" xmlns="http://www.w3.org/2000/svg" xmlns:xlink="http://www.w3.org/1999/xlink" width="150px" height="150px" viewBox="0,0,256,256"><g fill="#fe9900" fill-rule="nonzero" stroke="none" stroke-width="1" stroke-linecap="butt" stroke-linejoin="miter" stroke-miterlimit="10" stroke-dasharray="" stroke-dashoffset="0" font-family="none" font-weight="none" font-size="none" text-anchor="none" style="mix-blend-mode: normal"><g transform="scale(5.12,5.12)"><path d="M0,8v2h28.09375c0.39844,0 0.90625,0.50781 0.90625,0.90625v27.09375h-10.09375c-0.47656,-2.83594 -2.94141,-5 -5.90625,-5c-2.96484,0 -5.42969,2.16406 -5.90625,5h-4.09375c-0.55469,0 -1,-0.44531 -1,-1v-9h-2v9c0,1.64453 1.35547,3 3,3h4.09375c0.47656,2.83594 2.94141,5 5.90625,5c2.96484,0 5.42969,-2.16406 5.90625,-5h15.1875c0.47656,2.83594 2.94141,5 5.90625,5c2.96484,0 5.42969,-2.16406 5.90625,-5h1.09375c0.83203,0 1.5625,-0.375 2.09375,-0.90625c0.53125,-0.53125 0.90625,-1.26172 0.90625,-2.09375v-9.59375c0,-1.125 -0.42969,-2.15625 -0.8125,-2.9375c-0.38281,-0.78125 -0.78125,-1.34375 -0.78125,-1.34375v-0.03125l-4.09375,-5.5h-0.03125v-0.03125c-0.88672,-1.10937 -2.30859,-2.5625 -4.28125,-2.5625h-8c-0.35937,0 -0.6875,0.06641 -1,0.1875v-4.28125c0,-1.60156 -1.30469,-2.90625 -2.90625,-2.90625zM0,12v2h18v-2zM0,16v2h15v-2zM32,17h4v9c0,0.83203 0.375,1.5625 0.90625,2.09375c0.53125,0.53125 1.26172,0.90625 2.09375,0.90625h9v8c0,0.16797 -0.125,0.4375 -0.34375,0.65625c-0.21875,0.21875 -0.48828,0.34375 -0.65625,0.34375h-1.09375c-0.47656,-2.83594 -2.94141,-5 -5.90625,-5c-2.96484,0 -5.42969,2.16406 -5.90625,5h-3.09375v-20c0,-0.16797 0.125,-0.4375 0.34375,-0.65625c0.21875,-0.21875 0.48828,-0.34375 0.65625,-0.34375zM38,17h2c0.82422,0 1.97266,0.92578 2.6875,1.8125l4.09375,5.46875l0.03125,0.03125c0.01953,0.02734 0.28906,0.41016 0.59375,1.03125c0.25391,0.51563 0.38672,1.12891 0.46875,1.65625h-8.875c-0.16797,0 -0.4375,-0.125 -0.65625,-0.34375c-0.21875,-0.21875 -0.34375,-0.48828 -0.34375,-0.65625zM0,20v2h12v-2zM0,24v2h9v-2zM13,35c2.22266,0 4,1.77734 4,4c0,2.22266 -1.77734,4 -4,4c-2.22266,0 -4,-1.77734 -4,-4c0,-2.22266 1.77734,-4 4,-4zM40,35c2.22266,0 4,1.77734 4,4c0,2.22266 -1.77734,4 -4,4c-2.22266,0 -4,-1.77734 -4,-4c0,-2.22266 1.77734,-4 4,-4z"></path></g></g></svg>