<svg width="40" height="40" viewBox="0 0 40 40" fill="none" xmlns="http://www.w3.org/2000/svg">
<rect width="40" height="40" fill="#8F5DB7"/>
<path d="M28.4063 10.3714C27.8047 9.81494 25.37 8.04101 19.9418 8.01723C19.9418 8.01723 13.5425 7.63201 10.4257 10.5045C8.69205 12.2452 8.08102 14.7991 8.0147 17.9617C7.94839 21.1243 7.86786 27.0501 13.5567 28.6576H13.5614L13.5567 31.1116C13.5567 31.1116 13.5188 32.1055 14.1724 32.3053C14.9587 32.5526 15.4229 31.7964 16.1761 30.9832C16.5882 30.5361 17.1566 29.8798 17.5876 29.3804C21.4812 29.7086 24.4701 28.9572 24.8111 28.8478C25.5974 28.591 30.0452 28.0203 30.7652 22.0945C31.5136 15.9785 30.4052 12.1168 28.4063 10.3714ZM29.0647 21.6475C28.4536 26.5935 24.849 26.9074 24.1859 27.1214C23.9017 27.2118 21.2728 27.8681 17.9713 27.6541C17.9713 27.6541 15.5082 30.636 14.7408 31.4112C14.4898 31.6632 14.2151 31.6395 14.2198 31.1401C14.2198 30.812 14.2387 27.0644 14.2387 27.0644C14.234 27.0644 14.234 27.0644 14.2387 27.0644C9.41677 25.7232 9.70097 20.6773 9.75308 18.0378C9.80518 15.3983 10.3025 13.2344 11.7709 11.7791C14.4093 9.3774 19.8423 9.73409 19.8423 9.73409C24.4322 9.75311 26.63 11.1418 27.1416 11.6079C28.8326 13.0632 29.6947 16.5444 29.0647 21.6475ZM22.4806 17.8047C22.4996 18.2137 21.8885 18.2423 21.8696 17.8333C21.8175 16.787 21.3296 16.2781 20.3254 16.221C19.9181 16.1973 19.956 15.5838 20.3586 15.6075C21.6801 15.6789 22.4143 16.4398 22.4806 17.8047ZM23.4422 18.3421C23.4896 16.3257 22.2343 14.7467 19.8518 14.5708C19.4491 14.5422 19.4918 13.9287 19.8944 13.9573C22.6417 14.157 24.1053 16.0546 24.0532 18.3564C24.0485 18.7654 23.4327 18.7464 23.4422 18.3421ZM25.6684 18.9794C25.6732 19.3884 25.0574 19.3932 25.0574 18.9842C25.029 15.1082 22.457 12.9966 19.3355 12.9728C18.9328 12.9681 18.9328 12.3593 19.3355 12.3593C22.8264 12.3831 25.6353 14.8038 25.6684 18.9794ZM25.1332 23.6449V23.6544C24.6216 24.558 23.6648 25.5568 22.6796 25.2381L22.6701 25.2238C21.6707 24.9433 19.3165 23.7258 17.8292 22.5368C17.0618 21.9281 16.3608 21.2099 15.8208 20.5203C15.3329 19.9068 14.8403 19.1792 14.3619 18.3041C13.353 16.4731 13.1304 15.6551 13.1304 15.6551C12.813 14.6659 13.803 13.7052 14.7077 13.1916H14.7172C15.1529 12.9633 15.5698 13.0394 15.8492 13.3771C15.8492 13.3771 16.4366 14.0809 16.6876 14.4281C16.9245 14.7515 17.2418 15.2699 17.4076 15.56C17.6966 16.0784 17.5166 16.6063 17.2324 16.825L16.6639 17.2816C16.375 17.5146 16.4129 17.9474 16.4129 17.9474C16.4129 17.9474 17.256 21.1481 20.406 21.9566C20.406 21.9566 20.837 21.9946 21.0691 21.7045L21.5238 21.1338C21.7417 20.8485 22.2675 20.6678 22.7838 20.9579C23.4801 21.3526 24.3659 21.9661 24.9532 22.5225C25.2848 22.7936 25.3606 23.2074 25.1332 23.6449Z" fill="white"/>
</svg>
