<svg width="40" height="40" viewBox="0 0 40 40" fill="none" xmlns="http://www.w3.org/2000/svg">
<rect width="40" height="40" fill="#25D366"/>
<path d="M27.5551 11.3422C25.404 9.18594 22.5393 8 19.4949 8C13.2109 8 8.09754 13.1134 8.09754 19.3973C8.09754 21.4047 8.62121 23.3658 9.61719 25.096L8 31L14.0426 29.4136C15.706 30.3223 17.5799 30.7998 19.4897 30.7998H19.4949C25.7737 30.7998 31 25.6864 31 19.4025C31 16.358 29.7063 13.4984 27.5551 11.3422ZM19.4949 28.8797C17.7904 28.8797 16.1219 28.4228 14.669 27.5603L14.325 27.3549L10.7415 28.2944L11.6964 24.7982L11.4705 24.4388C10.5208 22.9295 10.0228 21.1891 10.0228 19.3973C10.0228 14.1761 14.2737 9.92522 19.5 9.92522C22.031 9.92522 24.408 10.9109 26.1946 12.7027C27.9813 14.4944 29.0799 16.8714 29.0748 19.4025C29.0748 24.6288 24.7161 28.8797 19.4949 28.8797ZM24.6904 21.7846C24.408 21.6408 23.0065 20.9529 22.7446 20.8605C22.4828 20.7629 22.2929 20.7167 22.1029 21.0042C21.9129 21.2917 21.3688 21.9283 21.1993 22.1234C21.035 22.3134 20.8656 22.3391 20.5833 22.1953C18.9096 21.3585 17.8109 20.7013 16.7071 18.8069C16.4145 18.3038 16.9998 18.3397 17.544 17.2513C17.6364 17.0614 17.5902 16.8971 17.5183 16.7533C17.4464 16.6096 16.8766 15.208 16.6404 14.6382C16.4094 14.0837 16.1732 14.1607 15.9987 14.1504C15.8344 14.1402 15.6444 14.1402 15.4545 14.1402C15.2645 14.1402 14.9565 14.2121 14.6946 14.4944C14.4328 14.7819 13.6987 15.4699 13.6987 16.8714C13.6987 18.273 14.7203 19.6283 14.8589 19.8183C15.0027 20.0083 16.8663 22.8833 19.7259 24.1205C21.533 24.9009 22.2415 24.9676 23.1451 24.8342C23.6944 24.752 24.829 24.1462 25.0652 23.4788C25.3013 22.8114 25.3013 22.2415 25.2295 22.1234C25.1627 21.9951 24.9728 21.9232 24.6904 21.7846Z" fill="white"/>
</svg>
