<svg width="18" height="18" viewBox="0 0 18 18" xmlns="http://www.w3.org/2000/svg"><title>876D39C8-4C40-41F8-BE44-85FA651F9CCD</title><g transform="translate(1 .983)" fill="none" fill-rule="evenodd"><path d="M12.174 1.684a7.818 7.818 0 0 1 1.322 4.35 7.753 7.753 0 0 1-7.792 7.79c-1.6 0-3.06-.492-4.313-1.334A7.865 7.865 0 0 0 7.931 16c4.312 0 7.79-3.509 7.79-7.79 0-2.736-1.39-5.122-3.547-6.525" fill="#FFF" fill-rule="nonzero" opacity=".5"/><path d="M.348 7.438l2.504 1.824L.348 7.438zm1.809-4.351c-.279.281-.487.632-.696.983h.209l.487-.983zm3.06 12.21l-.695-.21c.417.21.835.35 1.252.49l-.557-.28zm7.723-6.035l2.573-1.824.07.842v-.21c0-4.28-3.41-7.72-7.653-7.72-1.252 0-2.365.282-3.408.843l.904-.21-.556 2.806 1.32 1.825L5.148 8.84l-2.365.421L1.67 12.56c.695 1.053 1.739 1.895 2.852 2.456l.695.21h.07l2.643-2.034 2.783 1.965-.904.42c1.739-.42 3.27-1.473 4.313-2.876l-1.183-3.439z"/><path d="M.348 7.438v.702c0 1.614.487 3.157 1.391 4.42l1.113-3.298L.348 7.438zM4.87 3.79l.626-2.737-.905.21c-.904.491-1.739 1.123-2.365 1.895l-.487.912 3.13-.28zm3.06 9.402l-2.643 2.035.556.28c.696.211 1.392.351 2.157.351.626 0 1.252-.07 1.878-.21l.905-.421-2.853-2.035zm-2.713 2.035l2.713-2.035zm7.723-5.965l1.112 3.439a8.044 8.044 0 0 0 1.53-4.42l-.069-.843-2.574 1.824z" stroke="#FFF" stroke-width="1.066" stroke-linecap="round" stroke-linejoin="round"/><path d="M5.148 8.771L6.19 5.543 4.87 3.79l-3.2.28h-.21A7.181 7.181 0 0 0 .349 7.51l2.504 1.824 2.296-.562z" stroke="#FFF" stroke-width="1.066" stroke-linecap="round" stroke-linejoin="round"/><path stroke="#FFF" stroke-width="1.066" stroke-linecap="round" stroke-linejoin="round" d="M1.6 4.07l3.27-.28L1.6 4zm3.27-.28L5.496.911m5.147.142l.557 2.806m0 .001l3.34.42m-3.34-.42L9.53 5.542m-1.67 5.264l.07 2.386m2.644-4.421l2.365.491M7.86 10.806l2.714-2.035L9.53 5.543H6.191L5.148 8.771z"/><ellipse stroke="#FFF" stroke-width="1.043" cx="7.93" cy="8.14" rx="7.652" ry="7.719"/></g></svg>