<svg width="17" height="16" viewBox="0 0 17 16" xmlns="http://www.w3.org/2000/svg"><title>EA1AE493-9897-466A-A20D-F7B88022FA27</title><g fill="none" fill-rule="evenodd"><g opacity=".2" fill="#B9BCBF" fill-rule="nonzero" transform="translate(1.152 .13)"><path d="M4.638 7.697l1.789 1.908.86 2.5.862-2.435 1.855-1.973-2.716.723zM3.114 3.355s-.729.987-1.126 2.237c0 0-.597.723-1.26 2.039.067 0 .862-.526 1.59-.724 0 0 1.26.264 2.253.79l-1.59-2.04c.067 0-.132-1.841.133-2.302z"/><path d="M7.288 12.104s-.398 1.316-.596 1.777c0 0-.928.46-1.59.657.066 0 .198.066.264.066.53 0 1.392 0 1.988-.066 0 0 .928.066 1.855.066.133 0 .199-.066.331-.066a39.184 39.184 0 0 1-1.523-.657c-.332-.461-.73-1.777-.73-1.777zM3.114 3.355s.662-1.184 1.656-1.908c0 0 .994-.592 2.518-.723 0 0-1.259-.264-2.32.065-.463.132-.927.395-1.324.592l.066.132c0 .066-.199.395-.596 1.842zM.729 7.631s-.331.066-.663.263c0 .197 0 .46.067.658.265-.526.596-.921.596-.921z"/><ellipse cx=".679" cy="7.582" rx="1" ry="1"/><path d="M14.51 8.618c0-.198.066-.46.066-.658-.398-.197-.73-.263-.73-.263s.398.329.663.92zm-2.982-2.961l-1.59 2.04c1.06-.526 2.252-.79 2.252-.79.796.264 1.657.79 1.657.79-.663-1.316-1.259-2.04-1.259-2.04a8.636 8.636 0 0 0-1.126-2.236c.265.46.066 2.236.066 2.236zM7.288.724c1.524.131 2.517.723 2.517.723.994.724 1.657 1.908 1.657 1.908-.398-1.447-.597-1.776-.597-1.776l.067-.132c-.398-.197-.795-.394-1.26-.592h-.065C8.679.46 7.287.724 7.287.724z"/></g><g transform="translate(1.229 .13)" stroke="#B9BCBF" stroke-width=".994"><g stroke-linecap="round" stroke-linejoin="round"><path d="M3.909 9.012s-.994.132-2.451.066c0 0-.928-1.052-.928-2.763H.133"/><path d="M1.458 9.078s-.464 1.119 0 2.829c0 0 .993 1.25 2.716 1.645 0 0 .331-.198.795-.724s.729-.855.729-.855c-.994-1.184-1.723-2.895-1.723-2.895s.795-1.71 1.723-2.894c0 0-.663-1.513-1.06-2.829 0 0-1.26-.132-2.452.263 0 0-.066-.329-.066-.855M.53 6.315s.265-1.644 1.59-2.763m2.451-.197s1.26-1.184 2.717-1.645M5.631 11.973s1.59.329 3.446 0"/></g><path d="M10.733 9.012s.994.132 2.451.066c0 0 .928-1.052.928-2.763h.397" stroke-linecap="round" stroke-linejoin="round"/><path d="M13.184 9.078s.464 1.119 0 2.829c0 0-.994 1.25-2.716 1.645 0 0-.331-.198-.795-.724a28.24 28.24 0 0 1-.729-.855c.994-1.184 1.723-2.895 1.723-2.895s-.795-1.71-1.723-2.894c0 0 .663-1.513 1.06-2.829 0 0 1.259-.132 2.451.263 0 0 .067-.329.067-.855m1.59 3.552s-.265-1.644-1.59-2.763" stroke-linecap="round" stroke-linejoin="round"/><path d="M10.07 3.355S8.812 2.171 7.354 1.71V.46M9.01 6.184H5.631m3.379 5.789s-1.59.329-3.445 0m-1.391 1.579s.132.329.464.855m5.83-.855s-.133.329-.464.855" stroke-linecap="round" stroke-linejoin="round"/><ellipse cx="7.288" cy="7.697" rx="7.288" ry="7.236"/></g></g></svg>