<svg width="24" height="27" viewBox="0 0 24 27" xmlns="http://www.w3.org/2000/svg"><title>4952420E-0419-4480-999E-093D7972747F</title><path d="M.104.889l12.34 12.017L.102 24.889A2.743 2.743 0 0 1 0 24.162V1.625c0-.274.042-.514.104-.736zM16.889 8.82l-3.628 3.624L.89.054C1.366-.074 1.93.02 2.504.387L16.889 8.82zm6.006 3.226c1.129.673 1.795 2.45-.031 3.553l-3.741 2.179-4.012-4.044 3.939-3.956 3.845 2.268zM.889 26.601l12.325-12.379 3.675 3.702-14.357 8.357c-.586.378-1.161.463-1.643.32z" fill="#FFF"/></svg>