<svg width="28" height="29" viewBox="0 0 28 29" xmlns="http://www.w3.org/2000/svg"><title>FBB794CA-DCBB-45CA-B8F9-2F58A8CE1B2D</title><path d="M.264 2.28a2.704 2.704 0 0 0-.061.78l1.652 23.62c.02.284.084.53.165.755l12.758-13.513L.264 2.28zm19.492 6.368L3.233 1.15C2.573.82 1.941.769 1.423.936L16 12.63l3.756-3.981zm6.092 2.764l-4.41-2.001-4.072 4.312 4.72 3.788 3.98-2.497c1.94-1.26 1.078-3.008-.218-3.602zM3.316 28.602c.546.109 1.18-.024 1.804-.454l15.374-9.641-4.352-3.49L3.316 28.602z" fill="#FFF"/></svg>