<svg width="16" height="17" viewBox="0 0 16 17" xmlns="http://www.w3.org/2000/svg"><title>9B40CC2D-6A3C-42AA-A939-09B395021912</title><g fill="none" fill-rule="evenodd"><path d="M5.667 14.714C5.667 15.977 6.71 17 8 17c1.289 0 2.333-1.023 2.333-2.286H5.667z" fill="#fff" fill-rule="nonzero"/><path d="M1.66 10.366C2.95 9.094 2.978 9 2.978 6.333 2.978 3.08 4.59 1 7.611 1c3.022 0 4.633 2.079 4.633 5.333v.017c0 1.153.08 1.857.408 2.654.21.51.508.965.91 1.362 1.083 1.069.787 2.824-.546 2.824H2.206c-1.332 0-1.629-1.755-.546-2.824z" stroke="#fff" stroke-width="2"/></g></svg>