<svg width="20" height="16" viewBox="0 0 20 16" xmlns="http://www.w3.org/2000/svg"><title>CE298C26-6C5A-4463-920F-D723046FE852</title><g stroke="#333" stroke-width="1.3" fill="none" fill-rule="evenodd" stroke-linecap="round" stroke-linejoin="round"><g transform="translate(12)"><circle cx="2.5" cy="3.2" r="2.5"/><path d="M.7 10.4h5.5c.7 0 1.3-.7 1-1.4-.7-1.9-2.5-3.2-4.7-3.2-.5 0-1.1.1-1.5.2"/></g><circle cx="5.8" cy="3.2" r="2.5"/><path d="M7.5 10.4H2c-.7 0-1.3-.7-1-1.4.7-1.9 2.5-3.2 4.7-3.2.5 0 1.1.1 1.5.2"/><g transform="translate(4 4)"><circle cx="6.1" cy="2.9" r="2.9"/><path d="M6.1 5.8C3.7 5.8 1.6 7.3.8 9.5c-.3.8.3 1.6 1.1 1.6h8.4c.8 0 1.4-.8 1.1-1.6-.8-2.2-2.8-3.7-5.3-3.7z"/></g></g></svg>