<svg width="22" height="22" viewBox="0 0 22 22" xmlns="http://www.w3.org/2000/svg"><title>3CFDA4EF-BAEB-4D76-8B10-763F64DCAA76</title><defs><linearGradient x1="84.35%" y1="14.217%" x2="7.731%" y2="86.468%" id="a"><stop stop-color="#D71014" offset="0%"/><stop stop-color="#ED7026" offset="100%"/></linearGradient></defs><path d="M12.266 22.742c-.728.169-1.487.258-2.266.258-5.523 0-10-4.477-10-10S4.477 3 10 3s10 4.477 10 10a9.981 9.981 0 0 1-.586 3.379m-8.165-1.735H7.177h4.072zm0-2.345H7.177h4.072zm.067 0H8.495V8.944h2.677c.927 0 1.679.751 1.679 1.679v.141c0 .847-.687 1.535-1.535 1.535zm-2.821 4.754V8.944v8.109zm9.551 3.155l-1.843 1.843-1.843-1.843m1.843 1.203v-4.112 4.112z" transform="translate(1 -2)" stroke="url(#a)" stroke-width="1.5" fill="none" stroke-linecap="round" stroke-linejoin="round"/></svg>