<svg xmlns="http://www.w3.org/2000/svg" xmlns:xlink="http://www.w3.org/1999/xlink" width="14" height="20" viewBox="0 0 14 20"><defs><path id="al3ra" d="M997.6 3968.907l-5.6 8.091-5.608-8.103c-2.093-2.79-1.789-7.395.658-9.842A6.952 6.952 0 0 1 992 3957c1.87 0 3.627.729 4.95 2.052 2.446 2.447 2.75 7.052.65 9.854zm-2.98-4.967a2.559 2.559 0 0 0-2.556-2.556 2.559 2.559 0 0 0-2.555 2.556 2.559 2.559 0 0 0 2.555 2.556 2.559 2.559 0 0 0 2.556-2.556z"/></defs><g><g transform="translate(-985 -3957)"><use fill="#fff" xlink:href="#al3ra"/></g></g></svg>