<svg xmlns="http://www.w3.org/2000/svg" xmlns:xlink="http://www.w3.org/1999/xlink" width="20" height="16" viewBox="0 0 20 16"><defs><path id="wu9ya" d="M581.614 3962.618c-.41-.557-.614-1.074-.614-1.551 0-.591.154-1.084.463-1.478.309-.394.75-.591 1.323-.591h16.428c.484 0 .902.178 1.256.534.353.356.53.784.53 1.285 0 .598-.182 1.17-.547 1.716a5.352 5.352 0 0 1-1.362 1.398l-5.223 3.694c-.074.053-.232.168-.474.346a22.82 22.82 0 0 1-.603.433c-.16.11-.353.232-.58.369a3.332 3.332 0 0 1-.642.306c-.2.069-.387.103-.558.103h-.022c-.171 0-.357-.034-.558-.103-.201-.068-.415-.17-.642-.306-.227-.136-.42-.26-.58-.37-.16-.11-.361-.253-.603-.432l-.474-.346a553.435 553.435 0 0 0-2.925-2.074 519.5 519.5 0 0 1-2.287-1.62c-.462-.318-.897-.756-1.306-1.313zm19.386 1.54v9.025c0 .5-.175.928-.525 1.284-.35.357-.77.535-1.26.535h-16.43c-.49 0-.91-.178-1.26-.535a1.767 1.767 0 0 1-.525-1.284v-9.025a5.96 5.96 0 0 0 1.127.99c2.694 1.863 4.543 3.17 5.547 3.92.424.319.768.567 1.032.745.265.178.616.36 1.055.545.439.186.848.279 1.228.279h.022c.38 0 .789-.093 1.228-.279.439-.185.79-.367 1.055-.545.264-.178.608-.426 1.032-.744 1.265-.933 3.118-2.24 5.558-3.922a6.185 6.185 0 0 0 1.116-.989z"/></defs><g><g transform="translate(-581 -3959)"><use fill="#fff" xlink:href="#wu9ya"/></g></g></svg>