<svg xmlns="http://www.w3.org/2000/svg" xmlns:xlink="http://www.w3.org/1999/xlink" width="18" height="18" viewBox="0 0 18 18"><defs><path id="fz6sa" d="M197.269 3971.78a.8.8 0 0 1-.246.7l-2.329 2.312a1.313 1.313 0 0 1-.411.298c-.17.082-.336.134-.5.157l-.104.01a2.314 2.314 0 0 1-.228.008c-.222 0-.58-.038-1.077-.114-.496-.075-1.103-.262-1.821-.56-.718-.298-1.533-.744-2.443-1.34-.91-.595-1.88-1.412-2.907-2.451-.817-.806-1.494-1.576-2.031-2.312a16.459 16.459 0 0 1-1.296-2.04 10.99 10.99 0 0 1-.736-1.698 9.006 9.006 0 0 1-.333-1.314 4.34 4.34 0 0 1-.07-.867c.012-.21.018-.326.018-.35a1.7 1.7 0 0 1 .157-.499c.082-.169.181-.306.298-.411l2.33-2.33a.77.77 0 0 1 .56-.244c.151 0 .286.043.402.131.117.087.216.195.298.324l1.874 3.555a.852.852 0 0 1 .087.613 1.091 1.091 0 0 1-.297.56l-.858.858a.294.294 0 0 0-.062.114.433.433 0 0 0-.026.131c.047.245.152.525.315.84.14.28.356.622.648 1.025.292.403.707.867 1.244 1.392.525.537.992.954 1.4 1.252.41.298.75.517 1.025.657.274.14.485.225.63.254l.22.044a.408.408 0 0 0 .113-.027.293.293 0 0 0 .114-.06l.998-1.017c.21-.186.455-.28.736-.28.198 0 .356.035.472.105h.018l3.38 1.996c.245.152.39.345.438.578z"/></defs><g><g transform="translate(-180 -3958)"><use fill="#fff" xlink:href="#fz6sa"/></g></g></svg>