<svg xmlns="http://www.w3.org/2000/svg" xmlns:xlink="http://www.w3.org/1999/xlink" width="45" height="48" viewBox="0 0 45 48"><defs><path id="dd4qa" d="M1153.878 1205.73c0 11.727-9.394 21.27-20.939 21.27s-20.939-9.542-20.939-21.27c0-11.727 9.394-21.27 20.939-21.27.905 0 1.796.06 2.673.177-.334.824-.58 1.685-.732 2.56-.304-.03-.601-.059-.905-.073-1.833.073-3.44.485-3.368 1.339.123 1.39 2.767 2.096 4.215 2.987.724.449 1.152.941.826 1.589-.065.132-.188.272-.355.42-1.087.97-3.897 2.228-3.274 3.545.464.986 1.615.14 1.188 2.03-.203.869-.949 2.502-2.1 2.605-1.181.11-2.166-3.06-5.375-3.163-1.52-.052-3.657 2.406-1.846 4.142 1.1 1.06 3.165-1.266 3.773.552.435 1.28-.058 3.965 1.948 5.083 1.768.994 5.824 1.656 6.454 5.894.37 2.553-2.94 2.803-4.368 4.348-1.166 1.258-1.05 2.288-1.63 3.127-.76 1.096-2.81.816-2.49-.626.593-2.641-1.457-2.795-.233-4.936.927-1.612-3.223-2.075-3.44-3.826-.21-1.744 2.977-1.751 2.47-4.032-.5-2.288-4.404-1.427-7.098-4.157-.826-.839-2.586-3.62-2.579-6.967a18.779 18.779 0 0 0-2.1 8.652c0 10.278 8.228 18.636 18.346 18.636 4.788 0 9.155-1.876 12.429-4.937a2.323 2.323 0 0 1-.456-.522c-.681-1.008.202-2.001.202-2.877 0-.868-1.709-.794-1.767-1.368-.217-1.972 1.195-2.001 1.941-2.767.754-.765-.739-2.501-1.71-2.383-.97.103-3.707-.457-3.454-2.583.304-2.597-3.252-2.369-3.759-3.575-.746-1.759.493-3.922 2.1-4.415.022-.007.037-.015.058-.022.406.479.819.942 1.232 1.405 1.651 1.84 3.353 3.745 4.476 6.541.449 1.118 1.499 1.84 2.687 1.84 1.18 0 2.23-.722 2.672-1.833.971-2.406 2.362-4.15 3.781-5.768a21.16 21.16 0 0 1 .507 4.628zm3.122-16.487c0 7.816-6.406 9.282-9.418 16.793a.716.716 0 0 1-1.336-.003c-2.717-6.772-8.194-8.63-9.241-14.663-1.032-5.939 3.016-11.757 8.928-12.325 6.011-.577 11.067 4.21 11.067 10.198zm-4.76 0c0-2.988-2.384-5.41-5.325-5.41-2.942 0-5.327 2.422-5.327 5.41s2.385 5.41 5.327 5.41c2.941 0 5.326-2.422 5.326-5.41z"/></defs><g><g transform="translate(-1112 -1179)"><use fill="#0d47bf" xlink:href="#dd4qa"/></g></g></svg>