<svg xmlns="http://www.w3.org/2000/svg" xmlns:xlink="http://www.w3.org/1999/xlink" width="15" height="15" viewBox="0 0 15 15"><defs><path id="w89aa" d="M1124.993 52.838a.726.726 0 0 1-.223.635l-2.112 2.098c-.095.106-.22.196-.373.27a1.533 1.533 0 0 1-.452.143l-.096.008a2.141 2.141 0 0 1-.206.008c-.201 0-.527-.034-.977-.103-.45-.07-1-.239-1.651-.509s-1.39-.675-2.215-1.215c-.826-.54-1.705-1.282-2.636-2.225a17.427 17.427 0 0 1-1.842-2.097 14.965 14.965 0 0 1-1.175-1.852 9.963 9.963 0 0 1-.667-1.54 8.175 8.175 0 0 1-.302-1.193 3.94 3.94 0 0 1-.064-.786c.011-.191.016-.297.016-.318.021-.148.07-.3.143-.453.074-.153.164-.278.27-.373l2.112-2.114a.7.7 0 0 1 .508-.222c.138 0 .26.04.365.119.106.08.196.178.27.294l1.7 3.226c.095.17.121.355.079.556a.99.99 0 0 1-.27.508l-.778.779a.266.266 0 0 0-.056.103.393.393 0 0 0-.024.12c.043.222.138.476.286.762.127.254.323.564.588.93.265.365.64.786 1.127 1.263.477.487.9.866 1.27 1.136.371.27.68.469.93.596.248.127.439.204.571.23l.199.04a.376.376 0 0 0 .103-.024.264.264 0 0 0 .103-.056l.905-.921a.973.973 0 0 1 .667-.254c.18 0 .323.031.429.095h.016l3.065 1.812c.222.137.354.312.397.524z"/></defs><g><g transform="translate(-1110 -41)"><use fill="#fff" xlink:href="#w89aa"/></g></g></svg>