<svg xmlns="http://www.w3.org/2000/svg" xmlns:xlink="http://www.w3.org/1999/xlink" width="54" height="30" viewBox="0 0 54 30"><defs><path id="uv3ua" d="M925 1200.945v11.186a1.34 1.34 0 0 1-1.326 1.346h-2.96c-.453 2.02-2.221 3.523-4.342 3.523-2.121 0-3.889-1.515-4.342-3.523h-15.886c-.453 2.02-2.22 3.523-4.342 3.523-2.12 0-3.9-1.503-4.341-3.523h-4.033a1.34 1.34 0 0 1-1.325-1.346v-4.69h-5.16a1.34 1.34 0 0 1-1.325-1.346c0-.74.596-1.347 1.325-1.347H883.44c.73 0 1.326.606 1.326 1.347v4.7h2.618c.1 0 .188.012.288.034.651-1.671 2.253-2.86 4.131-2.86 1.867 0 3.47 1.177 4.132 2.838.055-.011.11-.011.166-.011h12.483v-21.104h-23.818v4.69a1.34 1.34 0 0 1-1.326 1.346H876.943a1.34 1.34 0 0 1-1.325-1.346c0-.74.596-1.346 1.325-1.346h5.16v-4.69c0-.74.596-1.346 1.325-1.346h26.47c.73 0 1.326.606 1.326 1.346v3.052h5.557c2.309 0 4.386.886 5.844 2.49 1.546 1.706 2.375 4.151 2.375 7.057zm-31.397 11.545c0-1.01-.806-1.829-1.8-1.829-.995 0-1.801.819-1.801 1.829s.806 1.828 1.8 1.828c.995 0 1.801-.819 1.801-1.828zm24.57 0c0-1.01-.807-1.829-1.801-1.829-.994 0-1.8.819-1.8 1.829s.806 1.828 1.8 1.828c.983 0 1.79-.819 1.8-1.828zm4.176-11.533c0-4.297-2.077-6.867-5.557-6.867h-5.557v16.706h1.016c.663-1.66 2.265-2.827 4.12-2.827 1.857 0 3.459 1.177 4.122 2.827h1.856zm-27.442.572h-22.581a1.34 1.34 0 0 1-1.326-1.347c0-.74.596-1.346 1.326-1.346h22.592l-.984-.998a1.363 1.363 0 0 1 0-1.908 1.313 1.313 0 0 1 1.879 0l3.247 3.299.012.01c.022.035.055.057.077.09.01.023.022.034.033.057a.197.197 0 0 1 .044.056l.033.067c.011.023.023.034.033.056l.034.067c0 .023.01.034.022.057.01.022.01.045.022.067.01.011.01.034.022.056 0 .023.011.045.011.068 0 .022.011.044.011.067 0 .033.011.056.011.078a.102.102 0 0 1 .011.056c.011.09.011.18 0 .27 0 .022-.01.033-.01.056 0 .034-.012.056-.012.078 0 .023-.011.045-.011.068 0 .022 0 .044-.011.067-.011.011-.011.034-.022.056-.011.023-.011.045-.022.067 0 .023-.011.034-.022.056a9.143 9.143 0 0 1-.034.068c-.01.022-.022.033-.033.056l-.033.067a.193.193 0 0 0-.044.056c-.011.023-.022.034-.033.056-.022.034-.055.056-.077.09l-.012.011-3.413 3.467a1.339 1.339 0 0 1-.94.393 1.32 1.32 0 0 1-.938-.393 1.362 1.362 0 0 1 0-1.907z"/></defs><g><g transform="translate(-871 -1187)"><use fill="#fff" xlink:href="#uv3ua"/></g></g></svg>