<svg width="17" height="15" viewBox="0 0 17 15" xmlns="http://www.w3.org/2000/svg"><title>6333FE55-EC6C-421C-80C4-5673CFDAC89C</title><g fill="none" fill-rule="evenodd"><g transform="translate(2.378 1.417)"><path d="M12.54 5.639c-.483 3.081-2.825 5.376-5.719 6.228a3.77 3.77 0 0 1 1.24-.196c.965 0 1.447.918 1.86.918.414 0 3.79-2.689 3.79-6.295 0-1.377-.482-2.688-1.378-3.671.276.918.345 1.967.207 3.016z" fill="#B9BCBF" fill-rule="nonzero" opacity=".3"/><path d="M4.685 7.147c0 1.835-.964 2.229-.964 3.147 0 .918.482 1.836 1.446 1.836 1.447 0 1.86-.46 2.825-.46.965 0 1.447.919 1.86.919.414 0 3.79-2.689 3.79-6.295S10.335 0 6.545 0C3.307 0 1.102 2.295.551 3.54c-.069.197-.207.394-.344.722 0 0 1.929.918 2.48 1.245.207.132.69.328 1.102.525.207.131.345.197.483.262.344.197.413.525.413.853z" stroke="#B9BCBF" stroke-width="1.011" stroke-linecap="round" stroke-linejoin="round"/><ellipse fill="#B9BCBF" fill-rule="nonzero" opacity=".3" cx="7.097" cy="8.065" rx="1.585" ry="1.508"/><ellipse cx="1.585" cy="1.508" rx="1" ry="1" transform="translate(5.512 6.557)" fill-rule="nonzero" fill="#B9BCBF"/></g><path d="M1.413 5.023L6.65 7.581l-2.412 5.114a.98.98 0 0 1-.895.59l-1.447.13s-.758-2.032-.483-4.195h4.065" stroke="#B9BCBF" stroke-width="1.011" stroke-linecap="round" stroke-linejoin="round"/><path d="M1.551 10.859h6.752S7.821 8.826 6.65 7.58" stroke="#B9BCBF" stroke-width="1.011" stroke-linecap="round" stroke-linejoin="round"/></g></svg>