<svg width="14" height="14" viewBox="0 0 14 14" xmlns="http://www.w3.org/2000/svg"><title>C6D9C4E0-5F3B-4D6E-BCBD-24FEA6F47226</title><g fill="#5A676E"><circle cx="2.292" cy="11.714" r="2.258"/><path d="M7.565 12.865c0 .621.508 1.13 1.129 1.13.62 0 1.129-.509 1.129-1.13 0-4.787-3.896-8.693-8.694-8.693C.509 4.172 0 4.68 0 5.3c0 .62.508 1.13 1.129 1.13a6.44 6.44 0 0 1 6.436 6.435z"/><path d="M12.871 13.994c.62 0 1.129-.508 1.129-1.129C14 5.775 8.23.005 1.14.005.52.006.011.515.011 1.136c0 .62.508 1.129 1.13 1.129 5.848 0 10.6 4.753 10.6 10.601 0 .621.498 1.13 1.13 1.13z"/></g></svg>