<svg width="22" height="21" viewBox="0 0 22 21" xmlns="http://www.w3.org/2000/svg"><title>68CF1ACD-BDF0-4A23-A00C-F24BFC35CD33</title><g transform="translate(1 .267)" fill="none" fill-rule="evenodd"><path d="M15.217 2.133c.087.09.087.178.174.267 1.392 1.689 2.261 3.822 2.261 6.222 0 5.245-4.174 9.511-9.304 9.511-1.74 0-3.391-.533-4.783-1.333-.695-.267-1.304-.622-1.913-.978 1.74 2.667 4.783 4.445 8.174 4.445 5.391 0 9.74-4.445 9.74-9.867.086-3.467-1.653-6.489-4.349-8.267z" fill="#010202" fill-rule="nonzero" opacity=".3"/><path d="M3.478 9.6c.174.178.348.533.435.8.087.356.174.533.26.889a5.692 5.692 0 0 0 1.218 1.955c1.044 1.067 2.435 1.6 3.913 1.6 1.392 0 2.783-.533 3.913-1.6 2.174-2.133 2.174-5.688 0-7.91-.608-.534-1.217-.978-2-1.245-.347-.089-.608-.178-.87-.267a1.673 1.673 0 0 1-.782-.444c-.956-.8-.87-2.134-.87-2.222 0-.356 0-.534-.086-.623-4.087.711-7.305 4-7.913 8.267.26 0 .608-.089.695-.089 0 .089 1.305-.089 2.087.889z" stroke="#333" stroke-width="1.304"/><ellipse stroke="#333" stroke-width="1.304" cx="10.174" cy="10.311" rx="9.565" ry="9.778"/></g></svg>