<svg width="16" height="16" viewBox="0 0 16 16" xmlns="http://www.w3.org/2000/svg"><title>1D1F6289-12D6-41AF-91EE-165A98D945D0</title><g fill="none" fill-rule="evenodd"><path d="M13.232 15.294H2.47a1.633 1.633 0 0 1-1.625-1.632v-7.58c0-.897.73-1.632 1.625-1.632h10.762c.894 0 1.626.735 1.626 1.633v7.58c0 .897-.732 1.631-1.626 1.631z" stroke="#333" stroke-width="1.406" stroke-linecap="round" stroke-linejoin="round"/><path d="M11.922 9.872c0 .74-.597 1.341-1.337 1.341-.738 0-1.335-.6-1.335-1.341 0-.74.598-1.342 1.335-1.342.74 0 1.337.601 1.337 1.342" fill="#333"/><path d="M.845 9.872V5.75a1.614 1.614 0 0 1 1.05-1.499L10.888.964a.833.833 0 0 1 1.117.78V4.45" stroke="#333" stroke-width="1.406" stroke-linecap="round" stroke-linejoin="round"/></g></svg>