<svg width="17" height="17" viewBox="0 0 17 17" xmlns="http://www.w3.org/2000/svg"><title>35041250-F226-4943-8244-C70FD96D9968</title><g fill="none" fill-rule="evenodd"><path d="M16.055 1.146s-.146-.074-.437-.074v.587s.291 5.282-4.073 9.684c-4.436 4.475-9.6 4.108-9.6 4.108s-.218 0-.581-.074c.072.294.072.514.072.514s6.982 1.834 11.71-2.934C17.8 8.335 16.054 1.146 16.054 1.146z" fill="#B9BCBF" fill-rule="nonzero" opacity=".5"/><path d="M13.145 13.03c-4.727 4.768-11.709 2.934-11.709 2.934s-1.89-6.969 2.91-11.81C9-.543 16.054 1.218 16.054 1.218s1.745 7.116-2.91 11.81z" stroke="#B9BCBF" stroke-width="1.115" stroke-linecap="round" stroke-linejoin="round"/><path d="M16.345 5.767L11.473.852c-2.255.22-4.946.954-7.128 3.228-2.181 2.2-2.981 4.842-3.2 7.116l4.946 4.988c2.254-.22 4.873-1.027 7.054-3.227 2.182-2.128 2.982-4.916 3.2-7.19z" stroke="#B9BCBF" stroke-width="1.115" stroke-linecap="round" stroke-linejoin="round"/><path d="M6.818 10.462l3.855-3.888" stroke="#B9BCBF" stroke-width="1.129" stroke-linecap="round" stroke-linejoin="round"/></g></svg>