<svg width="19" height="15" viewBox="0 0 19 15" xmlns="http://www.w3.org/2000/svg"><title>05398489-3614-4D76-B97D-10FB19DEE425</title><g stroke="#333" stroke-width="1.5" fill="none" fill-rule="evenodd" stroke-linecap="round" stroke-linejoin="round"><path d="M16.6 14.2H4.2c-.5 0-.9-.4-.9-.9v-2.4c0-.5.4-.9.9-.9h12.4c.5 0 .9.4.9.9v2.4c0 .5-.5.9-.9.9z"/><path d="M15 10H2.6c-.5 0-.9-.4-.9-.9V6.7c0-.5.4-.9.9-.9H15c.5 0 .9.4.9.9v2.4c0 .5-.4.9-.9.9z"/><path d="M16.2 5.8H3.8c-.5 0-.9-.4-.9-.9V2.5c0-.5.4-.9.9-.9h12.4c.5 0 .9.4.9.9v2.4c0 .5-.4.9-.9.9z"/></g></svg>