<?xml version="1.0" encoding="UTF-8"?>
<!DOCTYPE svg PUBLIC "-//W3C//DTD SVG 1.1//EN" "http://www.w3.org/Graphics/SVG/1.1/DTD/svg11.dtd">
<!-- Creator: CorelDRAW 2017 -->
<svg xmlns="http://www.w3.org/2000/svg" xml:space="preserve" width="55px" height="49px" version="1.1" style="shape-rendering:geometricPrecision; text-rendering:geometricPrecision; image-rendering:optimizeQuality; fill-rule:evenodd; clip-rule:evenodd"
viewBox="0 0 55 48.9"
 xmlns:xlink="http://www.w3.org/1999/xlink">
 <defs>
  <style type="text/css">
   <![CDATA[
    .fil0 {fill:#0EFF51}
   ]]>
  </style>
 </defs>
 <g id="Слой_x0020_1">
  <metadata id="CorelCorpID_0Corel-Layer"/>
  <g id="_2969045697056">
   <g>
    <path class="fil0" d="M31.99 41.15c-0.2,-0.4 -0.81,-0.61 -1.43,-0.4l-2.03 1.22 0 -2.24c0,-0.6 -0.41,-1.02 -1.02,-1.02 -0.62,0 -1.03,0.41 -1.03,1.02l0 2.24 -2.03 -1.22c-0.41,-0.21 -1.02,0 -1.43,0.4 -0.2,0.41 -0.2,1.02 0.41,1.43l2.03 1.22 -2.03 1.23c-0.41,0.2 -0.61,0.81 -0.41,1.43 0.2,0.4 0.82,0.6 1.43,0.4l2.03 -1.22 0 2.23c0,0.61 0.41,1.03 1.03,1.03 0.61,0 1.02,-0.41 1.02,-1.03l0 -2.23 2.03 1.22c0.41,0.2 1.03,0 1.43,-0.4 0.2,-0.61 0,-1.23 -0.4,-1.43l-2.04 -1.23 2.04 -1.22c0.4,-0.2 0.6,-0.82 0.4,-1.43z"/>
    <path class="fil0" d="M19.77 39.12c-0.2,-0.41 -0.82,-0.61 -1.43,-0.41l-2.03 1.23 0 -2.24c0,-0.61 -0.41,-1.02 -1.02,-1.02 -0.62,0 -1.03,0.4 -1.03,1.02l0 2.24 -2.03 -1.23c-0.41,-0.2 -1.02,0 -1.43,0.41 -0.2,0.4 -0.2,1.02 0.41,1.42l2.03 1.23 -2.03 1.22c-0.41,0.21 -0.61,0.81 -0.41,1.43 0.41,0.41 1.02,0.61 1.43,0.2l2.03 -1.22 0 2.24c0,0.6 0.41,1.02 1.03,1.02 0.61,0 1.02,-0.41 1.02,-1.02l0 -2.24 2.03 1.22c0.41,0.21 1.03,0 1.43,-0.4 0.2,-0.41 0,-1.02 -0.4,-1.23l-2.04 -1.22 2.04 -1.23c0.4,-0.21 0.6,-0.82 0.4,-1.42z"/>
    <path class="fil0" d="M48.91 15.07c0,-6.11 -5.1,-11 -11.21,-11 -2.24,0 -4.07,0.61 -5.91,1.63 -2.65,-3.46 -6.72,-5.7 -11.41,-5.7 -7.95,0 -14.27,6.32 -14.27,14.26 0,0.21 0,0.61 0,0.81 -3.66,1.63 -6.11,5.1 -6.11,9.38 0,5.7 4.48,10.18 10.18,10.18l34.64 0c5.7,0 10.18,-4.48 10.18,-10.18 0.02,-4.28 -2.43,-7.75 -6.09,-9.38zm-4.08 17.53l-34.64 0c-4.48,0 -8.14,-3.67 -8.14,-8.15 0,-3.87 2.65,-7.13 6.31,-7.95 -0.2,-0.82 -0.2,-1.43 -0.2,-2.24 0,-6.72 5.5,-12.23 12.23,-12.23 4.69,0 8.96,2.66 11,6.73 1.63,-1.63 3.87,-2.66 6.32,-2.66 5.09,0 9.17,4.07 9.17,9.18 0,0.4 0,0.81 0,1.22 3.46,0.81 6.12,4.07 6.12,7.95 -0.02,4.48 -3.69,8.15 -8.17,8.15z"/>
    <path class="fil0" d="M44.22 39.12c-0.2,-0.41 -0.81,-0.61 -1.43,-0.41l-2.03 1.23 0 -2.24c0,-0.61 -0.41,-1.02 -1.03,-1.02 -0.61,0 -1.02,0.4 -1.02,1.02l0 2.24 -2.03 -1.23c-0.41,-0.2 -1.03,0 -1.43,0.41 -0.2,0.4 -0.2,1.02 0.4,1.42l2.04 1.23 -2.04 1.22c-0.4,0.21 -0.6,0.81 -0.4,1.43 0.2,0.41 0.81,0.61 1.43,0.41l2.03 -1.23 0 2.24c0,0.61 0.41,1.02 1.02,1.02 0.62,0 1.03,-0.4 1.03,-1.02l0 -2.24 2.03 1.23c0.41,0.2 1.02,0 1.43,-0.41 0.2,-0.61 0,-1.22 -0.41,-1.43l-2.03 -1.22 2.03 -1.23c0.41,-0.21 0.61,-0.82 0.41,-1.42z"/>
   </g>
  </g>
  <g id="_2969045699744">
  </g>
  <g id="_2969045698752">
  </g>
  <g id="_2969045698816">
  </g>
  <g id="_2969045700672">
  </g>
  <g id="_2969045702336">
  </g>
  <g id="_2969045700992">
  </g>
  <g id="_2969045701536">
  </g>
  <g id="_2969045701312">
  </g>
  <g id="_2969045702240">
  </g>
  <g id="_2969045702048">
  </g>
  <g id="_2969045702944">
  </g>
  <g id="_2969045703936">
  </g>
  <g id="_2969045703904">
  </g>
  <g id="_2969045703072">
  </g>
  <g id="_2969045703680">
  </g>
 </g>
</svg>
