<?xml version="1.0" standalone="no"?>
<!DOCTYPE svg PUBLIC "-//W3C//DTD SVG 1.1//EN" "http://www.w3.org/Graphics/SVG/1.1/DTD/svg11.dtd" >
<svg xmlns="http://www.w3.org/2000/svg" xmlns:xlink="http://www.w3.org/1999/xlink" version="1.1">
<metadata></metadata>
<defs>
<font id="institutregular" horiz-adv-x="1302" >
<font-face units-per-em="2048" ascent="1745" descent="-303" />
<missing-glyph horiz-adv-x="677" />
<glyph horiz-adv-x="0" />
<glyph horiz-adv-x="682" />
<glyph unicode=" "  horiz-adv-x="677" />
<glyph unicode="&#x09;" horiz-adv-x="677" />
<glyph unicode="&#xa0;" horiz-adv-x="677" />
<glyph unicode="!" horiz-adv-x="661" d="M147 1380l23 23h322l22 -23l-49 -919l-23 -23h-223l-22 23zM158 23v276l20 23h299l23 -23v-276l-21 -23h-299z" />
<glyph unicode="&#x22;" horiz-adv-x="999" d="M164 895v485l22 23h213l23 -23v-485l-23 -23h-213zM578 895v485l22 23h213l23 -23v-485l-23 -23h-213z" />
<glyph unicode="#" horiz-adv-x="1533" d="M86 377l37 180l31 23h202l54 243h-205l-21 19l39 180l29 22h205l71 336l23 23h207l20 -23l-71 -336h266l71 336l23 23h207l20 -23l-71 -336h204l21 -18l-39 -182l-29 -21h-204l-52 -243h203l23 -19l-39 -182l-31 -21h-203l-71 -335l-25 -23h-205l-22 23l71 335h-264 l-72 -335l-24 -23h-205l-22 23l71 335h-203zM608 580h264l54 243h-267z" />
<glyph unicode="$" horiz-adv-x="1216" d="M57 455l23 22h276l23 -22q0 -85 63.5 -141t171.5 -56q86 0 144.5 36.5t58.5 104.5q0 22 -3.5 40t-15 33t-21 26t-34.5 22.5t-41 18t-55 17t-62.5 16t-76.5 18.5q-73 17 -130 37.5t-112.5 55t-91.5 78t-58 107.5t-22 144q0 165 105 269.5t270 137.5v168l23 23h215l22 -23 v-166q166 -34 274.5 -145.5t108.5 -294.5l-22 -23h-277l-22 23q-2 75 -48 121.5t-147 46.5q-86 0 -133 -35t-47 -96q0 -26 6.5 -45t23 -34t34 -25.5t52 -21.5t63 -19t81.5 -22t94 -26q83 -23 147 -56.5t115.5 -83t79 -120t27.5 -159.5q0 -171 -109 -284t-301 -142v-164 l-22 -23h-215l-23 23v164q-191 33 -301.5 159t-110.5 316z" />
<glyph unicode="%" horiz-adv-x="1732" d="M102 938v188q0 69 28.5 124t74 87.5t97.5 49t104 16.5q54 0 106.5 -16.5t98 -49t74 -87.5t28.5 -124v-188q0 -69 -28.5 -124.5t-74 -88t-97.5 -49.5t-105 -17t-105 17t-98 49.5t-74.5 88t-28.5 124.5zM299 961q0 -49 31 -81t78 -32t77.5 32t30.5 81v141q0 51 -30.5 83 t-79.5 32q-47 0 -77 -32t-30 -83v-141zM399 23l693 1357l22 23h197l22 -23l-692 -1357l-23 -23h-196zM1020 279v188q0 69 28.5 124t73.5 87t97 48.5t104 16.5q54 0 106.5 -16.5t98 -48.5t74 -87t28.5 -124v-188q0 -69 -28.5 -124.5t-74 -88t-97.5 -49.5t-105 -17t-105 17 t-97.5 49.5t-74 88t-28.5 124.5zM1217 301q0 -49 30.5 -81t77.5 -32t78 32t31 81v143q0 50 -31 81.5t-80 31.5q-47 0 -76.5 -31.5t-29.5 -81.5v-143z" />
<glyph unicode="&#x26;" horiz-adv-x="1460" d="M92 477q0 159 83.5 273.5t213.5 169.5l-235 188l-17 31v241l23 23h856l22 -23v-245l-22 -23h-490l199 -151l14 -29v-244l-22 -22q-3 1 -15.5 5t-20 6.5t-23 4.5t-31.5 2q-99 0 -156 -60.5t-57 -146.5q0 -87 61 -148t160 -61q90 0 151.5 58t67.5 131v368l23 23h481l22 -23 v-243l-22 -23h-182v-106q0 -137 -76 -249.5t-199.5 -173.5t-265.5 -61q-146 0 -269.5 62.5t-198.5 180t-75 265.5z" />
<glyph unicode="'" horiz-adv-x="585" d="M164 895v485l22 23h213l23 -23v-485l-23 -23h-213z" />
<glyph unicode="(" horiz-adv-x="761" d="M119 659q0 239 63.5 495t175.5 486l23 23h270l23 -23q-106 -180 -184 -444.5t-78 -536.5q0 -273 78 -539t184 -446l-23 -22h-270l-23 22q-112 230 -175.5 487t-63.5 498z" />
<glyph unicode=")" horiz-adv-x="761" d="M88 -326q106 180 184 446t78 539q0 272 -78 536.5t-184 444.5l23 23h270l22 -23q112 -230 176 -486t64 -495q0 -240 -64 -497.5t-176 -487.5l-22 -22h-270z" />
<glyph unicode="*" horiz-adv-x="1028" d="M143 1063l62 186l24 13l181 -72l-13 192l19 21h196l19 -21l-13 -192l181 72l24 -13l62 -186l-15 -25l-188 -47l125 -149l-4 -29l-158 -115l-29 7l-102 163l-102 -163l-29 -7l-158 115l-4 29l123 149l-186 47z" />
<glyph unicode="+" horiz-adv-x="1228" d="M143 612v215l23 23h311v319l23 23h229l23 -23v-319h311l22 -23v-215l-22 -22h-311v-318l-23 -22h-229l-23 22v318h-311z" />
<glyph unicode="," horiz-adv-x="628" d="M143 23v276l21 23h299l22 -23v-305l-143 -250l-23 -23h-149l-23 23l142 256h-123z" />
<glyph unicode="-" horiz-adv-x="1159" d="M143 612v215l23 23h827l23 -23v-215l-23 -22h-827z" />
<glyph unicode="." horiz-adv-x="628" d="M143 23v276l21 23h299l22 -23v-276l-20 -23h-299z" />
<glyph unicode="../../default.htm" horiz-adv-x="903" d="M61 23l517 1357l22 23h219l23 -23l-516 -1357l-23 -23h-219z" />
<glyph unicode="0" horiz-adv-x="1265" d="M123 434v535q0 94 31.5 172.5t83 131.5t119 90t137 54t139.5 17t139.5 -17t137 -54t119 -90t83 -131.5t31.5 -172.5v-535q0 -94 -31.5 -172.5t-83 -131.5t-119 -90t-137 -54t-139.5 -17t-139.5 17t-137 54t-119 90t-83 131.5t-31.5 172.5zM434 668l389 327 q-15 67 -67 107.5t-123 40.5q-88 0 -143.5 -58.5t-55.5 -150.5v-266zM440 408q17 -67 69.5 -107.5t123.5 -40.5q88 0 143 58.5t55 150.5v266z" />
<glyph unicode="1" horiz-adv-x="1157" d="M205 23v245l22 23h232v602h-232l-22 22v236l22 23h62q76 0 119 46t43 121v39l22 23h277l22 -23v-1089h211l23 -23v-245l-23 -23h-756z" />
<glyph unicode="2" horiz-adv-x="1224" d="M123 934v35q0 203 143 334t355 131q133 0 242.5 -57t174 -162t64.5 -238q0 -105 -40 -191.5t-128 -177.5q-42 -44 -129 -123t-153 -137l-66 -57h508l22 -23v-245l-22 -23h-940l-23 23v243l16 31q18 16 115.5 101t197.5 173.5t156 141.5q83 78 127.5 137t44.5 119 q0 77 -47 125.5t-127 48.5q-86 0 -133 -57t-47 -152l-20 -23h-269z" />
<glyph unicode="3" d="M123 444l22 23h269l22 -23q8 -72 65.5 -127t147.5 -55q98 0 157.5 62.5t59.5 152.5q0 85 -61 147t-156 62q-80 0 -153 -43l-25 12v238l12 29l250 190h-522l-21 23v247l21 21h889l22 -21v-241l-10 -31l-235 -192q131 -52 217 -165t86 -276q0 -149 -74 -266.5 t-194.5 -179.5t-262.5 -62q-141 0 -259 59t-190 168.5t-77 247.5z" />
<glyph unicode="4" horiz-adv-x="1347" d="M123 272v265l12 32l594 820l37 14h278l23 -21v-841h141l23 -23v-246l-23 -20h-141v-229l-23 -23h-268l-22 23v229h-609zM449 541h305v432z" />
<glyph unicode="5" horiz-adv-x="1284" d="M123 444l22 23h269l22 -23q7 -72 62 -127t143 -55q98 0 153.5 62t55.5 147t-55.5 146t-153.5 61q-53 0 -99 -19.5t-73 -50.5h-287l-14 23l88 751l18 21h783l22 -21v-247l-22 -23h-547l-23 -192q79 43 195 43q128 0 237 -60t175.5 -174t66.5 -258q0 -145 -71.5 -261 t-190 -178.5t-258.5 -62.5t-255.5 59t-186 168t-76.5 248z" />
<glyph unicode="6" horiz-adv-x="1298" d="M123 467q0 178 135 385q81 126 383 528l33 23h309l14 -25l-323 -440q23 4 69 4q83 0 161 -35t138.5 -95.5t97 -150.5t36.5 -192q0 -148 -72 -263.5t-191.5 -176t-263.5 -60.5t-263 59.5t-191 174.5t-72 264zM438 469q0 -84 58.5 -145.5t154.5 -61.5q97 0 156 61.5 t59 145.5q0 83 -59 145t-156 62q-95 0 -154 -62t-59 -145z" />
<glyph unicode="7" horiz-adv-x="1181" d="M100 1135v247l23 21h915l23 -21v-280l-555 -1082l-27 -20h-301l-16 23l561 1089h-600z" />
<glyph unicode="8" d="M123 428q0 108 49.5 195t122.5 135q-119 104 -119 274q0 173 135.5 287.5t339.5 114.5t339.5 -114.5t135.5 -287.5q0 -176 -118 -274q73 -48 122.5 -135t49.5 -195q0 -200 -151 -329.5t-378 -129.5t-377.5 129.5t-150.5 329.5zM434 440q0 -84 62.5 -135t154.5 -51 t154.5 51t62.5 135t-62.5 136.5t-154.5 52.5t-154.5 -52.5t-62.5 -136.5zM477 1016q0 -66 50 -105t124 -39t124 39t50 105t-50 104.5t-124 38.5t-124 -38.5t-50 -104.5z" />
<glyph unicode="9" horiz-adv-x="1298" d="M123 934q0 148 72 263.5t191 176t263 60.5t263.5 -59.5t191.5 -174.5t72 -264q0 -177 -136 -385q-81 -126 -383 -528l-32 -23h-310l-14 25l324 440q-23 -4 -70 -4q-83 0 -161 35t-138 95.5t-96.5 150.5t-36.5 192zM432 934q0 -83 59 -145t156 -62q95 0 154 62t59 145 q0 84 -58.5 145.5t-154.5 61.5q-97 0 -156 -61.5t-59 -145.5z" />
<glyph unicode=":" horiz-adv-x="628" d="M143 23v276l21 23h299l22 -23v-276l-20 -23h-299zM143 612v277l21 22h299l22 -22v-277l-20 -22h-299z" />
<glyph unicode=";" horiz-adv-x="628" d="M143 23v276l21 23h299l22 -23v-305l-143 -250l-23 -23h-149l-23 23l142 256h-123zM143 612v277l21 22h299l22 -22v-277l-20 -22h-299z" />
<glyph unicode="&#x3c;" horiz-adv-x="1077" d="M164 696v43l373 402l36 16h318l22 -22l-368 -416l368 -416l-22 -22h-318l-36 14z" />
<glyph unicode="=" horiz-adv-x="1228" d="M143 391v215l23 23h897l22 -23v-215l-22 -22h-897zM143 834v215l23 22h897l22 -22v-215l-22 -23h-897z" />
<glyph unicode="&#x3e;" horiz-adv-x="1077" d="M164 303l368 416l-368 416l22 22h318l37 -16l372 -402v-43l-372 -401l-37 -14h-318z" />
<glyph unicode="?" horiz-adv-x="1130" d="M61 938v29q0 94 33.5 178.5t96 149t159 102t213.5 37.5q217 0 347 -119t130 -293q0 -207 -159 -322l-86 -61q-65 -45 -84 -73.5t-19 -80.5v-36l-20 -23h-271l-22 23v65q0 95 25.5 144t105.5 106l125 88q50 34 71 68t21 86q0 62 -45.5 104.5t-122.5 42.5 q-89 0 -137.5 -51.5t-48.5 -132.5v-31l-21 -23h-268zM365 23v276l20 23h299l23 -23v-276l-21 -23h-299z" />
<glyph unicode="@" horiz-adv-x="1540" d="M154 23v989q0 99 35.5 175t99.5 122.5t147.5 70t184.5 23.5h299q100 0 183.5 -23.5t147.5 -70t99.5 -122.5t35.5 -175v-989l-22 -23h-207l-22 23v55q-28 -37 -83 -64.5t-124 -27.5q-65 0 -126 22t-112.5 65t-83 116t-31.5 165v160q0 92 31.5 165t83 116t112.5 65.5 t126 22.5q69 0 124 -27.5t83 -64.5v178q0 91 -59.5 142.5t-157.5 51.5h-295q-98 0 -157.5 -51.5t-59.5 -142.5v-946l-23 -23h-207zM825 393q0 -71 43.5 -117.5t110.5 -46.5q69 0 112.5 46.5t43.5 117.5v82q0 71 -43.5 116.5t-112.5 45.5q-67 0 -110.5 -45.5t-43.5 -116.5 v-82z" />
<glyph unicode="A" horiz-adv-x="1314" d="M31 23l405 1357l23 23h397l23 -23l405 -1357l-22 -23h-291l-23 23l-74 264h-442l-74 -264l-22 -23h-283zM514 575h283l-140 510z" />
<glyph unicode="B" horiz-adv-x="1355" d="M154 23v1357l22 23h561q199 0 327 -103.5t128 -269.5q0 -104 -31.5 -167t-95.5 -113q80 -46 134 -128.5t54 -199.5q0 -195 -132 -308.5t-361 -113.5h-584zM475 295h287q79 0 123.5 45t44.5 111t-44.5 110.5t-123.5 44.5h-287v-311zM475 874h277q58 0 91.5 34t33.5 83 q0 48 -34 82.5t-91 34.5h-277v-234z" />
<glyph unicode="C" d="M113 469v465q0 101 34 185.5t89 141.5t127.5 97t148 58t150.5 18t150.5 -18t147.5 -58t127.5 -97t89 -141.5t33.5 -185.5v-47l-22 -23h-277l-22 23q0 106 -63.5 172.5t-163.5 66.5q-101 0 -164.5 -66.5t-63.5 -172.5v-371q0 -106 64.5 -173t165.5 -67q100 0 162.5 67 t62.5 173v21l22 22h277l22 -22v-68q0 -101 -33.5 -185.5t-89 -141.5t-127 -97t-146.5 -58t-150 -18q-76 0 -152 18t-148.5 58t-127.5 97t-89 141.5t-34 185.5z" />
<glyph unicode="D" horiz-adv-x="1363" d="M154 23v1357l22 23h524q119 0 217.5 -27.5t174 -82.5t117.5 -144.5t42 -206.5v-481q0 -117 -42 -206.5t-117.5 -144.5t-174 -82.5t-217.5 -27.5h-524zM475 291h225q103 0 166.5 55t63.5 150v411q0 95 -63.5 150t-166.5 55h-225v-821z" />
<glyph unicode="E" horiz-adv-x="1351" d="M154 23v1357l22 23h1026l23 -23v-262l-23 -22h-727v-211h514l23 -23v-250l-23 -22h-514v-283h731l23 -22v-262l-23 -23h-1030z" />
<glyph unicode="F" horiz-adv-x="1280" d="M154 23v1357l22 23h1032l21 -23v-262l-21 -22h-733v-211h510l23 -23v-250l-23 -22h-510v-567l-22 -23h-277z" />
<glyph unicode="G" horiz-adv-x="1323" d="M113 469v465q0 101 34 185.5t89 141.5t127.5 97t148 58t150.5 18t150.5 -18t147.5 -58t127.5 -97t89 -141.5t33.5 -185.5v-41l-22 -23h-277l-22 23q0 105 -63 169t-164 64t-164.5 -66.5t-63.5 -172.5v-371q0 -106 64.5 -173t165.5 -67q103 0 161.5 59.5t63.5 143.5h-199 l-22 23v235l22 23h498l22 -23v-264q0 -102 -33.5 -187.5t-89 -142.5t-127 -97.5t-146.5 -58.5t-150 -18q-76 0 -152 18t-148.5 58t-127.5 97t-89 141.5t-34 185.5z" />
<glyph unicode="H" horiz-adv-x="1411" d="M154 23v1357l22 23h277l22 -23v-506h461v506l22 23h279l20 -23v-1357l-20 -23h-279l-22 23v544h-461v-544l-22 -23h-277z" />
<glyph unicode="I" horiz-adv-x="1064" d="M123 23v262l22 22h226v789h-226l-22 22v262l22 23h775l22 -23v-262l-22 -22h-228v-789h228l22 -22v-262l-22 -23h-775z" />
<glyph unicode="J" horiz-adv-x="1220" d="M37 442v74l22 23h277l22 -23v-31q0 -92 55.5 -150.5t143.5 -58.5q89 0 144 58t55 151v611h-312l-22 22v262l22 23h611l22 -23v-938q0 -95 -32 -175.5t-84.5 -134t-121 -91.5t-139.5 -55t-141 -17q-71 0 -143 17t-140.5 55t-121.5 91.5t-85 134t-32 175.5z" />
<glyph unicode="K" horiz-adv-x="1353" d="M154 23v1357l22 23h277l22 -23v-524l430 526l33 21h334l14 -23l-416 -510l433 -847l-17 -23h-311l-29 18l-303 598l-168 -221v-372l-22 -23h-277z" />
<glyph unicode="L" horiz-adv-x="1236" d="M154 23v1357l22 23h277l22 -23v-1073h668l22 -22v-262l-22 -23h-967z" />
<glyph unicode="M" horiz-adv-x="1536" d="M154 23v1357l22 23h330l29 -19l237 -471l234 471l28 19h326l22 -23v-1357l-22 -23h-275l-20 23v903l-166 -314l-22 -22h-224l-22 22l-160 310v-899l-22 -23h-273z" />
<glyph unicode="N" horiz-adv-x="1396" d="M154 23v1357l22 23h311l31 -17l416 -837v831l22 23h265l22 -23v-1357l-22 -23h-312l-30 18l-416 836v-831l-23 -23h-264z" />
<glyph unicode="O" horiz-adv-x="1323" d="M113 467v467q0 101 33.5 185.5t89 141.5t127 97t146.5 58t150 18t151 -18t148.5 -58t128 -97t89.5 -141.5t34 -185.5v-467q0 -100 -34 -184t-89.5 -141t-127.5 -97t-147 -58t-150 -18t-150.5 18t-148 58t-127.5 97t-89 141t-34 184zM434 516q0 -106 64 -173t164 -67 q101 0 164 67t63 173v371q0 104 -64.5 171.5t-165.5 67.5q-99 0 -162 -67t-63 -172v-371z" />
<glyph unicode="P" horiz-adv-x="1286" d="M154 23v1357l22 23h535q128 0 230 -36.5t165.5 -100.5t97 -147t33.5 -179t-33.5 -179t-97 -147.5t-165.5 -101.5t-230 -37h-236v-452l-22 -23h-277zM475 766h258q84 0 133 50t49 122q0 71 -49 120.5t-133 49.5h-258v-342z" />
<glyph unicode="Q" horiz-adv-x="1323" d="M113 467v467q0 101 33.5 185.5t89 141.5t127 97t146.5 58t150 18t151 -18t148.5 -58t128 -97t89.5 -141.5t34 -185.5v-467q0 -100 -33 -183.5t-89.5 -141t-125 -95.5t-147.5 -57v-217l-22 -23h-263l-22 23v217q-79 19 -148 57t-125.5 95.5t-89 141t-32.5 183.5zM434 516 q0 -106 64 -173t164 -67q101 0 164 67t63 173v371q0 104 -64.5 171.5t-165.5 67.5q-99 0 -162 -67t-63 -172v-371z" />
<glyph unicode="R" horiz-adv-x="1374" d="M154 23v1357l22 23h547q128 0 230 -36.5t165.5 -101t97 -147.5t33.5 -180q0 -252 -194 -377l211 -538l-17 -23h-297l-30 20l-170 455h-277v-452l-22 -23h-277zM475 766h268q85 0 135 50.5t50 121.5t-49.5 120.5t-135.5 49.5h-268v-342z" />
<glyph unicode="S" horiz-adv-x="1216" d="M57 455l23 22h276l23 -22q0 -85 63.5 -141t171.5 -56q86 0 144.5 36.5t58.5 104.5q0 22 -3.5 40t-15 33t-21 26t-34.5 22.5t-41 18t-55 17t-62.5 16t-76.5 18.5q-73 17 -130 37.5t-112.5 55t-91.5 78t-58 107.5t-22 144q0 102 42.5 184t114 133t162 78t191.5 27 q77 0 149 -16.5t137.5 -53t114.5 -88.5t78 -128t29 -167l-22 -23h-277l-22 23q-2 75 -48 121.5t-147 46.5q-86 0 -133 -35t-47 -96q0 -26 6.5 -45t23 -34t34 -25.5t52 -21.5t63 -19t81.5 -22t94 -26q83 -23 147 -56.5t115.5 -83t79 -120t27.5 -159.5q0 -200 -145.5 -318.5 t-395.5 -118.5q-244 0 -392.5 132t-148.5 354z" />
<glyph unicode="T" horiz-adv-x="1200" d="M51 1118v262l23 23h1052l23 -23v-262l-23 -22h-366v-1073l-23 -23h-276l-23 23v1073h-364z" />
<glyph unicode="U" horiz-adv-x="1388" d="M143 469v911l23 23h276l23 -23v-864q0 -106 64 -173t165 -67t165.5 67t64.5 173v864l22 23h277l22 -23v-911q0 -101 -34 -185.5t-89.5 -141.5t-128 -97t-148.5 -58t-151 -18t-151 18t-148.5 58t-128 97t-89.5 141.5t-34 185.5z" />
<glyph unicode="V" horiz-adv-x="1300" d="M31 1380l22 23h289l23 -23l288 -1050l295 1050l23 23h276l23 -23l-396 -1357l-22 -23h-403l-23 23z" />
<glyph unicode="W" horiz-adv-x="1587" d="M61 1380l23 23h276l23 -23l109 -954l170 455l22 22h217l23 -22l186 -457l104 956l23 23h266l23 -23l-166 -1357l-23 -23h-331l-23 23l-190 469l-177 -469l-22 -23h-342l-23 23z" />
<glyph unicode="X" horiz-adv-x="1280" d="M51 23l395 698l-385 659l13 23h313l31 -19l231 -413l228 413l30 19h301l15 -23l-383 -657l389 -700l-15 -23h-315l-31 18l-229 422l-240 -422l-30 -18h-306z" />
<glyph unicode="Y" horiz-adv-x="1310" d="M20 1382l13 21h313l33 -17l280 -567l285 567l35 17h299l12 -21l-475 -893v-466l-20 -23h-279l-22 23v466z" />
<glyph unicode="Z" horiz-adv-x="1261" d="M82 23v264l12 30l664 779h-639l-23 22v264l23 21h1028l22 -21v-264l-12 -28l-674 -783h674l23 -20v-264l-23 -23h-1053z" />
<glyph unicode="[" horiz-adv-x="825" d="M135 -332v1972l23 23h579l23 -23v-215l-23 -22h-327v-1497h327l23 -23v-215l-23 -22h-579z" />
<glyph unicode="\" horiz-adv-x="903" d="M61 1380l23 23h219l23 -23l516 -1357l-23 -23h-219l-22 23z" />
<glyph unicode="]" horiz-adv-x="825" d="M66 -117l22 23h328v1497h-328l-22 22v215l22 23h580l22 -23v-1972l-22 -22h-580l-22 22v215z" />
<glyph unicode="_" horiz-adv-x="1323" d="M143 23v215l23 22h991l23 -22v-215l-23 -23h-991z" />
<glyph unicode="`" horiz-adv-x="677" d="M57 1763l21 23h297l31 -23l159 -239l-20 -23h-234l-35 15z" />
<glyph unicode="a" horiz-adv-x="1314" d="M31 23l405 1357l23 23h397l23 -23l405 -1357l-22 -23h-291l-23 23l-74 264h-442l-74 -264l-22 -23h-283zM514 575h283l-140 510z" />
<glyph unicode="b" horiz-adv-x="1355" d="M154 23v1357l22 23h561q199 0 327 -103.5t128 -269.5q0 -104 -31.5 -167t-95.5 -113q80 -46 134 -128.5t54 -199.5q0 -195 -132 -308.5t-361 -113.5h-584zM475 295h287q79 0 123.5 45t44.5 111t-44.5 110.5t-123.5 44.5h-287v-311zM475 874h277q58 0 91.5 34t33.5 83 q0 48 -34 82.5t-91 34.5h-277v-234z" />
<glyph unicode="c" d="M113 469v465q0 101 34 185.5t89 141.5t127.5 97t148 58t150.5 18t150.5 -18t147.5 -58t127.5 -97t89 -141.5t33.5 -185.5v-47l-22 -23h-277l-22 23q0 106 -63.5 172.5t-163.5 66.5q-101 0 -164.5 -66.5t-63.5 -172.5v-371q0 -106 64.5 -173t165.5 -67q100 0 162.5 67 t62.5 173v21l22 22h277l22 -22v-68q0 -101 -33.5 -185.5t-89 -141.5t-127 -97t-146.5 -58t-150 -18q-76 0 -152 18t-148.5 58t-127.5 97t-89 141.5t-34 185.5z" />
<glyph unicode="d" horiz-adv-x="1363" d="M154 23v1357l22 23h524q119 0 217.5 -27.5t174 -82.5t117.5 -144.5t42 -206.5v-481q0 -117 -42 -206.5t-117.5 -144.5t-174 -82.5t-217.5 -27.5h-524zM475 291h225q103 0 166.5 55t63.5 150v411q0 95 -63.5 150t-166.5 55h-225v-821z" />
<glyph unicode="e" horiz-adv-x="1351" d="M154 23v1357l22 23h1026l23 -23v-262l-23 -22h-727v-211h514l23 -23v-250l-23 -22h-514v-283h731l23 -22v-262l-23 -23h-1030z" />
<glyph unicode="f" horiz-adv-x="1280" d="M154 23v1357l22 23h1032l21 -23v-262l-21 -22h-733v-211h510l23 -23v-250l-23 -22h-510v-567l-22 -23h-277z" />
<glyph unicode="g" horiz-adv-x="1323" d="M113 469v465q0 101 34 185.5t89 141.5t127.5 97t148 58t150.5 18t150.5 -18t147.5 -58t127.5 -97t89 -141.5t33.5 -185.5v-41l-22 -23h-277l-22 23q0 105 -63 169t-164 64t-164.5 -66.5t-63.5 -172.5v-371q0 -106 64.5 -173t165.5 -67q103 0 161.5 59.5t63.5 143.5h-199 l-22 23v235l22 23h498l22 -23v-264q0 -102 -33.5 -187.5t-89 -142.5t-127 -97.5t-146.5 -58.5t-150 -18q-76 0 -152 18t-148.5 58t-127.5 97t-89 141.5t-34 185.5z" />
<glyph unicode="h" horiz-adv-x="1411" d="M154 23v1357l22 23h277l22 -23v-506h461v506l22 23h279l20 -23v-1357l-20 -23h-279l-22 23v544h-461v-544l-22 -23h-277z" />
<glyph unicode="i" horiz-adv-x="1064" d="M123 23v262l22 22h226v789h-226l-22 22v262l22 23h775l22 -23v-262l-22 -22h-228v-789h228l22 -22v-262l-22 -23h-775z" />
<glyph unicode="j" horiz-adv-x="1220" d="M37 442v74l22 23h277l22 -23v-31q0 -92 55.5 -150.5t143.5 -58.5q89 0 144 58t55 151v611h-312l-22 22v262l22 23h611l22 -23v-938q0 -95 -32 -175.5t-84.5 -134t-121 -91.5t-139.5 -55t-141 -17q-71 0 -143 17t-140.5 55t-121.5 91.5t-85 134t-32 175.5z" />
<glyph unicode="k" horiz-adv-x="1353" d="M154 23v1357l22 23h277l22 -23v-524l430 526l33 21h334l14 -23l-416 -510l433 -847l-17 -23h-311l-29 18l-303 598l-168 -221v-372l-22 -23h-277z" />
<glyph unicode="l" horiz-adv-x="1236" d="M154 23v1357l22 23h277l22 -23v-1073h668l22 -22v-262l-22 -23h-967z" />
<glyph unicode="m" horiz-adv-x="1536" d="M154 23v1357l22 23h330l29 -19l237 -471l234 471l28 19h326l22 -23v-1357l-22 -23h-275l-20 23v903l-166 -314l-22 -22h-224l-22 22l-160 310v-899l-22 -23h-273z" />
<glyph unicode="n" horiz-adv-x="1396" d="M154 23v1357l22 23h311l31 -17l416 -837v831l22 23h265l22 -23v-1357l-22 -23h-312l-30 18l-416 836v-831l-23 -23h-264z" />
<glyph unicode="o" horiz-adv-x="1323" d="M113 467v467q0 101 33.5 185.5t89 141.5t127 97t146.5 58t150 18t151 -18t148.5 -58t128 -97t89.5 -141.5t34 -185.5v-467q0 -100 -34 -184t-89.5 -141t-127.5 -97t-147 -58t-150 -18t-150.5 18t-148 58t-127.5 97t-89 141t-34 184zM434 516q0 -106 64 -173t164 -67 q101 0 164 67t63 173v371q0 104 -64.5 171.5t-165.5 67.5q-99 0 -162 -67t-63 -172v-371z" />
<glyph unicode="p" horiz-adv-x="1286" d="M154 23v1357l22 23h535q128 0 230 -36.5t165.5 -100.5t97 -147t33.5 -179t-33.5 -179t-97 -147.5t-165.5 -101.5t-230 -37h-236v-452l-22 -23h-277zM475 766h258q84 0 133 50t49 122q0 71 -49 120.5t-133 49.5h-258v-342z" />
<glyph unicode="q" horiz-adv-x="1323" d="M113 467v467q0 101 33.5 185.5t89 141.5t127 97t146.5 58t150 18t151 -18t148.5 -58t128 -97t89.5 -141.5t34 -185.5v-467q0 -100 -33 -183.5t-89.5 -141t-125 -95.5t-147.5 -57v-217l-22 -23h-263l-22 23v217q-79 19 -148 57t-125.5 95.5t-89 141t-32.5 183.5zM434 516 q0 -106 64 -173t164 -67q101 0 164 67t63 173v371q0 104 -64.5 171.5t-165.5 67.5q-99 0 -162 -67t-63 -172v-371z" />
<glyph unicode="r" horiz-adv-x="1374" d="M154 23v1357l22 23h547q128 0 230 -36.5t165.5 -101t97 -147.5t33.5 -180q0 -252 -194 -377l211 -538l-17 -23h-297l-30 20l-170 455h-277v-452l-22 -23h-277zM475 766h268q85 0 135 50.5t50 121.5t-49.5 120.5t-135.5 49.5h-268v-342z" />
<glyph unicode="s" horiz-adv-x="1216" d="M57 455l23 22h276l23 -22q0 -85 63.5 -141t171.5 -56q86 0 144.5 36.5t58.5 104.5q0 22 -3.5 40t-15 33t-21 26t-34.5 22.5t-41 18t-55 17t-62.5 16t-76.5 18.5q-73 17 -130 37.5t-112.5 55t-91.5 78t-58 107.5t-22 144q0 102 42.5 184t114 133t162 78t191.5 27 q77 0 149 -16.5t137.5 -53t114.5 -88.5t78 -128t29 -167l-22 -23h-277l-22 23q-2 75 -48 121.5t-147 46.5q-86 0 -133 -35t-47 -96q0 -26 6.5 -45t23 -34t34 -25.5t52 -21.5t63 -19t81.5 -22t94 -26q83 -23 147 -56.5t115.5 -83t79 -120t27.5 -159.5q0 -200 -145.5 -318.5 t-395.5 -118.5q-244 0 -392.5 132t-148.5 354z" />
<glyph unicode="t" horiz-adv-x="1200" d="M51 1118v262l23 23h1052l23 -23v-262l-23 -22h-366v-1073l-23 -23h-276l-23 23v1073h-364z" />
<glyph unicode="u" horiz-adv-x="1388" d="M143 469v911l23 23h276l23 -23v-864q0 -106 64 -173t165 -67t165.5 67t64.5 173v864l22 23h277l22 -23v-911q0 -101 -34 -185.5t-89.5 -141.5t-128 -97t-148.5 -58t-151 -18t-151 18t-148.5 58t-128 97t-89.5 141.5t-34 185.5z" />
<glyph unicode="v" horiz-adv-x="1300" d="M31 1380l22 23h289l23 -23l288 -1050l295 1050l23 23h276l23 -23l-396 -1357l-22 -23h-403l-23 23z" />
<glyph unicode="w" horiz-adv-x="1587" d="M61 1380l23 23h276l23 -23l109 -954l170 455l22 22h217l23 -22l186 -457l104 956l23 23h266l23 -23l-166 -1357l-23 -23h-331l-23 23l-190 469l-177 -469l-22 -23h-342l-23 23z" />
<glyph unicode="x" horiz-adv-x="1280" d="M51 23l395 698l-385 659l13 23h313l31 -19l231 -413l228 413l30 19h301l15 -23l-383 -657l389 -700l-15 -23h-315l-31 18l-229 422l-240 -422l-30 -18h-306z" />
<glyph unicode="y" horiz-adv-x="1310" d="M20 1382l13 21h313l33 -17l280 -567l285 567l35 17h299l12 -21l-475 -893v-466l-20 -23h-279l-22 23v466z" />
<glyph unicode="z" horiz-adv-x="1261" d="M82 23v264l12 30l664 779h-639l-23 22v264l23 21h1028l22 -21v-264l-12 -28l-674 -783h674l23 -20v-264l-23 -23h-1053z" />
<glyph unicode="{" horiz-adv-x="751" d="M74 539v239l22 23h60q21 0 35.5 3t29.5 11.5t23 28.5t8 51v465q0 126 92.5 214.5t224.5 88.5h86l23 -23v-208l-23 -23h-43q-35 0 -60.5 -25.5t-25.5 -60.5v-387q0 -66 -4 -105.5t-18.5 -77.5t-44 -60t-78.5 -36q39 -10 66 -27.5t42.5 -39t23.5 -56t10.5 -67.5t2.5 -86 v-383q0 -35 25.5 -60.5t60.5 -25.5h43l23 -23v-215l-23 -22h-86q-132 0 -224.5 88t-92.5 215v467q0 57 -26 75.5t-70 18.5h-60z" />
<glyph unicode="|" horiz-adv-x="561" d="M154 -326v1966l22 23h209l23 -23v-1966l-23 -22h-209z" />
<glyph unicode="}" horiz-adv-x="751" d="M74 -111l22 23h43q35 0 60.5 25.5t25.5 60.5v383q0 53 2.5 86t10.5 67.5t24 56t43 39t66 27.5q-39 11 -66 29t-43 39.5t-24 56t-10.5 68t-2.5 86.5v387q0 35 -25.5 60.5t-60.5 25.5h-43l-22 23v208l22 23h86q132 0 225 -88.5t93 -214.5v-465q0 -58 25.5 -76t70.5 -18h59 l23 -23v-239l-23 -23h-59q-44 0 -70 -18.5t-26 -75.5v-467q0 -127 -93 -215t-225 -88h-86l-22 22v215z" />
<glyph unicode="&#xa2;" horiz-adv-x="1339" d="M102 524v350q0 104 35 190t95.5 144.5t133 96t154.5 55.5v176l23 23h215l22 -23v-176q82 -17 155 -54.5t133.5 -95.5t96 -145t35.5 -191v-47l-22 -22h-277l-22 22q0 106 -64 173t-164 67q-101 0 -164 -67t-63 -173v-256q0 -106 64 -172.5t165 -66.5q100 0 163 66.5 t63 172.5v21l22 22h277l22 -22v-68q0 -84 -24 -157t-63.5 -126.5t-94.5 -95.5t-114 -68t-124 -40v-174l-22 -23h-215l-23 23v176q-83 18 -155 55.5t-132.5 95.5t-95.5 144t-35 190z" />
<glyph unicode="&#xa3;" horiz-adv-x="1349" d="M102 23v262l23 22h133v201h-133l-23 22v232l23 22h133v215q0 119 57 217.5t166 158t250 59.5t250 -59.5t166 -158t57 -217.5v-47l-22 -22h-277l-22 22v11q0 76 -42 120.5t-110 44.5q-69 0 -110 -44.5t-41 -120.5v-179h284l23 -22v-232l-23 -22h-284v-201h665l23 -22v-262 l-23 -23h-1120z" />
<glyph unicode="&#xa5;" horiz-adv-x="1310" d="M20 1382l13 21h313l33 -17l280 -532l285 532l35 17h299l12 -21l-418 -747h166l19 -19v-129l-19 -16h-223v-78h223l19 -18v-127l-19 -19h-223v-206l-20 -23h-279l-22 23v206h-222l-16 19v127l16 18h222v78h-222l-16 16v129l16 19h162z" />
<glyph unicode="&#xa8;" horiz-adv-x="946" d="M80 1524v239l22 23h277l22 -23v-239l-22 -23h-277zM545 1524v239l22 23h277l22 -23v-239l-22 -23h-277z" />
<glyph unicode="&#xa9;" horiz-adv-x="1710" d="M123 702q0 148 58 283t156.5 233.5t235 157t285.5 58.5q148 0 283.5 -58.5t233 -157t155 -233.5t57.5 -283q0 -149 -57.5 -284.5t-155 -233.5t-233 -156.5t-283.5 -58.5q-200 0 -369 98.5t-267.5 267.5t-98.5 367zM203 702q0 -135 51.5 -256t139 -208t208.5 -138t256 -51 q177 0 327 86.5t237 237t87 329.5q0 178 -87 328t-237 237t-327 87q-180 0 -330.5 -87t-237.5 -237t-87 -328zM532 565v273q0 59 20 109t53 83.5t75.5 57.5t87 34.5t88.5 10.5q56 0 111 -18t103 -52t78 -93t30 -132v-27l-13 -14h-164l-12 14q0 62 -37.5 101.5t-95.5 39.5 q-60 0 -97.5 -39.5t-37.5 -101.5v-219q0 -62 37.5 -101.5t97.5 -39.5t96.5 39.5t36.5 101.5v10l12 14h164l13 -14v-37q0 -73 -30 -132t-78 -93t-103 -52t-111 -18q-44 0 -88.5 10.5t-87 34.5t-75.5 57.5t-53 83.5t-20 109z" />
<glyph unicode="&#xab;" horiz-adv-x="1187" d="M115 700v37l168 348l32 15h269l20 -21l-160 -360l160 -361l-20 -18h-269l-32 12zM584 700v37l168 348l32 15h269l20 -21l-160 -360l160 -361l-20 -18h-269l-32 12z" />
<glyph unicode="&#xad;" horiz-adv-x="1159" d="M143 612v215l23 23h827l23 -23v-215l-23 -22h-827z" />
<glyph unicode="&#xae;" horiz-adv-x="1710" d="M123 702q0 148 58 283t156.5 233.5t235 157t285.5 58.5q148 0 283.5 -58.5t233 -157t155 -233.5t57.5 -283q0 -149 -57.5 -284.5t-155 -233.5t-233 -156.5t-283.5 -58.5q-200 0 -369 98.5t-267.5 267.5t-98.5 367zM203 702q0 -135 51.5 -256t139 -208t208.5 -138t256 -51 q177 0 327.5 86.5t238 237t87.5 329.5q0 178 -87.5 328t-238 237t-327.5 87q-180 0 -330.5 -87t-237.5 -237t-87 -328zM553 301v799l14 14h322q149 0 229 -77.5t80 -196.5q0 -149 -115 -222l125 -317l-10 -12h-174l-18 12l-101 266h-162v-266l-14 -12h-162zM743 739h158 q50 0 79.5 29.5t29.5 71.5t-29.5 71t-79.5 29h-158v-201z" />
<glyph unicode="&#xb4;" horiz-adv-x="677" d="M113 1524l159 239l31 23h297l21 -23l-220 -247l-34 -15h-234z" />
<glyph unicode="&#xb8;" horiz-adv-x="806" d="M178 -281l152 304l30 22h265l20 -22l-196 -308l-35 -18h-215z" />
<glyph unicode="&#xbb;" horiz-adv-x="1187" d="M115 358l159 361l-159 360l20 21h268l33 -15l168 -348v-37l-168 -348l-33 -12h-268zM584 358l159 361l-159 360l20 21h268l33 -15l168 -348v-37l-168 -348l-33 -12h-268z" />
<glyph unicode="&#x2c6;" horiz-adv-x="899" d="M82 1524l176 239l35 23h313l35 -23l176 -239l-22 -23h-232l-33 23l-81 110l-80 -110l-33 -23h-232z" />
<glyph unicode="&#x2dc;" horiz-adv-x="878" d="M80 1524v166l22 22h150q19 0 47 8l211 68q27 10 51 10h215l23 -22v-166l-23 -23h-149q-19 0 -47 -8l-211 -68q-27 -10 -52 -10h-215z" />
<glyph unicode="&#x401;" horiz-adv-x="1351" d="M154 23v1357l22 23h1026l23 -23v-262l-23 -22h-727v-211h514l23 -23v-250l-23 -22h-514v-283h731l23 -22v-262l-23 -23h-1030zM293 1524v239l22 23h277l22 -23v-239l-22 -23h-277zM758 1524v239l22 23h277l22 -23v-239l-22 -23h-277z" />
<glyph unicode="&#x402;" horiz-adv-x="1517" d="M51 1128v252l21 23h1054l21 -23v-252l-21 -22h-403v-188q102 12 223 12q246 0 384 -126t138 -343q0 -222 -126 -341.5t-334 -119.5h-80l-23 20v256l23 23h69q68 0 109 40t41 114q0 91 -58.5 139.5t-173.5 48.5q-101 0 -192 -18v-600l-23 -23h-276l-23 23v1083h-329z" />
<glyph unicode="&#x403;" horiz-adv-x="1198" d="M154 23v1357l22 23h950l21 -23v-262l-21 -22h-651v-1073l-22 -23h-277zM465 1524l160 239l30 23h297l21 -23l-219 -247l-35 -15h-234z" />
<glyph unicode="&#x404;" d="M113 469v465q0 101 34 185.5t89 141.5t127.5 97t148 58t150.5 18t150.5 -18t147.5 -58t127.5 -97t89 -141.5t33.5 -185.5v-47l-22 -23h-277l-22 23q0 106 -63.5 172.5t-163.5 66.5q-101 0 -164.5 -66.5t-63.5 -172.5v-29h311l23 -22v-250l-23 -23h-311v-47 q0 -106 64.5 -173t165.5 -67q100 0 162.5 67t62.5 173v21l22 22h277l22 -22v-68q0 -101 -33.5 -185.5t-89 -141.5t-127 -97t-146.5 -58t-150 -18q-76 0 -152 18t-148.5 58t-127.5 97t-89 141.5t-34 185.5z" />
<glyph unicode="&#x405;" horiz-adv-x="1216" d="M57 455l23 22h276l23 -22q0 -85 63.5 -141t171.5 -56q86 0 144.5 36.5t58.5 104.5q0 22 -3.5 40t-15 33t-21 26t-34.5 22.5t-41 18t-55 17t-62.5 16t-76.5 18.5q-73 17 -130 37.5t-112.5 55t-91.5 78t-58 107.5t-22 144q0 102 42.5 184t114 133t162 78t191.5 27 q77 0 149 -16.5t137.5 -53t114.5 -88.5t78 -128t29 -167l-22 -23h-277l-22 23q-2 75 -48 121.5t-147 46.5q-86 0 -133 -35t-47 -96q0 -26 6.5 -45t23 -34t34 -25.5t52 -21.5t63 -19t81.5 -22t94 -26q83 -23 147 -56.5t115.5 -83t79 -120t27.5 -159.5q0 -200 -145.5 -318.5 t-395.5 -118.5q-244 0 -392.5 132t-148.5 354z" />
<glyph unicode="&#x406;" horiz-adv-x="1064" d="M123 23v262l22 22h226v789h-226l-22 22v262l22 23h775l22 -23v-262l-22 -22h-228v-789h228l22 -22v-262l-22 -23h-775z" />
<glyph unicode="&#x407;" horiz-adv-x="1064" d="M123 23v262l22 22h226v789h-226l-22 22v262l22 23h775l22 -23v-262l-22 -22h-228v-789h228l22 -22v-262l-22 -23h-775zM139 1524v239l23 23h276l23 -23v-239l-23 -23h-276zM604 1524v239l23 23h276l23 -23v-239l-23 -23h-276z" />
<glyph unicode="&#x408;" horiz-adv-x="1220" d="M37 442v74l22 23h277l22 -23v-31q0 -92 55.5 -150.5t143.5 -58.5q89 0 144 58t55 151v611h-312l-22 22v262l22 23h611l22 -23v-938q0 -95 -32 -175.5t-84.5 -134t-121 -91.5t-139.5 -55t-141 -17q-71 0 -143 17t-140.5 55t-121.5 91.5t-85 134t-32 175.5z" />
<glyph unicode="&#x409;" horiz-adv-x="2086" d="M51 20v265l23 22h24q83 0 126.5 33.5t63 120t19.5 254.5v665l23 23h925l21 -23v-452h235q128 0 230 -37t166 -101t97.5 -147.5t33.5 -179.5t-33.5 -179t-97.5 -147t-166 -100.5t-230 -36.5h-534l-23 23v1073h-338v-383q0 -126 -10.5 -222.5t-43 -192.5t-86.5 -158.5 t-146 -101t-217 -38.5h-39zM1276 295h258q84 0 133 49.5t49 120.5q0 72 -49 122t-133 50h-258v-342z" />
<glyph unicode="&#x40a;" horiz-adv-x="2068" d="M154 23v1357l22 23h277l22 -23v-506h461v506l22 23h279l20 -23v-452h236q128 0 230 -37t165.5 -101.5t97 -147.5t33.5 -179t-33.5 -179t-97 -147t-165.5 -100.5t-230 -36.5h-535l-22 23v544h-461v-544l-22 -23h-277zM1257 295h259q84 0 133 49.5t49 120.5q0 72 -49 122 t-133 50h-259v-342z" />
<glyph unicode="&#x40b;" horiz-adv-x="1595" d="M51 1128v252l21 23h1054l21 -23v-252l-21 -22h-403v-217q110 18 215 18q88 0 164 -13t145.5 -44.5t118.5 -79.5t78 -122.5t29 -170.5v-454l-23 -23h-276l-23 23v399q0 94 -59 136t-174 42q-119 0 -195 -20v-557l-23 -23h-276l-23 23v1083h-329z" />
<glyph unicode="&#x40c;" horiz-adv-x="1318" d="M154 23v1357l22 23h277l22 -23v-506h180l228 508l32 21h299l15 -23l-293 -657l317 -700l-16 -23h-313l-29 18l-248 549h-172v-544l-22 -23h-277zM489 1524l160 239l31 23h297l20 -23l-219 -247l-35 -15h-233z" />
<glyph unicode="&#x40e;" horiz-adv-x="1290" d="M31 1380l22 23h312l20 -23l274 -606l256 606l21 23h293l22 -23l-573 -1357l-21 -23h-297l-22 23l160 370zM313 1745v22l23 25h205l22 -25v-20q0 -34 24.5 -56t71.5 -22q46 0 71.5 22t25.5 56v20l22 25h205l23 -25v-22q-3 -95 -54 -161t-126 -94t-167 -28q-68 0 -128 16.5 t-108.5 50t-78 89t-31.5 127.5z" />
<glyph unicode="&#x40f;" horiz-adv-x="1388" d="M154 23v1357l22 23h277l22 -23v-1073h438v1073l23 23h278l21 -23v-1357l-21 -23h-366v-227l-23 -23h-262l-22 23v227h-365z" />
<glyph unicode="&#x410;" horiz-adv-x="1314" d="M31 23l405 1357l23 23h397l23 -23l405 -1357l-22 -23h-291l-23 23l-74 264h-442l-74 -264l-22 -23h-283zM514 575h283l-140 510z" />
<glyph unicode="&#x411;" horiz-adv-x="1286" d="M154 23v1357l22 23h932l22 -23v-262l-22 -22h-633v-168h236q128 0 230 -37t165.5 -101.5t97 -147.5t33.5 -179t-33.5 -179t-97 -147t-165.5 -100.5t-230 -36.5h-535zM475 295h258q84 0 133 49.5t49 120.5q0 72 -49 122t-133 50h-258v-342z" />
<glyph unicode="&#x412;" horiz-adv-x="1355" d="M154 23v1357l22 23h561q199 0 327 -103.5t128 -269.5q0 -104 -31.5 -167t-95.5 -113q80 -46 134 -128.5t54 -199.5q0 -195 -132 -308.5t-361 -113.5h-584zM475 295h287q79 0 123.5 45t44.5 111t-44.5 110.5t-123.5 44.5h-287v-311zM475 874h277q58 0 91.5 34t33.5 83 q0 48 -34 82.5t-91 34.5h-277v-234z" />
<glyph unicode="&#x413;" horiz-adv-x="1198" d="M154 23v1357l22 23h950l21 -23v-262l-21 -22h-651v-1073l-22 -23h-277z" />
<glyph unicode="&#x414;" horiz-adv-x="1486" d="M31 -227v512l22 22h127q73 142 100 283.5t27 402.5v387l23 23h887l22 -23v-1073h164l22 -22v-512l-22 -23h-262l-23 23v227h-780v-227l-23 -23h-262zM522 307h396v789h-300v-222q0 -348 -96 -567z" />
<glyph unicode="&#x415;" horiz-adv-x="1351" d="M154 23v1357l22 23h1026l23 -23v-262l-23 -22h-727v-211h514l23 -23v-250l-23 -22h-514v-283h731l23 -22v-262l-23 -23h-1030z" />
<glyph unicode="&#x416;" horiz-adv-x="1959" d="M66 23l311 686l-287 671l14 23h291l33 -21l223 -522h168v520l23 23h276l23 -23v-520h168l223 522l33 21h290l15 -23l-287 -671l311 -686l-16 -23h-307l-29 18l-244 535h-157v-530l-23 -23h-276l-23 23v530h-157l-244 -535l-29 -18h-307z" />
<glyph unicode="&#x417;" horiz-adv-x="1290" d="M92 463l23 22h270l23 -22q0 -100 67 -151.5t174 -51.5q88 0 149.5 40t61.5 124q0 79 -58 117.5t-149 38.5h-168l-22 22v225l22 23h174q77 0 124.5 36.5t47.5 108.5q0 64 -46.5 105t-135.5 41q-95 0 -152 -51.5t-57 -143.5l-22 -22h-271l-22 22q0 222 144 355t378 133 q218 0 360 -118.5t142 -314.5q0 -180 -152 -284q80 -38 130.5 -122t50.5 -179q0 -108 -42 -194t-115 -140.5t-168 -83.5t-204 -29q-158 0 -280.5 53.5t-198 167t-78.5 273.5z" />
<glyph unicode="&#x418;" horiz-adv-x="1421" d="M154 23v1357l22 23h277l22 -23v-831l416 837l31 17h323l23 -23v-1357l-23 -23h-276l-23 23v831l-416 -836l-30 -18h-324z" />
<glyph unicode="&#x419;" horiz-adv-x="1421" d="M154 23v1357l22 23h277l22 -23v-831l416 837l31 17h323l23 -23v-1357l-23 -23h-276l-23 23v831l-416 -836l-30 -18h-324zM365 1745v22l22 25h205l22 -25v-20q0 -34 25 -56t72 -22q46 0 71 22t25 56v20l22 25h205l23 -25v-22q-2 -72 -31.5 -127.5t-78 -89t-108.5 -50 t-128 -16.5t-128 16.5t-108.5 50t-78 89t-31.5 127.5z" />
<glyph unicode="&#x41a;" horiz-adv-x="1318" d="M154 23v1357l22 23h277l22 -23v-506h180l228 508l32 21h299l15 -23l-293 -657l317 -700l-16 -23h-313l-29 18l-248 549h-172v-544l-22 -23h-277z" />
<glyph unicode="&#x41b;" horiz-adv-x="1429" d="M51 20v265l23 22h24q83 0 126.5 33.5t63 120t19.5 254.5v665l23 23h925l21 -23v-1357l-21 -23h-278l-23 23v1073h-338v-383q0 -126 -10.5 -222.5t-43 -192.5t-86.5 -158.5t-146 -101t-217 -38.5h-39z" />
<glyph unicode="&#x41c;" horiz-adv-x="1536" d="M154 23v1357l22 23h330l29 -19l237 -471l234 471l28 19h326l22 -23v-1357l-22 -23h-275l-20 23v903l-166 -314l-22 -22h-224l-22 22l-160 310v-899l-22 -23h-273z" />
<glyph unicode="&#x41d;" horiz-adv-x="1411" d="M154 23v1357l22 23h277l22 -23v-506h461v506l22 23h279l20 -23v-1357l-20 -23h-279l-22 23v544h-461v-544l-22 -23h-277z" />
<glyph unicode="&#x41e;" horiz-adv-x="1323" d="M113 467v467q0 101 33.5 185.5t89 141.5t127 97t146.5 58t150 18t151 -18t148.5 -58t128 -97t89.5 -141.5t34 -185.5v-467q0 -100 -34 -184t-89.5 -141t-127.5 -97t-147 -58t-150 -18t-150.5 18t-148 58t-127.5 97t-89 141t-34 184zM434 516q0 -106 64 -173t164 -67 q101 0 164 67t63 173v371q0 104 -64.5 171.5t-165.5 67.5q-99 0 -162 -67t-63 -172v-371z" />
<glyph unicode="&#x41f;" horiz-adv-x="1400" d="M154 23v1357l22 23h1051l20 -23v-1357l-20 -23h-279l-22 23v1073h-451v-1073l-22 -23h-277z" />
<glyph unicode="&#x420;" horiz-adv-x="1286" d="M154 23v1357l22 23h535q128 0 230 -36.5t165.5 -100.5t97 -147t33.5 -179t-33.5 -179t-97 -147.5t-165.5 -101.5t-230 -37h-236v-452l-22 -23h-277zM475 766h258q84 0 133 50t49 122q0 71 -49 120.5t-133 49.5h-258v-342z" />
<glyph unicode="&#x421;" d="M113 469v465q0 101 34 185.5t89 141.5t127.5 97t148 58t150.5 18t150.5 -18t147.5 -58t127.5 -97t89 -141.5t33.5 -185.5v-47l-22 -23h-277l-22 23q0 106 -63.5 172.5t-163.5 66.5q-101 0 -164.5 -66.5t-63.5 -172.5v-371q0 -106 64.5 -173t165.5 -67q100 0 162.5 67 t62.5 173v21l22 22h277l22 -22v-68q0 -101 -33.5 -185.5t-89 -141.5t-127 -97t-146.5 -58t-150 -18q-76 0 -152 18t-148.5 58t-127.5 97t-89 141.5t-34 185.5z" />
<glyph unicode="&#x422;" horiz-adv-x="1200" d="M51 1118v262l23 23h1052l23 -23v-262l-23 -22h-366v-1073l-23 -23h-276l-23 23v1073h-364z" />
<glyph unicode="&#x423;" horiz-adv-x="1290" d="M31 1380l22 23h312l20 -23l279 -610l254 610l20 23h289l22 -23l-573 -1357l-21 -23h-293l-22 23l160 370z" />
<glyph unicode="&#x424;" horiz-adv-x="1697" d="M90 641v150q0 96 33.5 179t97 146.5t165.5 100t230 36.5h72v148l23 22h276l23 -22v-148h71q128 0 230 -36.5t166 -100t97.5 -146.5t33.5 -179v-150q0 -96 -33.5 -179t-97.5 -147t-166 -100.5t-230 -36.5h-71v-166l-23 -22h-276l-23 22v166h-72q-128 0 -230 36.5 t-165.5 100.5t-97 147t-33.5 179zM412 643q0 -71 49 -120.5t133 -49.5h94v485h-94q-84 0 -133 -49.5t-49 -120.5v-145zM1010 473h94q84 0 133 49.5t49 120.5v145q0 71 -49 120.5t-133 49.5h-94v-485z" />
<glyph unicode="&#x425;" horiz-adv-x="1280" d="M51 23l395 698l-385 659l13 23h313l31 -19l231 -413l228 413l30 19h301l15 -23l-383 -657l389 -700l-15 -23h-315l-31 18l-229 422l-240 -422l-30 -18h-306z" />
<glyph unicode="&#x426;" horiz-adv-x="1482" d="M154 23v1357l22 23h277l22 -23v-1073h438v1073l23 23h278l21 -23v-1073h164l22 -22v-512l-22 -23h-262l-23 23v227h-938z" />
<glyph unicode="&#x427;" horiz-adv-x="1333" d="M123 899v481l22 23h277l22 -23v-426q0 -94 57 -136t171 -42q106 0 186 21v583l23 23h276l23 -23v-1357l-23 -23h-276l-23 23v464q-110 -18 -207 -18q-88 0 -163 13t-143.5 44t-116.5 79.5t-76.5 123t-28.5 170.5z" />
<glyph unicode="&#x428;" horiz-adv-x="2004" d="M154 23v1357l22 23h277l22 -23v-1073h367v1073l22 23h277l22 -23v-1073h367v1073l22 23h279l20 -23v-1357l-20 -23h-1655z" />
<glyph unicode="&#x429;" horiz-adv-x="2099" d="M154 23v1357l22 23h277l22 -23v-1073h367v1073l22 23h277l22 -23v-1073h367v1073l22 23h279l20 -23v-1073h164l23 -22v-512l-23 -23h-262l-22 23v227h-1555z" />
<glyph unicode="&#x42a;" horiz-adv-x="1533" d="M51 1118v262l23 23h626l23 -23v-452h235q128 0 230 -37t166 -101t97.5 -147.5t33.5 -179.5t-33.5 -179t-97.5 -147t-166 -100.5t-230 -36.5h-534l-23 23v1073h-327zM723 295h258q84 0 133 49.5t49 120.5q0 72 -49 122t-133 50h-258v-342z" />
<glyph unicode="&#x42b;" horiz-adv-x="1818" d="M154 23v1357l22 23h277l22 -23v-452h195q128 0 230 -37t165.5 -101.5t97 -147.5t33.5 -179t-33.5 -179t-97 -147t-165.5 -100.5t-230 -36.5h-494zM475 295h217q84 0 133 49.5t49 120.5q0 72 -49 122t-133 50h-217v-342zM1343 23v1357l23 23h276l23 -23v-1357l-23 -23 h-276z" />
<glyph unicode="&#x42c;" horiz-adv-x="1286" d="M154 23v1357l22 23h277l22 -23v-452h236q128 0 230 -37t165.5 -101.5t97 -147.5t33.5 -179t-33.5 -179t-97 -147t-165.5 -100.5t-230 -36.5h-535zM475 295h258q84 0 133 49.5t49 120.5q0 72 -49 122t-133 50h-258v-342z" />
<glyph unicode="&#x42d;" d="M92 469v68l23 22h276l23 -22v-21q0 -106 62.5 -173t162.5 -67q101 0 165 67t64 173v47h-311l-22 23v250l22 22h311v29q0 106 -63 172.5t-164 66.5q-100 0 -163.5 -66.5t-63.5 -172.5l-23 -23h-276l-23 23v47q0 101 34 185.5t89 141.5t127.5 97t148 58t150.5 18t150.5 -18 t148 -58t127.5 -97t89 -141.5t34 -185.5v-465q0 -101 -34 -185.5t-89 -141.5t-127.5 -97t-148.5 -58t-152 -18q-75 0 -150 18t-147 58t-127.5 97t-89 141.5t-33.5 185.5z" />
<glyph unicode="&#x42e;" horiz-adv-x="1898" d="M154 23v1357l22 23h277l22 -23v-506h213v60q0 101 33.5 185.5t89 141.5t127.5 97t147 58t150 18t151 -18t148.5 -58t128 -97t89.5 -141.5t34 -185.5v-467q0 -100 -34 -184t-89.5 -141t-128 -97t-147.5 -58t-150 -18t-150.5 18t-148 58t-127.5 97t-89 141t-34 184v100 h-213v-544l-22 -23h-277zM1010 516q0 -106 63.5 -173t163.5 -67q101 0 164 67t63 173v371q0 105 -64 172t-165 67q-99 0 -162 -67t-63 -172v-371z" />
<glyph unicode="&#x42f;" horiz-adv-x="1374" d="M109 23l210 538q-194 125 -194 377q0 97 33.5 180t97 147.5t165.5 101t230 36.5h547l23 -23v-1357l-23 -23h-276l-23 23v452h-276l-170 -455l-31 -20h-297zM446 938q0 -71 50 -121.5t135 -50.5h268v342h-268q-86 0 -135.5 -49.5t-49.5 -120.5z" />
<glyph unicode="&#x430;" horiz-adv-x="1314" d="M31 23l405 1357l23 23h397l23 -23l405 -1357l-22 -23h-291l-23 23l-74 264h-442l-74 -264l-22 -23h-283zM514 575h283l-140 510z" />
<glyph unicode="&#x431;" horiz-adv-x="1286" d="M154 23v1357l22 23h932l22 -23v-262l-22 -22h-633v-168h236q128 0 230 -37t165.5 -101.5t97 -147.5t33.5 -179t-33.5 -179t-97 -147t-165.5 -100.5t-230 -36.5h-535zM475 295h258q84 0 133 49.5t49 120.5q0 72 -49 122t-133 50h-258v-342z" />
<glyph unicode="&#x432;" horiz-adv-x="1355" d="M154 23v1357l22 23h561q199 0 327 -103.5t128 -269.5q0 -104 -31.5 -167t-95.5 -113q80 -46 134 -128.5t54 -199.5q0 -195 -132 -308.5t-361 -113.5h-584zM475 295h287q79 0 123.5 45t44.5 111t-44.5 110.5t-123.5 44.5h-287v-311zM475 874h277q58 0 91.5 34t33.5 83 q0 48 -34 82.5t-91 34.5h-277v-234z" />
<glyph unicode="&#x433;" horiz-adv-x="1198" d="M154 23v1357l22 23h950l21 -23v-262l-21 -22h-651v-1073l-22 -23h-277z" />
<glyph unicode="&#x434;" horiz-adv-x="1486" d="M31 -227v512l22 22h127q73 142 100 283.5t27 402.5v387l23 23h887l22 -23v-1073h164l22 -22v-512l-22 -23h-262l-23 23v227h-780v-227l-23 -23h-262zM522 307h396v789h-300v-222q0 -348 -96 -567z" />
<glyph unicode="&#x435;" horiz-adv-x="1351" d="M154 23v1357l22 23h1026l23 -23v-262l-23 -22h-727v-211h514l23 -23v-250l-23 -22h-514v-283h731l23 -22v-262l-23 -23h-1030z" />
<glyph unicode="&#x436;" horiz-adv-x="1959" d="M66 23l311 686l-287 671l14 23h291l33 -21l223 -522h168v520l23 23h276l23 -23v-520h168l223 522l33 21h290l15 -23l-287 -671l311 -686l-16 -23h-307l-29 18l-244 535h-157v-530l-23 -23h-276l-23 23v530h-157l-244 -535l-29 -18h-307z" />
<glyph unicode="&#x437;" horiz-adv-x="1290" d="M92 463l23 22h270l23 -22q0 -100 67 -151.5t174 -51.5q88 0 149.5 40t61.5 124q0 79 -58 117.5t-149 38.5h-168l-22 22v225l22 23h174q77 0 124.5 36.5t47.5 108.5q0 64 -46.5 105t-135.5 41q-95 0 -152 -51.5t-57 -143.5l-22 -22h-271l-22 22q0 222 144 355t378 133 q218 0 360 -118.5t142 -314.5q0 -180 -152 -284q80 -38 130.5 -122t50.5 -179q0 -108 -42 -194t-115 -140.5t-168 -83.5t-204 -29q-158 0 -280.5 53.5t-198 167t-78.5 273.5z" />
<glyph unicode="&#x438;" horiz-adv-x="1421" d="M154 23v1357l22 23h277l22 -23v-831l416 837l31 17h323l23 -23v-1357l-23 -23h-276l-23 23v831l-416 -836l-30 -18h-324z" />
<glyph unicode="&#x439;" horiz-adv-x="1421" d="M154 23v1357l22 23h277l22 -23v-831l416 837l31 17h323l23 -23v-1357l-23 -23h-276l-23 23v831l-416 -836l-30 -18h-324zM365 1745v22l22 25h205l22 -25v-20q0 -34 25 -56t72 -22q46 0 71 22t25 56v20l22 25h205l23 -25v-22q-2 -72 -31.5 -127.5t-78 -89t-108.5 -50 t-128 -16.5t-128 16.5t-108.5 50t-78 89t-31.5 127.5z" />
<glyph unicode="&#x43a;" horiz-adv-x="1318" d="M154 23v1357l22 23h277l22 -23v-506h180l228 508l32 21h299l15 -23l-293 -657l317 -700l-16 -23h-313l-29 18l-248 549h-172v-544l-22 -23h-277z" />
<glyph unicode="&#x43b;" horiz-adv-x="1429" d="M51 20v265l23 22h24q83 0 126.5 33.5t63 120t19.5 254.5v665l23 23h925l21 -23v-1357l-21 -23h-278l-23 23v1073h-338v-383q0 -126 -10.5 -222.5t-43 -192.5t-86.5 -158.5t-146 -101t-217 -38.5h-39z" />
<glyph unicode="&#x43c;" horiz-adv-x="1536" d="M154 23v1357l22 23h330l29 -19l237 -471l234 471l28 19h326l22 -23v-1357l-22 -23h-275l-20 23v903l-166 -314l-22 -22h-224l-22 22l-160 310v-899l-22 -23h-273z" />
<glyph unicode="&#x43d;" horiz-adv-x="1411" d="M154 23v1357l22 23h277l22 -23v-506h461v506l22 23h279l20 -23v-1357l-20 -23h-279l-22 23v544h-461v-544l-22 -23h-277z" />
<glyph unicode="&#x43e;" horiz-adv-x="1323" d="M113 467v467q0 101 33.5 185.5t89 141.5t127 97t146.5 58t150 18t151 -18t148.5 -58t128 -97t89.5 -141.5t34 -185.5v-467q0 -100 -34 -184t-89.5 -141t-127.5 -97t-147 -58t-150 -18t-150.5 18t-148 58t-127.5 97t-89 141t-34 184zM434 516q0 -106 64 -173t164 -67 q101 0 164 67t63 173v371q0 104 -64.5 171.5t-165.5 67.5q-99 0 -162 -67t-63 -172v-371z" />
<glyph unicode="&#x43f;" horiz-adv-x="1400" d="M154 23v1357l22 23h1051l20 -23v-1357l-20 -23h-279l-22 23v1073h-451v-1073l-22 -23h-277z" />
<glyph unicode="&#x440;" horiz-adv-x="1286" d="M154 23v1357l22 23h535q128 0 230 -36.5t165.5 -100.5t97 -147t33.5 -179t-33.5 -179t-97 -147.5t-165.5 -101.5t-230 -37h-236v-452l-22 -23h-277zM475 766h258q84 0 133 50t49 122q0 71 -49 120.5t-133 49.5h-258v-342z" />
<glyph unicode="&#x441;" d="M113 469v465q0 101 34 185.5t89 141.5t127.5 97t148 58t150.5 18t150.5 -18t147.5 -58t127.5 -97t89 -141.5t33.5 -185.5v-47l-22 -23h-277l-22 23q0 106 -63.5 172.5t-163.5 66.5q-101 0 -164.5 -66.5t-63.5 -172.5v-371q0 -106 64.5 -173t165.5 -67q100 0 162.5 67 t62.5 173v21l22 22h277l22 -22v-68q0 -101 -33.5 -185.5t-89 -141.5t-127 -97t-146.5 -58t-150 -18q-76 0 -152 18t-148.5 58t-127.5 97t-89 141.5t-34 185.5z" />
<glyph unicode="&#x442;" horiz-adv-x="1200" d="M51 1118v262l23 23h1052l23 -23v-262l-23 -22h-366v-1073l-23 -23h-276l-23 23v1073h-364z" />
<glyph unicode="&#x443;" horiz-adv-x="1290" d="M31 1380l22 23h312l20 -23l279 -610l254 610l20 23h289l22 -23l-573 -1357l-21 -23h-293l-22 23l160 370z" />
<glyph unicode="&#x444;" horiz-adv-x="1697" d="M90 641v150q0 96 33.5 179t97 146.5t165.5 100t230 36.5h72v148l23 22h276l23 -22v-148h71q128 0 230 -36.5t166 -100t97.5 -146.5t33.5 -179v-150q0 -96 -33.5 -179t-97.5 -147t-166 -100.5t-230 -36.5h-71v-166l-23 -22h-276l-23 22v166h-72q-128 0 -230 36.5 t-165.5 100.5t-97 147t-33.5 179zM412 643q0 -71 49 -120.5t133 -49.5h94v485h-94q-84 0 -133 -49.5t-49 -120.5v-145zM1010 473h94q84 0 133 49.5t49 120.5v145q0 71 -49 120.5t-133 49.5h-94v-485z" />
<glyph unicode="&#x445;" horiz-adv-x="1280" d="M51 23l395 698l-385 659l13 23h313l31 -19l231 -413l228 413l30 19h301l15 -23l-383 -657l389 -700l-15 -23h-315l-31 18l-229 422l-240 -422l-30 -18h-306z" />
<glyph unicode="&#x446;" horiz-adv-x="1482" d="M154 23v1357l22 23h277l22 -23v-1073h438v1073l23 23h278l21 -23v-1073h164l22 -22v-512l-22 -23h-262l-23 23v227h-938z" />
<glyph unicode="&#x447;" horiz-adv-x="1333" d="M123 899v481l22 23h277l22 -23v-426q0 -94 57 -136t171 -42q106 0 186 21v583l23 23h276l23 -23v-1357l-23 -23h-276l-23 23v464q-110 -18 -207 -18q-88 0 -163 13t-143.5 44t-116.5 79.5t-76.5 123t-28.5 170.5z" />
<glyph unicode="&#x448;" horiz-adv-x="2004" d="M154 23v1357l22 23h277l22 -23v-1073h367v1073l22 23h277l22 -23v-1073h367v1073l22 23h279l20 -23v-1357l-20 -23h-1655z" />
<glyph unicode="&#x449;" horiz-adv-x="2099" d="M154 23v1357l22 23h277l22 -23v-1073h367v1073l22 23h277l22 -23v-1073h367v1073l22 23h279l20 -23v-1073h164l23 -22v-512l-23 -23h-262l-22 23v227h-1555z" />
<glyph unicode="&#x44a;" horiz-adv-x="1533" d="M51 1118v262l23 23h626l23 -23v-452h235q128 0 230 -37t166 -101t97.5 -147.5t33.5 -179.5t-33.5 -179t-97.5 -147t-166 -100.5t-230 -36.5h-534l-23 23v1073h-327zM723 295h258q84 0 133 49.5t49 120.5q0 72 -49 122t-133 50h-258v-342z" />
<glyph unicode="&#x44b;" horiz-adv-x="1818" d="M154 23v1357l22 23h277l22 -23v-452h195q128 0 230 -37t165.5 -101.5t97 -147.5t33.5 -179t-33.5 -179t-97 -147t-165.5 -100.5t-230 -36.5h-494zM475 295h217q84 0 133 49.5t49 120.5q0 72 -49 122t-133 50h-217v-342zM1343 23v1357l23 23h276l23 -23v-1357l-23 -23 h-276z" />
<glyph unicode="&#x44c;" horiz-adv-x="1286" d="M154 23v1357l22 23h277l22 -23v-452h236q128 0 230 -37t165.5 -101.5t97 -147.5t33.5 -179t-33.5 -179t-97 -147t-165.5 -100.5t-230 -36.5h-535zM475 295h258q84 0 133 49.5t49 120.5q0 72 -49 122t-133 50h-258v-342z" />
<glyph unicode="&#x44d;" d="M92 469v68l23 22h276l23 -22v-21q0 -106 62.5 -173t162.5 -67q101 0 165 67t64 173v47h-311l-22 23v250l22 22h311v29q0 106 -63 172.5t-164 66.5q-100 0 -163.5 -66.5t-63.5 -172.5l-23 -23h-276l-23 23v47q0 101 34 185.5t89 141.5t127.5 97t148 58t150.5 18t150.5 -18 t148 -58t127.5 -97t89 -141.5t34 -185.5v-465q0 -101 -34 -185.5t-89 -141.5t-127.5 -97t-148.5 -58t-152 -18q-75 0 -150 18t-147 58t-127.5 97t-89 141.5t-33.5 185.5z" />
<glyph unicode="&#x44e;" horiz-adv-x="1898" d="M154 23v1357l22 23h277l22 -23v-506h213v60q0 101 33.5 185.5t89 141.5t127.5 97t147 58t150 18t151 -18t148.5 -58t128 -97t89.5 -141.5t34 -185.5v-467q0 -100 -34 -184t-89.5 -141t-128 -97t-147.5 -58t-150 -18t-150.5 18t-148 58t-127.5 97t-89 141t-34 184v100 h-213v-544l-22 -23h-277zM1010 516q0 -106 63.5 -173t163.5 -67q101 0 164 67t63 173v371q0 105 -64 172t-165 67q-99 0 -162 -67t-63 -172v-371z" />
<glyph unicode="&#x44f;" horiz-adv-x="1374" d="M109 23l210 538q-194 125 -194 377q0 97 33.5 180t97 147.5t165.5 101t230 36.5h547l23 -23v-1357l-23 -23h-276l-23 23v452h-276l-170 -455l-31 -20h-297zM446 938q0 -71 50 -121.5t135 -50.5h268v342h-268q-86 0 -135.5 -49.5t-49.5 -120.5z" />
<glyph unicode="&#x451;" horiz-adv-x="1351" d="M154 23v1357l22 23h1026l23 -23v-262l-23 -22h-727v-211h514l23 -23v-250l-23 -22h-514v-283h731l23 -22v-262l-23 -23h-1030zM293 1524v239l22 23h277l22 -23v-239l-22 -23h-277zM758 1524v239l22 23h277l22 -23v-239l-22 -23h-277z" />
<glyph unicode="&#x452;" horiz-adv-x="1517" d="M51 1128v252l21 23h1054l21 -23v-252l-21 -22h-403v-188q102 12 223 12q246 0 384 -126t138 -343q0 -222 -126 -341.5t-334 -119.5h-80l-23 20v256l23 23h69q68 0 109 40t41 114q0 91 -58.5 139.5t-173.5 48.5q-101 0 -192 -18v-600l-23 -23h-276l-23 23v1083h-329z" />
<glyph unicode="&#x453;" horiz-adv-x="1198" d="M154 23v1357l22 23h950l21 -23v-262l-21 -22h-651v-1073l-22 -23h-277zM465 1524l160 239l30 23h297l21 -23l-219 -247l-35 -15h-234z" />
<glyph unicode="&#x454;" d="M113 469v465q0 101 34 185.5t89 141.5t127.5 97t148 58t150.5 18t150.5 -18t147.5 -58t127.5 -97t89 -141.5t33.5 -185.5v-47l-22 -23h-277l-22 23q0 106 -63.5 172.5t-163.5 66.5q-101 0 -164.5 -66.5t-63.5 -172.5v-29h311l23 -22v-250l-23 -23h-311v-47 q0 -106 64.5 -173t165.5 -67q100 0 162.5 67t62.5 173v21l22 22h277l22 -22v-68q0 -101 -33.5 -185.5t-89 -141.5t-127 -97t-146.5 -58t-150 -18q-76 0 -152 18t-148.5 58t-127.5 97t-89 141.5t-34 185.5z" />
<glyph unicode="&#x455;" horiz-adv-x="1216" d="M57 455l23 22h276l23 -22q0 -85 63.5 -141t171.5 -56q86 0 144.5 36.5t58.5 104.5q0 22 -3.5 40t-15 33t-21 26t-34.5 22.5t-41 18t-55 17t-62.5 16t-76.5 18.5q-73 17 -130 37.5t-112.5 55t-91.5 78t-58 107.5t-22 144q0 102 42.5 184t114 133t162 78t191.5 27 q77 0 149 -16.5t137.5 -53t114.5 -88.5t78 -128t29 -167l-22 -23h-277l-22 23q-2 75 -48 121.5t-147 46.5q-86 0 -133 -35t-47 -96q0 -26 6.5 -45t23 -34t34 -25.5t52 -21.5t63 -19t81.5 -22t94 -26q83 -23 147 -56.5t115.5 -83t79 -120t27.5 -159.5q0 -200 -145.5 -318.5 t-395.5 -118.5q-244 0 -392.5 132t-148.5 354z" />
<glyph unicode="&#x456;" horiz-adv-x="1064" d="M123 23v262l22 22h226v789h-226l-22 22v262l22 23h775l22 -23v-262l-22 -22h-228v-789h228l22 -22v-262l-22 -23h-775z" />
<glyph unicode="&#x457;" horiz-adv-x="1064" d="M123 23v262l22 22h226v789h-226l-22 22v262l22 23h775l22 -23v-262l-22 -22h-228v-789h228l22 -22v-262l-22 -23h-775zM139 1524v239l23 23h276l23 -23v-239l-23 -23h-276zM604 1524v239l23 23h276l23 -23v-239l-23 -23h-276z" />
<glyph unicode="&#x458;" horiz-adv-x="1220" d="M37 442v74l22 23h277l22 -23v-31q0 -92 55.5 -150.5t143.5 -58.5q89 0 144 58t55 151v611h-312l-22 22v262l22 23h611l22 -23v-938q0 -95 -32 -175.5t-84.5 -134t-121 -91.5t-139.5 -55t-141 -17q-71 0 -143 17t-140.5 55t-121.5 91.5t-85 134t-32 175.5z" />
<glyph unicode="&#x459;" horiz-adv-x="2086" d="M51 20v265l23 22h24q83 0 126.5 33.5t63 120t19.5 254.5v665l23 23h925l21 -23v-452h235q128 0 230 -37t166 -101t97.5 -147.5t33.5 -179.5t-33.5 -179t-97.5 -147t-166 -100.5t-230 -36.5h-534l-23 23v1073h-338v-383q0 -126 -10.5 -222.5t-43 -192.5t-86.5 -158.5 t-146 -101t-217 -38.5h-39zM1276 295h258q84 0 133 49.5t49 120.5q0 72 -49 122t-133 50h-258v-342z" />
<glyph unicode="&#x45a;" horiz-adv-x="2068" d="M154 23v1357l22 23h277l22 -23v-506h461v506l22 23h279l20 -23v-452h236q128 0 230 -37t165.5 -101.5t97 -147.5t33.5 -179t-33.5 -179t-97 -147t-165.5 -100.5t-230 -36.5h-535l-22 23v544h-461v-544l-22 -23h-277zM1257 295h259q84 0 133 49.5t49 120.5q0 72 -49 122 t-133 50h-259v-342z" />
<glyph unicode="&#x45b;" horiz-adv-x="1595" d="M51 1128v252l21 23h1054l21 -23v-252l-21 -22h-403v-217q110 18 215 18q88 0 164 -13t145.5 -44.5t118.5 -79.5t78 -122.5t29 -170.5v-454l-23 -23h-276l-23 23v399q0 94 -59 136t-174 42q-119 0 -195 -20v-557l-23 -23h-276l-23 23v1083h-329z" />
<glyph unicode="&#x45c;" horiz-adv-x="1318" d="M154 23v1357l22 23h277l22 -23v-506h180l228 508l32 21h299l15 -23l-293 -657l317 -700l-16 -23h-313l-29 18l-248 549h-172v-544l-22 -23h-277zM489 1524l160 239l31 23h297l20 -23l-219 -247l-35 -15h-233z" />
<glyph unicode="&#x45e;" horiz-adv-x="1290" d="M31 1380l22 23h312l20 -23l274 -606l256 606l21 23h293l22 -23l-573 -1357l-21 -23h-297l-22 23l160 370zM313 1745v22l23 25h205l22 -25v-20q0 -34 24.5 -56t71.5 -22q46 0 71.5 22t25.5 56v20l22 25h205l23 -25v-22q-3 -95 -54 -161t-126 -94t-167 -28q-68 0 -128 16.5 t-108.5 50t-78 89t-31.5 127.5z" />
<glyph unicode="&#x45f;" horiz-adv-x="1388" d="M154 23v1357l22 23h277l22 -23v-1073h438v1073l23 23h278l21 -23v-1357l-21 -23h-366v-227l-23 -23h-262l-22 23v227h-365z" />
<glyph unicode="&#x490;" horiz-adv-x="1175" d="M154 23v1357l22 23h641v227l23 23h262l22 -23v-512l-20 -22h-629v-1073l-22 -23h-277z" />
<glyph unicode="&#x491;" horiz-adv-x="1175" d="M154 23v1357l22 23h641v227l23 23h262l22 -23v-512l-20 -22h-629v-1073l-22 -23h-277z" />
<glyph unicode="&#x2000;" horiz-adv-x="899" />
<glyph unicode="&#x2001;" horiz-adv-x="1798" />
<glyph unicode="&#x2002;" horiz-adv-x="899" />
<glyph unicode="&#x2003;" horiz-adv-x="1798" />
<glyph unicode="&#x2004;" horiz-adv-x="599" />
<glyph unicode="&#x2005;" horiz-adv-x="449" />
<glyph unicode="&#x2006;" horiz-adv-x="299" />
<glyph unicode="&#x2007;" horiz-adv-x="299" />
<glyph unicode="&#x2008;" horiz-adv-x="224" />
<glyph unicode="&#x2009;" horiz-adv-x="359" />
<glyph unicode="&#x200a;" horiz-adv-x="99" />
<glyph unicode="&#x2010;" horiz-adv-x="1159" d="M143 612v215l23 23h827l23 -23v-215l-23 -22h-827z" />
<glyph unicode="&#x2011;" horiz-adv-x="1159" d="M143 612v215l23 23h827l23 -23v-215l-23 -22h-827z" />
<glyph unicode="&#x2012;" horiz-adv-x="1159" d="M143 612v215l23 23h827l23 -23v-215l-23 -22h-827z" />
<glyph unicode="&#x2013;" horiz-adv-x="1470" d="M143 612v215l23 23h1139l22 -23v-215l-22 -22h-1139z" />
<glyph unicode="&#x2014;" horiz-adv-x="1792" d="M143 612v215l23 23h1460l23 -23v-215l-23 -22h-1460z" />
<glyph unicode="&#x2018;" horiz-adv-x="628" d="M143 825v305l144 250l22 23h150l22 -23l-141 -256h123l22 -22v-277l-20 -22h-299z" />
<glyph unicode="&#x2019;" horiz-adv-x="628" d="M143 1104v276l21 23h299l22 -23v-305l-143 -250l-23 -22h-149l-23 22l142 256h-123z" />
<glyph unicode="&#x201a;" horiz-adv-x="628" d="M143 23v276l21 23h299l22 -23v-305l-143 -250l-23 -23h-149l-23 23l142 256h-123z" />
<glyph unicode="&#x201c;" horiz-adv-x="1097" d="M143 825v305l144 250l22 23h150l22 -23l-141 -256h123l22 -22v-277l-20 -22h-299zM612 825v305l144 250l22 23h150l22 -23l-141 -256h123l22 -22v-277l-20 -22h-299z" />
<glyph unicode="&#x201d;" horiz-adv-x="1097" d="M143 1104v276l21 23h299l22 -23v-305l-143 -250l-23 -22h-149l-23 22l142 256h-123zM612 1104v276l21 23h299l22 -23v-305l-143 -250l-23 -22h-149l-23 22l142 256h-123z" />
<glyph unicode="&#x201e;" horiz-adv-x="1097" d="M143 23v276l21 23h299l22 -23v-305l-143 -250l-23 -23h-149l-23 23l142 256h-123zM612 23v276l21 23h299l22 -23v-305l-143 -250l-23 -23h-149l-23 23l142 256h-123z" />
<glyph unicode="&#x2022;" horiz-adv-x="751" d="M143 727q0 92 69 157.5t163 65.5q97 -1 165 -68t68 -159q0 -96 -68.5 -163.5t-166.5 -67.5q-93 0 -161.5 69t-68.5 166z" />
<glyph unicode="&#x2026;" horiz-adv-x="1632" d="M143 23v276l21 23h299l22 -23v-276l-20 -23h-299zM645 23v276l21 23h299l22 -23v-276l-20 -23h-299zM1147 23v276l20 23h299l23 -23v-276l-21 -23h-299z" />
<glyph unicode="&#x202f;" horiz-adv-x="359" />
<glyph unicode="&#x2039;" horiz-adv-x="718" d="M115 700v37l168 348l32 15h269l20 -21l-160 -360l160 -361l-20 -18h-269l-32 12z" />
<glyph unicode="&#x203a;" horiz-adv-x="718" d="M115 358l159 361l-159 360l20 21h268l33 -15l168 -348v-37l-168 -348l-33 -12h-268z" />
<glyph unicode="&#x205f;" horiz-adv-x="449" />
<glyph unicode="&#x20ac;" horiz-adv-x="1390" d="M41 514v139l18 19h142v96h-142l-18 18v138l18 20h142q2 98 36.5 181t89.5 139t127 95t146.5 57t149.5 18t150.5 -18t147.5 -58t127.5 -97t89 -141.5t33.5 -185.5v-47l-22 -23h-277l-22 23q0 106 -63.5 172.5t-163.5 66.5q-87 0 -147 -49.5t-77 -132.5h248l21 -20v-138 l-21 -18h-252v-96h252l21 -19v-139l-21 -18h-252q8 -99 71 -159.5t159 -60.5q100 0 162.5 67t62.5 173v21l22 22h277l22 -22v-68q0 -101 -33.5 -185.5t-89 -141.5t-127 -97t-146.5 -58t-150 -18q-76 0 -152 18t-148.5 58t-127.5 97t-89 141.5t-34 185.5v27h-142z" />
<glyph unicode="&#x2122;" horiz-adv-x="1259" d="M82 1282v111l10 10h447l8 -10v-111l-8 -10h-156v-455l-10 -8h-117l-10 8v455h-154zM637 817v576l10 10h144l12 -8l96 -238l96 238l13 8h141l8 -10v-576l-8 -8h-117l-8 8v367l-72 -164l-8 -10h-96l-8 10l-68 162v-365l-10 -8h-115z" />
<glyph unicode="&#x25fc;" horiz-adv-x="1402" d="M0 0v1403h1403v-1403h-1403z" />
</font>
</defs>
</svg>
