<svg xmlns="http://www.w3.org/2000/svg" width="111" height="111" viewBox="0 0 111 111"><g><g><path fill="#ff5247" d="M7.267 37.96L37.96 7.266c9.686-9.686 25.392-9.686 35.078 0l30.694 30.694c9.687 9.687 9.687 25.393 0 35.08L73.04 103.732c-9.686 9.687-25.392 9.687-35.078 0L7.267 73.04c-9.687-9.686-9.687-25.392 0-35.079z"/></g><g><path fill="#fff" d="M60.403 79.958A3.233 3.233 0 0 1 57.38 82h-3.757a3.233 3.233 0 0 1-3.023-2.042 1.038 1.038 0 0 1 .572-1.346 1.027 1.027 0 0 1 1.337.576c.176.443.624.742 1.114.742h3.757c.49 0 .937-.299 1.114-.742.211-.53.81-.788 1.337-.576.528.213.784.816.572 1.346zm10.52-2.557l-2.202 2.833a4.575 4.575 0 0 1-5.885 1.149c-1.96-1.14-2.8-3.592-1.954-5.705l1.336-3.336a5.095 5.095 0 0 1 2.267-2.569v-2.325c0-.281-.227-.51-.506-.51H47.024a.508.508 0 0 0-.506.51v2.182h9.498c.568 0 1.028.463 1.028 1.035 0 .572-.46 1.035-1.028 1.035h-7.543c.117.206.223.42.312.642l1.336 3.336c.846 2.113.006 4.566-1.954 5.705a4.573 4.573 0 0 1-5.885-1.149l-2.202-2.833a5.133 5.133 0 0 1-.986-4.121 5.106 5.106 0 0 1 2.435-3.446c-.23-.19-.447-.4-.645-.63a5.175 5.175 0 0 1-1.183-4.131 13.071 13.071 0 0 1 2.953-6.524 13.006 13.006 0 0 1 4.238-3.292 11.878 11.878 0 0 1-3.194-8.118c0-6.451 5.135-11.718 11.507-11.877l.075-.003c.648 0 1.257-.254 1.715-.716.458-.461.71-1.074.71-1.726 0-.964-.778-1.747-1.735-1.747-.36 0-.68.103-.9.29a.767.767 0 0 0-.282.61c0 .573-.46 1.036-1.029 1.036a1.032 1.032 0 0 1-1.028-1.035c0-.86.36-1.64 1.013-2.193.592-.502 1.382-.778 2.226-.778 2.091 0 3.793 1.712 3.793 3.817 0 1.069-.368 2.081-1.042 2.891 4.948 1.414 8.583 6.003 8.583 11.431 0 3.136-1.214 5.992-3.193 8.118a13.01 13.01 0 0 1 4.238 3.292 13.07 13.07 0 0 1 2.953 6.524 5.175 5.175 0 0 1-1.828 4.761 5.132 5.132 0 0 1 1.45 7.567zM55.501 56.95c5.375 0 9.747-4.4 9.747-9.81s-4.373-9.81-9.747-9.81c-5.373 0-9.746 4.4-9.746 9.81s4.372 9.81 9.746 9.81zm-10.44 14.43a3.003 3.003 0 0 0-2.493.242 3.052 3.052 0 0 0-.868 4.505l2.202 2.832a2.515 2.515 0 0 0 3.237.632 2.55 2.55 0 0 0 1.075-3.137l-1.336-3.336a3.027 3.027 0 0 0-1.817-1.738zm19.953-7.546v1.256a2.584 2.584 0 0 1 1.528 2.359v1.462a3.056 3.056 0 0 0 2.018-1.057 3.096 3.096 0 0 0 .708-2.472c-.589-3.939-3.198-7.194-6.861-8.613a11.688 11.688 0 0 1-6.906 2.251c-2.576 0-4.962-.836-6.905-2.251-3.663 1.42-6.272 4.674-6.86 8.613-.134.89.124 1.79.707 2.472a3.056 3.056 0 0 0 2.018 1.057v-1.462c0-1.055.632-1.963 1.534-2.363v-1.252c0-.572.46-1.036 1.029-1.036.568 0 1.028.464 1.028 1.036v1.035h14.906v-1.035c0-.572.46-1.036 1.028-1.036.568 0 1.028.464 1.028 1.036zm4.876 9.84a3.038 3.038 0 0 0-1.454-2.052 3.004 3.004 0 0 0-2.494-.242c-.827.287-1.49.92-1.817 1.737l-1.336 3.336a2.55 2.55 0 0 0 1.075 3.138 2.515 2.515 0 0 0 3.237-.632l2.203-2.832c.539-.694.752-1.587.586-2.452zm-8.761-3.008a1.03 1.03 0 0 1-1.028 1.035 1.029 1.029 0 0 1-1.029-1.035A1.032 1.032 0 0 1 60.1 69.63a1.032 1.032 0 0 1 1.029 1.035zm-2.64-18.535a3.82 3.82 0 0 1-2.988 1.435 3.82 3.82 0 0 1-2.986-1.435 1.04 1.04 0 0 1 .151-1.456 1.024 1.024 0 0 1 1.447.153 1.777 1.777 0 0 0 2.777 0 1.024 1.024 0 0 1 1.447-.153c.441.36.509 1.012.151 1.456zm-5.586-4.259a1.022 1.022 0 0 1-1.455 0 .335.335 0 0 0-.475 0 1.023 1.023 0 0 1-1.454 0 1.04 1.04 0 0 1 0-1.464 2.385 2.385 0 0 1 3.384 0 1.04 1.04 0 0 1 0 1.464zm8.581 0a1.023 1.023 0 0 1-1.454 0 .335.335 0 0 0-.475 0 1.022 1.022 0 0 1-1.455 0 1.04 1.04 0 0 1 0-1.464 2.385 2.385 0 0 1 3.384 0 1.04 1.04 0 0 1 0 1.464z"/></g></g></svg>