<svg xmlns="http://www.w3.org/2000/svg" width="45" height="45" viewBox="0 0 45 45"><g><g><path fill="#fff" d="M31.656 26.502c1.757 2.604 2.168 4.156 1.332 5.023l-.017.019-.002.002-.018.016a1.446 1.446 0 0 1-.797.397L1.222 44.93l-.002.001a.878.878 0 0 1-1.15-1.15L13.04 12.846c.052-.32.19-.59.412-.813l.001-.001.003-.003.018-.017c.867-.836 2.419-.424 5.024 1.333.486.328.996.696 1.521 1.097 2.785-3.512 4.195-8.064 4.195-13.563a.879.879 0 0 1 1.758 0c0 3.569-.576 6.822-1.71 9.67a19.86 19.86 0 0 1-2.87 4.986 61.51 61.51 0 0 1 4.216 3.856 62.204 62.204 0 0 1 3.654 3.974c1.936-.932 3.872-1.606 5.777-2.01a.879.879 0 1 1 .364 1.72c-1.646.348-3.322.917-5.005 1.697.463.6.885 1.18 1.257 1.73zM6.24 33.608l-3.72 8.871 3.663-1.536c.196-.31.604-1.061.788-2.205.25-1.557-.003-3.305-.73-5.13zm3.556-8.479l-2.634 6.28c1.99 3.82 1.855 6.73 1.34 8.562L10.819 39c.267-.242 1.207-1.215 1.561-3.235.355-2.022.15-5.455-2.583-10.636zm8.173 5.492c.588-3.116.656-7.785-2.35-12.347a31.025 31.025 0 0 1-.853-1.198 19.387 19.387 0 0 1-.948-1.539l-1.453 3.466c1 1.027 2.307 2.893 2.822 4.092a.879.879 0 1 1-1.615.694c-.347-.809-1.205-2.09-1.958-2.996l-.95 2.268c2.966 5.17 4.114 9.609 3.411 13.2a8.879 8.879 0 0 1-.455 1.564l1.894-.795c.492-.669 1.83-3.095 2.455-6.41zm6.757-2.83a62.396 62.396 0 0 1-3.913-3.605c-.44-.439-.868-.88-1.284-1.32.755 3.072.575 5.917.167 8.08a22.154 22.154 0 0 1-1.582 4.994l4.172-1.75c.41-.36 2.314-2.25 2.44-6.4zm4.736 3.39c-.467-.254-.978-.57-1.539-.948a32.549 32.549 0 0 1-1.536-1.108c-.185 1.567-.6 2.821-1.07 3.795zm2.145-.995c-.093-.409-.445-1.352-1.755-3.2-.32-.452-.674-.923-1.056-1.408-.244.132-.488.267-.732.408a.875.875 0 0 1-1.2-.321.879.879 0 0 1 .321-1.201c.159-.092.317-.181.476-.27a61.356 61.356 0 0 0-3.296-3.56 59.912 59.912 0 0 0-4.125-3.77c-.107.113-.216.225-.326.335a.875.875 0 0 1-1.243 0 .879.879 0 0 1 0-1.243c.062-.062.123-.127.185-.19a32.885 32.885 0 0 0-.843-.62c-1.847-1.308-2.79-1.66-3.2-1.754.093.409.446 1.352 1.755 3.2 1.354 1.91 3.303 4.166 5.488 6.351 2.185 2.185 4.44 4.134 6.351 5.488 1.848 1.309 2.791 1.662 3.2 1.755zm-15.68-4.751a.879.879 0 0 1-1.65.604.88.88 0 1 1 1.65-.604zm16.894-13.082c2.3-2.3 5.935-3.348 8.57-3.56a.88.88 0 0 1 .14 1.751c-2.322.188-5.504 1.088-7.467 3.052a.877.877 0 0 1-1.243 0 .879.879 0 0 1 0-1.243zm12.148-2.315a.88.88 0 0 1-1.076.621l-.045-.011a.879.879 0 0 1 .424-1.706l.076.02a.879.879 0 0 1 .621 1.076zM5.582 6.47c0-.485.394-.878.88-.878h.878v-.88a.879.879 0 1 1 1.758 0v.88h.879a.879.879 0 1 1 0 1.757h-.88v.88a.88.88 0 0 1-1.757 0v-.88h-.879a.879.879 0 0 1-.879-.879zm20.566 8.526a.88.88 0 0 1 .88-.88h.878v-.878a.879.879 0 1 1 1.758 0v.879h.879a.88.88 0 0 1 0 1.758h-.879v.879a.879.879 0 0 1-1.758 0v-.88h-.879a.879.879 0 0 1-.879-.878zm13.975 22.587a.879.879 0 0 1-.88.88h-.878v.878a.879.879 0 0 1-1.758 0v-.879h-.879a.879.879 0 1 1 0-1.758h.88v-.878a.879.879 0 0 1 1.757 0v.878h.879c.485 0 .879.394.879.88zM31.638 2.637A2.64 2.64 0 0 1 34.275 0a2.64 2.64 0 0 1 2.637 2.637 2.64 2.64 0 0 1-2.637 2.636 2.64 2.64 0 0 1-2.637-2.636zm1.758 0a.88.88 0 0 0 1.758 0 .88.88 0 0 0-1.758 0zm9.012 15.26a2.64 2.64 0 0 1-2.637 2.636 2.64 2.64 0 0 1-2.637-2.637 2.64 2.64 0 0 1 2.637-2.637 2.64 2.64 0 0 1 2.637 2.637zm-1.758 0a.88.88 0 0 0-1.758 0 .88.88 0 0 0 1.758 0zM14.81 5.766a2.64 2.64 0 0 1 2.637-2.636 2.64 2.64 0 0 1 2.637 2.636 2.64 2.64 0 0 1-2.637 2.637 2.64 2.64 0 0 1-2.636-2.637zm1.758 0a.88.88 0 0 0 1.758 0 .88.88 0 0 0-1.758 0zm22.033 20.957a.88.88 0 0 1-.879-.88.88.88 0 0 1 .88-.878.88.88 0 0 1 .878.879.88.88 0 0 1-.879.879zM28.581 7.476a.88.88 0 0 1 .88-.88.88.88 0 0 1 .878.88.88.88 0 0 1-.878.879.881.881 0 0 1-.88-.88zm13.536 24.96a.88.88 0 0 1-.88.88.88.88 0 0 1-.878-.88.88.88 0 0 1 .879-.879.88.88 0 0 1 .879.88zM11.356 1.759a.88.88 0 0 1 .878-.879.88.88 0 0 1 .88.879.88.88 0 0 1-.88.879.88.88 0 0 1-.879-.88z"/></g></g></svg>