<svg xmlns="http://www.w3.org/2000/svg" width="147" height="90" viewBox="0 0 147 90"><g><g clip-path="url(#clip-1949)" opacity=".06"><path d="M146.139 91.395c-4.32 14.373-13.21 24.094-25.036 27.366a34.102 34.102 0 0 1-9.112 1.245c-15.072 0-28.436-10.05-32.5-24.434-5.014-17.754 5.492-36.238 23.423-41.206 7.95-2.192 16.727-1.358 24.085 2.248a77.486 77.486 0 0 0-.741-2.845c-6.555-23.204-19.413-33.644-26.448-33.644l-.31.006c-1.353.061-2.654-.842-3.03-2.177L92.565 4.123c-.23-.812-.101-1.68.352-2.395.455-.71 1.19-1.2 2.03-1.346 1.484-.26 3.007-.391 4.53-.391 18.972 0 38.487 20.335 46.398 48.35 4.065 14.394 4.161 30.087.264 43.054zM67.678 48.34c4.065 14.396 4.161 30.09.264 43.056-4.321 14.373-13.212 24.094-25.036 27.366a34.121 34.121 0 0 1-9.114 1.245c-15.072 0-28.436-10.05-32.5-24.434-5.014-17.754 5.493-36.238 23.424-41.206 7.949-2.192 16.723-1.358 24.084 2.248a77.547 77.547 0 0 0-.741-2.845c-6.555-23.204-19.414-33.644-26.45-33.644l-.307.006c-1.376.061-2.653-.842-3.03-2.177L14.366 4.123c-.23-.812-.101-1.68.353-2.395a3.012 3.012 0 0 1 2.03-1.346 26.275 26.275 0 0 1 4.526-.388c18.974 0 38.489 20.332 46.403 48.345z"/></g></g></svg>