<svg xmlns="http://www.w3.org/2000/svg" width="76" height="76" viewBox="0 0 76 76"><defs><linearGradient id="512xa" x1="24" x2="52" y1="76" y2="0" gradientUnits="userSpaceOnUse"><stop offset="0" stop-color="#355eda"/><stop offset="1" stop-color="#4074eb"/></linearGradient></defs><g><g><path d="M66.64 68.566a1.484 1.484 0 1 1-2.97 0 1.484 1.484 0 0 1 2.97 0zm-9.35 0a1.484 1.484 0 1 1-2.968 0 1.484 1.484 0 0 1 2.969 0zm-8.903 0a1.484 1.484 0 1 1-2.969 0 1.484 1.484 0 0 1 2.97 0zm-9.793 0a1.484 1.484 0 1 1-2.97 0 1.484 1.484 0 0 1 2.97 0zm-8.904 0a1.484 1.484 0 1 1-2.969 0 1.484 1.484 0 0 1 2.97 0zm-8.903 0a1.484 1.484 0 1 1-2.97 0 1.484 1.484 0 0 1 2.97 0zm-8.904 0a1.484 1.484 0 1 1-2.969 0 1.484 1.484 0 0 1 2.97 0zm64.117 0a7.384 7.384 0 0 1-2.177 5.255A7.383 7.383 0 0 1 68.568 76H7.431C3.334 76 0 72.665 0 68.566c0-1.984.773-3.85 2.177-5.255a7.382 7.382 0 0 1 5.254-2.177h7.42V41.555c0-2.197.592-4.3 1.718-6.15l-6.747-8.708c-5.46-.3-9.81-4.837-9.81-10.372 0-5.728 4.66-10.39 10.387-10.39.914 0 1.817.121 2.694.356a1.47 1.47 0 0 1 .375-.058l36.16-.77a10.368 10.368 0 0 1 9.146-5.464c5.728 0 10.388 4.66 10.388 10.39 0 3.402-1.687 6.592-4.452 8.524v4.832h1.484c.562 0 1.076.318 1.327.82l2.968 5.937a1.485 1.485 0 0 1-.278 1.714l-5.935 5.936c-.29.29-.67.435-1.05.435s-.76-.145-1.049-.435a1.484 1.484 0 0 1 0-2.099l5.18-5.18-2.08-4.16H52.272l-2.08 4.16 5.18 5.18a1.484 1.484 0 0 1-2.099 2.1l-5.935-5.937a1.485 1.485 0 0 1-.278-1.714l2.968-5.936c.251-.503.765-.82 1.327-.82h1.484v-4.834a10.322 10.322 0 0 1-1.787-1.579l-30.32 3.689 9.738 9.267a11.962 11.962 0 0 1 5.722 4.106 11.77 11.77 0 0 1 2.401 7.16v19.579h12.762V46.008c0-.82.664-1.485 1.484-1.485h12.316c.82 0 1.484.665 1.484 1.485v15.126h1.93c4.097 0 7.43 3.334 7.43 7.432zm-14.257-44.82v-3.402a10.406 10.406 0 0 1-5.936 0v3.401zM51.355 10.388c0 1.632.52 3.18 1.503 4.477a7.405 7.405 0 0 0 5.917 2.943 7.412 7.412 0 0 0 3.708-.992 7.45 7.45 0 0 0 3.711-6.428c0-4.092-3.328-7.421-7.42-7.421a7.41 7.41 0 0 0-6.838 4.537 7.37 7.37 0 0 0-.58 2.884zm2.968 50.757h9.348V47.492h-9.348zm-27.6-28.496a8.832 8.832 0 0 0-7.137 3.58 8.825 8.825 0 0 0-1.767 5.326c0 4.91 3.994 8.904 8.903 8.904 4.91 0 8.904-3.994 8.904-8.904 0-3.912-2.614-7.422-6.357-8.535l-.003-.001a8.84 8.84 0 0 0-2.544-.37zm0 20.779a11.844 11.844 0 0 1-8.904-4.033v11.75h17.807v-11.75a11.844 11.844 0 0 1-8.904 4.033zM17.873 9.108a10.388 10.388 0 0 1 2.769 8.935l28.616-3.482a10.427 10.427 0 0 1-.69-6.107zm-6.996 14.618a7.45 7.45 0 0 0 6.36-4.517c.385-.912.58-1.883.58-2.884a7.418 7.418 0 0 0-5.037-7.031 7.445 7.445 0 0 0-2.382-.39c-4.09 0-7.42 3.33-7.42 7.42 0 3.992 3.168 7.256 7.12 7.414.256-.074.525-.076.78-.012zm7.598 9.294a11.958 11.958 0 0 1 7.11-3.282l-7.165-6.817a10.45 10.45 0 0 1-5.147 3.385zm54.532 35.546a4.445 4.445 0 0 0-4.44-4.44h-3.412a1.47 1.47 0 0 1-.181-.012H53.02c-.06.007-.12.012-.18.012H37.11a1.47 1.47 0 0 1-.181-.012H16.516c-.06.007-.12.012-.181.012H7.43c-1.185 0-2.3.463-3.138 1.301a4.411 4.411 0 0 0-1.301 3.14 4.445 4.445 0 0 0 4.44 4.44h61.136c1.185 0 2.3-.462 3.139-1.301a4.413 4.413 0 0 0 1.302-3.14zM63.227 10.39a4.457 4.457 0 0 1-4.451 4.452 4.457 4.457 0 0 1-4.452-4.452 4.457 4.457 0 0 1 4.452-4.453 4.457 4.457 0 0 1 4.451 4.453zm-2.967 0c0-.82-.666-1.484-1.484-1.484-.819 0-1.484.665-1.484 1.484 0 .818.665 1.483 1.484 1.483.818 0 1.484-.665 1.484-1.483zM14.85 16.325a4.457 4.457 0 0 1-4.452 4.453 4.457 4.457 0 0 1-4.451-4.453 4.457 4.457 0 0 1 4.451-4.453 4.457 4.457 0 0 1 4.452 4.453zm-2.968 0c0-.818-.665-1.484-1.484-1.484-.818 0-1.484.666-1.484 1.484s.666 1.484 1.484 1.484c.819 0 1.484-.666 1.484-1.484zm20.775 25.23a5.943 5.943 0 0 1-5.936 5.937 5.942 5.942 0 0 1-5.935-5.937 5.942 5.942 0 0 1 5.935-5.936 5.943 5.943 0 0 1 5.936 5.936zm-2.968 0a2.971 2.971 0 0 0-2.968-2.968 2.971 2.971 0 0 0-2.968 2.968 2.971 2.971 0 0 0 2.968 2.968 2.971 2.971 0 0 0 2.968-2.968z"/><path fill="url(#512xa)" d="M66.64 68.566a1.484 1.484 0 1 1-2.97 0 1.484 1.484 0 0 1 2.97 0zm-9.35 0a1.484 1.484 0 1 1-2.968 0 1.484 1.484 0 0 1 2.969 0zm-8.903 0a1.484 1.484 0 1 1-2.969 0 1.484 1.484 0 0 1 2.97 0zm-9.793 0a1.484 1.484 0 1 1-2.97 0 1.484 1.484 0 0 1 2.97 0zm-8.904 0a1.484 1.484 0 1 1-2.969 0 1.484 1.484 0 0 1 2.97 0zm-8.903 0a1.484 1.484 0 1 1-2.97 0 1.484 1.484 0 0 1 2.97 0zm-8.904 0a1.484 1.484 0 1 1-2.969 0 1.484 1.484 0 0 1 2.97 0zm64.117 0a7.384 7.384 0 0 1-2.177 5.255A7.383 7.383 0 0 1 68.568 76H7.431C3.334 76 0 72.665 0 68.566c0-1.984.773-3.85 2.177-5.255a7.382 7.382 0 0 1 5.254-2.177h7.42V41.555c0-2.197.592-4.3 1.718-6.15l-6.747-8.708c-5.46-.3-9.81-4.837-9.81-10.372 0-5.728 4.66-10.39 10.387-10.39.914 0 1.817.121 2.694.356a1.47 1.47 0 0 1 .375-.058l36.16-.77a10.368 10.368 0 0 1 9.146-5.464c5.728 0 10.388 4.66 10.388 10.39 0 3.402-1.687 6.592-4.452 8.524v4.832h1.484c.562 0 1.076.318 1.327.82l2.968 5.937a1.485 1.485 0 0 1-.278 1.714l-5.935 5.936c-.29.29-.67.435-1.05.435s-.76-.145-1.049-.435a1.484 1.484 0 0 1 0-2.099l5.18-5.18-2.08-4.16H52.272l-2.08 4.16 5.18 5.18a1.484 1.484 0 0 1-2.099 2.1l-5.935-5.937a1.485 1.485 0 0 1-.278-1.714l2.968-5.936c.251-.503.765-.82 1.327-.82h1.484v-4.834a10.322 10.322 0 0 1-1.787-1.579l-30.32 3.689 9.738 9.267a11.962 11.962 0 0 1 5.722 4.106 11.77 11.77 0 0 1 2.401 7.16v19.579h12.762V46.008c0-.82.664-1.485 1.484-1.485h12.316c.82 0 1.484.665 1.484 1.485v15.126h1.93c4.097 0 7.43 3.334 7.43 7.432zm-14.257-44.82v-3.402a10.406 10.406 0 0 1-5.936 0v3.401zM51.355 10.388c0 1.632.52 3.18 1.503 4.477a7.405 7.405 0 0 0 5.917 2.943 7.412 7.412 0 0 0 3.708-.992 7.45 7.45 0 0 0 3.711-6.428c0-4.092-3.328-7.421-7.42-7.421a7.41 7.41 0 0 0-6.838 4.537 7.37 7.37 0 0 0-.58 2.884zm2.968 50.757h9.348V47.492h-9.348zm-27.6-28.496a8.832 8.832 0 0 0-7.137 3.58 8.825 8.825 0 0 0-1.767 5.326c0 4.91 3.994 8.904 8.903 8.904 4.91 0 8.904-3.994 8.904-8.904 0-3.912-2.614-7.422-6.357-8.535l-.003-.001a8.84 8.84 0 0 0-2.544-.37zm0 20.779a11.844 11.844 0 0 1-8.904-4.033v11.75h17.807v-11.75a11.844 11.844 0 0 1-8.904 4.033zM17.873 9.108a10.388 10.388 0 0 1 2.769 8.935l28.616-3.482a10.427 10.427 0 0 1-.69-6.107zm-6.996 14.618a7.45 7.45 0 0 0 6.36-4.517c.385-.912.58-1.883.58-2.884a7.418 7.418 0 0 0-5.037-7.031 7.445 7.445 0 0 0-2.382-.39c-4.09 0-7.42 3.33-7.42 7.42 0 3.992 3.168 7.256 7.12 7.414.256-.074.525-.076.78-.012zm7.598 9.294a11.958 11.958 0 0 1 7.11-3.282l-7.165-6.817a10.45 10.45 0 0 1-5.147 3.385zm54.532 35.546a4.445 4.445 0 0 0-4.44-4.44h-3.412a1.47 1.47 0 0 1-.181-.012H53.02c-.06.007-.12.012-.18.012H37.11a1.47 1.47 0 0 1-.181-.012H16.516c-.06.007-.12.012-.181.012H7.43c-1.185 0-2.3.463-3.138 1.301a4.411 4.411 0 0 0-1.301 3.14 4.445 4.445 0 0 0 4.44 4.44h61.136c1.185 0 2.3-.462 3.139-1.301a4.413 4.413 0 0 0 1.302-3.14zM63.227 10.39a4.457 4.457 0 0 1-4.451 4.452 4.457 4.457 0 0 1-4.452-4.452 4.457 4.457 0 0 1 4.452-4.453 4.457 4.457 0 0 1 4.451 4.453zm-2.967 0c0-.82-.666-1.484-1.484-1.484-.819 0-1.484.665-1.484 1.484 0 .818.665 1.483 1.484 1.483.818 0 1.484-.665 1.484-1.483zM14.85 16.325a4.457 4.457 0 0 1-4.452 4.453 4.457 4.457 0 0 1-4.451-4.453 4.457 4.457 0 0 1 4.451-4.453 4.457 4.457 0 0 1 4.452 4.453zm-2.968 0c0-.818-.665-1.484-1.484-1.484-.818 0-1.484.666-1.484 1.484s.666 1.484 1.484 1.484c.819 0 1.484-.666 1.484-1.484zm20.775 25.23a5.943 5.943 0 0 1-5.936 5.937 5.942 5.942 0 0 1-5.935-5.937 5.942 5.942 0 0 1 5.935-5.936 5.943 5.943 0 0 1 5.936 5.936zm-2.968 0a2.971 2.971 0 0 0-2.968-2.968 2.971 2.971 0 0 0-2.968 2.968 2.971 2.971 0 0 0 2.968 2.968 2.971 2.971 0 0 0 2.968-2.968z"/></g></g></svg>