<svg xmlns="http://www.w3.org/2000/svg" width="37" height="35" viewBox="0 0 37 35"><g><g><path fill="#fff" d="M36.423 14.622l-8.072 7.806 1.912 11.025c.015.104.023.25.023.442 0 .735-.304 1.102-.912 1.102-.282 0-.578-.088-.89-.264L18.5 29.529l-9.984 5.204c-.326.177-.623.264-.89.264-.311 0-.544-.106-.7-.32a1.292 1.292 0 0 1-.233-.782c0-.089.014-.236.044-.442l1.912-11.026-8.094-7.806c-.37-.396-.556-.749-.556-1.058 0-.543.415-.882 1.245-1.014l11.163-1.61L17.411.906C17.692.303 18.056 0 18.5 0c.444 0 .807.302 1.089.905l5.003 10.033 11.162 1.61c.831.132 1.246.47 1.246 1.014 0 .323-.192.677-.578 1.06zm-4.336.264l-9.384-1.367L18.5 5.095l-4.203 8.424-9.384 1.367 6.805 6.55-1.624 9.283 8.406-4.388 8.383 4.388-1.6-9.284z"/></g></g></svg>