<svg xmlns="http://www.w3.org/2000/svg" width="19" height="19" viewBox="0 0 19 19"><g><g><path fill="#fff" d="M16.44 8.01c-.007.048-.004.122-.001.198.01.276.03.848-.614.944a1.22 1.22 0 0 1-.184.014c-.69 0-.73-.627-.748-.927-.005-.08-.01-.157-.02-.218-.43-2.519-1.307-3.411-3.914-3.979a2.776 2.776 0 0 0-.223-.035c-.278-.037-.625-.083-.821-.344-.117-.155-.156-.353-.116-.59.042-.242.201-.65.796-.65.15 0 .298.025.442.048.066.01.13.02.187.027 2.901.34 5.242 2.795 5.219 5.474 0 .013-.001.025-.003.037zM9.48.774c.018-.29.151-.776.853-.776.08 0 .159.006.228.01.057.004.111.007.155.007a.333.333 0 0 0 .053-.002c.017-.002.035-.003.053-.002 4.408.144 8.227 4.043 8.172 8.341 0 .059.003.125.006.195.013.285.03.64-.205.879-.134.137-.322.206-.558.206h-.024c-.753-.014-.764-.698-.77-1.026a2.409 2.409 0 0 0-.012-.251c-.545-4.204-2.514-6.18-6.794-6.821-.06-.01-.134-.014-.211-.02-.32-.022-.985-.07-.945-.74zm8.82 15.456c-.535 1.475-2.279 2.768-3.731 2.768h-.025a.314.314 0 0 1-.077-.01 4.167 4.167 0 0 0-.181-.042 4.43 4.43 0 0 1-.783-.227c-3.089-1.296-5.754-3.02-7.923-5.126-2.215-2.15-3.972-4.757-5.222-7.747-.432-1.034-.45-2.028-.052-2.875.412-.875 1.239-1.538 2.39-1.916.457-.15.903-.148 1.327.004 1.002.359 3.38 3.518 3.438 4.569.052.924-.678 1.407-1.07 1.667-.69.457-.818 1.019-.426 1.878.812 1.777 2.232 3.125 4.22 4.004.246.108.472.164.67.164.336 0 .609-.162.833-.493.508-.749 1.122-1.128 1.826-1.128.524 0 1.077.205 1.693.627l.3.203c.48.327.977.665 1.445 1.031.088.07.182.14.273.207.688.513 1.545 1.151 1.076 2.442zM13.055 5.845c.599.593.951 1.338.943 1.993.022.63-.214.976-.699 1.032a.704.704 0 0 1-.09.006c-.403 0-.718-.317-.764-.772-.1-.974-.6-1.5-1.575-1.652-.268-.043-.564-.12-.718-.37-.105-.171-.115-.38-.03-.62.181-.513.699-.525.947-.532.66-.015 1.384.32 1.986.915z"/></g></g></svg>