<svg xmlns="http://www.w3.org/2000/svg" width="25" height="25" viewBox="0 0 25 25"><g><g><path fill="#fff" d="M25 12.177c0 6.726-5.494 12.178-12.273 12.178-2.152 0-4.173-.55-5.932-1.515L0 25l2.215-6.535a12.048 12.048 0 0 1-1.76-6.288C.454 5.451 5.948 0 12.726 0 19.507-.001 25 5.451 25 12.177zM12.727 1.94c-5.69 0-10.318 4.593-10.318 10.238 0 2.24.73 4.315 1.965 6.003l-1.289 3.803 3.965-1.261a10.31 10.31 0 0 0 5.677 1.694c5.69 0 10.318-4.593 10.318-10.239 0-5.645-4.628-10.238-10.318-10.238zm6.022 14.463c-.251.697-1.48 1.369-2.03 1.419-.552.05-.552.448-3.611-.747-3.058-1.195-4.989-4.308-5.14-4.506-.15-.2-1.227-1.619-1.227-3.087 0-1.47.777-2.19 1.052-2.49a1.11 1.11 0 0 1 .802-.373c.201 0 .402.024.577.024.176 0 .426-.099.677.498.25.598.853 2.067.928 2.216.075.15.125.324.025.524-.1.198-.15.323-.3.497-.151.174-.317.39-.452.523-.15.149-.307.31-.132.608.175.3.78 1.277 1.673 2.068 1.15 1.016 2.119 1.332 2.42 1.481.3.15.476.124.651-.075.176-.199.753-.87.953-1.17.2-.299.401-.249.677-.149.275.099 1.755.822 2.056.97.3.15.5.224.577.349.075.125.075.722-.176 1.42z"/></g></g></svg>