<svg xmlns="http://www.w3.org/2000/svg" width="28" height="28" viewBox="0 0 28 28"><defs><linearGradient id="v06wa" x1="28" x2="0" y1="15" y2="13" gradientUnits="userSpaceOnUse"><stop offset="0" stop-color="#ef5b4d"/><stop offset="1" stop-color="#f78b4d"/></linearGradient></defs><g><g><path d="M28 12.068c0 2.633-.79 4.884-2.363 6.746-1.573 1.868-3.44 2.799-5.6 2.799-1.47 0-2.582-.56-3.337-1.685-1.003 1.17-2.207 1.76-3.62 1.76-1.578 0-2.927-.658-4.05-1.983-1.124-1.32-1.683-3.061-1.683-5.215 0-2.204.628-4.01 1.896-5.41 1.262-1.398 2.783-2.1 4.558-2.1 1.118 0 2.15.382 3.089 1.14l.236-.85h3.688l-1.072 8.688a14.918 14.918 0 0 0-.098 1.547c0 .544.254.812.76.812.94 0 1.845-.583 2.715-1.76.87-1.17 1.308-2.644 1.308-4.41 0-2.58-.95-4.722-2.852-6.425-1.902-1.702-4.236-2.553-6.996-2.553-2.996 0-5.526 1.04-7.578 3.107-2.057 2.074-3.088 4.656-3.088 7.752 0 2.85.962 5.334 2.88 7.448 1.926 2.119 4.64 3.176 8.143 3.176 2.202 0 4.46-.492 6.766-1.474a1.727 1.727 0 0 1 2.281.925c.352.862-.069 1.845-.933 2.21C20.4 27.44 17.697 28 14.942 28c-4.57 0-8.2-1.377-10.903-4.13C1.35 21.117 0 17.832 0 14.011c0-3.988 1.418-7.318 4.247-9.997C7.077 1.336 10.505 0 14.527 0c3.827 0 7.03 1.177 9.606 3.53C26.715 5.882 28 8.732 28 12.069zm-11.375 1.61c0-.902-.265-1.621-.795-2.163-.53-.544-1.136-.812-1.816-.812-.783 0-1.44.366-1.97 1.085-.53.72-.796 1.668-.796 2.845 0 .954.19 1.748.57 2.388.375.64.871.96 1.488.96.904 0 1.682-.44 2.333-1.31.652-.873.98-1.867.986-2.992z"/><path fill="url(#v06wa)" d="M28 12.068c0 2.633-.79 4.884-2.363 6.746-1.573 1.868-3.44 2.799-5.6 2.799-1.47 0-2.582-.56-3.337-1.685-1.003 1.17-2.207 1.76-3.62 1.76-1.578 0-2.927-.658-4.05-1.983-1.124-1.32-1.683-3.061-1.683-5.215 0-2.204.628-4.01 1.896-5.41 1.262-1.398 2.783-2.1 4.558-2.1 1.118 0 2.15.382 3.089 1.14l.236-.85h3.688l-1.072 8.688a14.918 14.918 0 0 0-.098 1.547c0 .544.254.812.76.812.94 0 1.845-.583 2.715-1.76.87-1.17 1.308-2.644 1.308-4.41 0-2.58-.95-4.722-2.852-6.425-1.902-1.702-4.236-2.553-6.996-2.553-2.996 0-5.526 1.04-7.578 3.107-2.057 2.074-3.088 4.656-3.088 7.752 0 2.85.962 5.334 2.88 7.448 1.926 2.119 4.64 3.176 8.143 3.176 2.202 0 4.46-.492 6.766-1.474a1.727 1.727 0 0 1 2.281.925c.352.862-.069 1.845-.933 2.21C20.4 27.44 17.697 28 14.942 28c-4.57 0-8.2-1.377-10.903-4.13C1.35 21.117 0 17.832 0 14.011c0-3.988 1.418-7.318 4.247-9.997C7.077 1.336 10.505 0 14.527 0c3.827 0 7.03 1.177 9.606 3.53C26.715 5.882 28 8.732 28 12.069zm-11.375 1.61c0-.902-.265-1.621-.795-2.163-.53-.544-1.136-.812-1.816-.812-.783 0-1.44.366-1.97 1.085-.53.72-.796 1.668-.796 2.845 0 .954.19 1.748.57 2.388.375.64.871.96 1.488.96.904 0 1.682-.44 2.333-1.31.652-.873.98-1.867.986-2.992z"/></g></g></svg>