<svg xmlns="http://www.w3.org/2000/svg" width="9" height="17" viewBox="0 0 9 17"><g><g><path fill="#aeaeae" d="M8.6.003L6.456-.001C4.048 0 2.492 1.651 2.492 4.208v1.94H.337A.343.343 0 0 0 0 6.498v2.812c0 .192.151.348.337.348h2.155v7.094c0 .193.15.349.337.349h2.812a.343.343 0 0 0 .337-.349V9.657h2.52a.343.343 0 0 0 .336-.348l.001-2.812a.356.356 0 0 0-.098-.247.332.332 0 0 0-.239-.101h-2.52V4.503c0-.79.182-1.192 1.177-1.192H8.6a.343.343 0 0 0 .337-.349V.352A.343.343 0 0 0 8.6.002z"/></g></g></svg>