<svg xmlns="http://www.w3.org/2000/svg" width="24" height="24" viewBox="0 0 24 24"><g><g><path fill="#fff" d="M24 6.621v10.755a6.63 6.63 0 0 1-6.623 6.622H6.623A6.63 6.63 0 0 1 0 17.376V6.62A6.63 6.63 0 0 1 6.623-.001h10.754A6.63 6.63 0 0 1 24 6.621zm-2.13 10.755V6.62a4.499 4.499 0 0 0-4.493-4.493H6.623A4.498 4.498 0 0 0 2.129 6.62v10.755a4.5 4.5 0 0 0 4.494 4.494h10.754a4.5 4.5 0 0 0 4.494-4.494zm-3.686-5.377A6.192 6.192 0 0 1 12 18.183 6.192 6.192 0 0 1 5.816 12 6.191 6.191 0 0 1 12 5.815a6.191 6.191 0 0 1 6.184 6.184zm-2.13 0A4.06 4.06 0 0 0 12 7.944a4.06 4.06 0 0 0-4.055 4.055A4.06 4.06 0 0 0 12 16.053a4.06 4.06 0 0 0 4.055-4.054zm3.494-7.533a1.566 1.566 0 0 1 0 2.208c-.291.29-.693.458-1.105.458a1.57 1.57 0 0 1-1.103-.458 1.57 1.57 0 0 1-.458-1.103c0-.412.167-.816.458-1.105.29-.29.693-.457 1.103-.457.412 0 .815.166 1.105.457z"/></g></g></svg>