<svg xmlns="http://www.w3.org/2000/svg" width="18" height="18" viewBox="0 0 18 18"><g><g><path fill="#aeaeae" d="M18 4.967v8.065C18 15.772 15.787 18 13.068 18H5.06C2.34 18 .128 15.77.128 13.032V4.967C.128 2.228 2.34 0 5.06 0h8.008C15.788 0 18 2.228 18 4.967zm-1.586 8.065V4.967c0-1.858-1.501-3.37-3.346-3.37H5.06c-1.846 0-3.347 1.512-3.347 3.37v8.065c0 1.86 1.501 3.371 3.347 3.37h8.008c1.845 0 3.346-1.51 3.346-3.37zM13.67 9c0 2.557-2.066 4.638-4.605 4.638-2.54 0-4.606-2.08-4.606-4.638s2.066-4.638 4.606-4.638S13.669 6.442 13.669 9zm-1.586 0c0-1.677-1.354-3.041-3.02-3.041-1.664 0-3.019 1.364-3.019 3.04 0 1.678 1.355 3.042 3.02 3.042s3.02-1.364 3.02-3.041zm2.602-5.65a1.18 1.18 0 0 1 0 1.657 1.17 1.17 0 0 1-.823.343A1.167 1.167 0 0 1 12.7 4.179c0-.31.125-.611.342-.829.215-.218.516-.343.821-.343.307 0 .607.125.823.343z"/></g></g></svg>