<?xml version="1.0" encoding="UTF-8"?>
<!DOCTYPE svg PUBLIC "-//W3C//DTD SVG 1.1//EN" "http://www.w3.org/Graphics/SVG/1.1/DTD/svg11.dtd">
<!-- Creator: CorelDRAW 2017 -->
<svg xmlns="http://www.w3.org/2000/svg" xml:space="preserve" width="18px" height="18px" version="1.1" style="shape-rendering:geometricPrecision; text-rendering:geometricPrecision; image-rendering:optimizeQuality; fill-rule:evenodd; clip-rule:evenodd"
viewBox="0 0 17.35 17.35"
 xmlns:xlink="http://www.w3.org/1999/xlink">
 <defs>
  <style type="text/css">
   <![CDATA[
    .fil2 {fill:url(#id0)}
    .fil1 {fill:url(#id1)}
    .fil0 {fill:url(#id2)}
   ]]>
  </style>
  <radialGradient id="id0" gradientUnits="userSpaceOnUse" gradientTransform="matrix(2 -0 -0 1.99998 -13 -5)" cx="12.84" cy="5.02" r="1.04" fx="12.84" fy="5.02">
   <stop offset="0" style="stop-opacity:1; stop-color:#5F6DB3"/>
   <stop offset="1" style="stop-opacity:1; stop-color:#5C6CB3"/>
  </radialGradient>
  <radialGradient id="id1" gradientUnits="userSpaceOnUse" gradientTransform="matrix(2.01504 -0 -0 2.01504 -7 -13)" cx="6.8" cy="13.04" r="4.46" fx="6.8" fy="13.04">
   <stop offset="0" style="stop-opacity:1; stop-color:#FFD776"/>
   <stop offset="0.25098" style="stop-opacity:1; stop-color:#F3A554"/>
   <stop offset="0.380392" style="stop-opacity:1; stop-color:#F15C3C"/>
   <stop offset="0.611765" style="stop-opacity:1; stop-color:#D94867"/>
   <stop offset="0.839216" style="stop-opacity:1; stop-color:#C32F87"/>
   <stop offset="0.960784" style="stop-opacity:1; stop-color:#7D63A7"/>
   <stop offset="1" style="stop-opacity:1; stop-color:#5C6CB3"/>
  </radialGradient>
  <radialGradient id="id2" gradientUnits="userSpaceOnUse" gradientTransform="matrix(2.017 -0 -0 2.017 -5 -17)" cx="5.03" cy="17.17" r="8.67" fx="5.03" fy="17.17">
   <stop offset="0" style="stop-opacity:1; stop-color:#FFD776"/>
   <stop offset="0.25098" style="stop-opacity:1; stop-color:#F3A554"/>
   <stop offset="0.380392" style="stop-opacity:1; stop-color:#F15C3C"/>
   <stop offset="0.541176" style="stop-opacity:1; stop-color:#D94867"/>
   <stop offset="0.701961" style="stop-opacity:1; stop-color:#C32F87"/>
   <stop offset="0.909804" style="stop-opacity:1; stop-color:#7D63A7"/>
   <stop offset="0.980392" style="stop-opacity:1; stop-color:#5C6CB3"/>
   <stop offset="1" style="stop-opacity:1; stop-color:#5C6CB3"/>
  </radialGradient>
 </defs>
 <g id="Слой_x0020_1">
  <metadata id="CorelCorpID_0Corel-Layer"/>
  <g id="XMLID_138_">
   <path id="XMLID_142_" class="fil0" d="M16.89 2.99c-0.22,-0.57 -0.51,-1.05 -1,-1.54 -0.48,-0.48 -0.96,-0.77 -1.53,-0.99 -0.55,-0.22 -1.19,-0.37 -2.11,-0.41 -0.92,-0.04 -1.22,-0.05 -3.58,-0.05 -2.36,0 -2.65,0.01 -3.58,0.05 -0.92,0.04 -1.55,0.19 -2.1,0.41 -0.57,0.22 -1.05,0.51 -1.54,0.99 -0.48,0.49 -0.77,0.97 -0.99,1.54 -0.22,0.55 -0.37,1.19 -0.41,2.1 -0.04,0.93 -0.05,1.22 -0.05,3.58 0,2.36 0.01,2.66 0.05,3.58 0.04,0.93 0.19,1.56 0.41,2.11 0.22,0.57 0.51,1.05 0.99,1.53 0.49,0.49 0.97,0.78 1.54,1 0.55,0.22 1.19,0.36 2.1,0.4 0.93,0.04 1.22,0.06 3.58,0.06 2.36,0 2.66,-0.01 3.58,-0.06 0.93,-0.04 1.56,-0.18 2.11,-0.4 0.57,-0.22 1.05,-0.51 1.53,-1 0.49,-0.48 0.78,-0.96 1,-1.53 0.22,-0.55 0.36,-1.19 0.4,-2.11 0.04,-0.92 0.06,-1.22 0.06,-3.58 0,-2.36 -0.01,-2.65 -0.06,-3.58 -0.04,-0.92 -0.18,-1.55 -0.4,-2.1zm-1.16 9.19c-0.04,0.84 -0.18,1.31 -0.3,1.61 -0.15,0.4 -0.35,0.7 -0.65,1 -0.3,0.3 -0.59,0.49 -1,0.65 -0.31,0.12 -0.76,0.26 -1.61,0.3 -0.92,0.04 -1.18,0.05 -3.5,0.05 -2.32,0 -2.6,0 -3.51,-0.05 -0.84,-0.04 -1.31,-0.18 -1.61,-0.3 -0.4,-0.16 -0.69,-0.35 -1,-0.65 -0.3,-0.3 -0.49,-0.59 -0.65,-1 -0.12,-0.31 -0.26,-0.77 -0.3,-1.61 -0.04,-0.92 -0.05,-1.19 -0.05,-3.51 0,-2.31 0.01,-2.59 0.05,-3.5 0.04,-0.85 0.18,-1.31 0.3,-1.61 0.16,-0.4 0.35,-0.7 0.65,-1 0.31,-0.3 0.59,-0.49 1,-0.65 0.31,-0.12 0.77,-0.26 1.61,-0.3 0.92,-0.04 1.19,-0.05 3.51,-0.05 2.31,0 2.59,0 3.5,0.05 0.85,0.04 1.31,0.18 1.61,0.3 0.4,0.15 0.7,0.35 1,0.65 0.3,0.3 0.49,0.59 0.65,1 0.12,0.31 0.26,0.76 0.3,1.61 0.04,0.92 0.06,1.19 0.06,3.5 0,2.32 -0.02,2.6 -0.06,3.51z"/>
   <path id="XMLID_145_" class="fil1" d="M8.67 4.22c-2.46,0 -4.46,1.99 -4.46,4.45 0,2.46 2,4.46 4.46,4.46 2.46,0 4.46,-2 4.46,-4.46 0,-2.46 -2,-4.45 -4.46,-4.45zm0 7.35c-1.6,0 -2.9,-1.29 -2.9,-2.9 0,-1.59 1.3,-2.89 2.9,-2.89 1.6,0 2.89,1.29 2.89,2.89 0,1.6 -1.3,2.9 -2.89,2.9z"/>
   <circle id="XMLID_143_" class="fil2" cx="13.3" cy="4.04" r="1.04"/>
  </g>
 </g>
</svg>
