<svg xmlns="http://www.w3.org/2000/svg" width="21" height="31" viewBox="0 0 21 31"><defs><linearGradient id="wda0a" x1="21" x2="0" y1="17" y2="14" gradientUnits="userSpaceOnUse"><stop offset="0" stop-color="#ef5b4d"/><stop offset="1" stop-color="#f78b4d"/></linearGradient></defs><g><g><path d="M21 9.533v1.461c0 3.554-3.097 7.164-5.02 10.746-.19.358-.604.744-.82 1.13-.326.58-.703 1.185-1.028 1.791-1.191 2.066-2.407 4.216-3.626 6.338-1.978-3.251-3.974-6.504-5.898-9.81C2.819 18.103.425 14.823.045 11.738a13.19 13.19 0 0 1-.045-.8V9.616C.677 3.14 5.75-.001 10.358-.001c3.441 0 7.703 1.708 9.654 6.476.163.385.383.826.492 1.239.027.083.496 1.434.496 1.82zm-6.596.855c0-2.204-1.677-3.968-3.845-3.968-1.76 0-3.785 1.102-3.785 3.526v.854c0 .056-.009.662.1.966.732 1.901 2.214 2.59 3.568 2.59a3.969 3.969 0 0 0 3.962-3.968z"/><path fill="url(#wda0a)" d="M21 9.533v1.461c0 3.554-3.097 7.164-5.02 10.746-.19.358-.604.744-.82 1.13-.326.58-.703 1.185-1.028 1.791-1.191 2.066-2.407 4.216-3.626 6.338-1.978-3.251-3.974-6.504-5.898-9.81C2.819 18.103.425 14.823.045 11.738a13.19 13.19 0 0 1-.045-.8V9.616C.677 3.14 5.75-.001 10.358-.001c3.441 0 7.703 1.708 9.654 6.476.163.385.383.826.492 1.239.027.083.496 1.434.496 1.82zm-6.596.855c0-2.204-1.677-3.968-3.845-3.968-1.76 0-3.785 1.102-3.785 3.526v.854c0 .056-.009.662.1.966.732 1.901 2.214 2.59 3.568 2.59a3.969 3.969 0 0 0 3.962-3.968z"/></g></g></svg>