<svg xmlns="http://www.w3.org/2000/svg" width="14" height="14" viewBox="0 0 14 14">
  <metadata><?xpacket begin="﻿" id="W5M0MpCehiHzreSzNTczkc9d"?>
<x:xmpmeta xmlns:x="adobe:ns:meta/" x:xmptk="Adobe XMP Core 5.6-c142 79.160924, 2017/07/13-01:06:39        ">
   <rdf:RDF xmlns:rdf="http://www.w3.org/1999/02/22-rdf-syntax-ns#">
      <rdf:Description rdf:about=""/>
   </rdf:RDF>
</x:xmpmeta>
                                                                                                    
                                                                                                    
                                                                                                    
                                                                                                    
                                                                                                    
                                                                                                    
                                                                                                    
                                                                                                    
                                                                                                    
                                                                                                    
                                                                                                    
                                                                                                    
                                                                                                    
                                                                                                    
                                                                                                    
                                                                                                    
                                                                                                    
                                                                                                    
                                                                                                    
                                                                                                    
                           
<?xpacket end="w"?></metadata>
<defs>
    <style>
      .cls-1 {
        fill: #1d1522;
        fill-rule: evenodd;
      }
    </style>
  </defs>
  <path id="Forma_1" data-name="Forma 1" class="cls-1" d="M281.993,41.049a0.676,0.676,0,0,1-.207.593L279.814,43.6a1.1,1.1,0,0,1-.348.251,1.438,1.438,0,0,1-.422.134l-0.089.007a1.872,1.872,0,0,1-.193.008,6.788,6.788,0,0,1-.911-0.1,6.906,6.906,0,0,1-1.542-.475,12.932,12.932,0,0,1-2.067-1.134,15.387,15.387,0,0,1-2.46-2.076,16.253,16.253,0,0,1-1.72-1.958,13.93,13.93,0,0,1-1.1-1.728,9.233,9.233,0,0,1-.623-1.439,7.6,7.6,0,0,1-.281-1.112,3.63,3.63,0,0,1-.06-0.734c0.01-.177.015-0.277,0.015-0.3a1.449,1.449,0,0,1,.133-0.422,1.133,1.133,0,0,1,.252-0.349l1.972-1.973A0.652,0.652,0,0,1,270.848,30a0.558,0.558,0,0,1,.341.111,1.034,1.034,0,0,1,.252.274l1.585,3.01a0.724,0.724,0,0,1,.075.519,0.93,0.93,0,0,1-.252.475l-0.727.727a0.243,0.243,0,0,0-.051.1,0.366,0.366,0,0,0-.023.111,2.712,2.712,0,0,0,.267.712,6.613,6.613,0,0,0,.548.868,9.6,9.6,0,0,0,1.053,1.179,9.837,9.837,0,0,0,1.185,1.06,6.97,6.97,0,0,0,.867.557,2.33,2.33,0,0,0,.534.215l0.185,0.037a0.364,0.364,0,0,0,.1-0.022,0.253,0.253,0,0,0,.1-0.053l0.845-.86a0.907,0.907,0,0,1,.622-0.237,0.774,0.774,0,0,1,.4.089h0.015l2.86,1.69A0.745,0.745,0,0,1,281.993,41.049Z" transform="translate(-268 -30)"/>
</svg>
