<svg xmlns="http://www.w3.org/2000/svg" width="33" height="23" viewBox="0 0 33 23"><defs><linearGradient id="w53ta" x1="33" x2="0" y1="13" y2="10" gradientUnits="userSpaceOnUse"><stop offset="0" stop-color="#ef5b4d"/><stop offset="1" stop-color="#f78b4d"/></linearGradient></defs><g><g><path d="M24.923 22.999c-1.922 0-3.543-1.318-4.018-3.101H14.73c-.476 1.783-2.097 3.1-4.019 3.1-1.922 0-3.543-1.317-4.019-3.1H3.986c-.574 0-1.04-.468-1.04-1.047 0-.577.466-1.045 1.04-1.045h2.688c.45-1.819 2.09-3.17 4.037-3.17s3.587 1.351 4.037 3.17h6.138c.45-1.819 2.09-3.17 4.037-3.17 1.948 0 3.587 1.351 4.037 3.17h1.96v-5.392l-1.514-1.96h-8.088c-.574 0-1.04-.469-1.04-1.047V2.09H3.986c-.574 0-1.04-.468-1.04-1.045s.466-1.046 1.04-1.046h17.332c.575 0 1.04.469 1.04 1.046V2.09h4.437c.393 0 .753.223.93.575l3.12 6.238h-.002l1.939 2.512c.141.183.218.409.218.641v6.795c0 .577-.466 1.046-1.04 1.046h-3.018C28.467 21.681 26.846 23 24.923 23zm2.08-4.183c0-1.153-.933-2.09-2.08-2.09s-2.08.937-2.08 2.09c0 1.155.933 2.092 2.08 2.092s2.08-.937 2.08-2.092zm-14.212 0c0-1.153-.933-2.09-2.08-2.09s-2.08.937-2.08 2.09c0 1.155.933 2.092 2.08 2.092s2.08-.937 2.08-2.092zM26.154 4.18h-3.796v4.18h5.887zM8.562 13.554c0 .578-.466 1.046-1.04 1.046H2.738c-.574 0-1.04-.468-1.04-1.046 0-.577.466-1.045 1.04-1.045h4.784c.574 0 1.04.468 1.04 1.045zm2.392-4.111c0 .576-.466 1.045-1.04 1.045H1.04C.466 10.488 0 10.02 0 9.443c0-.578.466-1.046 1.04-1.046h8.874c.574 0 1.04.468 1.04 1.046zm1.698-4.113c0 .577-.465 1.046-1.04 1.046H2.738c-.574 0-1.04-.469-1.04-1.046 0-.577.466-1.046 1.04-1.046h8.874c.575 0 1.04.469 1.04 1.046z"/><path fill="url(#w53ta)" d="M24.923 22.999c-1.922 0-3.543-1.318-4.018-3.101H14.73c-.476 1.783-2.097 3.1-4.019 3.1-1.922 0-3.543-1.317-4.019-3.1H3.986c-.574 0-1.04-.468-1.04-1.047 0-.577.466-1.045 1.04-1.045h2.688c.45-1.819 2.09-3.17 4.037-3.17s3.587 1.351 4.037 3.17h6.138c.45-1.819 2.09-3.17 4.037-3.17 1.948 0 3.587 1.351 4.037 3.17h1.96v-5.392l-1.514-1.96h-8.088c-.574 0-1.04-.469-1.04-1.047V2.09H3.986c-.574 0-1.04-.468-1.04-1.045s.466-1.046 1.04-1.046h17.332c.575 0 1.04.469 1.04 1.046V2.09h4.437c.393 0 .753.223.93.575l3.12 6.238h-.002l1.939 2.512c.141.183.218.409.218.641v6.795c0 .577-.466 1.046-1.04 1.046h-3.018C28.467 21.681 26.846 23 24.923 23zm2.08-4.183c0-1.153-.933-2.09-2.08-2.09s-2.08.937-2.08 2.09c0 1.155.933 2.092 2.08 2.092s2.08-.937 2.08-2.092zm-14.212 0c0-1.153-.933-2.09-2.08-2.09s-2.08.937-2.08 2.09c0 1.155.933 2.092 2.08 2.092s2.08-.937 2.08-2.092zM26.154 4.18h-3.796v4.18h5.887zM8.562 13.554c0 .578-.466 1.046-1.04 1.046H2.738c-.574 0-1.04-.468-1.04-1.046 0-.577.466-1.045 1.04-1.045h4.784c.574 0 1.04.468 1.04 1.045zm2.392-4.111c0 .576-.466 1.045-1.04 1.045H1.04C.466 10.488 0 10.02 0 9.443c0-.578.466-1.046 1.04-1.046h8.874c.574 0 1.04.468 1.04 1.046zm1.698-4.113c0 .577-.465 1.046-1.04 1.046H2.738c-.574 0-1.04-.469-1.04-1.046 0-.577.466-1.046 1.04-1.046h8.874c.575 0 1.04.469 1.04 1.046z"/></g></g></svg>