<svg xmlns="http://www.w3.org/2000/svg" width="25" height="32" viewBox="0 0 25 32"><defs><linearGradient id="qakea" x1="23.76" x2=".76" y1="17.15" y2="14.85" gradientUnits="userSpaceOnUse"><stop offset="0" stop-color="#ef5b4d"/><stop offset="1" stop-color="#f78b4d"/></linearGradient></defs><g><g><path d="M24.24 4.453V20.22c0 6.453-11.082 11.383-11.556 11.59a.433.433 0 0 1-.184.037.447.447 0 0 1-.187-.037C11.844 31.602.759 26.672.759 20.219V4.453c0-.25.205-.46.462-.46 9.234 0 10.836-3.522 10.85-3.558a.467.467 0 0 1 .426-.284h.005c.193.004.36.12.427.291.015.034 1.583 3.551 10.85 3.551.256 0 .46.21.462.46zm-2.547 2.51c0-.2-.16-.363-.362-.363-7.254 0-8.483-2.753-8.494-2.778a.363.363 0 0 0-.334-.228H12.5a.365.365 0 0 0-.334.222C12.152 3.844 10.901 6.6 3.67 6.6c-.2 0-.361.163-.361.363v12.339c0 5.048 8.679 8.912 9.043 9.072.05.022.098.03.148.03a.324.324 0 0 0 .144-.03c.37-.16 9.049-4.024 9.049-9.072zM19.96 19.168c0 4.102-7.045 7.233-7.345 7.362a.225.225 0 0 1-.118.027c-.04 0-.117-20.14 0-20.14h.002a.29.29 0 0 1 .272.186c.008.02 1.006 2.254 6.894 2.254.165 0 .295.132.295.293z"/><path fill="url(#qakea)" d="M24.24 4.453V20.22c0 6.453-11.082 11.383-11.556 11.59a.433.433 0 0 1-.184.037.447.447 0 0 1-.187-.037C11.844 31.602.759 26.672.759 20.219V4.453c0-.25.205-.46.462-.46 9.234 0 10.836-3.522 10.85-3.558a.467.467 0 0 1 .426-.284h.005c.193.004.36.12.427.291.015.034 1.583 3.551 10.85 3.551.256 0 .46.21.462.46zm-2.547 2.51c0-.2-.16-.363-.362-.363-7.254 0-8.483-2.753-8.494-2.778a.363.363 0 0 0-.334-.228H12.5a.365.365 0 0 0-.334.222C12.152 3.844 10.901 6.6 3.67 6.6c-.2 0-.361.163-.361.363v12.339c0 5.048 8.679 8.912 9.043 9.072.05.022.098.03.148.03a.324.324 0 0 0 .144-.03c.37-.16 9.049-4.024 9.049-9.072zM19.96 19.168c0 4.102-7.045 7.233-7.345 7.362a.225.225 0 0 1-.118.027c-.04 0-.117-20.14 0-20.14h.002a.29.29 0 0 1 .272.186c.008.02 1.006 2.254 6.894 2.254.165 0 .295.132.295.293z"/></g></g></svg>