<svg xmlns="http://www.w3.org/2000/svg" preserveAspectRatio="xMidYMid" width="37" height="37" viewBox="0 0 37 37"><defs><style>.cls-1{fill:#fff;filter:url(#color-overlay-1);fill-rule:evenodd}</style><filter id="color-overlay-1" filterUnits="userSpaceOnUse"><feFlood flood-color="#ffc000"/><feComposite operator="in" in2="SourceGraphic"/><feBlend in2="SourceGraphic" result="solidFill"/></filter></defs><path d="M32.163 37H4.595A4.597 4.597 0 0 1 0 32.402V4.815C0 2.276 2.087 0 4.625 0h18.5v2.312h-18.5c-1.269 0-2.328 1.233-2.328 2.503v27.587a2.299 2.299 0 0 0 2.298 2.299h27.568c1.269 0 2.524-1.057 2.524-2.326v-18.5H37v18.5C37 34.914 34.701 37 32.163 37zm-14.887-9.985c-.336.336-.756.504-1.19.589L6.027 32.579c-1.132.526-2.039-.489-1.622-1.623l4.972-10.065c.085-.434.253-.855.589-1.191L27.835 1.819a2.296 2.296 0 0 1 3.249 0l4.061 4.064a2.298 2.298 0 0 1 0 3.251L17.276 27.015zM6.605 29.566c-.262.531.245 1.075.811.812l6.212-3.763-3.263-3.264-3.76 6.215zm4.985-8.24L24.557 8.35l4.091 4.035L15.651 25.39a6804.204 6804.204 0 0 0-4.061-4.064zm21.119-14.63l-2.437-2.439a1.147 1.147 0 0 0-1.624 0l-2.379 2.38 4.003 4.122 2.437-2.438a1.15 1.15 0 0 0 0-1.625z" class="cls-1"/></svg>