<svg xmlns="http://www.w3.org/2000/svg" preserveAspectRatio="xMidYMid" width="34" height="35" viewBox="0 0 34 35"><defs><style>.cls-1{fill:#fff;filter:url(#color-overlay-1);fill-rule:evenodd}</style><filter id="color-overlay-1" filterUnits="userSpaceOnUse"><feFlood flood-color="#ffc000"/><feComposite operator="in" in2="SourceGraphic"/><feBlend in2="SourceGraphic" result="solidFill"/></filter></defs><path d="M26.323 27.843c3.299-1.855 5.483-5.057 5.483-8.703 0-2.306-.883-4.429-2.359-6.153.099-.673.166-1.354.166-2.05 0-.318-.035-.629-.056-.942C32.289 12.261 34 15.455 34 19.004c0 3.98-2.15 7.515-5.484 9.793V35l-6.148-3.775c-.852.139-1.728.22-2.626.22-4.223 0-6.909-1.612-9.52-4.157.43.024.857.055 1.294.055.613 0 1.217-.03 1.815-.078 2.061 1.415 3.57 2.266 6.411 2.266.979 0 1.926-.112 2.837-.301l3.744 2.489v-3.876zm-12.065-2.687c-.899 0-2.837-.149-3.689-.288l-6.182 3.569v-6.203C1.521 19.801 0 16.421 0 12.441 0 5.57 6.373 0 14.258 0c6.555 0 13.161 5.57 13.161 12.441s-5.286 12.715-13.161 12.715zm-3.934-2.489c.911.19 2.955.301 3.934.301 6.663 0 10.968-4.651 10.968-10.39 0-5.739-5.514-10.391-10.968-10.391-6.851 0-12.064 4.652-12.064 10.391 0 3.646 1.711 6.537 4.387 8.702v3.876l3.743-2.489zm9.966-8.449a1.643 1.643 0 0 1-1.645-1.64c0-.906.737-1.641 1.645-1.641.909 0 1.645.735 1.645 1.641s-.736 1.64-1.645 1.64zm-6.58 0a1.643 1.643 0 0 1-1.646-1.64c0-.906.737-1.641 1.646-1.641.908 0 1.645.735 1.645 1.641s-.737 1.64-1.645 1.64zm-6.581 0a1.642 1.642 0 0 1-1.645-1.64c0-.906.736-1.641 1.645-1.641s1.645.735 1.645 1.641-.736 1.64-1.645 1.64z" class="cls-1"/></svg>