<svg xmlns="http://www.w3.org/2000/svg" preserveAspectRatio="xMidYMid" width="48" height="36" viewBox="0 0 48 36"><defs><style>.cls-1{fill:#fff;filter:url(#color-overlay-1);fill-rule:evenodd}</style><filter id="color-overlay-1" filterUnits="userSpaceOnUse"><feFlood flood-color="#ffc000"/><feComposite operator="in" in2="SourceGraphic"/><feBlend in2="SourceGraphic" result="solidFill"/></filter></defs><path d="M42 36H6a6 6 0 0 1-6-6V6a6 6 0 0 1 6-6h36a6 6 0 0 1 6 6v24a6 6 0 0 1-6 6zm.667-3.08L28.909 18.471 24 22.372l-5.13-3.877L5.333 32.92c.215.049 37.119.049 37.334 0zM3 30c0 .304.059.591.143.867L16.5 16.5 3 6v24zM4.5 3L24 18 43.5 3h-39zM45 6L31.5 16.5l13.357 14.367A2.96 2.96 0 0 0 45 30V6z" class="cls-1"/></svg>