<svg xmlns="http://www.w3.org/2000/svg" preserveAspectRatio="xMidYMid" width="32" height="35" viewBox="0 0 32 35"><defs><style>.cls-1{fill:#fff;filter:url(#color-overlay-1);fill-rule:evenodd}</style><filter id="color-overlay-1" filterUnits="userSpaceOnUse"><feFlood flood-color="#ffc000"/><feComposite operator="in" in2="SourceGraphic"/><feBlend in2="SourceGraphic" result="solidFill"/></filter></defs><path d="M21.599 30.333C21.069 32.995 18.764 35 16 35c-2.764 0-5.069-2.005-5.599-4.667H0L4.571 21v-9.334C4.571 5.223 9.688 0 16 0s11.429 5.223 11.429 11.666V21L32 30.333H21.599zM16 32.667c1.491 0 2.746-.978 3.219-2.334h-6.438c.473 1.356 1.728 2.334 3.219 2.334zM25.143 21v-9.334c0-5.154-4.094-9.333-9.143-9.333s-9.143 4.179-9.143 9.333V21l-3.429 7h25.143l-3.428-7z" class="cls-1"/></svg>