<svg xmlns="http://www.w3.org/2000/svg" preserveAspectRatio="xMidYMid" width="33" height="35" viewBox="0 0 33 35"><defs><style>.cls-1{fill:#fff;filter:url(#color-overlay-1);fill-rule:evenodd}</style><filter id="color-overlay-1" filterUnits="userSpaceOnUse"><feFlood flood-color="#ffc000"/><feComposite operator="in" in2="SourceGraphic"/><feBlend in2="SourceGraphic" result="solidFill"/></filter></defs><path d="M30.8 35H2.2C.985 35 0 34.025 0 32.823V8.877L28.6.17c.516-.136.939-.238 1.375-.068.565.22.825.555.825 1.156v7.619c1.215 0 2.2.975 2.2 2.177v21.769A2.189 2.189 0 0 1 30.8 35zM28.6 2.347L7.15 8.877H28.6v-6.53zm2.2 20.68v-1.088h-4.4v2.177h4.4v-1.089zM2.2 11.054h27.5c.607 0 1.1.487 1.1 1.089v7.619h-5.5c-.608 0-1.1.487-1.1 1.088v4.354c0 .601.492 1.088 1.1 1.088h5.5v5.442c0 .602-.493 1.089-1.1 1.089H3.3c-.608 0-1.1-.487-1.1-1.089v-20.68z" class="cls-1"/></svg>