<svg width="24" height="24" viewBox="0 0 24 24" fill="none" xmlns="http://www.w3.org/2000/svg">
<g clip-path="url(#clip0)">
<path d="M12.0093 -8.72097e-05C5.38144 -0.00566534 0.00558247 5.36279 4.34305e-06 11.9906C-0.00557378 18.6185 5.36288 23.9944 11.9907 23.9999C18.6177 23.9944 23.9898 18.6269 24 11.9999C24 5.37578 18.6334 0.00549092 12.0093 -8.72097e-05ZM11.9907 22.0031C6.46627 22.0031 1.98764 17.5244 1.98764 11.9999C1.98764 6.47547 6.46627 1.99684 11.9907 1.99684C17.5133 2.00241 21.9882 6.47734 21.9938 11.9999C21.9938 17.5244 17.5152 22.0031 11.9907 22.0031Z" fill="#0EFF51"/>
<path d="M11.9907 22.0031C6.46627 22.0031 1.98764 17.5244 1.98764 11.9999C1.98764 6.47547 6.46627 1.99684 11.9907 1.99684C17.5133 2.00241 21.9882 6.47734 21.9938 11.9999C21.9938 17.5244 17.5152 22.0031 11.9907 22.0031Z" fill="#0EFF51"/>
<path d="M15.2323 11.4148C16.0348 10.9625 16.4685 10.057 16.319 9.14859C16.1332 7.74613 14.4614 7.21668 13.1425 7.10526V4.99692H11.8422V7.0867H10.9691V4.99692H9.6688V7.0867H7.04956V8.43346H8.0248C8.46134 8.43346 8.67495 8.56349 8.67495 8.91641V14.7028C8.67495 15.1858 8.43345 15.3344 8.17339 15.3344H7.17959V16.709H9.70592V18.8452H11.0155V16.709H11.8886V18.8452H13.161V16.709H13.4397C16.1146 16.709 17.0062 15.3994 17.0062 13.6161C16.9849 12.5647 16.2558 11.6601 15.2323 11.4148ZM10.9691 8.51704H11.8979C12.548 8.51704 13.8298 8.62851 13.8298 9.68732C13.8743 10.3783 13.3737 10.9839 12.6873 11.0712H10.9691V8.51704ZM12.4087 15.2043V15.195H10.9691V12.4086H12.6409C13.031 12.4086 14.4985 12.5387 14.4985 13.5789C14.4985 14.6192 13.8019 15.2043 12.4087 15.2043Z" fill="black"/>
</g>
<defs>
<clipPath id="clip0">
<rect width="24" height="24" fill="white"/>
</clipPath>
</defs>
</svg>
