<svg width="113" height="110" viewBox="0 0 113 110" fill="none" xmlns="http://www.w3.org/2000/svg">
<path d="M112.5 95.5C112.5 97.2225 111.13 99 108.301 100.717C105.501 102.415 101.418 103.962 96.3272 105.269C86.154 107.88 72.0727 109.5 56.5 109.5C40.9273 109.5 26.846 107.88 16.6728 105.269C11.5823 103.962 7.49859 102.415 4.69942 100.717C1.87038 99 0.5 97.2225 0.5 95.5C0.5 93.7775 1.87038 92 4.69942 90.2834C7.49859 88.585 11.5823 87.0376 16.6728 85.7313C26.846 83.1204 40.9273 81.5 56.5 81.5C72.0727 81.5 86.154 83.1204 96.3272 85.7313C101.418 87.0376 105.501 88.585 108.301 90.2834C111.13 92 112.5 93.7775 112.5 95.5Z" stroke="#0EFF51"/>
<path d="M82.25 29.1667C82.25 49.5834 56 67.0834 56 67.0834C56 67.0834 29.75 49.5834 29.75 29.1667C29.75 22.2048 32.5156 15.528 37.4384 10.6051C42.3613 5.6823 49.0381 2.91669 56 2.91669C62.9619 2.91669 69.6387 5.6823 74.5616 10.6051C79.4844 15.528 82.25 22.2048 82.25 29.1667Z" stroke="#0EFF51" stroke-width="2" stroke-linecap="round" stroke-linejoin="round"/>
<path d="M56 37.9167C60.8325 37.9167 64.75 33.9992 64.75 29.1667C64.75 24.3342 60.8325 20.4167 56 20.4167C51.1675 20.4167 47.25 24.3342 47.25 29.1667C47.25 33.9992 51.1675 37.9167 56 37.9167Z" stroke="#0EFF51" stroke-width="2" stroke-linecap="round" stroke-linejoin="round"/>
</svg>
