<svg width="22" height="18" viewBox="0 0 22 18" fill="none" xmlns="http://www.w3.org/2000/svg">
<path d="M2.11157 5.32811C2.38986 5.52449 3.22875 6.10774 4.62828 7.07757C6.02785 8.04739 7.10001 8.79413 7.84482 9.31783C7.92665 9.37524 8.1005 9.50002 8.36645 9.69236C8.63245 9.88483 8.85347 10.0404 9.02934 10.159C9.20534 10.2776 9.41811 10.4106 9.66785 10.5579C9.91751 10.7051 10.1529 10.8157 10.3738 10.889C10.5949 10.9629 10.7994 10.9995 10.9877 10.9995H11H11.0124C11.2006 10.9995 11.4053 10.9628 11.6263 10.889C11.8472 10.8157 12.0827 10.7049 12.3322 10.5579C12.5818 10.4105 12.7945 10.2776 12.9705 10.159C13.1465 10.0404 13.3674 9.88483 13.6335 9.69236C13.8994 9.49985 14.0734 9.37524 14.1553 9.31783C14.9081 8.79413 16.8235 7.4641 19.9007 5.32785C20.4982 4.91062 20.9973 4.40717 21.3983 3.81785C21.7996 3.2288 22 2.61084 22 1.96433C22 1.42408 21.8055 0.961612 21.4167 0.576976C21.0279 0.192254 20.5675 0 20.0357 0H1.9642C1.33404 0 0.849081 0.212765 0.509423 0.638294C0.169808 1.06391 0 1.59591 0 2.23425C0 2.74986 0.225149 3.3086 0.675231 3.91013C1.12527 4.51171 1.60421 4.98441 2.11157 5.32811Z" fill="white"/>
<path d="M20.7722 6.64152C18.0879 8.45832 16.0497 9.87028 14.6585 10.8771C14.192 11.2207 13.8136 11.4889 13.5229 11.6811C13.2323 11.8735 12.8458 12.0699 12.3628 12.2703C11.88 12.4711 11.43 12.5711 11.0125 12.5711H11H10.9877C10.5703 12.5711 10.1201 12.4711 9.63727 12.2703C9.15447 12.0699 8.76768 11.8735 8.47713 11.6811C8.18666 11.4889 7.80809 11.2207 7.34162 10.8771C6.23665 10.0669 4.20283 8.65483 1.24008 6.64152C0.773443 6.33072 0.360126 5.97446 0 5.57349V15.321C0 15.8615 0.192254 16.3237 0.576976 16.7084C0.961612 17.0932 1.42412 17.2855 1.96433 17.2855H20.0358C20.5759 17.2855 21.0384 17.0932 21.423 16.7084C21.8079 16.3236 22 15.8615 22 15.321V5.57349C21.648 5.96616 21.2389 6.32242 20.7722 6.64152Z" fill="white"/>
</svg>
