<svg width="24" height="24" viewBox="0 0 24 24" fill="none" xmlns="http://www.w3.org/2000/svg">
<path d="M19.0862 9.4654H19.0525C18.5922 9.46284 18.1475 9.63198 17.805 9.9397C17.5279 9.17266 16.8235 8.62128 15.9985 8.62128C15.4929 8.62483 15.0099 8.83241 14.6596 9.1973C14.3375 8.54519 13.6913 8.10283 12.9483 8.10283H12.9124C12.5142 8.09671 12.1257 8.22623 11.8106 8.46989V3.82093C11.8106 2.69747 10.936 1.78357 9.87205 1.78357C8.80931 1.78357 7.93917 2.69688 7.93858 3.81955L7.92971 13.0433L7.40771 12.4094C6.94997 11.8395 6.27617 11.4856 5.54717 11.4322C4.83316 11.3833 4.13078 11.6317 3.60641 12.119L3.15222 12.4953C3.00575 12.6167 2.96396 12.8237 3.05168 12.9925L7.46763 21.4808C8.27509 23.032 9.81134 23.9997 11.4769 23.9997H16.4535V23.9954C18.9768 23.9954 21.0226 21.8059 21.0252 19.1174C21.0262 17.9145 21.0216 17.0179 21.0224 16.2913C21.025 14.3472 21.023 13.6298 21.0181 11.488C21.0155 10.3671 20.1472 9.4654 19.0862 9.4654ZM20.2091 16.2885C20.2083 17.0154 20.2071 17.9155 20.2059 19.1184C20.2037 21.3623 18.5098 23.1921 16.4298 23.1921H11.4771C10.1137 23.1921 8.85189 22.3907 8.18421 21.1078L3.91847 12.9109L4.12901 12.7352C4.13433 12.7309 4.13946 12.7258 4.14458 12.7212C4.50671 12.3804 4.99402 12.2053 5.4902 12.2379C5.99742 12.2767 6.46542 12.5247 6.7826 12.9223L8.01842 14.426C8.12645 14.5579 8.30584 14.6074 8.4663 14.55C8.62677 14.4927 8.73401 14.3405 8.73401 14.1701L8.7413 3.81994C8.7417 3.1422 9.25424 2.59082 9.87245 2.59082C10.4907 2.59082 11.0032 3.14279 11.0032 3.82093V10.0615C11.0032 10.0832 11.0022 10.1051 11.0022 10.1272C11.0022 10.1366 11.0032 10.1463 11.0032 10.1556V12.8237C11.0032 13.0467 11.184 13.2275 11.4069 13.2275C11.6299 13.2275 11.8106 13.0467 11.8106 12.8237V10.0751C11.8106 9.42124 12.3102 8.91028 12.9124 8.91028H12.9483C13.5669 8.91028 14.0816 9.44943 14.0816 10.1276V12.569C14.0816 12.792 14.2624 12.9728 14.4853 12.9728C14.7083 12.9728 14.8891 12.792 14.8891 12.569V10.6535C14.8891 9.97518 15.3791 9.42341 16.0011 9.42341C16.6195 9.42341 17.1096 9.97499 17.1096 10.6535V12.4606C17.1096 12.6836 17.2903 12.8643 17.5133 12.8643C17.7362 12.8643 17.917 12.6836 17.917 12.4606V11.4821C17.917 10.8037 18.4339 10.2729 19.0525 10.2729H19.0862C19.7032 10.2729 20.2061 10.8128 20.2077 11.489C20.2126 13.6292 20.2116 14.3458 20.2091 16.2885Z" fill="#808091"/>
<path d="M6.65629 3.99547C6.87925 3.99547 7.06001 3.8147 7.06001 3.59174C7.06652 2.05116 8.31732 0.805875 9.85771 0.805875C11.3983 0.805875 12.6489 2.05116 12.6554 3.59174C12.6554 3.8147 12.8362 3.99547 13.0591 3.99547C13.2821 3.99547 13.4629 3.8147 13.4629 3.59174C13.4554 1.60584 11.8436 0 9.85771 0C7.872 0 6.26005 1.60584 6.25256 3.59174C6.25256 3.8147 6.43333 3.99547 6.65629 3.99547Z" fill="#808091"/>
</svg>
