<svg width="24" height="21" viewBox="0 0 24 21" fill="none" xmlns="http://www.w3.org/2000/svg">
<path d="M0.423911 10.0196L5.95399 12.0836L8.09447 18.9673C8.23143 19.4082 8.77055 19.5712 9.12839 19.2786L12.211 16.7656C12.5341 16.5024 12.9943 16.4892 13.332 16.7344L18.8918 20.7709C19.2746 21.0492 19.817 20.8394 19.913 20.3768L23.9858 0.785557C24.0906 0.280277 23.5942 -0.141243 23.113 0.0448371L0.417431 8.80012C-0.142649 9.01612 -0.137769 9.80908 0.423911 10.0196ZM7.74951 10.9848L18.5574 4.32828C18.7516 4.209 18.9514 4.47164 18.7846 4.62636L9.86503 12.9176C9.55151 13.2094 9.34927 13.6 9.29199 14.0239L8.98815 16.2756C8.94791 16.5762 8.52559 16.606 8.44263 16.3151L7.27407 12.2091C7.14023 11.7408 7.33527 11.2405 7.74951 10.9848Z" fill="white"/>
</svg>
