<svg width="72" height="72" viewBox="0 0 72 72" fill="none" xmlns="http://www.w3.org/2000/svg">
<path d="M61.1023 10.8977C54.398 4.19327 45.4815 0.5 36 0.5C26.5185 0.5 17.602 4.19327 10.8977 10.8977C4.19327 17.6022 0.5 26.5185 0.5 36C0.5 45.4815 4.19327 54.398 10.8977 61.1023C17.602 67.8067 26.5185 71.5 36 71.5C45.4815 71.5 54.398 67.8067 61.1023 61.1023C67.8067 54.398 71.5 45.4815 71.5 36C71.5 26.5185 67.8067 17.6022 61.1023 10.8977ZM36 68.266C18.2088 68.266 3.73404 53.7912 3.73404 36C3.73404 18.209 18.2088 3.73404 36 3.73404C53.7912 3.73404 68.266 18.209 68.266 36C68.266 53.7912 53.7912 68.266 36 68.266Z" fill="white" stroke="white"/>
<path d="M40.0336 36.7055L54.4298 22.3094C54.866 21.8731 54.866 21.1658 54.4298 20.7298L51.2704 17.5704C51.061 17.361 50.7769 17.2432 50.4806 17.2432C50.1844 17.2432 49.9002 17.3608 49.6908 17.5704L38.3693 28.8919C37.933 29.3281 37.933 30.0354 38.3693 30.4715C38.8055 30.9078 39.5128 30.9078 39.9489 30.4715L50.4805 19.9398L52.0602 21.5196L39.5749 34.0049C38.9835 32.9492 37.9384 32.1815 36.7054 31.9664L27.0482 22.3092C26.612 21.873 25.9047 21.873 25.4686 22.3092L22.3092 25.4686C21.873 25.9048 21.873 26.6121 22.3092 27.0482L31.9664 36.7054C32.0468 37.1662 32.2041 37.6008 32.4251 37.9953L20.7364 49.684C20.3002 50.1202 20.3002 50.8275 20.7364 51.2636C20.9545 51.4817 21.2404 51.5908 21.5262 51.5908C21.812 51.5908 22.098 51.4818 22.316 51.2636L34.0047 39.5749C34.5955 39.906 35.2759 40.0956 36 40.0956C38.0178 40.0958 39.6982 38.6288 40.0336 36.7055ZM26.2585 24.6788L34.0047 32.425C33.3436 32.7954 32.7953 33.3436 32.4249 34.0047L24.6788 26.2586L26.2585 24.6788ZM36 37.8617C35.4884 37.8617 35.0245 37.6541 34.6877 37.319C34.3459 36.9756 34.1383 36.5116 34.1383 36C34.1383 34.9734 34.9734 34.1383 36 34.1383C37.0266 34.1383 37.8617 34.9734 37.8617 36C37.8617 37.0267 37.0266 37.8617 36 37.8617Z" fill="white"/>
</svg>
