<svg width="89" height="55" viewBox="0 0 89 55" fill="none" xmlns="http://www.w3.org/2000/svg">
<path d="M69.4852 37.7115C67.7582 34.1108 61.5796 29.1129 55.6102 24.2837C52.2808 21.5923 49.1347 19.0476 47.129 17.0419C46.6266 16.5359 45.875 16.3745 45.2114 16.6129C43.9757 17.0603 43.2129 17.405 42.6117 17.6726C41.6951 18.0832 41.3871 18.2226 40.1512 18.3472C39.6048 18.4022 39.1136 18.6956 38.8092 19.1502C36.2167 23.0259 33.5327 22.6959 31.7396 22.0947C31.1676 21.9041 31.065 21.6583 31.01 21.4237C30.625 19.814 32.5574 16.0665 35.0617 13.5621C41.0203 7.59992 44.093 6.10749 50.5831 9.00796C57.9459 12.3007 65.3235 14.8785 65.3969 14.9041C66.3613 15.2377 67.3989 14.7317 67.7326 13.7747C68.0626 12.8177 67.5602 11.7726 66.6031 11.439C66.5298 11.4134 59.299 8.88695 52.0828 5.65648C43.6749 1.89799 39.062 4.37305 32.4729 10.966C29.9648 13.4741 26.5583 18.5488 27.4383 22.2707C27.816 23.8547 28.9308 25.0282 30.588 25.5744C34.7425 26.9458 38.5338 25.633 41.3573 21.8857C42.5233 21.7061 43.1578 21.4421 44.111 21.0131C44.4556 20.859 44.859 20.6794 45.3944 20.463C47.4919 22.4321 50.3226 24.7238 53.3036 27.1328C58.6938 31.4925 64.8063 36.4355 66.1814 39.2955C66.8598 40.7072 66.13 41.6276 65.6349 42.0492C64.9089 42.6726 63.9153 42.8706 63.3763 42.4928C62.7823 42.0858 62.0086 42.0602 61.3962 42.4268C60.7802 42.7934 60.4356 43.4865 60.5126 44.1979C60.6372 45.3639 59.5702 46.0313 59.1082 46.2623C57.9347 46.8563 56.7101 46.7537 56.2517 46.3283C55.7383 45.8517 55.0013 45.7123 54.3487 45.9543C53.696 46.1999 53.2412 46.8013 53.1752 47.498C53.0652 48.7006 52.1742 49.8556 51.0118 50.3066C50.4508 50.5193 49.6367 50.6477 48.9071 49.9803C48.4525 49.5696 47.8217 49.4118 47.2315 49.5548C46.6338 49.7015 46.1534 50.1343 45.9444 50.7099C45.8748 50.8933 45.717 51.3333 44.001 51.3333C42.78 51.3333 40.5835 50.5083 39.5093 49.7969C38.2222 48.9498 30.1516 42.9291 23.1812 37.0915C22.2022 36.2665 20.5082 34.4991 19.0121 32.937C17.6847 31.551 16.4711 30.2933 15.8476 29.7653C15.0666 29.1053 13.9116 29.2043 13.2626 29.9817C12.61 30.7554 12.7052 31.9142 13.479 32.5668C14.0474 33.0472 15.1474 34.2094 16.3611 35.4745C17.9965 37.1831 19.6867 38.9506 20.8236 39.904C27.6511 45.6205 35.8573 51.7917 37.4926 52.8659C38.842 53.7533 41.7497 55 44.0012 55C45.8088 55 47.1986 54.5856 48.1629 53.7753C49.4535 54.2778 50.9203 54.2814 52.332 53.7313C54.0004 53.0859 55.3717 51.7843 56.1491 50.2076C57.5937 50.5157 59.2476 50.2993 60.7508 49.544C62.2213 48.8034 63.2845 47.6704 63.8125 46.3465C65.2719 46.4235 66.7752 45.9065 68.0182 44.8395C70.1232 43.0392 70.7025 40.2379 69.4852 37.7115Z" fill="white"/>
<path d="M36.6676 7.33228H20.1671C19.1551 7.33228 18.3337 8.15369 18.3337 9.16572C18.3337 10.1777 19.1551 10.9992 20.1671 10.9992H36.6676C37.6796 10.9992 38.501 10.1777 38.501 9.16572C38.501 8.15369 37.6796 7.33228 36.6676 7.33228Z" fill="white"/>
<path d="M74.857 33.8101C74.2886 32.9705 73.1519 32.7394 72.3123 33.3115L66.9515 36.9122C66.1119 37.4768 65.8881 38.6172 66.4529 39.4568C66.8085 39.9812 67.3879 40.2673 67.9783 40.2673C68.3267 40.2673 68.6824 40.1683 68.9978 39.9556L74.3585 36.3549C75.198 35.7901 75.4216 34.6499 74.857 33.8101Z" fill="white"/>
<path d="M63.4753 42.5589C62.1626 41.5249 56.2921 35.5151 52.662 31.731C51.9616 30.9976 50.7993 30.972 50.0695 31.676C49.3361 32.3764 49.3141 33.5387 50.0145 34.2685C50.957 35.2511 59.2694 43.9157 61.2018 45.4412C61.5354 45.7052 61.9388 45.8336 62.3349 45.8336C62.8739 45.8336 63.4129 45.5916 63.7795 45.1332C64.4067 44.341 64.2711 43.1859 63.4753 42.5589Z" fill="white"/>
<path d="M56.1491 46.2368C53.9526 44.4803 48.4343 38.6172 47.1875 37.2605C46.4981 36.5125 45.343 36.4685 44.595 37.1505C43.8506 37.8362 43.7994 38.9986 44.485 39.743C44.551 39.8126 51.1366 46.9226 53.8573 49.1006C54.1947 49.3682 54.6017 49.5003 55.0013 49.5003C55.5367 49.5003 56.0719 49.2619 56.4349 48.8146C57.0659 48.0224 56.9375 46.8674 56.1491 46.2368Z" fill="white"/>
<path d="M48.8523 49.9292C46.2378 47.7255 40.8881 42.0309 39.843 40.9125C39.15 40.1719 37.9876 40.1315 37.2506 40.8245C36.5099 41.5175 36.4732 42.6762 37.1626 43.417C38.666 45.0266 43.7847 50.4536 46.4872 52.7342C46.8318 53.0238 47.2498 53.1668 47.6678 53.1668C48.1885 53.1668 48.7093 52.9432 49.0723 52.5142C49.7249 51.7368 49.6259 50.5818 48.8523 49.9292Z" fill="white"/>
<path d="M21.4286 4.16799C18.2861 1.19052 5.72015 0.226108 1.94344 0.00249236C1.42282 -0.0231177 0.942415 0.149106 0.575796 0.497506C0.209005 0.842125 0 1.32614 0 1.83215V34.833C0 35.845 0.821412 36.6664 1.83344 36.6664H12.8337C13.6257 36.6664 14.3298 36.1568 14.5754 35.4014C14.843 34.58 21.1609 15.1903 21.9932 5.65664C22.041 5.09924 21.8356 4.54922 21.4286 4.16799ZM11.4953 32.9997H3.66671V3.79759C9.55925 4.26321 15.9174 5.27524 18.2275 6.39727C17.2558 14.4275 12.8593 28.6949 11.4953 32.9997Z" fill="white"/>
<path d="M86.1689 3.66565C71.7731 3.66565 63.7869 7.35075 63.4533 7.50475C62.9767 7.72836 62.6209 8.14277 62.4743 8.64517C62.3276 9.14757 62.4009 9.68659 62.6759 10.1338C64.9419 13.7823 72.0371 34.0448 73.4012 38.9876C73.6212 39.7832 74.3436 40.3332 75.1686 40.3332H86.1689C87.1809 40.3332 88.0023 39.5118 88.0023 38.4998V5.49892C88.0023 4.48328 87.1809 3.66565 86.1689 3.66565ZM84.3356 36.6665H76.54C74.802 31.005 69.6684 16.2426 66.8048 10.1412C69.6024 9.19158 75.6124 7.55975 84.3356 7.35453V36.6665Z" fill="white"/>
</svg>
