<svg xmlns="http://www.w3.org/2000/svg" width="423" height="78" viewBox="0 0 423 78"><g><g><path fill="#e7e8ec" d="M65.838 2.332a1683.48 1683.48 0 0 1 20.018-.994c6.63-.288 13.217-.531 19.76-.728A1382 1382 0 0 1 125.12.163c6.463-.102 12.888-.156 19.285-.165 25.583-.046 50.744.67 75.989 1.694 50.421 2.129 101.348 4.892 152.727 4.847 16.42.147 29.773 2.625 37.675 7.431 4.043 2.42 6.975 5.478 9.008 9.22a25.687 25.687 0 0 1 2.343 6.112 28.337 28.337 0 0 1 .624 3.427 29.88 29.88 0 0 1 .216 3.663c-.008 10.259-2.777 20.198-11.79 27.24-4.463 3.547-10.434 6.429-17.776 8.53-3.665 1.051-7.664 1.908-11.932 2.547-2.134.32-4.336.584-6.594.79a123.144 123.144 0 0 1-6.935.435c-7.225.338-14.387.617-21.468.842a1518.8 1518.8 0 0 1-20.996.52 1638.47 1638.47 0 0 1-20.492.24c-6.75.038-13.42.037-20.023.004-26.414-.135-51.783-.746-77.205-1.405-50.924-1.37-101.626-2.8-157.97-3.012-19.192.031-33.112-3.71-40.51-10.507-3.792-3.398-6.196-7.59-7.59-12.347-.696-2.375-1.14-4.887-1.341-7.478a40.746 40.746 0 0 1-.026-5.927c.047-.666.11-1.333.193-2a20.455 20.455 0 0 1-.025-3.819c.11-1.228.336-2.41.672-3.547.673-2.275 1.789-4.368 3.303-6.286 3.03-3.837 7.656-6.976 13.552-9.535 11.782-5.106 28.69-7.964 47.803-9.345z"/></g></g></svg>