<?xml version="1.0" encoding="UTF-8" standalone="no"?>
<svg
   xmlns:dc="http://purl.org/dc/elements/1.1/"
   xmlns:cc="http://creativecommons.org/ns#"
   xmlns:rdf="http://www.w3.org/1999/02/22-rdf-syntax-ns#"
   xmlns:svg="http://www.w3.org/2000/svg"
   xmlns="http://www.w3.org/2000/svg"
   xmlns:sodipodi="http://sodipodi.sourceforge.net/DTD/sodipodi-0.dtd"
   xmlns:inkscape="http://www.inkscape.org/namespaces/inkscape"
   width="2028"
   height="892"
   viewBox="0 0 2028 892"
   version="1.1"
   id="svg4636"
   sodipodi:docname="reviews-decor2.svg"
   inkscape:version="0.92.4 (5da689c313, 2019-01-14)">
  <metadata
     id="metadata4640">
    <rdf:RDF>
      <cc:Work
         rdf:about="">
        <dc:format>image/svg+xml</dc:format>
        <dc:type
           rdf:resource="http://purl.org/dc/dcmitype/StillImage" />
        <dc:title></dc:title>
      </cc:Work>
    </rdf:RDF>
  </metadata>
  <sodipodi:namedview
     pagecolor="#ffffff"
     bordercolor="#666666"
     borderopacity="1"
     objecttolerance="10"
     gridtolerance="10"
     guidetolerance="10"
     inkscape:pageopacity="0"
     inkscape:pageshadow="2"
     inkscape:window-width="1920"
     inkscape:window-height="1017"
     id="namedview4638"
     showgrid="false"
     inkscape:zoom="0.37475345"
     inkscape:cx="1129.2818"
     inkscape:cy="679.01044"
     inkscape:window-x="-8"
     inkscape:window-y="-8"
     inkscape:window-maximized="1"
     inkscape:current-layer="svg4636" />
  <defs
     id="defs4626">
    <linearGradient
       id="uuaea"
       x1="1116.99"
       x2="910.98"
       y1="891.95"
       y2=".05"
       gradientUnits="userSpaceOnUse">
      <stop
         offset="0"
         stop-color="#6e3fbc"
         id="stop4621" />
      <stop
         offset="1"
         stop-color="#4fb5d6"
         id="stop4623" />
    </linearGradient>
  </defs>
  <g
     id="g4634"
     transform="matrix(1.0999995,0,0,1,-104.06694,-10.673685)">
    <g
       id="g4632">
      <path
         d="m 99.16,2.02 c 133.846,128.204 287.574,184.354 451.243,212.24 163.67,27.182 337.28,26.093 510.889,23.525 173.61,-2.535 347.22,-7.11 510.889,13.853 163.669,21.721 317.397,68.973 451.243,187.625 1.643,1.462 2.95,3.645 3.74,5.983 0.394,1.168 0.659,2.376 0.77,3.553 0.028,0.294 0.047,0.586 0.055,0.875 0.01,0.289 0.01,0.575 -0.01,0.856 -0.023,0.564 -0.087,1.11 -0.196,1.632 a 152603.2,152603.2 0 0 1 -91.462,436.158 c -0.434,2.055 -1.489,3.262 -2.847,3.56 -0.17,0.037 -0.344,0.06 -0.522,0.069 a 3.484,3.484 0 0 1 -0.547,-0.017 4.405,4.405 0 0 1 -1.154,-0.294 c -0.79,-0.314 -1.615,-0.861 -2.437,-1.652 C 1794.973,761.783 1641.245,705.633 1477.576,677.747 1313.907,650.567 1140.297,651.657 966.687,654.225 793.077,656.759 619.467,661.333 455.799,640.37 292.129,618.648 138.402,571.395 4.555,452.742 2.912,451.28 1.605,449.097 0.815,446.76 a 15.923,15.923 0 0 1 -0.77,-3.554 12.751,12.751 0 0 1 -0.05,-1.732 c 0.023,-0.563 0.088,-1.11 0.196,-1.63 A 152604.03,152604.03 0 0 1 91.653,3.685 c 0.434,-2.055 1.49,-3.262 2.847,-3.56 0.17,-0.038 0.344,-0.06 0.522,-0.07 0.179,-0.008 0.362,-0.002 0.548,0.017 0.372,0.04 0.758,0.138 1.153,0.295 0.79,0.313 1.616,0.861 2.437,1.651 z"
         id="path4628"
         inkscape:connector-curvature="0"
         style="fill:#e8e8e8" />
      <path
         d="m 99.16,2.02 c 133.846,128.204 287.574,184.354 451.243,212.24 163.67,27.182 337.28,26.093 510.889,23.525 173.61,-2.535 347.22,-7.11 510.889,13.853 163.669,21.721 317.397,68.973 451.243,187.625 1.643,1.462 2.95,3.645 3.74,5.983 0.394,1.168 0.659,2.376 0.77,3.553 0.028,0.294 0.047,0.586 0.055,0.875 0.01,0.289 0.01,0.575 -0.01,0.856 -0.023,0.564 -0.087,1.11 -0.196,1.632 a 152603.2,152603.2 0 0 1 -91.462,436.158 c -0.434,2.055 -1.489,3.262 -2.847,3.56 -0.17,0.037 -0.344,0.06 -0.522,0.069 a 3.484,3.484 0 0 1 -0.547,-0.017 4.405,4.405 0 0 1 -1.154,-0.294 c -0.79,-0.314 -1.615,-0.861 -2.437,-1.652 C 1794.973,761.783 1641.245,705.633 1477.576,677.747 1313.907,650.567 1140.297,651.657 966.687,654.225 793.077,656.759 619.467,661.333 455.799,640.37 292.129,618.648 138.402,571.395 4.555,452.742 2.912,451.28 1.605,449.097 0.815,446.76 a 15.923,15.923 0 0 1 -0.77,-3.554 12.751,12.751 0 0 1 -0.05,-1.732 c 0.023,-0.563 0.088,-1.11 0.196,-1.63 A 152604.03,152604.03 0 0 1 91.653,3.685 c 0.434,-2.055 1.49,-3.262 2.847,-3.56 0.17,-0.038 0.344,-0.06 0.522,-0.07 0.179,-0.008 0.362,-0.002 0.548,0.017 0.372,0.04 0.758,0.138 1.153,0.295 0.79,0.313 1.616,0.861 2.437,1.651 z"
         id="path4630"
         style="fill:url(#uuaea)"
         inkscape:connector-curvature="0" />
    </g>
  </g>
</svg>
