<svg xmlns="http://www.w3.org/2000/svg" width="256" height="93" viewBox="0 0 256 93"><g><g><path fill="#9008ef" d="M45.624 3.507c3.85-.59 7.645-1.104 11.387-1.542A294.3 294.3 0 0 1 68.094.876a284.263 284.263 0 0 1 21.46-.88c14.074-.055 27.854.908 41.896 2.297 27.976 2.842 57.32 7.01 87.577 8.368 9.602.559 19.206 5.113 26.075 11.806 3.45 3.35 6.27 7.226 8.195 11.484a30.833 30.833 0 0 1 2.16 6.684 28.678 28.678 0 0 1 .525 4.476 28.39 28.39 0 0 1-.035 2.803c-.598 10.222-5.45 20.005-13.513 28.267-3.996 4.095-8.714 7.74-13.76 10.48-2.523 1.368-5.126 2.508-7.764 3.351a36.487 36.487 0 0 1-3.976 1.034 32.59 32.59 0 0 1-2.997.454 29.79 29.79 0 0 1-1 .086c-4.107.398-8.134.702-12.087.923-3.953.222-7.833.36-11.649.429-7.633.137-15.01-.007-22.244-.327-14.459-.648-28.383-1.977-42.52-3.351-28.284-2.814-57.205-5.637-89.495-5.847-10.865.064-20.381-4.485-26.563-11.43-3.11-3.49-5.44-7.617-6.852-12.244A35.211 35.211 0 0 1 .13 52.442a36.78 36.78 0 0 1-.123-3.892 37.726 37.726 0 0 1 .3-4.031C.95 23.189 24.353 7.394 45.624 3.507z"/></g></g></svg>