<svg width="81" height="81" viewBox="0 0 81 81" fill="none" xmlns="http://www.w3.org/2000/svg">
<path d="M79.9471 73.595H1.05286C0.471261 73.595 0 73.1237 0 72.5421V68.0498C0 67.4682 0.471261 66.9969 1.05286 66.9969H2.33398V38.0786H1.05286C0.471261 38.0786 0 37.6074 0 37.0258C0 36.4441 0.471261 35.9729 1.05286 35.9729H21.9951V8.45783C21.9951 7.87623 22.4664 7.40497 23.048 7.40497H57.6791C58.2607 7.40497 58.732 7.87623 58.732 8.45783V35.9725H79.9471C80.5287 35.9725 81 36.4437 81 37.0253C81 37.6069 80.5287 38.0782 79.9471 38.0782H78.7014V66.9969H79.9471C80.5287 66.9969 81 67.4682 81 68.0498V72.5421C81 73.1237 80.5287 73.595 79.9471 73.595ZM2.10572 71.4893H78.8943V69.1026H2.10572V71.4893ZM73.0159 66.9969H76.5957V38.0786H73.0159V66.9969ZM66.0279 66.9969H70.9102V38.0786H66.0279V66.9969ZM59.0398 66.9969H63.9222V38.0786H59.0398V66.9969ZM52.0522 66.9969H56.6263V38.0786H52.0522V66.9969ZM45.0642 66.9969H49.9465V38.0786H45.0642V66.9969ZM38.0765 66.9969H42.9584V38.0786H38.0765V66.9969ZM31.0885 66.9969H35.9708V38.0786H31.0885V66.9969ZM24.1008 66.9969H28.9832V38.0786H24.1008V66.9969ZM17.1128 66.9969H21.9947V38.0786H17.1128V66.9969ZM10.1252 66.9969H15.0075V38.0786H10.1252V66.9969ZM4.43971 66.9969H8.01944V38.0786H4.43971V66.9969ZM54.1912 35.9729H56.6263V9.51069H24.1008V35.9725H26.5363V13.0201C26.5363 12.4385 27.0076 11.9672 27.5892 11.9672H38.3987C38.9803 11.9672 39.4516 12.4385 39.4516 13.0201V35.9725H41.2764V13.0201C41.2764 12.4385 41.7476 11.9672 42.3292 11.9672H53.1388C53.7204 11.9672 54.1916 12.4385 54.1916 13.0201V35.9729H54.1912ZM43.3817 35.9607H52.0855V14.0734H43.3817V35.9607ZM28.6416 35.9607H37.3454V14.0734H28.6416V35.9607Z" fill="#7B7F91"/>
</svg>
