<svg width="71" height="71" viewBox="0 0 71 71" fill="none" xmlns="http://www.w3.org/2000/svg">
<g clip-path="url(#clip0)">
<path d="M53.3995 62.106L67.3377 52.8058L38.6727 9.35656C35.4301 3.76743 29.38 0 22.4665 0H3.74414V71H41.1888V67.7033L53.9818 64.288L53.3995 62.106ZM52.2663 57.8608L49.871 48.8878L56.719 44.2645L61.586 51.6423L52.2663 57.8608ZM45.1951 31.3756L43.1427 23.6863L47.2866 29.9678L45.1951 31.3756ZM49.5779 33.4405L54.4276 40.7923L48.735 44.635L46.3305 35.6262L49.5779 33.4405ZM42.2077 36.3131L41.1888 36.6224V32.4963L42.2077 36.3131ZM37.0286 40.8649H7.9043V32.0597H37.0286V40.8649ZM37.0286 45.025V53.8301H7.9043V45.025H37.0286ZM41.1888 40.9705L43.2813 40.3346L45.5396 48.793L41.1888 50.0031V40.9705ZM22.4665 4.16016C27.8552 4.16016 32.57 7.1026 35.0883 11.4653L35.0824 11.4686L35.1354 11.5493C35.7199 12.5769 36.1825 13.6819 36.5037 14.8455L36.4788 14.8525L36.7405 15.8341C36.9295 16.7679 37.0286 17.7337 37.0286 18.7223V27.8996H7.9043V4.16016H22.4665ZM7.9043 66.8398V57.9903H37.0286V66.8398H7.9043ZM41.1888 63.398V54.3215L46.6127 52.8129L48.89 61.3417L41.1888 63.398Z" fill="#FF9900"/>
<path d="M20.6518 18.4979C21.2217 18.8277 21.8446 18.9843 22.4605 18.9843C23.7124 18.9843 24.9322 18.3359 25.6034 17.1761C26.6039 15.4465 26.0107 13.2251 24.2817 12.2246H24.2811C22.551 11.2241 20.3306 11.8172 19.3301 13.5463C18.3291 15.2759 18.9222 17.4974 20.6518 18.4979Z" fill="#FF9900"/>
</g>
<defs>
<clipPath id="clip0">
<rect width="71" height="71" fill="white"/>
</clipPath>
</defs>
</svg>
