<svg width="81" height="81" viewBox="0 0 81 81" fill="none" xmlns="http://www.w3.org/2000/svg">
<path d="M79.65 78.3H67.5V1.35C67.5 0.604468 66.8955 0 66.15 0H14.85C14.1045 0 13.5 0.604468 13.5 1.35V78.3H1.35C0.604468 78.3 0 78.9045 0 79.65C0 80.3955 0.604468 81 1.35 81H79.65C80.3955 81 81 80.3955 81 79.65C81 78.9045 80.3955 78.3 79.65 78.3ZM21.6 78.3V8.1H59.4V78.3H21.6ZM62.1 78.3V6.75C62.1 6.00447 61.4955 5.4 60.75 5.4H20.25C19.5045 5.4 18.9 6.00447 18.9 6.75V78.3H16.2V2.7H64.8V78.3H62.1Z" fill="#7B7F91"/>
<path d="M29.7 39.15H25.65C24.9045 39.15 24.3 39.7545 24.3 40.5C24.3 41.2456 24.9045 41.85 25.65 41.85H29.7C30.4455 41.85 31.05 41.2456 31.05 40.5C31.05 39.7545 30.4455 39.15 29.7 39.15Z" fill="#7B7F91"/>
<path d="M45.9 16.2H35.1C34.3545 16.2 33.75 16.8045 33.75 17.55V68.85C33.75 69.5956 34.3545 70.2 35.1 70.2H45.9C46.6455 70.2 47.25 69.5956 47.25 68.85V17.55C47.25 16.8045 46.6455 16.2 45.9 16.2ZM44.55 67.5H36.45V18.9H44.55V67.5Z" fill="#7B7F91"/>
<path d="M24.6916 44.9415C24.1675 45.4696 24.1695 46.3225 24.6968 46.8479C25.2235 47.3733 26.0765 47.3733 26.6032 46.8479C27.1305 46.3225 27.1325 45.4696 26.6084 44.9415C26.0659 44.4452 25.2341 44.4452 24.6916 44.9415Z" fill="#7B7F91"/>
</svg>
