<svg width="89" height="89" viewBox="0 0 89 89" fill="none" xmlns="http://www.w3.org/2000/svg">
<path d="M88.5832 29.7372L71.3222 12.476C70.7671 11.9208 69.8672 11.9208 69.3118 12.476L60.6813 21.1065C60.4148 21.373 60.2652 21.7346 60.2652 22.1116C60.2652 22.4886 60.4148 22.8502 60.6813 23.1167L61.5423 23.9776L59.5638 25.9558C58.2794 27.2397 56.2865 27.5901 54.6049 26.8268C53.0282 26.1112 51.2755 25.7331 49.5359 25.7331C47.4703 25.7331 45.4516 26.2517 43.6581 27.2338C42.9101 27.0495 42.1425 26.9551 41.3672 26.9551C40.246 26.9551 39.1448 27.1486 38.0942 27.5305C36.4166 28.1399 34.6184 27.7622 33.4004 26.5445L29.8479 22.9919L30.271 22.5688C30.5374 22.3023 30.6871 21.9407 30.6871 21.5637C30.6871 21.1867 30.5374 20.8251 30.271 20.5586L21.6404 11.9281C21.0851 11.3729 20.1853 11.3729 19.6301 11.9281L0.416334 31.1419C-0.138696 31.6971 -0.138696 32.597 0.416334 33.1521L9.04668 41.7826C9.31333 42.0492 9.67471 42.1989 10.0519 42.1989C10.4291 42.1989 10.7903 42.0492 11.0572 41.7826L11.5719 41.2679L14.0774 43.7734C14.7096 44.4056 15.1287 45.195 15.2892 46.056C16.1211 50.5204 18.2592 54.579 21.4722 57.7938L21.9441 58.2657C21.0378 59.2202 20.5393 60.4638 20.5393 61.7849C20.5393 63.1513 21.0715 64.4361 22.0376 65.4024C23.0351 66.3998 24.3449 66.8983 25.6552 66.8983C25.7405 66.8983 25.8255 66.8961 25.9109 66.8917C25.8417 68.2857 26.3381 69.7025 27.4002 70.765C28.3665 71.7313 29.6513 72.2633 31.0177 72.2633C31.0558 72.2633 31.0937 72.2614 31.1318 72.2606C31.1026 73.6075 31.5995 74.9639 32.6251 75.9897C33.5914 76.9562 34.8762 77.4881 36.2428 77.4881C37.6093 77.4881 38.8938 76.9558 39.8603 75.9897C39.9417 75.9083 40.0183 75.8242 40.0932 75.739C40.5965 75.9144 41.1287 76.0078 41.6667 76.0078C42.9449 76.0078 44.1457 75.5097 45.0461 74.6064C45.5253 74.1273 45.889 73.5637 46.1257 72.95L46.2712 73.0955C47.2028 74.027 48.4263 74.4929 49.6499 74.4929C50.8735 74.4929 52.097 74.027 53.0286 73.0955C53.5236 72.6004 53.8956 72.0158 54.1313 71.3784C54.9652 71.9849 55.9524 72.2885 56.94 72.2885C58.1636 72.2885 59.3879 71.8229 60.3203 70.8917C61.2226 69.9893 61.7196 68.7889 61.7196 67.5116C61.7196 67.1257 61.6734 66.7473 61.5852 66.3814C62.4956 66.1964 63.332 65.7495 64.0032 65.0775C64.9055 64.1752 65.4025 62.9752 65.4025 61.6988C65.4025 60.6932 65.0927 59.736 64.5206 58.9332L65.6609 57.7929C68.9113 54.541 71.0586 50.4314 71.8709 45.9082C72.007 45.1508 72.3821 44.4474 72.9561 43.8732L77.1972 39.6322L77.9427 40.3777C78.2203 40.6553 78.5841 40.794 78.9479 40.794C79.3116 40.794 79.6756 40.6553 79.9532 40.3777L88.5837 31.7472C88.8502 31.4807 88.9998 31.1192 88.9998 30.7421C88.9998 30.3651 88.8497 30.0039 88.5832 29.7372ZM10.0519 38.7675L3.43154 32.1472L20.635 14.9437L27.2556 21.5641L10.0519 38.7675ZM27.2624 63.3926C26.3764 64.2784 24.9345 64.2788 24.0478 63.3926C23.6184 62.9631 23.382 62.3924 23.382 61.7852C23.382 61.1782 23.6186 60.6074 24.048 60.178C24.491 59.7349 25.0728 59.5133 25.655 59.5133C26.237 59.5133 26.8193 59.7349 27.2622 60.178C28.1484 61.0642 28.1484 62.5063 27.2624 63.3926ZM32.6246 68.7548C32.1956 69.1843 31.6249 69.4206 31.0174 69.4206C30.4104 69.4206 29.8395 69.184 29.4103 68.7548C28.524 67.8686 28.524 66.4266 29.4103 65.5402C29.8534 65.0971 30.4352 64.8755 31.0176 64.8755C31.5994 64.8755 32.1817 65.0971 32.6246 65.5402C33.5111 66.4264 33.5111 67.8686 32.6246 68.7548ZM37.8495 73.9795C37.4201 74.4089 36.8495 74.6453 36.2425 74.6453C35.6353 74.6453 35.0644 74.4087 34.6352 73.9795C33.7489 73.0934 33.7489 71.6513 34.6352 70.765C35.0783 70.3219 35.6601 70.1002 36.2425 70.1002C36.8242 70.1002 37.4066 70.3219 37.8495 70.765C38.7358 71.6513 38.7358 73.0934 37.8495 73.9795ZM61.992 63.0681C61.6266 63.4338 61.1407 63.6353 60.6241 63.6353C60.1075 63.6353 59.6217 63.4338 59.2556 63.0672L45.4659 49.2806C44.9103 48.7256 44.0106 48.7258 43.4556 49.281C42.9007 49.836 42.9009 50.7361 43.4559 51.2911L58.3096 66.1432C58.6752 66.5086 58.8763 66.9946 58.8763 67.5116C58.8763 68.0296 58.675 68.5162 58.3102 68.881C57.5545 69.6359 56.3257 69.6361 55.5713 68.8815L53.0654 66.3756C53.0515 66.3612 53.038 66.3466 53.0235 66.3324C53.0194 66.3282 53.0147 66.3245 53.0103 66.3204L41.4913 54.8014C40.936 54.2463 40.0362 54.2463 39.481 54.8014C38.9258 55.3564 38.9258 56.2565 39.481 56.8115L51.037 68.3674C51.3903 68.7294 51.5848 69.2085 51.5848 69.7168C51.5848 70.2337 51.3833 70.7198 51.0179 71.0851C50.2639 71.8397 49.0361 71.8397 48.2814 71.0851L35.751 58.5546C35.1957 57.9994 34.2959 57.9994 33.7407 58.5546C33.1855 59.1097 33.1855 60.0097 33.7407 60.5648L43.029 69.8532C43.0316 69.8558 43.0337 69.8588 43.0365 69.8612C43.4017 70.2257 43.6026 70.7109 43.6026 71.2273C43.6026 71.7441 43.4013 72.2301 43.0344 72.5971C42.6695 72.9628 42.1839 73.1643 41.6664 73.1643C41.5414 73.1643 41.4192 73.1514 41.2996 73.1288C41.5296 71.5795 41.05 69.9443 39.86 68.7541C38.8937 67.788 37.6089 67.2557 36.2425 67.2557C36.2044 67.2557 36.1665 67.2576 36.1284 67.2585C36.1576 65.9115 35.6608 64.5552 34.6351 63.5294C33.6686 62.5633 32.384 62.031 31.0174 62.031C30.9319 62.031 30.8469 62.0331 30.762 62.0373C30.8303 60.6442 30.3339 59.2286 29.2723 58.1668C27.9801 56.8748 26.1636 56.4209 24.5018 56.8028L23.4825 55.7835C20.6769 52.9767 18.8104 49.4327 18.0839 45.5346C17.8178 44.107 17.1276 42.8026 16.0879 41.7628L13.5822 39.257L27.8377 25.0015L31.3904 28.5542C32.756 29.9198 34.6153 30.6505 36.5195 30.6505C37.3723 30.6505 38.2347 30.5038 39.0654 30.2019C39.4683 30.0553 39.885 29.9502 40.3072 29.8834L31.506 38.6848C30.4291 39.7615 29.8361 41.1931 29.8361 42.716C29.8361 44.2388 30.4291 45.6704 31.5058 46.7471C32.6173 47.8585 34.0767 48.4141 35.5369 48.4139C36.9967 48.4139 38.4567 47.858 39.5683 46.7471L43.9887 42.3267L45.1852 43.524C45.1855 43.5243 45.1857 43.5245 45.186 43.5249L45.2357 43.5746L45.2835 43.6224C45.2837 43.6225 45.2841 43.6229 45.2844 43.6231L45.2853 43.6239C45.299 43.6375 45.3124 43.6504 45.3258 43.6632L61.9925 60.3299C62.3581 60.6953 62.5592 61.1813 62.5592 61.6983C62.5592 62.2161 62.3581 62.7022 61.992 63.0681ZM70.9453 41.8632C69.959 42.8497 69.3113 44.0748 69.0725 45.406C68.3633 49.3554 66.4882 52.9438 63.6503 55.7831L62.558 56.8756L53.5657 47.8834C53.7611 47.8978 53.9573 47.9074 54.155 47.9074C55.0655 47.9074 55.9972 47.7478 56.9247 47.3683C57.6513 47.0711 57.9993 46.2411 57.7021 45.5147C57.4049 44.7882 56.5755 44.4401 55.8484 44.7373C52.19 46.2341 47.804 42.109 47.3158 41.6336C47.3076 41.6256 47.2994 41.6178 47.2911 41.6101L47.2407 41.5597C47.2405 41.5596 47.2403 41.5596 47.2401 41.5594L47.1962 41.5156C47.196 41.5154 47.1956 41.5151 47.1953 41.5149L45.9987 40.3174L47.3556 38.9603C47.9109 38.4051 47.9109 37.5052 47.3557 36.95C46.8005 36.3952 45.9006 36.395 45.3456 36.95L42.9868 39.3088C42.9859 39.3097 42.9849 39.3106 42.984 39.3115C42.9831 39.3123 42.9823 39.3134 42.9814 39.3142L37.558 44.7376C36.4434 45.852 34.6304 45.8517 33.5161 44.7376C32.9764 44.1979 32.6792 43.4802 32.6792 42.7167C32.6792 41.9533 32.9764 41.2355 33.5163 40.6958L42.8773 31.3345C43.398 30.8139 43.9769 30.3559 44.599 29.9722C46.0771 29.0586 47.7842 28.5757 49.5359 28.5757C50.8731 28.5757 52.2196 28.866 53.4301 29.4155C56.1839 30.6649 59.4569 30.0828 61.5741 27.9661L63.5528 25.9878L75.1869 37.6219L70.9453 41.8632ZM78.9474 37.3629L63.6965 22.112L70.3171 15.4916L85.568 30.7425L78.9474 37.3629Z" fill="#FF9900"/>
<path d="M80.3794 33.251C81.1644 33.251 81.8008 32.6146 81.8008 31.8296C81.8008 31.0446 81.1644 30.4082 80.3794 30.4082C79.5944 30.4082 78.958 31.0446 78.958 31.8296C78.958 32.6146 79.5944 33.251 80.3794 33.251Z" fill="#FF9900"/>
<path d="M9.3114 34.6553C10.0964 34.6553 10.7328 34.0189 10.7328 33.2339C10.7328 32.4489 10.0964 31.8125 9.3114 31.8125C8.52639 31.8125 7.89001 32.4489 7.89001 33.2339C7.89001 34.0189 8.52639 34.6553 9.3114 34.6553Z" fill="#FF9900"/>
</svg>
