<svg width="30" height="30" viewBox="0 0 30 30" fill="none" xmlns="http://www.w3.org/2000/svg">
<g clip-path="url(#clip0)">
<path d="M15.0004 6.77808C10.721 6.77808 7.23926 10.2598 7.23926 14.5392C7.23926 16.2906 7.81354 17.9455 8.89921 19.324C9.11352 19.5969 9.3387 19.8581 9.57711 20.1346L9.59021 20.1498C10.3196 20.996 11.0737 21.8713 11.3554 22.902C11.419 23.1382 11.4281 23.591 11.4244 23.9399V24.5328C11.4244 25.0753 11.8643 25.5152 12.4068 25.5152H17.5512C18.0938 25.5152 18.5337 25.0753 18.5337 24.5328V23.9329C18.5304 23.4773 18.554 23.1449 18.6016 22.9723C18.8848 21.9485 19.7205 20.9654 20.4646 20.0903L20.4966 20.0526C20.7113 19.8003 20.9143 19.5621 21.099 19.3272C22.1862 17.9478 22.7609 16.2922 22.7609 14.5392C22.7608 10.2598 19.2795 6.77808 15.0004 6.77808ZM19.5549 18.1118C19.3932 18.3176 19.2024 18.5417 19.0004 18.779L18.9609 18.8255C18.0917 19.8477 17.1067 21.0064 16.7074 22.4497C16.6509 22.6546 16.5882 22.9611 16.5722 23.5503H13.3875C13.3738 22.9245 13.31 22.6036 13.2518 22.3875C12.8522 20.925 11.8689 19.784 11.0786 18.8669L11.0653 18.8514C10.842 18.5924 10.6311 18.3477 10.4436 18.1093C9.63278 17.0797 9.20417 15.8451 9.20417 14.5392C9.20417 11.3432 11.8044 8.74299 15.0004 8.74299C18.196 8.74299 20.7958 11.3432 20.7958 14.5392C20.7958 15.8465 20.367 17.0815 19.5549 18.1118Z" fill="#FFFBF7"/>
<path d="M17.5511 25.7942H12.4068C11.8643 25.7942 11.4244 26.2341 11.4244 26.7766C11.4244 27.3192 11.8643 27.7591 12.4068 27.7591H17.5512C18.0938 27.7591 18.5337 27.3192 18.5337 26.7766C18.5337 26.2341 18.0937 25.7942 17.5511 25.7942Z" fill="#FFFBF7"/>
<path d="M16.265 28.0352H13.6929C13.1503 28.0352 12.7104 28.475 12.7104 29.0176C12.7104 29.5602 13.1503 30.0001 13.6929 30.0001H16.265C16.8076 30.0001 17.2474 29.5602 17.2474 29.0176C17.2474 28.475 16.8076 28.0352 16.265 28.0352Z" fill="#FFFBF7"/>
<path d="M28.5567 13.5566H25.1675C24.6249 13.5566 24.185 13.9965 24.185 14.5391C24.185 15.0817 24.6249 15.5215 25.1675 15.5215H28.5567C29.0992 15.5215 29.5391 15.0817 29.5391 14.5391C29.5391 13.9965 29.0992 13.5566 28.5567 13.5566Z" fill="#FFFBF7"/>
<path d="M5.81533 14.5391C5.81533 13.9965 5.37545 13.5566 4.83287 13.5566H1.44327C0.900693 13.5566 0.460815 13.9965 0.460815 14.5391C0.460815 15.0817 0.900693 15.5215 1.44327 15.5215H4.83287C5.37545 15.5215 5.81533 15.0817 5.81533 14.5391Z" fill="#FFFBF7"/>
<path d="M15.0001 5.35517C15.5427 5.35517 15.9825 4.91529 15.9825 4.37271V0.982455C15.9825 0.439878 15.5427 0 15.0001 0C14.4575 0 14.0176 0.439878 14.0176 0.982455V4.37271C14.0176 4.91529 14.4575 5.35517 15.0001 5.35517Z" fill="#FFFBF7"/>
<path d="M22.8838 21.0334C22.5001 20.6498 21.8781 20.6496 21.4943 21.0333C21.1106 21.417 21.1105 22.0389 21.4942 22.4228L23.8908 24.8201C24.0828 25.012 24.3341 25.1079 24.5856 25.1079C24.837 25.1079 25.0884 25.012 25.2803 24.8202C25.664 24.4365 25.6641 23.8146 25.2804 23.4308L22.8838 21.0334Z" fill="#FFFBF7"/>
<path d="M7.11515 8.04408C7.30705 8.23599 7.55843 8.332 7.80994 8.332C8.06132 8.332 8.31269 8.23612 8.50447 8.04434C8.88828 7.66066 8.88828 7.0387 8.50473 6.65502L6.10898 4.25835C5.7253 3.87454 5.10334 3.87454 4.71966 4.25809C4.33584 4.64177 4.33584 5.26373 4.71939 5.64741L7.11515 8.04408Z" fill="#FFFBF7"/>
<path d="M7.11626 21.0336L4.71946 23.4309C4.33578 23.8146 4.33591 24.4367 4.71959 24.8203C4.91136 25.012 5.16287 25.1079 5.41425 25.1079C5.66563 25.1079 5.91714 25.012 6.10904 24.8201L8.50584 22.4228C8.88952 22.0391 8.88939 21.417 8.50571 21.0335C8.12203 20.6499 7.49994 20.6499 7.11626 21.0336Z" fill="#FFFBF7"/>
<path d="M22.1894 8.33186C22.4408 8.33186 22.6923 8.23597 22.8842 8.04406L25.2804 5.64753C25.6641 5.26384 25.6639 4.64175 25.2803 4.2582C24.8966 3.87452 24.2745 3.87452 23.8909 4.25833L21.4948 6.65487C21.1111 7.03855 21.1112 7.66064 21.4949 8.04419C21.6866 8.2361 21.9379 8.33186 22.1894 8.33186Z" fill="#FFFBF7"/>
</g>
<defs>
<clipPath id="clip0">
<rect width="30" height="30" fill="white"/>
</clipPath>
</defs>
</svg>
