<svg width="79" height="79" viewBox="0 0 79 79" fill="none" xmlns="http://www.w3.org/2000/svg">
<g clip-path="url(#clip0)">
<path d="M30.2422 9.25781C29.3905 9.25781 28.6992 9.94906 28.6992 10.8008C28.6992 11.6525 29.3905 12.3438 30.2422 12.3438C31.0939 12.3438 31.7852 11.6525 31.7852 10.8008C31.7852 9.94906 31.0939 9.25781 30.2422 9.25781Z" fill="#FF9900" stroke="#FF9900" stroke-width="0.5"/>
<path d="M39.5 21.6016C38.6492 21.6016 37.957 20.9094 37.957 20.0586C37.957 19.2078 38.6492 18.5156 39.5 18.5156C40.0465 18.5156 40.6236 18.7944 41.1687 19.3221C41.7814 19.9148 42.758 19.8986 43.3506 19.2863C43.9431 18.6739 43.9271 17.6971 43.3148 17.1044C42.5318 16.3467 41.7483 15.918 41.043 15.6841V13.8867C41.043 13.0345 40.352 12.3438 39.5 12.3438C38.648 12.3438 37.957 13.0345 37.957 13.8867V15.6951C36.1612 16.332 34.8711 18.047 34.8711 20.0586C34.8711 22.611 36.9476 24.6875 39.5 24.6875C40.3508 24.6875 41.043 25.3797 41.043 26.2305C41.043 27.0813 40.3508 27.7734 39.5 27.7734C38.8409 27.7734 38.1292 27.3588 37.4965 26.6062C36.9483 25.9538 35.9748 25.8697 35.3226 26.4181C34.6702 26.9665 34.5861 27.9398 35.1343 28.592C35.9592 29.5732 36.9291 30.2568 37.957 30.6015V32.4023C37.957 33.2545 38.648 33.9453 39.5 33.9453C40.352 33.9453 41.043 33.2545 41.043 32.4023V30.594C42.8388 29.957 44.1289 28.242 44.1289 26.2305C44.1289 23.6781 42.0524 21.6016 39.5 21.6016Z" fill="#FF9900" stroke="#FF9900" stroke-width="0.5"/>
<path d="M72.8281 22.5273C69.425 22.5273 66.6562 25.296 66.6562 28.6992V39.696C64.6066 39.1681 62.3447 39.7132 60.7496 41.3082L50.4017 51.6561C48.9436 53.1122 48.1406 55.0502 48.1406 57.113V66.1934H46.5977C45.7456 66.1934 45.0547 66.8841 45.0547 67.7363V77.457C45.0547 78.3092 45.7456 79 46.5977 79H68.1992C69.0512 79 69.7422 78.3092 69.7422 77.457V67.7363C69.7422 66.8841 69.0512 66.1934 68.1992 66.1934H66.6562V65.4651C66.6562 65.0594 66.821 64.6618 67.1087 64.3744L76.7399 54.7431C78.1973 53.2855 79 51.3478 79 49.2871V28.6992C79 25.296 76.2313 22.5273 72.8281 22.5273ZM66.6562 75.9141H48.1406V69.2793H66.6562V75.9141ZM75.9141 49.2871C75.9141 50.5236 75.4324 51.6864 74.5576 52.5611L64.9264 62.1923C64.0645 63.0542 63.5703 64.2471 63.5703 65.4651V66.1934H51.2266V57.113C51.2266 55.8752 51.708 54.7127 52.583 53.839L62.9317 43.4903C64.0898 42.332 65.9503 42.28 67.1671 43.3718C67.1759 43.3795 67.1847 43.3874 67.1937 43.3949C67.2288 43.425 67.2619 43.4574 67.2952 43.4907C67.8781 44.0732 68.1992 44.8478 68.1992 45.6719C68.1992 46.496 67.8781 47.2705 67.2949 47.8535L59.6279 55.5205C59.0253 56.123 59.0253 57.1 59.6279 57.7027C60.2306 58.3052 61.2073 58.3054 61.8101 57.7027L69.4768 50.0362C70.6428 48.8706 71.2852 47.3208 71.2852 45.6719C71.2852 44.1536 70.7393 42.7199 69.7422 41.5923V28.6992C69.7422 26.9976 71.1265 25.6133 72.8281 25.6133C74.5297 25.6133 75.9141 26.9976 75.9141 28.6992V49.2871Z" fill="#FF9900" stroke="#FF9900" stroke-width="0.5"/>
<path d="M32.4023 66.1934H30.8594V57.113C30.8594 55.0502 30.0564 53.1122 28.5992 51.6569L18.2505 41.3082C16.6553 39.7129 14.3934 39.168 12.3438 39.696V28.6992C12.3438 25.296 9.57505 22.5273 6.17188 22.5273C2.7687 22.5273 0 25.296 0 28.6992V49.2871C0 51.3478 0.802652 53.2855 2.26014 54.7431L11.8914 64.3742C12.179 64.6618 12.3438 65.0593 12.3438 65.4651V66.1934H10.8008C9.94875 66.1934 9.25781 66.8841 9.25781 67.7363V77.457C9.25781 78.3092 9.94875 79 10.8008 79H32.4023C33.2544 79 33.9453 78.3092 33.9453 77.457V67.7363C33.9453 66.8841 33.2544 66.1934 32.4023 66.1934ZM4.44236 52.5612C3.56765 51.6864 3.08594 50.5236 3.08594 49.2871V28.6992C3.08594 26.9976 4.47029 25.6133 6.17188 25.6133C7.87346 25.6133 9.25781 26.9976 9.25781 28.6992V41.5921C8.26075 42.7197 7.71484 44.1533 7.71484 45.6719C7.71484 47.3208 8.35718 48.8706 9.52305 50.0355L17.2379 57.7504C17.8406 58.3529 18.8173 58.3529 19.4201 57.7504C20.0226 57.1479 20.0226 56.1709 19.4201 55.5682L11.7048 47.8529C11.1219 47.2705 10.8008 46.496 10.8008 45.6719C10.8008 44.8478 11.1219 44.0732 11.7043 43.4909C11.738 43.4574 11.7712 43.425 11.8062 43.3949L11.8327 43.3718C13.0493 42.28 14.91 42.3321 16.0682 43.4903L26.4176 53.8396C27.2919 54.7127 27.7733 55.8751 27.7733 57.1128V66.1934H15.4295V65.4651C15.4297 64.2471 14.9355 63.0542 14.0736 62.1923L4.44236 52.5612ZM30.8594 75.9141H12.3438V69.2793H30.8594V75.9141Z" fill="#FF9900" stroke="#FF9900" stroke-width="0.5"/>
<path d="M39.5 0C26.7381 0 16.3555 10.3826 16.3555 23.1445C16.3555 35.9064 26.7381 46.2891 39.5 46.2891C52.2619 46.2891 62.6445 35.9064 62.6445 23.1445C62.6445 10.3826 52.2619 0 39.5 0ZM39.5 43.2031C28.4395 43.2031 19.4414 34.2048 19.4414 23.1445C19.4414 12.0842 28.4395 3.08594 39.5 3.08594C50.5605 3.08594 59.5586 12.0842 59.5586 23.1445C59.5586 34.2048 50.5605 43.2031 39.5 43.2031Z" fill="#FF9900" stroke="#FF9900" stroke-width="0.5"/>
<path d="M50.1548 9.93199C46.1399 6.69021 40.8851 5.46756 35.7402 6.57681C34.9072 6.75641 34.3775 7.57727 34.5571 8.41032C34.7367 9.24321 35.5577 9.77245 36.3906 9.59331C40.6197 8.68142 44.9302 9.67987 48.2164 12.3329C51.5021 14.986 53.3867 18.9266 53.3867 23.1446C53.3867 30.8017 47.1571 37.0313 39.5 37.0313C31.8429 37.0313 25.6133 30.8017 25.6133 23.1446C25.6133 20.8573 26.1811 18.5901 27.2553 16.5882C27.6582 15.8374 27.3761 14.9021 26.6253 14.499C25.8744 14.096 24.9388 14.3782 24.5361 15.129C23.222 17.5782 22.5273 20.3498 22.5273 23.1446C22.5273 32.5033 30.1413 40.1173 39.5 40.1173C48.8587 40.1173 56.4727 32.5033 56.4727 23.1446C56.4727 17.9894 54.1699 13.1736 50.1548 9.93199Z" fill="#FF9900" stroke="#FF9900" stroke-width="0.5"/>
</g>
<defs>
<clipPath id="clip0">
<rect width="79" height="79" fill="white"/>
</clipPath>
</defs>
</svg>
