<svg width="30" height="28" viewBox="0 0 30 28" fill="none" xmlns="http://www.w3.org/2000/svg">
<g clip-path="url(#clip0)">
<path d="M25.7569 12.9629L29.8041 9.04625C30.021 8.83627 30.021 8.49686 29.8041 8.28688C29.5871 8.0769 29.2364 8.0769 29.0194 8.28688L24.9722 12.2035L20.925 8.28688C20.7081 8.0769 20.3573 8.0769 20.1404 8.28688C19.9234 8.49686 19.9234 8.83627 20.1404 9.04625L24.1875 12.9629L20.1404 16.8795C19.9234 17.0895 19.9234 17.4289 20.1404 17.6388C20.2486 17.7436 20.3906 17.7962 20.5327 17.7962C20.6748 17.7962 20.8168 17.7436 20.925 17.6388L24.9722 13.7222L29.0194 17.6388C29.1276 17.7436 29.2697 17.7962 29.4117 17.7962C29.5538 17.7962 29.6958 17.7436 29.8041 17.6388C30.021 17.4289 30.021 17.0895 29.8041 16.8795L25.7569 12.9629Z" fill="white" stroke="white" stroke-width="0.75"/>
<path d="M15.7625 1.3629C15.2214 1.06645 14.5799 1.07612 14.0477 1.38653C14.0222 1.40103 13.9978 1.41821 13.9756 1.43647L6.45615 7.59253H0.554938C0.248057 7.59253 0 7.83258 0 8.12956V18.3333C0 18.4761 0.0582685 18.6125 0.162597 18.713C0.266925 18.8134 0.407325 18.8703 0.554938 18.8703L6.44283 18.8676L13.9584 25.5484C13.9861 25.5731 14.0161 25.5945 14.0477 25.6128C14.3207 25.7723 14.6232 25.8523 14.9256 25.8523C15.2125 25.8518 15.4989 25.7804 15.7625 25.6364C16.3168 25.3335 16.6481 24.7804 16.6481 24.1569V2.84297C16.6481 2.21947 16.3168 1.66632 15.7625 1.3629ZM15.5383 24.1569C15.5383 24.3884 15.4178 24.5919 15.217 24.702C15.1309 24.7487 14.9129 24.8389 14.662 24.716L7.2142 18.0948V15.6481C7.2142 15.3511 6.96614 15.111 6.65926 15.111C6.35238 15.111 6.10432 15.3511 6.10432 15.6481V17.7941L1.10988 17.7962V8.6666H6.10432V10.8148C6.10432 11.1117 6.35238 11.3518 6.65926 11.3518C6.96614 11.3518 7.2142 11.1117 7.2142 10.8148V8.37875L14.6531 2.28875C14.9084 2.15879 15.1304 2.25116 15.217 2.29842C15.4178 2.40851 15.5383 2.61151 15.5383 2.84297V24.1569Z" fill="white" stroke="white" stroke-width="0.75"/>
</g>
<defs>
<clipPath id="clip0">
<rect width="29.9667" height="29" fill="white" transform="translate(0 -1)"/>
</clipPath>
</defs>
</svg>
