<svg width="32" height="32" viewBox="0 0 32 32" fill="none" xmlns="http://www.w3.org/2000/svg">
<path d="M21.3333 18.0371V5.33331C21.3333 2.38781 18.9455 0 16 0C13.0545 0 10.6667 2.38781 10.6667 5.33331V18.037C9.03 19.5019 8 21.6307 8 24C8 28.4183 11.5817 32 16 32C20.4183 32 24 28.4183 24 24C24 21.6307 22.97 19.5019 21.3333 18.0371ZM16 29.3333C13.0545 29.3333 10.6667 26.9455 10.6667 24C10.6667 22.4602 11.3192 21.0317 12.4451 20.0241L13.3334 19.2291V5.33331C13.3334 3.86056 14.5273 2.66663 16.0001 2.66663C17.4728 2.66663 18.6667 3.8605 18.6667 5.33331V19.2291L19.555 20.0241C20.6809 21.0317 21.3334 22.4601 21.3334 24C21.3333 26.9455 18.9455 29.3333 16 29.3333Z" fill="white"/>
<path d="M17.3334 10.6667H14.6667V26.6667H17.3334V10.6667Z" fill="white"/>
<path d="M16 28C18.2091 28 20 26.2091 20 24C20 21.7909 18.2091 20 16 20C13.7909 20 12 21.7909 12 24C12 26.2091 13.7909 28 16 28Z" fill="white"/>
</svg>
