<svg width="73" height="73" viewBox="0 0 73 73" fill="none" xmlns="http://www.w3.org/2000/svg">
<g clip-path="url(#clip0)">
<path d="M72.8444 55.3889C72.2315 53.378 71.1294 51.5505 69.6366 50.0704C67.2591 47.6797 64.0237 46.3396 60.6521 46.3488C58.929 46.3497 57.2237 46.6993 55.6391 47.3764L43.1413 34.8787L59.7356 18.4094L63.6654 18.2983C64.1409 18.2839 64.5757 18.027 64.818 17.6179L70.442 8.16121C70.7689 7.61547 70.6829 6.91734 70.2337 6.46707L65.3735 1.60682C64.9232 1.1576 64.2251 1.07168 63.6793 1.39853L54.2227 7.02253C53.8135 7.26484 53.5566 7.69966 53.5422 8.1751L53.4311 12.0911L36.8785 28.6159L25.5194 17.2568C26.7121 10.3416 22.073 3.76877 15.1577 2.5761C11.9536 2.02342 8.6594 2.72017 5.95346 4.52297C5.31815 4.95258 5.15134 5.8158 5.58096 6.4511C5.70177 6.62971 5.8625 6.77778 6.05066 6.88366L12.3551 10.3969C13.7437 11.1884 14.0215 13.5491 12.8967 15.5488C11.7719 17.5484 9.61947 18.576 8.21695 17.7984L2.37076 14.6323C1.69883 14.2626 0.854363 14.5076 0.484811 15.1796C0.357403 15.411 0.298733 15.6739 0.315744 15.9376C0.755075 22.9412 6.7889 28.2625 13.7925 27.8231C15.2395 27.7324 16.6602 27.3946 17.9932 26.8245L28.3247 37.156L23.8532 41.6275L22.8395 40.6276C21.7173 39.5537 19.9485 39.5537 18.8263 40.6276L17.4377 42.0163C16.3797 43.0463 16.3127 44.724 17.285 45.835L0.857314 62.2349C-0.250822 63.2953 -0.289531 65.0535 0.770871 66.1616C0.798991 66.1911 0.827806 66.2199 0.857314 66.2481L5.55093 70.9417C6.61133 72.0498 8.36952 72.0885 9.47766 71.0281C9.50717 71 9.53598 70.9712 9.5641 70.9417L26.0056 54.514C27.1167 55.4863 28.7944 55.4193 29.8244 54.3613L31.213 52.9727C32.3212 51.9123 32.3599 50.1541 31.2995 49.0459C31.2714 49.0164 31.2425 48.9876 31.213 48.9595L30.1993 47.9458L34.643 43.4049L48.1128 56.8747C46.9491 63.795 51.6157 70.3482 58.536 71.5119C62.6349 72.2012 66.8118 70.842 69.7201 67.8728C70.2301 67.3 70.1794 66.4223 69.6066 65.9122C69.4587 65.7804 69.2842 65.6818 69.0952 65.6232L61.2771 63.5263C60.511 63.28 59.9045 62.689 59.6385 61.9294C59.2324 60.8822 59.1836 59.7301 59.4997 58.6522C60.0829 56.472 61.9298 54.9168 63.4851 55.3333L71.2198 57.4163C71.3441 57.4344 71.4705 57.4344 71.5948 57.4163C72.3616 57.4257 72.9909 56.8116 73.0001 56.0447C73.0027 55.8166 72.9494 55.5913 72.8444 55.3889ZM55.7502 13.6325C56.0001 13.3808 56.1442 13.0428 56.1529 12.6882L56.264 8.98051L64.1376 4.30079L67.4703 7.63353L62.8878 15.4932L59.1107 15.6321C58.7561 15.6408 58.4181 15.7848 58.1664 16.0348L41.225 32.9623L38.8365 30.5739L55.7502 13.6325ZM7.59206 68.9698L2.82901 64.2345L19.34 47.7653L21.7284 50.1537L24.0058 52.5144L7.59206 68.9698ZM27.9079 52.3061L26.0749 50.4592L25.3667 49.751L19.5344 43.8771L20.923 42.4884L29.2549 50.9314L27.9079 52.3061ZM28.1717 45.9739L25.7833 43.5854L30.2547 39.114L32.6432 41.5025L28.1717 45.9739ZM64.1653 52.6533C63.7533 52.5425 63.3283 52.4865 62.9017 52.4866C59.8743 52.731 57.3754 54.9522 56.7778 57.9301C56.3039 59.6024 56.3966 61.3845 57.0416 62.9986C57.6368 64.552 58.9277 65.735 60.5271 66.1925L65.6929 67.5812C60.9822 70.3881 54.888 68.845 52.081 64.1345C50.7627 61.9223 50.3556 59.2844 50.9455 56.7775C51.0512 56.3113 50.9095 55.8234 50.5705 55.4861L19.2705 24.1584C18.8262 23.7409 18.1615 23.6621 17.6319 23.9639C16.198 24.7206 14.6012 25.1163 12.98 25.1165C8.80208 25.1202 5.07028 22.5045 3.64831 18.576L6.81442 20.3396C7.55248 20.7529 8.3848 20.9681 9.23065 20.9645C11.8017 20.8164 14.1013 19.3151 15.2712 17.0207C17.1598 13.6463 16.4238 9.63317 13.6465 8.07789L9.60559 5.78663C14.7696 3.942 20.4511 6.63301 22.2957 11.7968C22.9359 13.5892 23.0475 15.5278 22.6172 17.3818C22.5115 17.848 22.6531 18.336 22.9921 18.6732L54.3615 50.0287C54.7903 50.458 55.4481 50.5594 55.9862 50.2787C57.4204 49.5226 59.017 49.127 60.6382 49.1261C64.1546 49.1233 67.4094 50.9833 69.1922 54.0141L64.1653 52.6533Z" fill="#7B7F91"/>
</g>
<defs>
<clipPath id="clip0">
<rect width="73" height="73" fill="white"/>
</clipPath>
</defs>
</svg>
