<svg width="81" height="68" viewBox="0 0 81 68" fill="none" xmlns="http://www.w3.org/2000/svg">
<path d="M79.2766 0H1.7234C0.775532 0 0 0.813776 0 1.80839V65.2829C0 66.2775 0.775532 67.0913 1.7234 67.0913H79.2766C80.2245 67.0913 81 66.2775 81 65.2829V1.80839C81 0.813776 80.2245 0 79.2766 0ZM77.5532 63.6554H3.44681V3.61678H77.5532V63.6554Z" fill="#FF9900"/>
<path d="M9.11654 59.3151H9.15155H71.866C72.7963 59.3335 73.5719 58.5557 73.5894 57.5788V57.5611V9.71039C73.5894 8.73413 72.8138 7.93801 71.8835 7.95637C71.866 7.95637 71.866 7.95637 71.8484 7.95637H9.15155C8.22051 7.93801 7.44498 8.71576 7.42815 9.69273V9.72875V57.5788C7.41064 58.5374 8.18618 59.3335 9.11654 59.3151ZM42.2234 11.5732H70.1425V55.6983H42.2234V11.5732ZM10.8575 11.5732H38.7766V55.6983H10.8575V11.5732Z" fill="#FF9900"/>
<path d="M47.3936 29.1147C46.4457 29.1147 45.6702 29.9286 45.6702 30.9232V36.5294C45.6702 37.5241 46.4457 38.3379 47.3936 38.3379C48.3415 38.3379 49.1171 37.5241 49.1171 36.5294V30.9232C49.1171 29.9286 48.3415 29.1147 47.3936 29.1147Z" fill="#FF9900"/>
</svg>
