<?xml version="1.0" encoding="UTF-8" standalone="no"?>
<!-- Created with Inkscape (http://www.inkscape.org/) -->
<svg
   xmlns:svg="http://www.w3.org/2000/svg"
   xmlns="http://www.w3.org/2000/svg"
   version="1.0"
   width="956.69287"
   height="424.48819"
   id="svg2">
  <defs
     id="defs4" />
  <g
     transform="translate(256.53384,128.10074)"
     id="layer1">
    <g
       transform="translate(35.433051,35.404795)"
       id="g2780">
      <path
         d="M 629.29293,29.399462 C 629.29293,38.056082 616.24694,45.074762 600.15497,45.074762 C 584.06299,45.074762 571.017,38.056082 571.017,29.399462 C 571.017,20.757212 584.06299,13.731342 600.15497,13.731342 C 616.24694,13.731342 629.29293,20.757212 629.29293,29.399462"
         id="path2607"
         style="fill:#000000;fill-opacity:1;fill-rule:nonzero;stroke:none" />
      <path
         d="M -141.34738,116.17399 C -202.97102,109.42829 -241.04578,95.010172 -254.53718,73.321932 C -249.57309,99.342072 -241.07452,142.01454 -234.27853,166.00164 C -232.80583,171.17406 -230.41359,176.64102 -226.85755,182.3666 C -211.1104,207.79048 -186.89342,218.47297 -143.9767,223.17125 C -133.76117,224.29194 -124.05569,225.05344 -115.44218,225.57786 L -137.07295,116.64094 C -138.45226,116.4829 -139.87468,116.33922 -141.34738,116.17399 M -196.26843,98.372242 L -64.414822,-5.6796078 L -85.248182,-128.10074 C -85.248182,-128.10074 -234.57307,2.1149422 -237.82739,4.9238522 C -248.60326,14.227032 -267.78432,36.949752 -247.86332,69.112152 C -240.33458,81.260152 -222.79145,91.130862 -196.26843,98.372242"
         id="path2611"
         style="fill:#f14f11;fill-opacity:1;fill-rule:nonzero;stroke:none" />
      <path
         d="M -81.074322,54.981392 L -36.965072,54.981392 L -39.867372,68.235712 L -39.515362,68.235712 C -30.427712,59.212712 -17.791202,52.323342 1.1599779,52.323342 C 20.851088,52.323342 27.445928,58.853522 30.628398,68.408132 C 38.767778,59.571912 52.388488,52.323342 70.800868,52.323342 C 92.675888,52.323342 108.15723,61.518752 103.00637,85.024532 L 88.401458,151.66972 L 42.819508,151.66972 L 54.802278,97.050402 C 56.928718,87.323382 53.437338,84.140902 45.412898,84.140902 C 35.930128,84.140902 28.947368,88.566202 26.353968,100.40529 L 15.125508,151.66972 L -28.983742,151.66972 L -17.015332,97.050402 C -14.896082,87.323382 -18.387462,84.140902 -26.404712,84.140902 C -35.880302,84.140902 -42.870252,88.566202 -45.463642,100.40529 L -56.699292,151.66972 L -102.27406,151.66972 L -81.074322,54.981392"
         id="path2615"
         style="fill:#000000;fill-opacity:1;fill-rule:nonzero;stroke:none" />
      <path
         d="M 193.37286,51.087702 C 244.77378,51.087702 263.55254,67.711292 255.76517,103.23576 C 247.93471,138.93982 221.87864,155.56341 170.47771,155.56341 C 119.07679,155.56341 100.29803,138.93982 108.1285,103.23576 C 115.90868,67.711292 141.96475,51.087702 193.37286,51.087702 M 176.74927,126.91395 C 195.16884,126.91395 204.60132,118.78894 208.0065,103.23576 C 211.34702,88.027402 205.50649,79.722802 187.1013,79.722802 C 168.86852,79.722802 159.20615,88.027402 155.87999,103.23576 C 152.46045,118.78894 158.52368,126.91395 176.74927,126.91395"
         id="path2619"
         style="fill:#000000;fill-opacity:1;fill-rule:nonzero;stroke:none" />
      <path
         d="M 277.27382,54.981392 L 321.39744,54.981392 L 318.75376,67.000082 L 319.12014,67.000082 C 325.21928,60.807542 341.65609,52.323342 363.52393,52.323342 C 388.68919,52.323342 405.24812,63.285992 399.35731,90.146662 L 385.88028,151.66972 L 340.29832,151.66972 L 351.26098,101.64811 C 353.94058,89.442642 348.35868,84.140902 337.60436,84.140902 C 325.57848,84.140902 314.96065,91.037462 311.41898,107.12944 L 301.65604,151.66972 L 256.08845,151.66972 L 277.27382,54.981392"
         id="path2623"
         style="fill:#000000;fill-opacity:1;fill-rule:nonzero;stroke:none" />
      <path
         d="M 497.11605,141.41827 L 496.74248,141.41827 C 486.53414,150.62087 472.87751,155.56341 452.65478,155.56341 C 423.11452,155.56341 399.39322,139.82344 407.2668,103.9326 C 415.14037,68.056112 445.73667,52.323342 475.26976,52.323342 C 493.86173,52.323342 506.00974,56.748632 511.84308,65.944042 L 512.20227,65.944042 L 522.04424,21.037382 L 567.61901,21.037382 L 538.97673,151.66972 L 494.86748,151.66972 L 497.11605,141.41827 z M 483.52408,82.021652 C 467.11601,82.021652 456.64186,91.576262 453.93352,103.9326 C 451.14616,116.6625 456.41916,125.85791 474.09878,125.85791 C 491.5988,125.85791 500.85168,117.72572 503.87611,103.9326 C 506.85744,90.333442 501.20369,82.021652 483.52408,82.021652"
         id="path2627"
         style="fill:#000000;fill-opacity:1;fill-rule:nonzero;stroke:none" />
      <path
         d="M 572.92792,54.981392 L 618.50269,54.981392 L 597.30295,151.66972 L 551.72818,151.66972 L 572.92792,54.981392 z"
         id="path2631"
         style="fill:#000000;fill-opacity:1;fill-rule:nonzero;stroke:none" />
    </g>
  </g>
</svg>
