<svg xmlns="http://www.w3.org/2000/svg" viewBox="0 0 490 490"><path d="M415 0H75C50.187 0 30 20.187 30 45v400c0 24.813 20.187 45 45 45h340c24.813 0 45-20.187 45-45V45c0-24.813-20.187-45-45-45zm15 445c0 8.271-6.729 15-15 15H75c-8.271 0-15-6.729-15-15V340h110v5c0 8.284 6.716 15 15 15s15-6.716 15-15v-5h30v5c0 8.284 6.716 15 15 15s15-6.716 15-15v-5h30v5c0 8.284 6.716 15 15 15s15-6.716 15-15v-5h110v105zm0-135H60v-30h370v30zM60.325 250c3.224-31.474 30.002-56.111 62.452-56.111 15.731 0 30.566 5.75 42.014 16.048A91.663 91.663 0 00152.441 250H60.325zm122.223 0c3.224-31.474 30.002-56.111 62.452-56.111 15.739 0 30.569 5.748 42.015 16.046A91.674 91.674 0 00274.663 250h-92.115zm122.222 0c3.224-31.474 30.003-56.111 62.453-56.111s59.229 24.638 62.452 56.111H304.77zM430 188.338c-16.533-15.173-38.588-24.449-62.777-24.449-23.362 0-44.736 8.654-61.064 22.915-16.779-14.717-38.322-22.915-61.158-22.915-23.362 0-44.738 8.656-61.066 22.917-16.782-14.717-38.332-22.917-61.156-22.917-24.189 0-46.244 9.276-62.777 24.449V90h112.57c6.19 17.461 22.873 30 42.43 30h60c19.557 0 36.239-12.539 42.43-30H430v98.338zM430 60H305c-8.284 0-15 6.716-15 15 0 8.271-6.729 15-15 15h-60c-8.271 0-15-6.729-15-15 0-8.284-6.716-15-15-15H60V45c0-8.271 6.729-15 15-15h340c8.271 0 15 6.729 15 15v15zM260 405v10c0 8.284-6.716 15-15 15s-15-6.716-15-15v-10c0-8.284 6.716-15 15-15s15 6.716 15 15z" fill="#fff"/></svg>