<svg width="17" height="18" viewBox="0 0 17 18" xmlns="http://www.w3.org/2000/svg"><path d="M9.74 6.263c1.41.845 1.973 2.631 1.127 4.04-.845 1.41-2.63 1.974-4.04 1.128-1.41-.845-1.974-2.631-1.128-4.04.846-1.504 2.631-1.974 4.04-1.128zm4.605 1.315l.94-.564c.281-.187.47-.563.281-.94l-1.315-2.349c-.188-.282-.564-.47-.94-.282l-.94.564c-.188.094-.564.094-.752 0-.094-.094-.282-.188-.376-.282-.188-.094-.282-.188-.47-.282-.281-.094-.375-.376-.375-.657V1.658A.642.642 0 0 0 9.74 1H7.014a.642.642 0 0 0-.657.658v1.128c0 .281-.188.47-.376.657-.282.188-.658.282-.94.564-.188.188-.47.188-.752 0l-.94-.564c-.282-.188-.751-.094-.94.282l-1.315 2.35c-.188.282-.094.752.282.94l.94.563c.188.094.376.376.376.658v1.128c0 .282-.094.47-.376.658l-.94.564c-.282.187-.47.563-.282.94l1.316 2.349c.188.282.563.47.94.282l.94-.564c.187-.094.563-.094.751 0 .094.094.282.188.376.282.188.094.282.188.47.282.282.094.376.376.376.657v1.128c0 .376.282.658.657.658h2.726a.642.642 0 0 0 .658-.658v-1.128c0-.281.188-.47.376-.657.281-.188.657-.282.94-.564.187-.188.47-.188.751 0l.94.564c.282.188.752.094.94-.282l1.315-2.35c.188-.282.094-.752-.282-.94l-.94-.563c-.187-.094-.375-.376-.375-.658V8.236c.094-.282.188-.47.376-.658z" stroke="#FFF" stroke-width="1.5" fill="none" stroke-linecap="round" stroke-linejoin="round"/></svg>