<?xml version="1.0" encoding="UTF-8"?>
<!DOCTYPE svg PUBLIC "-//W3C//DTD SVG 1.1//EN" "http://www.w3.org/Graphics/SVG/1.1/DTD/svg11.dtd">
<!-- Creator: CorelDRAW 2017 -->
<svg xmlns="http://www.w3.org/2000/svg" xml:space="preserve" width="26px" height="26px" version="1.1" style="shape-rendering:geometricPrecision; text-rendering:geometricPrecision; image-rendering:optimizeQuality; fill-rule:evenodd; clip-rule:evenodd"
viewBox="0 0 26 26"
 xmlns:xlink="http://www.w3.org/1999/xlink">
 <defs>
  <style type="text/css">
   <![CDATA[
    .fil0 {fill:white}
   ]]>
  </style>
 </defs>
 <g id="Слой_x0020_1">
  <metadata id="CorelCorpID_0Corel-Layer"/>
  <g id="_1981145965824">
   <g>
    <path class="fil0" d="M3.34 0l19.32 0c1.84,0 3.34,1.36 3.34,3.34l0 19.32c0,1.98 -1.5,3.34 -3.34,3.34l-19.32 0c-1.84,0 -3.34,-1.36 -3.34,-3.34l0 -19.32c0,-1.98 1.5,-3.34 3.34,-3.34l0 0zm15.6 2.89c-0.64,0 -1.17,0.53 -1.17,1.17l0 2.8c0,0.64 0.53,1.17 1.17,1.17l2.94 0c0.64,0 1.17,-0.53 1.17,-1.17l0 -2.8c0,-0.64 -0.53,-1.17 -1.17,-1.17l-2.94 0 0 0zm4.12 8.11l-2.29 0c0.22,0.7 0.34,1.45 0.34,2.23 0,4.32 -3.62,7.83 -8.09,7.83 -4.46,0 -8.08,-3.51 -8.08,-7.83 0,-0.78 0.12,-1.53 0.34,-2.23l-2.39 0 0 10.98c0,0.57 0.46,1.03 1.03,1.03l18.11 0c0.57,0 1.03,-0.46 1.03,-1.03l0 -10.98 0 0zm-10.04 -3.12c-2.88,0 -5.22,2.27 -5.22,5.06 0,2.8 2.34,5.06 5.22,5.06 2.89,0 5.23,-2.26 5.23,-5.06 0,-2.79 -2.34,-5.06 -5.23,-5.06z" data-original="#000000" data-old_color="#ffffff"/>
   </g>
  </g>
 </g>
</svg>
