<?xml version="1.0" encoding="UTF-8"?>
<!DOCTYPE svg PUBLIC "-//W3C//DTD SVG 1.1//EN" "http://www.w3.org/Graphics/SVG/1.1/DTD/svg11.dtd">
<!-- Creator: CorelDRAW X8 -->
<svg xmlns="http://www.w3.org/2000/svg" xml:space="preserve" width="210mm" height="210mm" version="1.1" style="shape-rendering:geometricPrecision; text-rendering:geometricPrecision; image-rendering:optimizeQuality; fill-rule:evenodd; clip-rule:evenodd"
viewBox="0 0 21000 21000"
 xmlns:xlink="http://www.w3.org/1999/xlink">
 <defs>
  <style type="text/css">
   <![CDATA[
    .fil1 {fill:#F8AC04}
    .fil0 {fill:#FEFEFE;fill-rule:nonzero}
   ]]>
  </style>
 </defs>
 <g id="Слой_x0020_1">
  <metadata id="CorelCorpID_0Corel-Layer"/>
  <g id="_783671312">
   <path class="fil0" d="M3239 2338c-250,-233 -621,-361 -962,-361 -744,0 -1358,607 -1358,1358l0 1760c0,539 0,1086 0,1631l0 14c0,225 191,416 416,416 232,0 423,-191 423,-416l0 -1733 648 0c226,0 417,-185 417,-417 0,-225 -191,-409 -417,-409 0,0 -648,0 -648,0l0 -846c0,-294 232,-533 519,-533 136,0 258,57 355,144 168,151 431,144 586,-21 152,-162 187,-432 21,-587zm902 4852c-239,0 -430,-191 -430,-423l0 -2543c0,-232 191,-417 430,-417 225,0 416,185 416,417l0 2543c0,232 -191,423 -416,423zm3946 -2948c-307,-286 -703,-450 -1126,-450 -314,0 -614,95 -867,252 -54,-163 -204,-279 -389,-279 -225,0 -409,177 -409,402l0 2614c0,225 184,409 409,409 225,0 410,-184 410,-409l0 -1290c0,-484 382,-880 846,-880 211,0 416,82 566,225 171,157 423,143 580,-21 157,-163 144,-423 -20,-573zm3549 1222c27,-68 54,-137 54,-198 14,-225 -109,-478 -218,-669 -246,-409 -641,-696 -1105,-785 -103,-20 -198,-27 -301,-27 -948,0 -1706,778 -1706,1713 0,948 758,1713 1706,1713 389,0 915,-123 1290,-485 164,-157 171,-423 7,-580 -157,-164 -416,-164 -580,-7 -177,171 -498,260 -717,260 -423,0 -771,-301 -866,-690l2102 0c163,0 279,-116 334,-245zm-1570 -853c307,0 560,150 696,409l-1446 0c163,-252 436,-409 750,-409zm4497 -2273c-250,-233 -580,-361 -921,-361 -744,0 -1358,608 -1358,1358l0 1760c0,539 0,1086 0,1631l0 14c0,224 191,416 416,416 232,0 423,-191 423,-416l0 -1733 649 0c225,0 416,-185 416,-417 0,-225 -191,-409 -416,-409 0,0 -649,0 -649,0l0 -846c0,-294 232,-533 519,-533 136,0 258,57 355,144 169,151 432,144 587,-21 151,-162 144,-433 -21,-587zm1505 4027c-62,0 -109,-55 -109,-116 0,-21 -7,-41 -7,-62 0,-20 7,-41 7,-61l0 -3706c0,-225 -185,-409 -417,-409 -225,0 -409,184 -409,409 0,491 0,984 0,1474l0 2041c0,319 -15,622 191,887 176,225 457,368 744,368 232,0 416,-184 416,-416 0,-225 -184,-409 -416,-409zm3611 -2573c-212,0 -396,185 -396,409l0 1235c0,470 -348,860 -778,860 -423,0 -771,-389 -771,-860l0 -1221c0,-218 -178,-410 -396,-410 -218,0 -396,193 -396,410l0 1221c0,927 703,1679 1563,1679 287,0 553,-82 778,-211l0 279c0,497 -396,908 -880,908 -253,0 -502,-114 -669,-314 -146,-174 -397,-197 -560,-48 -163,150 -183,410 -41,580 320,382 778,601 1270,601 921,0 1678,-778 1678,-1727l0 -2982c0,-225 -177,-409 -402,-409z"/>
   <path class="fil1" d="M3697 3294c469,-222 1673,-761 1315,-1219 -122,-158 -429,-162 -748,262 -305,405 -567,957 -567,957z"/>
  </g>
 </g>
</svg>
