<?xml version="1.0" encoding="UTF-8"?>
<!DOCTYPE svg PUBLIC "-//W3C//DTD SVG 1.1//EN" "http://www.w3.org/Graphics/SVG/1.1/DTD/svg11.dtd">
<!-- Creator: CorelDRAW 2017 -->
<svg xmlns="http://www.w3.org/2000/svg" xml:space="preserve" version="1.1" style="shape-rendering:geometricPrecision; text-rendering:geometricPrecision; image-rendering:optimizeQuality; fill-rule:evenodd; clip-rule:evenodd"
viewBox="0 0 319 147.1"
 xmlns:xlink="http://www.w3.org/1999/xlink">
 <defs>
  <style type="text/css">
   <![CDATA[
    .fil7 {fill:#008DD2}
    .fil0 {fill:#2D2645}
    .fil4 {fill:#362C54}
    .fil5 {fill:#95C12B}
    .fil2 {fill:#AB1D57}
    .fil9 {fill:#E73A74}
    .fil3 {fill:#F62619}
    .fil6 {fill:#F8AC04}
    .fil1 {fill:#FEFEFE}
    .fil8 {fill:#FEFEFE;fill-rule:nonzero}
   ]]>
  </style>
 </defs>
 <g id="Слой_x0020_1">
  <metadata id="CorelCorpID_0Corel-Layer"/>
  <g id="_1814393282240">
   <path class="fil0" d="M45.5 139.98c17.81,0 32.24,1.59 32.24,3.57 0,1.96 -14.43,3.55 -32.24,3.55 -17.82,0 -32.27,-1.59 -32.27,-3.55 0,-1.98 14.45,-3.57 32.27,-3.57z"/>
   <path class="fil1" d="M31.52 129.04c4.3,-0.23 53.42,-3.39 53.42,-3.39 2.81,-6.81 17.9,-52.01 18.49,-52.59 -0.3,-0.99 -7.91,-14.26 -7.91,-15.11 7.91,-3.96 10.31,-11.76 3.94,-14.86 -6.4,-3.09 -12.02,3.36 -11.64,3.36 0,-0.01 -3.06,-4.29 -3.06,-4.29 0,0 -17.6,-0.96 -17.6,-0.96 0.43,-1.66 6.39,-12.43 17.22,-16.61 2.58,-0.99 7.67,-2.67 9.48,-9.9 1.55,-6.21 -2.44,-11.47 -4.18,-12.56 -12.22,-7.68 -28.71,7.04 -31.24,18.53 -0.1,0.06 -4.03,-4.47 -8.19,-4.44 -5.37,0.04 -5.97,5.56 -5.97,4.85 -0.18,0 -3.75,-2.69 -8.27,-2.6 -8.08,0.13 -12.43,8.6 -2.21,13.99 5.2,2.73 7.38,6.46 8.05,8.18 -2.28,0 -9.28,-0.31 -10.51,-0.52 -2.79,3.24 -31.34,37.36 -31.34,37.36 6.56,10.58 21.92,38.21 31.52,51.56z"/>
   <polygon class="fil2" points="53.23,81.28 33.15,126.62 4.07,77.43 32.34,42.69 "/>
   <polygon class="fil3" points="33.15,126.62 53.23,81.28 98.77,73.47 82.43,123.22 "/>
   <polygon class="fil4" points="53.23,81.28 32.34,42.69 83.21,45.06 98.77,73.47 "/>
   <path class="fil5" d="M92.35 61.76c-5.3,1.89 -13.74,2.77 -19.45,-0.41 -9.4,-5.18 -9.56,-15.39 -9.56,-17.23l3.24 0.16c1.1,7.62 7.64,18.36 23.62,13.46l2.15 4.02z"/>
   <path class="fil6" d="M44.22 58.32c18.17,-24.76 -7.43,-43.88 -12.59,-33.53 -3.12,7.14 21.35,6.61 12.59,33.53z"/>
   <path class="fil5" d="M64.48 73.25c3.18,-0.03 5.64,1.98 6.05,5.1l-11.87 2.03c-0.07,-0.32 -0.11,-0.65 -0.11,-1.01 -0.05,-3.32 2.76,-6.06 5.93,-6.12z"/>
   <path class="fil7" d="M50.64 18.84c1.7,0 3.08,1.38 3.08,3.08 0,1.7 -1.38,3.06 -3.08,3.06 -1.7,0 -3.07,-1.36 -3.07,-3.06 0,-1.7 1.37,-3.08 3.07,-3.08z"/>
   <path class="fil8" d="M159.62 58.18c-2.35,-2.21 -5.87,-3.41 -9.09,-3.41 -7.04,0 -12.86,5.75 -12.86,12.84l0 16.66c0,5.1 0,10.28 0,15.43l0 0.14c0,2.12 1.81,3.93 3.95,3.93 2.19,0 3.99,-1.81 3.99,-3.93l0 -16.42 6.14 0c2.12,0 3.95,-1.73 3.95,-3.92 0,-2.14 -1.83,-3.88 -3.95,-3.88 0,0 -6.14,0 -6.14,0l0 -8.01c0,-2.78 2.2,-5.04 4.92,-5.04 1.29,0 2.44,0.55 3.34,1.36 1.61,1.43 4.09,1.36 5.56,-0.19 1.43,-1.54 1.77,-4.09 0.19,-5.56zm8.55 45.92c-2.27,0 -4.07,-1.82 -4.07,-4.01l0 -24.06c0,-2.21 1.8,-3.94 4.07,-3.94 2.12,0 3.94,1.75 3.94,3.94l0 24.06c0,2.19 -1.82,4.01 -3.94,4.01zm37.34 -27.89c-2.92,-2.73 -6.65,-4.27 -10.67,-4.27 -2.97,0 -5.8,0.91 -8.19,2.39 -0.53,-1.55 -1.94,-2.65 -3.68,-2.65 -2.14,0 -3.87,1.68 -3.87,3.8l0 24.75c0,2.12 1.73,3.87 3.87,3.87 2.13,0 3.88,-1.75 3.88,-3.87l0 -12.21c0,-4.6 3.61,-8.33 7.99,-8.33 2,0 3.95,0.76 5.36,2.12 1.63,1.49 4.02,1.37 5.5,-0.19 1.49,-1.54 1.35,-4 -0.19,-5.41zm33.57 11.55c0.27,-0.66 0.51,-1.29 0.51,-1.88 0.15,-2.12 -1.02,-4.51 -2.05,-6.33 -2.33,-3.87 -6.08,-6.58 -10.47,-7.41 -0.97,-0.2 -1.87,-0.27 -2.83,-0.27 -8.98,0 -16.15,7.36 -16.15,16.21 0,8.98 7.17,16.22 16.15,16.22 3.68,0 8.65,-1.17 12.19,-4.6 1.56,-1.49 1.63,-4 0.07,-5.49 -1.49,-1.55 -3.95,-1.55 -5.48,-0.07 -1.68,1.63 -4.73,2.46 -6.78,2.46 -4.01,0 -7.3,-2.85 -8.21,-6.52l19.89 0c1.55,0 2.65,-1.1 3.16,-2.32zm-14.84 -8.07c2.9,0 5.29,1.42 6.58,3.88l-13.69 0c1.56,-2.39 4.14,-3.88 7.11,-3.88zm42.54 -21.51c-2.37,-2.21 -5.48,-3.41 -8.72,-3.41 -7.04,0 -12.84,5.75 -12.84,12.84l0 16.66c0,5.1 0,10.28 0,15.43l0 0.14c0,2.12 1.8,3.93 3.93,3.93 2.21,0 4.01,-1.81 4.01,-3.93l0 -16.42 6.14 0c2.12,0 3.93,-1.73 3.93,-3.92 0,-2.14 -1.81,-3.88 -3.93,-3.88 0,0 -6.14,0 -6.14,0l0 -8.01c0,-2.78 2.2,-5.04 4.9,-5.04 1.29,0 2.44,0.55 3.36,1.36 1.59,1.43 4.09,1.36 5.56,-0.19 1.43,-1.54 1.36,-4.09 -0.2,-5.56zm14.24 38.1c-0.58,0 -1.02,-0.51 -1.02,-1.09 0,-0.2 -0.07,-0.39 -0.07,-0.59 0,-0.19 0.07,-0.39 0.07,-0.58l0 -35.06c0,-2.14 -1.76,-3.87 -3.95,-3.87 -2.14,0 -3.87,1.73 -3.87,3.87 0,4.65 0,9.31 0,13.94l0 19.32c0,3.02 -0.14,5.89 1.8,8.38 1.66,2.14 4.34,3.5 7.04,3.5 2.2,0 3.95,-1.75 3.95,-3.94 0,-2.14 -1.75,-3.88 -3.95,-3.88zm34.18 -24.34c-2.02,0 -3.75,1.76 -3.75,3.88l0 11.67c0,4.46 -3.29,8.14 -7.36,8.14 -4.02,0 -7.31,-3.68 -7.31,-8.14l0 -11.55c0,-2.07 -1.68,-3.87 -3.75,-3.87 -2.05,0 -3.73,1.82 -3.73,3.87l0 11.55c0,8.78 6.65,15.89 14.79,15.89 2.7,0 5.22,-0.76 7.36,-2l0 2.65c0,4.71 -3.75,8.58 -8.33,8.58 -2.39,0 -4.75,-1.08 -6.34,-2.95 -1.38,-1.67 -3.75,-1.88 -5.29,-0.46 -1.54,1.41 -1.73,3.87 -0.39,5.48 3.03,3.61 7.36,5.7 12.02,5.7 8.72,0 15.88,-7.38 15.88,-16.35l0 -28.21c0,-2.14 -1.68,-3.88 -3.8,-3.88z"/>
   <path class="fil8" d="M181.45 120.48l0 5.01 1.91 0 0 -5.01 1.36 0 0 5.01 1.91 0 0 -5.01 1.37 0 0 6.11 -7.93 0 0 -6.11 1.38 0zm7.78 2.99c0,-0.58 0.13,-1.13 0.36,-1.61 0.23,-0.48 0.56,-0.85 0.99,-1.11 0.44,-0.25 0.92,-0.37 1.49,-0.37 0.83,0 1.48,0.26 1.99,0.79 0.52,0.53 0.8,1.22 0.84,2.11l0.01 0.32c0,0.6 -0.12,1.15 -0.35,1.61 -0.23,0.47 -0.57,0.84 -0.99,1.11 -0.43,0.25 -0.92,0.39 -1.49,0.39 -0.86,0 -1.55,-0.3 -2.07,-0.87 -0.53,-0.58 -0.78,-1.34 -0.78,-2.3l0 -0.07zm1.37 0.13c0,0.61 0.14,1.11 0.39,1.46 0.26,0.36 0.62,0.55 1.09,0.55 0.46,0 0.82,-0.19 1.08,-0.55 0.25,-0.37 0.39,-0.88 0.39,-1.59 0,-0.62 -0.14,-1.09 -0.41,-1.47 -0.26,-0.35 -0.61,-0.53 -1.07,-0.53 -0.45,0 -0.8,0.18 -1.07,0.53 -0.26,0.36 -0.4,0.89 -0.4,1.6zm7.51 1.02l1.24 -4.14 1.47 0 -2.42 7.03c-0.37,1.02 -1.01,1.53 -1.9,1.53 -0.21,0 -0.42,-0.03 -0.67,-0.1l0 -1.06 0.27 0.01c0.33,0 0.6,-0.07 0.78,-0.19 0.17,-0.12 0.31,-0.34 0.42,-0.64l0.2 -0.51 -2.14 -6.07 1.46 0 1.29 4.14zm6.16 -0.97l-2.97 0 0 -1.12 2.97 0 0 1.12zm4.76 1.25l1.8 -4.42 1.72 0 0 6.11 -1.38 0 0 -4.04 -1.68 4.04 -0.92 0 -1.7 -4.06 0 4.06 -1.36 0 0 -6.11 1.71 0 1.81 4.42zm8.7 1.69c-0.05,-0.11 -0.1,-0.31 -0.16,-0.57 -0.42,0.46 -0.97,0.69 -1.59,0.69 -0.62,0 -1.11,-0.18 -1.5,-0.53 -0.39,-0.36 -0.59,-0.78 -0.59,-1.31 0,-0.64 0.25,-1.15 0.73,-1.49 0.48,-0.35 1.17,-0.53 2.07,-0.53l0.85 0 0 -0.4c0,-0.3 -0.09,-0.57 -0.27,-0.76 -0.18,-0.18 -0.46,-0.29 -0.81,-0.29 -0.32,0 -0.57,0.09 -0.76,0.25 -0.21,0.14 -0.3,0.35 -0.3,0.58l-1.38 0c0,-0.33 0.12,-0.63 0.33,-0.93 0.23,-0.29 0.53,-0.52 0.91,-0.68 0.38,-0.17 0.81,-0.24 1.29,-0.24 0.7,0 1.27,0.17 1.69,0.53 0.43,0.35 0.64,0.86 0.66,1.52l0 2.74c0,0.55 0.09,0.99 0.23,1.33l0 0.09 -1.4 0zm-1.5 -0.98c0.26,0 0.53,-0.07 0.76,-0.21 0.25,-0.12 0.42,-0.3 0.55,-0.53l0 -1.15 -0.75 0c-0.51,0 -0.88,0.09 -1.15,0.26 -0.24,0.18 -0.38,0.43 -0.38,0.77 0,0.26 0.08,0.46 0.26,0.61 0.18,0.16 0.41,0.25 0.71,0.25zm6.61 0c0.34,0 0.62,-0.1 0.85,-0.3 0.23,-0.21 0.36,-0.46 0.37,-0.74l1.3 0c-0.02,0.37 -0.15,0.74 -0.36,1.06 -0.23,0.34 -0.53,0.58 -0.9,0.78 -0.39,0.19 -0.8,0.3 -1.24,0.3 -0.85,0 -1.54,-0.28 -2.03,-0.83 -0.5,-0.57 -0.75,-1.33 -0.75,-2.3l0 -0.14c0,-0.92 0.25,-1.68 0.75,-2.23 0.49,-0.57 1.16,-0.83 2.03,-0.83 0.73,0 1.31,0.21 1.77,0.62 0.46,0.42 0.69,0.99 0.73,1.68l-1.3 0c-0.01,-0.36 -0.14,-0.64 -0.37,-0.87 -0.21,-0.23 -0.49,-0.34 -0.85,-0.34 -0.44,0 -0.77,0.16 -1.02,0.48 -0.25,0.32 -0.37,0.81 -0.37,1.47l0 0.21c0,0.67 0.12,1.15 0.35,1.49 0.25,0.32 0.58,0.49 1.04,0.49zm8.35 -4.05l-1.98 0 0 5.03 -1.36 0 0 -5.03 -1.96 0 0 -1.08 5.3 0 0 1.08zm3.29 5.15c-0.86,0 -1.57,-0.28 -2.12,-0.83 -0.53,-0.55 -0.8,-1.28 -0.8,-2.2l0 -0.15c0,-0.62 0.11,-1.15 0.36,-1.63 0.23,-0.5 0.56,-0.87 0.99,-1.13 0.42,-0.27 0.88,-0.39 1.41,-0.39 0.84,0 1.47,0.26 1.93,0.79 0.46,0.53 0.67,1.28 0.67,2.25l0 0.55 -3.98 0c0.04,0.51 0.22,0.9 0.5,1.2 0.3,0.28 0.67,0.44 1.11,0.44 0.64,0 1.15,-0.26 1.54,-0.76l0.75 0.69c-0.25,0.37 -0.57,0.66 -0.98,0.85 -0.42,0.21 -0.86,0.32 -1.38,0.32zm-0.16 -5.24c-0.39,0 -0.69,0.13 -0.92,0.39 -0.23,0.27 -0.37,0.64 -0.44,1.12l2.62 0 0 -0.11c-0.04,-0.46 -0.16,-0.81 -0.37,-1.04 -0.21,-0.25 -0.51,-0.36 -0.89,-0.36zm9.02 2.13c0,0.95 -0.21,1.69 -0.65,2.26 -0.42,0.57 -0.99,0.85 -1.72,0.85 -0.67,0 -1.2,-0.23 -1.61,-0.67l0 2.9 -1.37 0 0 -8.46 1.27 0 0.05 0.62c0.41,-0.49 0.96,-0.72 1.65,-0.72 0.74,0 1.32,0.26 1.75,0.83 0.42,0.55 0.63,1.32 0.63,2.3l0 0.09zm-1.36 -0.13c0,-0.6 -0.12,-1.09 -0.37,-1.45 -0.25,-0.35 -0.58,-0.53 -1.04,-0.53 -0.57,0 -0.96,0.23 -1.21,0.69l0 2.71c0.25,0.47 0.66,0.72 1.23,0.72 0.42,0 0.77,-0.17 1.02,-0.53 0.25,-0.35 0.37,-0.88 0.37,-1.61zm5.03 2.14c0.33,0 0.62,-0.1 0.85,-0.3 0.23,-0.21 0.35,-0.46 0.35,-0.74l1.31 0c-0.02,0.37 -0.14,0.74 -0.36,1.06 -0.23,0.34 -0.53,0.58 -0.92,0.78 -0.37,0.19 -0.77,0.3 -1.22,0.3 -0.84,0 -1.53,-0.28 -2.03,-0.83 -0.5,-0.57 -0.74,-1.33 -0.74,-2.3l0 -0.14c0,-0.92 0.24,-1.68 0.74,-2.23 0.5,-0.57 1.17,-0.83 2.03,-0.83 0.73,0 1.31,0.21 1.77,0.62 0.46,0.42 0.69,0.99 0.73,1.68l-1.31 0c0,-0.36 -0.12,-0.64 -0.35,-0.87 -0.22,-0.23 -0.52,-0.34 -0.85,-0.34 -0.45,0 -0.8,0.16 -1.03,0.48 -0.25,0.32 -0.37,0.81 -0.37,1.47l0 0.21c0,0.67 0.12,1.15 0.35,1.49 0.25,0.32 0.59,0.49 1.05,0.49zm5.71 -1.45l-0.69 0 0 2.43 -1.38 0 0 -6.11 1.38 0 0 2.43 0.6 0 1.68 -2.43 1.7 0 -2.21 2.92 2.4 3.19 -1.78 0 -1.7 -2.43zm7.87 2.43c-0.05,-0.11 -0.1,-0.31 -0.16,-0.57 -0.42,0.46 -0.95,0.69 -1.59,0.69 -0.62,0 -1.11,-0.18 -1.5,-0.53 -0.39,-0.36 -0.59,-0.78 -0.59,-1.31 0,-0.64 0.25,-1.15 0.73,-1.49 0.48,-0.35 1.17,-0.53 2.07,-0.53l0.85 0 0 -0.4c0,-0.3 -0.09,-0.57 -0.27,-0.76 -0.18,-0.18 -0.44,-0.29 -0.81,-0.29 -0.3,0 -0.57,0.09 -0.76,0.25 -0.2,0.14 -0.3,0.35 -0.3,0.58l-1.38 0c0,-0.33 0.12,-0.63 0.33,-0.93 0.23,-0.29 0.53,-0.52 0.91,-0.68 0.38,-0.17 0.81,-0.24 1.29,-0.24 0.7,0 1.27,0.17 1.69,0.53 0.43,0.35 0.66,0.86 0.66,1.52l0 2.74c0,0.55 0.09,0.99 0.23,1.33l0 0.09 -1.4 0zm-1.5 -0.98c0.26,0 0.53,-0.07 0.76,-0.21 0.25,-0.12 0.42,-0.3 0.55,-0.53l0 -1.15 -0.75 0c-0.51,0 -0.88,0.09 -1.15,0.26 -0.24,0.18 -0.37,0.43 -0.37,0.77 0,0.26 0.09,0.46 0.25,0.61 0.18,0.16 0.42,0.25 0.71,0.25zm9 -5.13l0 6.11 -1.36 0 0 -2.25 -1.29 0 -1.29 2.25 -1.44 0 1.45 -2.46c-0.37,-0.16 -0.67,-0.39 -0.86,-0.69 -0.21,-0.29 -0.3,-0.62 -0.3,-1.01 0,-0.57 0.21,-1.03 0.65,-1.4 0.44,-0.35 1.03,-0.53 1.77,-0.55l2.67 0zm-3.73 1.98c0,0.25 0.11,0.46 0.28,0.62 0.2,0.16 0.44,0.25 0.75,0.25l1.34 0 0 -1.77 -1.27 0c-0.32,0 -0.61,0.09 -0.8,0.27 -0.19,0.16 -0.3,0.37 -0.3,0.63z"/>
   <path class="fil6" d="M163.96 67.22c4.44,-2.09 15.83,-7.2 12.45,-11.53 -1.17,-1.49 -4.07,-1.54 -7.09,2.47 -2.89,3.84 -5.36,9.06 -5.36,9.06z"/>
   <path class="fil9" d="M81.24 62.52c6.09,-2.89 21.67,-9.87 17.04,-15.8 -1.59,-2.03 -5.56,-2.09 -9.69,3.4 -3.95,5.25 -7.35,12.4 -7.35,12.4z"/>
   <path class="fil6" d="M83.14 26.84c0.1,-0.2 3.59,1.02 4.72,0.46 2.14,-1.08 3.45,-5.45 3.77,-4.78 0.23,0.51 -1.54,4.53 -0.89,5.93 0.57,1.17 5.08,2.56 5.04,3.08 -0.01,0.14 -3.96,-0.78 -5.73,0.01 -2.31,1.03 -3.99,4.8 -4.42,4.97 -0.03,-0.39 1.29,-4.81 0.6,-6.61 -0.74,-1.91 -3.22,-2.87 -3.09,-3.06z"/>
   <path class="fil7" d="M45.85 67.66c3.34,-1.77 10.15,-3.87 14.31,-3.87 9.39,0 17.78,4.99 22.41,12.59l-4.6 0.78c-5.59,-8.24 -18.02,-11.46 -30.19,-5.92l-1.93 -3.58z"/>
   <path class="fil6" d="M56.6 73.47c1.07,-18.56 5.26,-30.98 13.01,-41.57 3.36,-4.6 6.63,-8.33 15.1,-11.87 7.22,-3.01 8,-13.23 1.51,-15.99 -8.64,-4.85 -37.88,9.53 -29.62,69.43z"/>
  </g>
 </g>
</svg>
