<?xml version="1.0" encoding="UTF-8"?>
<!DOCTYPE svg PUBLIC "-//W3C//DTD SVG 1.1//EN" "http://www.w3.org/Graphics/SVG/1.1/DTD/svg11.dtd">
<!-- Creator: CorelDRAW 2017 -->
<svg xmlns="http://www.w3.org/2000/svg" xml:space="preserve" width="157px" height="57px" version="1.1" style="shape-rendering:geometricPrecision; text-rendering:geometricPrecision; image-rendering:optimizeQuality; fill-rule:evenodd; clip-rule:evenodd"
viewBox="0 0 157 56.81"
 xmlns:xlink="http://www.w3.org/1999/xlink">
 <defs>
  <style type="text/css">
   <![CDATA[
    .fil1 {fill:#F8AC04}
    .fil0 {fill:#FEFEFE;fill-rule:nonzero}
   ]]>
  </style>
 </defs>
 <g id="Слой_x0020_1">
  <metadata id="CorelCorpID_0Corel-Layer"/>
  <g id="_783671312">
   <path class="fil0" d="M19.01 2.96c-2.05,-1.91 -5.09,-2.96 -7.88,-2.96 -6.1,0 -11.13,4.98 -11.13,11.13l0 14.42c0,4.42 0,8.9 0,13.36l0 0.12c0,1.84 1.56,3.41 3.41,3.41 1.9,0 3.46,-1.57 3.46,-3.41l0 -14.2 5.31 0c1.86,0 3.42,-1.52 3.42,-3.42 0,-1.84 -1.56,-3.35 -3.42,-3.35 0,0 -5.31,0 -5.31,0l0 -6.93c0,-2.41 1.91,-4.37 4.26,-4.37 1.11,0 2.11,0.47 2.91,1.18 1.37,1.24 3.53,1.18 4.8,-0.17 1.24,-1.33 1.53,-3.54 0.17,-4.81zm7.39 39.75c-1.96,0 -3.52,-1.56 -3.52,-3.46l0 -20.84c0,-1.9 1.56,-3.41 3.52,-3.41 1.84,0 3.41,1.51 3.41,3.41l0 20.84c0,1.9 -1.57,3.46 -3.41,3.46zm32.33 -24.15c-2.52,-2.34 -5.76,-3.69 -9.23,-3.69 -2.57,0 -5.03,0.78 -7.1,2.07 -0.44,-1.34 -1.67,-2.29 -3.19,-2.29 -1.84,0 -3.35,1.45 -3.35,3.3l0 21.41c0,1.85 1.51,3.35 3.35,3.35 1.85,0 3.36,-1.5 3.36,-3.35l0 -10.57c0,-3.96 3.13,-7.21 6.93,-7.21 1.73,0 3.41,0.68 4.64,1.85 1.4,1.28 3.47,1.17 4.75,-0.17 1.29,-1.34 1.18,-3.47 -0.16,-4.7zm29.08 10.01c0.22,-0.55 0.44,-1.12 0.44,-1.62 0.11,-1.84 -0.89,-3.92 -1.79,-5.48 -2.01,-3.35 -5.25,-5.7 -9.05,-6.43 -0.84,-0.17 -1.62,-0.22 -2.47,-0.22 -7.76,0 -13.97,6.37 -13.97,14.03 0,7.77 6.21,14.04 13.97,14.04 3.19,0 7.5,-1.01 10.57,-3.98 1.35,-1.28 1.4,-3.46 0.06,-4.75 -1.29,-1.34 -3.41,-1.34 -4.75,-0.06 -1.45,1.4 -4.08,2.13 -5.88,2.13 -3.46,0 -6.31,-2.46 -7.09,-5.65l17.22 0c1.34,0 2.29,-0.95 2.74,-2.01zm-12.87 -6.99c2.52,0 4.59,1.23 5.71,3.36l-11.85 0c1.33,-2.07 3.57,-3.36 6.14,-3.36zm36.85 -18.62c-2.05,-1.91 -4.75,-2.96 -7.55,-2.96 -6.09,0 -11.12,4.98 -11.12,11.13l0 14.42c0,4.42 0,8.9 0,13.36l0 0.12c0,1.83 1.56,3.41 3.41,3.41 1.9,0 3.46,-1.57 3.46,-3.41l0 -14.2 5.32 0c1.84,0 3.41,-1.52 3.41,-3.42 0,-1.84 -1.57,-3.35 -3.41,-3.35 0,0 -5.32,0 -5.32,0l0 -6.93c0,-2.41 1.9,-4.37 4.25,-4.37 1.12,0 2.12,0.47 2.91,1.18 1.39,1.24 3.54,1.18 4.81,-0.17 1.24,-1.33 1.18,-3.55 -0.17,-4.81zm12.33 33c-0.51,0 -0.89,-0.46 -0.89,-0.96 0,-0.17 -0.06,-0.33 -0.06,-0.5 0,-0.17 0.06,-0.34 0.06,-0.5l0 -30.37c0,-1.84 -1.52,-3.35 -3.42,-3.35 -1.84,0 -3.35,1.51 -3.35,3.35 0,4.03 0,8.06 0,12.08l0 16.72c0,2.62 -0.12,5.1 1.56,7.27 1.45,1.84 3.75,3.01 6.1,3.01 1.9,0 3.41,-1.5 3.41,-3.4 0,-1.85 -1.51,-3.35 -3.41,-3.35zm29.59 -21.09c-1.74,0 -3.25,1.52 -3.25,3.36l0 10.11c0,3.85 -2.85,7.05 -6.37,7.05 -3.47,0 -6.32,-3.19 -6.32,-7.05l0 -10c0,-1.79 -1.46,-3.36 -3.24,-3.36 -1.79,0 -3.25,1.58 -3.25,3.36l0 10c0,7.6 5.76,13.76 12.81,13.76 2.35,0 4.53,-0.67 6.37,-1.73l0 2.29c0,4.07 -3.24,7.44 -7.21,7.44 -2.07,0 -4.11,-0.94 -5.48,-2.58 -1.2,-1.42 -3.25,-1.61 -4.59,-0.39 -1.33,1.23 -1.5,3.36 -0.33,4.75 2.62,3.13 6.37,4.93 10.4,4.93 7.55,0 13.75,-6.38 13.75,-14.15l0 -24.43c0,-1.85 -1.45,-3.36 -3.29,-3.36z"/>
   <path class="fil1" d="M22.76 10.79c3.84,-1.82 13.71,-6.23 10.78,-9.98 -1,-1.3 -3.52,-1.33 -6.13,2.14 -2.5,3.32 -4.65,7.84 -4.65,7.84z"/>
  </g>
 </g>
</svg>
