<?xml version="1.0" encoding="UTF-8"?>
<!DOCTYPE svg PUBLIC "-//W3C//DTD SVG 1.1//EN" "http://www.w3.org/Graphics/SVG/1.1/DTD/svg11.dtd">
<!-- Creator: CorelDRAW 2017 -->
<svg xmlns="http://www.w3.org/2000/svg" xml:space="preserve" width="27px" height="15px" version="1.1" style="shape-rendering:geometricPrecision; text-rendering:geometricPrecision; image-rendering:optimizeQuality; fill-rule:evenodd; clip-rule:evenodd"
viewBox="0 0 27 15.28"
 xmlns:xlink="http://www.w3.org/1999/xlink">
 <defs>
  <style type="text/css">
   <![CDATA[
    .fil0 {fill:white}
   ]]>
  </style>
 </defs>
 <g id="Слой_x0020_1">
  <metadata id="CorelCorpID_0Corel-Layer"/>
  <g id="_1981145963616">
   <path class="fil0" d="M23.24 9.72c0.89,0.87 1.84,1.69 2.64,2.66 0.36,0.42 0.69,0.86 0.95,1.36 0.36,0.71 0.03,1.48 -0.6,1.53l-3.93 -0.01c-1.02,0.09 -1.83,-0.32 -2.51,-1.01 -0.54,-0.56 -1.05,-1.15 -1.57,-1.72 -0.21,-0.24 -0.44,-0.46 -0.71,-0.63 -0.53,-0.35 -1,-0.24 -1.31,0.32 -0.31,0.57 -0.38,1.2 -0.41,1.83 -0.04,0.93 -0.32,1.17 -1.25,1.21 -1.99,0.1 -3.88,-0.2 -5.63,-1.21 -1.55,-0.88 -2.75,-2.13 -3.79,-3.54 -2.03,-2.75 -3.59,-5.78 -4.98,-8.89 -0.32,-0.7 -0.09,-1.07 0.68,-1.09 1.29,-0.02 2.57,-0.02 3.86,0 0.52,0.01 0.86,0.31 1.06,0.8 0.7,1.71 1.55,3.33 2.61,4.84 0.29,0.4 0.58,0.8 0.99,1.08 0.46,0.31 0.8,0.21 1.02,-0.3 0.13,-0.32 0.19,-0.67 0.22,-1.01 0.11,-1.19 0.12,-2.37 -0.06,-3.56 -0.11,-0.74 -0.52,-1.21 -1.26,-1.35 -0.38,-0.08 -0.32,-0.21 -0.14,-0.43 0.32,-0.37 0.61,-0.6 1.21,-0.6l4.44 0c0.7,0.14 0.86,0.45 0.95,1.16l0.01 4.93c-0.01,0.28 0.13,1.09 0.62,1.27 0.4,0.13 0.66,-0.19 0.89,-0.44 1.07,-1.13 1.83,-2.46 2.51,-3.85 0.3,-0.6 0.56,-1.23 0.81,-1.87 0.18,-0.46 0.47,-0.69 1,-0.68l4.28 0c0.13,0 0.25,0 0.38,0.02 0.72,0.13 0.92,0.44 0.69,1.14 -0.35,1.1 -1.03,2.03 -1.7,2.95 -0.71,0.99 -1.47,1.94 -2.18,2.93 -0.65,0.91 -0.6,1.37 0.21,2.16l0 0z" data-original="#436EAB" data-old_color="#ffffff"/>
  </g>
 </g>
</svg>
