<svg width="104" height="104" viewBox="0 0 104 104" fill="none" xmlns="http://www.w3.org/2000/svg">
<g clip-path="url(#clip0)">
<path d="M3.9 32.1969C7.16412 24.2865 12.33 17.3039 18.9395 11.8685C25.5489 6.43311 33.3976 2.71285 41.7895 1.03775C50.1813 -0.637363 58.8568 -0.215551 67.0465 2.26577C75.2363 4.74709 82.687 9.21121 88.738 15.2622C94.789 21.3132 99.2531 28.764 101.734 36.9537C104.216 45.1434 104.638 53.8189 102.962 62.2108C101.287 70.6026 97.5671 78.4513 92.1317 85.0608C86.6963 91.6702 79.7137 96.8361 71.8033 100.1V94.6836C78.6639 91.4932 84.6536 86.6949 89.2642 80.696C93.8748 74.697 96.9703 67.6744 98.2881 60.2239C99.6058 52.7735 99.1068 45.1151 96.8336 37.8986C94.5603 30.6821 90.5798 24.1205 85.2297 18.7705C79.8797 13.4205 73.3181 9.43993 66.1016 7.16665C58.8851 4.89338 51.2267 4.39443 43.7763 5.71216C36.3259 7.02989 29.3032 10.1254 23.3043 14.736C17.3053 19.3467 12.5071 25.3364 9.31667 32.1969H3.9ZM52 94.0769C46.474 94.0816 41.0014 92.995 35.8964 90.8794C30.7914 88.7638 26.1544 85.6608 22.2517 81.7486C18.3355 77.8476 15.2285 73.2114 13.1091 68.1063C10.9898 63.0012 9.89975 57.5278 9.90167 52.0002H14.8633C14.8681 54.1798 15.0638 56.3548 15.4483 58.5002L19.5 55.9002L15.47 42.0986H6.5L4.98333 45.1319V52.0002C4.98907 64.47 9.94375 76.4278 18.7592 85.2473C27.5747 94.0669 39.5302 99.0271 52 99.0386H58.8683L61.9017 97.5219V88.5302L48.1 84.5002L45.5 88.5736C47.6455 88.9578 49.8204 89.1536 52 89.1586V94.0985V94.0769ZM16.7267 63.6352C18.5467 69.1477 21.6338 74.1567 25.74 78.2602C29.844 82.3658 34.8529 85.4528 40.365 87.2736L45.0017 80.3186L45.9983 78.8236L47.7317 79.3219L65.065 84.2836L66.8633 84.8036V100.577L65.4983 101.27L60.5367 103.74L59.995 104H52C38.2087 104 24.9823 98.5217 15.2304 88.7698C5.47856 79.0179 0 65.7915 0 52.0002L0 44.0052L0.26 43.4636L2.73 38.5019L3.42333 37.1369H19.1967L19.7167 39.0002L24.6783 56.3336L25.1767 58.0669L23.6817 59.0636L16.7483 63.7002L16.7267 63.6352Z" fill="#333333"/>
<path d="M36.9617 63.31C36.9653 61.6847 37.6118 60.1269 38.76 58.9767L44.8917 52.845L51.0233 46.7133C52.3158 45.4169 53.2688 43.8219 53.798 42.0694C54.3271 40.3169 54.4161 38.461 54.057 36.6659C53.6979 34.8708 52.9018 33.192 51.7393 31.7779C50.5767 30.3638 49.0834 29.2581 47.3917 28.5586C45.6999 27.8592 43.8618 27.5876 42.0401 27.7678C40.2184 27.9481 38.4691 28.5747 36.9473 29.5921C35.4254 30.6095 34.1778 31.9864 33.3149 33.6009C32.4519 35.2154 32.0003 37.0177 32 38.8483H36.94C36.9312 37.8268 37.1752 36.8189 37.6501 35.9144C38.125 35.01 38.8162 34.2369 39.6621 33.6641C40.508 33.0913 41.4824 32.7366 42.4985 32.6314C43.5147 32.5262 44.5411 32.6739 45.4864 33.0614C46.4316 33.4488 47.2665 34.0639 47.9166 34.8519C48.5666 35.64 49.0118 36.5765 49.2124 37.5782C49.4131 38.5799 49.3629 39.6157 49.0665 40.5933C48.77 41.5709 48.2365 42.4601 47.5133 43.1817L35.25 55.445C33.1702 57.5344 32.0018 60.3619 32 63.31V68.2717H54.295V63.31H36.9617Z" fill="#169877"/>
<path d="M66.6667 58.2833V68.185L71.6067 68.2067V58.305H76.5683V53.3433H71.6283V48.3817H66.6667V53.3433H57.7183L80.9017 29.4233L77.2617 26L52.4967 51.6317L51.8033 52.3467V58.2833H66.6667Z" fill="#169877"/>
</g>
<defs>
<clipPath id="clip0">
<rect width="104" height="104" fill="white"/>
</clipPath>
</defs>
</svg>
