<svg width="101" height="101" viewBox="0 0 101 101" fill="none" xmlns="http://www.w3.org/2000/svg">
<path d="M55.3396 99.7377V92.1627L55.9708 91.5314L74.4875 73.0148V66.7023H79.3271V74.9085L78.6958 75.5398L60.1792 94.0564V99.7377H55.3396ZM86.6917 15.571H79.5375V27.5648H86.6917V15.571ZM77.0125 10.7314H91.5312V32.4044H74.6979V10.7314H77.0125ZM34.9292 63.7564H0V1.2627H101V63.7564H74.0667L57.4438 80.3794L54.0771 77.0127L73.225 57.8648C75.3292 56.1814 75.5396 53.0252 73.6458 51.1314C71.7521 49.2377 68.8063 48.8169 66.9125 50.7106C66.7021 50.921 66.4917 51.1314 66.4917 51.1314L54.4979 63.1252L53.8667 63.7564H45.8708C40.6104 63.7564 36.1917 67.9648 36.1917 73.4356V99.9481H31.3521V73.4356C31.3521 69.8585 32.6146 66.2814 34.9292 63.7564ZM78.275 58.9169H96.1604V6.10228H4.83958V58.9169H51.5521L62.9146 47.5544C66.7021 43.7669 72.8042 43.7669 76.5917 47.5544C79.5375 50.5002 80.1688 55.1294 78.275 58.9169Z" fill="#333333"/>
<path d="M34.6729 24.6792H13V29.5187H34.6729V24.6792Z" fill="#169877"/>
<path d="M51.5063 15H13V19.8396H51.5063V15Z" fill="#169877"/>
</svg>
