<svg width="118" height="85" viewBox="0 0 118 85" fill="none" xmlns="http://www.w3.org/2000/svg">
<path d="M25.3442 25.7095V43.3604L21.8534 42.5L10.6188 39.6729L11.9709 34.24L19.7146 36.1575V25.7095H25.3442ZM22.5171 59.4379C19.0284 59.4208 15.5916 58.5917 12.479 57.016C9.36632 55.4404 6.66333 53.1616 4.58412 50.3601C2.50491 47.5587 1.10661 44.3115 0.499993 40.8759C-0.106629 37.4403 0.0950938 33.9107 1.08918 30.5666C2.08327 27.2225 3.84241 24.1558 6.22725 21.6094C8.61208 19.0631 11.5571 17.1071 14.829 15.8963C18.1009 14.6856 21.6098 14.2533 25.0777 14.6339C28.5456 15.0144 31.8773 16.1973 34.8088 18.0887C33.8959 19.6792 33.0751 21.3208 32.3505 23.0054C29.9388 21.3244 27.1296 20.303 24.2014 20.0425C21.2732 19.782 18.3278 20.2915 15.6573 21.5204C12.9868 22.7494 10.6838 24.655 8.97694 27.0484C7.27003 29.4419 6.21842 32.2399 5.9264 35.1651C5.63437 38.0903 6.11207 41.041 7.31212 43.7246C8.51217 46.4083 10.3929 48.7316 12.7678 50.4642C15.1427 52.1968 17.9292 53.2785 20.8511 53.6021C23.7729 53.9256 26.7286 53.4798 29.425 52.3087C29.8235 54.1567 30.3325 55.9792 30.9492 57.7662C28.3335 58.7924 25.5482 59.3178 22.7384 59.315L22.5171 59.4379ZM75.9121 84.4391C66.1629 84.4275 56.7194 81.0356 49.1909 74.8413C41.6624 68.6471 36.5148 60.0339 34.6253 50.4695C32.7359 40.9051 34.2215 30.9815 38.829 22.3898C43.4365 13.798 50.8808 7.06989 59.8932 3.3519C68.9056 -0.366092 78.9284 -0.843835 88.2536 2.00009C97.5788 4.84401 105.629 10.8336 111.033 18.9481C116.437 27.0627 118.86 36.8 117.889 46.5007C116.917 56.2014 112.612 65.2652 105.707 72.1475C101.794 76.0567 97.1482 79.1548 92.0352 81.2641C86.9222 83.3734 81.4431 84.4524 75.9121 84.4391ZM50.075 68.1158C56.0498 74.0932 63.9122 77.8142 72.3228 78.6446C80.7333 79.475 89.1716 77.3635 96.1999 72.6699C103.228 67.9763 108.412 60.9909 110.867 52.904C113.323 44.8171 112.898 36.129 109.666 28.32C106.434 20.511 100.594 14.0642 93.1419 10.0781C85.6895 6.09197 77.0856 4.81313 68.796 6.45945C60.5065 8.10577 53.0442 12.5754 47.6806 19.1068C42.317 25.6382 39.384 33.8273 39.3813 42.2787C39.373 47.0776 40.3136 51.8307 42.1488 56.2648C43.984 60.6989 46.6778 64.7264 50.075 68.1158Z" fill="#333333"/>
<path d="M73.5739 16H76.3059H76.2065H76.7281H76.6288H79.3608H73.5739ZM79.3484 16V21.5929C80.8758 21.5929 82.3784 21.9023 83.7693 22.4715C85.1726 23.053 86.4516 23.8944 87.5196 24.9586C88.5876 26.0227 89.432 27.3096 90.0157 28.7078C90.5994 30.0937 90.8974 31.5909 90.8974 33.1005H89.1588H88.0039H85.1105C85.1105 32.321 84.9614 31.5662 84.6758 30.8856C84.4026 30.2174 83.968 29.5864 83.4216 29.0295C82.8752 28.4851 82.2294 28.052 81.5588 27.7798H81.5464C80.8634 27.4952 80.1059 27.3467 79.336 27.3467V35.9836H73.5614V27.3467C72.7915 27.3467 72.034 27.4952 71.351 27.7798H71.3386C70.668 28.052 70.0346 28.4851 69.4758 29.0295C68.3458 30.1556 67.7869 31.628 67.7869 33.1005C67.7869 34.573 68.3458 36.0578 69.4634 37.1715H69.4758C70.0222 37.7159 70.668 38.149 71.3386 38.4212H71.351C72.0588 38.7058 72.8039 38.8667 73.5614 38.8667V38.8543H79.336V38.8667C80.8758 38.8667 82.3784 39.1636 83.7569 39.7328C85.1601 40.3144 86.4392 41.1558 87.5072 42.2199V42.2323C89.7549 44.4843 90.885 47.4169 90.885 50.3619C90.885 53.3068 89.7549 56.2518 87.5072 58.5038C86.4392 59.5679 85.1601 60.4093 83.7569 60.9909C82.3784 61.5601 80.8758 61.8571 79.336 61.8571V67.6232H73.5614V61.8694C72.034 61.8694 70.5438 61.5601 69.1405 60.9909C67.7373 60.4093 66.4582 59.5679 65.3902 58.5038C64.3222 57.4396 63.4778 56.1528 62.8941 54.7545C62.3105 53.3687 62.0124 51.8715 62.0124 50.3619H64.9059H66.0608H67.7993C67.7993 51.1414 67.9484 51.8962 68.234 52.5768C68.3209 52.7995 68.4327 53.0222 68.5569 53.2326C68.8052 53.6657 69.1157 54.0616 69.4882 54.4328C69.6497 54.5937 69.8111 54.7422 69.985 54.8783C70.4072 55.2124 70.8667 55.4846 71.351 55.6826H71.3634C72.0464 55.9672 72.7915 56.1157 73.5614 56.1157L79.5346 56.128C80.2177 56.1033 80.9007 55.9548 81.5464 55.6826H81.5588C82.2294 55.4104 82.8627 54.9773 83.4216 54.4328C84.5516 53.3068 85.1105 51.8343 85.1105 50.3619C85.1105 48.8894 84.5516 47.4045 83.4216 46.2909C82.8752 45.7465 82.2294 45.3134 81.5588 45.0412H81.5464C81.149 44.8803 80.7268 44.7566 80.2922 44.6823C79.9693 44.6328 79.6588 44.5957 79.336 44.5957V53.2449H73.5614V44.6081C72.0216 44.6081 70.519 44.3111 69.1405 43.7419C67.7373 43.1604 66.4582 42.3189 65.3902 41.2548C63.1301 39.0028 62 36.0578 62 33.1253C62 30.1803 63.1301 27.2354 65.3778 24.9833C66.4458 23.9192 67.7248 23.0778 69.1281 22.4962C70.519 21.9146 72.0216 21.6177 73.549 21.6177V16.0247" fill="#169877"/>
</svg>
