<svg width="104" height="104" viewBox="0 0 104 104" fill="none" xmlns="http://www.w3.org/2000/svg">
<g clip-path="url(#clip0)">
<path d="M58.9333 104H3.46667V9.31667H24.2667V4.55H34.45L35.9667 1.3L36.6167 0H48.75L49.4 1.3L51.1333 4.55H61.3167V9.1H82.1167V53.0833H77.5667V13.8667H61.3167V20.8H28.8167V16.25H56.55V9.31667H48.3167L47.6667 8.01667L45.9333 4.76667H39.4333L37.7 8.01667L37.05 9.31667H28.8167V13.8667H8.01667V99.45H58.9333V104ZM93.8167 64.5667C102.917 73.6667 102.917 88.1833 93.8167 97.2833C84.7167 106.383 70.2 106.383 61.1 97.2833C52 88.1833 52 73.6667 61.1 64.5667C70.2 55.4667 84.7167 55.4667 93.8167 64.5667ZM95.9833 80.8167C95.9833 70.6333 87.75 62.4 77.35 62.4C72.3667 62.4 67.8167 64.35 64.35 67.8167C57.2 74.9667 57.2 86.6667 64.35 94.0333C71.5 101.183 83.2 101.183 90.5667 94.0333C94.0333 90.5667 95.9833 86.0167 95.9833 80.8167ZM17.3333 73.8833H38.1333V78.4333H17.3333V73.8833ZM17.3333 64.7833H47.45V69.3333H17.3333V64.7833ZM17.3333 50.9167H68.25V55.4667H17.3333V50.9167ZM17.3333 32.2833H68.25V36.8333H17.3333C17.3333 37.05 17.3333 32.2833 17.3333 32.2833ZM17.3333 41.6H68.25V46.15H17.3333V41.6Z" fill="#333333"/>
<path d="M77.2667 88.25L90.2667 75.25L86.5833 72L75.3167 83.2667L69.25 77.2L66 80.45L73.8 88.25L75.5333 89.9833L77.2667 88.25Z" fill="#169877"/>
</g>
<defs>
<clipPath id="clip0">
<rect width="104" height="104" fill="white"/>
</clipPath>
</defs>
</svg>
