<svg width="106" height="102" viewBox="0 0 106 102" fill="none" xmlns="http://www.w3.org/2000/svg">
<path d="M46.5958 56.525C46.8167 62.9 49.2458 68.85 53.6625 73.525C59.4042 79.475 66.4708 84.3625 74.2 87.55C81.9292 84.15 88.9958 79.475 94.7375 73.525C99.1542 68.85 101.804 62.9 101.804 56.525V29.5375H46.5958V56.525ZM45.4917 2.12505L66.6917 13.8125L80.1625 21.25H71.7708L64.7042 17.425L46.5958 7.43755V21.25H42.4V7.43755L24.2917 17.425L9.9375 25.5H38.2042V29.5375H9.9375L42.4 47.6V25.5H106V56.7375C105.779 63.9625 102.908 70.9751 97.8292 76.2876C91.425 82.8751 83.6958 88.1875 75.0833 91.8L74.2 92.225L73.3167 91.8C64.7042 88.1875 56.975 82.8751 50.5708 76.2876C49.025 74.5876 47.9208 72.8876 46.5958 71.1875L46.375 100.938L40.8542 98.175L39.75 97.5376L18.55 85.8501L1.10417 76.5L0 75.65V26.35L1.10417 25.7125L22.3042 14.025L43.5042 2.12505L44.6083 1.48755L45.4917 2.12505ZM21.2 66.3V82.6626H20.9792L24.2917 84.575L42.4 94.5625V52.0625L4.19583 30.8125V73.3125L8.39167 75.65V62.2625H12.5875V77.9875L16.7833 80.325V66.3H21.2Z" fill="#333333"/>
<path d="M71.6374 60.2133L64.7916 53.6258L61.9208 56.6008L70.3124 64.6758L71.8583 66.3758L73.4041 64.6758L90.1874 46.1883L87.0958 43.4258L71.6374 60.2133Z" fill="#169877"/>
</svg>
