<svg xmlns="http://www.w3.org/2000/svg" viewBox="0 0 438 109.79" class="logo__pic img-responsive"><path fill="#FFF" d="M252 .5a61.8 61.8 0 0 1 16.5 0c4.6 8.4 8.8 17 13.5 25 8.7 2 17.6 3.2 26.3 5h.3a55.7 55.7 0 0 1 5 16.4l-18 19.6c.8 9 2.4 17.7 3 26.6a50 50 0 0 1-14 10.4c-8.3-4-16.6-7.8-25-11.7-8.2 4-16.6 7.8-25 12a59.7 59.7 0 0 1-13.2-9.4c1-9.4 2.2-18.7 3.3-28-6.5-7-13-13.8-19.5-20.5A53 53 0 0 1 210 31c9.5-1.7 19-3.5 28.5-5.6L252 .5z"/><path fill="#E20613" d="M210 30.8c7.6-16.3 24-28.4 42-30.3l-13.5 24.8c-9.5 2-19 3.8-28.5 5.5zM268.5.7c17 2.7 32.7 14 39.8 29.7-8.7-1.7-17.5-3-26.3-4.8-4.7-8.2-9-16.7-13.5-25z"/><path fill="#FFF" d="M25.6 2.4l1-.5H53a2.6 2.6 0 0 1 2.5 4C49.2 29.3 43 52.8 36.7 76a2.3 2.3 0 0 0 2 3.3h50.6c2-.3 3.8 2 2.6 4-1.5 4.6-2.7 9.5-4 14.3a3 3 0 0 1-3.4 2h-82c-1.4 0-3-1.5-2.5-3L24 7.3c.5-1.6.4-3.6 1.6-5zm96.9 3.4a4.4 4.4 0 0 1 4.2-4H204c3 0 3.7 4 2 6a83.7 83.7 0 0 0-9.7 14l-1 .3H152a3 3 0 0 0-3.6 2.2c-1 4.4-2.3 8.8-3.5 13.2-.5 1.4 1.2 3 2.6 3h38.2a3.4 3.4 0 0 1 4.2 3l-4 15c-.3 1.5-2.3 2.2-3.8 2h-42l-1.5 1c-1.8 5.3-3 10.7-4.4 16l2 2.3c17.7.2 35.4 0 53 0 1.8-.3 3 1 3.6 2.5-1.3 5-2.8 10-4 15.2a3 3 0 0 1-3.4 2.2c-28.7 0-57.3.2-86 0l-1.5-2c8-30.5 16.4-61 24.5-91.8zm215.2-1a3.7 3.7 0 0 1 3.7-3c7.2.2 14.4 0 21.5.2l1.6 1.2c9.3 17 18 34.7 27.4 51.8l1-.6c5-17.4 9.6-35 14.5-52.5 9.2 0 18.6-.4 27.8 0l1.3 1.6c-8 31-16.5 61.8-24.6 92.7a3.8 3.8 0 0 1-4.2 3.2h-20.2c-2 0-2.8-2-3.6-3.6-9-16-18-32-27.2-47.6l-1 1C351 66 347.3 82.7 342.4 99l-1.2.5c-9.2 0-18.5 0-27.7-.2l-1.4-1.6c11.5-14.5 17.2-33.6 14.4-52l11-41z"/><path fill="#E20613" d="M243.8 34.5c10-.5 20 0 30-.3l.7.5c3 9.4 6 18.8 9.3 28-7.7 6.6-16.5 12.2-24.6 18.4-8.2-6-17-11.7-24.6-18.2 3.3-9.3 6.2-18.8 9.2-28.3zM205.3 46c6.6 6.8 13 13.7 19.4 20.6l-3.2 28c-13-12-19.5-31-16.2-48.5zm90.2 20.6l18-19.7c2.8 16.5-3 34.5-15 46.2-.5-9-2-17.7-3-26.6zM234.7 104c8.3-4.2 16.8-8 25-12 8.3 3.8 16.7 7.6 25 11.6-15.3 8.2-34.6 8.2-50 .3z"/></svg>