<?xml version="1.0" standalone="no"?>
<!DOCTYPE svg PUBLIC "-//W3C//DTD SVG 1.1//EN" "http://www.w3.org/Graphics/SVG/1.1/DTD/svg11.dtd" >
<svg>
<metadata>
Created by FontForge 20090914 at Sun Apr  9 14:24:04 2017
 By www-data
Copyright (c) 2011-2014 by tyPoland Lukasz Dziedzic (http://www.typoland.com/) with Reserved Font Name "Lato". Licensed under the SIL Open Font License, Version 1.1 (http://scripts.sil.org/OFL). 
</metadata>
<defs>
<font id="Lato-Black" horiz-adv-x="800" >
  <font-face 
    font-family="Lato Black"
    font-weight="900"
    font-stretch="normal"
    units-per-em="2000"
    panose-1="2 15 5 2 2 2 4 3 2 3"
    ascent="1610"
    descent="-390"
    x-height="1037"
    cap-height="1457"
    bbox="-177 -430.006 2712 1937"
    underline-thickness="98"
    underline-position="-412"
    unicode-range="U+0020-U+04FF"
  />
<missing-glyph horiz-adv-x="1123" 
d="M230 1152c41.333 32 88.001 58.498 140.001 79.498s113 31.5 183 31.5c52 0 97.833 -6.66699 137.5 -20s73.167 -32 100.5 -56s48 -53 62 -87s21 -71.667 21 -113c0 -36.667 -4.33301 -68.334 -13 -95.001s-19.5 -49.667 -32.5 -69s-27.333 -36 -43 -50l-45.5 -39
c-14.667 -12 -27.667 -23.667 -39 -35s-19 -24 -23 -38l-27 -90h-212l-22 112c-5.33301 26 -4.83301 48.167 1.5 66.5s15.833 34.666 28.5 48.999s27.167 27.333 43.5 39s31.666 23.834 45.999 36.501s26.333 26.334 36 41.001s14.5 32.334 14.5 53.001
c0 15.333 -4.33301 28.166 -13 38.499s-25 15.5 -49 15.5c-21.333 0 -39 -1.66699 -53 -5s-26.167 -7.16602 -36.5 -11.499s-20 -8.16602 -29 -11.499s-19.5 -5 -31.5 -5c-28.667 0 -49.667 12 -63 36zM374.001 330.998c0 22 4 42.5 12 61.5s19.333 35.5 34 49.5
s31.667 25 51 33s40.666 12 63.999 12c22 0 42.667 -4 62 -12s36.166 -19 50.499 -33s25.666 -30.5 33.999 -49.5s12.5 -39.5 12.5 -61.5s-4.16699 -42.5 -12.5 -61.5s-19.666 -35.5 -33.999 -49.5s-31.166 -25 -50.499 -33s-40 -12 -62 -12c-23.333 0 -44.666 4 -63.999 12
s-36.333 19 -51 33s-26 30.5 -34 49.5s-12 39.5 -12 61.5zM40.001 1457h1043v-1457h-1043v1457zM117.001 79.998h879v1297h-879v-1297z" />
    <glyph glyph-name="f_b.liga" unicode="fb" horiz-adv-x="1903" 
d="M1169 927c40 38 83.8311 68.502 131.498 91.502s100.834 34.5 159.501 34.5s112 -12 160 -36s89 -58.167 123 -102.5s60.167 -97.833 78.5 -160.5s27.5 -132.667 27.5 -210c0 -84 -10.667 -160.333 -32 -229s-51.5 -127.5 -90.5 -176.5s-85.5 -87 -139.5 -114
s-113.667 -40.5 -179 -40.5c-31.333 0 -59.333 3 -84 9s-47.334 14.5 -68.001 25.5s-39.5 24.167 -56.5 39.5s-33.5 32 -49.5 50l-11 -52c-5.33301 -21.333 -14 -36 -26 -44s-28 -12 -48 -12h-206v1298c-23.333 9.33301 -47.833 17 -73.5 23s-51.167 9 -76.5 9
c-35.333 0 -67.166 -6 -95.499 -18s-52.166 -28.667 -71.499 -50s-34.166 -46.5 -44.499 -75.5s-15.5 -60.5 -15.5 -94.5v-57h243v-212h-233v-823h-310v824l-68 14c-23.333 5.33301 -42.166 13.666 -56.499 24.999s-21.5 28 -21.5 50v122h146v57
c0 62 10.167 119.333 30.5 172s52.5 98.167 96.5 136.5s100.5 68.333 169.5 90s152.5 32.5 250.5 32.5c34.667 0 67.167 -1.33301 97.5 -4l92.5 -8.5c31.333 -3 64.666 -5.83301 99.999 -8.5s75.666 -4.33398 120.999 -5.00098h29v-570zM1169 282.002
c23.333 -25.333 48.666 -43.333 75.999 -54s55 -16 83 -16c29.333 0 56.333 5.5 81 16.5s45.834 29 63.501 54s31.5 58 41.5 99s15 91.5 15 151.5c0 52 -3.83301 96.167 -11.5 132.5s-19 66 -34 89s-33.667 39.667 -56 50s-47.833 15.5 -76.5 15.5
c-38 0 -71 -8.33301 -99 -25s-55.667 -41 -83 -73v-440z" />
    <glyph glyph-name="f_f_b.liga" unicode="ffb" horiz-adv-x="2567" 
d="M182 0l-0.00390625 824l-68 14c-23.333 5.33301 -42.166 13.666 -56.499 24.999s-21.5 28 -21.5 50v122h146v39c0 59.333 9.5 113.166 28.5 161.499s46.333 89.5 82 123.5s79.167 60.167 130.5 78.5s109.666 27.5 174.999 27.5c25.333 0 48.666 -1.5 69.999 -4.5
s43.666 -7.5 66.999 -13.5l-6 -151c-1.33301 -21.333 -10.166 -36.166 -26.499 -44.499s-33.166 -12.5 -50.499 -12.5c-27.333 0 -51.666 -2.66699 -72.999 -8s-39.166 -14.666 -53.499 -27.999s-25.166 -31.166 -32.499 -53.499s-11 -50.5 -11 -84.5v-30h364v57
c0 62 10.167 119.333 30.5 172s52.5 98.167 96.5 136.5s100.5 68.333 169.5 90s152.5 32.5 250.5 32.5c34.667 0 67.167 -1.33301 97.5 -4l92.5 -8.5c31.333 -3 64.666 -5.83301 99.999 -8.5s75.666 -4.33398 120.999 -5.00098h29v-570c40 38 83.833 68.5 131.5 91.5
s100.834 34.5 159.501 34.5s112 -12 160 -36s89 -58.167 123 -102.5s60.167 -97.833 78.5 -160.5s27.5 -132.667 27.5 -210c0 -84 -10.667 -160.333 -32 -229s-51.5 -127.5 -90.5 -176.5s-85.5 -87 -139.5 -114s-113.667 -40.5 -179 -40.5c-31.333 0 -59.333 3 -84 9
s-47.334 14.5 -68.001 25.5s-39.5 24.167 -56.5 39.5s-33.5 32 -49.5 50l-11 -52c-5.33301 -21.333 -14 -36 -26 -44s-28 -12 -48 -12h-206v1298c-23.333 9.33301 -47.833 17 -73.5 23s-51.167 9 -76.5 9c-35.333 0 -67.166 -6 -95.499 -18s-52.166 -28.667 -71.499 -50
s-34.166 -46.5 -44.499 -75.5s-15.5 -60.5 -15.5 -94.5v-57h243v-212h-233v-823h-310v823h-354v-823h-310zM1833 282c23.333 -25.333 48.668 -43.333 76.001 -54s55 -16 83 -16c29.333 0 56.333 5.5 80.999 16.5c24.667 11 45.834 29 63.5 54c17.667 25 31.5 58 41.5 99
s15 91.5 15 151.5c0 52 -3.83301 96.167 -11.5 132.5s-19 66 -34 89s-33.667 39.667 -56 50s-47.833 15.5 -76.5 15.5c-38 0 -71 -8.33301 -99 -25s-55.667 -41 -83 -73v-440z" />
    <glyph glyph-name="f_f.liga" unicode="ff" horiz-adv-x="1396" 
d="M182 0l0.000976562 823.999l-68 14c-23.333 5.33301 -42.166 13.666 -56.499 24.999s-21.5 28 -21.5 50v122h146v39c0 59.333 9.5 113.166 28.5 161.499s46.333 89.5 82 123.5s79.167 60.167 130.5 78.5s109.666 27.5 174.999 27.5c25.333 0 48.666 -1.5 69.999 -4.5
s43.666 -7.5 66.999 -13.5l-6 -151c-1.33301 -21.333 -10.166 -36.166 -26.499 -44.499s-33.166 -12.5 -50.499 -12.5c-27.333 0 -51.666 -2.66699 -72.999 -8s-39.166 -14.666 -53.499 -27.999s-25.166 -31.166 -32.499 -53.499s-11 -50.5 -11 -84.5v-30h364v78
c0 59.333 9.5 113 28.5 161s46.333 89 82 123s79.167 60.333 130.5 79s109.666 28 174.999 28c25.333 0 48.666 -1.5 69.999 -4.5s43.666 -7.83301 66.999 -14.5l-6 -151c-0.666992 -10.667 -3.33398 -19.5 -8.00098 -26.5s-10.834 -12.667 -18.501 -17
s-15.834 -7.5 -24.501 -9.5s-17.334 -3 -26.001 -3c-27.333 0 -51.666 -2.66699 -72.999 -8s-39.166 -14.833 -53.499 -28.5s-25.166 -31.667 -32.499 -54s-11 -50.5 -11 -84.5v-68h243v-212h-233v-823h-310v823h-354v-823h-310z" />
    <glyph glyph-name="f_h.liga" unicode="fh" horiz-adv-x="1894" 
d="M1169 946c37.333 32 77.8281 57.835 121.495 77.502s95.834 29.5 156.501 29.5c56.667 0 106.834 -9.83301 150.501 -29.5s80.5 -47 110.5 -82s52.667 -76.667 68 -125s23 -100.833 23 -157.5v-659h-310v659c0 50.667 -11.667 90.167 -35 118.5
s-57.666 42.5 -102.999 42.5c-34 0 -65.833 -7.16699 -95.5 -21.5s-58.5 -33.833 -86.5 -58.5v-740h-310v1298c-23.333 9.33301 -47.833 17 -73.5 23s-51.167 9 -76.5 9c-35.333 0 -67.166 -6 -95.499 -18s-52.166 -28.667 -71.499 -50s-34.166 -46.5 -44.499 -75.5
s-15.5 -60.5 -15.5 -94.5v-57h243v-212h-233v-823h-310v824l-68 14c-23.333 5.33301 -42.166 13.666 -56.499 24.999s-21.5 28 -21.5 50v122h146v57c0 62 10.167 119.333 30.5 172s52.5 98.167 96.5 136.5s100.5 68.333 169.5 90s152.5 32.5 250.5 32.5
c34.667 0 67.167 -1.33301 97.5 -4l92.5 -8.5c31.333 -3 64.666 -5.83301 99.999 -8.5s75.666 -4.33398 120.999 -5.00098h29v-551z" />
    <glyph glyph-name="f_f_h.liga" unicode="ffh" horiz-adv-x="2558" 
d="M182 0l-0.00976562 823.999l-68 14c-23.333 5.33301 -42.166 13.666 -56.499 24.999s-21.5 28 -21.5 50v122h146v39c0 59.333 9.5 113.166 28.5 161.499s46.333 89.5 82 123.5s79.167 60.167 130.5 78.5s109.666 27.5 174.999 27.5c25.333 0 48.666 -1.5 69.999 -4.5
s43.666 -7.5 66.999 -13.5l-6 -151c-1.33301 -21.333 -10.166 -36.166 -26.499 -44.499s-33.166 -12.5 -50.499 -12.5c-27.333 0 -51.666 -2.66699 -72.999 -8s-39.166 -14.666 -53.499 -27.999s-25.166 -31.166 -32.499 -53.499s-11 -50.5 -11 -84.5v-30h364v57
c0 62 10.167 119.333 30.5 172s52.5 98.167 96.5 136.5s100.5 68.333 169.5 90s152.5 32.5 250.5 32.5c36.667 0 70.834 -1.33301 102.501 -4s64.334 -5.66699 98.001 -9s69.5 -6.33301 107.5 -9s82 -4 132 -4v-551c37.333 32 77.833 57.833 121.5 77.5
s95.834 29.5 156.501 29.5c56.667 0 106.834 -9.83301 150.5 -29.5c43.667 -19.667 80.5 -47 110.5 -82s52.667 -76.667 68 -125s23 -100.833 23 -157.5v-659h-310v659c0 50.667 -11.667 90.167 -35 118.5s-57.666 42.5 -102.999 42.5c-34 0 -65.833 -7.16699 -95.5 -21.5
s-58.5 -33.833 -86.5 -58.5v-740h-310v1298c-23.333 9.33301 -47.833 17 -73.5 23s-51.167 9 -76.5 9c-35.333 0 -67.166 -6 -95.499 -18s-52.166 -28.667 -71.499 -50s-34.166 -46.5 -44.499 -75.5s-15.5 -60.5 -15.5 -94.5v-57h243v-212h-233v-823h-310v823h-354v-823
h-310z" />
    <glyph glyph-name="f_i.liga" unicode="fi" horiz-adv-x="1253" 
d="M182 0l-0.00390625 824l-68 14c-23.333 5.33301 -42.166 13.666 -56.499 24.999s-21.5 28 -21.5 50v122h146v15c0 62.667 10.833 121.834 32.5 177.501s55.167 104 100.5 145s103.166 73.5 173.499 97.5s154.166 36 251.499 36c30 0 61 -1.5 93 -4.5
s59.667 -7.5 83 -13.5l-10 -157c-1.33301 -16.667 -9.66602 -27.667 -24.999 -33s-31.666 -8 -48.999 -8c-69.333 0 -126.666 -5.33301 -171.999 -16s-81.166 -26.5 -107.499 -47.5s-44.666 -47.167 -54.999 -78.5s-15.5 -67.333 -15.5 -108v-5h658v-1035h-310v823h-338
v-823h-310z" />
    <glyph glyph-name="f_f_i.liga" unicode="ffi" horiz-adv-x="1917" 
d="M182 0l-0.00585938 823.998l-68 14c-23.333 5.33301 -42.166 13.666 -56.499 24.999s-21.5 28 -21.5 50v122h146v39c0 59.333 9.5 113.166 28.5 161.499s46.333 89.5 82 123.5s79.167 60.167 130.5 78.5s109.666 27.5 174.999 27.5c25.333 0 48.666 -1.5 69.999 -4.5
s43.666 -7.5 66.999 -13.5l-6 -151c-1.33301 -21.333 -10.166 -36.166 -26.499 -44.499s-33.166 -12.5 -50.499 -12.5c-27.333 0 -51.666 -2.66699 -72.999 -8s-39.166 -14.666 -53.499 -27.999s-25.166 -31.166 -32.499 -53.499s-11 -50.5 -11 -84.5v-30h364v15
c0 62.667 10.833 121.834 32.5 177.501s55.167 104 100.5 145s103.166 73.5 173.499 97.5s154.166 36 251.499 36c30 0 61 -1.5 93 -4.5s59.667 -7.5 83 -13.5l-10 -157c-1.33301 -16.667 -9.66602 -27.667 -24.999 -33s-31.666 -8 -48.999 -8
c-69.333 0 -126.666 -5.33301 -171.999 -16s-81.166 -26.5 -107.499 -47.5s-44.666 -47.167 -54.999 -78.5s-15.5 -67.333 -15.5 -108v-5h658v-1035h-310v823h-338v-823h-310v823h-354v-823h-310z" />
    <glyph glyph-name="f_j.liga" unicode="fj" horiz-adv-x="1253" 
d="M182 0l-0.00585938 824l-68 14c-23.333 5.33301 -42.166 13.666 -56.499 24.999s-21.5 28 -21.5 50v122h146v15c0 62.667 10.833 121.834 32.5 177.501s55.167 104 100.5 145s103.166 73.5 173.499 97.5s154.166 36 251.499 36c30 0 61 -1.5 93 -4.5
s59.667 -7.5 83 -13.5l-10 -157c-1.33301 -16.667 -9.66602 -27.667 -24.999 -33s-31.666 -8 -48.999 -8c-69.333 0 -126.666 -5.33301 -171.999 -16s-81.166 -26.5 -107.499 -47.5s-44.666 -47.167 -54.999 -78.5s-15.5 -67.333 -15.5 -108v-5h658v-1037
c0 -48.667 -6.16699 -94.5 -18.5 -137.5s-32.666 -80.667 -60.999 -113s-65.666 -57.833 -111.999 -76.5s-103.833 -28 -172.5 -28c-25.333 0 -48.833 1.5 -70.5 4.5s-44.167 7.5 -67.5 13.5l10 163c1.33301 14 6 24.333 14 31s24 10 48 10s43.667 2 59 6s27.5 11 36.5 21
s15.333 23.5 19 40.5s5.5 38.833 5.5 65.5v825h-338v-823h-310z" />
    <glyph glyph-name="f_f_j.liga" unicode="ffj" horiz-adv-x="1917" 
d="M182 0l-0.0078125 823.998l-68 14c-23.333 5.33301 -42.166 13.666 -56.499 24.999s-21.5 28 -21.5 50v122h146v39c0 59.333 9.5 113.166 28.5 161.499s46.333 89.5 82 123.5s79.167 60.167 130.5 78.5s109.666 27.5 174.999 27.5c25.333 0 48.666 -1.5 69.999 -4.5
s43.666 -7.5 66.999 -13.5l-6 -151c-1.33301 -21.333 -10.166 -36.166 -26.499 -44.499s-33.166 -12.5 -50.499 -12.5c-27.333 0 -51.666 -2.66699 -72.999 -8s-39.166 -14.666 -53.499 -27.999s-25.166 -31.166 -32.499 -53.499s-11 -50.5 -11 -84.5v-30h364v15
c0 62.667 10.833 121.834 32.5 177.501s55.167 104 100.5 145s103.166 73.5 173.499 97.5s154.166 36 251.499 36c30 0 61 -1.5 93 -4.5s59.667 -7.5 83 -13.5l-10 -157c-1.33301 -16.667 -9.66602 -27.667 -24.999 -33s-31.666 -8 -48.999 -8
c-69.333 0 -126.666 -5.33301 -171.999 -16s-81.166 -26.5 -107.499 -47.5s-44.666 -47.167 -54.999 -78.5s-15.5 -67.333 -15.5 -108v-5h658v-1037c0 -48.667 -6.16699 -94.5 -18.5 -137.5s-32.666 -80.667 -60.999 -113s-65.666 -57.833 -111.999 -76.5
s-103.833 -28 -172.5 -28c-25.333 0 -48.833 1.5 -70.5 4.5s-44.167 7.5 -67.5 13.5l10 163c1.33301 14 6 24.333 14 31s24 10 48 10s43.667 2 59 6s27.5 11 36.5 21s15.333 23.5 19 40.5s5.5 38.833 5.5 65.5v825h-338v-823h-310v823h-354v-823h-310z" />
    <glyph glyph-name="f_k.liga" unicode="fk" horiz-adv-x="1871" 
d="M182 0l-0.00585938 824l-68 14c-23.333 5.33301 -42.166 13.666 -56.499 24.999s-21.5 28 -21.5 50v122h146v57c0 62 10.167 119.333 30.5 172s52.5 98.167 96.5 136.5s100.5 68.333 169.5 90s152.5 32.5 250.5 32.5c36.667 0 70.834 -1.33301 102.501 -4
s64.334 -5.66699 98.001 -9s69.5 -6.33301 107.5 -9s82 -4 132 -4v-839h46c19.333 0 34 2.83301 44 8.5s20 15.167 30 28.5l196 292c12 16.667 25.667 29.167 41 37.5s35 12.5 59 12.5h284l-268 -369c-25.333 -33.333 -55.333 -60.666 -90 -81.999
c15.333 -11.333 29.333 -24.5 42 -39.5s24.667 -31.833 36 -50.5l292 -496h-280c-23.333 -0 -43.333 3.83301 -60 11.5s-30.667 21.167 -42 40.5l-196 367c-9.33301 16.667 -19 27.5 -29 32.5s-25 7.5 -45 7.5h-60v-459h-310v1298c-23.333 9.33301 -47.833 17 -73.5 23
s-51.167 9 -76.5 9c-35.333 0 -67.166 -6 -95.499 -18s-52.166 -28.667 -71.499 -50s-34.166 -46.5 -44.499 -75.5s-15.5 -60.5 -15.5 -94.5v-57h243v-212h-233v-823h-310z" />
    <glyph glyph-name="f_f_k.liga" unicode="ffk" horiz-adv-x="2535" 
d="M182 0l-0.0078125 823.998l-68 14c-23.333 5.33301 -42.166 13.666 -56.499 24.999s-21.5 28 -21.5 50v122h146v39c0 59.333 9.5 113.166 28.5 161.499s46.333 89.5 82 123.5s79.167 60.167 130.5 78.5s109.666 27.5 174.999 27.5c25.333 0 48.666 -1.5 69.999 -4.5
s43.666 -7.5 66.999 -13.5l-6 -151c-1.33301 -21.333 -10.166 -36.166 -26.499 -44.499s-33.166 -12.5 -50.499 -12.5c-27.333 0 -51.666 -2.66699 -72.999 -8s-39.166 -14.666 -53.499 -27.999s-25.166 -31.166 -32.499 -53.499s-11 -50.5 -11 -84.5v-30h364v57
c0 62 10.167 119.333 30.5 172s52.5 98.167 96.5 136.5s100.5 68.333 169.5 90s152.5 32.5 250.5 32.5c36.667 0 70.834 -1.33301 102.501 -4s64.334 -5.66699 98.001 -9s69.5 -6.33301 107.5 -9s82 -4 132 -4v-839h46c19.333 0 34 2.83301 44 8.5s20 15.167 30 28.5
l196 292c12 16.667 25.667 29.167 41 37.5s35 12.5 59 12.5h284l-268 -369c-25.333 -33.333 -55.333 -60.666 -90 -81.999c15.333 -11.333 29.333 -24.5 42 -39.5s24.667 -31.833 36 -50.5l292 -496h-280c-23.333 -0 -43.333 3.83301 -60 11.5s-30.667 21.167 -42 40.5
l-196 367c-9.33301 16.667 -19 27.5 -29 32.5s-25 7.5 -45 7.5h-60v-459h-310v1298c-23.333 9.33301 -47.833 17 -73.5 23s-51.167 9 -76.5 9c-35.333 0 -67.166 -6 -95.499 -18s-52.166 -28.667 -71.499 -50s-34.166 -46.5 -44.499 -75.5s-15.5 -60.5 -15.5 -94.5v-57h243
v-212h-233v-823h-310v823h-354v-823h-310z" />
    <glyph glyph-name="f_l.liga" unicode="fl" horiz-adv-x="1265" 
d="M182 0l-0.000976562 824.001l-68 14c-23.333 5.33301 -42.166 13.666 -56.499 24.999s-21.5 28 -21.5 50v122h146v36c0 52.667 8.66699 104.167 26 154.5s44 95 80 134s82 70.333 138 94s122.667 35.5 200 35.5c65.333 0 126.833 -2 184.5 -6s116.167 -6 175.5 -6h174
v-1477h-308v1269c-34 1.33301 -66.833 2.83301 -98.5 4.5s-57.5 2.5 -77.5 2.5c-63.333 0 -111.5 -17.5 -144.5 -52.5s-49.5 -85.833 -49.5 -152.5v-36h224v-212h-214v-823h-310z" />
    <glyph glyph-name="f_f_l.liga" unicode="ffl" horiz-adv-x="1929" 
d="M182 0l-0.00292969 824l-68 14c-23.333 5.33301 -42.166 13.666 -56.499 24.999s-21.5 28 -21.5 50v122h146v39c0 59.333 9.5 113.166 28.5 161.499s46.333 89.5 82 123.5s79.167 60.167 130.5 78.5s109.666 27.5 174.999 27.5c25.333 0 48.666 -1.5 69.999 -4.5
s43.666 -7.5 66.999 -13.5l-6 -151c-1.33301 -21.333 -10.166 -36.166 -26.499 -44.499s-33.166 -12.5 -50.499 -12.5c-27.333 0 -51.666 -2.66699 -72.999 -8s-39.166 -14.666 -53.499 -27.999s-25.166 -31.166 -32.499 -53.499s-11 -50.5 -11 -84.5v-30h364v36
c0 52.667 8.66699 104.167 26 154.5s44 95 80 134s82 70.333 138 94s122.667 35.5 200 35.5c60 0 117 -1.83301 171 -5.5s108 -5.83398 162 -6.50098h201v-1477h-308v1269c-34 1.33301 -66.833 2.83301 -98.5 4.5s-57.5 2.5 -77.5 2.5c-63.333 0 -111.5 -17.5 -144.5 -52.5
s-49.5 -85.833 -49.5 -152.5v-36h243v-212h-233v-823h-310v823h-354v-823h-310z" />
    <glyph glyph-name="f_t.liga" unicode="ft" horiz-adv-x="1457" 
d="M1171 823l0.00292969 -514.998c0 -24 5.83301 -43.833 17.5 -59.5s28.5 -23.5 50.5 -23.5c11.333 0 20.833 1.16699 28.5 3.5s14.334 5 20.001 8s11 5.66699 16 8s10.833 3.5 17.5 3.5c9.33301 0 16.833 -2.16699 22.5 -6.5s11.5 -11.166 17.5 -20.499l94 -147
c-40 -30 -85 -52.5 -135 -67.5s-101.667 -22.5 -155 -22.5c-49.333 0 -92.833 7.16699 -130.5 21.5s-69.334 34.666 -95.001 60.999s-45.167 58.166 -58.5 95.499s-20 79 -20 125v536h-369v-823h-310v824l-68 14c-23.333 5.33301 -42.166 13.666 -56.499 24.999
s-21.5 28 -21.5 50v122h146v59c0 59.333 9.5 113 28.5 161s46.333 89 82 123s79.167 60.333 130.5 79s109.666 28 174.999 28c25.333 0 48.666 -1.5 69.999 -4.5s43.666 -7.83301 66.999 -14.5l-6 -151c-0.666992 -10.667 -3.33398 -19.5 -8.00098 -26.5
s-10.834 -12.667 -18.501 -17s-15.834 -7.5 -24.501 -9.5s-17.334 -3 -26.001 -3c-27.333 0 -51.666 -2.66699 -72.999 -8s-39.166 -14.833 -53.499 -28.5s-25.166 -31.667 -32.499 -54s-11 -50.5 -11 -84.5v-49h397l62 255c8 32 30.667 48 68 48h162v-303h257v-212h-257z
" />
    <glyph glyph-name="f_f_t.liga" unicode="fft" horiz-adv-x="2121" 
d="M182 0l0.000976562 824l-68 14c-23.333 5.33301 -42.166 13.666 -56.499 24.999s-21.5 28 -21.5 50v122h146v39c0 59.333 9.5 113.166 28.5 161.499s46.333 89.5 82 123.5s79.167 60.167 130.5 78.5s109.666 27.5 174.999 27.5c25.333 0 48.666 -1.5 69.999 -4.5
s43.666 -7.5 66.999 -13.5l-6 -151c-1.33301 -21.333 -10.166 -36.166 -26.499 -44.499s-33.166 -12.5 -50.499 -12.5c-27.333 0 -51.666 -2.66699 -72.999 -8s-39.166 -14.666 -53.499 -27.999s-25.166 -31.166 -32.499 -53.499s-11 -50.5 -11 -84.5v-30h364v59
c0 59.333 9.5 113 28.5 161s46.333 89 82 123s79.167 60.333 130.5 79s109.666 28 174.999 28c25.333 0 48.666 -1.5 69.999 -4.5s43.666 -7.83301 66.999 -14.5l-6 -151c-0.666992 -10.667 -3.33398 -19.5 -8.00098 -26.5s-10.834 -12.667 -18.501 -17
s-15.834 -7.5 -24.501 -9.5s-17.334 -3 -26.001 -3c-27.333 0 -51.666 -2.66699 -72.999 -8s-39.166 -14.833 -53.499 -28.5s-25.166 -31.667 -32.499 -54s-11 -50.5 -11 -84.5v-49h397l62 255c8 32 30.667 48 68 48h162v-303h257v-212h-257v-515
c0 -24 5.83301 -43.833 17.5 -59.5s28.5 -23.5 50.5 -23.5c11.333 0 20.833 1.16699 28.5 3.5s14.334 5 20.001 8s11 5.66699 16 8s10.833 3.5 17.5 3.5c9.33301 0 16.833 -2.16699 22.5 -6.5s11.5 -11.166 17.5 -20.499l94 -147c-40 -30 -85 -52.5 -135 -67.5
s-101.667 -22.5 -155 -22.5c-49.333 0 -92.833 7.16699 -130.5 21.5s-69.334 34.666 -95.001 60.999s-45.167 58.166 -58.5 95.499s-20 79 -20 125v536h-369v-823h-310v823h-354v-823h-310z" />
    <glyph glyph-name="t_f.liga" unicode="tf" horiz-adv-x="1434" 
d="M882 0l0.00390625 823.001h-400v-515c0 -24 5.83301 -43.833 17.5 -59.5s28.5 -23.5 50.5 -23.5c11.333 0 20.833 1.16699 28.5 3.5s14.334 5 20.001 8s11 5.66699 16 8s10.833 3.5 17.5 3.5c9.33301 0 16.833 -2.16699 22.5 -6.5s11.5 -11.166 17.5 -20.499l94 -147
c-40 -30 -85 -52.5 -135 -67.5s-101.667 -22.5 -155 -22.5c-49.333 0 -92.833 7.16699 -130.5 21.5s-69.334 34.666 -95.001 60.999s-45.167 58.166 -58.5 95.499s-20 79 -20 125v536h-88c-16 0 -29.667 5.16699 -41 15.5s-17 25.5 -17 45.5v121l165 32l61 253
c8 32 30.667 48 68 48h162v-303h400v59c0 59.333 9.5 113 28.5 161s46.333 89 82 123s79.167 60.333 130.5 79s109.666 28 174.999 28c25.333 0 48.666 -1.5 69.999 -4.5s43.666 -7.83301 66.999 -14.5l-6 -151c-0.666992 -10.667 -3.33398 -19.5 -8.00098 -26.5
s-10.834 -12.667 -18.501 -17s-15.834 -7.5 -24.501 -9.5s-17.334 -3 -26.001 -3c-27.333 0 -51.666 -2.66699 -72.999 -8s-39.166 -14.833 -53.499 -28.5s-25.166 -31.667 -32.499 -54s-11 -50.5 -11 -84.5v-49h243v-212h-233v-823h-310z" />
    <glyph glyph-name="t_t.liga" unicode="tt" horiz-adv-x="1443" 
d="M476 -16c-49.333 0 -92.833 7.16895 -130.5 21.502s-69.334 34.666 -95.001 60.999s-45.167 58.166 -58.5 95.499s-20 79 -20 125v536h-88c-16 0 -29.667 5.16699 -41 15.5s-17 25.5 -17 45.5v121l165 32l61 253c8 32 30.667 48 68 48h162v-303h383l62 255
c8 32 30.667 48 68 48h162v-303h257v-212h-257v-515c0 -24 5.83301 -43.833 17.5 -59.5s28.5 -23.5 50.5 -23.5c11.333 0 20.833 1.16699 28.5 3.5s14.334 5 20.001 8s11 5.66699 16 8s10.833 3.5 17.5 3.5c9.33301 0 16.833 -2.16699 22.5 -6.5s11.5 -11.166 17.5 -20.499
l94 -147c-40 -30 -85 -52.5 -135 -67.5s-101.667 -22.5 -155 -22.5c-49.333 0 -92.833 7.16699 -130.5 21.5s-69.334 34.666 -95.001 60.999s-45.167 58.166 -58.5 95.499s-20 79 -20 125v536h-365v-515c0 -24 5.83301 -43.833 17.5 -59.5s28.5 -23.5 50.5 -23.5
c11.333 0 20.833 1.16699 28.5 3.5s14.334 5 20.001 8s11 5.66699 16 8s10.833 3.5 17.5 3.5c9.33301 0 16.833 -2.16699 22.5 -6.5s11.5 -11.166 17.5 -20.499l94 -147c-40 -30 -85 -52.5 -135 -67.5s-101.667 -22.5 -155 -22.5z" />
    <glyph glyph-name="t_t_f.liga" unicode="ttf" horiz-adv-x="2109" 
d="M2104 1315c-0.666992 -10.667 -3.33398 -19.498 -8 -26.498c-4.66699 -7 -10.834 -12.667 -18.5 -17c-7.66699 -4.33301 -15.834 -7.5 -24.5 -9.5c-8.66699 -2 -17.334 -3 -26.001 -3c-27.333 0 -51.666 -2.66699 -72.999 -8s-39.166 -14.833 -53.499 -28.5
s-25.166 -31.667 -32.499 -54s-11 -50.5 -11 -84.5v-49h243v-212h-233v-823h-310v823h-400v-515c0 -24 5.83301 -43.833 17.5 -59.5s28.5 -23.5 50.5 -23.5c11.333 0 20.833 1.16699 28.5 3.5s14.334 5 20.001 8s11 5.66699 16 8s10.833 3.5 17.5 3.5
c9.33301 0 16.833 -2.16699 22.5 -6.5s11.5 -11.166 17.5 -20.499l94 -147c-40 -30 -85 -52.5 -135 -67.5s-101.667 -22.5 -155 -22.5c-49.333 0 -92.833 7.16699 -130.5 21.5s-69.334 34.666 -95.001 60.999s-45.167 58.166 -58.5 95.499s-20 79 -20 125v536h-365v-515
c0 -24 5.83301 -43.833 17.5 -59.5s28.5 -23.5 50.5 -23.5c11.333 0 20.833 1.16699 28.5 3.5s14.334 5 20.001 8s11 5.66699 16 8s10.833 3.5 17.5 3.5c9.33301 0 16.833 -2.16699 22.5 -6.5s11.5 -11.166 17.5 -20.499l94 -147c-40 -30 -85 -52.5 -135 -67.5
s-101.667 -22.5 -155 -22.5c-49.333 0 -92.833 7.16699 -130.5 21.5s-69.334 34.666 -95.001 60.999s-45.167 58.166 -58.5 95.499s-20 79 -20 125v536h-88c-16 0 -29.667 5.16699 -41 15.5s-17 25.5 -17 45.5v121l165 33l61 252c8 32 30.667 48 68 48h162v-303h383l62 255
c8 32 30.667 48 68 48h162v-303h400v59c0 59.333 9.5 113 28.5 161s46.333 89 82 123s79.167 60.333 130.5 79s109.666 28 174.999 28c25.333 0 48.666 -1.5 69.999 -4.5s43.666 -7.83301 67 -14.5z" />
    <glyph glyph-name="t_i.liga" unicode="ti" horiz-adv-x="1338" 
d="M1226 0l-310 0.000976562v823h-434v-515c0 -24 5.83301 -43.833 17.5 -59.5s28.5 -23.5 50.5 -23.5c11.333 0 20.833 1.16699 28.5 3.5s14.334 5 20.001 8s11 5.66699 16 8s10.833 3.5 17.5 3.5c9.33301 0 16.833 -2.16699 22.5 -6.5s11.5 -11.166 17.5 -20.499l94 -147
c-40 -30 -85 -52.5 -135 -67.5s-101.667 -22.5 -155 -22.5c-49.333 0 -92.833 7.16699 -130.5 21.5s-69.334 34.666 -95.001 60.999s-45.167 58.166 -58.5 95.499s-20 79 -20 125v536h-88c-16 0 -29.667 5.16699 -41 15.5s-17 25.5 -17 45.5v121l165 33l61 252
c8 32 30.667 48 68 48h162v-303h744v-1035zM1269 1322c0 -24.667 -5 -48 -15 -70s-23.667 -41.167 -41 -57.5s-37.5 -29.166 -60.5 -38.499s-47.5 -14 -73.5 -14c-25.333 0 -49 4.66699 -71 14s-41.5 22.166 -58.5 38.499s-30.333 35.5 -40 57.5s-14.5 45.333 -14.5 70
s4.83301 48.167 14.5 70.5s23 41.666 40 57.999s36.5 29.333 58.5 39s45.667 14.5 71 14.5c26 0 50.5 -4.83301 73.5 -14.5s43.167 -22.667 60.5 -39s31 -35.666 41 -57.999s15 -45.833 15 -70.5z" />
    <glyph glyph-name="t_t_i.liga" unicode="tti" horiz-adv-x="1993" 
d="M1881 0l-310 0.00195312v823h-414v-515c0 -24 5.83301 -43.833 17.5 -59.5s28.5 -23.5 50.5 -23.5c11.333 0 20.833 1.16699 28.5 3.5s14.334 5 20.001 8s11 5.66699 16 8s10.833 3.5 17.5 3.5c9.33301 0 16.833 -2.16699 22.5 -6.5s11.5 -11.166 17.5 -20.499l94 -147
c-40 -30 -85 -52.5 -135 -67.5s-101.667 -22.5 -155 -22.5c-49.333 0 -92.833 7.16699 -130.5 21.5s-69.334 34.666 -95.001 60.999s-45.167 58.166 -58.5 95.499s-20 79 -20 125v536h-365v-515c0 -24 5.83301 -43.833 17.5 -59.5s28.5 -23.5 50.5 -23.5
c11.333 0 20.833 1.16699 28.5 3.5s14.334 5 20.001 8s11 5.66699 16 8s10.833 3.5 17.5 3.5c9.33301 0 16.833 -2.16699 22.5 -6.5s11.5 -11.166 17.5 -20.499l94 -147c-40 -30 -85 -52.5 -135 -67.5s-101.667 -22.5 -155 -22.5c-49.333 0 -92.833 7.16699 -130.5 21.5
s-69.334 34.666 -95.001 60.999s-45.167 58.166 -58.5 95.499s-20 79 -20 125v536h-88c-16 0 -29.667 5.16699 -41 15.5s-17 25.5 -17 45.5v121l165 33l61 252c8 32 30.667 48 68 48h162v-303h383l62 255c8 32 30.667 48 68 48h162v-303h724v-1035zM1918 1322
c0 -24.667 -5 -48 -15 -70s-23.667 -41.167 -41 -57.5s-37.5 -29.166 -60.5 -38.499s-47.5 -14 -73.5 -14c-25.333 0 -49 4.66699 -71 14s-41.5 22.166 -58.5 38.499s-30.333 35.5 -40 57.5s-14.5 45.333 -14.5 70s4.83301 48.167 14.5 70.5s23 41.666 40 57.999
s36.5 29.333 58.5 39s45.667 14.5 71 14.5c26 0 50.5 -4.83301 73.5 -14.5s43.167 -22.667 60.5 -39s31 -35.666 41 -57.999s15 -45.833 15 -70.5z" />
    <glyph glyph-name=".notdef" horiz-adv-x="1123" 
d="M230 1152c41.333 32 88.001 58.498 140.001 79.498s113 31.5 183 31.5c52 0 97.833 -6.66699 137.5 -20s73.167 -32 100.5 -56s48 -53 62 -87s21 -71.667 21 -113c0 -36.667 -4.33301 -68.334 -13 -95.001s-19.5 -49.667 -32.5 -69s-27.333 -36 -43 -50l-45.5 -39
c-14.667 -12 -27.667 -23.667 -39 -35s-19 -24 -23 -38l-27 -90h-212l-22 112c-5.33301 26 -4.83301 48.167 1.5 66.5s15.833 34.666 28.5 48.999s27.167 27.333 43.5 39s31.666 23.834 45.999 36.501s26.333 26.334 36 41.001s14.5 32.334 14.5 53.001
c0 15.333 -4.33301 28.166 -13 38.499s-25 15.5 -49 15.5c-21.333 0 -39 -1.66699 -53 -5s-26.167 -7.16602 -36.5 -11.499s-20 -8.16602 -29 -11.499s-19.5 -5 -31.5 -5c-28.667 0 -49.667 12 -63 36zM374.001 330.998c0 22 4 42.5 12 61.5s19.333 35.5 34 49.5
s31.667 25 51 33s40.666 12 63.999 12c22 0 42.667 -4 62 -12s36.166 -19 50.499 -33s25.666 -30.5 33.999 -49.5s12.5 -39.5 12.5 -61.5s-4.16699 -42.5 -12.5 -61.5s-19.666 -35.5 -33.999 -49.5s-31.166 -25 -50.499 -33s-40 -12 -62 -12c-23.333 0 -44.666 4 -63.999 12
s-36.333 19 -51 33s-26 30.5 -34 49.5s-12 39.5 -12 61.5zM40.001 1457h1043v-1457h-1043v1457zM117.001 79.998h879v1297h-879v-1297z" />
    <glyph glyph-name="glyph1" horiz-adv-x="0" 
 />
    <glyph glyph-name="glyph1" horiz-adv-x="0" 
 />
    <glyph glyph-name="space" unicode=" " horiz-adv-x="462" 
 />
    <glyph glyph-name="exclam" unicode="!" horiz-adv-x="584" 
d="M438 1457v-572c0 -61.333 -3.66699 -122.166 -11 -182.499s-17 -121.833 -29 -184.5h-210c-12 62.667 -21.667 124.167 -29 184.5s-11 121.166 -11 182.499v572h290zM114 157c0 24 4.5 46.333 13.5 67s21.333 38.667 37 54s34.167 27.5 55.5 36.5
s44.666 13.5 69.999 13.5c24.667 0 47.667 -4.5 69 -13.5s40 -21.167 56 -36.5s28.5 -33.333 37.5 -54s13.5 -43 13.5 -67s-4.5 -46.5 -13.5 -67.5s-21.5 -39.167 -37.5 -54.5s-34.667 -27.333 -56 -36s-44.333 -13 -69 -13c-25.333 0 -48.666 4.33301 -69.999 13
s-39.833 20.667 -55.5 36s-28 33.5 -37 54.5s-13.5 43.5 -13.5 67.5z" />
    <glyph glyph-name="quotedbl" unicode="&#x22;" horiz-adv-x="836" 
d="M353 1457l-0.000976562 -286l-28 -158c-6 -36 -16.667 -63.5 -32 -82.5s-40.666 -28.5 -75.999 -28.5c-30 0 -53.333 9.5 -70 28.5s-28.667 46.5 -36 82.5l-28 158v286h270zM752.999 1457l-0.000976562 -286l-28 -158c-6 -36 -16.667 -63.5 -32 -82.5
s-40.666 -28.5 -75.999 -28.5c-30 0 -53.333 9.5 -70 28.5s-28.667 46.5 -36 82.5l-28 158v286h270z" />
    <glyph glyph-name="numbersign" unicode="#" horiz-adv-x="1160" 
d="M676 848h-166l-41 -236h166zM1153 1064l-24.002 -126.002c-6 -31.333 -19.167 -54.166 -39.5 -68.499s-52.5 -21.5 -96.5 -21.5h-63l-41 -236h108c31.333 0 53.666 -9.16699 66.999 -27.5s16.333 -49.5 9 -93.5l-16 -96h-198l-70 -395h-144
c-14 0 -27.167 3.33301 -39.5 10s-22.666 15.667 -30.999 27s-14.166 24.333 -17.499 39s-3.33301 30.334 0 47.001l48 272h-165l-49 -287c-3.33301 -19.333 -9.5 -35.833 -18.5 -49.5s-19.667 -24.834 -32 -33.501s-26 -15 -41 -19s-30.5 -6 -46.5 -6h-138l70 395h-88
c-31.333 0 -53.666 9.16699 -66.999 27.5s-16.333 49.5 -9 93.5l16 96h178l41 236h-199l24 126c6 30.667 19.167 53.334 39.5 68.001s52.5 22 96.5 22h68l52 293c6 31.333 21.167 55.833 45.5 73.5s52.5 26.5 84.5 26.5h142l-70 -393h166l70 393h138
c16 0 30.5 -2.66699 43.5 -8s24 -12.5 33 -21.5s15.5 -19.667 19.5 -32s4.66699 -25.833 2 -40.5l-52 -291h194z" />
    <glyph glyph-name="dollar" unicode="$" horiz-adv-x="1160" 
d="M648 240c110 18 165 78.334 165 181.001c0 38.667 -12.167 69.167 -36.5 91.5s-56.5 41.166 -96.5 56.499zM555 1214c-30.667 -4.66699 -56.5 -11.667 -77.5 -21s-38 -20.333 -51 -33s-22.5 -26.834 -28.5 -42.501s-9 -32.167 -9 -49.5
c0 -39.333 12.667 -71.166 38 -95.499s58 -44.833 98 -61.5zM708 851.001c32 -9.33301 63.9971 -19.499 95.9971 -30.499s62.833 -23.667 92.5 -38s57.334 -30.833 83.001 -49.5s48 -40.667 67 -66s33.833 -54.333 44.5 -87s16 -70.334 16 -113.001
c0 -63.333 -10.667 -122.833 -32 -178.5s-52.666 -105 -93.999 -148s-92 -78 -152 -105s-128.667 -43.5 -206 -49.5l-12 -124c-1.33301 -18.667 -9.5 -35.5 -24.5 -50.5s-34.167 -22.5 -57.5 -22.5h-114l20 206c-76.667 12.667 -149.834 34.834 -219.501 66.501
s-128.5 69.834 -176.5 114.501l96 139c8 11.333 18.833 20.833 32.5 28.5s28.167 11.5 43.5 11.5c16 0 32.333 -4.16699 49 -12.5s34.834 -18.333 54.501 -30s41.334 -23.667 65.001 -36s50.5 -22.5 80.5 -30.5l37 377c-48 13.333 -95.833 29 -143.5 47
s-90.5 42.333 -128.5 73s-68.833 69.667 -92.5 117s-35.5 106.666 -35.5 177.999c0 52.667 10.667 104 32 154s52.5 95 93.5 135s91.5 72.833 151.5 98.5s128.667 40.5 206 44.5l11 111c1.33301 18.667 9.5 35.5 24.5 50.5s34.167 22.5 57.5 22.5h114l-19 -196
c72 -13.333 133.833 -35 185.5 -65s95.5 -62 131.5 -96l-76 -111c-11.333 -16.667 -22.833 -28.834 -34.5 -36.501s-25.5 -11.5 -41.5 -11.5c-10 0 -21.833 2.5 -35.5 7.5s-28.5 11 -44.5 18l-51.5 22c-18.333 7.66699 -37.833 14.5 -58.5 20.5z" />
    <glyph glyph-name="percent" unicode="%" horiz-adv-x="1672" 
d="M766 1104c0 -53.333 -9.66699 -102 -29 -146s-45 -81.833 -77 -113.5s-69.167 -56.167 -111.5 -73.5s-86.5 -26 -132.5 -26c-50.667 0 -97.167 8.66699 -139.5 26s-79 41.833 -110 73.5s-55.167 69.5 -72.5 113.5s-26 92.667 -26 146c0 55.333 8.66699 105.5 26 150.5
s41.5 83.5 72.5 115.5s67.667 56.833 110 74.5s88.833 26.5 139.5 26.5s97.5 -8.83301 140.5 -26.5s80 -42.5 111 -74.5s55.167 -70.5 72.5 -115.5s26 -95.167 26 -150.5zM528 1104c0 34 -2.83301 62.167 -8.5 84.5s-13.5 40.166 -23.5 53.499s-21.833 22.666 -35.5 27.999
s-28.5 8 -44.5 8s-30.667 -2.66699 -44 -8s-24.666 -14.666 -33.999 -27.999s-16.666 -31.166 -21.999 -53.499s-8 -50.5 -8 -84.5c0 -32 2.66699 -58.667 8 -80s12.666 -38.333 21.999 -51s20.666 -21.667 33.999 -27s28 -8 44 -8s30.833 2.66699 44.5 8
s25.5 14.333 35.5 27s17.833 29.667 23.5 51s8.5 48 8.5 80zM1224 1411c10 11.333 22.333 21.833 37 31.5s35 14.5 61 14.5h226l-1098 -1413c-10 -12.667 -22.5 -23.167 -37.5 -31.5s-33.167 -12.5 -54.5 -12.5h-232zM1604 342c0 -53.333 -9.66699 -102.166 -29 -146.499
s-45 -82.333 -77 -114s-69.167 -56.167 -111.5 -73.5s-86.5 -26 -132.5 -26c-50.667 0 -97.167 8.66699 -139.5 26s-79 41.833 -110 73.5s-55.167 69.667 -72.5 114s-26 93.166 -26 146.499c0 55.333 8.66699 105.5 26 150.5s41.5 83.5 72.5 115.5s67.667 56.833 110 74.5
s88.833 26.5 139.5 26.5s97.5 -8.83301 140.5 -26.5s80 -42.5 111 -74.5s55.167 -70.5 72.5 -115.5s26 -95.167 26 -150.5zM1366 342c0 33.333 -2.83301 61.166 -8.5 83.499s-13.5 40.166 -23.5 53.499s-21.833 22.666 -35.5 27.999s-28.5 8 -44.5 8
s-30.667 -2.66699 -44 -8s-24.666 -14.666 -33.999 -27.999s-16.666 -31.166 -21.999 -53.499s-8 -50.166 -8 -83.499c0 -32 2.66699 -58.667 8 -80s12.666 -38.333 21.999 -51s20.666 -21.667 33.999 -27s28 -8 44 -8s30.833 2.66699 44.5 8s25.5 14.333 35.5 27
s17.833 29.667 23.5 51s8.5 48 8.5 80z" />
    <glyph glyph-name="ampersand" unicode="&#x26;" horiz-adv-x="1467" 
d="M476 646c-36.667 -30.667 -62.668 -63.5 -78.001 -98.5s-23 -72.167 -23 -111.5c0 -32 4.83301 -61 14.5 -87s23.5 -48.333 41.5 -67s39.5 -33.167 64.5 -43.5s52.833 -15.5 83.5 -15.5c44.667 0 86.334 5.83301 125.001 17.5s74.667 28.167 108 49.5zM1473 0
l-306.002 -0.00195312c-15.333 0 -29 0.833008 -41 2.5s-23.167 4.5 -33.5 8.5s-20.166 9.66699 -29.499 17s-19.333 16.666 -30 27.999l-63 66c-63.333 -44 -132.5 -78 -207.5 -102s-154.833 -36 -239.5 -36c-58 0 -114.833 10 -170.5 30s-105.167 48.5 -148.5 85.5
s-78.333 81.833 -105 134.5s-40 111.667 -40 177c0 44 6.83301 85.667 20.5 125s33 75.833 58 109.5s54.5 64.334 88.5 92.001s71.667 51.834 113 72.501c-32 48.667 -55 96.334 -69 143.001s-21 92 -21 136c0 52 9.5 101.167 28.5 147.5s46.667 87 83 122
s81 62.833 134 83.5s113.833 31 182.5 31c64.667 0 121.667 -9.5 171 -28.5s91 -44 125 -75s60.667 -66.833 80 -107.5s31.333 -82.334 36 -125.001l-200 -40c-35.333 -8 -61.333 6 -78 42c-15.333 34.667 -33.166 61 -53.499 79s-47.166 27 -80.499 27
c-23.333 0 -43.666 -4.33301 -60.999 -13s-31.833 -20 -43.5 -34s-20.5 -30.333 -26.5 -49s-9 -38 -9 -58c0 -17.333 1.5 -33.833 4.5 -49.5s8.16699 -31.667 15.5 -48s17.166 -33.166 29.499 -50.499s27.833 -36.333 46.5 -57l360 -379c18 39.333 32.667 80.833 44 124.5
s18.666 88.5 21.999 134.5c2 18.667 8.33301 33.334 19 44.001s25 16 43 16h196c0 -96.667 -13 -187.334 -39 -272.001s-62.667 -162 -110 -232z" />
    <glyph glyph-name="quotesingle" unicode="'" horiz-adv-x="436" 
d="M353 1457l-0.000976562 -286l-28 -158c-6 -36 -16.667 -63.5 -32 -82.5s-40.666 -28.5 -75.999 -28.5c-30 0 -53.333 9.5 -70 28.5s-28.667 46.5 -36 82.5l-28 158v286h270z" />
    <glyph glyph-name="parenleft" unicode="(" horiz-adv-x="562" 
d="M326 626c0 -66 3.83301 -132.334 11.5 -199.001s19 -132.334 34 -197.001s33 -127.834 54 -189.501s45.167 -120.5 72.5 -176.5c8.66699 -16 13.667 -30.167 15 -42.5s0.166016 -23.166 -3.50098 -32.499s-9 -17.333 -16 -24s-14.833 -12.667 -23.5 -18l-138 -80
c-48.667 74.667 -90.334 150.667 -125.001 228s-63 155.833 -85 235.5s-38.167 160.834 -48.5 243.501s-15.5 166.667 -15.5 252s5.16699 169.333 15.5 252s26.5 163.834 48.5 243.501s50.333 158.167 85 235.5s76.334 153.666 125.001 228.999l138 -80
c8.66699 -5.33301 16.5 -11.333 23.5 -18s12.333 -14.667 16 -24s4.83398 -20.166 3.50098 -32.499s-6.33301 -26.5 -15 -42.5c-27.333 -56 -51.5 -114.833 -72.5 -176.5s-39 -125 -54 -190s-26.333 -130.833 -34 -197.5s-11.5 -133 -11.5 -199z" />
    <glyph glyph-name="parenright" unicode=")" horiz-adv-x="562" 
d="M236 626c0 66 -3.83301 132.333 -11.5 199s-19 132.5 -34 197.5s-33.167 128.333 -54.5 190s-45.333 120.5 -72 176.5c-8.66699 16 -13.667 30.167 -15 42.5s-0.166016 23.166 3.50098 32.499s9 17.333 16 24s14.833 12.667 23.5 18l138 80
c96.667 -150.667 166.5 -305.667 209.5 -465s64.5 -324.333 64.5 -495c0 -171.333 -21.5 -336.5 -64.5 -495.5s-112.833 -313.5 -209.5 -463.5l-138 80c-8.66699 5.33301 -16.5 11.333 -23.5 18s-12.333 14.667 -16 24s-4.83398 20.166 -3.50098 32.499
s6.33301 26.5 15 42.5c26.667 56 50.667 114.833 72 176.5s39.5 124.834 54.5 189.501s26.333 130.334 34 197.001s11.5 133 11.5 199z" />
    <glyph glyph-name="asterisk" unicode="*" horiz-adv-x="850" 
d="M622 1201c-13.333 -7.33301 -26.333 -13.667 -39 -19s-25.667 -9.33301 -39 -12c26.667 -5.33301 52.667 -16 78 -32l146 -87l-72 -119l-146 87c-26.667 14.667 -48 30.667 -64 48c8 -24 12 -49.667 12 -77v-175h-146v173c0 14 0.833008 27.667 2.5 41s4.5 26 8.5 38
c-8.66699 -9.33301 -18.334 -17.833 -29.001 -25.5s-22 -15.167 -34 -22.5l-146 -85l-72 119l146 85c26 15.333 51.667 26 77 32c-12.667 2 -25.5 5.83301 -38.5 11.5s-25.833 12.167 -38.5 19.5l-146 87l72 120l146 -88c26.667 -14.667 48 -30.667 64 -48
c-8 24 -12 49.667 -12 77v175h146v-173c0 -14 -0.833008 -27.667 -2.5 -41s-4.5 -26 -8.5 -38c8.66699 9.33301 18.334 17.833 29.001 25.5s22 15.167 34 22.5l146 86l72 -120z" />
    <glyph glyph-name="plus" unicode="+" horiz-adv-x="1160" 
d="M1075 561h-370v-398h-252v398h-368v222h368v396h252v-396h370v-222z" />
    <glyph glyph-name="comma" unicode="," horiz-adv-x="480" 
d="M107 -247c-14.667 12 -22.001 26.666 -22.001 43.999c0 6.66699 2.33301 13.834 7 21.501s10.334 14.5 17.001 20.5c8 8 17.333 17.833 28 29.5s21.334 24.5 32.001 38.5s20.5 29.333 29.5 46s15.833 34.334 20.5 53.001c-22.667 2 -43.334 7.66699 -62.001 17
s-34.667 21.5 -48 36.5s-23.666 32.333 -30.999 52s-11 41.167 -11 64.5c0 21.333 4 41.166 12 59.499s19.5 34.333 34.5 48s32.667 24.5 53 32.5s43.166 12 68.499 12c30 0 56 -5.16699 78 -15.5s40.333 -24.333 55 -42s25.5 -38 32.5 -61s10.5 -47.167 10.5 -72.5
c0 -33.333 -5.33301 -68.833 -16 -106.5s-26.5 -75.5 -47.5 -113.5s-47.167 -75.333 -78.5 -112s-67.333 -70 -108 -100z" />
    <glyph glyph-name="hyphen" unicode="-" horiz-adv-x="748" 
d="M104 733h540v-250h-540v250z" />
    <glyph glyph-name="period" unicode="." horiz-adv-x="478" 
d="M63 157c0 24 4.5 46.333 13.5 67s21.333 38.667 37 54s34.167 27.5 55.5 36.5s44.666 13.5 69.999 13.5c24.667 0 47.667 -4.5 69 -13.5s40 -21.167 56 -36.5s28.5 -33.333 37.5 -54s13.5 -43 13.5 -67s-4.5 -46.5 -13.5 -67.5s-21.5 -39.167 -37.5 -54.5
s-34.667 -27.333 -56 -36s-44.333 -13 -69 -13c-25.333 0 -48.666 4.33301 -69.999 13s-39.833 20.667 -55.5 36s-28 33.5 -37 54.5s-13.5 43.5 -13.5 67.5z" />
    <glyph glyph-name="slash" unicode="/" horiz-adv-x="958" 
d="M345 12c-7.33301 -18 -16.833 -34 -28.5 -48s-24.667 -25.667 -39 -35s-29.666 -16.333 -45.999 -21s-32.5 -7 -48.5 -7h-132l568 1491c13.333 34 33.666 60 60.999 78s59 27 95 27h132z" />
    <glyph glyph-name="zero" unicode="0" horiz-adv-x="1160" 
d="M1120 729c0 -127.333 -13.667 -237.666 -41 -330.999s-65.166 -170.666 -113.499 -231.999s-105.666 -107 -171.999 -137s-138.166 -45 -215.499 -45s-148.833 15 -214.5 45s-122.5 75.667 -170.5 137s-85.5 138.666 -112.5 231.999s-40.5 203.666 -40.5 330.999
s13.5 237.666 40.5 330.999s64.5 170.666 112.5 231.999s104.833 106.833 170.5 136.5s137.167 44.5 214.5 44.5s149.166 -14.833 215.499 -44.5s123.666 -75.167 171.999 -136.5s86.166 -138.666 113.499 -231.999s41 -203.666 41 -330.999zM800 729
c0 100.667 -6.33301 183.167 -19 247.5s-29.5 114.833 -50.5 151.5s-44.833 61.834 -71.5 75.501s-53.667 20.5 -81 20.5s-54.166 -6.83301 -80.499 -20.5s-49.666 -38.834 -69.999 -75.501s-36.666 -87.167 -48.999 -151.5s-18.5 -146.833 -18.5 -247.5
c0 -101.333 6.16699 -184 18.5 -248s28.666 -114.5 48.999 -151.5s43.666 -62.333 69.999 -76s53.166 -20.5 80.499 -20.5s54.333 6.83301 81 20.5s50.5 39 71.5 76s37.833 87.5 50.5 151.5s19 146.667 19 248z" />
    <glyph glyph-name="one" unicode="1" horiz-adv-x="1160" 
d="M1051 224v-224h-830v224h280v735c0 18.667 0.333008 37.5 1 56.5s1.66699 38.167 3 57.5l-166 -138c-14.667 -11.333 -29.167 -18.166 -43.5 -20.499s-27.833 -2.33301 -40.5 0s-24 6.66602 -34 12.999s-17.333 12.833 -22 19.5l-98 130l454 381h256v-1234h240z" />
    <glyph glyph-name="two" unicode="2" horiz-adv-x="1160" 
d="M976 280c33.333 0 59.666 -9.16992 78.999 -27.5029s29 -42.5 29 -72.5v-180h-1024v100c0 19.333 4 40 12 62s22 42 42 60l420 423c36 36 67.333 70.333 94 103s48.667 64.834 66 96.501s30.333 63.334 39 95.001s13 65.167 13 100.5c0 58 -13.833 102.5 -41.5 133.5
s-69.834 46.5 -126.501 46.5c-46 0 -84.833 -12.167 -116.5 -36.5s-53.5 -54.5 -65.5 -90.5c-14 -36.667 -32.333 -61 -55 -73s-55 -14.667 -97 -8l-164 29c10.667 72.667 31.167 136 61.5 190s68 99 113 135s96.5 62.833 154.5 80.5s120.333 26.5 187 26.5
c72 0 136.833 -10.5 194.5 -31.5s106.834 -50.167 147.501 -87.5s71.834 -81.833 93.501 -133.5s32.5 -108.5 32.5 -170.5c0 -53.333 -7.5 -102.666 -22.5 -147.999s-35.5 -88.5 -61.5 -129.5s-56.167 -80.667 -90.5 -119l-109.5 -116.5l-285 -292
c36.667 11.333 73 20 109 26s69.333 9 100 9h272z" />
    <glyph glyph-name="three" unicode="3" horiz-adv-x="1160" 
d="M88 1041c10.667 72.667 31.167 136.005 61.5 190.005s68 99 113 135s96.5 62.833 154.5 80.5s120.333 26.5 187 26.5c72 0 136 -10.167 192 -30.5s103.333 -47.833 142 -82.5s68 -74.834 88 -120.501s30 -93.834 30 -144.501c0 -46 -4.66699 -86.5 -14 -121.5
s-23.166 -65.333 -41.499 -91s-41 -47.334 -68 -65.001s-57.833 -32.5 -92.5 -44.5c161.333 -56.667 242 -166.667 242 -330c0 -77.333 -14 -144.666 -42 -201.999s-65.5 -105 -112.5 -143s-101.5 -66.5 -163.5 -85.5s-126.667 -28.5 -194 -28.5
c-69.333 0 -131 7.5 -185 22.5s-102 38.333 -144 70s-78.833 72.167 -110.5 121.5s-59.167 108 -82.5 176l138 56c36 14 69.333 17.667 100 11s52.667 -22 66 -46c30 -55.333 61.833 -95.5 95.5 -120.5s73.167 -37.5 118.5 -37.5c34.667 0 64.834 5.83301 90.501 17.5
s47 26.667 64 45s29.833 39.166 38.5 62.499s13 47 13 71c0 31.333 -2.16699 59.5 -6.5 84.5s-16.5 46.5 -36.5 64.5s-50.167 31.833 -90.5 41.5s-96.5 14.5 -168.5 14.5v214c60.667 0 109.667 4.66699 147 14s66.166 22.166 86.499 38.499s33.833 36.166 40.5 59.499
s10 49 10 77c0 57.333 -13.833 101.5 -41.5 132.5s-69.834 46.5 -126.501 46.5c-46 0 -84.833 -12.167 -116.5 -36.5s-53.5 -54.5 -65.5 -90.5c-14 -36.667 -32.333 -61 -55 -73s-55 -14.667 -97 -8z" />
    <glyph glyph-name="four" unicode="4" horiz-adv-x="1160" 
d="M695 566v380c0 23.333 0.833008 48.5 2.5 75.5s4.16699 55.167 7.5 84.5l-385 -540h375zM1115 566l-0.000976562 -174.001c0 -15.333 -5.16699 -28.666 -15.5 -39.999s-25.166 -17 -44.499 -17h-90v-335h-270v335h-586c-19.333 0 -36.833 6 -52.5 18s-25.5 27 -29.5 45
l-32 153l674 906h296v-891h150z" />
    <glyph glyph-name="five" unicode="5" horiz-adv-x="1160" 
d="M444 944c27.333 5.33301 53.667 8.99707 79 10.9971s50 3 74 3c76.667 0 144.334 -11.667 203.001 -35s108 -55.166 148 -95.499s70.167 -87.666 90.5 -141.999s30.5 -112.5 30.5 -174.5c0 -78 -13.833 -149.167 -41.5 -213.5s-66.167 -119.833 -115.5 -166.5
s-108.166 -82.834 -176.499 -108.501s-143.166 -38.5 -224.499 -38.5c-47.333 0 -92.5 5 -135.5 15s-83.333 23.5 -121 40.5s-72.5 36.667 -104.5 59s-61 46.166 -87 71.499l96 128c10 13.333 21.667 23.5 35 30.5s27.666 10.5 42.999 10.5c20 0 38.833 -5.5 56.5 -16.5
l58 -36c21 -13 45.5 -24.833 73.5 -35.5s62.667 -16 104 -16s76.666 6.83301 105.999 20.5s53.166 32.334 71.499 56.001s31.666 51.334 39.999 83.001s12.5 65.5 12.5 101.5c0 70.667 -20 124.5 -60 161.5s-96.667 55.5 -170 55.5c-65.333 0 -129.333 -12.333 -192 -37
l-192 52l124 729h746v-128c0 -21.333 -3.33301 -40.666 -10 -57.999s-17.167 -32.5 -31.5 -45.5s-33.166 -23 -56.499 -30s-51.333 -10.5 -84 -10.5h-348z" />
    <glyph glyph-name="six" unicode="6" horiz-adv-x="1160" 
d="M578 229c32 0 61.834 6.00391 89.501 18.0039s51.5 28.5 71.5 49.5s35.833 45.667 47.5 74s17.5 59.166 17.5 92.499c0 37.333 -5.5 70.666 -16.5 99.999s-26.5 54 -46.5 74s-44.167 35.333 -72.5 46s-59.833 16 -94.5 16c-31.333 0 -60 -5.5 -86 -16.5
s-48.5 -26.833 -67.5 -47.5s-33.833 -45.334 -44.5 -74.001s-16 -61 -16 -97s4.33301 -68.333 13 -97s22 -53.334 40 -74.001s40.667 -36.5 68 -47.5s59.666 -16.5 96.999 -16.5zM528.001 897.004c46.667 17.333 98.6641 26.001 155.997 26.001
c52.667 0 104.667 -8.66699 156 -26s97.333 -44 138 -80s73.5 -81.5 98.5 -136.5s37.5 -119.833 37.5 -194.5c0 -68 -12.667 -132.5 -38 -193.5s-61.166 -114.333 -107.499 -160s-102.166 -81.834 -167.499 -108.501s-137.666 -40 -216.999 -40
c-81.333 0 -154.333 12.833 -219 38.5s-119.5 61.5 -164.5 107.5s-79.333 101 -103 165s-35.5 134.333 -35.5 211c0 143.333 55.333 289 166 437l328 443c15.333 19.333 37.5 36 66.5 50s62.167 21 99.5 21h276l-432 -516z" />
    <glyph glyph-name="seven" unicode="7" horiz-adv-x="1160" 
d="M1103 1457l-0.000976562 -129.998c0 -38.667 -4.33301 -69.834 -13 -93.501s-17 -43.5 -25 -59.5l-506 -1072c-14 -28 -33.833 -52 -59.5 -72s-59.834 -30 -102.501 -30h-226l520 1043c15.333 28 30.833 53.5 46.5 76.5s33.167 44.833 52.5 65.5h-641
c-9.33301 0 -18.166 1.83301 -26.499 5.5s-15.666 8.66699 -21.999 15s-11.5 13.666 -15.5 21.999s-6 16.833 -6 25.5v204h1024z" />
    <glyph glyph-name="eight" unicode="8" horiz-adv-x="1160" 
d="M580 218c34.667 0 64.668 5.33301 90.001 16s46.166 25.167 62.499 43.5s28.333 40 36 65s11.5 51.833 11.5 80.5c0 31.333 -3.33301 60 -10 86s-17.667 48.167 -33 66.5s-35.833 32.666 -61.5 42.999s-57.5 15.5 -95.5 15.5s-69.833 -5.16699 -95.5 -15.5
s-46.167 -24.666 -61.5 -42.999s-26.333 -40.5 -33 -66.5s-10 -54.667 -10 -86c0 -28.667 3.83301 -55.5 11.5 -80.5s19.667 -46.667 36 -65s37 -32.833 62 -43.5s55.167 -16 90.5 -16zM580.001 1247c-31.333 0 -57.667 -5 -79 -15s-38.833 -23.167 -52.5 -39.5
s-23.5 -35.166 -29.5 -56.499s-9 -43.333 -9 -66c0 -25.333 2.33301 -50 7 -74s13.334 -45.333 26.001 -64s30 -33.667 52 -45s50.333 -17 85 -17s63 5.66699 85 17s39.333 26.333 52 45s21.334 40 26.001 64s7 48.667 7 74c0 22.667 -3 44.667 -9 66
s-15.833 40.166 -29.5 56.499s-31.334 29.5 -53.001 39.5s-47.834 15 -78.501 15zM855 760c43.333 -15.333 80.498 -34.333 111.498 -57s56.333 -48.667 76 -78s34.167 -61.5 43.5 -96.5s14 -72.167 14 -111.5c0 -65.333 -12.5 -124.666 -37.5 -177.999
s-60.333 -98.833 -106 -136.5s-100.5 -66.834 -164.5 -87.501s-134.667 -31 -212 -31s-148 10.333 -212 31s-118.833 49.834 -164.5 87.501s-81 83.167 -106 136.5s-37.5 112.666 -37.5 177.999c0 39.333 4.66699 76.5 14 111.5s23.833 67.167 43.5 96.5s45 55.333 76 78
s68.167 41.667 111.5 57c-66 30 -115.333 71.5 -148 124.5s-49 116.833 -49 191.5c0 56.667 11.667 109.167 35 157.5s56 90.166 98 125.499s91.833 63.166 149.5 83.499s120.834 30.5 189.501 30.5s131.834 -10.167 189.501 -30.5s107.5 -48.166 149.5 -83.499
s74.667 -77.166 98 -125.499s35 -100.833 35 -157.5c0 -74.667 -16.333 -138.5 -49 -191.5s-82 -94.5 -148 -124.5z" />
    <glyph glyph-name="nine" unicode="9" horiz-adv-x="1160" 
d="M373 1012c0 -145.333 67.3311 -218.001 201.998 -218.001c66 0 116.833 19.833 152.5 59.5s53.5 92.5 53.5 158.5c0 35.333 -5.16699 66.5 -15.5 93.5s-24.666 49.5 -42.999 67.5s-40.5 31.667 -66.5 41s-54.333 14 -85 14c-31.333 0 -59.166 -5.5 -83.499 -16.5
s-45 -26.167 -62 -45.5s-30 -42.166 -39 -68.499s-13.5 -54.833 -13.5 -85.5zM620.998 551.999l26.998 32.9961c8.66699 10.667 16.667 21.334 24 32.001c-61.333 -32.667 -131 -49 -209 -49c-47.333 0 -94.666 8.5 -141.999 25.5s-90.166 42.833 -128.499 77.5
s-69.5 78.334 -93.5 131.001s-36 115 -36 187c0 66 12.167 128.333 36.5 187s59 110 104 154s98.833 78.833 161.5 104.5s132.667 38.5 210 38.5c78.667 0 149 -12 211 -36s114.5 -57.667 157.5 -101s76 -94.833 99 -154.5s34.5 -125.5 34.5 -197.5
c0 -95.333 -14.333 -180.666 -43 -255.999s-67 -146.333 -115 -213l-314 -446c-14 -19.333 -35.167 -35.666 -63.5 -48.999s-60.5 -20 -96.5 -20h-286z" />
    <glyph glyph-name="colon" unicode=":" horiz-adv-x="530" 
d="M89 157c0 24 4.5 46.333 13.5 67s21.333 38.667 37 54s34.167 27.5 55.5 36.5s44.666 13.5 69.999 13.5c24.667 0 47.667 -4.5 69 -13.5s40 -21.167 56 -36.5s28.5 -33.333 37.5 -54s13.5 -43 13.5 -67s-4.5 -46.5 -13.5 -67.5s-21.5 -39.167 -37.5 -54.5
s-34.667 -27.333 -56 -36s-44.333 -13 -69 -13c-25.333 0 -48.666 4.33301 -69.999 13s-39.833 20.667 -55.5 36s-28 33.5 -37 54.5s-13.5 43.5 -13.5 67.5zM89 840c0 24 4.5 46.333 13.5 67s21.333 38.667 37 54s34.167 27.5 55.5 36.5s44.666 13.5 69.999 13.5
c24.667 0 47.667 -4.5 69 -13.5s40 -21.167 56 -36.5s28.5 -33.333 37.5 -54s13.5 -43 13.5 -67s-4.5 -46.5 -13.5 -67.5s-21.5 -39.167 -37.5 -54.5s-34.667 -27.333 -56 -36s-44.333 -13 -69 -13c-25.333 0 -48.666 4.33301 -69.999 13s-39.833 20.667 -55.5 36
s-28 33.5 -37 54.5s-13.5 43.5 -13.5 67.5z" />
    <glyph glyph-name="semicolon" unicode=";" horiz-adv-x="558" 
d="M148 -247c-14.667 12 -22.001 26.666 -22.001 43.999c0 6.66699 2.33301 13.834 7 21.501s10.334 14.5 17.001 20.5c8 8 17.333 17.833 28 29.5s21.334 24.5 32.001 38.5s20.5 29.333 29.5 46s15.833 34.334 20.5 53.001c-22.667 2 -43.334 7.66699 -62.001 17
s-34.667 21.5 -48 36.5s-23.666 32.333 -30.999 52s-11 41.167 -11 64.5c0 21.333 4 41.166 12 59.499s19.5 34.333 34.5 48s32.667 24.5 53 32.5s43.166 12 68.499 12c30 0 56 -5.16699 78 -15.5s40.333 -24.333 55 -42s25.5 -38 32.5 -61s10.5 -47.167 10.5 -72.5
c0 -33.333 -5.33301 -68.833 -16 -106.5s-26.5 -75.5 -47.5 -113.5s-47.167 -75.333 -78.5 -112s-67.333 -70 -108 -100zM99.999 839.999c0 24 4.5 46.333 13.5 67s21.333 38.667 37 54s34.167 27.5 55.5 36.5s44.666 13.5 69.999 13.5c24.667 0 47.667 -4.5 69 -13.5
s40 -21.167 56 -36.5s28.5 -33.333 37.5 -54s13.5 -43 13.5 -67s-4.5 -46.5 -13.5 -67.5s-21.5 -39.167 -37.5 -54.5s-34.667 -27.333 -56 -36s-44.333 -13 -69 -13c-25.333 0 -48.666 4.33301 -69.999 13s-39.833 20.667 -55.5 36s-28 33.5 -37 54.5s-13.5 43.5 -13.5 67.5
z" />
    <glyph glyph-name="less" unicode="&#x3c;" horiz-adv-x="1160" 
d="M618 715c-34 -16.667 -72.667 -30 -116 -40c43.333 -10 82 -23.333 116 -40l284 -154c18 -8.66699 30.833 -19.5 38.5 -32.5s11.5 -27.167 11.5 -42.5v-215l-810 423v121l810 424v-215c0 -15.333 -3.83301 -29.5 -11.5 -42.5s-20.5 -24.167 -38.5 -33.5z" />
    <glyph glyph-name="equal" unicode="=" horiz-adv-x="1160" 
d="M125 599h910v-222h-910v222zM125 966h910v-223h-910v223z" />
    <glyph glyph-name="greater" unicode="&#x3e;" horiz-adv-x="1160" 
d="M1018 735v-121l-810 -423v215c0 15.333 3.83301 29.5 11.5 42.5s20.5 23.833 38.5 32.5l284 154c34 16.667 72.667 30 116 40c-43.333 10 -82 23.333 -116 40l-284 153c-18 9.33301 -30.833 20.5 -38.5 33.5s-11.5 27.167 -11.5 42.5v215z" />
    <glyph glyph-name="question" unicode="?" horiz-adv-x="943" 
d="M61 1324c24.667 20.667 51.502 39.999 80.502 57.999s60.167 33.833 93.5 47.5s69.166 24.334 107.499 32.001s79.833 11.5 124.5 11.5c62.667 0 119.167 -8.33301 169.5 -25s93.166 -40.5 128.499 -71.5s62.5 -68.333 81.5 -112s28.5 -92.167 28.5 -145.5
c0 -50.667 -7 -94.5 -21 -131.5s-31.667 -69.167 -53 -96.5s-44.833 -51 -70.5 -71l-73 -55.5c-23 -17 -43 -33.833 -60 -50.5s-27.833 -35.334 -32.5 -56.001l-28 -140h-212l-22 161c-5.33301 32.667 -2 61.167 10 85.5s28.5 46.333 49.5 66s44.5 38.334 70.5 56.001
s50.333 36.667 73 57s41.834 43 57.501 68s23.5 54.833 23.5 89.5c0 40 -13.167 71.833 -39.5 95.5s-62.5 35.5 -108.5 35.5c-35.333 0 -64.833 -3.66699 -88.5 -11s-44 -15.5 -61 -24.5s-31.833 -17.167 -44.5 -24.5s-25.334 -11 -38.001 -11c-28.667 0 -50 12.333 -64 37z
M245.002 156.999c0 24 4.5 46.333 13.5 67s21.333 38.667 37 54s34.167 27.5 55.5 36.5s44.666 13.5 69.999 13.5c24.667 0 47.667 -4.5 69 -13.5s40 -21.167 56 -36.5s28.5 -33.333 37.5 -54s13.5 -43 13.5 -67s-4.5 -46.5 -13.5 -67.5s-21.5 -39.167 -37.5 -54.5
s-34.667 -27.333 -56 -36s-44.333 -13 -69 -13c-25.333 0 -48.666 4.33301 -69.999 13s-39.833 20.667 -55.5 36s-28 33.5 -37 54.5s-13.5 43.5 -13.5 67.5z" />
    <glyph glyph-name="at" unicode="@" horiz-adv-x="1699" 
d="M1006 788c-16 2 -32.333 2.99805 -49 2.99805c-33.333 0 -65.333 -8 -96 -24s-57.5 -37.667 -80.5 -65s-41.333 -59.166 -55 -95.499s-20.5 -74.833 -20.5 -115.5c0 -39.333 7.5 -68.666 22.5 -87.999s36.167 -29 63.5 -29c14.667 0 29.167 2.33301 43.5 7
s27.833 12.5 40.5 23.5s24.167 25.5 34.5 43.5s18.833 40.333 25.5 67zM1173 547.998c-8.66699 -36 -13.166 -65.6611 -13.499 -88.9941s2.66699 -41.833 9 -55.5s15.666 -23.334 27.999 -29.001s27.166 -8.5 44.499 -8.5c24 0 46.5 8.5 67.5 25.5s39.167 40.5 54.5 70.5
s27.5 65.333 36.5 106s13.5 85 13.5 133c0 82.667 -12.333 155.5 -37 218.5s-59.834 115.833 -105.501 158.5s-100.667 75 -165 97s-135.833 33 -214.5 33c-86 0 -165 -16 -237 -48s-134 -75.833 -186 -131.5s-92.5 -120.667 -121.5 -195s-43.5 -153.833 -43.5 -238.5
c0 -106.667 16.167 -200.334 48.5 -281.001s77 -148 134 -202s124.667 -94.5 203 -121.5s163.166 -40.5 254.499 -40.5c52.667 0 101.167 2.83301 145.5 8.5s84.5 13 120.5 22s68 19.167 96 30.5s52 22.666 72 33.999c21.333 11.333 39.833 14.666 55.5 9.99902
s27.167 -16.334 34.5 -35.001l42 -108c-33.333 -22 -70.166 -42.333 -110.499 -61s-84 -35 -131 -49s-97.5 -24.833 -151.5 -32.5s-111.667 -11.5 -173 -11.5c-125.333 0 -240.666 19.5 -345.999 58.5s-196.5 94.833 -273.5 167.5s-137 160.667 -180 264
s-64.5 219 -64.5 347c0 70 9.33301 138.667 28 206s45.334 130.666 80.001 189.999s76.334 114 125.001 164s103 93.167 163 129.5s125 64.5 195 84.5s143.667 30 221 30c64.667 0 127.834 -7.33301 189.501 -22s120 -36 175 -64s105.667 -62.333 152 -103
s86.166 -86.834 119.499 -138.501s59.333 -108.667 78 -171s28 -128.833 28 -199.5c0 -71.333 -10.833 -138.5 -32.5 -201.5s-52 -118 -91 -165s-85.333 -84.167 -139 -111.5s-112.167 -41 -175.5 -41c-21.333 0 -42 2.16699 -62 6.5s-38.833 11.333 -56.5 21
s-33.667 22.334 -48 38.001s-25.833 34.834 -34.5 57.501c-40 -44 -81.667 -75.333 -125 -94s-90 -28 -140 -28c-43.333 0 -81.333 7.5 -114 22.5s-60 35.833 -82 62.5s-38.5 58.334 -49.5 95.001s-16.5 76.667 -16.5 120c0 38 4.83301 76.667 14.5 116
s24.167 77.166 43.5 113.499s43.833 70.666 73.5 102.999s64.5 60.333 104.5 84s85.5 42.5 136.5 56.5s107.5 21 169.5 21c29.333 0 56 -1.16699 80 -3.5s46.333 -5.5 67 -9.5s40.167 -9.16699 58.5 -15.5s37.166 -13.5 56.499 -21.5z" />
    <glyph glyph-name="A" unicode="A" horiz-adv-x="1422" 
d="M911 557l-135.001 399.002c-10 25.333 -20.667 55.166 -32 89.499s-22.666 71.5 -33.999 111.5c-10 -40.667 -20.667 -78.334 -32 -113.001s-22 -64.667 -32 -90l-134 -397h399zM1448 0.00195312h-262c-29.333 0 -53 6.83301 -71 20.5s-31.667 31.167 -41 52.5l-86 254
h-554l-86 -254c-7.33301 -18.667 -20.5 -35.5 -39.5 -50.5s-42.5 -22.5 -70.5 -22.5h-264l564 1457h346z" />
    <glyph glyph-name="B" unicode="B" horiz-adv-x="1339" 
d="M717 255c44.667 0 81.167 5.66699 109.5 17s50.5 26 66.5 44s27 38.333 33 61s9 45.667 9 69c0 26.667 -3.5 50.667 -10.5 72s-19 39.333 -36 54s-39.5 26 -67.5 34s-63.333 12 -106 12h-236v-363h238zM479 1204v-359.997h176c37.333 0 71 2.66699 101 8
s55.5 14.666 76.5 27.999s37 31.666 48 54.999s16.5 52.666 16.5 87.999c0 34.667 -4.33301 63.5 -13 86.5s-22 41.5 -40 55.5s-40.833 24 -68.5 30s-60.5 9 -98.5 9h-198zM677 1457c100.667 0 186.332 -9.33398 256.999 -28.001s128.334 -45 173.001 -79
s77.167 -75.333 97.5 -124s30.5 -103 30.5 -163c0 -32.667 -4.66699 -64.167 -14 -94.5s-24 -58.666 -44 -84.999s-45.667 -50.5 -77 -72.5s-69 -41 -113 -57c96 -23.333 167 -61 213 -113s69 -119.333 69 -202c0 -62 -12 -119.667 -36 -173s-59.167 -99.833 -105.5 -139.5
s-103.5 -70.667 -171.5 -93s-145.667 -33.5 -233 -33.5h-582v1457h536z" />
    <glyph glyph-name="C" unicode="C" horiz-adv-x="1311" 
d="M1123 377c8 0 16.002 -1.49707 24.002 -4.49707s15.667 -8.16699 23 -15.5l134 -141c-58.667 -76.667 -132.167 -134.5 -220.5 -173.5s-192.833 -58.5 -313.5 -58.5c-110.667 0 -209.834 18.833 -297.501 56.5s-162 89.667 -223 156s-107.833 145 -140.5 236
s-49 189.833 -49 296.5c0 108.667 17.667 208.5 53 299.5s85 169.5 149 235.5s140.667 117.333 230 154s187.666 55 294.999 55c54.667 0 106.167 -4.83301 154.5 -14.5s93.5 -23 135.5 -40s80.667 -37.5 116 -61.5s66.666 -50 93.999 -78l-114 -153
c-7.33301 -9.33301 -16 -17.833 -26 -25.5s-24 -11.5 -42 -11.5c-12 0 -23.333 2.66699 -34 8s-22 11.833 -34 19.5l-39.5 25c-14.333 9 -31.333 17.333 -51 25s-42.667 14.167 -69 19.5s-57.166 8 -92.499 8c-56 0 -107.167 -10.333 -153.5 -31
s-86.333 -50.834 -120 -90.501s-59.667 -88.334 -78 -146.001s-27.5 -123.5 -27.5 -197.5c0 -74.667 10.167 -141 30.5 -199s48 -106.833 83 -146.5s75.833 -69.834 122.5 -90.501s96.667 -31 150 -31c30.667 0 58.667 1.5 84 4.5s49 8 71 15s42.667 16.333 62 28
s39 26.5 59 44.5c8 6.66699 16.667 12.167 26 16.5s19 6.5 29 6.5z" />
    <glyph glyph-name="D" unicode="D" horiz-adv-x="1522" 
d="M1463 729c0 -105.333 -18.167 -202.499 -54.5 -291.499s-87.5 -166 -153.5 -231s-145.5 -115.667 -238.5 -152s-196.167 -54.5 -309.5 -54.5h-566v1457h566c113.333 0 216.5 -18.333 309.5 -55s172.5 -87.334 238.5 -152.001s117.167 -141.5 153.5 -230.5
s54.5 -185.833 54.5 -290.5zM1117 729.001c0 72 -9.33301 137 -28 195s-45.5 107.167 -80.5 147.5s-77.833 71.333 -128.5 93s-108.334 32.5 -173.001 32.5h-226v-937h226c64.667 0 122.334 10.833 173.001 32.5s93.5 52.667 128.5 93s61.833 89.5 80.5 147.5
s28 123.333 28 196z" />
    <glyph glyph-name="E" unicode="E" horiz-adv-x="1146" 
d="M481 1197v-340h458v-250h-458v-347h598v-260h-938v1457h938v-260h-598z" />
    <glyph glyph-name="F" unicode="F" horiz-adv-x="1133" 
d="M481 1197v-369h498v-261h-498v-567h-340v1457h938v-260h-598z" />
    <glyph glyph-name="G" unicode="G" horiz-adv-x="1445" 
d="M841 755l518.003 0.00195312v-615c-74.667 -54.667 -154.167 -94.334 -238.5 -119.001s-172.5 -37 -264.5 -37c-120 0 -229.167 18.833 -327.5 56.5s-182.5 89.667 -252.5 156s-124 145 -162 236s-57 189.833 -57 296.5c0 108.667 18 208.5 54 299.5
s87.5 169.5 154.5 235.5s148 117.333 243 154s201.167 55 318.5 55c60.667 0 117.667 -5 171 -15s102.5 -23.667 147.5 -41s86.167 -38 123.5 -62s70.666 -50 99.999 -78l-98 -149c-15.333 -23.333 -35.166 -37.666 -59.499 -42.999s-50.5 0.666992 -78.5 18
c-26.667 16 -51.834 29.833 -75.501 41.5s-47.834 21.167 -72.501 28.5s-50.667 12.666 -78 15.999s-58 5 -92 5c-63.333 0 -120.333 -11.167 -171 -33.5s-93.834 -53.833 -129.501 -94.5s-63.167 -89.5 -82.5 -146.5s-29 -120.5 -29 -190.5c0 -77.333 10.667 -146 32 -206
s51.5 -110.667 90.5 -152s85.667 -72.833 140 -94.5s114.5 -32.5 180.5 -32.5c40.667 0 77.5 4 110.5 12s65.167 18.667 96.5 32v221h-144c-21.333 0 -38 5.66699 -50 17s-18 25.666 -18 42.999v186z" />
    <glyph glyph-name="H" unicode="H" horiz-adv-x="1554" 
d="M1413 1457v-1457h-340v616h-592v-616h-340v1457h340v-609h592v609h340z" />
    <glyph glyph-name="I" unicode="I" horiz-adv-x="622" 
d="M481 0h-340v1457h340v-1457z" />
    <glyph glyph-name="J" unicode="J" horiz-adv-x="871" 
d="M744 528c0 -81.333 -10.167 -155.332 -30.5 -221.999s-51 -123.834 -92 -171.501s-92.5 -84.667 -154.5 -111s-135 -39.5 -219 -39.5c-38 0 -75.5 2 -112.5 6s-75.5 10.667 -115.5 20l18 197c2 17.333 9 31.333 21 42s29 16 51 16c11.333 0 25.333 -1.83301 42 -5.5
s36.667 -5.5 60 -5.5c32.667 0 61.167 4.5 85.5 13.5s44.5 24 60.5 45s28 48.5 36 82.5s12 76 12 126v936h338v-929z" />
    <glyph glyph-name="K" unicode="K" horiz-adv-x="1413" 
d="M479 867h54.001c50 0 86 15.667 108 47l328 476c19.333 25.333 40.166 42.833 62.499 52.5s50.166 14.5 83.499 14.5h294l-432 -589c-30.667 -40.667 -63.667 -70 -99 -88c25.333 -9.33301 48.333 -22.333 69 -39s40 -38.334 58 -65.001l440 -676h-302
c-19.333 0 -35.833 1.33301 -49.5 4s-25.5 6.66699 -35.5 12s-18.667 11.833 -26 19.5s-14.333 16.5 -21 26.5l-330 507c-12 18.667 -27.167 31.834 -45.5 39.501s-43.166 11.5 -74.499 11.5h-82v-620h-338v1457h338v-590z" />
    <glyph glyph-name="L" unicode="L" horiz-adv-x="1050" 
d="M1019 270v-270h-878v1457h338v-1187h540z" />
    <glyph glyph-name="M" unicode="M" horiz-adv-x="1920" 
d="M1779 1457l0.00292969 -1457h-298v838c0 19.333 0.5 40.333 1.5 63s2.83301 45.667 5.5 69l-387 -749c-12 -23.333 -28.167 -41 -48.5 -53s-43.5 -18 -69.5 -18h-46c-26 0 -49.167 6 -69.5 18s-36.5 29.667 -48.5 53l-387 751c2 -24 3.66699 -47.5 5 -70.5
s2 -44.167 2 -63.5v-838h-298v1457h258c14.667 0 27.5 -0.333008 38.5 -1s20.833 -2.66699 29.5 -6s16.5 -8.5 23.5 -15.5s13.833 -16.833 20.5 -29.5l375 -739c13.333 -25.333 26.166 -51.666 38.499 -78.999s24.166 -55.333 35.499 -84c11.333 29.333 23.166 58 35.499 86
s25.5 54.667 39.5 80l374 736c6.66699 12.667 13.5 22.5 20.5 29.5s14.833 12.167 23.5 15.5s18.5 5.33301 29.5 6s23.833 1 38.5 1h258z" />
    <glyph glyph-name="N" unicode="N" horiz-adv-x="1554" 
d="M1413 1457v-1457h-176c-26 0 -47.833 4.16699 -65.5 12.5s-35.167 22.833 -52.5 43.5l-687 869c2.66699 -26 4.5 -51.167 5.5 -75.5s1.5 -47.166 1.5 -68.499v-781h-298v1457h178c14.667 0 27 -0.666992 37 -2s19 -3.83301 27 -7.5s15.667 -8.83398 23 -15.501
s15.666 -15.667 24.999 -27l693 -875c-3.33301 28 -5.66602 55.167 -6.99902 81.5s-2 51.166 -2 74.499v771h298z" />
    <glyph glyph-name="O" unicode="O" horiz-adv-x="1629" 
d="M1571 729c0 -105.333 -18.167 -203.332 -54.5 -293.999s-87.5 -169.5 -153.5 -236.5s-145.5 -119.5 -238.5 -157.5s-196.167 -57 -309.5 -57s-216.666 19 -309.999 57s-173.166 90.5 -239.499 157.5s-117.666 145.833 -153.999 236.5s-54.5 188.667 -54.5 294
s18.167 203.333 54.5 294s87.666 169.334 153.999 236.001s146.166 119 239.499 157s196.666 57 309.999 57s216.5 -19.167 309.5 -57.5s172.5 -90.833 238.5 -157.5s117.167 -145.334 153.5 -236.001s54.5 -188.334 54.5 -293.001zM1225 729.001
c0 72 -9.33301 136.833 -28 194.5s-45.5 106.5 -80.5 146.5s-77.833 70.667 -128.5 92s-108.334 32 -173.001 32c-65.333 0 -123.5 -10.667 -174.5 -32s-94 -52 -129 -92s-61.833 -88.833 -80.5 -146.5s-28 -122.5 -28 -194.5c0 -72.667 9.33301 -137.834 28 -195.501
s45.5 -106.5 80.5 -146.5s78 -70.5 129 -91.5s109.167 -31.5 174.5 -31.5c64.667 0 122.334 10.5 173.001 31.5s93.5 51.5 128.5 91.5s61.833 88.833 80.5 146.5s28 122.834 28 195.501z" />
    <glyph glyph-name="P" unicode="P" horiz-adv-x="1272" 
d="M655 742c88 0 151.333 21 190 63s58 100.667 58 176c0 33.333 -5 63.666 -15 90.999s-25.167 50.833 -45.5 70.5s-46 34.834 -77 45.501s-67.833 16 -110.5 16h-176v-462h176zM655 1457c102.667 0 190.832 -12.167 264.499 -36.5s134.334 -57.833 182.001 -100.5
s82.834 -93 105.501 -151s34 -120.667 34 -188c0 -72.667 -11.667 -139.334 -35 -200.001s-59 -112.667 -107 -156s-108.833 -77.166 -182.5 -101.499s-160.834 -36.5 -261.501 -36.5h-176v-487h-338v1457h514z" />
    <glyph glyph-name="Q" unicode="Q" horiz-adv-x="1630" 
d="M404 729c0 -72.667 9.33301 -137.834 28 -195.501s45.5 -106.5 80.5 -146.5s78 -70.5 129 -91.5s109.167 -31.5 174.5 -31.5c64.667 0 122.334 10.5 173.001 31.5s93.5 51.5 128.5 91.5s61.833 88.833 80.5 146.5s28 122.834 28 195.501c0 72 -9.33301 136.833 -28 194.5
s-45.5 106.5 -80.5 146.5s-77.833 70.667 -128.5 92s-108.334 32 -173.001 32c-65.333 0 -123.5 -10.667 -174.5 -32s-94 -52 -129 -92s-61.833 -88.833 -80.5 -146.5s-28 -122.5 -28 -194.5zM1654 -273l-278 0.00195312c-40 0 -75.833 5.16699 -107.5 15.5
s-61.167 29.5 -88.5 57.5l-181 203c-56.667 -12.667 -117.667 -19 -183 -19c-113.333 0 -216.666 19 -309.999 57s-173.166 90.5 -239.499 157.5s-117.666 145.833 -153.999 236.5s-54.5 188.667 -54.5 294s18.167 203.333 54.5 294s87.666 169.334 153.999 236.001
s146.166 119 239.499 157s196.666 57 309.999 57s216.5 -19.167 309.5 -57.5s172.5 -90.833 238.5 -157.5s117.167 -145.334 153.5 -236.001s54.5 -188.334 54.5 -293.001c0 -62.667 -6.5 -122.834 -19.5 -180.501s-31.667 -111.834 -56 -162.501s-54.333 -97.667 -90 -141
s-76.167 -81.666 -121.5 -114.999z" />
    <glyph glyph-name="R" unicode="R" horiz-adv-x="1315" 
d="M615 772c46 0 85.167 5.83105 117.5 17.498s58.833 27.834 79.5 48.501s35.667 44.834 45 72.501s14 57.5 14 89.5c0 64 -20.833 114 -62.5 150s-106.167 54 -193.5 54h-136v-432h136zM1333 -0.00195312l-305.997 0.00195312c-56.667 -0 -97.334 21.333 -122.001 64
l-242 423c-11.333 18 -24 31.167 -38 39.5s-34 12.5 -60 12.5h-86v-539h-338v1457h474c105.333 0 195.166 -10.833 269.499 -32.5s135 -51.834 182 -90.501s81.167 -84.334 102.5 -137.001s32 -110 32 -172c0 -47.333 -6.33301 -92 -19 -134s-31.334 -80.833 -56.001 -116.5
s-55.167 -67.5 -91.5 -95.5s-78.166 -51 -125.499 -69c22 -11.333 42.667 -25.5 62 -42.5s36.666 -37.167 51.999 -60.5z" />
    <glyph glyph-name="S" unicode="S" horiz-adv-x="1108" 
d="M946 1161c-10 -16 -20.4961 -28.001 -31.4961 -36.001s-25.167 -12 -42.5 -12c-15.333 0 -31.833 4.83301 -49.5 14.5l-60 32.5c-22.333 12 -47.833 22.833 -76.5 32.5s-61.334 14.5 -98.001 14.5c-63.333 0 -110.5 -13.5 -141.5 -40.5s-46.5 -63.5 -46.5 -109.5
c0 -29.333 9.33301 -53.666 28 -72.999s43.167 -36 73.5 -50s65 -26.833 104 -38.5s78.833 -24.667 119.5 -39s80.5 -31.166 119.5 -50.499s73.667 -44 104 -74s54.833 -66.5 73.5 -109.5s28 -94.833 28 -155.5c0 -67.333 -11.667 -130.333 -35 -189
s-57.166 -109.834 -101.499 -153.501s-99 -78 -164 -103s-138.833 -37.5 -221.5 -37.5c-45.333 0 -91.5 4.66699 -138.5 14s-92.5 22.5 -136.5 39.5s-85.333 37.167 -124 60.5s-72.334 49.333 -101.001 78l100 158c8 11.333 18.5 20.833 31.5 28.5s27.167 11.5 42.5 11.5
c20 0 40.167 -6.33301 60.5 -19l69 -42c25.667 -15.333 55.167 -29.333 88.5 -42s72.666 -19 117.999 -19c61.333 0 109 13.5 143 40.5s51 69.833 51 128.5c0 34 -9.33301 61.667 -28 83s-43.167 39 -73.5 53s-64.833 26.333 -103.5 37s-78.334 22.5 -119.001 35.5
s-80.334 29 -119.001 48s-73.167 44 -103.5 75s-54.833 69.667 -73.5 116s-28 103.5 -28 171.5c0 54.667 11 108 33 160s54.333 98.333 97 139s95 73.167 157 97.5s133 36.5 213 36.5c44.667 0 88.167 -3.5 130.5 -10.5s82.5 -17.333 120.5 -31s73.5 -30 106.5 -49
s62.5 -40.5 88.5 -64.5z" />
    <glyph glyph-name="T" unicode="T" horiz-adv-x="1218" 
d="M1188 1189h-410v-1189h-338v1189h-410v268h1158v-268z" />
    <glyph glyph-name="U" unicode="U" horiz-adv-x="1498" 
d="M749 267c45.333 0 85.8301 7.49902 121.497 22.499s65.834 36.5 90.501 64.5s43.5 62.167 56.5 102.5s19.5 86.166 19.5 137.499v863h338v-863c0 -89.333 -14.5 -171.333 -43.5 -246s-70.5 -139 -124.5 -193s-119.667 -96 -197 -126s-164.333 -45 -261 -45
c-97.333 0 -184.666 15 -261.999 45s-143 72 -197 126s-95.333 118.333 -124 193s-43 156.667 -43 246v863h338v-862c0 -51.333 6.5 -97.166 19.5 -137.499s31.833 -74.666 56.5 -102.999s54.834 -50 90.501 -65s76.167 -22.5 121.5 -22.5z" />
    <glyph glyph-name="V" unicode="V" horiz-adv-x="1422" 
d="M1448 1457l-584 -1457h-306l-584 1457h272c29.333 0 53 -6.83301 71 -20.5s31.667 -31.167 41 -52.5l282 -780c13.333 -34 26.333 -71.167 39 -111.5s24.667 -82.5 36 -126.5c9.33301 44 19.833 86.167 31.5 126.5s24.167 77.5 37.5 111.5l280 780
c7.33301 18.667 20.5 35.5 39.5 50.5s42.5 22.5 70.5 22.5h274z" />
    <glyph glyph-name="W" unicode="W" horiz-adv-x="2130" 
d="M2126 1457l-450 -1457h-306l-274 903c-5.33301 14 -10.333 29.5 -15 46.5l-14 53.5l-14 -53.5c-4.66699 -17 -9.66699 -32.5 -15 -46.5l-278 -903h-306l-450 1457h284c29.333 0 53.833 -6.66699 73.5 -20s32.5 -31 38.5 -53l200 -760c6 -24 12 -50.167 18 -78.5l18 -88.5
c12 62.667 26.667 118.334 44 167.001l236 760c6 18.667 18.833 35.5 38.5 50.5s43.5 22.5 71.5 22.5h100c29.333 0 53 -6.83301 71 -20.5s31.667 -31.167 41 -52.5l234 -760c17.333 -46.667 32 -99.667 44 -159c5.33301 30 10.833 58.167 16.5 84.5
s11.5 51.166 17.5 74.499l200 760c5.33301 19.333 18 36.333 38 51s44 22 72 22h266z" />
    <glyph glyph-name="X" unicode="X" horiz-adv-x="1380" 
d="M1391 0l-337.996 -0.00195312c-22 0 -39.833 5.33301 -53.5 16s-24.5 23.334 -32.5 38.001l-292 510c-5.33301 -14.667 -11.333 -27.334 -18 -38.001l-272 -472c-9.33301 -13.333 -20.333 -25.666 -33 -36.999s-29 -17 -49 -17h-316l469 750l-451 707h338
c22 0 38.167 -2.83301 48.5 -8.5s19.5 -15.167 27.5 -28.5l290 -491c3.33301 8.66699 7.16602 17 11.499 25s9.16602 16.333 14.499 25l254 436c9.33301 14.667 19.166 25.334 29.499 32.001s23.166 10 38.499 10h324l-457 -693z" />
    <glyph glyph-name="Y" unicode="Y" horiz-adv-x="1340" 
d="M839 554l-0.000976562 -554.001h-338v554l-528 903h298c29.333 0 52.5 -6.83301 69.5 -20.5s31.167 -31.167 42.5 -52.5l206 -424l47 -93.5c14 -29 26.333 -57.5 37 -85.5c10 28.667 21.5 57.5 34.5 86.5s28.167 59.833 45.5 92.5l204 424
c4.66699 8.66699 10.334 17.334 17.001 26.001s14.5 16.5 23.5 23.5s19.333 12.667 31 17s24.5 6.5 38.5 6.5h300z" />
    <glyph glyph-name="Z" unicode="Z" horiz-adv-x="1218" 
d="M1174 1335c0 -17.333 -2.83203 -34.332 -8.49902 -50.999s-13.5 -32.334 -23.5 -47.001l-684 -977h694v-260h-1124v130c0 15.333 2.66699 30.5 8 45.5s12.666 28.833 21.999 41.5l686 980h-660v260h1090v-122z" />
    <glyph glyph-name="bracketleft" unicode="[" horiz-adv-x="641" 
d="M408 1364v-1495h110c23.333 0 42.5 -7.33301 57.5 -22s22.5 -32 22.5 -52v-119h-448v1881h448v-118c0 -20.667 -7.5 -38.334 -22.5 -53.001s-34.167 -22 -57.5 -22h-110z" />
    <glyph glyph-name="backslash" unicode="\" horiz-adv-x="958" 
d="M51 1497h132c36 0 67.667 -9 95 -27s47.666 -44 60.999 -78l568 -1491h-132c-16 0 -32.167 2.33301 -48.5 7s-31.666 11.667 -45.999 21s-27.5 21 -39.5 35s-21.333 30 -28 48z" />
    <glyph glyph-name="bracketright" unicode="]" horiz-adv-x="641" 
d="M491 -324l-448 -0.000976562v119c0 20 7.5 37.333 22.5 52s34.167 22 57.5 22h110v1495h-110c-23.333 0 -42.5 7.33301 -57.5 22s-22.5 32.334 -22.5 53.001v118h448v-1881z" />
    <glyph glyph-name="asciicircum" unicode="^" horiz-adv-x="1160" 
d="M1092 669h-228.001c-18 0 -33 4.5 -45 13.5s-21.667 20.5 -29 34.5l-154 336c-12 24.667 -22.667 48.167 -32 70.5s-17.666 44.5 -24.999 66.5c-14 -43.333 -31.667 -89 -53 -137l-140 -336c-6 -14 -15.5 -25.5 -28.5 -34.5s-29.5 -13.5 -49.5 -13.5h-240l406 788h202z
" />
    <glyph glyph-name="underscore" unicode="_" horiz-adv-x="946" 
d="M867 -108v-194h-788v194h788z" />
    <glyph glyph-name="grave" unicode="`" 
d="M322 1473c31.333 0 54.668 -5.16699 70.001 -15.5s28.666 -25.166 39.999 -44.499l136 -245h-176c-23.333 0 -42 3.16699 -56 9.5s-28.667 17.166 -44 32.499l-260 263h290z" />
    <glyph glyph-name="a" unicode="a" horiz-adv-x="1035" 
d="M640 422c-62 -2.66699 -112.999 -8.00098 -152.999 -16.001s-71.667 -18 -95 -30s-39.5 -25.667 -48.5 -41s-13.5 -32 -13.5 -50c0 -35.333 9.66699 -60.166 29 -74.499s47.666 -21.5 84.999 -21.5c40 0 75 7 105 21s60.333 36.667 91 68v144zM82.001 892.999
c62.667 55.333 132.166 96.5 208.499 123.5s158.166 40.5 245.499 40.5c62.667 0 119.167 -10.167 169.5 -30.5s93 -48.666 128 -84.999s61.833 -79.5 80.5 -129.5s28 -104.667 28 -164v-648h-142c-29.333 0 -51.5 4 -66.5 12s-27.5 24.667 -37.5 50l-22 57
c-26 -22 -51 -41.333 -75 -58s-48.833 -30.834 -74.5 -42.501s-53 -20.334 -82 -26.001s-61.167 -8.5 -96.5 -8.5c-47.333 0 -90.333 6.16699 -129 18.5s-71.5 30.5 -98.5 54.5s-47.833 53.833 -62.5 89.5s-22 76.834 -22 123.501c0 37.333 9.33301 75.166 28 113.499
s51 73.333 97 105s108 58.167 186 79.5s176.333 33.333 295 36v44c0 60.667 -12.5 104.5 -37.5 131.5s-60.5 40.5 -106.5 40.5c-36.667 0 -66.667 -4 -90 -12s-44.166 -17 -62.499 -27s-36.166 -19 -53.499 -27s-38 -12 -62 -12c-21.333 0 -39.333 5.33301 -54 16
s-26.667 23.334 -36 38.001z" />
    <glyph glyph-name="b" unicode="b" horiz-adv-x="1149" 
d="M415 282c23.333 -25.333 48.666 -43.333 75.999 -54s55 -16 83 -16c29.333 0 56.333 5.5 81 16.5s45.834 29 63.501 54s31.5 58 41.5 99s15 91.5 15 151.5c0 52 -3.83301 96.167 -11.5 132.5s-19 66 -34 89s-33.667 39.667 -56 50s-47.833 15.5 -76.5 15.5
c-38 0 -71 -8.33301 -99 -25s-55.667 -41 -83 -73v-440zM415 927c40 38 83.833 68.5 131.5 91.5s100.834 34.5 159.501 34.5s112 -12 160 -36s89 -58.167 123 -102.5s60.167 -97.833 78.5 -160.5s27.5 -132.667 27.5 -210c0 -84 -10.667 -160.333 -32 -229
s-51.5 -127.5 -90.5 -176.5s-85.5 -87 -139.5 -114s-113.667 -40.5 -179 -40.5c-31.333 0 -59.333 3 -84 9s-47.334 14.5 -68.001 25.5s-39.5 24.167 -56.5 39.5s-33.5 32 -49.5 50l-11 -52c-5.33301 -21.333 -14 -36 -26 -44s-28 -12 -48 -12h-206v1497h310v-570z" />
    <glyph glyph-name="c" unicode="c" horiz-adv-x="973" 
d="M867 791c-9.33301 -11.333 -18.3301 -20.335 -26.9971 -27.002s-21 -10 -37 -10c-15.333 0 -29.166 3.66699 -41.499 11l-41.5 24.5c-15.333 9 -33.333 17.167 -54 24.5s-46.334 11 -77.001 11c-38 0 -70.833 -7 -98.5 -21s-50.5 -34 -68.5 -60
s-31.333 -57.833 -40 -95.5s-13 -80.167 -13 -127.5c0 -99.333 19.167 -175.666 57.5 -228.999s91.166 -80 158.499 -80c36 0 64.5 4.5 85.5 13.5s38.833 19 53.5 30l40.5 30.5c12.333 9.33301 27.833 14 46.5 14c24.667 0 43.334 -9 56.001 -27l90 -111
c-32 -36.667 -65.667 -66.5 -101 -89.5s-71.5 -41 -108.5 -54s-74.167 -22 -111.5 -27s-73.666 -7.5 -108.999 -7.5c-63.333 0 -123.833 12 -181.5 36s-108.334 58.833 -152.001 104.5s-78.334 101.834 -104.001 168.501s-38.5 142.667 -38.5 228
c0 74.667 11.167 144.5 33.5 209.5s55.333 121.333 99 169s97.667 85.167 162 112.5s138.833 41 223.5 41c81.333 0 152.666 -13 213.999 -39s116.666 -64 165.999 -114z" />
    <glyph glyph-name="d" unicode="d" horiz-adv-x="1149" 
d="M734 759c-23.333 26 -48.666 44.167 -75.999 54.5s-56 15.5 -86 15.5c-28.667 0 -55 -5.66699 -79 -17s-44.833 -29.5 -62.5 -54.5s-31.5 -57.5 -41.5 -97.5s-15 -88.333 -15 -145c0 -54.667 4 -100.667 12 -138s19.167 -67.5 33.5 -90.5s31.5 -39.5 51.5 -49.5
s42.333 -15 67 -15c22.667 0 43.167 2.16699 61.5 6.5s35.166 10.5 50.499 18.5s29.833 18.167 43.5 30.5s27.167 26.5 40.5 42.5v439zM1044 1497l-0.000976562 -1497h-192c-38.667 0 -64 17.333 -76 52l-24 79c-20.667 -22 -42.334 -42 -65.001 -60
s-47.167 -33.5 -73.5 -46.5s-54.666 -23 -84.999 -30s-63.166 -10.5 -98.499 -10.5c-54 0 -104 12 -150 36s-85.667 58.667 -119 104s-59.5 100.833 -78.5 166.5s-28.5 140.5 -28.5 224.5c0 77.333 10.667 149.166 32 215.499s51.5 123.666 90.5 171.999
s85.833 86.166 140.5 113.499s115 41 181 41c54 0 99.333 -7.66699 136 -23s70 -36 100 -62v525h310z" />
    <glyph glyph-name="e" unicode="e" horiz-adv-x="1078" 
d="M750 643c0 24.667 -3.16992 48.6689 -9.50293 72.002s-16.666 44.166 -30.999 62.499s-33.166 33.166 -56.499 44.499s-51.666 17 -84.999 17c-58.667 0 -104.667 -16.833 -138 -50.5s-55.333 -82.167 -66 -145.5h386zM359.997 463.002
c10 -86.667 36.335 -149.501 79.002 -188.501s97.667 -58.5 165 -58.5c36 0 67 4.33301 93 13s49.167 18.334 69.5 29.001l56 29c17 8.66699 34.833 13 53.5 13c24.667 0 43.334 -9 56.001 -27l90 -111c-32 -36.667 -66.5 -66.5 -103.5 -89.5s-75 -41 -114 -54
s-78 -22 -117 -27s-76.167 -7.5 -111.5 -7.5c-72.667 0 -140.834 11.833 -204.501 35.5s-119.334 58.834 -167.001 105.501s-85.334 104.667 -113.001 174s-41.5 150 -41.5 242c0 69.333 11.833 135 35.5 197s57.667 116.333 102 163s98 83.667 161 111s134.167 41 213.5 41
c68.667 0 131.5 -10.667 188.5 -32s106 -52.333 147 -93s73 -90.5 96 -149.5s34.5 -125.833 34.5 -200.5c0 -23.333 -1 -42.333 -3 -57s-5.66699 -26.334 -11 -35.001s-12.5 -14.667 -21.5 -18s-20.5 -5 -34.5 -5h-598z" />
    <glyph glyph-name="f" unicode="f" horiz-adv-x="732" 
d="M182 0l0.00292969 824.001l-68 14c-23.333 5.33301 -42.166 13.666 -56.499 24.999s-21.5 28 -21.5 50v122h146v59c0 59.333 9.5 113 28.5 161s46.333 89 82 123s79.167 60.333 130.5 79s109.666 28 174.999 28c25.333 0 48.666 -1.5 69.999 -4.5
s43.666 -7.83301 66.999 -14.5l-6 -151c-0.666992 -10.667 -3.33398 -19.5 -8.00098 -26.5s-10.834 -12.667 -18.501 -17s-15.834 -7.5 -24.501 -9.5s-17.334 -3 -26.001 -3c-27.333 0 -51.666 -2.66699 -72.999 -8s-39.166 -14.833 -53.499 -28.5
s-25.166 -31.667 -32.499 -54s-11 -50.5 -11 -84.5v-49h243v-212h-233v-823h-310z" />
    <glyph glyph-name="g" unicode="g" horiz-adv-x="1071" 
d="M500 573c51.333 0 88.501 12.832 111.501 38.499s34.5 58.834 34.5 99.501c0 42 -11.5 75 -34.5 99s-60.167 36 -111.5 36s-88.5 -12 -111.5 -36s-34.5 -57 -34.5 -99c0 -20 2.83301 -38.333 8.5 -55s14.5 -31.167 26.5 -43.5s27.167 -22 45.5 -29
s40.166 -10.5 65.499 -10.5zM740.001 -38.001c0 24.667 -11.002 42.5 -33.002 53.5s-50.667 18.833 -86 23.5s-74.833 7.5 -118.5 8.5s-87.167 3.5 -130.5 7.5c-19.333 -13.333 -35.166 -28.166 -47.499 -44.499s-18.5 -34.833 -18.5 -55.5c0 -14.667 3.16699 -28 9.5 -40
s17.5 -22.333 33.5 -31s37.5 -15.5 64.5 -20.5s61.167 -7.5 102.5 -7.5c44.667 0 81.334 2.66699 110.001 8s51.5 12.666 68.5 21.999s28.833 20.5 35.5 33.5s10 27.167 10 42.5zM1046 1005l-0.000976562 -112.999c0 -17.333 -4.83301 -31 -14.5 -41
s-26.167 -17.667 -49.5 -23l-75 -17c4 -14.667 7.16699 -29.667 9.5 -45s3.5 -31.333 3.5 -48c0 -52 -10.833 -98.667 -32.5 -140s-51.334 -76.5 -89.001 -105.5s-82.167 -51.333 -133.5 -67s-106.333 -23.5 -165 -23.5c-16 0 -31.667 0.5 -47 1.5s-30.333 2.83301 -45 5.5
c-22.667 -14 -34 -29.667 -34 -47s9.33301 -29.833 28 -37.5s43.334 -13 74.001 -16s65.5 -5 104.5 -6s78.833 -3.33301 119.5 -7s80.5 -9.83398 119.5 -18.501s73.833 -22.667 104.5 -42s55.334 -45.166 74.001 -77.499s28 -73.5 28 -123.5
c0 -46.667 -11.333 -92.334 -34 -137.001s-56 -84.334 -100 -119.001s-98 -62.5 -162 -83.5s-137.333 -31.5 -220 -31.5c-81.333 0 -151.5 7.66699 -210.5 23s-108 35.5 -147 60.5s-67.833 53.833 -86.5 86.5s-28 66.667 -28 102c0 46 13.333 84.333 40 115
s64 55.334 112 74.001c-25.333 15.333 -45.333 35 -60 59s-22 55 -22 93c0 15.333 2.66699 31.5 8 48.5s13.833 33.667 25.5 50s26.167 31.833 43.5 46.5s38 27.667 62 39c-54 28.667 -96.667 66.5 -128 113.5s-47 101.833 -47 164.5c0 52 11 98.833 33 140.5
s52.167 77 90.5 106s83.5 51.333 135.5 67s108.333 23.5 169 23.5c88 0 166 -16.667 234 -50h312z" />
    <glyph glyph-name="h" unicode="h" horiz-adv-x="1140" 
d="M415 946c37.333 32 77.8301 57.833 121.497 77.5s95.834 29.5 156.501 29.5c56.667 0 106.834 -9.83301 150.501 -29.5s80.5 -47 110.5 -82s52.667 -76.667 68 -125s23 -100.833 23 -157.5v-659h-310v659c0 50.667 -11.667 90.167 -35 118.5s-57.666 42.5 -102.999 42.5
c-34 0 -65.833 -7.16699 -95.5 -21.5s-58.5 -33.833 -86.5 -58.5v-740h-310v1497h310v-551z" />
    <glyph glyph-name="i" unicode="i" horiz-adv-x="534" 
d="M422 1037v-1037h-310v1037h310zM454 1321c0 -24.667 -5 -47.834 -15 -69.501s-23.667 -40.667 -41 -57s-37.5 -29.333 -60.5 -39s-47.5 -14.5 -73.5 -14.5c-25.333 0 -49 4.83301 -71 14.5s-41.5 22.667 -58.5 39s-30.333 35.333 -40 57s-14.5 44.834 -14.5 69.501
c0 25.333 4.83301 49 14.5 71s23 41.333 40 58s36.5 29.667 58.5 39s45.667 14 71 14c26 0 50.5 -4.66699 73.5 -14s43.167 -22.333 60.5 -39s31 -36 41 -58s15 -45.667 15 -71z" />
    <glyph glyph-name="j" unicode="j" horiz-adv-x="534" 
d="M422 1037l-0.00195312 -1039c0 -48.667 -6.16699 -94.5 -18.5 -137.5s-32.666 -80.667 -60.999 -113s-65.666 -57.833 -111.999 -76.5s-103.833 -28 -172.5 -28c-25.333 0 -48.833 1.5 -70.5 4.5s-44.167 7.5 -67.5 13.5l10 163c1.33301 14 6 24.333 14 31s24 10 48 10
s43.667 2 59 6s27.5 11 36.5 21s15.333 23.5 19 40.5s5.5 38.833 5.5 65.5v1039h310zM453.998 1321c0 -24.667 -5 -47.834 -15 -69.501s-23.667 -40.667 -41 -57s-37.5 -29.333 -60.5 -39s-47.5 -14.5 -73.5 -14.5c-25.333 0 -49 4.83301 -71 14.5s-41.5 22.667 -58.5 39
s-30.333 35.333 -40 57s-14.5 44.834 -14.5 69.501c0 25.333 4.83301 49 14.5 71s23 41.333 40 58s36.5 29.667 58.5 39s45.667 14 71 14c26 0 50.5 -4.66699 73.5 -14s43.167 -22.333 60.5 -39s31 -36 41 -58s15 -45.667 15 -71z" />
    <glyph glyph-name="k" unicode="k" horiz-adv-x="1117" 
d="M415 1497v-839.001h46c19.333 0 34 2.83301 44 8.5s20 15.167 30 28.5l196 292c12 16.667 25.667 29.167 41 37.5s35 12.5 59 12.5h284l-268 -369c-25.333 -33.333 -55.333 -60.666 -90 -81.999c15.333 -11.333 29.333 -24.5 42 -39.5s24.667 -31.833 36 -50.5l292 -496
h-280c-23.333 -0 -43.333 3.83301 -60 11.5s-30.667 21.167 -42 40.5l-196 367c-9.33301 16.667 -19 27.5 -29 32.5s-25 7.5 -45 7.5h-60v-459h-310v1497h310z" />
    <glyph glyph-name="l" unicode="l" horiz-adv-x="520" 
d="M415 1497v-1497h-310v1497h310z" />
    <glyph glyph-name="m" unicode="m" horiz-adv-x="1702" 
d="M105 0l-0.00195312 1037h192c38.667 0 64 -17.333 76 -52l17 -56c17.333 18 35.333 34.5 54 49.5s38.834 28 60.501 39s45 19.667 70 26s52.5 9.5 82.5 9.5c62.667 0 114.5 -16.167 155.5 -48.5s72.167 -75.5 93.5 -129.5c17.333 32 38.5 59.333 63.5 82s52 41 81 55
s59.667 24.333 92 31s64.5 10 96.5 10c59.333 0 112 -8.83301 158 -26.5s84.5 -43.334 115.5 -77.001s54.5 -75 70.5 -124s24 -104.5 24 -166.5v-659h-310v659c0 107.333 -46 161 -138 161c-42 0 -76.833 -13.833 -104.5 -41.5s-41.5 -67.5 -41.5 -119.5v-659h-310v659
c0 59.333 -11.667 101 -35 125s-57.666 36 -102.999 36c-28 0 -54.5 -6.33301 -79.5 -19s-48.5 -29.667 -70.5 -51v-750h-310z" />
    <glyph glyph-name="n" unicode="n" horiz-adv-x="1140" 
d="M391 925c20 18.667 40.668 36 62.001 52s44.166 29.5 68.499 40.5s50.666 19.667 78.999 26s59.166 9.5 92.499 9.5c56.667 0 106.834 -9.83301 150.501 -29.5s80.5 -47 110.5 -82s52.667 -76.667 68 -125s23 -100.833 23 -157.5v-659h-310v659
c0 50.667 -11.667 90.167 -35 118.5s-57.666 42.5 -102.999 42.5c-34 0 -65.833 -7.16699 -95.5 -21.5s-58.5 -33.833 -86.5 -58.5v-740h-310v1037h192c38.667 0 64 -17.333 76 -52z" />
    <glyph glyph-name="o" unicode="o" horiz-adv-x="1162" 
d="M583 1053c78.667 0 150.334 -12.333 215.001 -37s120.167 -60 166.5 -106s82.333 -101.833 108 -167.5s38.5 -139.5 38.5 -221.5c0 -82.667 -12.833 -157.167 -38.5 -223.5s-61.667 -122.666 -108 -168.999s-101.833 -82 -166.5 -107s-136.334 -37.5 -215.001 -37.5
c-79.333 0 -151.5 12.5 -216.5 37.5s-121 60.667 -168 107s-83.333 102.666 -109 168.999s-38.5 140.833 -38.5 223.5c0 82 12.833 155.833 38.5 221.5s62 121.5 109 167.5s103 81.333 168 106s137.167 37 216.5 37zM583 214c71.333 0 123.833 25.167 157.5 75.5
s50.5 126.833 50.5 229.5s-16.833 179 -50.5 229s-86.167 75 -157.5 75c-73.333 0 -127 -25 -161 -75s-51 -126.333 -51 -229s17 -179.167 51 -229.5s87.667 -75.5 161 -75.5z" />
    <glyph glyph-name="p" unicode="p" horiz-adv-x="1150" 
d="M415 282c23.333 -25.333 48.666 -43.333 75.999 -54s56 -16 86 -16c28.667 0 55 5.66699 79 17s44.833 29.5 62.5 54.5s31.5 57.5 41.5 97.5s15 88.667 15 146c0 54.667 -4 100.667 -12 138s-19.167 67.5 -33.5 90.5s-31.5 39.5 -51.5 49.5s-42.333 15 -67 15
c-45.333 0 -82.666 -8.33301 -111.999 -25s-57.333 -41 -84 -73v-440zM396 909c40.667 43.333 86.833 78.833 138.5 106.5s113.167 41.5 184.5 41.5c54 0 104 -12 150 -36s85.667 -58.667 119 -104s59.5 -100.833 78.5 -166.5s28.5 -140.167 28.5 -223.5
c0 -78 -10.833 -150 -32.5 -216s-52 -123.333 -91 -172s-85.667 -86.667 -140 -114s-114.5 -41 -180.5 -41c-54 0 -99.333 7.66699 -136 23s-70 36 -100 62v-398h-310v1366h192c38.667 0 64 -17.333 76 -52z" />
    <glyph glyph-name="q" unicode="q" horiz-adv-x="1149" 
d="M734 759c-23.333 25.333 -48.666 43.333 -75.999 54s-56 16 -86 16c-28.667 0 -55 -5.66699 -79 -17s-44.833 -29.5 -62.5 -54.5s-31.5 -57.5 -41.5 -97.5s-15 -88.333 -15 -145c0 -54.667 4 -100.667 12 -138s19.167 -67.5 33.5 -90.5s31.5 -39.5 51.5 -49.5
s42.333 -15 67 -15c22.667 0 43.167 2.16699 61.5 6.5s35.166 10.5 50.499 18.5s29.833 18.167 43.5 30.5s27.167 26.5 40.5 42.5v439zM1044 1037l0.000976562 -1366h-310v442c-39.333 -38.667 -83.333 -69.834 -132 -93.501s-106 -35.5 -172 -35.5c-54 0 -104 12 -150 36
s-85.667 58.667 -119 104s-59.5 100.833 -78.5 166.5s-28.5 140.5 -28.5 224.5c0 77.333 10.667 149.166 32 215.499s51.5 123.666 90.5 171.999s85.833 86.166 140.5 113.499s115 41 181 41c31.333 0 59.666 -2.66699 84.999 -8s48.5 -13 69.5 -23s40.5 -22 58.5 -36
s35.333 -29.333 52 -46l13 41c12 34.667 37.333 52 76 52h192z" />
    <glyph glyph-name="r" unicode="r" horiz-adv-x="763" 
d="M395 877c32 56 68.833 100 110.5 132s89.5 48 143.5 48c46.667 0 84.667 -11 114 -33l-20 -228c-3.33301 -14.667 -8.83301 -24.667 -16.5 -30s-18.167 -8 -31.5 -8c-5.33301 0 -12.333 0.333008 -21 1s-17.667 1.5 -27 2.5l-28.5 3c-9.66699 1 -18.5 1.5 -26.5 1.5
c-45.333 0 -81.5 -12 -108.5 -36s-49.833 -57.333 -68.5 -100v-630h-310v1037h184c15.333 0 28.166 -1.33301 38.499 -4s19 -6.83398 26 -12.501s12.333 -13.167 16 -22.5s6.83398 -20.666 9.50098 -33.999z" />
    <glyph glyph-name="s" unicode="s" horiz-adv-x="891" 
d="M764 810c-8 -12.667 -16.5029 -21.667 -25.5029 -27s-20.5 -8 -34.5 -8c-14.667 0 -29.334 3.16699 -44.001 9.5l-47.5 20.5c-17 7.33301 -36.167 14.166 -57.5 20.499s-45.666 9.5 -72.999 9.5c-39.333 0 -69.5 -7.5 -90.5 -22.5s-31.5 -35.833 -31.5 -62.5
c0 -19.333 6.83301 -35.333 20.5 -48s31.834 -23.834 54.501 -33.501s48.334 -18.834 77.001 -27.501s58 -18.334 88 -29.001s59.333 -23.167 88 -37.5s54.334 -32 77.001 -53s40.834 -46.5 54.501 -76.5s20.5 -66 20.5 -108c0 -51.333 -9.33301 -98.666 -28 -141.999
s-46.5 -80.666 -83.5 -111.999s-82.667 -55.666 -137 -72.999s-116.833 -26 -187.5 -26c-35.333 0 -70.666 3.33301 -105.999 10s-69.5 15.667 -102.5 27s-63.5 24.833 -91.5 40.5s-52 32.5 -72 50.5l72 114c8 13.333 18.167 23.833 30.5 31.5s28.166 11.5 47.499 11.5
c18 0 34.167 -4 48.5 -12l46.5 -26c16.667 -9.33301 36.167 -18 58.5 -26s50.5 -12 84.5 -12c24 0 44.333 2.5 61 7.5s30 11.833 40 20.5s17.333 18.334 22 29.001s7 21.667 7 33c0 20.667 -7 37.667 -21 51s-32.333 24.833 -55 34.5s-48.5 18.667 -77.5 27
s-58.5 17.833 -88.5 28.5s-59.5 23.5 -88.5 38.5s-54.833 34 -77.5 57s-41 51.167 -55 84.5s-21 73.666 -21 120.999c0 44 8.5 85.833 25.5 125.5s42.5 74.5 76.5 104.5s76.667 53.833 128 71.5s111.333 26.5 180 26.5c37.333 0 73.5 -3.33301 108.5 -10
s67.833 -16 98.5 -28s58.667 -26.167 84 -42.5s47.666 -34.166 66.999 -53.499z" />
    <glyph glyph-name="t" unicode="t" horiz-adv-x="768" 
d="M476 -16c-49.333 0 -92.833 7.16797 -130.5 21.501s-69.334 34.666 -95.001 60.999s-45.167 58.166 -58.5 95.499s-20 79 -20 125v536h-88c-16 0 -29.667 5.16699 -41 15.5s-17 25.5 -17 45.5v121l165 32l61 253c8 32 30.667 48 68 48h162v-303h257v-212h-257v-515
c0 -24 5.83301 -43.833 17.5 -59.5s28.5 -23.5 50.5 -23.5c11.333 0 20.833 1.16699 28.5 3.5s14.334 5 20.001 8s11 5.66699 16 8s10.833 3.5 17.5 3.5c9.33301 0 16.833 -2.16699 22.5 -6.5s11.5 -11.166 17.5 -20.499l94 -147c-40 -30 -85 -52.5 -135 -67.5
s-101.667 -22.5 -155 -22.5z" />
    <glyph glyph-name="u" unicode="u" horiz-adv-x="1140" 
d="M1035 1037l-0.000976562 -1037h-192c-38.667 -0 -64 17.333 -76 52l-18 60c-20 -19.333 -40.667 -36.833 -62 -52.5s-44.166 -29 -68.499 -40s-50.666 -19.667 -78.999 -26s-59.166 -9.5 -92.499 -9.5c-56.667 0 -106.834 9.83301 -150.501 29.5
s-80.5 47.167 -110.5 82.5s-52.667 77 -68 125s-23 100.667 -23 158v658h310v-658c0 -51.333 11.667 -91 35 -119s57.666 -42 102.999 -42c34 0 65.833 7.16699 95.5 21.5s58.5 33.833 86.5 58.5v739h310z" />
    <glyph glyph-name="v" unicode="v" horiz-adv-x="1078" 
d="M1082 1037l-402.001 -1037h-282l-402 1037h258c22 0 40.5 -5.16699 55.5 -15.5s25.167 -23.166 30.5 -38.499l144 -465c12.667 -38 23.834 -75 33.501 -111s18.167 -72 25.5 -108c14.667 72 35 145 61 219l150 465c5.33301 15.333 15.333 28.166 30 38.499
s32 15.5 52 15.5h246z" />
    <glyph glyph-name="w" unicode="w" horiz-adv-x="1636" 
d="M1631 1037l-322 -1037h-252c-13.333 0 -24.666 4 -33.999 12s-16.666 21.333 -21.999 40l-148 517c-7.33301 23.333 -13.833 46.333 -19.5 69s-10.834 45.667 -15.501 69c-4.66699 -23.333 -9.83398 -46.666 -15.501 -69.999s-12.167 -46.666 -19.5 -69.999l-150 -515
c-10 -34.667 -32 -52 -66 -52h-240l-322 1037h248c22 0 40.5 -5.16699 55.5 -15.5s25.167 -23.166 30.5 -38.499l104 -465c8.66699 -35.333 16.334 -69.5 23.001 -102.5s12.667 -66.167 18 -99.5c8.66699 33.333 17.834 66.5 27.501 99.5l31.5 102.5l130 466
c5.33301 15.333 15.333 28.166 30 38.499s32 15.5 52 15.5h138c22 0 40.5 -5.16699 55.5 -15.5s25.167 -23.166 30.5 -38.499l124 -466l29.5 -103c9.66699 -33.333 18.5 -67 26.5 -101c5.33301 33.333 11.666 66.666 18.999 99.999s15.666 68 24.999 104l110 465
c5.33301 15.333 15.333 28.166 30 38.499s32 15.5 52 15.5h236z" />
    <glyph glyph-name="x" unicode="x" horiz-adv-x="1088" 
d="M1097 0l-297.998 -0.00292969c-22 0 -39.833 5.33301 -53.5 16s-24.5 23.334 -32.5 38.001l-185 318c-3.33301 -11.333 -7.33301 -22 -12 -32s-9.66699 -19.333 -15 -28l-152 -258c-9.33301 -13.333 -20.333 -25.666 -33 -36.999s-29 -17 -49 -17h-276l348 536l-334 501
h298c22 0 38.167 -2.83301 48.5 -8.5s19.5 -15.167 27.5 -28.5l185 -307c4 12 9 23.833 15 35.5s12.667 23.5 20 35.5l132 231c9.33301 14.667 19.166 25.334 29.499 32.001s23.166 10 38.499 10h284l-334 -487z" />
    <glyph glyph-name="y" unicode="y" horiz-adv-x="1076" 
d="M1090 1037l-554.002 -1306c-9.33301 -20.667 -20.666 -35.834 -33.999 -45.501s-34.666 -14.5 -63.999 -14.5h-232l200 420l-414 946h274c24 0 42.5 -5.33301 55.5 -16s22.5 -23.334 28.5 -38.001l170 -447c16 -40.667 29 -82.334 39 -125.001l22 64
c7.33301 21.333 15 42.333 23 63l154 445c6 15.333 16.667 28.166 32 38.499s32 15.5 50 15.5h250z" />
    <glyph glyph-name="z" unicode="z" horiz-adv-x="932" 
d="M876 913c0 -21.333 -3.66699 -42 -11 -62s-17 -36.333 -29 -49l-433 -572h463v-230h-820v126c0 12.667 3.33301 28.667 10 48s16.667 37.333 30 54l437 579h-449v230h802v-124z" />
    <glyph glyph-name="braceleft" unicode="{" horiz-adv-x="621" 
d="M572 1423c0 -10.667 -2.33301 -19.6641 -7 -26.9971s-10.334 -13.333 -17.001 -18s-13.667 -8.16699 -21 -10.5s-13.666 -3.5 -18.999 -3.5c-42 0 -72.833 -13 -92.5 -39s-29.5 -62 -29.5 -108c0 -36.667 1.5 -71.334 4.5 -104.001s6.16699 -64.167 9.5 -94.5l9.5 -89.5
c3 -29.333 4.5 -59 4.5 -89c0 -25.333 -3.33301 -49.666 -10 -72.999s-16.834 -44.833 -30.501 -64.5s-30.5 -36.834 -50.5 -51.501s-43 -26 -69 -34c26 -8 49 -19.5 69 -34.5s36.833 -32.333 50.5 -52s23.834 -41.334 30.501 -65.001s10 -47.834 10 -72.501
c0 -30 -1.5 -59.667 -4.5 -89l-9.5 -89.5c-3.33301 -30.333 -6.5 -61.833 -9.5 -94.5s-4.5 -67.334 -4.5 -104.001c0 -46 9.83301 -82 29.5 -108s50.5 -39 92.5 -39c5.33301 0 11.666 -1.16699 18.999 -3.5s14.333 -5.83301 21 -10.5s12.334 -10.667 17.001 -18
s7 -16.333 7 -27v-134h-52c-70.667 0 -131.334 8.5 -182.001 25.5s-92.5 41.333 -125.5 73s-57.333 69.5 -73 113.5s-23.5 93 -23.5 147c0 30.667 1.83301 61.334 5.5 92.001s7.83398 61 12.501 91s8.83398 60 12.501 90s5.5 59.667 5.5 89c0 40 -7.66699 72.167 -23 96.5
s-43 36.5 -83 36.5v173c20 0 36.833 3.33301 50.5 10s24.5 15.834 32.5 27.501s13.833 25.667 17.5 42s5.5 34.166 5.5 53.499c0 29.333 -1.83301 59 -5.5 89s-7.83398 60 -12.501 90s-8.83398 60.333 -12.501 91s-5.5 61.334 -5.5 92.001c0 54 7.83301 103.167 23.5 147.5
s40 82.166 73 113.499s74.833 55.5 125.5 72.5s111.334 25.5 182.001 25.5h52v-134z" />
    <glyph glyph-name="bar" unicode="|" horiz-adv-x="540" 
d="M150 1557h240v-1897h-240v1897z" />
    <glyph glyph-name="braceright" unicode="}" horiz-adv-x="621" 
d="M575 530c-40 0 -67.667 -12.1699 -83 -36.5029s-23 -56.5 -23 -96.5c0 -29.333 1.83301 -59 5.5 -89s7.83398 -60 12.501 -90s8.83398 -60.333 12.501 -91s5.5 -61.334 5.5 -92.001c0 -54 -7.83301 -103 -23.5 -147s-40 -81.833 -73 -113.5s-74.833 -56 -125.5 -73
s-111.334 -25.5 -182.001 -25.5h-52v134c0 10.667 2.33301 19.667 7 27s10.334 13.333 17.001 18s13.667 8.16699 21 10.5s13.666 3.5 18.999 3.5c42 0 72.833 13 92.5 39s29.5 62 29.5 108c0 36.667 -1.5 71.334 -4.5 104.001s-6.16699 64.167 -9.5 94.5l-9.5 89.5
c-3 29.333 -4.5 59 -4.5 89c0 24.667 3.33301 48.834 10 72.501s16.834 45.334 30.501 65.001s30.5 37 50.5 52s43 26.5 69 34.5c-26 8 -49 19.333 -69 34s-36.833 31.834 -50.5 51.501s-23.834 41.167 -30.501 64.5s-10 47.666 -10 72.999c0 30 1.5 59.667 4.5 89l9.5 89.5
c3.33301 30.333 6.5 61.833 9.5 94.5s4.5 67.334 4.5 104.001c0 46 -9.83301 82 -29.5 108s-50.5 39 -92.5 39c-5.33301 0 -11.666 1.16699 -18.999 3.5s-14.333 5.83301 -21 10.5s-12.334 10.667 -17.001 18s-7 16.333 -7 27v134h52c70.667 0 131.334 -8.5 182.001 -25.5
s92.5 -41.167 125.5 -72.5s57.333 -69.166 73 -113.499s23.5 -93.5 23.5 -147.5c0 -30.667 -1.83301 -61.334 -5.5 -92.001s-7.83398 -61 -12.501 -91s-8.83398 -60 -12.501 -90s-5.5 -59.667 -5.5 -89c0 -19.333 1.83301 -37.166 5.5 -53.499s9.5 -30.333 17.5 -42
s18.833 -20.834 32.5 -27.501s30.5 -10 50.5 -10v-173z" />
    <glyph glyph-name="asciitilde" unicode="~" horiz-adv-x="1160" 
d="M733 677c32 0 56.667 10.333 74 31s26 51 26 91h250c0 -56.667 -7.5 -107.667 -22.5 -153s-36.5 -83.833 -64.5 -115.5s-62.5 -56 -103.5 -73s-87.5 -25.5 -139.5 -25.5c-35.333 0 -68.5 3.83301 -99.5 11.5s-59.833 16.334 -86.5 26.001l-73.5 26
c-22.333 7.66699 -42.5 11.5 -60.5 11.5c-32 0 -56.667 -10.333 -74 -31s-26 -51 -26 -91h-250c0 56.667 7.5 107.667 22.5 153s36.5 83.833 64.5 115.5s62.5 56 103.5 73s87.5 25.5 139.5 25.5c35.333 0 68.5 -3.83301 99.5 -11.5s59.833 -16.334 86.5 -26.001l73.5 -26
c22.333 -7.66699 42.5 -11.5 60.5 -11.5z" />
    <glyph glyph-name="uni0400" unicode="&#x400;" horiz-adv-x="1146" 
d="M481 1197v-340h458v-250h-458v-347h598v-260h-938v1457h938v-260h-598zM476 1867c15.333 0 28.667 -0.5 40 -1.5s21.5 -3 30.5 -6s17.333 -7.5 25 -13.5s15.834 -14.333 24.501 -25l209 -270h-226c-12 0 -22.333 0.166992 -31 0.5s-16.834 1.5 -24.501 3.5
s-15 4.83301 -22 8.5s-14.5 9.16699 -22.5 16.5l-325 287h322z" />
    <glyph glyph-name="afii10023" unicode="&#x401;" horiz-adv-x="1146" 
d="M481 1197v-340h458v-250h-458v-347h598v-260h-938v1457h938v-260h-598zM553 1668c0 -21.333 -4.16699 -41 -12.5 -59s-19.833 -33.833 -34.5 -47.5s-31.667 -24.334 -51 -32.001s-40 -11.5 -62 -11.5c-20 0 -39.167 3.83301 -57.5 11.5s-34.5 18.334 -48.5 32.001
s-25.167 29.5 -33.5 47.5s-12.5 37.667 -12.5 59c0 20.667 4.16699 40.334 12.5 59.001s19.5 35 33.5 49s30.167 25 48.5 33s37.5 12 57.5 12c22 0 42.667 -4 62 -12s36.333 -19 51 -33s26.167 -30.333 34.5 -49s12.5 -38.334 12.5 -59.001zM1013 1668
c0 -21.333 -4.16699 -41 -12.5 -59s-19.5 -33.833 -33.5 -47.5s-30.5 -24.334 -49.5 -32.001s-39.167 -11.5 -60.5 -11.5s-41.5 3.83301 -60.5 11.5s-35.5 18.334 -49.5 32.001s-25.167 29.5 -33.5 47.5s-12.5 37.667 -12.5 59c0 20.667 4.16699 40.334 12.5 59.001
s19.5 35 33.5 49s30.5 25 49.5 33s39.167 12 60.5 12s41.5 -4 60.5 -12s35.5 -19 49.5 -33s25.167 -30.333 33.5 -49s12.5 -38.334 12.5 -59.001z" />
    <glyph glyph-name="afii10051" unicode="&#x402;" horiz-adv-x="1527" 
d="M966 874c100.667 0 186.167 -11 256.5 -33s127.5 -51.5 171.5 -88.5s76 -80 96 -129s30 -100.5 30 -154.5c0 -70 -12.5 -133.833 -37.5 -191.5s-61.167 -107 -108.5 -148s-105.333 -72.833 -174 -95.5s-146.667 -34 -234 -34h-78v255h78c44.667 0 81.334 5 110.001 15
s51.167 23.5 67.5 40.5s27.5 36.167 33.5 57.5s9 43.666 9 66.999c0 26.667 -3 51.334 -9 74.001s-17.167 42.167 -33.5 58.5s-38.833 29 -67.5 38s-65.334 13.5 -110.001 13.5h-236v-619h-338v1199h-364v258h1088v-258h-386v-325h236z" />
    <glyph glyph-name="afii10052" unicode="&#x403;" horiz-adv-x="1089" 
d="M1059 1206h-578v-1206h-340v1457h918v-251zM1077 1867l-323 -285c-8 -7.33301 -15.667 -13 -23 -17s-15 -7 -23 -9s-16.5 -3.33301 -25.5 -4s-19.167 -1 -30.5 -1h-226l189 270c8 10.667 15.833 19.167 23.5 25.5s16 11 25 14s19.333 4.83301 31 5.5s25.167 1 40.5 1h342
z" />
    <glyph glyph-name="afii10053" unicode="&#x404;" horiz-adv-x="1323" 
d="M1123 377c8 0 16.0049 -1.5 24.0049 -4.5s15.667 -8.16699 23 -15.5l134 -141c-58.667 -76.667 -132.167 -134.5 -220.5 -173.5s-192.833 -58.5 -313.5 -58.5c-110.667 0 -209.834 18.833 -297.501 56.5s-162 89.667 -223 156s-107.833 145 -140.5 236
s-49 189.833 -49 296.5c0 108.667 17.667 208.5 53 299.5s85 169.5 149 235.5s140.667 117.333 230 154s187.666 55 294.999 55c54.667 0 106.167 -4.83301 154.5 -14.5s93.5 -23 135.5 -40s80.667 -37.5 116 -61.5s66.666 -50 93.999 -78l-114 -153
c-7.33301 -9.33301 -16 -17.833 -26 -25.5s-24 -11.5 -42 -11.5c-12 0 -23.333 2.66699 -34 8s-22 11.833 -34 19.5l-39.5 25c-14.333 9 -31.333 17.333 -51 25s-42.667 14.167 -69 19.5s-57.166 8 -92.499 8c-47.333 0 -91.333 -7.5 -132 -22.5
s-76.834 -36.667 -108.501 -65s-58.334 -63.333 -80.001 -105s-37.5 -89.5 -47.5 -143.5h616v-242h-618c10 -57.333 26.5 -108 49.5 -152s51.167 -81 84.5 -111s70.666 -52.667 111.999 -68s85 -23 131 -23c30.667 0 58.667 1.5 84 4.5s49 8 71 15s42.667 16.333 62 28
s39 26.5 59 44.5c8 6.66699 16.667 12.167 26 16.5s19 6.5 29 6.5z" />
    <glyph glyph-name="afii10054" unicode="&#x405;" horiz-adv-x="1108" 
d="M946 1161c-10 -16 -20.4961 -28.001 -31.4961 -36.001s-25.167 -12 -42.5 -12c-15.333 0 -31.833 4.83301 -49.5 14.5l-60 32.5c-22.333 12 -47.833 22.833 -76.5 32.5s-61.334 14.5 -98.001 14.5c-63.333 0 -110.5 -13.5 -141.5 -40.5s-46.5 -63.5 -46.5 -109.5
c0 -29.333 9.33301 -53.666 28 -72.999s43.167 -36 73.5 -50s65 -26.833 104 -38.5s78.833 -24.667 119.5 -39s80.5 -31.166 119.5 -50.499s73.667 -44 104 -74s54.833 -66.5 73.5 -109.5s28 -94.833 28 -155.5c0 -67.333 -11.667 -130.333 -35 -189
s-57.166 -109.834 -101.499 -153.501s-99 -78 -164 -103s-138.833 -37.5 -221.5 -37.5c-45.333 0 -91.5 4.66699 -138.5 14s-92.5 22.5 -136.5 39.5s-85.333 37.167 -124 60.5s-72.334 49.333 -101.001 78l100 158c8 11.333 18.5 20.833 31.5 28.5s27.167 11.5 42.5 11.5
c20 0 40.167 -6.33301 60.5 -19l69 -42c25.667 -15.333 55.167 -29.333 88.5 -42s72.666 -19 117.999 -19c61.333 0 109 13.5 143 40.5s51 69.833 51 128.5c0 34 -9.33301 61.667 -28 83s-43.167 39 -73.5 53s-64.833 26.333 -103.5 37s-78.334 22.5 -119.001 35.5
s-80.334 29 -119.001 48s-73.167 44 -103.5 75s-54.833 69.667 -73.5 116s-28 103.5 -28 171.5c0 54.667 11 108 33 160s54.333 98.333 97 139s95 73.167 157 97.5s133 36.5 213 36.5c44.667 0 88.167 -3.5 130.5 -10.5s82.5 -17.333 120.5 -31s73.5 -30 106.5 -49
s62.5 -40.5 88.5 -64.5z" />
    <glyph glyph-name="afii10055" unicode="&#x406;" horiz-adv-x="622" 
d="M481 0h-340v1457h340v-1457z" />
    <glyph glyph-name="afii10056" unicode="&#x407;" horiz-adv-x="622" 
d="M481 0h-340v1457h340v-1457zM241 1668c0 -21.333 -4.16699 -41 -12.5 -59s-19.833 -33.833 -34.5 -47.5s-31.667 -24.334 -51 -32.001s-40 -11.5 -62 -11.5c-20 0 -39.167 3.83301 -57.5 11.5s-34.5 18.334 -48.5 32.001s-25.167 29.5 -33.5 47.5s-12.5 37.667 -12.5 59
c0 20.667 4.16699 40.334 12.5 59.001s19.5 35 33.5 49s30.167 25 48.5 33s37.5 12 57.5 12c22 0 42.667 -4 62 -12s36.333 -19 51 -33s26.167 -30.333 34.5 -49s12.5 -38.334 12.5 -59.001zM701 1668c0 -21.333 -4.16699 -41 -12.5 -59s-19.5 -33.833 -33.5 -47.5
s-30.5 -24.334 -49.5 -32.001s-39.167 -11.5 -60.5 -11.5s-41.5 3.83301 -60.5 11.5s-35.5 18.334 -49.5 32.001s-25.167 29.5 -33.5 47.5s-12.5 37.667 -12.5 59c0 20.667 4.16699 40.334 12.5 59.001s19.5 35 33.5 49s30.5 25 49.5 33s39.167 12 60.5 12s41.5 -4 60.5 -12
s35.5 -19 49.5 -33s25.167 -30.333 33.5 -49s12.5 -38.334 12.5 -59.001z" />
    <glyph glyph-name="afii10057" unicode="&#x408;" horiz-adv-x="871" 
d="M744 528c0 -81.333 -10.167 -155.332 -30.5 -221.999s-51 -123.834 -92 -171.501s-92.5 -84.667 -154.5 -111s-135 -39.5 -219 -39.5c-38 0 -75.5 2 -112.5 6s-75.5 10.667 -115.5 20l18 197c2 17.333 9 31.333 21 42s29 16 51 16c11.333 0 25.333 -1.83301 42 -5.5
s36.667 -5.5 60 -5.5c32.667 0 61.167 4.5 85.5 13.5s44.5 24 60.5 45s28 48.5 36 82.5s12 76 12 126v936h338v-929z" />
    <glyph glyph-name="afii10058" unicode="&#x409;" horiz-adv-x="2156" 
d="M1576 255c44.667 0 81.334 5 110.001 15s51.167 23.5 67.5 40.5s27.5 36.167 33.5 57.5s9 43.666 9 66.999c0 26.667 -3 51.334 -9 74.001s-17.167 42.167 -33.5 58.5s-38.833 29 -67.5 38s-65.334 13.5 -110.001 13.5h-196v-364h196zM1576 874
c100.667 0 186.168 -10.999 256.501 -32.999s127.5 -51.5 171.5 -88.5s76 -80 96 -129s30 -100.5 30 -154.5c0 -70 -12.5 -133.833 -37.5 -191.5s-61.167 -107 -108.5 -148s-105.333 -72.833 -174 -95.5s-146.667 -34 -234 -34h-536v1206h-322
c-10 -178.667 -24 -332.834 -42 -462.501s-39.667 -239.834 -65 -330.501s-54 -164 -86 -220s-67 -99.5 -105 -130.5s-78.833 -51.833 -122.5 -62.5s-89.5 -16 -137.5 -16c-58.667 0 -100.334 5.16699 -125.001 15.5s-37 25.5 -37 45.5v205h84c14.667 0 30 1.33301 46 4
s32.333 9.66699 49 21s33.167 28 49.5 50s32 52.667 47 92s29.333 88.333 43 147s26 129.834 37 213.501s20.5 181.5 28.5 293.5s13.667 240.667 17 386h981v-583h196z" />
    <glyph glyph-name="afii10059" unicode="&#x40a;" horiz-adv-x="2189" 
d="M1609 255c44.667 0 81.334 5 110.001 15s51.167 23.5 67.5 40.5s27.5 36.167 33.5 57.5s9 43.666 9 66.999c0 26.667 -3 51.334 -9 74.001s-17.167 42.167 -33.5 58.5s-38.833 29 -67.5 38s-65.334 13.5 -110.001 13.5h-196v-364h196zM1609 874
c100.667 0 186.167 -11 256.5 -33s127.5 -51.5 171.5 -88.5s76 -80 96 -129s30 -100.5 30 -154.5c0 -70 -12.5 -133.833 -37.5 -191.5s-61.167 -107 -108.5 -148s-105.333 -72.833 -174 -95.5s-146.667 -34 -234 -34h-536v616h-592v-616h-340v1457h340v-609h592v609h340
v-583h196z" />
    <glyph glyph-name="afii10060" unicode="&#x40b;" horiz-adv-x="1535" 
d="M730 866c116 26.667 220.333 41.335 313 44.002s171.5 -11.5 236.5 -42.5s115 -81 150 -150s52.5 -162.167 52.5 -279.5v-439h-340v440c0 31.333 -1 59.833 -3 85.5s-7.33301 48.167 -16 67.5s-21.667 35.166 -39 47.499s-41.333 20.5 -72 24.5s-69 3.66699 -115 -1
s-101.667 -14.334 -167 -29.001v-634h-338v1199h-364v258h1088v-258h-386v-333z" />
    <glyph glyph-name="afii10061" unicode="&#x40c;" horiz-adv-x="1438" 
d="M1445 0l-308.997 0.000976562c-30 0 -55.333 8 -76 24s-39.667 39 -57 69l-242 455c-16 29.333 -34 48.666 -54 57.999s-45.333 14 -76 14h-152v-620h-338v1457h338v-590h124c25.333 0 47.166 4.66699 65.499 14s35.166 26.333 50.499 51l264 439
c15.333 25.333 34 46 56 62s48.667 24 80 24h290l-355 -573c-16.667 -26.667 -36.667 -48.667 -60 -66s-49 -31.666 -77 -42.999c44.667 -12 82.667 -31.833 114 -59.5s60.666 -65.834 87.999 -114.501zM1211 1867l-323 -285c-8 -7.33301 -15.667 -13 -23 -17s-15 -7 -23 -9
s-16.5 -3.33301 -25.5 -4s-19.167 -1 -30.5 -1h-226l189 270c8 10.667 15.833 19.167 23.5 25.5s16 11 25 14s19.333 4.83301 31 5.5s25.167 1 40.5 1h342z" />
    <glyph glyph-name="uni040D" unicode="&#x40d;" horiz-adv-x="1554" 
d="M1413 1457v-1457h-340v816c0 38 1.16699 78.167 3.5 120.5s6.83301 87.5 13.5 135.5c-15.333 -42.667 -32 -82.167 -50 -118.5s-35.667 -68.166 -53 -95.499l-443 -757c-7.33301 -12 -16.166 -24 -26.499 -36s-21.833 -22.833 -34.5 -32.5s-26.334 -17.5 -41.001 -23.5
s-30 -9 -46 -9h-255v1457h340v-815c0 -38 -1 -78.167 -3 -120.5s-6.66699 -87.5 -14 -135.5c15.333 42 32 81.167 50 117.5s35.667 68.166 53 95.499l443 757c7.33301 12 16.166 24 26.499 36s21.833 22.833 34.5 32.5s26.334 17.5 41.001 23.5s30 9 46 9h255zM645 1867
c15.333 0 28.667 -0.5 40 -1.5s21.5 -3 30.5 -6s17.333 -7.5 25 -13.5s15.834 -14.333 24.501 -25l209 -270h-226c-12 0 -22.333 0.166992 -31 0.5s-16.834 1.5 -24.501 3.5s-15 4.83301 -22 8.5s-14.5 9.16699 -22.5 16.5l-325 287h322z" />
    <glyph glyph-name="afii10062" unicode="&#x40e;" horiz-adv-x="1324" 
d="M1360 1457l-585.999 -1245c-22.667 -46.667 -47 -84.667 -73 -114s-53.833 -52.5 -83.5 -69.5s-61.167 -28.667 -94.5 -35s-69 -9.5 -107 -9.5c-58.667 0 -100.334 5.16699 -125.001 15.5s-37 25.5 -37 45.5v205h84c12.667 0 26.167 1 40.5 3s28.833 6.5 43.5 13.5
s29.167 17.333 43.5 31s27.5 32.167 39.5 55.5l46 90l-585 1014h318c29.333 0 52.5 -6.83301 69.5 -20.5s31.167 -31.167 42.5 -52.5l216 -434c18 -32.667 34 -65.334 48 -98.001s26.333 -65.667 37 -99c10 33.333 21.667 66.333 35 99s28 65.334 44 98.001l194 434
c4 8.66699 9.5 17.334 16.5 26.001s15 16.5 24 23.5s19.333 12.667 31 17s24.5 6.5 38.5 6.5h280zM696.001 1684c22.667 0 41.3389 1.83301 56.0059 5.5s26.167 10.834 34.5 21.501s14 25.167 17 43.5s4.5 42.166 4.5 71.499h184c10.667 0 19.834 -2.5 27.501 -7.5
s14 -11.333 19 -19s8.83301 -16.5 11.5 -26.5s4 -20 4 -30c0 -34.667 -8.83301 -65 -26.5 -91s-42.334 -47.833 -74.001 -65.5s-69.334 -30.834 -113.001 -39.501s-91.834 -13 -144.501 -13s-100.834 4.33301 -144.501 13s-81.334 21.834 -113.001 39.501
s-56.334 39.5 -74.001 65.5s-26.5 56.333 -26.5 91c0 10 1.33301 20 4 30s6.5 18.833 11.5 26.5s11.333 14 19 19s16.834 7.5 27.501 7.5h184c0 -29.333 1.5 -53.166 4.5 -71.499s8.66699 -32.833 17 -43.5s19.666 -17.834 33.999 -21.501s33.166 -5.5 56.499 -5.5z" />
    <glyph glyph-name="afii10145" unicode="&#x40f;" horiz-adv-x="1509" 
d="M1368 1457v-1457h-459v-248c0 -28 -9.83301 -50.333 -29.5 -67s-45.167 -25 -76.5 -25h-204v340h-458v1457h340v-1206h547v1206h340z" />
    <glyph glyph-name="afii10017" unicode="&#x410;" horiz-adv-x="1414" 
d="M907 557l-135.001 399.002c-10 25.333 -20.667 55.166 -32 89.499s-22.666 71.5 -33.999 111.5c-10 -40.667 -20.667 -78.334 -32 -113.001s-22 -64.667 -32 -90l-134 -397h399zM1444 0.00195312h-262c-29.333 0 -53 6.83301 -71 20.5s-31.667 31.167 -41 52.5l-86 254
h-554l-86 -254c-7.33301 -18.667 -20.5 -35.5 -39.5 -50.5s-42.5 -22.5 -70.5 -22.5h-264l564 1457h346z" />
    <glyph glyph-name="afii10018" unicode="&#x411;" horiz-adv-x="1277" 
d="M675 255c44.667 0 81.334 5 110.001 15s51.167 23.5 67.5 40.5s27.5 36.167 33.5 57.5s9 43.666 9 66.999c0 26.667 -3 51.334 -9 74.001s-17.167 42.167 -33.5 58.5s-38.833 29 -67.5 38s-65.334 13.5 -110.001 13.5h-196v-364h196zM675 874
c100.667 0 186.167 -11 256.5 -33s127.5 -51.5 171.5 -88.5s76 -80 96 -129s30 -100.5 30 -154.5c0 -70 -12.5 -133.833 -37.5 -191.5s-61.167 -107 -108.5 -148s-105.333 -72.833 -174 -95.5s-146.667 -34 -234 -34h-534v1457h1032v-253h-694v-330h196z" />
    <glyph glyph-name="afii10019" unicode="&#x412;" horiz-adv-x="1339" 
d="M717 255c44.667 0 81.167 5.66699 109.5 17s50.5 26 66.5 44s27 38.333 33 61s9 45.667 9 69c0 26.667 -3.5 50.667 -10.5 72s-19 39.333 -36 54s-39.5 26 -67.5 34s-63.333 12 -106 12h-236v-363h238zM479 1204v-359.997h176c37.333 0 71 2.66699 101 8
s55.5 14.666 76.5 27.999s37 31.666 48 54.999s16.5 52.666 16.5 87.999c0 34.667 -4.33301 63.5 -13 86.5s-22 41.5 -40 55.5s-40.833 24 -68.5 30s-60.5 9 -98.5 9h-198zM677 1457c100.667 0 186.332 -9.33398 256.999 -28.001s128.334 -45 173.001 -79
s77.167 -75.333 97.5 -124s30.5 -103 30.5 -163c0 -32.667 -4.66699 -64.167 -14 -94.5s-24 -58.666 -44 -84.999s-45.667 -50.5 -77 -72.5s-69 -41 -113 -57c96 -23.333 167 -61 213 -113s69 -119.333 69 -202c0 -62 -12 -119.667 -36 -173s-59.167 -99.833 -105.5 -139.5
s-103.5 -70.667 -171.5 -93s-145.667 -33.5 -233 -33.5h-582v1457h536z" />
    <glyph glyph-name="afii10020" unicode="&#x413;" horiz-adv-x="1089" 
d="M1059 1206h-578v-1206h-340v1457h918v-251z" />
    <glyph glyph-name="afii10021" unicode="&#x414;" horiz-adv-x="1657" 
d="M1056 251v955.001h-322c-8 -126 -18.333 -239 -31 -339s-27.334 -188.667 -44.001 -266s-35.167 -144.833 -55.5 -202.5s-42.166 -106.834 -65.499 -147.501h518zM1612 251.001l0.000976562 -499.001c0 -28 -9.83301 -50.333 -29.5 -67s-45.167 -25 -76.5 -25h-204v340
h-978v-248c0 -28 -9.83301 -50.333 -29.5 -67s-45.167 -25 -76.5 -25h-204v591h164c16.667 10 33.667 25.833 51 47.5s34.166 51.834 50.499 90.501s31.833 87.667 46.5 147s28 132 40 218s22.167 186.833 30.5 302.5s14.5 249.167 18.5 400.5h981v-1206h216z" />
    <glyph glyph-name="afii10022" unicode="&#x415;" horiz-adv-x="1146" 
d="M481 1197v-340h458v-250h-458v-347h598v-260h-938v1457h938v-260h-598z" />
    <glyph glyph-name="afii10024" unicode="&#x416;" horiz-adv-x="2189" 
d="M2201 0h-225.99c-48.667 0 -90.334 10.167 -125.001 30.5s-62.334 47.833 -83.001 82.5l-234 425c-17.333 31.333 -36.833 52.833 -58.5 64.5s-48.167 17.5 -79.5 17.5h-142v-620h-318v620h-141c-31.333 0 -57.833 -5.83301 -79.5 -17.5s-41.167 -33.167 -58.5 -64.5
l-234 -425c-20.667 -34.667 -48.334 -62.167 -83.001 -82.5s-76.334 -30.5 -125.001 -30.5h-226l334 607c26 45.333 54.167 81.333 84.5 108s64.833 47 103.5 61c-31.333 12.667 -57.833 30 -79.5 52s-42.834 49.333 -63.501 82l-332 547h268
c34 0 65.167 -7.83301 93.5 -23.5s51.166 -38.167 68.499 -67.5l237 -428c16 -28.667 33.667 -47.667 53 -57s41.666 -14 66.999 -14h113v590h318v-590h114c25.333 0 47.666 4.66699 66.999 14s37 28.333 53 57l237 428c17.333 29.333 40.166 51.833 68.499 67.5
s59.5 23.5 93.5 23.5h268l-332 -547c-20.667 -32.667 -41.834 -60 -63.501 -82s-48.167 -39.333 -79.5 -52c38.667 -14 73.167 -34.333 103.5 -61s58.5 -62.667 84.5 -108z" />
    <glyph glyph-name="afii10025" unicode="&#x417;" horiz-adv-x="1174" 
d="M58 1318c56.667 48 126.501 85.833 209.501 113.5s172.833 41.5 269.5 41.5c82 0 156.167 -9.5 222.5 -28.5s122.833 -45.5 169.5 -79.5s82.5 -74.833 107.5 -122.5s37.5 -100.167 37.5 -157.5c0 -65.333 -14.167 -125.833 -42.5 -181.5
s-72.833 -101.834 -133.5 -138.501c30.667 -16 59 -34.5 85 -55.5s48.167 -44 66.5 -69s32.666 -52 42.999 -81s15.5 -59.833 15.5 -92.5c0 -67.333 -12.5 -130.166 -37.5 -188.499s-61.5 -109.166 -109.5 -152.499s-107 -77.5 -177 -102.5s-150 -37.5 -240 -37.5
c-50 0 -100.333 4.66699 -151 14s-99.5 22.5 -146.5 39.5s-91 37.167 -132 60.5s-77.167 49.333 -108.5 78l100 158c8 11.333 18.5 20.833 31.5 28.5s27.167 11.5 42.5 11.5c20.667 0 42 -6.33301 64 -19l75.5 -42c28.333 -15.333 61.5 -29.333 99.5 -42s83 -19 135 -19
c37.333 0 70.666 3.5 99.999 10.5s54.166 18.5 74.499 34.5s35.833 36.667 46.5 62s16 56.333 16 93c0 28.667 -6.16699 54 -18.5 76s-29.666 40.5 -51.999 55.5s-49 26.167 -80 33.5s-65.167 10.666 -102.5 9.99902h-212l-1 262h185c84 0 146.333 14.167 187 42.5
s61 69.5 61 123.5c0 46 -18.667 82.5 -56 109.5s-93.333 40.5 -168 40.5c-43.333 0 -81.166 -4.83301 -113.499 -14.5s-61 -20.5 -86 -32.5l-66 -32.5c-19 -9.66699 -36.5 -14.5 -52.5 -14.5c-17.333 0 -31.5 4 -42.5 12s-21.5 20 -31.5 36z" />
    <glyph glyph-name="afii10026" unicode="&#x418;" horiz-adv-x="1554" 
d="M1413 1457v-1457h-340v816c0 38 1.16699 78.167 3.5 120.5s6.83301 87.5 13.5 135.5c-15.333 -42.667 -32 -82.167 -50 -118.5s-35.667 -68.166 -53 -95.499l-443 -757c-7.33301 -12 -16.166 -24 -26.499 -36s-21.833 -22.833 -34.5 -32.5s-26.334 -17.5 -41.001 -23.5
s-30 -9 -46 -9h-255v1457h340v-815c0 -38 -1 -78.167 -3 -120.5s-6.66699 -87.5 -14 -135.5c15.333 42 32 81.167 50 117.5s35.667 68.166 53 95.499l443 757c7.33301 12 16.166 24 26.499 36s21.833 22.833 34.5 32.5s26.334 17.5 41.001 23.5s30 9 46 9h255z" />
    <glyph glyph-name="afii10027" unicode="&#x419;" horiz-adv-x="1554" 
d="M1413 1457v-1457h-340v816c0 38 1.16699 78.167 3.5 120.5s6.83301 87.5 13.5 135.5c-15.333 -42.667 -32 -82.167 -50 -118.5s-35.667 -68.166 -53 -95.499l-443 -757c-7.33301 -12 -16.166 -24 -26.499 -36s-21.833 -22.833 -34.5 -32.5s-26.334 -17.5 -41.001 -23.5
s-30 -9 -46 -9h-255v1457h340v-815c0 -38 -1 -78.167 -3 -120.5s-6.66699 -87.5 -14 -135.5c15.333 42 32 81.167 50 117.5s35.667 68.166 53 95.499l443 757c7.33301 12 16.166 24 26.499 36s21.833 22.833 34.5 32.5s26.334 17.5 41.001 23.5s30 9 46 9h255zM796 1684
c22.667 0 41.3389 1.83301 56.0059 5.5s26.167 10.834 34.5 21.501s14 25.167 17 43.5s4.5 42.166 4.5 71.499h184c10.667 0 19.834 -2.5 27.501 -7.5s14 -11.333 19 -19s8.83301 -16.5 11.5 -26.5s4 -20 4 -30c0 -34.667 -8.83301 -65 -26.5 -91
s-42.334 -47.833 -74.001 -65.5s-69.334 -30.834 -113.001 -39.501s-91.834 -13 -144.501 -13s-100.834 4.33301 -144.501 13s-81.334 21.834 -113.001 39.501s-56.334 39.5 -74.001 65.5s-26.5 56.333 -26.5 91c0 10 1.33301 20 4 30s6.5 18.833 11.5 26.5s11.333 14 19 19
s16.834 7.5 27.501 7.5h184c0 -29.333 1.5 -53.166 4.5 -71.499s8.66699 -32.833 17 -43.5s19.666 -17.834 33.999 -21.501s33.166 -5.5 56.499 -5.5z" />
    <glyph glyph-name="afii10028" unicode="&#x41a;" horiz-adv-x="1438" 
d="M1445 0l-308.997 0.000976562c-30 0 -55.333 8 -76 24s-39.667 39 -57 69l-242 455c-16 29.333 -34 48.666 -54 57.999s-45.333 14 -76 14h-152v-620h-338v1457h338v-590h124c25.333 0 47.166 4.66699 65.499 14s35.166 26.333 50.499 51l264 439
c15.333 25.333 34 46 56 62s48.667 24 80 24h290l-355 -573c-16.667 -26.667 -36.667 -48.667 -60 -66s-49 -31.666 -77 -42.999c44.667 -12 82.667 -31.833 114 -59.5s60.666 -65.834 87.999 -114.501z" />
    <glyph glyph-name="afii10029" unicode="&#x41b;" horiz-adv-x="1521" 
d="M1380 0l-339.999 0.000976562v1206h-322c-10 -178.667 -24 -332.834 -42 -462.501s-39.667 -239.834 -65 -330.501s-54 -164 -86 -220s-67 -99.5 -105 -130.5s-78.833 -51.833 -122.5 -62.5s-89.5 -16 -137.5 -16c-58.667 0 -100.334 5.16699 -125.001 15.5
s-37 25.5 -37 45.5v205h84c14.667 0 30 1.33301 46 4s32.333 9.66699 49 21s33.167 28 49.5 50s32 52.667 47 92s29.333 88.333 43 147s26 129.834 37 213.501s20.5 181.5 28.5 293.5s13.667 240.667 17 386h981v-1457z" />
    <glyph glyph-name="afii10030" unicode="&#x41c;" horiz-adv-x="1920" 
d="M1779 1457l0.00292969 -1457h-298v838c0 19.333 0.5 40.333 1.5 63s2.83301 45.667 5.5 69l-387 -749c-12 -23.333 -28.167 -41 -48.5 -53s-43.5 -18 -69.5 -18h-46c-26 0 -49.167 6 -69.5 18s-36.5 29.667 -48.5 53l-387 751c2 -24 3.66699 -47.5 5 -70.5
s2 -44.167 2 -63.5v-838h-298v1457h258c14.667 0 27.5 -0.333008 38.5 -1s20.833 -2.66699 29.5 -6s16.5 -8.5 23.5 -15.5s13.833 -16.833 20.5 -29.5l375 -739c13.333 -25.333 26.166 -51.666 38.499 -78.999s24.166 -55.333 35.499 -84c11.333 29.333 23.166 58 35.499 86
s25.5 54.667 39.5 80l374 736c6.66699 12.667 13.5 22.5 20.5 29.5s14.833 12.167 23.5 15.5s18.5 5.33301 29.5 6s23.833 1 38.5 1h258z" />
    <glyph glyph-name="afii10031" unicode="&#x41d;" horiz-adv-x="1554" 
d="M1413 1457v-1457h-340v616h-592v-616h-340v1457h340v-609h592v609h340z" />
    <glyph glyph-name="afii10032" unicode="&#x41e;" horiz-adv-x="1629" 
d="M1571 729c0 -105.333 -18.167 -203.332 -54.5 -293.999s-87.5 -169.5 -153.5 -236.5s-145.5 -119.5 -238.5 -157.5s-196.167 -57 -309.5 -57s-216.666 19 -309.999 57s-173.166 90.5 -239.499 157.5s-117.666 145.833 -153.999 236.5s-54.5 188.667 -54.5 294
s18.167 203.333 54.5 294s87.666 169.334 153.999 236.001s146.166 119 239.499 157s196.666 57 309.999 57s216.5 -19.167 309.5 -57.5s172.5 -90.833 238.5 -157.5s117.167 -145.334 153.5 -236.001s54.5 -188.334 54.5 -293.001zM1225 729.001
c0 72 -9.33301 136.833 -28 194.5s-45.5 106.5 -80.5 146.5s-77.833 70.667 -128.5 92s-108.334 32 -173.001 32c-65.333 0 -123.5 -10.667 -174.5 -32s-94 -52 -129 -92s-61.833 -88.833 -80.5 -146.5s-28 -122.5 -28 -194.5c0 -72.667 9.33301 -137.834 28 -195.501
s45.5 -106.5 80.5 -146.5s78 -70.5 129 -91.5s109.167 -31.5 174.5 -31.5c64.667 0 122.334 10.5 173.001 31.5s93.5 51.5 128.5 91.5s61.833 88.833 80.5 146.5s28 122.834 28 195.501z" />
    <glyph glyph-name="afii10033" unicode="&#x41f;" horiz-adv-x="1509" 
d="M1368 0h-340v1206h-547v-1206h-340v1457h1227v-1457z" />
    <glyph glyph-name="afii10034" unicode="&#x420;" horiz-adv-x="1272" 
d="M655 742c88 0 151.333 21 190 63s58 100.667 58 176c0 33.333 -5 63.666 -15 90.999s-25.167 50.833 -45.5 70.5s-46 34.834 -77 45.501s-67.833 16 -110.5 16h-176v-462h176zM655 1457c102.667 0 190.832 -12.167 264.499 -36.5s134.334 -57.833 182.001 -100.5
s82.834 -93 105.501 -151s34 -120.667 34 -188c0 -72.667 -11.667 -139.334 -35 -200.001s-59 -112.667 -107 -156s-108.833 -77.166 -182.5 -101.499s-160.834 -36.5 -261.501 -36.5h-176v-487h-338v1457h514z" />
    <glyph glyph-name="afii10035" unicode="&#x421;" horiz-adv-x="1311" 
d="M1123 377c8 0 16.002 -1.49707 24.002 -4.49707s15.667 -8.16699 23 -15.5l134 -141c-58.667 -76.667 -132.167 -134.5 -220.5 -173.5s-192.833 -58.5 -313.5 -58.5c-110.667 0 -209.834 18.833 -297.501 56.5s-162 89.667 -223 156s-107.833 145 -140.5 236
s-49 189.833 -49 296.5c0 108.667 17.667 208.5 53 299.5s85 169.5 149 235.5s140.667 117.333 230 154s187.666 55 294.999 55c54.667 0 106.167 -4.83301 154.5 -14.5s93.5 -23 135.5 -40s80.667 -37.5 116 -61.5s66.666 -50 93.999 -78l-114 -153
c-7.33301 -9.33301 -16 -17.833 -26 -25.5s-24 -11.5 -42 -11.5c-12 0 -23.333 2.66699 -34 8s-22 11.833 -34 19.5l-39.5 25c-14.333 9 -31.333 17.333 -51 25s-42.667 14.167 -69 19.5s-57.166 8 -92.499 8c-56 0 -107.167 -10.333 -153.5 -31
s-86.333 -50.834 -120 -90.501s-59.667 -88.334 -78 -146.001s-27.5 -123.5 -27.5 -197.5c0 -74.667 10.167 -141 30.5 -199s48 -106.833 83 -146.5s75.833 -69.834 122.5 -90.501s96.667 -31 150 -31c30.667 0 58.667 1.5 84 4.5s49 8 71 15s42.667 16.333 62 28
s39 26.5 59 44.5c8 6.66699 16.667 12.167 26 16.5s19 6.5 29 6.5z" />
    <glyph glyph-name="afii10036" unicode="&#x422;" horiz-adv-x="1218" 
d="M1188 1189h-410v-1189h-338v1189h-410v268h1158v-268z" />
    <glyph glyph-name="afii10037" unicode="&#x423;" horiz-adv-x="1324" 
d="M1360 1457l-585.999 -1245c-22.667 -46.667 -47 -84.667 -73 -114s-53.833 -52.5 -83.5 -69.5s-61.167 -28.667 -94.5 -35s-69 -9.5 -107 -9.5c-58.667 0 -100.334 5.16699 -125.001 15.5s-37 25.5 -37 45.5v205h84c12.667 0 26.167 1 40.5 3s28.833 6.5 43.5 13.5
s29.167 17.333 43.5 31s27.5 32.167 39.5 55.5l46 90l-585 1014h318c29.333 0 52.5 -6.83301 69.5 -20.5s31.167 -31.167 42.5 -52.5l216 -434c18 -32.667 34 -65.334 48 -98.001s26.333 -65.667 37 -99c10 33.333 21.667 66.333 35 99s28 65.334 44 98.001l194 434
c4 8.66699 9.5 17.334 16.5 26.001s15 16.5 24 23.5s19.333 12.667 31 17s24.5 6.5 38.5 6.5h280z" />
    <glyph glyph-name="afii10038" unicode="&#x424;" horiz-adv-x="1649" 
d="M985 424c40.667 1.33301 78.167 10.833 112.5 28.5s64 41.5 89 71.5s44.5 65 58.5 105s21 83 21 129s-7 88.833 -21 128.5s-33.5 74.5 -58.5 104.5s-54.667 54 -89 72s-71.833 27.667 -112.5 29v-668zM665 1092c-41.333 -1.33301 -79.166 -11 -113.499 -29
s-63.833 -42 -88.5 -72s-44 -64.833 -58 -104.5s-21 -82.5 -21 -128.5s7 -89 21 -129s33.333 -75 58 -105s54.167 -53.833 88.5 -71.5s72.166 -27.167 113.499 -28.5v668zM985 1343c88 -3.33301 169.668 -20.833 245.001 -52.5s140.666 -73.834 195.999 -126.501
s98.666 -113.667 129.999 -183s47 -143.666 47 -222.999s-15.667 -153.833 -47 -223.5s-74.666 -130.834 -129.999 -183.501s-120.666 -94.834 -195.999 -126.501s-157 -49.167 -245 -52.5v-172h-320v172c-88 3.33301 -169.667 20.833 -245 52.5
s-140.833 73.834 -196.5 126.501s-99.167 113.834 -130.5 183.501s-47 144.167 -47 223.5s15.667 153.666 47 222.999s74.666 130.333 129.999 183s120.833 94.834 196.5 126.501s157.5 49.167 245.5 52.5v171h320v-171z" />
    <glyph glyph-name="afii10039" unicode="&#x425;" horiz-adv-x="1380" 
d="M1391 0l-337.996 -0.00195312c-22 0 -39.833 5.33301 -53.5 16s-24.5 23.334 -32.5 38.001l-292 510c-5.33301 -14.667 -11.333 -27.334 -18 -38.001l-272 -472c-9.33301 -13.333 -20.333 -25.666 -33 -36.999s-29 -17 -49 -17h-316l469 750l-451 707h338
c22 0 38.167 -2.83301 48.5 -8.5s19.5 -15.167 27.5 -28.5l290 -491c3.33301 8.66699 7.16602 17 11.499 25s9.16602 16.333 14.499 25l254 436c9.33301 14.667 19.166 25.334 29.499 32.001s23.166 10 38.499 10h324l-457 -693z" />
    <glyph glyph-name="afii10040" unicode="&#x426;" horiz-adv-x="1615" 
d="M1564 251v-499c0 -28 -9.83301 -50.333 -29.5 -67s-45.167 -25 -76.5 -25h-204v340h-1113v1457h340v-1206h547v1206h340v-1206h196z" />
    <glyph glyph-name="afii10041" unicode="&#x427;" horiz-adv-x="1379" 
d="M1238 1457l0.000976562 -1457h-340v547c-79.333 -18 -154.833 -31 -226.5 -39s-138.334 -9.33301 -200.001 -4s-117.5 18 -167.5 38s-92.667 48.833 -128 86.5s-62.5 84.834 -81.5 141.501s-28.5 124.334 -28.5 203.001v484h340v-485c0 -47.333 6.33301 -88.333 19 -123
s37 -61 73 -79s86 -26.667 150 -26s147.333 12.334 250 35.001v678h340z" />
    <glyph glyph-name="afii10042" unicode="&#x428;" horiz-adv-x="2186" 
d="M2045 1457v-1457h-1904v1457h340v-1206h442v1206h340v-1206h442v1206h340z" />
    <glyph glyph-name="afii10043" unicode="&#x429;" horiz-adv-x="2292" 
d="M2241 251v-499c0 -28 -9.83301 -50.333 -29.5 -67s-45.167 -25 -76.5 -25h-204v340h-1790v1457h340v-1206h442v1206h340v-1206h442v1206h340v-1206h196z" />
    <glyph glyph-name="afii10044" unicode="&#x42a;" horiz-adv-x="1548" 
d="M968 255c44.667 0 81.334 5 110.001 15s51.167 23.5 67.5 40.5s27.5 36.167 33.5 57.5s9 43.666 9 66.999c0 26.667 -3 51.334 -9 74.001s-17.167 42.167 -33.5 58.5s-38.833 29 -67.5 38s-65.334 13.5 -110.001 13.5h-196v-364h196zM968 874
c100.667 0 186.167 -11 256.5 -33s127.5 -51.5 171.5 -88.5s76 -80 96 -129s30 -100.5 30 -154.5c0 -70 -12.5 -133.833 -37.5 -191.5s-61.167 -107 -108.5 -148s-105.333 -72.833 -174 -95.5s-146.667 -34 -234 -34h-534v1197h-405v260h743v-583h196z" />
    <glyph glyph-name="afii10045" unicode="&#x42b;" horiz-adv-x="1874" 
d="M675 255c44.667 0 81.334 5 110.001 15s51.167 23.5 67.5 40.5s27.5 36.167 33.5 57.5s9 43.666 9 66.999c0 26.667 -3 51.334 -9 74.001s-17.167 42.167 -33.5 58.5s-38.833 29 -67.5 38s-65.334 13.5 -110.001 13.5h-196v-364h196zM675 874
c100.667 0 186.167 -11 256.5 -33s127.5 -51.5 171.5 -88.5s76 -80 96 -129s30 -100.5 30 -154.5c0 -70 -12.5 -133.833 -37.5 -191.5s-61.167 -107 -108.5 -148s-105.333 -72.833 -174 -95.5s-146.667 -34 -234 -34h-534v1457h338v-583h196zM1733 0h-340v1457h340v-1457z
" />
    <glyph glyph-name="afii10046" unicode="&#x42c;" horiz-adv-x="1255" 
d="M675 255c44.667 0 81.334 5 110.001 15s51.167 23.5 67.5 40.5s27.5 36.167 33.5 57.5s9 43.666 9 66.999c0 26.667 -3 51.334 -9 74.001s-17.167 42.167 -33.5 58.5s-38.833 29 -67.5 38s-65.334 13.5 -110.001 13.5h-196v-364h196zM675 874
c100.667 0 186.167 -11 256.5 -33s127.5 -51.5 171.5 -88.5s76 -80 96 -129s30 -100.5 30 -154.5c0 -70 -12.5 -133.833 -37.5 -191.5s-61.167 -107 -108.5 -148s-105.333 -72.833 -174 -95.5s-146.667 -34 -234 -34h-534v1457h338v-583h196z" />
    <glyph glyph-name="afii10047" unicode="&#x42d;" horiz-adv-x="1322" 
d="M36 1279c27.333 28 58.5059 53.998 93.5059 77.998s73.5 44.5 115.5 61.5s87.333 30.333 136 40s100.334 14.5 155.001 14.5c107.333 0 205.666 -18.333 294.999 -55s166 -88 230 -154s113.667 -144.5 149 -235.5s53 -190.833 53 -299.5
c0 -106.667 -16.333 -205.5 -49 -296.5s-79.5 -169.667 -140.5 -236s-135.333 -118.333 -223 -156s-186.834 -56.5 -297.501 -56.5c-120.667 0 -225.167 19.5 -313.5 58.5s-161.833 96.833 -220.5 173.5l134 141c7.33301 7.33301 15 12.5 23 15.5s16 4.5 24 4.5
c10 0 19.667 -2.16699 29 -6.5s18 -9.83301 26 -16.5c20 -18 39.667 -32.833 59 -44.5s40 -21 62 -28s45.5 -12 70.5 -15s53.167 -4.5 84.5 -4.5c46 0 89.667 7.66699 131 23s78.666 38 111.999 68s61.666 67 84.999 111s39.666 94.667 48.999 152h-620v242h618
c-10 54 -25.833 101.833 -47.5 143.5s-48.334 76.834 -80.001 105.501s-67.834 50.334 -108.501 65.001s-84.667 22 -132 22c-53.333 0 -96.5 -5.5 -129.5 -16.5s-60.667 -23 -83 -36s-41.333 -25 -57 -36s-32.5 -16.5 -50.5 -16.5s-32 3.83301 -42 11.5
s-18.667 16.167 -26 25.5z" />
    <glyph glyph-name="afii10048" unicode="&#x42e;" horiz-adv-x="2174" 
d="M1402 254c58.667 0 110.834 11.167 156.501 33.5s84 54 115 95s54.5 90.833 70.5 149.5s24 124.334 24 197.001c0 72 -8 137.333 -24 196s-39.5 108.5 -70.5 149.5s-69.333 72.667 -115 95s-97.834 33.5 -156.501 33.5c-59.333 0 -111.666 -11.167 -156.999 -33.5
s-83.5 -54 -114.5 -95s-54.5 -90.833 -70.5 -149.5s-24 -124 -24 -196c0 -72.667 8 -138.334 24 -197.001s39.5 -108.5 70.5 -149.5s69.167 -72.667 114.5 -95s97.666 -33.5 156.999 -33.5zM698 850c12 90 36.6699 173 74.0029 249s86.166 141.833 146.499 197.5
s131.166 99 212.499 130s171.666 46.5 270.999 46.5c110 0 209 -19 297 -57s162.667 -90.333 224 -157s108.5 -145.334 141.5 -236.001s49.5 -188.667 49.5 -294s-16.5 -203.333 -49.5 -294s-80.167 -169.5 -141.5 -236.5s-136 -119.5 -224 -157.5s-187 -57 -297 -57
c-98 0 -187.5 15.333 -268.5 46s-151.5 73.334 -211.5 128.001s-109 119.5 -147 194.5s-63.333 157.167 -76 246.5h-218v-599h-340v1457h340v-607h217z" />
    <glyph glyph-name="afii10049" unicode="&#x42f;" horiz-adv-x="1384" 
d="M905 838v365.001h-206c-45.333 0 -82.166 -5 -110.499 -15s-50.666 -23.5 -66.999 -40.5s-27.5 -36.333 -33.5 -58s-9 -44.167 -9 -67.5c0 -26.667 3 -51.334 9 -74.001s17.167 -42.167 33.5 -58.5s38.666 -29 66.999 -38s65.166 -13.5 110.499 -13.5h206z
M1243 0.000976562l-337.998 -0.000976562v584h-105c-30.667 0 -58.834 -6.83301 -84.501 -20.5s-49.5 -40.167 -71.5 -79.5l-204 -371c-20.667 -34.667 -48.334 -62.167 -83.001 -82.5s-76.334 -30.5 -125.001 -30.5h-256l298 497c21.333 35.333 45.5 65 72.5 89
s58.5 43.667 94.5 59c-50.667 15.333 -94.667 35.5 -132 60.5s-68.166 53.667 -92.499 86s-42.333 67.833 -54 106.5s-17.5 79.334 -17.5 122.001c0 62.667 12.5 120.667 37.5 174s61.167 99.5 108.5 138.5s105.333 69.5 174 91.5s146.667 33 234 33h544v-1457z" />
    <glyph glyph-name="afii10065" unicode="&#x430;" horiz-adv-x="1035" 
d="M640 422c-62 -2.66699 -112.999 -8.00098 -152.999 -16.001s-71.667 -18 -95 -30s-39.5 -25.667 -48.5 -41s-13.5 -32 -13.5 -50c0 -35.333 9.66699 -60.166 29 -74.499s47.666 -21.5 84.999 -21.5c40 0 75 7 105 21s60.333 36.667 91 68v144zM82.001 892.999
c62.667 55.333 132.166 96.5 208.499 123.5s158.166 40.5 245.499 40.5c62.667 0 119.167 -10.167 169.5 -30.5s93 -48.666 128 -84.999s61.833 -79.5 80.5 -129.5s28 -104.667 28 -164v-648h-142c-29.333 0 -51.5 4 -66.5 12s-27.5 24.667 -37.5 50l-22 57
c-26 -22 -51 -41.333 -75 -58s-48.833 -30.834 -74.5 -42.501s-53 -20.334 -82 -26.001s-61.167 -8.5 -96.5 -8.5c-47.333 0 -90.333 6.16699 -129 18.5s-71.5 30.5 -98.5 54.5s-47.833 53.833 -62.5 89.5s-22 76.834 -22 123.501c0 37.333 9.33301 75.166 28 113.499
s51 73.333 97 105s108 58.167 186 79.5s176.333 33.333 295 36v44c0 60.667 -12.5 104.5 -37.5 131.5s-60.5 40.5 -106.5 40.5c-36.667 0 -66.667 -4 -90 -12s-44.166 -17 -62.499 -27s-36.166 -19 -53.499 -27s-38 -12 -62 -12c-21.333 0 -39.333 5.33301 -54 16
s-26.667 23.334 -36 38.001z" />
    <glyph glyph-name="afii10066" unicode="&#x431;" horiz-adv-x="1192" 
d="M610 203c71.333 0 123.833 23.834 157.5 71.501s50.5 120.167 50.5 217.5s-16.833 169.666 -50.5 216.999s-86.167 71 -157.5 71c-74 0 -128 -23.5 -162 -70.5s-51 -118.833 -51 -215.5c0 -98 17 -171 51 -219s88 -72 162 -72zM684 1181
c-57.333 -3.33301 -106.501 -13.498 -147.501 -30.498s-74.833 -40.167 -101.5 -69.5s-46.834 -64 -60.501 -104s-21.834 -84.333 -24.501 -133c16.667 22 36.334 42.5 59.001 61.5s48.334 35.333 77.001 49s59.834 24.5 93.501 32.5s70.167 12 109.5 12
c68.667 0 130.667 -12.167 186 -36.5s102.5 -58.666 141.5 -102.999s69 -97.5 90 -159.5s31.5 -131 31.5 -207c0 -78.667 -12.833 -149.334 -38.5 -212.001s-61.667 -116 -108 -160s-101.833 -77.833 -166.5 -101.5s-136.334 -35.5 -215.001 -35.5
c-79.333 0 -151.666 12.667 -216.999 38s-121.5 65.666 -168.5 120.999s-83.333 126.666 -109 213.999s-38.5 193.333 -38.5 318c0 102.667 9.5 199.167 28.5 289.5s51 170 96 239s104.667 124.833 179 167.5s166.833 67.667 277.5 75l367 25l17 -156
c3.33301 -32.667 -1.66699 -60.5 -15 -83.5s-37 -35.167 -71 -36.5z" />
    <glyph glyph-name="afii10067" unicode="&#x432;" horiz-adv-x="1016" 
d="M551 204c38.667 0 69.334 10.5 92.001 31.5s34 49.5 34 85.5c0 14.667 -1.5 28.667 -4.5 42s-9 25 -18 35s-21.833 17.833 -38.5 23.5s-38.334 8.5 -65.001 8.5h-152v-226h152zM399 843l0.000976562 -229.001h131c38 0 69 11.5 93 34.5s36 52.5 36 88.5
c0 12.667 -2 25.334 -6 38.001s-11 24 -21 34s-23.333 18.167 -40 24.5s-37.334 9.5 -62.001 9.5h-131zM539.001 1037c66.667 0 124.667 -6.32812 174 -18.9951s90.166 -30.334 122.499 -53.001s56.333 -49.5 72 -80.5s23.5 -64.833 23.5 -101.5
c0 -22.667 -2.83301 -45.834 -8.5 -69.501s-15.5 -46.334 -29.5 -68.001s-33.167 -41.334 -57.5 -59.001s-55.5 -31.834 -93.5 -42.501c31.333 -7.33301 60.5 -17.666 87.5 -30.999s50.333 -29.666 70 -48.999s35 -41.833 46 -67.5s16.5 -54.834 16.5 -87.501
c0 -55.333 -11.667 -102.5 -35 -141.5s-54.166 -70.833 -92.499 -95.5s-82 -42.834 -131 -54.501s-99.167 -17.5 -150.5 -17.5h-448v1037h434z" />
    <glyph glyph-name="afii10068" unicode="&#x433;" horiz-adv-x="855" 
d="M835 815h-420v-815h-310v1037h730v-222z" />
    <glyph glyph-name="afii10069" unicode="&#x434;" horiz-adv-x="1296" 
d="M777 213v595.001h-191c-6 -73.333 -13.5 -140.333 -22.5 -201s-19.167 -115.334 -30.5 -164.001s-23.833 -92 -37.5 -130s-28.167 -71.333 -43.5 -100h325zM1268 222.001l-0.00195312 -474c0 -26.667 -8.16699 -48 -24.5 -64s-37.166 -24 -62.499 -24h-195v340h-691v-256
c0 -10.667 -1.66699 -21 -5 -31s-8.5 -19 -15.5 -27s-15.833 -14.333 -26.5 -19s-23.334 -7 -38.001 -7h-197v553h25c22.667 0 44.834 2.5 66.501 7.5s42.334 16.5 62.001 34.5s38 44.667 55 80s32.667 83.5 47 144.5s27 137 38 228s19.833 200.833 26.5 329.5h744v-815h191
z" />
    <glyph glyph-name="afii10070" unicode="&#x435;" horiz-adv-x="1078" 
d="M750 643c0 24.667 -3.16992 48.6689 -9.50293 72.002s-16.666 44.166 -30.999 62.499s-33.166 33.166 -56.499 44.499s-51.666 17 -84.999 17c-58.667 0 -104.667 -16.833 -138 -50.5s-55.333 -82.167 -66 -145.5h386zM359.997 463.002
c10 -86.667 36.335 -149.501 79.002 -188.501s97.667 -58.5 165 -58.5c36 0 67 4.33301 93 13s49.167 18.334 69.5 29.001l56 29c17 8.66699 34.833 13 53.5 13c24.667 0 43.334 -9 56.001 -27l90 -111c-32 -36.667 -66.5 -66.5 -103.5 -89.5s-75 -41 -114 -54
s-78 -22 -117 -27s-76.167 -7.5 -111.5 -7.5c-72.667 0 -140.834 11.833 -204.501 35.5s-119.334 58.834 -167.001 105.501s-85.334 104.667 -113.001 174s-41.5 150 -41.5 242c0 69.333 11.833 135 35.5 197s57.667 116.333 102 163s98 83.667 161 111s134.167 41 213.5 41
c68.667 0 131.5 -10.667 188.5 -32s106 -52.333 147 -93s73 -90.5 96 -149.5s34.5 -125.833 34.5 -200.5c0 -23.333 -1 -42.333 -3 -57s-5.66699 -26.334 -11 -35.001s-12.5 -14.667 -21.5 -18s-20.5 -5 -34.5 -5h-598z" />
    <glyph glyph-name="afii10072" unicode="&#x436;" horiz-adv-x="1688" 
d="M1681 0h-214.001c-27.333 0 -51.166 2 -71.499 6s-38 10.167 -53 18.5s-27.833 19 -38.5 32s-20 28.167 -28 45.5l-110 261c-10 23.333 -24.5 40.5 -43.5 51.5s-40.833 16.5 -65.5 16.5h-63v-431h-300v431h-63c-24.667 0 -46.5 -5.5 -65.5 -16.5
s-33.5 -28.167 -43.5 -51.5l-110 -261c-8 -17.333 -17.333 -32.5 -28 -45.5s-23.5 -23.667 -38.5 -32s-32.667 -14.5 -53 -18.5s-44.166 -6 -71.499 -6h-214l217 426c16.667 32 35.667 58.167 57 78.5s49 36.166 83 47.499c-24.667 9.33301 -45.667 22.666 -63 39.999
s-34.333 40 -51 68l-218 377h245c28 0 53.667 -7 77 -21s41.666 -33 54.999 -57l137 -274c10.667 -21.333 22.834 -36.5 36.501 -45.5s34.5 -13.5 62.5 -13.5h49v411h300v-411h44c28 0 49.667 4.5 65 13.5s28.333 24.167 39 45.5l137 274c13.333 24 31.666 43 54.999 57
s49 21 77 21h245l-218 -377c-16.667 -28 -33.667 -50.667 -51 -68s-38.333 -30.666 -63 -39.999c34 -11.333 61.667 -27.166 83 -47.499s40.333 -46.5 57 -78.5z" />
    <glyph glyph-name="afii10073" unicode="&#x437;" horiz-adv-x="904" 
d="M48 920c40.667 39.333 90.6709 71.333 150.004 96s131 37 215 37c65.333 0 123.666 -7.66699 174.999 -23s94.833 -36 130.5 -62s63 -56.167 82 -90.5s28.5 -70.5 28.5 -108.5c0 -19.333 -2.66699 -39.166 -8 -59.499s-14.166 -40.333 -26.499 -60s-28.5 -38 -48.5 -55
s-44.667 -31.833 -74 -44.5c25.333 -10.667 48.666 -23.667 69.999 -39s39.666 -33.166 54.999 -53.499s27.333 -43.166 36 -68.499s13 -53 13 -83c0 -52 -12.167 -98 -36.5 -138s-56.333 -73.667 -96 -101s-84.834 -48 -135.501 -62s-102 -21 -154 -21
c-26.667 0 -56.834 2.5 -90.501 7.5s-68.5 14 -104.5 27s-72 31 -108 54s-70 52.833 -102 89.5l90 111c12.667 18 31.334 27 56.001 27c18.667 0 35.167 -4.66699 49.5 -14l46.5 -30.5c16.667 -11 36 -21 58 -30s50 -13.5 84 -13.5c51.333 0 88.833 11.5 112.5 34.5
s35.5 51.5 35.5 85.5s-12.833 60.167 -38.5 78.5s-69.834 27.5 -132.501 27.5h-117v193h117c55.333 0 97 9 125 27s42 42.667 42 74c0 30 -12.333 53 -37 69s-60 24 -106 24c-32 0 -59 -3.33301 -81 -10s-41 -13.834 -57 -21.501s-30.167 -14.834 -42.5 -21.501
s-24.833 -10 -37.5 -10c-14 0 -26 2.66699 -36 8s-20.667 16.666 -32 33.999z" />
    <glyph glyph-name="afii10074" unicode="&#x438;" horiz-adv-x="1180" 
d="M1075 1037v-1037h-310v528c0 17.333 1 36.166 3 56.499s4.66699 41.166 8 62.499c-16 -36 -33 -66.333 -51 -91c-1.33301 -1.33301 -6.83301 -9.33301 -16.5 -24l-37 -56.5l-51 -77.5l-58.5 -88l-157 -237c-6 -8.66699 -12.833 -17.5 -20.5 -26.5s-16.167 -17 -25.5 -24
s-19.333 -12.667 -30 -17s-22 -6.5 -34 -6.5h-190v1037h310v-528c0 -16.667 -1 -35.334 -3 -56.001s-4.66699 -41.667 -8 -63c16 36 33 66.333 51 91c0.666992 1.33301 6 9.33301 16 24l37.5 56.5l51 77.5l58.5 88l157 237c6 8.66699 12.833 17.5 20.5 26.5
s16.167 17 25.5 24s19.333 12.667 30 17s22 6.5 34 6.5h190z" />
    <glyph glyph-name="afii10075" unicode="&#x439;" horiz-adv-x="1180" 
d="M1075 1037v-1037h-310v528c0 17.333 1 36.166 3 56.499s4.66699 41.166 8 62.499c-16 -36 -33 -66.333 -51 -91c-1.33301 -1.33301 -6.83301 -9.33301 -16.5 -24l-37 -56.5l-51 -77.5l-58.5 -88l-157 -237c-6 -8.66699 -12.833 -17.5 -20.5 -26.5s-16.167 -17 -25.5 -24
s-19.333 -12.667 -30 -17s-22 -6.5 -34 -6.5h-190v1037h310v-528c0 -16.667 -1 -35.334 -3 -56.001s-4.66699 -41.667 -8 -63c16 36 33 66.333 51 91c0.666992 1.33301 6 9.33301 16 24l37.5 56.5l51 77.5l58.5 88l157 237c6 8.66699 12.833 17.5 20.5 26.5
s16.167 17 25.5 24s19.333 12.667 30 17s22 6.5 34 6.5h190zM606 1308c22.667 0 41.3389 2.33301 56.0059 7s26.167 12.667 34.5 24s14 26.5 17 45.5s4.5 43.167 4.5 72.5h184c10.667 0 19.834 -2.5 27.501 -7.5s14 -11.333 19 -19s8.83301 -16.334 11.5 -26.001
s4 -19.5 4 -29.5c0 -35.333 -8.83301 -66.833 -26.5 -94.5s-42.334 -51.334 -74.001 -71.001s-69.334 -34.667 -113.001 -45s-91.834 -15.5 -144.501 -15.5s-100.834 5.16699 -144.501 15.5s-81.334 25.333 -113.001 45s-56.334 43.334 -74.001 71.001
s-26.5 59.167 -26.5 94.5c0 10 1.33301 19.833 4 29.5s6.5 18.334 11.5 26.001s11.333 14 19 19s16.834 7.5 27.501 7.5h184c0 -29.333 1.5 -53.5 4.5 -72.5s8.66699 -34.167 17 -45.5s19.666 -19.333 33.999 -24s33.166 -7 56.499 -7z" />
    <glyph glyph-name="afii10076" unicode="&#x43a;" horiz-adv-x="1134" 
d="M715 959c15.333 23.333 35.8311 42.1641 61.498 56.4971s52.5 21.5 80.5 21.5h245l-218 -377c-16.667 -28 -33.667 -50.667 -51 -68s-38.333 -30.666 -63 -39.999c34 -11.333 61.667 -27.333 83 -48s40.333 -46.667 57 -78l217 -426h-214
c-27.333 0 -51.166 2.16699 -71.499 6.5s-38.5 10.833 -54.5 19.5s-30 19.334 -42 32.001s-23 27.334 -33 44.001l-110 261c-10 23.333 -24.5 40.5 -43.5 51.5s-40.833 16.5 -65.5 16.5h-78v-431h-310v1037h310v-411h64c28 0 48.833 4.5 62.5 13.5
s25.834 24.167 36.501 45.5z" />
    <glyph glyph-name="afii10077" unicode="&#x43b;" horiz-adv-x="1220" 
d="M1115 0h-309.997v808h-188c-8.66699 -124 -21.667 -230.333 -39 -319s-37.833 -163.5 -61.5 -224.5s-50.167 -110 -79.5 -147s-60.5 -65.333 -93.5 -85s-67.333 -32.667 -103 -39s-71.834 -9.5 -108.501 -9.5c-46 0 -78.5 3.83301 -97.5 11.5s-28.5 18.167 -28.5 31.5
v186h65c21.333 0 42.333 2.83301 63 8.5s40.667 18 60 37s37.666 46.667 54.999 83s33.166 85 47.499 146s27 136.333 38 226s19.833 197.5 26.5 323.5h754v-1037z" />
    <glyph glyph-name="afii10078" unicode="&#x43c;" horiz-adv-x="1453" 
d="M1348 1038l0.00195312 -1038h-280v491c0 25.333 1.33301 54 4 86s6.66699 62.333 12 91l-254 -492c-18.667 -34 -47.667 -51 -87 -51h-33c-39.333 0 -68.333 17 -87 51l-255 494c5.33301 -29.333 9.5 -60 12.5 -92s4.5 -61 4.5 -87v-491h-280v1038h260
c21.333 0 42.5 -4.5 63.5 -13.5s38.833 -26.833 53.5 -53.5l175 -355c13.333 -23.333 25.666 -48.5 36.999 -75.5s22 -54.5 32 -82.5c10 28 20.667 55.5 32 82.5s23.666 52.167 36.999 75.5l176 355c14.667 27.333 32.5 45.333 53.5 54s42.167 13 63.5 13h260z" />
    <glyph glyph-name="afii10079" unicode="&#x43d;" horiz-adv-x="1150" 
d="M1045 1037v-1037h-310v438h-320v-438h-310v1037h310v-377h320v377h310z" />
    <glyph glyph-name="afii10080" unicode="&#x43e;" horiz-adv-x="1162" 
d="M583 1053c78.667 0 150.334 -12.333 215.001 -37s120.167 -60 166.5 -106s82.333 -101.833 108 -167.5s38.5 -139.5 38.5 -221.5c0 -82.667 -12.833 -157.167 -38.5 -223.5s-61.667 -122.666 -108 -168.999s-101.833 -82 -166.5 -107s-136.334 -37.5 -215.001 -37.5
c-79.333 0 -151.5 12.5 -216.5 37.5s-121 60.667 -168 107s-83.333 102.666 -109 168.999s-38.5 140.833 -38.5 223.5c0 82 12.833 155.833 38.5 221.5s62 121.5 109 167.5s103 81.333 168 106s137.167 37 216.5 37zM583 214c71.333 0 123.833 25.167 157.5 75.5
s50.5 126.833 50.5 229.5s-16.833 179 -50.5 229s-86.167 75 -157.5 75c-73.333 0 -127 -25 -161 -75s-51 -126.333 -51 -229s17 -179.167 51 -229.5s87.667 -75.5 161 -75.5z" />
    <glyph glyph-name="afii10081" unicode="&#x43f;" horiz-adv-x="1150" 
d="M1045 0h-310v815h-320v-815h-310v1037h940v-1037z" />
    <glyph glyph-name="afii10082" unicode="&#x440;" horiz-adv-x="1149" 
d="M415 282c23.333 -25.333 48.666 -43.333 75.999 -54s56 -16 86 -16c28.667 0 55 5.66699 79 17s44.833 29.5 62.5 54.5s31.5 57.5 41.5 97.5s15 88.667 15 146c0 54.667 -4 100.667 -12 138s-19.167 67.5 -33.5 90.5s-31.5 39.5 -51.5 49.5s-42.333 15 -67 15
c-45.333 0 -82.666 -8.33301 -111.999 -25s-57.333 -41 -84 -73v-440zM396 909c40.667 43.333 86.833 78.833 138.5 106.5s113.167 41.5 184.5 41.5c54 0 104 -12 150 -36s85.667 -58.667 119 -104s59.5 -100.833 78.5 -166.5s28.5 -140.167 28.5 -223.5
c0 -78 -10.833 -150 -32.5 -216s-52 -123.333 -91 -172s-85.667 -86.667 -140 -114s-114.5 -41 -180.5 -41c-54 0 -99.333 7.66699 -136 23s-70 36 -100 62v-398h-310v1366h192c38.667 0 64 -17.333 76 -52z" />
    <glyph glyph-name="afii10083" unicode="&#x441;" horiz-adv-x="973" 
d="M867 791c-9.33301 -11.333 -18.3301 -20.335 -26.9971 -27.002s-21 -10 -37 -10c-15.333 0 -29.166 3.66699 -41.499 11l-41.5 24.5c-15.333 9 -33.333 17.167 -54 24.5s-46.334 11 -77.001 11c-38 0 -70.833 -7 -98.5 -21s-50.5 -34 -68.5 -60
s-31.333 -57.833 -40 -95.5s-13 -80.167 -13 -127.5c0 -99.333 19.167 -175.666 57.5 -228.999s91.166 -80 158.499 -80c36 0 64.5 4.5 85.5 13.5s38.833 19 53.5 30l40.5 30.5c12.333 9.33301 27.833 14 46.5 14c24.667 0 43.334 -9 56.001 -27l90 -111
c-32 -36.667 -65.667 -66.5 -101 -89.5s-71.5 -41 -108.5 -54s-74.167 -22 -111.5 -27s-73.666 -7.5 -108.999 -7.5c-63.333 0 -123.833 12 -181.5 36s-108.334 58.833 -152.001 104.5s-78.334 101.834 -104.001 168.501s-38.5 142.667 -38.5 228
c0 74.667 11.167 144.5 33.5 209.5s55.333 121.333 99 169s97.667 85.167 162 112.5s138.833 41 223.5 41c81.333 0 152.666 -13 213.999 -39s116.666 -64 165.999 -114z" />
    <glyph glyph-name="afii10084" unicode="&#x442;" horiz-adv-x="1040" 
d="M1020 815h-345v-815h-310v815h-345v222h1000v-222z" />
    <glyph glyph-name="afii10085" unicode="&#x443;" horiz-adv-x="1076" 
d="M1090 1037l-554.002 -1306c-9.33301 -20.667 -20.666 -35.834 -33.999 -45.501s-34.666 -14.5 -63.999 -14.5h-232l200 420l-414 946h274c24 0 42.5 -5.33301 55.5 -16s22.5 -23.334 28.5 -38.001l170 -447c16 -40.667 29 -82.334 39 -125.001l22 64
c7.33301 21.333 15 42.333 23 63l154 445c6 15.333 16.667 28.166 32 38.499s32 15.5 50 15.5h250z" />
    <glyph glyph-name="afii10086" unicode="&#x444;" horiz-adv-x="1510" 
d="M890 208c39.333 4.66699 75.166 14.832 107.499 30.499s60 36.5 83 62.5s40.667 57.333 53 94s18.5 78 18.5 124s-6.16699 87.333 -18.5 124s-30 68 -53 94s-50.667 46.833 -83 62.5s-68.166 25.834 -107.499 30.501v-622zM620 829.998
c-39.333 -4.66699 -75.166 -14.832 -107.499 -30.499s-60 -36.5 -83 -62.5s-40.667 -57.333 -53 -94s-18.5 -78 -18.5 -124s6.16699 -87.333 18.5 -124s30 -68 53 -94s50.667 -46.833 83 -62.5s68.166 -25.834 107.499 -30.501v622zM900 1051
c81.333 -5.33301 156.333 -21.5 225 -48.5s128 -63.333 178 -109s89 -99.834 117 -162.501s42 -132.667 42 -210c0 -78 -14 -148.667 -42 -212s-67 -118 -117 -164s-109.333 -82.667 -178 -110s-143.667 -43.666 -225 -48.999v-326h-290v326
c-81.333 5.33301 -156.333 21.666 -225 48.999s-128 64 -178 110s-89 100.667 -117 164s-42 134 -42 212c0 77.333 14 147.333 42 210s67 116.834 117 162.501s109.333 82 178 109s143.667 43.167 225 48.5v406h290v-406z" />
    <glyph glyph-name="afii10087" unicode="&#x445;" horiz-adv-x="1088" 
d="M1097 0l-297.998 -0.00292969c-22 0 -39.833 5.33301 -53.5 16s-24.5 23.334 -32.5 38.001l-185 318c-3.33301 -11.333 -7.33301 -22 -12 -32s-9.66699 -19.333 -15 -28l-152 -258c-9.33301 -13.333 -20.333 -25.666 -33 -36.999s-29 -17 -49 -17h-276l348 536l-334 501
h298c22 0 38.167 -2.83301 48.5 -8.5s19.5 -15.167 27.5 -28.5l185 -307c4 12 9 23.833 15 35.5s12.667 23.5 20 35.5l132 231c9.33301 14.667 19.166 25.334 29.499 32.001s23.166 10 38.499 10h284l-334 -487z" />
    <glyph glyph-name="afii10088" unicode="&#x446;" horiz-adv-x="1264" 
d="M1236 222l-0.000976562 -474c0 -26.667 -8.16699 -48 -24.5 -64s-37.166 -24 -62.499 -24h-195v340h-849v1037h310v-815h320v815h310v-815h191z" />
    <glyph glyph-name="afii10089" unicode="&#x447;" horiz-adv-x="1077" 
d="M972 1037l-0.00292969 -1037h-310v383c-89.333 -20.667 -171.166 -31.334 -245.499 -32.001s-138.166 10.833 -191.499 34.5s-94.666 60.334 -123.999 110.001s-44 114.834 -44 195.501v346h310v-300c0 -36 4.33301 -65.833 13 -89.5s24.167 -41.5 46.5 -53.5
s52.5 -18.167 90.5 -18.5s86.333 4.83398 145 15.501v446h310z" />
    <glyph glyph-name="afii10090" unicode="&#x448;" horiz-adv-x="1680" 
d="M1575 1037v-1037h-1470v1037h310v-815h270v815h310v-815h270v815h310z" />
    <glyph glyph-name="afii10091" unicode="&#x449;" horiz-adv-x="1794" 
d="M1766 222l-0.000976562 -474c0 -26.667 -8.16699 -48 -24.5 -64s-37.166 -24 -62.499 -24h-195v340h-1379v1037h310v-815h270v815h310v-815h270v815h310v-815h191z" />
    <glyph glyph-name="afii10092" unicode="&#x44a;" horiz-adv-x="1204" 
d="M774 214c41.333 0 72.667 11.501 94 34.501s32 53.167 32 90.5c0 15.333 -2.5 30.166 -7.5 44.499s-12.667 27 -23 38s-23.5 19.667 -39.5 26s-34.667 9.5 -56 9.5h-152v-243h152zM773.001 670.001c72.667 0 134.501 -8.83301 185.501 -26.5s92.5 -41.667 124.5 -72
s55.333 -65.5 70 -105.5s22 -82 22 -126c0 -50 -9 -95.833 -27 -137.5s-44.167 -77.5 -78.5 -107.5s-76.333 -53.333 -126 -70s-105.834 -25 -168.501 -25h-447v812h-306v225h600v-367h151z" />
    <glyph glyph-name="afii10093" unicode="&#x44b;" horiz-adv-x="1520" 
d="M551 214c41.333 0 72.667 11.501 94 34.501s32 53.167 32 90.5c0 15.333 -2.5 30.166 -7.5 44.499s-12.667 27 -23 38s-23.5 19.667 -39.5 26s-34.667 9.5 -56 9.5h-152v-243h152zM550.001 670.001c72.667 0 134.501 -8.83301 185.501 -26.5s92.5 -41.667 124.5 -72
s55.333 -65.5 70 -105.5s22 -82 22 -126c0 -50 -9 -95.833 -27 -137.5s-44.167 -77.5 -78.5 -107.5s-76.333 -53.333 -126 -70s-105.834 -25 -168.501 -25h-447v1037h294v-367h151zM1415 1037v-1037h-310v1037h310z" />
    <glyph glyph-name="afii10094" unicode="&#x44c;" horiz-adv-x="981" 
d="M551 214c41.333 0 72.667 11.501 94 34.501s32 53.167 32 90.5c0 15.333 -2.5 30.166 -7.5 44.499s-12.667 27 -23 38s-23.5 19.667 -39.5 26s-34.667 9.5 -56 9.5h-152v-243h152zM550.001 670.001c72.667 0 134.501 -8.83301 185.501 -26.5s92.5 -41.667 124.5 -72
s55.333 -65.5 70 -105.5s22 -82 22 -126c0 -50 -9 -95.833 -27 -137.5s-44.167 -77.5 -78.5 -107.5s-76.333 -53.333 -126 -70s-105.834 -25 -168.501 -25h-447v1037h294v-367h151z" />
    <glyph glyph-name="afii10095" unicode="&#x44d;" horiz-adv-x="983" 
d="M34 900c49.333 50 104.667 88.002 166 114.002s132.666 39 213.999 39c84.667 0 159.167 -13.667 223.5 -41s118.333 -64.833 162 -112.5s76.667 -104 99 -169s33.5 -134.833 33.5 -209.5c0 -85.333 -12.833 -161.333 -38.5 -228s-60.334 -122.834 -104.001 -168.501
s-94.334 -80.5 -152.001 -104.5s-118.167 -36 -181.5 -36c-35.333 0 -71.666 2.5 -108.999 7.5s-74.5 14 -111.5 27s-73.167 31 -108.5 54s-69 52.833 -101 89.5l85 101c12.667 18 31.334 27 56.001 27c18.667 0 34.334 -4 47.001 -12l42 -27
c15.333 -10 33.833 -19 55.5 -27s50.5 -12 86.5 -12c56 0 103.333 18.5 142 55.5s64 90.5 76 160.5h-393v203h390c-12.667 62 -37.167 109.833 -73.5 143.5s-84.833 50.5 -145.5 50.5c-31.333 0 -57.333 -3.16699 -78 -9.5s-39 -13.333 -55 -21l-43.5 -21
c-13 -6.33301 -26.833 -9.5 -41.5 -9.5c-16 0 -28.333 3.16699 -37 9.5s-17.667 15.166 -27 26.499z" />
    <glyph glyph-name="afii10096" unicode="&#x44e;" horiz-adv-x="1641" 
d="M1076 214c67.333 0 116.5 25.167 147.5 75.5s46.5 126.833 46.5 229.5s-15.5 179 -46.5 229s-80.167 75 -147.5 75s-116.5 -25 -147.5 -75s-46.5 -126.333 -46.5 -229s15.5 -179.167 46.5 -229.5s80.167 -75.5 147.5 -75.5zM580 634
c10 65.333 29.0029 123.832 57.0029 175.499s63.167 95.5 105.5 131.5s91.666 63.667 147.999 83s118.166 29 185.499 29c76.667 0 146.5 -12.333 209.5 -37s117 -60 162 -106s80 -101.833 105 -167.5s37.5 -139.5 37.5 -221.5c0 -82.667 -13 -157.167 -39 -223.5
s-62 -122.666 -108 -168.999s-100.333 -82 -163 -107s-130.667 -37.5 -204 -37.5c-70 0 -133.833 10 -191.5 30s-107.667 48.833 -150 86.5s-76.833 83.667 -103.5 138s-44.334 115.5 -53.001 183.5h-163v-422h-310v1037h310v-403h165z" />
    <glyph glyph-name="afii10097" unicode="&#x44f;" horiz-adv-x="1041" 
d="M642 583l0.000976562 260h-101c-24.667 0 -45.334 -3.83301 -62.001 -11.5s-30 -17.667 -40 -30s-17 -26.166 -21 -41.499s-6 -30.333 -6 -45c0 -40.667 12 -72.834 36 -96.501s55 -35.5 93 -35.5h101zM936.001 1037l0.00390625 -1037h-294v399h-11
c-21.333 0 -38.833 -2 -52.5 -6s-25 -9.66699 -34 -17s-16.5 -15.833 -22.5 -25.5s-12 -20.167 -18 -31.5l-112 -217c-10 -17.333 -20.333 -32.333 -31 -45s-23.334 -23.167 -38.001 -31.5s-31.834 -14.666 -51.501 -18.999s-43.167 -6.5 -70.5 -6.5h-214l226 346
c16.667 29.333 36 53 58 71s48 32.333 78 43c-46 10 -84.833 24.667 -116.5 44s-57.334 41.333 -77.001 66s-33.834 50.667 -42.501 78s-13 53.666 -13 78.999c0 40 8.16699 78.5 24.5 115.5s42 70 77 99s79.667 52.167 134 69.5s119.833 26 196.5 26h404z" />
    <glyph glyph-name="uni0450" unicode="&#x450;" horiz-adv-x="1078" 
d="M750 643c0 24.667 -3.16992 48.6689 -9.50293 72.002s-16.666 44.166 -30.999 62.499s-33.166 33.166 -56.499 44.499s-51.666 17 -84.999 17c-58.667 0 -104.667 -16.833 -138 -50.5s-55.333 -82.167 -66 -145.5h386zM359.997 463.002
c10 -86.667 36.335 -149.501 79.002 -188.501s97.667 -58.5 165 -58.5c36 0 67 4.33301 93 13s49.167 18.334 69.5 29.001l56 29c17 8.66699 34.833 13 53.5 13c24.667 0 43.334 -9 56.001 -27l90 -111c-32 -36.667 -66.5 -66.5 -103.5 -89.5s-75 -41 -114 -54
s-78 -22 -117 -27s-76.167 -7.5 -111.5 -7.5c-72.667 0 -140.834 11.833 -204.501 35.5s-119.334 58.834 -167.001 105.501s-85.334 104.667 -113.001 174s-41.5 150 -41.5 242c0 69.333 11.833 135 35.5 197s57.667 116.333 102 163s98 83.667 161 111s134.167 41 213.5 41
c68.667 0 131.5 -10.667 188.5 -32s106 -52.333 147 -93s73 -90.5 96 -149.5s34.5 -125.833 34.5 -200.5c0 -23.333 -1 -42.333 -3 -57s-5.66699 -26.334 -11 -35.001s-12.5 -14.667 -21.5 -18s-20.5 -5 -34.5 -5h-598zM491.999 1473c31.333 0 54.668 -5.16699 70.001 -15.5
s28.666 -25.166 39.999 -44.499l136 -245h-176c-23.333 0 -42 3.16699 -56 9.5s-28.667 17.166 -44 32.499l-260 263h290z" />
    <glyph glyph-name="afii10071" unicode="&#x451;" horiz-adv-x="1078" 
d="M750 643c0 24.667 -3.16992 48.6689 -9.50293 72.002s-16.666 44.166 -30.999 62.499s-33.166 33.166 -56.499 44.499s-51.666 17 -84.999 17c-58.667 0 -104.667 -16.833 -138 -50.5s-55.333 -82.167 -66 -145.5h386zM359.997 463.002
c10 -86.667 36.335 -149.501 79.002 -188.501s97.667 -58.5 165 -58.5c36 0 67 4.33301 93 13s49.167 18.334 69.5 29.001l56 29c17 8.66699 34.833 13 53.5 13c24.667 0 43.334 -9 56.001 -27l90 -111c-32 -36.667 -66.5 -66.5 -103.5 -89.5s-75 -41 -114 -54
s-78 -22 -117 -27s-76.167 -7.5 -111.5 -7.5c-72.667 0 -140.834 11.833 -204.501 35.5s-119.334 58.834 -167.001 105.501s-85.334 104.667 -113.001 174s-41.5 150 -41.5 242c0 69.333 11.833 135 35.5 197s57.667 116.333 102 163s98 83.667 161 111s134.167 41 213.5 41
c68.667 0 131.5 -10.667 188.5 -32s106 -52.333 147 -93s73 -90.5 96 -149.5s34.5 -125.833 34.5 -200.5c0 -23.333 -1 -42.333 -3 -57s-5.66699 -26.334 -11 -35.001s-12.5 -14.667 -21.5 -18s-20.5 -5 -34.5 -5h-598zM517.999 1295c0 -21.333 -4.33301 -41.333 -13 -60
s-20.5 -34.834 -35.5 -48.501s-32.333 -24.5 -52 -32.5s-40.834 -12 -63.501 -12c-21.333 0 -41.5 4 -60.5 12s-35.667 18.833 -50 32.5s-25.833 29.834 -34.5 48.501s-13 38.667 -13 60c0 22 4.33301 42.667 13 62s20.167 36.166 34.5 50.499s31 25.666 50 33.999
s39.167 12.5 60.5 12.5c22.667 0 43.834 -4.16699 63.501 -12.5s37 -19.666 52 -33.999s26.833 -31.166 35.5 -50.499s13 -40 13 -62zM943.999 1295c0 -21.333 -4.16699 -41.333 -12.5 -60s-19.833 -34.834 -34.5 -48.501s-31.834 -24.5 -51.501 -32.5
s-40.834 -12 -63.501 -12c-22 0 -42.667 4 -62 12s-36.333 18.833 -51 32.5s-26.167 29.834 -34.5 48.501s-12.5 38.667 -12.5 60c0 22 4.16699 42.667 12.5 62s19.833 36.166 34.5 50.499s31.667 25.666 51 33.999s40 12.5 62 12.5c22.667 0 43.834 -4.16699 63.501 -12.5
s36.834 -19.666 51.501 -33.999s26.167 -31.166 34.5 -50.499s12.5 -40 12.5 -62z" />
    <glyph glyph-name="afii10099" unicode="&#x452;" horiz-adv-x="1142" 
d="M414 850c37.333 32 77.835 57.834 121.502 77.501s95.834 29.5 156.501 29.5c128.667 0 223.5 -40.833 284.5 -122.5s91.5 -202.834 91.5 -363.501c0 -66 -5 -133.333 -15 -202s-24.333 -136.834 -43 -204.501s-41.334 -134 -68.001 -199
s-56.334 -127.167 -89.001 -186.5l-250 90c26 56.667 48.833 112.834 68.5 168.501s35.834 112 48.501 169s22.167 115.5 28.5 175.5s9.5 123 9.5 189c0 48 -4.16699 88.167 -12.5 120.5s-19.833 58.333 -34.5 78s-31.834 33.5 -51.501 41.5s-40.834 12 -63.501 12
c-34 0 -65.833 -7.16699 -95.5 -21.5s-58.5 -33.833 -86.5 -58.5v-643h-310v1064h-146v225h146v208h310v-208h286v-225h-286v-214z" />
    <glyph glyph-name="afii10100" unicode="&#x453;" horiz-adv-x="855" 
d="M835 815h-420v-815h-310v1037h730v-222zM834 1473l-259.998 -263c-15.333 -15.333 -30 -26.166 -44 -32.499s-32.667 -9.5 -56 -9.5h-186l136 245c11.333 19.333 24.666 34.166 39.999 44.499s38.666 15.5 69.999 15.5h300z" />
    <glyph glyph-name="afii10101" unicode="&#x454;" horiz-adv-x="983" 
d="M871 800c-9.33301 -11.333 -18.333 -20.167 -27 -26.5s-21 -9.5 -37 -9.5c-15.333 0 -29.333 3.16699 -42 9.5l-43 21c-16 7.66699 -34.5 14.667 -55.5 21s-46.833 9.5 -77.5 9.5c-60.667 0 -109.167 -17 -145.5 -51s-61.166 -81.667 -74.499 -143h391v-203h-394
c12.667 -70.667 38.167 -124.334 76.5 -161.001s85.833 -55 142.5 -55c36 0 64.833 4 86.5 12s40.167 17 55.5 27l42 27c12.667 8 28.334 12 47.001 12c24.667 0 43.334 -9 56.001 -27l85 -101c-32 -36.667 -65.667 -66.5 -101 -89.5s-71.5 -41 -108.5 -54
s-74.167 -22 -111.5 -27s-73.666 -7.5 -108.999 -7.5c-63.333 0 -123.833 12 -181.5 36s-108.334 58.833 -152.001 104.5s-78.334 101.834 -104.001 168.501s-38.5 142.667 -38.5 228c0 74.667 11.167 144.5 33.5 209.5s55.333 121.333 99 169s97.667 85.167 162 112.5
s138.833 41 223.5 41c81.333 0 152.666 -13 213.999 -39s116.666 -64 165.999 -114z" />
    <glyph glyph-name="afii10102" unicode="&#x455;" horiz-adv-x="891" 
d="M764 810c-8 -12.667 -16.5029 -21.667 -25.5029 -27s-20.5 -8 -34.5 -8c-14.667 0 -29.334 3.16699 -44.001 9.5l-47.5 20.5c-17 7.33301 -36.167 14.166 -57.5 20.499s-45.666 9.5 -72.999 9.5c-39.333 0 -69.5 -7.5 -90.5 -22.5s-31.5 -35.833 -31.5 -62.5
c0 -19.333 6.83301 -35.333 20.5 -48s31.834 -23.834 54.501 -33.501s48.334 -18.834 77.001 -27.501s58 -18.334 88 -29.001s59.333 -23.167 88 -37.5s54.334 -32 77.001 -53s40.834 -46.5 54.501 -76.5s20.5 -66 20.5 -108c0 -51.333 -9.33301 -98.666 -28 -141.999
s-46.5 -80.666 -83.5 -111.999s-82.667 -55.666 -137 -72.999s-116.833 -26 -187.5 -26c-35.333 0 -70.666 3.33301 -105.999 10s-69.5 15.667 -102.5 27s-63.5 24.833 -91.5 40.5s-52 32.5 -72 50.5l72 114c8 13.333 18.167 23.833 30.5 31.5s28.166 11.5 47.499 11.5
c18 0 34.167 -4 48.5 -12l46.5 -26c16.667 -9.33301 36.167 -18 58.5 -26s50.5 -12 84.5 -12c24 0 44.333 2.5 61 7.5s30 11.833 40 20.5s17.333 18.334 22 29.001s7 21.667 7 33c0 20.667 -7 37.667 -21 51s-32.333 24.833 -55 34.5s-48.5 18.667 -77.5 27
s-58.5 17.833 -88.5 28.5s-59.5 23.5 -88.5 38.5s-54.833 34 -77.5 57s-41 51.167 -55 84.5s-21 73.666 -21 120.999c0 44 8.5 85.833 25.5 125.5s42.5 74.5 76.5 104.5s76.667 53.833 128 71.5s111.333 26.5 180 26.5c37.333 0 73.5 -3.33301 108.5 -10
s67.833 -16 98.5 -28s58.667 -26.167 84 -42.5s47.666 -34.166 66.999 -53.499z" />
    <glyph glyph-name="afii10103" unicode="&#x456;" horiz-adv-x="534" 
d="M422 1037v-1037h-310v1037h310zM454 1321c0 -24.667 -5 -47.834 -15 -69.501s-23.667 -40.667 -41 -57s-37.5 -29.333 -60.5 -39s-47.5 -14.5 -73.5 -14.5c-25.333 0 -49 4.83301 -71 14.5s-41.5 22.667 -58.5 39s-30.333 35.333 -40 57s-14.5 44.834 -14.5 69.501
c0 25.333 4.83301 49 14.5 71s23 41.333 40 58s36.5 29.667 58.5 39s45.667 14 71 14c26 0 50.5 -4.66699 73.5 -14s43.167 -22.333 60.5 -39s31 -36 41 -58s15 -45.667 15 -71z" />
    <glyph glyph-name="afii10104" unicode="&#x457;" horiz-adv-x="534" 
d="M422 1037v-1037h-310v1037h310zM254 1295c0 -21.333 -4.33301 -41.333 -13 -60s-20.5 -34.834 -35.5 -48.501s-32.333 -24.5 -52 -32.5s-40.834 -12 -63.501 -12c-21.333 0 -41.5 4 -60.5 12s-35.667 18.833 -50 32.5s-25.833 29.834 -34.5 48.501s-13 38.667 -13 60
c0 22 4.33301 42.667 13 62s20.167 36.166 34.5 50.499s31 25.666 50 33.999s39.167 12.5 60.5 12.5c22.667 0 43.834 -4.16699 63.501 -12.5s37 -19.666 52 -33.999s26.833 -31.166 35.5 -50.499s13 -40 13 -62zM620 1295c0 -21.333 -4.16699 -41.333 -12.5 -60
s-19.833 -34.834 -34.5 -48.501s-31.834 -24.5 -51.501 -32.5s-40.834 -12 -63.501 -12c-22 0 -42.667 4 -62 12s-36.333 18.833 -51 32.5s-26.167 29.834 -34.5 48.501s-12.5 38.667 -12.5 60c0 22 4.16699 42.667 12.5 62s19.833 36.166 34.5 50.499
s31.667 25.666 51 33.999s40 12.5 62 12.5c22.667 0 43.834 -4.16699 63.501 -12.5s36.834 -19.666 51.501 -33.999s26.167 -31.166 34.5 -50.499s12.5 -40 12.5 -62z" />
    <glyph glyph-name="afii10105" unicode="&#x458;" horiz-adv-x="534" 
d="M422 1037l-0.00195312 -1039c0 -48.667 -6.16699 -94.5 -18.5 -137.5s-32.666 -80.667 -60.999 -113s-65.666 -57.833 -111.999 -76.5s-103.833 -28 -172.5 -28c-25.333 0 -48.833 1.5 -70.5 4.5s-44.167 7.5 -67.5 13.5l10 163c1.33301 14 6 24.333 14 31s24 10 48 10
s43.667 2 59 6s27.5 11 36.5 21s15.333 23.5 19 40.5s5.5 38.833 5.5 65.5v1039h310zM453.998 1321c0 -24.667 -5 -47.834 -15 -69.501s-23.667 -40.667 -41 -57s-37.5 -29.333 -60.5 -39s-47.5 -14.5 -73.5 -14.5c-25.333 0 -49 4.83301 -71 14.5s-41.5 22.667 -58.5 39
s-30.333 35.333 -40 57s-14.5 44.834 -14.5 69.501c0 25.333 4.83301 49 14.5 71s23 41.333 40 58s36.5 29.667 58.5 39s45.667 14 71 14c26 0 50.5 -4.66699 73.5 -14s43.167 -22.333 60.5 -39s31 -36 41 -58s15 -45.667 15 -71z" />
    <glyph glyph-name="afii10106" unicode="&#x459;" horiz-adv-x="1697" 
d="M1267 214c41.333 0 72.667 11.501 94 34.501s32 53.167 32 90.5c0 15.333 -2.5 30.166 -7.5 44.499s-12.667 27 -23 38s-23.5 19.667 -39.5 26s-34.667 9.5 -56 9.5h-152v-243h152zM1266 670.001c72.667 0 134.504 -8.83301 185.504 -26.5s92.5 -41.667 124.5 -72
s55.333 -65.5 70 -105.5s22 -82 22 -126c0 -50 -9 -95.833 -27 -137.5s-44.167 -77.5 -78.5 -107.5s-76.333 -53.333 -126 -70s-105.834 -25 -168.501 -25h-463v808h-188c-8.66699 -124 -21.667 -230.333 -39 -319s-37.833 -163.5 -61.5 -224.5s-50.167 -110 -79.5 -147
s-60.5 -65.333 -93.5 -85s-67.333 -32.667 -103 -39s-71.834 -9.5 -108.501 -9.5c-46 0 -78.5 3.83301 -97.5 11.5s-28.5 18.167 -28.5 31.5v186h65c21.333 0 42.333 2.83301 63 8.5s40.667 18 60 37s37.666 46.667 54.999 83s33.166 85 47.499 146s27 136.333 38 226
s19.833 197.5 26.5 323.5h754v-367h151z" />
    <glyph glyph-name="afii10107" unicode="&#x45a;" horiz-adv-x="1627" 
d="M1197 214c41.333 0 72.667 11.501 94 34.501s32 53.167 32 90.5c0 15.333 -2.5 30.166 -7.5 44.499s-12.667 27 -23 38s-23.5 19.667 -39.5 26s-34.667 9.5 -56 9.5h-152v-243h152zM1196 670.001c72.667 0 134.501 -8.83301 185.501 -26.5s92.5 -41.667 124.5 -72
s55.333 -65.5 70 -105.5s22 -82 22 -126c0 -50 -9 -95.833 -27 -137.5s-44.167 -77.5 -78.5 -107.5s-76.333 -53.333 -126 -70s-105.834 -25 -168.501 -25h-463v438h-320v-438h-310v1037h310v-377h320v377h310v-367h151z" />
    <glyph glyph-name="afii10108" unicode="&#x45b;" horiz-adv-x="1140" 
d="M414 908c37.333 32 77.8301 57.832 121.497 77.499s95.834 29.5 156.501 29.5c56.667 0 106.834 -9.83301 150.501 -29.5s80.5 -47 110.5 -82s52.667 -76.667 68 -125s23 -101.166 23 -158.499v-620h-310v620c0 51.333 -11.667 91 -35 119s-57.666 42 -102.999 42
c-34 0 -65.833 -7.16699 -95.5 -21.5s-58.5 -33.833 -86.5 -58.5v-701h-310v1124h-134v184h134v189h310v-189h270v-184h-270v-216z" />
    <glyph glyph-name="afii10109" unicode="&#x45c;" horiz-adv-x="1134" 
d="M715 959c15.333 23.333 35.8311 42.1641 61.498 56.4971s52.5 21.5 80.5 21.5h245l-218 -377c-16.667 -28 -33.667 -50.667 -51 -68s-38.333 -30.666 -63 -39.999c34 -11.333 61.667 -27.333 83 -48s40.333 -46.667 57 -78l217 -426h-214
c-27.333 0 -51.166 2.16699 -71.499 6.5s-38.5 10.833 -54.5 19.5s-30 19.334 -42 32.001s-23 27.334 -33 44.001l-110 261c-10 23.333 -24.5 40.5 -43.5 51.5s-40.833 16.5 -65.5 16.5h-78v-431h-310v1037h310v-411h64c28 0 48.833 4.5 62.5 13.5
s25.834 24.167 36.501 45.5zM968.998 1473l-259.998 -263c-15.333 -15.333 -30 -26.166 -44 -32.499s-32.667 -9.5 -56 -9.5h-186l136 245c11.333 19.333 24.666 34.166 39.999 44.499s38.666 15.5 69.999 15.5h300z" />
    <glyph glyph-name="uni045D" unicode="&#x45d;" horiz-adv-x="1180" 
d="M1075 1037v-1037h-310v528c0 17.333 1 36.166 3 56.499s4.66699 41.166 8 62.499c-16 -36 -33 -66.333 -51 -91c-1.33301 -1.33301 -6.83301 -9.33301 -16.5 -24l-37 -56.5l-51 -77.5l-58.5 -88l-157 -237c-6 -8.66699 -12.833 -17.5 -20.5 -26.5s-16.167 -17 -25.5 -24
s-19.333 -12.667 -30 -17s-22 -6.5 -34 -6.5h-190v1037h310v-528c0 -16.667 -1 -35.334 -3 -56.001s-4.66699 -41.667 -8 -63c16 36 33 66.333 51 91c0.666992 1.33301 6 9.33301 16 24l37.5 56.5l51 77.5l58.5 88l157 237c6 8.66699 12.833 17.5 20.5 26.5
s16.167 17 25.5 24s19.333 12.667 30 17s22 6.5 34 6.5h190zM528 1473c31.333 0 54.668 -5.16699 70.001 -15.5s28.666 -25.166 39.999 -44.499l136 -245h-176c-23.333 0 -42 3.16699 -56 9.5s-28.667 17.166 -44 32.499l-260 263h290z" />
    <glyph glyph-name="afii10110" unicode="&#x45e;" horiz-adv-x="1076" 
d="M1090 1037l-554.002 -1306c-9.33301 -20.667 -20.666 -35.834 -33.999 -45.501s-34.666 -14.5 -63.999 -14.5h-232l200 420l-414 946h274c24 0 42.5 -5.33301 55.5 -16s22.5 -23.334 28.5 -38.001l170 -447c16 -40.667 29 -82.334 39 -125.001l22 64
c7.33301 21.333 15 42.333 23 63l154 445c6 15.333 16.667 28.166 32 38.499s32 15.5 50 15.5h250zM561.998 1308c22.667 0 41.3389 2.33301 56.0059 7s26.167 12.667 34.5 24s14 26.5 17 45.5s4.5 43.167 4.5 72.5h184c10.667 0 19.834 -2.5 27.501 -7.5s14 -11.333 19 -19
s8.83301 -16.334 11.5 -26.001s4 -19.5 4 -29.5c0 -35.333 -8.83301 -66.833 -26.5 -94.5s-42.334 -51.334 -74.001 -71.001s-69.334 -34.667 -113.001 -45s-91.834 -15.5 -144.501 -15.5s-100.834 5.16699 -144.501 15.5s-81.334 25.333 -113.001 45
s-56.334 43.334 -74.001 71.001s-26.5 59.167 -26.5 94.5c0 10 1.33301 19.833 4 29.5s6.5 18.334 11.5 26.001s11.333 14 19 19s16.834 7.5 27.501 7.5h184c0 -29.333 1.5 -53.5 4.5 -72.5s8.66699 -34.167 17 -45.5s19.666 -19.333 33.999 -24s33.166 -7 56.499 -7z" />
    <glyph glyph-name="afii10193" unicode="&#x45f;" horiz-adv-x="1150" 
d="M1045 1037l-0.000976562 -1037h-329v-252c0 -26.667 -8.16699 -48 -24.5 -64s-37.166 -24 -62.499 -24h-195v340h-329v1037h310v-815h320v815h310z" />
    <glyph glyph-name="uni0460" unicode="&#x460;" horiz-adv-x="2154" 
d="M1183 1336c40.667 39.333 90.5049 71.833 149.505 97.5s129.833 38.5 212.5 38.5c98 0 181.167 -19.167 249.5 -57.5s124 -90.666 167 -156.999s74.333 -144 94 -233s29.5 -183.833 29.5 -284.5c0 -115.333 -12 -219.5 -36 -312.5s-60.167 -172.333 -108.5 -238
s-109 -116.334 -182 -152.001s-158.5 -53.5 -256.5 -53.5c-85.333 0 -162.833 13.5 -232.5 40.5s-133.834 66.5 -192.501 118.5c-58.667 -52 -122.834 -91.5 -192.501 -118.5s-147.167 -40.5 -232.5 -40.5c-98 0 -183.5 17.833 -256.5 53.5s-133.667 86.334 -182 152.001
s-84.5 145 -108.5 238s-36 197.167 -36 312.5c0 67.333 4.33301 132.166 13 194.499s22 120.5 40 174.5s41.333 103.333 70 148s63 83 103 115s86 56.667 138 74s110.667 26 176 26c41.333 0 79.5 -3.33301 114.5 -10s67.5 -16 97.5 -28s57.333 -26.333 82 -43
s47.334 -35 68.001 -55l-70 -164c-11.333 -17.333 -22 -28.666 -32 -33.999s-22 -8 -36 -8c-12.667 0 -25 3.33301 -37 10l-39.5 22c-14.333 8 -30.5 15.333 -48.5 22s-39.333 10 -64 10c-36.667 0 -69.834 -9.16699 -99.501 -27.5s-54.834 -46.833 -75.501 -85.5
s-36.5 -87.667 -47.5 -147s-16.5 -130.333 -16.5 -213c0 -73.333 4.66699 -138.333 14 -195s24.833 -104.667 46.5 -144s50 -69.166 85 -89.499s78.5 -30.5 130.5 -30.5c44 0 84.5 7.5 121.5 22.5s71.833 37.5 104.5 67.5v425h340v-425c32.667 -30 67.5 -52.5 104.5 -67.5
s77.5 -22.5 121.5 -22.5c52 0 95.5 10.167 130.5 30.5s63.333 50.166 85 89.499s37.167 87.333 46.5 144s14 121.667 14 195c0 82.667 -5.5 153.667 -16.5 213s-26.833 108.333 -47.5 147s-45.834 67.167 -75.501 85.5s-62.834 27.5 -99.501 27.5
c-24.667 0 -46 -3.33301 -64 -10s-34.167 -14 -48.5 -22l-39.5 -22c-12 -6.66699 -24.333 -10 -37 -10c-14 0 -26 2.66699 -36 8s-20.667 16.666 -32 33.999z" />
    <glyph glyph-name="uni0461" unicode="&#x461;" horiz-adv-x="1582" 
d="M1468 1037c13.333 -64 23 -122.168 29 -174.501s9 -104.5 9 -156.5c0 -78.667 -6.5 -151.167 -19.5 -217.5s-31.833 -128 -56.5 -185s-55.167 -110.333 -91.5 -160s-77.5 -97.5 -123.5 -143.5h-181c-16 0 -28.667 2.83301 -38 8.5s-20 15.167 -32 28.5
c-30 34 -60.333 72.833 -91 116.5s-58.334 90.834 -83.001 141.501c-24 -50 -51.167 -97 -81.5 -141s-60.833 -83 -91.5 -117l-15.5 -17c-4.33301 -4.66699 -8.83301 -8.5 -13.5 -11.5s-9.66699 -5.16699 -15 -6.5s-12.333 -2 -21 -2h-186c-37.333 38 -73 79.333 -107 124
s-63.833 91.5 -89.5 140.5s-46 99.5 -61 151.5s-22.5 104.333 -22.5 157v464h213c15.333 0 28.333 -2.33301 39 -7s19.5 -11 26.5 -19s12.167 -17.167 15.5 -27.5s5 -20.833 5 -31.5v-346c0 -68.667 12.167 -130.5 36.5 -185.5s54.833 -102.5 91.5 -142.5
c18 19.333 34.667 40.833 50 64.5s28.833 49.334 40.5 77.001s20.834 56.834 27.501 87.501s10 63 10 97v433h213c15.333 0 28.333 -2.33301 39 -7s19.5 -11 26.5 -19s12.167 -17.167 15.5 -27.5s5 -20.833 5 -31.5v-336c0 -68 10.833 -129.667 32.5 -185
s53.167 -106 94.5 -152c18 20 35.5 43.333 52.5 70s32.167 57.167 45.5 91.5s24 73.166 32 116.499s12 91.333 12 144c0 39.333 -2 73.166 -6 101.499s-8.5 52.833 -13.5 73.5s-9.5 38.5 -13.5 53.5s-6 29.167 -6 42.5c0 16 5.33301 30.833 16 44.5s26 20.5 46 20.5h236z
" />
    <glyph glyph-name="afii10146" unicode="&#x462;" horiz-adv-x="1488" 
d="M908 255c44.667 0 81.334 5 110.001 15s51.167 23.5 67.5 40.5s27.5 36.167 33.5 57.5s9 43.666 9 66.999c0 26.667 -3 51.334 -9 74.001s-17.167 42.167 -33.5 58.5s-38.833 29 -67.5 38s-65.334 13.5 -110.001 13.5h-196v-364h196zM908 874
c100.667 0 186.167 -11 256.5 -33s127.5 -51.5 171.5 -88.5s76 -80 96 -129s30 -100.5 30 -154.5c0 -70 -12.5 -133.833 -37.5 -191.5s-61.167 -107 -108.5 -148s-105.333 -72.833 -174 -95.5s-146.667 -34 -234 -34h-534v1033h-336v239h336v185h338v-185h407v-239h-407
v-159h196z" />
    <glyph glyph-name="afii10194" unicode="&#x463;" horiz-adv-x="1149" 
d="M727 214c41.333 0 72.667 11.501 94 34.501s32 53.167 32 90.5c0 15.333 -2.5 30.166 -7.5 44.499s-12.667 27 -23 38s-23.5 19.667 -39.5 26s-34.667 9.5 -56 9.5h-172v-243h172zM726.001 670.001c72.667 0 134.501 -8.83301 185.501 -26.5s92.5 -41.667 124.5 -72
s55.333 -65.5 70 -105.5s22 -82 22 -126c0 -50 -9 -95.833 -27 -137.5s-44.167 -77.5 -78.5 -107.5s-76.333 -53.333 -126 -70s-105.834 -25 -168.501 -25h-467v810h-236v225h236v256h294v-256h302v-225h-302v-140h171z" />
    <glyph glyph-name="uni0464" unicode="&#x464;" horiz-adv-x="1917" 
d="M1898 216c-56 -76.667 -126.668 -134.498 -212.001 -173.498s-186 -58.5 -302 -58.5c-97.333 0 -185.333 15.667 -264 47s-147 75 -205 131s-104.667 122.667 -140 200s-58.333 162 -69 254h-225v-616h-340v1457h340v-599h228c12.667 91.333 38.334 174.833 77.001 250.5
s88 140.5 148 194.5s129.333 95.833 208 125.5s164.667 44.5 258 44.5c52.667 0 102.5 -4.83301 149.5 -14.5s90.667 -23 131 -40s77.5 -37.5 111.5 -61.5s64 -50 90 -78l-114 -153c-7.33301 -9.33301 -16 -17.833 -26 -25.5s-24 -11.5 -42 -11.5s-34.333 5.5 -49 16.5
s-32.5 23 -53.5 36s-47 25 -78 36s-71.5 16.5 -121.5 16.5c-44 0 -84.833 -7.33301 -122.5 -22s-71.334 -36.334 -101.001 -65.001s-54.667 -63.834 -75 -105.501s-34.833 -89.5 -43.5 -143.5h555v-242h-557c8.66699 -57.333 24 -108 46 -152s48.5 -81 79.5 -111
s65.833 -52.667 104.5 -68s79.334 -23 122.001 -23c28.667 0 54.667 1.5 78 4.5s45 8 65 15s39.167 16.333 57.5 28s36.833 26.5 55.5 44.5c8 6.66699 16.667 12.167 26 16.5s19 6.5 29 6.5c8 0 16 -1.5 24 -4.5s15.667 -8.16699 23 -15.5z" />
    <glyph glyph-name="uni0465" unicode="&#x465;" horiz-adv-x="1405" 
d="M1222 301c6.66699 0 13.498 -1.33203 20.498 -3.99902s13.5 -7 19.5 -13l118 -125c-39.333 -57.333 -90 -100 -152 -128s-134.333 -42 -217 -42c-69.333 0 -131.833 10.667 -187.5 32s-104 51 -145 89s-74.5 83 -100.5 135s-43.667 109 -53 171h-121v-416h-299v1037h299
v-409h123c10.667 62 30.167 118.833 58.5 170.5s64 95.834 107 132.501s92.333 65.167 148 85.5s116.167 30.5 181.5 30.5c38.667 0 75.167 -3.66699 109.5 -11s66.333 -17.333 96 -30s56.5 -27.667 80.5 -45s45 -36 63 -56l-101 -136c-6 -8 -13.5 -15.167 -22.5 -21.5
s-21.167 -9.5 -36.5 -9.5s-27.833 3.33301 -37.5 10l-33 22c-12.333 8 -27.5 15.333 -45.5 22s-43 10 -75 10c-46 0 -85.167 -14.833 -117.5 -44.5s-55.166 -72.834 -68.499 -129.501h347v-212h-347c14.667 -60.667 40 -106.334 76 -137.001s76.333 -46 121 -46
c14.667 0 28.334 0.5 41.001 1.5s24.834 3.33301 36.501 7s22.667 8.66699 33 15s21.166 14.833 32.499 25.5c7.33301 5.33301 14.833 9.83301 22.5 13.5s16.167 5.5 25.5 5.5z" />
    <glyph glyph-name="uni0466" unicode="&#x466;" horiz-adv-x="1496" 
d="M887 772l-69.002 184c-11.333 28 -23.166 60.667 -35.499 98s-24.166 78 -35.499 122c-11.333 -44 -22.833 -85 -34.5 -123s-23.167 -71 -34.5 -99l-69 -182h278zM1535 0h-272.001c-29.333 -0 -53.166 6.83301 -71.499 20.5s-31.833 31.167 -40.5 52.5l-177 469h-68v-542
h-320v542h-64l-177 -469c-7.33301 -18.667 -20.5 -35.5 -39.5 -50.5s-42.5 -22.5 -70.5 -22.5h-274l624 1457h326z" />
    <glyph glyph-name="uni0467" unicode="&#x467;" horiz-adv-x="1203" 
d="M661 602c-9.33301 23.333 -19.335 51.333 -30.002 84s-21 68 -31 106c-9.33301 -38.667 -19.166 -74.5 -29.499 -107.5s-20.166 -61.167 -29.499 -84.5l-32 -76h185zM1225 0l-240.002 -0.000976562c-25.333 0 -46.166 6 -62.499 18s-28.166 27 -35.499 45l-109 259h-38
v-322h-281v322h-34l-109 -259c-6.66699 -15.333 -18.167 -29.666 -34.5 -42.999s-36.833 -20 -61.5 -20h-242l480 1037h287z" />
    <glyph glyph-name="uni0468" unicode="&#x468;" horiz-adv-x="2115" 
d="M1506 772l-69.002 184c-11.333 28 -23.166 60.667 -35.499 98s-24.166 78 -35.499 122c-11.333 -44 -22.833 -85 -34.5 -123s-23.167 -71 -34.5 -99l-69 -182h278zM2154 0h-272.001c-29.333 -0 -53.166 6.83301 -71.499 20.5s-31.833 31.167 -40.5 52.5l-177 469h-68
v-542h-320v542h-64l-177 -469c-7.33301 -18.667 -20.5 -35.5 -39.5 -50.5s-42.5 -22.5 -70.5 -22.5h-274l232 542h-331v-542h-340v1457h340v-685h430l293 685h326z" />
    <glyph glyph-name="uni0469" unicode="&#x469;" horiz-adv-x="1690" 
d="M1149 602c-9.33301 23.333 -19.333 51.333 -30 84s-21 68 -31 106c-9.33301 -38.667 -19.333 -74.5 -30 -107.5s-20.667 -61.167 -30 -84.5l-32 -76h186zM1712 0l-240 -0.000976562c-25.333 0 -46.166 6 -62.499 18s-28.166 27 -35.499 45l-108 259h-38v-322h-281v322
h-35l-108 -259c-6.66699 -15.333 -18.334 -29.666 -35.001 -42.999s-37.334 -20 -62.001 -20h-242l149 322h-210v-322h-299v1037h299v-513h304l237 513h288z" />
    <glyph glyph-name="uni046A" unicode="&#x46a;" horiz-adv-x="1766" 
d="M695 1058l65.5 -80c19.667 -24 37.334 -47.167 53.001 -69.5s29.167 -44.5 40.5 -66.5s20.666 -46 27.999 -72c7.33301 26 16.666 50 27.999 72s24.833 44.167 40.5 66.5s33.334 45.5 53.001 69.5l65.5 80l125 168h-624zM1770 0h-273.997c-28 0 -51.5 7.5 -70.5 22.5
s-32.167 31.833 -39.5 50.5l-121 384c-10.667 32.667 -21.834 59.5 -33.501 80.5s-25.667 37.5 -42 49.5s-35.833 20.167 -58.5 24.5s-50.334 6.5 -83.001 6.5h-9v-618h-320v618c-32 0 -59.333 -2.16699 -82 -6.5s-42.167 -12.5 -58.5 -24.5s-30.333 -28.5 -42 -49.5
s-22.834 -47.833 -33.501 -80.5l-121 -384c-7.33301 -18.667 -20.5 -35.5 -39.5 -50.5s-42.5 -22.5 -70.5 -22.5h-274l186 483c18 46 38.167 88 60.5 126s48 71.667 77 101s61.5 54.166 97.5 74.499s76.667 35.833 122 46.5l-499 625h1680l-498 -624
c90.667 -21.333 164.5 -61.666 221.5 -120.999s103.167 -135.333 138.5 -228z" />
    <glyph glyph-name="uni046B" unicode="&#x46b;" horiz-adv-x="1389" 
d="M531 800l56.5 -69c17 -20.667 32.333 -40.667 46 -60s25.5 -38.666 35.5 -57.999s18.333 -40.333 25 -63c6 22.667 14 43.667 24 63s21.833 38.666 35.5 57.999s29 39.333 46 60l56.5 69l29 34h-383zM1395 0l-242.004 -0.000976562c-24.667 0 -45.167 6.66699 -61.5 20
s-28.166 27.666 -35.499 42.999l-78 235c-8 23.333 -16.167 42.5 -24.5 57.5s-18 27 -29 36s-24 15.333 -39 19s-33.167 6.16699 -54.5 7.5v-418h-281v417c-19.333 -1.33301 -35.833 -4 -49.5 -8s-25.834 -10.5 -36.501 -19.5s-20 -20.833 -28 -35.5
s-15.667 -33.334 -23 -56.001l-78 -235c-7.33301 -15.333 -19.166 -29.666 -35.499 -42.999s-36.833 -20 -61.5 -20h-242l137 320c14.667 34.667 30.334 66.5 47.001 95.5s35.334 55.167 56.001 78.5s43.667 43.5 69 60.5s54 30.833 86 41.5l-369 440h1343l-369 -439
c32.667 -10 62 -23.667 88 -41s49.333 -37.666 70 -60.999s39.334 -49.666 56.001 -78.999s32.667 -61.333 48 -96z" />
    <glyph glyph-name="uni046C" unicode="&#x46c;" horiz-adv-x="2401" 
d="M1331 1058l65.5 -80c19.667 -24 37.334 -47.167 53.001 -69.5s29.167 -44.5 40.5 -66.5s20.666 -46 27.999 -72c7.33301 26 16.666 50 27.999 72s24.833 44.167 40.5 66.5s33.334 45.5 53.001 69.5l65.5 80l125 168h-624zM2406 0h-274c-28 0 -51.5 7.5 -70.5 22.5
s-32.167 31.833 -39.5 50.5l-121 384c-10.667 32.667 -21.834 59.5 -33.501 80.5s-25.667 37.5 -42 49.5s-35.833 20.167 -58.5 24.5s-50.334 6.5 -83.001 6.5h-9v-618h-320v618h-3c-31.333 0 -58.166 -2.16699 -80.499 -6.5s-41.666 -12.333 -57.999 -24
s-30.5 -28 -42.5 -49s-23.333 -48.167 -34 -81.5l-123 -384c-7.33301 -18.667 -20.5 -35.5 -39.5 -50.5s-42.5 -22.5 -70.5 -22.5h-274l186 483c10.667 28 27.667 53.167 51 75.5s51.333 42.166 84 59.499h-470v-618h-340v1457h340v-609h682l-485 608h1680l-498 -624
c90.667 -21.333 164.5 -61.666 221.5 -120.999s103.167 -135.333 138.5 -228z" />
    <glyph glyph-name="uni046D" unicode="&#x46d;" horiz-adv-x="1885" 
d="M1029 800l56.5 -69c17 -20.667 32.333 -40.667 46 -60s25.5 -38.666 35.5 -57.999s18.333 -40.333 25 -63c6 22.667 14 43.667 24 63s21.833 38.666 35.5 57.999s29 39.333 46 60l56.5 69l29 34h-383zM1892 0l-242.004 -0.000976562c-24.667 0 -45.167 6.66699 -61.5 20
s-28.166 27.666 -35.499 42.999l-78 235c-8 23.333 -16.167 42.5 -24.5 57.5s-18 27 -29 36s-24 15.333 -39 19s-32.833 6.16699 -53.5 7.5v-418h-281v417c-19.333 -1.33301 -36 -3.83301 -50 -7.5s-26.333 -10 -37 -19s-20.167 -21 -28.5 -36
s-16.166 -33.833 -23.499 -56.5l-81 -235c-6.66699 -15.333 -18.167 -29.666 -34.5 -42.999s-36.833 -20 -61.5 -20h-241l137 320c7.33301 20 19.666 38.167 36.999 54.5s38 30.833 62 43.5h-323v-418h-299v1037h299v-417h465l-349 416h1343l-369 -439
c32.667 -10.667 61.834 -24.5 87.501 -41.5s48.834 -37.167 69.501 -60.5s39.334 -49.666 56.001 -78.999s32.667 -61.333 48 -96z" />
    <glyph glyph-name="uni046E" unicode="&#x46e;" horiz-adv-x="1149" 
d="M824 -392c-2 31.333 -12.3389 52.8369 -31.0059 64.5039s-49 17.5 -91 17.5c-15.333 0 -28.833 -0.5 -40.5 -1.5s-24.167 -2.16699 -37.5 -3.5s-28.666 -2.5 -45.999 -3.5s-39.333 -1.5 -66 -1.5c-167.333 0 -291.833 25 -373.5 75s-122.5 128 -122.5 234
c0 48.667 8.16699 92 24.5 130s40 70.167 71 96.5s68.833 46.5 113.5 60.5s95.334 21 152.001 21c41.333 0 78.333 -2.66699 111 -8s64.334 -8 95.001 -8c60.667 0 105.5 15.667 134.5 47s43.5 72.333 43.5 123c0 33.333 -6.16699 61.5 -18.5 84.5
s-29.666 41.5 -51.999 55.5s-49 24 -80 30s-65.167 8.66699 -102.5 8h-212l-1 262h185c84 0 146.333 14.167 187 42.5s61 69.5 61 123.5c0 46 -18.667 82.5 -56 109.5s-93.333 40.5 -168 40.5c-43.333 0 -81.166 -4.83301 -113.499 -14.5s-61 -20.5 -86 -32.5l-66 -32.5
c-19 -9.66699 -36.5 -14.5 -52.5 -14.5c-17.333 0 -31.5 4 -42.5 12s-21.5 20 -31.5 36l-84 157c56.667 48 126.5 85.833 209.5 113.5s172.833 41.5 269.5 41.5c82 0 156.167 -9.5 222.5 -28.5s122.833 -45.5 169.5 -79.5s82.5 -74.833 107.5 -122.5
s37.5 -100.167 37.5 -157.5c0 -63.333 -13.5 -122.5 -40.5 -177.5s-69.5 -100.833 -127.5 -137.5c30 -15.333 57.333 -33.5 82 -54.5s45.834 -44.667 63.501 -71s31.5 -55.833 41.5 -88.5s15 -68.334 15 -107.001c0 -54 -10 -107.167 -30 -159.5s-51.333 -99 -94 -140
s-97 -74 -163 -99s-145.333 -37.5 -238 -37.5c-21.333 0 -40 0.666992 -56 2s-30 2.66602 -42 3.99902s-22.833 2.66602 -32.5 3.99902s-18.834 2 -27.501 2c-21.333 0 -37.166 -4.33301 -47.499 -13s-15.5 -20.667 -15.5 -36c0 -18 9 -31.167 27 -39.5s52 -12.5 102 -12.5
c21.333 0 43.5 0.5 66.5 1.5s45.667 2.16699 68 3.5s43.5 2.5 63.5 3.5s38 1.5 54 1.5c52 0 95.333 -6.16699 130 -18.5s62.167 -29.333 82.5 -51s34.833 -47.5 43.5 -77.5s13 -62.667 13 -98c0 -8.66699 -0.5 -17.834 -1.5 -27.501s-3.83301 -18.5 -8.5 -26.5
s-11.5 -14.5 -20.5 -19.5s-21.833 -7.5 -38.5 -7.5h-89v0z" />
    <glyph glyph-name="uni046F" unicode="&#x46f;" horiz-adv-x="892" 
d="M582 1028c37.333 -11.333 70.6709 -25.8291 100.004 -43.4961s54 -37.834 74 -60.501s35.167 -47.167 45.5 -73.5s15.5 -53.5 15.5 -81.5c0 -19.333 -2.66699 -39.166 -8 -59.499s-14 -40.333 -26 -60s-28 -38 -48 -55s-44.667 -31.833 -74 -44.5
c28.667 -12 53.834 -26.5 75.501 -43.5s39.667 -35.667 54 -56s25.166 -41.833 32.499 -64.5s11 -45.667 11 -69c0 -46.667 -8.83301 -89.834 -26.5 -129.501s-43.334 -74 -77.001 -103s-75 -51.667 -124 -68s-104.833 -24.5 -167.5 -24.5c-24 0 -48 0.833008 -72 2.5
s-42.667 2.5 -56 2.5c-15.333 0 -27.666 -2.5 -36.999 -7.5s-14 -15.167 -14 -30.5c0 -18.667 6.83301 -31.167 20.5 -37.5s33.167 -9.5 58.5 -9.5c14 0 30.333 0.5 49 1.5s38.334 2.16699 59.001 3.5s40.834 2.5 60.501 3.5s37.5 1.5 53.5 1.5
c52 0 95.333 -6.16699 130 -18.5s62.167 -29.333 82.5 -51s34.833 -47.5 43.5 -77.5s13 -62.667 13 -98c0 -8.66699 -0.5 -17.667 -1.5 -27s-3.83301 -18 -8.5 -26s-11.5 -14.5 -20.5 -19.5s-21.833 -7.5 -38.5 -7.5h-89c-2 31.333 -12.333 52.833 -31 64.5
s-49 17.5 -91 17.5c-30.667 0 -61.334 -1.66699 -92.001 -5s-61.334 -5 -92.001 -5c-48.667 0 -94.334 6.16699 -137.001 18.5s-79.834 30.666 -111.501 54.999s-56.667 54.5 -75 90.5s-27.5 77.333 -27.5 124c0 36.667 6 70.667 18 102s30 58.5 54 81.5s54 41.167 90 54.5
s77.667 20 125 20c18 0 37 -0.833008 57 -2.5s36 -2.5 48 -2.5c21.333 0 40.333 3.16699 57 9.5s30.5 14.5 41.5 24.5s19.333 21.667 25 35s8.5 27 8.5 41c0 40 -12.833 69.667 -38.5 89s-69.834 29 -132.501 29h-117v193h117c55.333 0 97 9 125 27s42 42.667 42 74
c0 30 -12.333 53 -37 69s-60 24 -106 24c-32 0 -59 -3.33301 -81 -10s-41 -13.834 -57 -21.501s-30.167 -14.834 -42.5 -21.501s-24.833 -10 -37.5 -10c-14 0 -26 2.66699 -36 8s-20.667 16.666 -32 33.999l-70 116c32.667 32 70.667 58.833 114 80.5
s94.333 36.834 153 45.501l-214 264h176c22 0 40.333 -2.5 55 -7.5s27.667 -15.167 39 -30.5l48 -72c6 -8 12.167 -16.667 18.5 -26s12.166 -19.333 17.499 -30c11.333 22 23.333 40.667 36 56l51 70c12 16 29 28.5 51 37.5s47.333 13.5 76 13.5
c19.333 0 37.333 -1.83301 54 -5.5s32.667 -8.16699 48 -13.5v-137h-15c-18 0 -32 -4.5 -42 -13.5s-18.667 -17.5 -26 -25.5z" />
    <glyph glyph-name="uni0470" unicode="&#x470;" horiz-adv-x="1698" 
d="M1623 1457l0.000976562 -526c0 -84.667 -12.833 -161.667 -38.5 -231s-63.834 -129.166 -114.501 -179.499s-114 -90.666 -190 -120.999s-164 -48.833 -264 -55.5v-344h-340v345c-100 6.66699 -187.5 25.167 -262.5 55.5s-137.833 70.666 -188.5 120.999
s-88.667 110.166 -114 179.499s-38 146 -38 230v526h228c35.333 0 62.833 -10.5 82.5 -31.5s29.5 -46.833 29.5 -77.5v-417c0 -49.333 3.83301 -93 11.5 -131s21.334 -70.5 41.001 -97.5s46.5 -48.5 80.5 -64.5s77.333 -26.333 130 -31v850h340v-851
c53.333 4.66699 97.166 15 131.499 31s61.5 37.5 81.5 64.5s34 59.5 42 97.5s12 82 12 132v417c0 30.667 9.83301 56.5 29.5 77.5s47.167 31.5 82.5 31.5h228z" />
    <glyph glyph-name="uni0471" unicode="&#x471;" horiz-adv-x="1629" 
d="M1499 1037c8 -42.667 15.002 -84.168 21.002 -124.501s11.333 -80.5 16 -120.5s8.16699 -80.167 10.5 -120.5s3.5 -81.5 3.5 -123.5c0 -98 -14.833 -180.833 -44.5 -248.5s-70.334 -123 -122.001 -166s-112.834 -75.667 -183.501 -98s-147 -37.166 -229 -44.499v-320
h-310v318c-104 8.66699 -192.333 27.167 -265 55.5s-131.667 65 -177 110s-78.333 98 -99 159s-31 128.833 -31 203.5v520h216c12.667 0 24.667 -3.66699 36 -11s21.333 -16.5 30 -27.5s15.5 -23.167 20.5 -36.5s7.5 -26 7.5 -38v-407c0 -84 22.333 -149 67 -195
s109.667 -76.333 195 -91v1226h310v-1231c45.333 6 84.833 15.833 118.5 29.5s61.5 33.167 83.5 58.5s38.5 57 49.5 95s16.5 84.333 16.5 139c0 56.667 -2.5 103.667 -7.5 141s-10.667 70 -17 98l-17 77c-5 23.333 -7.5 49 -7.5 77c0 18 2.5 33 7.5 45
s11.5 21.833 19.5 29.5s17.167 13.167 27.5 16.5s20.5 5 30.5 5h224z" />
    <glyph glyph-name="afii10147" unicode="&#x472;" horiz-adv-x="1629" 
d="M411 616c8.66699 -55.333 24.168 -104.833 46.501 -148.5s50.666 -80.5 84.999 -110.5s74.333 -53 120 -69s96.5 -24 152.5 -24s106.667 8 152 24s85 39 119 69s62 66.833 84 110.5s37.667 93.167 47 148.5h-806zM1214 858c-20 106.667 -64.168 189.334 -132.501 248.001
s-157.166 88 -266.499 88c-110 0 -199.333 -29.333 -268 -88s-113 -141.334 -133 -248.001h800zM815 1473c113.333 0 216.5 -19.166 309.5 -57.499s172.5 -90.833 238.5 -157.5s117.167 -145.334 153.5 -236.001s54.5 -188.334 54.5 -293.001
c0 -105.333 -18.167 -203.333 -54.5 -294s-87.5 -169.5 -153.5 -236.5s-145.5 -119.5 -238.5 -157.5s-196.167 -57 -309.5 -57s-216.666 19 -309.999 57s-173.166 90.5 -239.499 157.5s-117.666 145.833 -153.999 236.5s-54.5 188.667 -54.5 294s18.167 203.333 54.5 294
s87.666 169.334 153.999 236.001s146.166 119 239.499 157s196.666 57 309.999 57z" />
    <glyph glyph-name="afii10195" unicode="&#x473;" horiz-adv-x="1162" 
d="M357 431c10.667 -77.333 35.332 -134.333 73.999 -171s89.334 -55 152.001 -55c60.667 0 110.167 18.333 148.5 55s62.833 93.667 73.5 171h-448zM801.998 625c-12 70.667 -36.832 123 -74.499 157s-85.834 51 -144.501 51c-60 0 -109 -17 -147 -51
s-63.333 -86.333 -76 -157h442zM582.999 1053c78.667 0 150.334 -12.333 215.001 -37s120.167 -60 166.5 -106s82.333 -101.833 108 -167.5s38.5 -139.5 38.5 -221.5c0 -82.667 -12.833 -157.167 -38.5 -223.5s-61.667 -122.666 -108 -168.999s-101.833 -82 -166.5 -107
s-136.334 -37.5 -215.001 -37.5c-79.333 0 -151.5 12.5 -216.5 37.5s-121 60.667 -168 107s-83.333 102.666 -109 168.999s-38.5 140.833 -38.5 223.5c0 82 12.833 155.833 38.5 221.5s62 121.5 109 167.5s103 81.333 168 106s137.167 37 216.5 37z" />
    <glyph glyph-name="afii10148" unicode="&#x474;" horiz-adv-x="1453" 
d="M966 1226c26.667 82 66.999 143.001 120.999 183.001s128.333 60 223 60c28.667 0 51.834 -1.16699 69.501 -3.5s31 -6 40 -11s15 -11.333 18 -19s4.5 -16.834 4.5 -27.501v-204h-55c-30.667 0 -56 -8 -76 -24s-36.667 -42 -50 -78l-402 -1102h-306l-584 1457h272
c29.333 0 53 -6.83301 71 -20.5s31.667 -31.167 41 -52.5l282 -780c13.333 -34 26.333 -71.167 39 -111.5s24.667 -82.5 36 -126.5c9.33301 44 19.833 86.167 31.5 126.5s24.167 77.5 37.5 111.5z" />
    <glyph glyph-name="afii10196" unicode="&#x475;" horiz-adv-x="1121" 
d="M687 828c13.333 46 29.168 83.5 47.501 112.5s39.166 51.833 62.499 68.5s49 28 77 34s58.667 9 92 9c27.333 0 49.5 -1.5 66.5 -4.5s30.167 -6.83301 39.5 -11.5s15.666 -9.33398 18.999 -14.001s5 -9 5 -13v-165h-32c-25.333 0 -47.666 -5.33301 -66.999 -16
s-33.333 -28 -42 -52l-274 -776h-282l-406 1037h258c22 0 40.5 -5.16699 55.5 -15.5s25.167 -23.166 30.5 -38.499l148 -465c13.333 -38.667 25 -76.667 35 -114s18.667 -75 26 -113c8 37.333 16.833 74.5 26.5 111.5s20.5 75.5 32.5 115.5z" />
    <glyph glyph-name="uni0476" unicode="&#x476;" horiz-adv-x="1453" 
d="M966 1226c26.667 82 66.999 143.001 120.999 183.001s128.333 60 223 60c28.667 0 51.834 -1.16699 69.501 -3.5s31 -6 40 -11s15 -11.333 18 -19s4.5 -16.834 4.5 -27.501v-204h-55c-30.667 0 -56 -8 -76 -24s-36.667 -42 -50 -78l-402 -1102h-306l-584 1457h272
c29.333 0 53 -6.83301 71 -20.5s31.667 -31.167 41 -52.5l282 -780c13.333 -34 26.333 -71.167 39 -111.5s24.667 -82.5 36 -126.5c9.33301 44 19.833 86.167 31.5 126.5s24.167 77.5 37.5 111.5zM757.999 1829c31.333 0 57 -5.33203 77 -15.999s35.667 -25.334 47 -44.001
l129 -218h-146c-11.333 0 -21.5 1 -30.5 3s-17.333 4.83301 -25 8.5s-15 8.16699 -22 13.5l-22.5 18l-207 235h200zM367.999 1829c31.333 0 57.334 -5.66797 78.001 -17.001s38.667 -25.666 54 -42.999l181 -218h-166c-23.333 0 -43.333 3.66699 -60 11
s-33.334 18 -50.001 32l-267 235h230z" />
    <glyph glyph-name="uni0477" unicode="&#x477;" horiz-adv-x="1121" 
d="M687 828c13.333 46 29.168 83.5 47.501 112.5s39.166 51.833 62.499 68.5s49 28 77 34s58.667 9 92 9c27.333 0 49.5 -1.5 66.5 -4.5s30.167 -6.83301 39.5 -11.5s15.666 -9.33398 18.999 -14.001s5 -9 5 -13v-165h-32c-25.333 0 -47.666 -5.33301 -66.999 -16
s-33.333 -28 -42 -52l-274 -776h-282l-406 1037h258c22 0 40.5 -5.16699 55.5 -15.5s25.167 -23.166 30.5 -38.499l148 -465c13.333 -38.667 25 -76.667 35 -114s18.667 -75 26 -113c8 37.333 16.833 74.5 26.5 111.5s20.5 75.5 32.5 115.5zM590.002 1473
c31.333 0 55 -5.16895 71 -15.502s29 -25.166 39 -44.499l116 -245h-126c-23.333 0 -42.5 2.83301 -57.5 8.5s-29.167 16.834 -42.5 33.501l-200 263h200zM230.002 1473c15.333 0 28.501 -1.33398 39.501 -4.00098s20.667 -6.66699 29 -12s15.666 -11.666 21.999 -18.999
s12.833 -15.666 19.5 -24.999l176 -245h-146c-23.333 0 -42 3.16699 -56 9.5s-28.667 17.166 -44 32.499l-260 263h220z" />
    <glyph glyph-name="uni0478" unicode="&#x478;" horiz-adv-x="2692" 
d="M1572 729c0 -105.333 -18.167 -203.332 -54.5 -293.999s-87.5 -169.5 -153.5 -236.5s-145.5 -119.5 -238.5 -157.5s-196.167 -57 -309.5 -57s-216.666 19 -309.999 57s-173.166 90.5 -239.499 157.5s-117.666 145.833 -153.999 236.5s-54.5 188.667 -54.5 294
s18.167 203.333 54.5 294s87.666 169.334 153.999 236.001s146.166 119 239.499 157s196.666 57 309.999 57s216.5 -19.167 309.5 -57.5s172.5 -90.833 238.5 -157.5s117.167 -145.334 153.5 -236.001s54.5 -188.334 54.5 -293.001zM1226 729.001
c0 72 -9.33301 136.833 -28 194.5s-45.5 106.5 -80.5 146.5s-77.833 70.667 -128.5 92s-108.334 32 -173.001 32c-65.333 0 -123.5 -10.667 -174.5 -32s-94 -52 -129 -92s-61.833 -88.833 -80.5 -146.5s-28 -122.5 -28 -194.5c0 -72.667 9.33301 -137.834 28 -195.501
s45.5 -106.5 80.5 -146.5s78 -70.5 129 -91.5s109.167 -31.5 174.5 -31.5c64.667 0 122.334 10.5 173.001 31.5s93.5 51.5 128.5 91.5s61.833 88.833 80.5 146.5s28 122.834 28 195.501zM2712 1037l-554 -1306c-9.33301 -20.667 -20.666 -35.834 -34 -45.501
c-13.333 -9.66699 -34.666 -14.5 -64 -14.5h-232l200 420l-414 946h274c24 0 42.5 -5.33301 55.5 -16s22.5 -23.334 28.5 -38.001l170 -447c16 -40.667 29 -82.334 39 -125.001l22 64c7.33301 21.333 15 42.333 23 63l154 445c6 15.333 16.667 28.166 32 38.499
s32 15.5 50 15.5h250z" />
    <glyph glyph-name="uni0479" unicode="&#x479;" horiz-adv-x="2255" 
d="M583 1053c78.667 0 150.334 -12.333 215.001 -37s120.167 -60 166.5 -106s82.333 -101.833 108 -167.5s38.5 -139.5 38.5 -221.5c0 -82.667 -12.833 -157.167 -38.5 -223.5s-61.667 -122.666 -108 -168.999s-101.833 -82 -166.5 -107s-136.334 -37.5 -215.001 -37.5
c-79.333 0 -151.5 12.5 -216.5 37.5s-121 60.667 -168 107s-83.333 102.666 -109 168.999s-38.5 140.833 -38.5 223.5c0 82 12.833 155.833 38.5 221.5s62 121.5 109 167.5s103 81.333 168 106s137.167 37 216.5 37zM583 214c71.333 0 123.833 25.167 157.5 75.5
s50.5 126.833 50.5 229.5s-16.833 179 -50.5 229s-86.167 75 -157.5 75c-73.333 0 -127 -25 -161 -75s-51 -126.333 -51 -229s17 -179.167 51 -229.5s87.667 -75.5 161 -75.5zM2269 1037l-554.002 -1306c-9.33301 -20.667 -20.666 -35.834 -33.999 -45.501
s-34.666 -14.5 -63.999 -14.5h-232l200 420l-414 946h274c24 0 42.5 -5.33301 55.5 -16s22.5 -23.334 28.5 -38.001l170 -447c16 -40.667 29 -82.334 39 -125.001l22 64c7.33301 21.333 15 42.333 23 63l154 445c6 15.333 16.667 28.166 32 38.499s32 15.5 50 15.5h250z" />
    <glyph glyph-name="uni047A" unicode="&#x47a;" horiz-adv-x="1753" 
d="M1055 277c46.667 12 88.332 30.8369 124.999 56.5039s67.667 57.667 93 96s44.5 82.666 57.5 132.999s19.5 105.833 19.5 166.5c0 122 -25.333 221.833 -76 299.5s-123 128.167 -217 151.5c-21.333 -22.667 -47 -40.5 -77 -53.5s-63 -19.5 -99 -19.5
s-69.167 6.66699 -99.5 20s-56.166 31.666 -77.499 54.999c-48 -11.333 -90.667 -29.666 -128 -54.999s-68.833 -57.333 -94.5 -96s-45.167 -83.334 -58.5 -134.001s-20 -106.667 -20 -168c0 -62 6.66699 -118.333 20 -169s33 -95.334 59 -134.001s57.833 -70.667 95.5 -96
s80.5 -43.333 128.5 -54c21.333 22.667 46.833 40.5 76.5 53.5s62.5 19.5 98.5 19.5c34.667 0 67 -6.33301 97 -19s55.667 -30.334 77 -53.001zM1696 729.004c0 -94 -14.4961 -182.168 -43.4961 -264.501s-70.333 -155.833 -124 -220.5s-118.334 -118.5 -194.001 -161.5
s-160.167 -72.167 -253.5 -87.5c-21.333 -32 -49.333 -57.167 -84 -75.5s-73.334 -27.5 -116.001 -27.5s-81.167 9.16699 -115.5 27.5s-61.833 43.166 -82.5 74.499c-95.333 14 -181.5 42.333 -258.5 85s-142.667 96.334 -197 161.001s-96.333 138.667 -126 222
s-44.5 172.333 -44.5 267s14.833 183.667 44.5 267s71.667 157.333 126 222s120.166 118.334 197.499 161.001s163.666 71 258.999 85c21.333 30.667 49 55 83 73s72 27 114 27s80.333 -9.16699 115 -27.5s62.667 -43.166 84 -74.499c93.333 -15.333 178 -44.333 254 -87
s140.833 -96.334 194.5 -161.001s95 -138.167 124 -220.5s43.5 -170.5 43.5 -264.5z" />
    <glyph glyph-name="uni047B" unicode="&#x47b;" horiz-adv-x="1348" 
d="M876 241c35.333 21.333 61.167 55 77.5 101s24.5 105 24.5 177c0 73.333 -8.66699 133.166 -26 179.499s-44.333 79.833 -81 100.5c-21.333 -30.667 -49 -54.834 -83 -72.501s-72 -26.5 -114 -26.5s-80 8.83301 -114 26.5s-61.667 41.834 -83 72.501
c-70.667 -40 -106 -133.333 -106 -280c0 -72 8.16699 -130.833 24.5 -176.5s41.833 -79.167 76.5 -100.5c20.667 32.667 48.5 58.667 83.5 78s74.5 29 118.5 29s83.5 -9.66699 118.5 -29s62.833 -45.666 83.5 -78.999zM1298 521
c0 -73.333 -10.168 -140.168 -30.501 -200.501s-49 -113.166 -86 -158.499s-81.833 -82.5 -134.5 -111.5s-111 -48.5 -175 -58.5c-21.333 -30.667 -49.166 -55 -83.499 -73s-72.5 -27 -114.5 -27s-80.167 9 -114.5 27s-61.833 42.333 -82.5 73
c-64.667 10.667 -123.167 30.5 -175.5 59.5s-97 66.167 -134 111.5s-65.667 98 -86 158s-30.5 126.667 -30.5 200c0 72 9.83301 137.667 29.5 197s47.834 111.333 84.501 156s80.667 81.334 132 110.001s108.666 48.667 171.999 60c20 34 47.833 61.333 83.5 82
s76.167 31 121.5 31c44.667 0 85 -10.333 121 -31s64 -48 84 -82c63.333 -11.333 120.833 -31.333 172.5 -60s95.667 -65.334 132 -110.001s64.5 -96.667 84.5 -156s30 -125 30 -197z" />
    <glyph glyph-name="uni047C" unicode="&#x47c;" horiz-adv-x="2156" 
d="M1510 1656c-46.667 0 -89.167 2.99707 -127.5 8.99707s-73.166 13.667 -104.499 23s-59.833 19.333 -85.5 30l-71.5 30c-22 9.33301 -42.5 17 -61.5 23s-37.833 9 -56.5 9c-31.333 0 -55.833 -10 -73.5 -30s-26.5 -51 -26.5 -93h-188c0 46 6.5 86.5 19.5 121.5
s31.667 64.333 56 88s53.666 41.334 87.999 53.001s72.833 17.5 115.5 17.5c32.667 0 62.667 -3.16699 90 -9.5s53.5 -14.166 78.5 -23.499s49.833 -19.5 74.5 -30.5s50.834 -21.167 78.501 -30.5s57.167 -17.166 88.5 -23.499s66.666 -9.5 105.999 -9.5v-154zM998 1408
c0 9.33301 3.49902 17.0029 10.499 23.0029s19.5 10.667 37.5 14c21.333 5.33301 37.166 11.666 47.499 18.999s16.5 19 18.5 35c-3.33301 -0.666992 -8.66602 -1 -15.999 -1c-23.333 0 -42.666 2.66699 -57.999 8s-27.666 12.166 -36.999 20.499s-16 18.166 -20 29.499
s-6 23 -6 35c0 31.333 10 57.166 30 77.499s49 30.5 87 30.5c22.667 0 42.667 -4 60 -12s31.666 -18.667 42.999 -32s20 -29 26 -47s9 -37.333 9 -58c0 -28 -4.83301 -53.667 -14.5 -77s-24.167 -43.166 -43.5 -59.499s-43.5 -29 -72.5 -38s-62.833 -13.167 -101.5 -12.5v45
zM1184 1336c40.667 39.333 90.5068 71.833 149.507 97.5s129.833 38.5 212.5 38.5c98 0 181.167 -19.167 249.5 -57.5s124 -90.666 167 -156.999s74.333 -144 94 -233s29.5 -183.833 29.5 -284.5c0 -115.333 -12 -219.5 -36 -312.5s-60.167 -172.333 -108.5 -238
s-109 -116.334 -182 -152.001s-158.5 -53.5 -256.5 -53.5c-85.333 0 -162.833 13.5 -232.5 40.5s-133.834 66.5 -192.501 118.5c-58.667 -52 -122.834 -91.5 -192.501 -118.5s-147.167 -40.5 -232.5 -40.5c-98 0 -183.5 17.833 -256.5 53.5s-133.667 86.334 -182 152.001
s-84.5 145 -108.5 238s-36 197.167 -36 312.5c0 67.333 4.33301 132.166 13 194.499s22 120.5 40 174.5s41.333 103.333 70 148s63 83 103 115s86 56.667 138 74s110.667 26 176 26c41.333 0 79.5 -3.33301 114.5 -10s67.5 -16 97.5 -28s57.333 -26.333 82 -43
s47.334 -35 68.001 -55l-70 -164c-11.333 -17.333 -22 -28.666 -32 -33.999s-22 -8 -36 -8c-12.667 0 -25 3.33301 -37 10l-39.5 22c-14.333 8 -30.5 15.333 -48.5 22s-39.333 10 -64 10c-36.667 0 -69.834 -9.16699 -99.501 -27.5s-54.834 -46.833 -75.501 -85.5
s-36.5 -87.667 -47.5 -147s-16.5 -130.333 -16.5 -213c0 -73.333 4.66699 -138.333 14 -195s24.833 -104.667 46.5 -144s50 -69.166 85 -89.499s78.5 -30.5 130.5 -30.5c66.667 0 121.167 17.167 163.5 51.5s78.166 86.833 107.499 157.5h250
c29.333 -70.667 65.166 -123.167 107.499 -157.5s96.833 -51.5 163.5 -51.5c52 0 95.5 10.167 130.5 30.5s63.333 50.166 85 89.499s37.167 87.333 46.5 144s14 121.667 14 195c0 82.667 -5.5 153.667 -16.5 213s-26.833 108.333 -47.5 147s-45.834 67.167 -75.501 85.5
s-62.834 27.5 -99.501 27.5c-24.667 0 -46 -3.33301 -64 -10s-34.167 -14 -48.5 -22l-39.5 -22c-12 -6.66699 -24.333 -10 -37 -10c-14 0 -26 2.66699 -36 8s-20.667 16.666 -32 33.999z" />
    <glyph glyph-name="uni047D" unicode="&#x47d;" horiz-adv-x="1565" 
d="M1220 1278c-70 0 -130.666 6.33008 -181.999 18.9971s-96.5 26.834 -135.5 42.501l-103 42.5c-29.667 12.667 -58.5 19 -86.5 19c-31.333 0 -55.833 -9.83301 -73.5 -29.5s-26.5 -50.834 -26.5 -93.501h-188c0 46 6.5 86.5 19.5 121.5s31.667 64.333 56 88
s53.666 41.334 87.999 53.001s72.833 17.5 115.5 17.5c32.667 0 62.667 -3.16699 90 -9.5s53.5 -14.166 78.5 -23.499s49.833 -19.5 74.5 -30.5s50.834 -21.167 78.501 -30.5s57.167 -17.166 88.5 -23.499s66.666 -9.5 105.999 -9.5v-153zM708.001 1029
c0 10 3.49805 17.834 10.498 23.501s19.5 10.5 37.5 14.5c21.333 5.33301 37.333 11.5 48 18.5s16.667 18.833 18 35.5c-3.33301 -0.666992 -8.66602 -1 -15.999 -1c-23.333 0 -42.666 2.66699 -57.999 8s-27.666 12.166 -36.999 20.499s-16 18.166 -20 29.499s-6 23 -6 35
c0 30.667 10 56.167 30 76.5s49 30.5 87 30.5c22.667 0 42.667 -4 60 -12s31.666 -18.667 42.999 -32s20 -29 26 -47s9 -37.333 9 -58c0 -28 -4.83301 -53.667 -14.5 -77s-24.167 -43.166 -43.5 -59.499s-43.5 -29 -72.5 -38s-62.833 -13.167 -101.5 -12.5v45z
M838.999 944.998c30.667 30 68.499 54.499 113.499 73.499s98.833 28.5 161.5 28.5c72 0 133 -13.833 183 -41.5s90.5 -65.167 121.5 -112.5s53.5 -102.666 67.5 -165.999s21 -130.666 21 -201.999c0 -79.333 -8.16699 -151.833 -24.5 -217.5
s-41.666 -122.167 -75.999 -169.5s-78.166 -84 -131.499 -110s-117 -39 -191 -39c-60.667 0 -115.5 8.83301 -164.5 26.5s-94.5 44.167 -136.5 79.5c-42 -35.333 -87.5 -61.833 -136.5 -79.5s-103.833 -26.5 -164.5 -26.5c-74 0 -137.667 13 -191 39
s-97.333 62.667 -132 110s-60.167 103.833 -76.5 169.5s-24.5 138.167 -24.5 217.5c0 71.333 7 138.666 21 201.999s36.5 118.666 67.5 165.999s71.667 84.833 122 112.5s111.5 41.5 183.5 41.5c62.667 0 116.667 -9.5 162 -28.5s83 -43.5 113 -73.5l-61 -146
c-10 -15.333 -19.333 -25.166 -28 -29.499s-19.334 -6.5 -32.001 -6.5c-10.667 0 -20.5 2 -29.5 6s-18.167 8.5 -27.5 13.5s-19.166 9.5 -29.499 13.5s-22.5 6 -36.5 6c-18.667 0 -35.834 -5.16699 -51.501 -15.5s-29.334 -27 -41.001 -50s-20.667 -53.333 -27 -91
s-9.5 -83.5 -9.5 -137.5c0 -42 1.83301 -80 5.5 -114s10.834 -63 21.501 -87s26 -42.333 46 -55s46.667 -19 80 -19c20.667 0 39.334 2.66699 56.001 8s31.667 14 45 26s25.333 27.333 36 46s20.667 41.334 30 68.001h218c18.667 -53.333 40.667 -91.333 66 -114
s59 -34 101 -34c32.667 0 59.167 6.33301 79.5 19s35.833 31 46.5 55s17.834 53 21.501 87s5.5 72 5.5 114c0 54 -3.16699 99.833 -9.5 137.5s-15.333 68 -27 91s-25.334 39.667 -41.001 50s-32.834 15.5 -51.501 15.5c-14 0 -26.333 -2 -37 -6s-20.667 -8.5 -30 -13.5
s-18.5 -9.5 -27.5 -13.5s-18.833 -6 -29.5 -6c-12 0 -22.333 2.16699 -31 6.5s-18 14.166 -28 29.499z" />
    <glyph glyph-name="uni047E" unicode="&#x47e;" horiz-adv-x="2154" 
d="M1183 1336c40.667 39.333 90.5049 71.833 149.505 97.5s129.833 38.5 212.5 38.5c98 0 181.167 -19.167 249.5 -57.5s124 -90.666 167 -156.999s74.333 -144 94 -233s29.5 -183.833 29.5 -284.5c0 -115.333 -12 -219.5 -36 -312.5s-60.167 -172.333 -108.5 -238
s-109 -116.334 -182 -152.001s-158.5 -53.5 -256.5 -53.5c-85.333 0 -162.833 13.5 -232.5 40.5s-133.834 66.5 -192.501 118.5c-58.667 -52 -122.834 -91.5 -192.501 -118.5s-147.167 -40.5 -232.5 -40.5c-98 0 -183.5 17.833 -256.5 53.5s-133.667 86.334 -182 152.001
s-84.5 145 -108.5 238s-36 197.167 -36 312.5c0 67.333 4.33301 132.166 13 194.499s22 120.5 40 174.5s41.333 103.333 70 148s63 83 103 115s86 56.667 138 74s110.667 26 176 26c41.333 0 79.5 -3.33301 114.5 -10s67.5 -16 97.5 -28s57.333 -26.333 82 -43
s47.334 -35 68.001 -55l-70 -164c-11.333 -17.333 -22 -28.666 -32 -33.999s-22 -8 -36 -8c-12.667 0 -25 3.33301 -37 10l-39.5 22c-14.333 8 -30.5 15.333 -48.5 22s-39.333 10 -64 10c-36.667 0 -69.834 -9.16699 -99.501 -27.5s-54.834 -46.833 -75.501 -85.5
s-36.5 -87.667 -47.5 -147s-16.5 -130.333 -16.5 -213c0 -73.333 4.66699 -138.333 14 -195s24.833 -104.667 46.5 -144s50 -69.166 85 -89.499s78.5 -30.5 130.5 -30.5c44 0 84.5 7.5 121.5 22.5s71.833 37.5 104.5 67.5v425h340v-425c32.667 -30 67.5 -52.5 104.5 -67.5
s77.5 -22.5 121.5 -22.5c52 0 95.5 10.167 130.5 30.5s63.333 50.166 85 89.499s37.167 87.333 46.5 144s14 121.667 14 195c0 82.667 -5.5 153.667 -16.5 213s-26.833 108.333 -47.5 147s-45.834 67.167 -75.501 85.5s-62.834 27.5 -99.501 27.5
c-24.667 0 -46 -3.33301 -64 -10s-34.167 -14 -48.5 -22l-39.5 -22c-12 -6.66699 -24.333 -10 -37 -10c-14 0 -26 2.66699 -36 8s-20.667 16.666 -32 33.999zM1536 1811c0 -11.333 -0.669922 -20.668 -2.00293 -28.001s-3 -15.666 -5 -24.999l-76 -228
c-4 -12 -10.167 -20.833 -18.5 -26.5s-17.166 -8.5 -26.499 -8.5s-18 3 -26 9s-14 14.667 -18 26l-43 136h-156l-45 -136c-4 -12 -10.167 -20.833 -18.5 -26.5s-17.166 -8.5 -26.499 -8.5s-18 3 -26 9s-14 14.667 -18 26l-43 136h-160l-45 -136
c-4 -12 -10.167 -20.833 -18.5 -26.5s-17.166 -8.5 -26.499 -8.5s-18 3 -26 9s-14 14.667 -18 26l-71 227l-4.5 24c-1.66699 8.66699 -2.5 18.667 -2.5 30h920z" />
    <glyph glyph-name="uni047F" unicode="&#x47f;" horiz-adv-x="1582" 
d="M1468 1037c13.333 -64 23 -122.168 29 -174.501s9 -104.5 9 -156.5c0 -78.667 -6.5 -151.167 -19.5 -217.5s-31.833 -128 -56.5 -185s-55.167 -110.333 -91.5 -160s-77.5 -97.5 -123.5 -143.5h-181c-16 0 -28.667 2.83301 -38 8.5s-20 15.167 -32 28.5
c-30 34 -60.333 72.833 -91 116.5s-58.334 90.834 -83.001 141.501c-24 -50 -51.167 -97 -81.5 -141s-60.833 -83 -91.5 -117l-15.5 -17c-4.33301 -4.66699 -8.83301 -8.5 -13.5 -11.5s-9.66699 -5.16699 -15 -6.5s-12.333 -2 -21 -2h-186c-37.333 38 -73 79.333 -107 124
s-63.833 91.5 -89.5 140.5s-46 99.5 -61 151.5s-22.5 104.333 -22.5 157v464h213c15.333 0 28.333 -2.33301 39 -7s19.5 -11 26.5 -19s12.167 -17.167 15.5 -27.5s5 -20.833 5 -31.5v-346c0 -68.667 12.167 -130.5 36.5 -185.5s54.833 -102.5 91.5 -142.5
c18 19.333 34.667 40.833 50 64.5s28.833 49.334 40.5 77.001s20.834 56.834 27.501 87.501s10 63 10 97v433h213c15.333 0 28.333 -2.33301 39 -7s19.5 -11 26.5 -19s12.167 -17.167 15.5 -27.5s5 -20.833 5 -31.5v-336c0 -68 10.833 -129.667 32.5 -185
s53.167 -106 94.5 -152c18 20 35.5 43.333 52.5 70s32.167 57.167 45.5 91.5s24 73.166 32 116.499s12 91.333 12 144c0 39.333 -2 73.166 -6 101.499s-8.5 52.833 -13.5 73.5s-9.5 38.5 -13.5 53.5s-6 29.167 -6 42.5c0 16 5.33301 30.833 16 44.5s26 20.5 46 20.5h236z
M1250 1391c0 -11.333 -0.669922 -20.668 -2.00293 -28.001s-3 -15.666 -5 -24.999l-76 -228c-4 -12 -10.167 -20.833 -18.5 -26.5s-17.166 -8.5 -26.499 -8.5s-18 3 -26 9s-14 14.667 -18 26l-43 136h-156l-45 -136c-4 -12 -10.167 -20.833 -18.5 -26.5
s-17.166 -8.5 -26.499 -8.5s-18 3 -26 9s-14 14.667 -18 26l-43 136h-160l-45 -136c-4 -12 -10.167 -20.833 -18.5 -26.5s-17.166 -8.5 -26.499 -8.5s-18 3 -26 9s-14 14.667 -18 26l-71 227l-4.5 24c-1.66699 8.66699 -2.5 18.667 -2.5 30h920z" />
    <glyph glyph-name="uni0480" unicode="&#x480;" horiz-adv-x="1268" 
d="M853 -5c-15.333 -0.666992 -30.498 -1.16406 -45.498 -1.49707s-27.167 -0.5 -36.5 -0.5c-110.667 0 -209.834 18.333 -297.501 55s-162 87.667 -223 153s-107.833 143 -140.5 233s-49 188.333 -49 295c0 108.667 17.667 208.5 53 299.5s85 169.5 149 235.5
s140.667 117.333 230 154s187.666 55 294.999 55c54.667 0 106.167 -4.83301 154.5 -14.5s93.5 -23 135.5 -40s80.667 -37.5 116 -61.5s66.666 -50 93.999 -78l-114 -153c-7.33301 -9.33301 -16 -17.833 -26 -25.5s-24 -11.5 -42 -11.5c-12 0 -23.333 2.66699 -34 8
s-22 11.833 -34 19.5l-39.5 25c-14.333 9 -31.333 17.333 -51 25s-42.667 14.167 -69 19.5s-57.166 8 -92.499 8c-56 0 -107.167 -10.333 -153.5 -31s-86.333 -50.834 -120 -90.501s-59.667 -88.334 -78 -146.001s-27.5 -123.5 -27.5 -197.5
c0 -74.667 9.83301 -141 29.5 -199s46.834 -106.833 81.501 -146.5s75.667 -69.834 123 -90.501s98.666 -31 153.999 -31c44 0 78 2 102 6s43.667 8.16699 59 12.5s28.666 8.5 39.999 12.5s26 6 44 6h95v-551c0 -26.667 -8.16699 -48 -24.5 -64s-37.166 -24 -62.499 -24
h-195v335z" />
    <glyph glyph-name="uni0481" unicode="&#x481;" horiz-adv-x="949" 
d="M564 -15c-6 -0.666992 -12.1621 -1.00195 -18.4951 -1.00195h-18.5c-63.333 0 -123.833 12 -181.5 36s-108.334 58.833 -152.001 104.5s-78.334 101.834 -104.001 168.501s-38.5 142.667 -38.5 228c0 74.667 11.167 144.5 33.5 209.5s55.333 121.333 99 169
s97.667 85.167 162 112.5s138.833 41 223.5 41c81.333 0 152.666 -13 213.999 -39s116.666 -64 165.999 -114l-82 -109c-9.33301 -11.333 -18.333 -20.333 -27 -27s-21 -10 -37 -10c-15.333 0 -29.166 3.66699 -41.499 11l-41.5 24.5c-15.333 9 -33.333 17.167 -54 24.5
s-46.334 11 -77.001 11c-38 0 -70.833 -7 -98.5 -21s-50.5 -34 -68.5 -60s-31.333 -57.833 -40 -95.5s-13 -80.167 -13 -127.5c0 -99.333 19.167 -175.666 57.5 -228.999s91.166 -80 158.499 -80c24 0 44 2 60 6s29.333 8.16699 40 12.5s19.167 8.5 25.5 12.5
s12.166 6 17.499 6h118v-502c0 -26.667 -8.16699 -48 -24.5 -64s-37.166 -24 -62.499 -24h-195v326z" />
    <glyph glyph-name="uni0482" unicode="&#x482;" horiz-adv-x="1476" 
d="M957 777l-184 -268l357 -244l-153 -217l-355 243l-212 -309l-260 166l218 317l-354 243l152 216l352 -241l184 268l-356 244l153 216l353 -242l212 308l260 -166l-217 -316l355 -243l-152 -217z" />
    <glyph glyph-name="uni0483" unicode="&#x483;" 
d="M203 1172l-0.000976562 -101.004h-78c-22 0 -42.833 3.33301 -62.5 10s-37.167 16.334 -52.5 29.001s-27.5 28.5 -36.5 47.5s-13.5 41.167 -13.5 66.5c0 26.667 4.33301 49.834 13 69.501s20.334 35.834 35.001 48.501s32 22 52 28s41.667 9 65 9h472v102h78
c21.333 0 42 -3.33301 62 -10s37.667 -16.5 53 -29.5s27.5 -29 36.5 -48s13.5 -41.167 13.5 -66.5c0 -27.333 -4.33301 -50.666 -13 -69.999s-20.5 -35.333 -35.5 -48s-32.5 -22 -52.5 -28s-41.333 -9 -64 -9h-472z" />
    <glyph glyph-name="uni0484" unicode="&#x484;" 
d="M513 1301c-24 0 -46.1689 -3.5 -66.502 -10.5s-40.833 -15.667 -61.5 -26l-66 -34c-23.333 -12.333 -50.333 -23.666 -81 -33.999s-66.167 -19 -106.5 -26s-87.5 -10.5 -141.5 -10.5v178c45.333 0 85.166 3.5 119.499 10.5s65.5 16 93.5 27s54.333 22.667 79 35
s49.667 24 75 35s52.333 20 81 27s61.667 10.5 99 10.5c56 0 103.333 -6.83301 142 -20.5s69.834 -34 93.501 -61s40.834 -60.667 51.501 -101s16 -87.166 16 -140.499h-218c0 30 -3.16699 54.167 -9.5 72.5s-14.666 32.666 -24.999 42.999s-22 17.166 -35 20.499
s-26.167 5 -39.5 5z" />
    <glyph glyph-name="uni0485" unicode="&#x485;" 
d="M543 1092c-48 -0.666992 -90.1689 5.5 -126.502 18.5s-66.5 31 -90.5 54s-42 49.667 -54 80s-18 62.833 -18 97.5c0 52 14.5 92.667 43.5 122s71.833 44 128.5 44c46.667 0 82.5 -12.667 107.5 -38s37.5 -57 37.5 -95c0 -14.667 -2.5 -29 -7.5 -43
s-13.333 -26.333 -25 -37s-27 -19.167 -46 -25.5s-42.833 -9.5 -71.5 -9.5h-9.5c-3 0 -5.83301 0.333008 -8.5 1c3.33301 -18 11.333 -32 24 -42s31.334 -17.667 56.001 -23c22.667 -4.66699 38.334 -10.667 47.001 -18s13 -17 13 -29v-57z" />
    <glyph glyph-name="uni0486" unicode="&#x486;" 
d="M282 1149c0 12 4.3291 21.501 12.9961 28.501s24.334 13.167 47.001 18.5c26.667 5.33301 46.334 12.5 59.001 21.5s20.334 23.5 23.001 43.5c-3.33301 -0.666992 -6.66602 -1.16699 -9.99902 -1.5s-6.66602 -0.5 -9.99902 -0.5c-28.667 0 -52.5 3.16699 -71.5 9.5
s-34.333 15 -46 26s-20 23.333 -25 37s-7.5 28.167 -7.5 43.5c0 38 12.5 69.5 37.5 94.5s60.833 37.5 107.5 37.5c28 0 52.833 -4.83301 74.5 -14.5s39.667 -22.834 54 -39.501s25.166 -36.167 32.499 -58.5s11 -46.166 11 -71.499c0 -34.667 -6 -66.334 -18 -95.001
s-30 -53.167 -54 -73.5s-54.167 -36 -90.5 -47s-78.5 -16.167 -126.5 -15.5v57z" />
    <glyph glyph-name="uni0488" unicode="&#x488;" horiz-adv-x="2289" 
d="M1144 22c49.333 0 92.499 -6.83203 129.499 -20.499s67.833 -32.667 92.5 -57s43.167 -53 55.5 -86s18.5 -68.833 18.5 -107.5h-216c0 29.333 -4.83301 51.166 -14.5 65.499s-31.5 21.5 -65.5 21.5c-17.333 0 -31.166 -1.83301 -41.499 -5.5s-18.166 -9 -23.499 -16
s-9 -16 -11 -27s-3 -23.833 -3 -38.5h-216c0 38.667 6.16699 74.5 18.5 107.5s30.666 61.667 54.999 86s55 43.333 92 57s80.167 20.5 129.5 20.5zM1144 1619c49.333 0 92.499 -6.83301 129.499 -20.5s67.833 -32.5 92.5 -56.5s43.167 -52.667 55.5 -86
s18.5 -69.333 18.5 -108h-216c0 30 -4.83301 52.167 -14.5 66.5s-31.5 21.5 -65.5 21.5c-17.333 0 -31.166 -1.83301 -41.499 -5.5s-18.166 -9 -23.499 -16s-9 -16.167 -11 -27.5s-3 -24.333 -3 -39h-216c0 38.667 6.16699 74.667 18.5 108s30.666 62 54.999 86
s55 42.833 92 56.5s80.167 20.5 129.5 20.5zM338.998 821.001c49.333 0 92.499 -6.83301 129.499 -20.5s67.833 -32.5 92.5 -56.5s43.167 -52.667 55.5 -86s18.5 -69.333 18.5 -108h-216c0 29.333 -4.83301 51.333 -14.5 66s-31.5 22 -65.5 22
c-17.333 0 -31.166 -1.83301 -41.499 -5.5s-18.166 -9.16699 -23.499 -16.5s-9 -16.5 -11 -27.5s-3 -23.833 -3 -38.5h-216c0 38.667 6.16699 74.667 18.5 108s30.666 62 54.999 86s55 42.833 92 56.5s80.167 20.5 129.5 20.5zM1949 821.001
c49.333 0 92.499 -6.83301 129.499 -20.5s67.833 -32.5 92.5 -56.5s43.167 -52.667 55.5 -86s18.5 -69.333 18.5 -108h-216c0 29.333 -4.83301 51.333 -14.5 66s-31.5 22 -65.5 22c-17.333 0 -31.166 -1.83301 -41.499 -5.5s-18.166 -9.16699 -23.499 -16.5
s-9 -16.5 -11 -27.5s-3 -23.833 -3 -38.5h-216c0 38.667 6.16699 74.667 18.5 108s30.666 62 54.999 86s55 42.833 92 56.5s80.167 20.5 129.5 20.5zM532.996 374.001c49.333 0 92.499 -6.83203 129.499 -20.499s67.833 -32.667 92.5 -57s43.167 -53 55.5 -86
s18.5 -68.833 18.5 -107.5h-216c0 29.333 -4.83301 51.166 -14.5 65.499s-31.5 21.5 -65.5 21.5c-17.333 0 -31.166 -1.83301 -41.499 -5.5s-18.166 -9 -23.499 -16s-9 -16 -11 -27s-3 -23.833 -3 -38.5h-216c0 38.667 6.16699 74.5 18.5 107.5s30.666 61.667 54.999 86
s55 43.333 92 57s80.167 20.5 129.5 20.5zM1755 374.002c49.333 0 92.499 -6.83203 129.499 -20.499s67.833 -32.667 92.5 -57s43.167 -53 55.5 -86s18.5 -68.833 18.5 -107.5h-216c0 29.333 -4.83301 51.166 -14.5 65.499s-31.5 21.5 -65.5 21.5
c-17.333 0 -31.166 -1.83301 -41.499 -5.5s-18.166 -9 -23.499 -16s-9 -16 -11 -27s-3 -23.833 -3 -38.5h-216c0 38.667 6.16699 74.5 18.5 107.5s30.666 61.667 54.999 86s55 43.333 92 57s80.167 20.5 129.5 20.5zM532.994 1268c49.333 0 92.499 -6.83203 129.499 -20.499
s67.833 -32.667 92.5 -57s43.167 -53 55.5 -86s18.5 -68.833 18.5 -107.5h-216c0 29.333 -4.83301 51.166 -14.5 65.499s-31.5 21.5 -65.5 21.5c-17.333 0 -31.166 -1.83301 -41.499 -5.5s-18.166 -9 -23.499 -16s-9 -16 -11 -27s-3 -23.833 -3 -38.5h-216
c0 38.667 6.16699 74.5 18.5 107.5s30.666 61.667 54.999 86s55 43.333 92 57s80.167 20.5 129.5 20.5zM1754.99 1268c49.333 0 92.499 -6.83203 129.499 -20.499s67.833 -32.667 92.5 -57s43.167 -53 55.5 -86s18.5 -68.833 18.5 -107.5h-216
c0 29.333 -4.83301 51.166 -14.5 65.499s-31.5 21.5 -65.5 21.5c-17.333 0 -31.166 -1.83301 -41.499 -5.5s-18.166 -9 -23.499 -16s-9 -16 -11 -27s-3 -23.833 -3 -38.5h-216c0 38.667 6.16699 74.5 18.5 107.5s30.666 61.667 54.999 86s55 43.333 92 57
s80.167 20.5 129.5 20.5z" />
    <glyph glyph-name="uni0489" unicode="&#x489;" horiz-adv-x="2208" 
d="M1919 1288c2 -16.667 -3 -30.332 -15 -40.999c-4 -4.66699 -10.167 -8 -18.5 -10s-16.5 -2.66699 -24.5 -2c-10 -0.666992 -22 -1.33398 -36 -2.00098s-28.833 -2.16699 -44.5 -4.5s-31.667 -6 -48 -11s-31.833 -11.833 -46.5 -20.5
c13.333 -15.333 23 -31.666 29 -48.999s8.33301 -34.833 7 -52.5s-6.16602 -35.167 -14.499 -52.5s-19.833 -33.333 -34.5 -48c-14 -13.333 -29.667 -23.333 -47 -30s-35 -9.83398 -53 -9.50098s-36 4.33301 -54 12s-35 19.167 -51 34.5
c-19.333 18.667 -32.5 38.167 -39.5 58.5s-9.5 40.5 -7.5 60.5s8.16699 39.5 18.5 58.5s23.833 36.5 40.5 52.5c21.333 20.667 47.5 39.667 78.5 57s65.5 31.5 103.5 42.5s78.667 18.5 122 22.5s87.666 3 132.999 -3zM71 759.002c6 7.33301 12.0039 12.3301 18.0039 14.9971
s13.667 4 23 4c6 0 12.667 -2.16699 20 -6.5s13.666 -9.16602 18.999 -14.499l26.5 -24c10.333 -9.33301 21.666 -18.666 33.999 -27.999s25.833 -18.166 40.5 -26.499s30 -14.5 46 -18.5c2 20 7.16699 38.167 15.5 54.5s19.5 30.333 33.5 42s30.167 20.667 48.5 27
s38.166 9.5 59.499 9.5c20 0 38.5 -3.5 55.5 -10.5s31.667 -17 44 -30s22.166 -28.333 29.499 -46s11 -37.5 11 -59.5c0 -26 -4.83301 -48.667 -14.5 -68s-22.5 -35.333 -38.5 -48s-34.5 -22 -55.5 -28s-43.167 -9 -66.5 -9c-30 0 -62.167 4.66699 -96.5 14
s-69 23.333 -104 42s-69 41.5 -102 68.5s-63.5 58.5 -91.5 94.5zM291.004 -4.00098c-2 16.667 2.99902 30.3291 14.999 40.9961c4 4.66699 10.167 8 18.5 10s16.5 2.66699 24.5 2c10 0.666992 22 1.33398 36 2.00098s28.833 2.16699 44.5 4.5s31.667 5.83301 48 10.5
s31.833 11.667 46.5 21c-13.333 14.667 -23 30.834 -29 48.501s-8.33301 35.334 -7 53.001s6 35.167 14 52.5s19.667 33.333 35 48c14 13.333 29.667 23.333 47 30s35 9.83398 53 9.50098s36 -4.33301 54 -12s35 -19.167 51 -34.5c18.667 -18.667 31.667 -38.167 39 -58.5
s10 -40.5 8 -60.5s-8.16699 -39.5 -18.5 -58.5s-23.833 -36.5 -40.5 -52.5c-21.333 -20.667 -47.5 -39.667 -78.5 -57s-65.5 -31.5 -103.5 -42.5s-78.667 -18.5 -122 -22.5s-87.666 -3 -132.999 3zM455.003 1452.99c9.33301 1.33301 17.1641 0.835938 23.4971 -1.49707
s12.833 -6.5 19.5 -12.5c4.66699 -4 8 -10 10 -18s2.66699 -16 2 -24c0.666992 -10 1.33398 -21.833 2.00098 -35.5s2 -28.334 4 -44.001s5.33301 -31.5 10 -47.5s11.334 -31.333 20.001 -46c15.333 12.667 32 21.667 50 27s36 7.33301 54 6s35.833 -6 53.5 -14
s33.834 -19.333 48.501 -34c14 -13.333 24.5 -28.333 31.5 -45s10.167 -33.834 9.5 -51.501s-4.83398 -35.334 -12.501 -53.001s-19.5 -34.167 -35.5 -49.5c-19.333 -18.667 -39.333 -31.5 -60 -38.5s-41.334 -9.5 -62.001 -7.5s-40.667 8.16699 -60 18.5
s-37.333 23.5 -54 39.5c-21.333 20.667 -40.666 46.334 -57.999 77.001s-31.666 64.667 -42.999 102s-18.833 77.166 -22.5 119.499s-2.5 85.833 3.5 130.5zM1221 1671c7.33301 -5.33301 12.4961 -11.0029 15.4961 -17.0029s4.5 -13.333 4.5 -22
c0 -6 -2.16699 -12.5 -6.5 -19.5s-9.5 -13.167 -15.5 -18.5c-7.33301 -7.33301 -15.666 -16.166 -24.999 -26.499s-18.666 -21.833 -27.999 -34.5s-18.166 -26.667 -26.499 -42s-14.5 -31.333 -18.5 -48c20 -1.33301 38.333 -6.16602 55 -14.499s31 -19.333 43 -33
s21.333 -29.334 28 -47.001s10 -36.5 10 -56.5c0 -19.333 -3.66699 -37.333 -11 -54s-17.5 -31.167 -30.5 -43.5s-28.833 -22 -47.5 -29s-39 -10.5 -61 -10.5c-27.333 0 -50.833 4.66699 -70.5 14s-36 21.833 -49 37.5s-22.667 33.834 -29 54.501s-9.5 42.334 -9.5 65.001
c0 30 4.83301 61.833 14.5 95.5s23.834 67.667 42.501 102s42 67.833 70 100.5s60.333 62.667 97 90zM988.997 -387.006c-7.33301 5.33301 -12.498 11.002 -15.498 17.002s-4.5 13.333 -4.5 22c0 6 2.16699 12.5 6.5 19.5s9.5 13.167 15.5 18.5l24.5 26.5
c9.66699 10.333 19.167 21.833 28.5 34.5s18.166 26.5 26.499 41.5s14.5 31.167 18.5 48.5c-20 1.33301 -38.333 6.16602 -55 14.499s-31 19.333 -43 33s-21.333 29.334 -28 47.001s-10 36.5 -10 56.5c0 19.333 3.66699 37.333 11 54s17.5 31.167 30.5 43.5
s28.833 22 47.5 29s39 10.5 61 10.5c26.667 0 50 -4.66699 70 -14s36.5 -21.833 49.5 -37.5s22.667 -33.834 29 -54.501s9.5 -42.334 9.5 -65.001c0 -30 -4.83301 -61.833 -14.5 -95.5s-23.834 -67.667 -42.501 -102s-42 -67.833 -70 -100.5s-60.333 -62.667 -97 -90z
M1755 -169.004c-9.33301 -1.33301 -17.167 -0.838867 -23.5 1.49414s-12.833 6.5 -19.5 12.5c-4.66699 4 -8 10 -10 18s-2.66699 16 -2 24c-0.666992 10 -1.33398 21.833 -2.00098 35.5s-2 28.334 -4 44.001s-5.33301 31.5 -10 47.5s-11.334 31.333 -20.001 46
c-15.333 -12.667 -32 -21.667 -50 -27s-36 -7.33301 -54 -6s-35.833 6 -53.5 14s-33.834 19.333 -48.501 34c-14 13.333 -24.5 28.333 -31.5 45s-10.167 33.834 -9.5 51.501s4.83398 35.334 12.501 53.001s19.5 34.167 35.5 49.5c19.333 18.667 39.333 31.5 60 38.5
s41.334 9.5 62.001 7.5s40.667 -8.16699 60 -18.5s37.333 -23.5 54 -39.5c20.667 -21.333 39.834 -47.166 57.501 -77.499s32.167 -64.166 43.5 -101.499s18.833 -77.166 22.5 -119.499s2.5 -85.833 -3.5 -130.5zM2139 524.99
c-10.667 -12.667 -24.3379 -18.9971 -41.0039 -18.9971c-6 0 -12.667 2.16699 -20 6.5s-13.666 9.16602 -18.999 14.499l-26.5 24c-10.333 9.33301 -21.666 18.666 -33.999 27.999s-25.833 18.166 -40.5 26.499s-30 14.5 -46 18.5c-2 -20 -7.16699 -38.167 -15.5 -54.5
s-19.5 -30.333 -33.5 -42s-30.167 -20.667 -48.5 -27s-38.166 -9.5 -59.499 -9.5c-20 0 -38.5 3.5 -55.5 10.5s-31.667 17 -44 30s-22.166 28.333 -29.499 46s-11 37.5 -11 59.5c0 26 4.83301 48.667 14.5 68s22.5 35.333 38.5 48s34.5 22 55.5 28s43.167 9 66.5 9
c30 0 62.167 -4.66699 96.5 -14s69 -23.333 104 -42s69 -41.5 102 -68.5s63.5 -58.5 91.5 -94.5z" />
    </font>
</defs>
</svg>
