<?xml version="1.0" standalone="no"?>
<!DOCTYPE svg PUBLIC "-//W3C//DTD SVG 20010904//EN"
 "http://www.w3.org/TR/2001/REC-SVG-20010904/DTD/svg10.dtd">
<svg version="1.0" xmlns="http://www.w3.org/2000/svg"
 width="324.000000pt" height="324.000000pt" viewBox="0 0 324.000000 324.000000"
 preserveAspectRatio="xMidYMid meet">
<metadata>
Created by potrace 1.11, written by Peter Selinger 2001-2013
</metadata>
<g transform="translate(0.000000,324.000000) scale(0.100000,-0.100000)"
fill="#000000" stroke="none">
<path d="M1468 3235 c-2 -1 -27 -6 -57 -9 -388 -46 -768 -255 -1034 -566 -67
-79 -226 -331 -233 -370 0 -3 -6 -18 -13 -35 -60 -141 -94 -266 -118 -430 -10
-65 -10 -323 0 -400 43 -356 203 -688 455 -943 63 -63 215 -192 227 -192 3 0
21 -11 38 -24 98 -73 330 -177 482 -214 155 -38 220 -46 390 -46 230 -1 345
17 535 81 591 199 1010 718 1089 1348 9 70 7 357 -3 405 -2 14 -7 43 -11 65
-27 185 -132 442 -255 622 -71 105 -102 143 -196 237 -92 93 -130 124 -238
197 -192 130 -391 211 -631 256 -68 13 -416 28 -427 18z"/>
</g>
</svg>
