<svg width="72" height="72" viewBox="0 0 72 72" fill="none" xmlns="http://www.w3.org/2000/svg">
<path d="M61.1023 10.8977C54.398 4.19327 45.4815 0.5 36 0.5C26.5185 0.5 17.602 4.19327 10.8977 10.8977C4.19327 17.6022 0.5 26.5185 0.5 36C0.5 45.4815 4.19327 54.398 10.8977 61.1023C17.602 67.8067 26.5185 71.5 36 71.5C45.4815 71.5 54.398 67.8067 61.1023 61.1023C67.8067 54.398 71.5 45.4815 71.5 36C71.5 26.5185 67.8067 17.6022 61.1023 10.8977ZM36 68.266C18.2088 68.266 3.73404 53.7912 3.73404 36C3.73404 18.209 18.2088 3.73404 36 3.73404C53.7912 3.73404 68.266 18.209 68.266 36C68.266 53.7912 53.7912 68.266 36 68.266Z" fill="white" stroke="white"/>
<path d="M22 35.5L35 47L55 25" stroke="white" stroke-width="4.3"/>
</svg>
