<svg xmlns="http://www.w3.org/2000/svg" width="19" height="19" viewBox="0 0 19 19"><defs><clipPath id="5x75a"><path fill="#fff" d="M2 0h4.156a2 2 0 0 1 2 2v4.062a2 2 0 0 1-2 2H2a2 2 0 0 1-2-2V2a2 2 0 0 1 2-2zm10.844 0H17a2 2 0 0 1 2 2v4.062a2 2 0 0 1-2 2h-4.156a2 2 0 0 1-2-2V2a2 2 0 0 1 2-2zM2 10.937h4.156a2 2 0 0 1 2 2V17a2 2 0 0 1-2 2H2a2 2 0 0 1-2-2v-4.063a2 2 0 0 1 2-2zm10.844 0H17a2 2 0 0 1 2 2V17a2 2 0 0 1-2 2h-4.156a2 2 0 0 1-2-2v-4.063a2 2 0 0 1 2-2z"/></clipPath></defs><g><g><path fill="none" stroke="#fff" stroke-miterlimit="50" stroke-width="3.6" d="M2 0h4.156a2 2 0 0 1 2 2v4.062a2 2 0 0 1-2 2H2a2 2 0 0 1-2-2V2a2 2 0 0 1 2-2zm10.844 0H17a2 2 0 0 1 2 2v4.062a2 2 0 0 1-2 2h-4.156a2 2 0 0 1-2-2V2a2 2 0 0 1 2-2zM2 10.937h4.156a2 2 0 0 1 2 2V17a2 2 0 0 1-2 2H2a2 2 0 0 1-2-2v-4.063a2 2 0 0 1 2-2zm10.844 0H17a2 2 0 0 1 2 2V17a2 2 0 0 1-2 2h-4.156a2 2 0 0 1-2-2v-4.063a2 2 0 0 1 2-2z" clip-path="url(&quot;#5x75a&quot;)"/></g></g></svg>