<svg xmlns="http://www.w3.org/2000/svg" width="25" height="25" viewBox="0 0 25 25"><g><g><path fill="#fff" d="M0 6.685V.871C0 .39.39 0 .87 0h5.815a.87.87 0 1 1 0 1.741H2.972L8.58 7.348A.87.87 0 1 1 7.35 8.58L1.741 2.973v3.712a.87.87 0 0 1-1.741 0zm25 11.63v5.814a.87.87 0 0 1-.87.87h-5.815a.87.87 0 1 1 0-1.741h3.712l-5.78-5.78a.87.87 0 1 1 1.231-1.231l5.78 5.78v-3.712a.87.87 0 1 1 1.742 0zM8.753 16.247a.87.87 0 0 1 0 1.23l-5.78 5.781h3.712a.87.87 0 1 1 0 1.742H.871a.87.87 0 0 1-.87-.871v-5.814a.87.87 0 1 1 1.74 0v3.712l5.78-5.78a.87.87 0 0 1 1.232 0zM25 .87v5.814a.87.87 0 0 1-1.741 0V2.973L17.652 8.58a.87.87 0 0 1-1.232 0 .87.87 0 0 1 0-1.231l5.607-5.608h-3.712a.87.87 0 0 1 0-1.741h5.814c.481 0 .87.39.871.87z"/></g></g></svg>