<svg xmlns="http://www.w3.org/2000/svg" width="81" height="80" viewBox="0 0 81 80"><defs><linearGradient id="1njya" x1="26" x2="55" y1="80" y2="0" gradientUnits="userSpaceOnUse"><stop offset="0" stop-color="#355eda"/><stop offset="1" stop-color="#4074eb"/></linearGradient></defs><g><g><path d="M81 3.87v56.775c0 .712-.567 1.29-1.266 1.29H50.901l2.025 10.323h2.761c.7 0 1.266.577 1.266 1.29v3.871h2.531v2.58H21.516v-2.58h2.53v-3.871c0-.713.568-1.29 1.266-1.29h2.76l2.024-10.324H1.266A1.278 1.278 0 0 1 0 60.644V3.87C0 1.732 1.7 0 3.797 0h73.406C79.3 0 81 1.732 81 3.87zM26.578 74.838v2.581h27.844v-2.581zm23.769-2.58l-2.025-10.324H32.676l-2.023 10.324zM78.469 47.74H2.53v11.613H78.47zM62.016 12.903V45.16H72.14V9.03H8.859v36.13h10.125V20.645c0-.175.035-.349.103-.509l3.797-9.032a1.257 1.257 0 0 1 2.326 0l3.797 9.032c.068.16.103.334.102.509v3.87h-2.53v-2.58h-1.267V45.16h1.266V34.838h2.531v10.323h5.063v-6.452c0-5.266-6.273-6.423-6.54-6.47a1.288 1.288 0 0 1-1.035-1.488c.026-.158.081-.31.162-.447l11.39-19.355a1.3 1.3 0 0 1 2.17 0l11.39 19.355c.36.611.165 1.404-.435 1.77a1.254 1.254 0 0 1-.441.165c-.264.047-6.536 1.204-6.536 6.47v6.452h5.062V34.838h2.532v10.323h7.593v-5.162h-5.062v-2.58h5.062v-6.452h-5.062v-2.58h5.062v-6.452h-5.062v-2.58h5.062v-5.162h-7.593v10.323h-2.532V12.903c0-.713.567-1.29 1.266-1.29H60.75c.699 0 1.266.577 1.266 1.29zM41.766 41.29V40h-5.063v1.29zm-5.063 2.58v1.29h5.063v-1.29zm-.092-6.451h5.247c.606-4.104 4.05-6.33 6.809-7.27L40.5 16.27v10.825h-2.531V16.27l-8.167 13.877c2.756.948 6.202 3.167 6.809 7.27zM25.927 19.354l-1.88-4.472-1.88 4.472zm-4.411 2.58V45.16h1.265V21.935zM78.469 3.87c0-.712-.567-1.29-1.266-1.29H3.797c-.7 0-1.266.578-1.266 1.29v41.29h3.797V7.742c0-.712.567-1.29 1.266-1.29h65.812c.7 0 1.266.578 1.266 1.29v37.42h3.797zM44.297 52.902c0 2.139-1.7 3.871-3.797 3.871-2.097 0-3.797-1.732-3.797-3.87s1.7-3.872 3.797-3.872c2.097 0 3.797 1.734 3.797 3.871zm-2.531 0c0-.712-.567-1.29-1.266-1.29-.699 0-1.266.578-1.266 1.29 0 .713.567 1.29 1.266 1.29.699 0 1.266-.577 1.266-1.29z"/><path fill="url(#1njya)" d="M81 3.87v56.775c0 .712-.567 1.29-1.266 1.29H50.901l2.025 10.323h2.761c.7 0 1.266.577 1.266 1.29v3.871h2.531v2.58H21.516v-2.58h2.53v-3.871c0-.713.568-1.29 1.266-1.29h2.76l2.024-10.324H1.266A1.278 1.278 0 0 1 0 60.644V3.87C0 1.732 1.7 0 3.797 0h73.406C79.3 0 81 1.732 81 3.87zM26.578 74.838v2.581h27.844v-2.581zm23.769-2.58l-2.025-10.324H32.676l-2.023 10.324zM78.469 47.74H2.53v11.613H78.47zM62.016 12.903V45.16H72.14V9.03H8.859v36.13h10.125V20.645c0-.175.035-.349.103-.509l3.797-9.032a1.257 1.257 0 0 1 2.326 0l3.797 9.032c.068.16.103.334.102.509v3.87h-2.53v-2.58h-1.267V45.16h1.266V34.838h2.531v10.323h5.063v-6.452c0-5.266-6.273-6.423-6.54-6.47a1.288 1.288 0 0 1-1.035-1.488c.026-.158.081-.31.162-.447l11.39-19.355a1.3 1.3 0 0 1 2.17 0l11.39 19.355c.36.611.165 1.404-.435 1.77a1.254 1.254 0 0 1-.441.165c-.264.047-6.536 1.204-6.536 6.47v6.452h5.062V34.838h2.532v10.323h7.593v-5.162h-5.062v-2.58h5.062v-6.452h-5.062v-2.58h5.062v-6.452h-5.062v-2.58h5.062v-5.162h-7.593v10.323h-2.532V12.903c0-.713.567-1.29 1.266-1.29H60.75c.699 0 1.266.577 1.266 1.29zM41.766 41.29V40h-5.063v1.29zm-5.063 2.58v1.29h5.063v-1.29zm-.092-6.451h5.247c.606-4.104 4.05-6.33 6.809-7.27L40.5 16.27v10.825h-2.531V16.27l-8.167 13.877c2.756.948 6.202 3.167 6.809 7.27zM25.927 19.354l-1.88-4.472-1.88 4.472zm-4.411 2.58V45.16h1.265V21.935zM78.469 3.87c0-.712-.567-1.29-1.266-1.29H3.797c-.7 0-1.266.578-1.266 1.29v41.29h3.797V7.742c0-.712.567-1.29 1.266-1.29h65.812c.7 0 1.266.578 1.266 1.29v37.42h3.797zM44.297 52.902c0 2.139-1.7 3.871-3.797 3.871-2.097 0-3.797-1.732-3.797-3.87s1.7-3.872 3.797-3.872c2.097 0 3.797 1.734 3.797 3.871zm-2.531 0c0-.712-.567-1.29-1.266-1.29-.699 0-1.266.578-1.266 1.29 0 .713.567 1.29 1.266 1.29.699 0 1.266-.577 1.266-1.29z"/></g></g></svg>