<svg xmlns="http://www.w3.org/2000/svg" width="38" height="33" viewBox="0 0 38 33"><defs><clipPath id="15pwa"><path fill="#fff" d="M0 33V0h38v33zM37 5.86a.61.61 0 0 0-.346-.551l-9-4.255-.029-.009a.754.754 0 0 0-.14-.039.752.752 0 0 0-.148-.003.567.567 0 0 0-.076.015l-.072.021-.025.007L19 4.591l-8.164-3.545c-.005-.002-.01-.002-.016-.005a.554.554 0 0 0-.073-.021c-.023-.006-.046-.013-.07-.017-.024-.002-.049-.002-.074-.002-.023 0-.046-.001-.069.001-.026.003-.051.01-.076.017-.022.005-.045.01-.066.017-.005.003-.01.003-.015.005l-9 3.647A.608.608 0 0 0 1 5.252v26.14c0 .201.099.39.263.503a.604.604 0 0 0 .56.061l8.77-3.554 8.171 3.548c.009.004.018.002.026.005A.582.582 0 0 0 19 32a.579.579 0 0 0 .211-.044c.009-.003.018-.001.026-.005l8.171-3.548 8.77 3.554a.595.595 0 0 0 .56-.06.614.614 0 0 0 .262-.505V5.861zM2.2 5.663l7.8-3.16v24.83l-7.8 3.16zm9-3.136l7.2 3.126V30.47l-7.2-3.126zm8.4 3.126l7.2-3.127v24.817l-7.2 3.126zm16.2 24.84l-7.8-3.16V2.559l7.8 3.688z"/></clipPath></defs><g><g><path fill="#fff" d="M37 5.86v25.531c0 .202-.099.39-.262.504a.604.604 0 0 1-.56.061l-8.77-3.554-8.171 3.548c-.008.004-.017.002-.026.005a.579.579 0 0 1-.21.044.582.582 0 0 1-.211-.044c-.008-.003-.017-.001-.026-.005l-8.171-3.548-8.77 3.554A.6.6 0 0 1 1 31.391V5.251c0-.248.15-.47.377-.563l9-3.647c.005-.002.01-.002.015-.005.021-.007.044-.012.066-.017.025-.006.05-.014.076-.017.023-.002.046 0 .069 0 .025 0 .05-.001.075.001.023.004.046.011.069.017.025.006.05.012.073.021.006.003.01.003.016.005L19 4.591l8.164-3.545.025-.007.072-.021a.567.567 0 0 1 .075-.015c.023-.002.045-.002.067-.002a.501.501 0 0 1 .146.019.495.495 0 0 1 .077.025c.009.003.019.005.028.01l9 4.254A.61.61 0 0 1 37 5.86zM2.2 30.493l7.8-3.16V2.503l-7.8 3.16zm9-3.15l7.2 3.126V5.653l-7.2-3.126zm8.4 3.126l7.2-3.126V2.526l-7.2 3.127zM35.8 6.247L28 2.559v24.774l7.8 3.16z"/><path fill="none" stroke="#fff" stroke-linecap="round" stroke-linejoin="round" stroke-miterlimit="50" stroke-width="2" d="M37 5.86v25.531c0 .202-.099.39-.262.504a.604.604 0 0 1-.56.061l-8.77-3.554-8.171 3.548c-.008.004-.017.002-.026.005a.579.579 0 0 1-.21.044.582.582 0 0 1-.211-.044c-.008-.003-.017-.001-.026-.005l-8.171-3.548-8.77 3.554A.6.6 0 0 1 1 31.391V5.251c0-.248.15-.47.377-.563l9-3.647c.005-.002.01-.002.015-.005.021-.007.044-.012.066-.017.025-.006.05-.014.076-.017.023-.002.046 0 .069 0 .025 0 .05-.001.075.001.023.004.046.011.069.017.025.006.05.012.073.021.006.003.01.003.016.005L19 4.591l8.164-3.545.025-.007.072-.021a.567.567 0 0 1 .075-.015c.023-.002.045-.002.067-.002a.501.501 0 0 1 .146.019.495.495 0 0 1 .077.025c.009.003.019.005.028.01l9 4.254A.61.61 0 0 1 37 5.86zM2.2 30.493l7.8-3.16V2.503l-7.8 3.16zm9-3.15l7.2 3.126V5.653l-7.2-3.126zm8.4 3.126l7.2-3.126V2.526l-7.2 3.127zM35.8 6.247L28 2.559v24.774l7.8 3.16z" clip-path="url(&quot;#15pwa&quot;)"/></g></g></svg>