<svg xmlns="http://www.w3.org/2000/svg" width="39" height="39" viewBox="0 0 39 39"><g><g><path fill="#fff" d="M39 24.045v2.283a3.43 3.43 0 0 1-2.285 3.228v3.62c0 .631-.512 1.142-1.143 1.142-5.974 0-10.88 1.414-15.438 4.45a1.146 1.146 0 0 1-1.268 0c-4.559-3.036-9.464-4.45-15.438-4.45a1.142 1.142 0 0 1-1.143-1.142v-3.62A3.43 3.43 0 0 1 0 26.328v-2.283a3.43 3.43 0 0 1 2.285-3.228v-3.62c0-.63.512-1.142 1.143-1.142 2.36 0 4.56.2 6.64.606a10.32 10.32 0 0 1 4.29-2.482 7.972 7.972 0 0 1-2.856-6.114C11.502 3.618 15.09 0 19.5 0s7.998 3.619 7.998 8.066a7.973 7.973 0 0 1-2.856 6.114 10.32 10.32 0 0 1 4.29 2.482c2.079-.407 4.28-.606 6.64-.606.631 0 1.143.511 1.143 1.142v3.62A3.43 3.43 0 0 1 39 24.045zM19.5 13.773c3.15 0 5.713-2.56 5.713-5.708 0-3.188-2.563-5.783-5.713-5.783s-5.713 2.595-5.713 5.783a5.717 5.717 0 0 0 5.713 5.708zM4.57 26.328v-2.282a1.143 1.143 0 0 0-2.285 0v2.282a1.143 1.143 0 0 0 2.285 0zm13.787-3.947c-4.103-2.61-8.418-3.873-13.787-4.027v2.463a3.43 3.43 0 0 1 2.285 3.229v2.282a3.43 3.43 0 0 1-2.285 3.228v2.496c5.189.15 9.64 1.35 13.787 3.719zm7.79-5.03a8.018 8.018 0 0 0-4.362-1.296h-4.57c-1.56 0-3.075.46-4.362 1.296a27.154 27.154 0 0 1 6.647 3.052 27.153 27.153 0 0 1 6.647-3.052zm8.282 12.205a3.43 3.43 0 0 1-2.285-3.228v-2.282a3.43 3.43 0 0 1 2.285-3.229v-2.463c-5.368.154-9.683 1.418-13.787 4.028v13.389c4.148-2.37 8.6-3.568 13.787-3.72zm2.286-5.51a1.143 1.143 0 0 0-2.286 0v2.282a1.143 1.143 0 0 0 2.286 0z"/></g></g></svg>