<svg xmlns="http://www.w3.org/2000/svg" width="37" height="35" viewBox="0 0 37 35"><g><g><path fill="#fff" d="M37 11.645v5.838c0 .645-.518 1.168-1.156 1.168h-1.157v14.013c0 1.286-1.038 2.336-2.312 2.336H4.625c-1.274 0-2.313-1.05-2.313-2.336V18.65H1.156A1.162 1.162 0 0 1 0 17.483v-5.838c0-1.288 1.038-2.336 2.312-2.336H9.63c-.525-.362-.976-.722-1.293-1.044-1.861-1.894-1.861-4.977.003-6.87 1.81-1.842 4.97-1.844 6.782 0 1.002 1.015 3.661 5.151 3.296 7.914h.166c-.367-2.763 2.294-6.899 3.296-7.915 1.813-1.843 4.971-1.84 6.782 0 1.864 1.894 1.864 4.977 0 6.871-.314.322-.765.682-1.29 1.044h7.316c1.275 0 2.313 1.048 2.313 2.336zM9.978 6.618c.997 1.014 4.047 2.69 5.645 2.69.33 0 .428-.077.428-.077.539-.562-1.01-4.607-2.57-6.19a2.442 2.442 0 0 0-1.75-.738c-.661 0-1.283.261-1.753.738a2.565 2.565 0 0 0 0 3.577zm7.366 12.033H4.624v14.013h12.72zm0-7.006H2.312v4.67h15.032zm3.603-2.414c.002.003.099.078.43.078 1.598 0 4.648-1.677 5.645-2.69a2.565 2.565 0 0 0 0-3.578c-.937-.949-2.565-.951-3.504 0-1.559 1.583-3.108 5.628-2.571 6.19zm11.428 9.42H19.656v14.013h12.719zm2.312-7.006h-15.03v4.67h15.03z"/></g></g></svg>