<svg width="23" height="30" viewBox="0 0 23 30" xmlns="http://www.w3.org/2000/svg"><title>4C127EE4-37E6-4F63-AAB2-DB75CFE0997C</title><path d="M22.906 20.084a.649.649 0 0 1 .07.51c-1.168 4.107-3.956 8.54-6.427 8.54-1.657 0-2.637-.459-3.424-.826-.49-.23-.877-.41-1.304-.41-.427 0-.813.18-1.304.41-.787.367-1.766.825-3.425.825C3.977 29.133 0 21.861 0 16.163 0 10.17 4.294 6.9 6.501 6.9c1.122 0 2.17.368 3.096.693.795.28 1.545.542 2.224.542.678 0 1.429-.263 2.223-.542.927-.325 1.976-.693 3.096-.693 1.373 0 3.522 1.246 4.974 3.631.1.161.12.361.058.541a.602.602 0 0 1-.376.378c-1.724.577-2.883 2.223-2.883 4.096 0 2.137 1.537 3.969 3.576 4.262a.585.585 0 0 1 .417.276zM10.542 6.9a.575.575 0 0 1-.575-.575A6.332 6.332 0 0 1 16.292 0c.317 0 .575.258.575.575A6.332 6.332 0 0 1 10.542 6.9z" fill="#FFF"/></svg>