<svg width="25" height="30" viewBox="0 0 25 30" xmlns="http://www.w3.org/2000/svg"><title>E35D8E42-2B12-4F4B-8890-5641BC171225</title><path d="M15.23 5.302c.832-1.24 1.408-2.95 1.04-4.63-1.488.208-3.167 1.283-4.1 2.596-.85 1.19-1.496 2.917-1.084 4.52 1.637-.063 3.254-1.157 4.144-2.486zm9.189 15.394c-.552 1.498-.821 2.168-1.574 3.513-1.049 1.877-2.549 4.228-4.602 4.388-1.822.148-2.376-1.03-4.85-.842-2.475.186-2.908 1.408-4.736 1.518-2.054.125-3.765-1.782-5.065-3.495-3.637-4.786-4.394-10.65-2.587-13.923C2.292 9.53 4.475 8.07 6.611 7.92c2.174-.152 3.625.948 5.425.822 1.747-.122 2.726-1.395 5.24-1.571 1.904-.133 3.994.766 5.554 2.459-4.524 2.914-3.291 9.596 1.589 11.065z" fill="#FFF"/></svg>