<svg width="18" height="18" viewBox="0 0 18 18" xmlns="http://www.w3.org/2000/svg"><title>1443C442-9B67-435B-B76E-A65B16B4BF5D</title><g transform="translate(1 1.27)" fill="none" fill-rule="evenodd"><path d="M12.035 1.474c.07.07.07.14.139.21 1.113 1.333 1.809 3.017 1.809 4.912 0 4.14-3.34 7.508-7.444 7.508-1.391 0-2.713-.42-3.826-1.052-.556-.21-1.043-.492-1.53-.772a7.865 7.865 0 0 0 6.539 3.508c4.313 0 7.791-3.508 7.791-7.789a7.844 7.844 0 0 0-3.478-6.525z" fill="#B9BCBF" fill-rule="nonzero" opacity=".5"/><ellipse stroke="#B9BCBF" stroke-width="1.043" cx="7.861" cy="7.929" rx="7.652" ry="7.719"/><path d="M10.922.982S8.626 2.947 6.748 6.736c-1.878 3.79-2.296 8.07-2.296 8.07" stroke="#B9BCBF" stroke-width="1.043"/><path d="M15.513 6.807s-3.409.56-7.652-.772C3.687 4.7 2.504 2.596 2.504 2.596M.209 8.701s3.06-1.544 6.887-.35c3.826 1.122 6.121 4.981 6.121 4.981" stroke="#B9BCBF" stroke-width="1.043"/></g></svg>