<svg width="18" height="18" viewBox="0 0 18 18" xmlns="http://www.w3.org/2000/svg"><title>4E2BF2DE-2E2C-442D-9657-D37DC756D524</title><path d="M10.5 6.3c1.5.9 2.1 2.8 1.2 4.3-.9 1.5-2.8 2.1-4.3 1.2-1.5-.9-2.1-2.8-1.2-4.3.9-1.6 2.8-2.1 4.3-1.2zm4.9 1.4l1-.6c.3-.2.5-.6.3-1l-1.4-2.5c-.2-.3-.6-.5-1-.3l-1 .6c-.2.1-.6.1-.8 0-.1-.1-.3-.2-.4-.3-.2-.1-.3-.2-.5-.3-.3-.1-.4-.4-.4-.7V1.4c0-.4-.3-.7-.7-.7H7.6c-.4 0-.7.3-.7.7v1.2c0 .3-.2.5-.4.7-.3.2-.7.3-1 .6-.2.2-.5.2-.8 0l-1-.6c-.3-.2-.8-.1-1 .3L1.3 6.1c-.2.3-.1.8.3 1l1 .6c.2.1.4.4.4.7v1.2c0 .3-.1.5-.4.7l-1 .6c-.3.2-.5.6-.3 1l1.4 2.5c.2.3.6.5 1 .3l1-.6c.2-.1.6-.1.8 0 .1.1.3.2.4.3.2.1.3.2.5.3.3.1.4.4.4.7v1.2c0 .4.3.7.7.7h2.9c.4 0 .7-.3.7-.7v-1.2c0-.3.2-.5.4-.7.3-.2.7-.3 1-.6.2-.2.5-.2.8 0l1 .6c.3.2.8.1 1-.3l1.4-2.5c.2-.3.1-.8-.3-1l-1-.6c-.2-.1-.4-.4-.4-.7V8.4c.1-.3.2-.5.4-.7z" stroke="#333" stroke-width="1.3" fill="none" stroke-linecap="round" stroke-linejoin="round"/></svg>