<svg width="22" height="22" viewBox="0 0 22 22" xmlns="http://www.w3.org/2000/svg"><title>31988C4A-D35A-4243-AAAC-84C94F8A5FDB</title><path d="M11 21c.572 0 1.133-.048 1.68-.14L11 21zm9.794-7.974c.135-.654.206-1.332.206-2.026 0-5.523-4.477-10-10-10S1 5.477 1 11s4.477 10 10 10m1.249-8.361H8.178h4.071zm0-2.34H8.178h4.071zm.068 0H9.495V6.944h2.677c.928 0 1.679.751 1.679 1.679v.141c0 .847-.687 1.535-1.534 1.535zm-2.822 4.754V6.944v8.109zm7.575 4.937v-5.417 5.417zm-2.708-2.709h5.417-5.417z" stroke="#5EAE2C" stroke-width="1.5" fill="none" stroke-linecap="round" stroke-linejoin="round"/></svg>