<svg width="22" height="22" viewBox="0 0 22 22" xmlns="http://www.w3.org/2000/svg"><title>90F50246-0972-492A-9556-778493DD24D1</title><path d="M12.249 12.645H8.178h4.071zm0-2.345H8.178h4.071zm.068 0H9.495V6.945h2.678c.927 0 1.678.752 1.678 1.679v.141c0 .848-.687 1.535-1.534 1.535zm-2.822 4.754V6.945v8.109zm3.771-13.796A10.007 10.007 0 0 0 11 1C5.477 1 1 5.477 1 11s4.477 10 10 10 10-4.477 10-10a9.976 9.976 0 0 0-.585-3.379m-1.368-3.829l-1.843-1.843-1.843 1.843m1.843-1.843v4.752-2.744" stroke="#5EAE2C" stroke-width="1.5" fill="none" stroke-linecap="round" stroke-linejoin="round"/></svg>