<svg xmlns="http://www.w3.org/2000/svg" width="22" height="22" viewBox="0 0 22 22"><g><g><path fill="#fff" d="M22 6.875v8.25a6.875 6.875 0 0 1-6.875 6.874h-8.25A6.875 6.875 0 0 1 0 15.125v-8.25A6.875 6.875 0 0 1 6.875 0h8.25A6.875 6.875 0 0 1 22 6.875zm-2.063 0a4.818 4.818 0 0 0-4.812-4.813h-8.25a4.818 4.818 0 0 0-4.813 4.813v8.25a4.818 4.818 0 0 0 4.813 4.812h8.25a4.818 4.818 0 0 0 4.812-4.812zM16.5 11a5.5 5.5 0 1 1-11 0 5.5 5.5 0 0 1 11 0zm-2.063 0A3.441 3.441 0 0 0 11 7.562 3.441 3.441 0 0 0 7.562 11 3.442 3.442 0 0 0 11 14.437 3.442 3.442 0 0 0 14.437 11zm2.475-6.646a.733.733 0 1 1 0 1.466.733.733 0 0 1 0-1.466z"/></g></g></svg>