<svg xmlns="http://www.w3.org/2000/svg" width="23" height="14" viewBox="0 0 23 14"><g><g><path fill="#fff" d="M22.877 12.645a1.684 1.684 0 0 0-.078-.16c-.4-.767-1.162-1.708-2.287-2.824l-.024-.026-.012-.013-.012-.012h-.012c-.51-.52-.834-.87-.97-1.048-.248-.341-.303-.686-.168-1.036.096-.264.455-.822 1.078-1.674.327-.452.587-.813.778-1.086 1.381-1.96 1.98-3.212 1.796-3.757L22.895.88c-.048-.076-.172-.147-.371-.211-.2-.064-.455-.074-.767-.032L18.31.664c-.056-.021-.136-.02-.24.006l-.155.039-.06.032-.048.038a.555.555 0 0 0-.132.134.908.908 0 0 0-.12.224 21.536 21.536 0 0 1-1.28 2.875c-.296.529-.567.987-.815 1.374a6.566 6.566 0 0 1-.622.856c-.168.184-.32.33-.455.441-.136.111-.24.158-.311.14a7.729 7.729 0 0 1-.204-.05.834.834 0 0 1-.27-.313 1.475 1.475 0 0 1-.137-.499 5.83 5.83 0 0 1-.042-.518c-.004-.144-.002-.349.006-.613s.012-.443.012-.537c0-.323.006-.675.018-1.054l.03-.9c.008-.223.012-.457.012-.704a3.14 3.14 0 0 0-.042-.581 2.078 2.078 0 0 0-.126-.41.677.677 0 0 0-.245-.306 1.32 1.32 0 0 0-.401-.173C12.259.063 11.72.008 11.065 0 9.58-.018 8.626.084 8.203.306c-.167.094-.319.221-.455.383-.143.188-.163.29-.06.307.48.076.819.26 1.018.55l.072.153c.056.11.112.307.168.588.056.281.092.592.107.933.04.622.04 1.154 0 1.597-.04.443-.077.788-.113 1.036a2.177 2.177 0 0 1-.306.881.206.206 0 0 1-.06.064.838.838 0 0 1-.323.064c-.112 0-.247-.06-.407-.179a2.966 2.966 0 0 1-.497-.492 6.61 6.61 0 0 1-.58-.875 15.701 15.701 0 0 1-.671-1.33l-.192-.37c-.12-.239-.283-.586-.49-1.042a20.807 20.807 0 0 1-.551-1.323.838.838 0 0 0-.288-.408l-.06-.039a.784.784 0 0 0-.191-.108 1.224 1.224 0 0 0-.275-.084L.768.638C.432.638.205.718.085.88L.037.957a.435.435 0 0 0-.036.205c0 .094.024.208.072.345.48 1.201 1 2.36 1.563 3.476C2.198 6.1 2.687 6.998 3.102 7.68c.415.682.839 1.326 1.27 1.93.43.605.716.993.856 1.163.14.171.25.298.329.384l.3.306c.19.205.472.45.844.735.37.285.782.567 1.233.844.45.277.976.502 1.574.677a5.106 5.106 0 0 0 1.749.21h1.377c.279-.025.49-.118.634-.28l.048-.064a.876.876 0 0 0 .09-.236c.028-.107.041-.224.041-.352a4.493 4.493 0 0 1 .078-.99c.06-.294.128-.515.204-.664a1.622 1.622 0 0 1 .461-.563.718.718 0 0 1 .096-.045c.191-.068.417-.002.676.198.26.201.503.448.73.742.228.294.502.624.821.99.32.366.599.64.838.818l.24.153c.16.103.367.196.622.282.255.085.479.106.67.064l3.066-.051c.303 0 .539-.054.706-.16.168-.107.268-.224.3-.352.032-.127.033-.272.006-.434a1.692 1.692 0 0 0-.084-.34z"/></g></g></svg>