<svg xmlns="http://www.w3.org/2000/svg" width="71" height="63" viewBox="0 0 71 63"><g><g><path fill="#131313" d="M71.002 33.569v14.02c0 3.623-1.942 7.502-7.385 7.502H47.97v6.557c0 .404-.176.787-.482 1.044a1.316 1.316 0 0 1-1.873-.178l-6.121-7.423h-2.568c-3.566 0-7.385-1.973-7.385-7.503v-14.02c.003-.41.03-.821.08-1.23H16.074l-6.653 8.004c-.254.31-.63.49-1.027.49a1.342 1.342 0 0 1-1.328-1.355v-7.193C3.473 31.92 0 29.621 0 24.064V8.274C0 2.177 4.152 0 8.143 0h30.02c3.991 0 8.183 2.177 8.183 8.287v15.791a10.42 10.42 0 0 1-.2 2.015h17.471c3.58 0 7.399 1.946 7.385 7.476zm-34.064-7.476h6.467c.175-.661.256-1.345.24-2.029V8.301c0-4.853-3.433-5.584-5.483-5.584H8.143c-2.049 0-5.482.717-5.482 5.57v15.777c0 4.84 3.433 5.57 5.482 5.57h.253c.735 0 1.33.606 1.33 1.352v4.8l4.645-5.638a1.323 1.323 0 0 1 1.024-.486h14.957l.053-.027c1.345-2.339 3.872-3.709 6.533-3.542zm31.416 21.495l-.013-13.992c.034-.314.034-.63 0-.944-.256-2.39-2.371-4.116-4.724-3.856H36.938a4.245 4.245 0 0 0-.899-.003c-2.354.246-4.066 2.384-3.825 4.776v14.02c-.033.313-.033.629 0 .943.257 2.39 2.372 4.116 4.724 3.856h3.154c.395-.001.771.177 1.024.486l4.165 5.057v-4.192c0-.746.596-1.351 1.33-1.351h17.02c.308.034.62.034.928 0 2.353-.26 4.052-2.41 3.795-4.8zM28.223 12.086a3.15 3.15 0 0 1-.346 1.501 4.602 4.602 0 0 1-.812 1.122c-.32.315-.887.843-1.703 1.582-.192.174-.374.36-.546.554a2.222 2.222 0 0 0-.306.432c-.066.126-.12.257-.16.393-.026.121-.093.365-.16.69v.018a1.11 1.11 0 0 1-1.184 1.036 1.197 1.197 0 0 1-.864-.338 1.365 1.365 0 0 1-.36-1.028 3.615 3.615 0 0 1 .945-2.568c.367-.395.753-.769 1.158-1.123.426-.378.732-.662.918-.851.19-.192.35-.41.479-.65.132-.234.2-.5.2-.77a1.796 1.796 0 0 0-.6-1.352 2.148 2.148 0 0 0-1.53-.554 2.095 2.095 0 0 0-1.61.568 4.507 4.507 0 0 0-.878 1.65c-.257.765-.7 1.148-1.33 1.148a1.32 1.32 0 0 1-.945-.405 1.226 1.226 0 0 1-.386-.865 3.688 3.688 0 0 1 .692-2.015 4.684 4.684 0 0 1 1.77-1.636 5.5 5.5 0 0 1 2.66-.648 5.721 5.721 0 0 1 2.542.54 4.143 4.143 0 0 1 1.757 1.541c.394.6.603 1.307.599 2.028zm-4.112 10.87a1.503 1.503 0 0 1-1.038.405 1.555 1.555 0 0 1-1.064-.405 1.362 1.362 0 0 1-.453-1.122c-.006-.403.153-.79.44-1.068a1.463 1.463 0 0 1 1.077-.433l.013.014h.027c.808.007 1.458.68 1.45 1.5.028.421-.14.831-.452 1.109zm28.688 13.195l-.572 5.543a4.467 4.467 0 0 1-.333 1.541.877.877 0 0 1-.851.54.85.85 0 0 1-.838-.513 5.238 5.238 0 0 1-.333-1.582l-.36-5.407c-.07-1.064-.106-1.826-.106-2.285a2.101 2.101 0 0 1 .492-1.474 1.662 1.662 0 0 1 1.331-.527c.506-.032.985.23 1.238.676.25.62.364 1.29.332 1.96.026.51.026 1.02 0 1.528zm.04 11.37c.024.474-.161.935-.505 1.257a1.7 1.7 0 0 1-1.171.46c-.44.009-.868-.15-1.198-.446a1.595 1.595 0 0 1-.506-1.258v-.027c.008-.933.758-1.684 1.677-1.676.452-.012.89.164 1.21.487.323.313.502.75.493 1.203z"/></g></g></svg>