<svg height="16" viewBox="0 0 50 50" width="16" xmlns="http://www.w3.org/2000/svg"><path fill="none" d="M0 0h50v50H0z"/><path d="M40 14H10c-3.076 0-5 3-5 5v21.384A4.615 4.615 0 0 0 9.616 45h30.768A4.616 4.616 0 0 0 45 40.384V18.846C45 16.299 42.549 14 40 14z" fill="none" stroke="#000" stroke-linecap="round" stroke-linejoin="round" stroke-miterlimit="10" stroke-width="2"/><path d="M37 11V7.658c0-3.331-.719-4.292-4.852-3.202-3.036.801-20.801 5.726-20.801 5.726-5.471 2.062-6.306 3.817-6.306 7.816L5 20.453" fill="none" stroke="#000" stroke-linejoin="round" stroke-miterlimit="10" stroke-width="2"/><path d="M38.502 32a2.5 2.5 0 1 1-.003-5.001A2.5 2.5 0 0 1 38.502 32z"/></svg>