<svg width="58" height="58" viewBox="0 0 58 58" fill="none" xmlns="http://www.w3.org/2000/svg">
<g clip-path="url(#clip0)">
<path d="M23.8298 51.4169L23.6594 52.2492L23.8236 51.416C23.3634 51.3253 22.9165 51.6248 22.8258 52.085C22.735 52.5457 23.0346 52.9922 23.4953 53.0829C23.4966 53.0833 23.5094 53.0855 23.5108 53.086C23.5647 53.0962 23.6183 53.1015 23.6714 53.1015C24.071 53.1015 24.4272 52.8183 24.5046 52.4112C24.5931 51.9501 24.2909 51.5049 23.8298 51.4169Z" fill="#CF0B04"/>
<path d="M30.3258 51.6899L30.4103 52.5351L30.3231 51.6903C29.8563 51.7381 29.5169 52.1554 29.5651 52.6222C29.6098 53.0594 29.9789 53.3851 30.409 53.3851C30.4382 53.3851 30.4678 53.3833 30.497 53.3807L30.5205 53.378C30.9851 53.3236 31.3148 52.9046 31.263 52.4399C31.2108 51.9757 30.7904 51.6412 30.3258 51.6899Z" fill="#CF0B04"/>
<path d="M27.0733 51.797C27.0733 51.797 27.0613 51.7965 27.0609 51.7965C26.5927 51.7753 26.2015 52.139 26.1803 52.6077C26.1595 53.0763 26.5277 53.4732 26.9963 53.4944C27.0095 53.4953 27.0224 53.4953 27.0356 53.4953C27.487 53.4953 27.8631 53.14 27.8835 52.6842C27.9047 52.2156 27.5423 51.8182 27.0733 51.797Z" fill="#CF0B04"/>
<path d="M20.6914 50.5535L20.6808 50.5495C20.2392 50.3911 19.7577 50.622 19.5993 51.0637C19.4405 51.5053 19.675 51.9938 20.1166 52.1527C20.2118 52.1867 20.3087 52.2027 20.4038 52.2027C20.7521 52.2027 21.0791 51.9872 21.2034 51.6402C21.3623 51.1986 21.1331 50.7119 20.6914 50.5535Z" fill="#CF0B04"/>
<path d="M33.5321 51.0952L33.7414 51.9187L33.5294 51.0961C33.075 51.2129 32.8015 51.6762 32.9183 52.1306C33.017 52.5138 33.3622 52.7687 33.7405 52.7687C33.8109 52.7687 33.8821 52.7599 33.9534 52.7413C33.9569 52.7404 33.9719 52.7364 33.9759 52.7355C34.4268 52.6125 34.6906 52.1492 34.5702 51.6974C34.4498 51.2461 33.9848 50.9775 33.5321 51.0952Z" fill="#CF0B04"/>
<path d="M36.6036 50.0238L36.9404 50.8035L36.601 50.0246C36.1708 50.2123 35.9739 50.7127 36.1611 51.1429C36.3005 51.4628 36.6129 51.6535 36.9408 51.6535C37.0536 51.6535 37.1691 51.6305 37.2793 51.5827C37.2828 51.5809 37.2966 51.5752 37.3001 51.5734C37.7262 51.3809 37.9143 50.8818 37.724 50.4548C37.5337 50.0273 37.0319 49.8357 36.6036 50.0238Z" fill="#CF0B04"/>
<path d="M17.4463 11.294C17.5826 11.294 17.7211 11.2613 17.849 11.1932C18.2632 10.9723 18.4194 10.4577 18.1986 10.0435C17.9778 9.62978 17.4636 9.4727 17.0494 9.69395L17.0392 9.69926C16.6255 9.92007 16.4737 10.432 16.6945 10.8462C16.8467 11.1321 17.1423 11.294 17.4463 11.294Z" fill="#CF0B04"/>
<path d="M7.61866 20.7836C7.74477 20.8495 7.87974 20.8809 8.01293 20.8809C8.3187 20.8809 8.61429 20.7154 8.76607 20.4256L8.78112 20.3959C8.98821 19.9747 8.81475 19.4654 8.39348 19.2587C7.97532 19.0525 7.46998 19.2224 7.26023 19.6379C7.0434 20.053 7.20359 20.5659 7.61866 20.7836Z" fill="#CF0B04"/>
<path d="M6.42261 23.9799C6.51288 24.0104 6.60448 24.025 6.69519 24.025C7.0492 24.025 7.37975 23.8016 7.49967 23.4475L7.51073 23.4139C7.64879 22.9657 7.39701 22.49 6.94831 22.3523C6.50359 22.2152 6.03144 22.4621 5.88939 22.9046C5.74027 23.3484 5.97878 23.8299 6.42261 23.9799Z" fill="#CF0B04"/>
<path d="M9.29487 17.8114C9.44576 17.9211 9.62055 17.9742 9.79401 17.9742C10.0564 17.9742 10.3157 17.8525 10.4817 17.6242L10.4927 17.6091C10.7653 17.2277 10.6764 16.6985 10.2958 16.4259C9.91482 16.1528 9.38381 16.2405 9.11034 16.621L9.7949 17.1246L9.10769 16.6246C8.83157 17.0042 8.91564 17.5357 9.29487 17.8114Z" fill="#CF0B04"/>
<path d="M14.5618 13.1292C14.7401 13.1292 14.9198 13.073 15.0733 12.9561C15.4521 12.6791 15.534 12.1477 15.257 11.7689C14.9795 11.3901 14.4481 11.3083 14.0697 11.5853L14.0485 11.6007C13.675 11.8844 13.6007 12.4185 13.8843 12.7924C14.0516 13.0128 14.3051 13.1292 14.5618 13.1292Z" fill="#CF0B04"/>
<path d="M5.66402 36.8646C5.77642 37.2296 6.11183 37.4637 6.47469 37.4637C6.55744 37.4637 6.64195 37.4513 6.72515 37.4257C7.17119 37.2889 7.42298 36.8163 7.28934 36.3694C7.16145 35.9233 6.69904 35.6614 6.24901 35.784C5.79633 35.9074 5.5295 36.3747 5.65296 36.8274C5.65561 36.8362 5.66136 36.8557 5.66402 36.8646Z" fill="#CF0B04"/>
<path d="M11.9955 15.3682C12.2163 15.3682 12.4371 15.2828 12.6039 15.1129C12.9354 14.781 12.9354 14.2429 12.6039 13.9115C12.272 13.5796 11.734 13.5796 11.4021 13.9115L11.3879 13.9257C11.0596 14.2606 11.0662 14.7978 11.4012 15.1262C11.5662 15.2881 11.7809 15.3682 11.9955 15.3682Z" fill="#CF0B04"/>
<path d="M6.60304 33.1604C6.5433 32.6989 6.12159 32.3714 5.65962 32.4263C5.1941 32.482 4.86134 32.9046 4.91665 33.3706L4.92152 33.4047C4.98347 33.8268 5.34588 34.1295 5.76051 34.1295C5.80122 34.1295 5.84282 34.1264 5.88485 34.1202C6.34727 34.0529 6.66809 33.6228 6.60304 33.1604Z" fill="#CF0B04"/>
<path d="M5.53567 30.7271C5.54452 30.7271 5.55293 30.7276 5.56134 30.7276C6.01889 30.7276 6.39679 30.3634 6.41006 29.9027L6.41095 29.8665C6.41095 29.397 6.03039 29.0168 5.56134 29.0168C5.09538 29.0168 4.71748 29.3912 4.71173 29.8554C4.69934 30.3236 5.06795 30.7134 5.53567 30.7271Z" fill="#CF0B04"/>
<path d="M5.72201 27.3199C5.7729 27.3287 5.8229 27.3331 5.8729 27.3331C6.27647 27.3331 6.63445 27.0442 6.70835 26.6331C6.71057 26.6207 6.71234 26.6083 6.71411 26.5959C6.78269 26.1317 6.46188 25.6998 5.99725 25.6317C5.53837 25.5635 5.1087 25.8791 5.0348 26.3366C4.95426 26.7977 5.26136 27.2371 5.72201 27.3199Z" fill="#CF0B04"/>
<path d="M45.7997 18.0795C45.9643 18.3184 46.2289 18.4463 46.4988 18.4463C46.6648 18.4463 46.8329 18.3976 46.9798 18.2963C47.3661 18.0308 47.4639 17.5015 47.1984 17.1148L46.4922 17.5874L47.1958 17.1108C46.932 16.7223 46.4037 16.621 46.0156 16.8843C45.6271 17.1475 45.5257 17.6759 45.789 18.0644L45.7997 18.0795Z" fill="#CF0B04"/>
<path d="M50.1384 26.629C49.672 26.6813 49.3366 27.1021 49.3892 27.5685L49.3937 27.6052C49.4543 28.0287 49.818 28.3345 50.234 28.3345C50.2738 28.3345 50.3145 28.3318 50.3552 28.326C50.8159 28.2601 51.1371 27.8358 51.0774 27.3755C51.0238 26.9105 50.6017 26.5768 50.1384 26.629Z" fill="#CF0B04"/>
<path d="M48.7046 24.2316L48.7082 24.2426C48.817 24.613 49.1555 24.8528 49.5228 24.8528C49.602 24.8528 49.6826 24.8418 49.7627 24.8179C50.2131 24.6856 50.4707 24.2134 50.3384 23.7629L50.3348 23.7519C50.2025 23.3014 49.7304 23.0439 49.2799 23.1766C48.8299 23.3089 48.5723 23.7811 48.7046 24.2316Z" fill="#CF0B04"/>
<path d="M47.5045 21.0548C47.6527 21.3562 47.9558 21.5318 48.2709 21.5318C48.3961 21.5318 48.5236 21.504 48.6435 21.4447C49.0643 21.2376 49.2391 20.7313 49.0316 20.3101L48.2616 20.669L49.0307 20.3083C48.8316 19.8835 48.3258 19.7008 47.901 19.8999C47.4762 20.099 47.293 20.6048 47.4921 21.0296L47.5045 21.0548Z" fill="#CF0B04"/>
<path d="M43.6597 15.4261C43.8261 15.5961 44.046 15.681 44.2664 15.681C44.481 15.681 44.6956 15.6005 44.8611 15.4381C45.1939 15.1124 45.2014 14.5801 44.8806 14.2447C44.5624 13.9017 44.0261 13.8809 43.6818 14.1986C43.3371 14.5168 43.3159 15.0544 43.634 15.3992L43.6597 15.4261Z" fill="#CF0B04"/>
<path d="M50.4144 30.1767C49.9476 30.1647 49.5568 30.5307 49.5405 30.9975C49.5192 31.4626 49.8763 31.8586 50.3418 31.8847C50.3582 31.8856 50.3737 31.8861 50.3901 31.8861C50.8374 31.8861 51.2122 31.5361 51.2374 31.0834L51.2388 31.0484C51.2521 30.5798 50.883 30.1904 50.4144 30.1767Z" fill="#CF0B04"/>
<path d="M38.2265 11.2543L38.2469 11.2653C38.3734 11.3326 38.5093 11.3644 38.6429 11.3644C38.9451 11.3644 39.2376 11.2016 39.3912 10.9162C39.6124 10.5042 39.4567 9.98913 39.046 9.76611L38.6349 10.5095L39.0434 9.76434C38.6318 9.53866 38.1154 9.68956 37.8898 10.1011C37.6645 10.5122 37.815 11.029 38.2265 11.2543Z" fill="#CF0B04"/>
<path d="M41.1002 13.1176L41.1135 13.1278C41.267 13.2442 41.4471 13.3004 41.6263 13.3004C41.883 13.3004 42.1365 13.1845 42.3038 12.9641C42.5875 12.5902 42.514 12.0574 42.1405 11.7738L42.1348 11.7698C41.7626 11.4839 41.2294 11.5538 40.9436 11.926C40.6577 12.2981 40.7281 12.8318 41.1002 13.1176Z" fill="#CF0B04"/>
<path d="M57.4756 43.0389L53.4873 39.0435C53.1479 38.7037 52.697 38.5165 52.2169 38.5165C51.7372 38.5165 51.2859 38.7037 50.9469 39.0435L50.8544 39.136L50.5925 38.8741C50.269 38.5497 50.0185 38.1722 49.8486 37.7612C49.8336 37.7067 49.8137 37.6536 49.788 37.6036C49.6579 37.2381 49.5902 36.8492 49.5902 36.4496V35.3194C49.6676 35.3601 49.7522 35.3898 49.8429 35.4053C49.8915 35.4137 49.9398 35.4177 49.9876 35.4177C50.3907 35.4177 50.7473 35.13 50.8221 34.7211C50.9128 34.2618 50.615 33.8153 50.1553 33.7233C49.953 33.683 49.753 33.718 49.5849 33.8091C49.5327 32.602 49.0393 31.4745 48.1808 30.6143L44.3116 26.7384C43.4434 25.8688 42.2889 25.39 41.0609 25.39C40.1104 25.39 39.205 25.6781 38.4413 26.2113L38.0306 25.7985V16.0811C38.0306 14.9098 37.6054 13.7796 36.8337 12.8995C36.2845 12.2738 35.9823 11.4702 35.9823 10.6365V9.9245H36.0407C37.031 9.9245 37.8368 9.1187 37.8368 8.12793V2.47626C37.8368 1.48549 37.031 0.679688 36.0407 0.679688H20.1703C19.1799 0.679688 18.3741 1.48549 18.3741 2.47626V8.12793C18.3741 9.1187 19.1799 9.9245 20.1703 9.9245H20.3012V10.2971C20.3012 11.2131 19.945 12.0742 19.2985 12.7216L17.5856 14.4376C16.6767 15.3483 16.1762 16.5585 16.1762 17.8462V23.3275C16.1762 24.0723 16.355 24.7754 16.6696 25.3985C15.543 25.4635 14.4929 25.933 13.6884 26.7384L9.81918 30.6143C8.91028 31.5249 8.40981 32.7356 8.40981 34.0229V36.4496C8.40981 37.3656 8.05403 38.2267 7.40753 38.8741L7.14867 39.1334C7.14734 39.1343 7.14645 39.1351 7.14557 39.136L7.05353 39.0435C6.71413 38.7037 6.26321 38.5165 5.7831 38.5165C5.30342 38.5165 4.85207 38.7037 4.51311 39.0435L0.524368 43.0389C-0.174789 43.7394 -0.174789 44.8793 0.524368 45.5798L1.89038 46.9476C2.22182 47.2799 2.7599 47.2803 3.09178 46.9489C3.42366 46.617 3.42455 46.0794 3.09267 45.747L1.7271 44.3788C1.6886 44.3403 1.6886 44.2779 1.7271 44.2394L5.71584 40.2441C5.75301 40.2069 5.81363 40.2064 5.8508 40.2441L6.5442 40.9388H6.54465L16.0129 50.4234L17.0736 51.4863C17.1121 51.5248 17.1121 51.5872 17.0736 51.6257L13.0853 55.6211C13.0477 55.6587 12.9871 55.6587 12.9499 55.6211L5.49812 48.1565C5.16669 47.8242 4.6286 47.8237 4.29672 48.1552C3.9644 48.487 3.96396 49.0247 4.29539 49.357L11.7476 56.8216C12.0866 57.1615 12.5379 57.3486 13.0181 57.3486C13.4977 57.3486 13.9486 57.1615 14.288 56.8216L18.2763 52.8262C18.9755 52.1262 18.9755 50.9863 18.2763 50.2858L18.233 50.2425L18.7361 49.7384C19.3237 49.1495 20.1043 48.7955 20.934 48.7419C22.1018 48.6662 23.2005 48.168 24.0276 47.3392L27.6915 43.6673C28.7482 43.3898 29.5708 42.5291 29.7943 41.4512C30.1709 41.6304 30.5917 41.7313 31.036 41.7313C32.6339 41.7313 33.9339 40.4299 33.9339 38.8298V36.8124C34.2994 36.9793 34.7052 37.0731 35.1327 37.0731C36.7306 37.0731 38.0302 35.7717 38.0302 34.1716V28.2075L40.6436 30.8337C40.8096 31.0006 41.0277 31.0838 41.2459 31.0838C41.4627 31.0838 41.6795 31.0015 41.8455 30.8364C42.1778 30.5054 42.1791 29.9678 41.8481 29.635L39.6692 27.4455C40.0909 27.2132 40.5662 27.0893 41.0609 27.0893C41.8344 27.0893 42.5619 27.3911 43.1088 27.9393L46.9781 31.8148C47.5666 32.4046 47.891 33.1888 47.891 34.0229V36.4496C47.891 37.8191 48.4233 39.1064 49.3897 40.0746L49.6535 40.3387L48.4211 41.5733L40.9675 49.0397L40.552 48.6233C40.5476 48.6193 40.5436 48.6149 40.5392 48.6109L40.4662 48.5375C39.5865 47.6565 38.4178 47.1268 37.1762 47.0462C36.4208 46.9971 35.7101 46.675 35.1725 46.1369L32.3807 43.3602C32.048 43.0292 31.5099 43.0305 31.1789 43.3633C30.8483 43.696 30.8497 44.2341 31.1824 44.5647L33.9724 47.3392C34.7995 48.168 35.8982 48.6662 37.0664 48.7419C37.8957 48.7955 38.6763 49.1495 39.2639 49.738L39.3051 49.7791C39.3272 49.8044 39.3506 49.8278 39.3754 49.8499L39.767 50.242L39.7237 50.2858C39.0245 50.9863 39.0245 52.1258 39.7237 52.8262L43.712 56.8216C44.0514 57.1615 44.5023 57.3486 44.9824 57.3486C45.4621 57.3486 45.9134 57.1615 46.2528 56.8216L57.4756 45.5793C58.1748 44.8788 58.1748 43.7394 57.4756 43.0389ZM50.1597 34.5906L50.1438 34.588L49.9889 34.5565L50.1597 34.5906ZM22.8248 46.1387C22.2899 46.675 21.5792 46.9971 20.8243 47.0462C19.5822 47.1268 18.4135 47.6565 17.5338 48.5375L17.0325 49.0397L16.5811 48.5875C16.5753 48.5817 16.5696 48.5755 16.5638 48.5702L8.34653 40.3387L8.61026 40.0746C9.57669 39.1064 10.109 37.8191 10.109 36.4496V34.0229C10.109 33.1888 10.4329 32.4046 11.0219 31.8148L14.8912 27.9393C15.4381 27.3911 16.1656 27.0893 16.9391 27.0893C17.4351 27.0893 17.9122 27.2141 18.3352 27.4481L16.1528 29.6341C15.8213 29.966 15.8218 30.5041 16.1536 30.8355C16.3196 31.001 16.5368 31.0838 16.7541 31.0838C16.9718 31.0838 17.1895 31.0006 17.3555 30.8346L19.9623 28.223V38.8298C19.9623 40.4299 21.2624 41.7313 22.8602 41.7313C23.3107 41.7313 23.7373 41.6278 24.1178 41.4437C24.2904 42.2858 24.8285 42.9955 25.5578 43.4L22.8248 46.1387ZM36.3314 34.172C36.3314 34.8349 35.7933 35.3743 35.1327 35.3743C34.4716 35.3743 33.9339 34.8349 33.9339 34.172V24.6949C33.9339 24.2258 33.5538 23.8453 33.0843 23.8453C32.6148 23.8453 32.2347 24.2258 32.2347 24.6949V38.8302C32.2347 39.4931 31.6971 40.0321 31.036 40.0321C30.4426 40.0321 29.9501 39.5976 29.8549 39.0289V24.6851C29.8549 24.2156 29.4748 23.8355 29.0053 23.8355C28.8544 23.8355 28.7124 23.8754 28.5894 23.9444C28.3208 24.0873 28.138 24.3696 28.138 24.6949V38.8298C28.138 38.9378 28.1442 39.0435 28.1557 39.1484V40.8605C28.1557 41.5233 27.6181 42.0627 26.957 42.0627C26.2963 42.0627 25.7587 41.5233 25.7587 40.8605V24.675C25.7587 24.2059 25.3781 23.8253 24.909 23.8253C24.4395 23.8253 24.059 24.2059 24.059 24.675V38.8298C24.059 39.4927 23.5213 40.0321 22.8607 40.0321C22.1996 40.0321 21.6619 39.4927 21.6619 38.8298V23.0257C21.6619 22.5562 21.2814 22.1757 20.8123 22.1757C20.3428 22.1757 19.9627 22.5562 19.9627 23.0257V25.9489C19.8915 25.9719 19.8224 26.0042 19.7583 26.0467C18.6595 25.6339 17.8754 24.571 17.8754 23.3275V17.8462C17.8754 17.0121 18.1998 16.228 18.7883 15.6381L20.5013 13.9221C21.4681 12.9539 22.0005 11.6666 22.0005 10.2971V9.9245H23.7085C24.178 9.9245 24.5581 9.54395 24.5581 9.07489C24.5581 8.60539 24.178 8.22528 23.7085 8.22528H20.1703C20.1167 8.22528 20.0733 8.18147 20.0733 8.12793V2.47626C20.0733 2.42271 20.1167 2.37891 20.1703 2.37891H36.0403C36.0942 2.37891 36.1376 2.42271 36.1376 2.47626V8.12793C36.1376 8.18192 36.0942 8.22528 36.0403 8.22528H27.6973C27.2282 8.22528 26.8477 8.60539 26.8477 9.07489C26.8477 9.54395 27.2282 9.9245 27.6973 9.9245H34.2831V10.6365C34.2831 11.8826 34.7349 13.084 35.5557 14.0203C36.0557 14.5903 36.3314 15.3222 36.3314 16.0811V34.172ZM56.2729 44.3788L45.0501 55.6211C45.0315 55.6401 45.0089 55.6494 44.9824 55.6494C44.9563 55.6494 44.9337 55.6401 44.9147 55.6211L40.9264 51.6257C40.8879 51.5872 40.8879 51.5248 40.9264 51.4863L41.5685 50.8429L41.5689 50.8425L48.0839 44.3164L52.1492 40.2441C52.1864 40.2064 52.247 40.2064 52.2842 40.2441L56.2729 44.2394C56.3114 44.2779 56.3114 44.3403 56.2729 44.3788Z" fill="#CF0B04"/>
<path d="M22.8603 4.39587C22.3616 4.39587 21.9558 4.80254 21.9558 5.30212C21.9558 5.80215 22.3616 6.20837 22.8603 6.20837C23.3594 6.20837 23.7652 5.80215 23.7652 5.30212C23.7652 4.80254 23.3594 4.39587 22.8603 4.39587Z" fill="#CF0B04"/>
<path d="M52.4948 43.1248C51.9956 43.1248 51.5898 43.5314 51.5898 44.031C51.5898 44.5306 51.9956 44.9373 52.4948 44.9373C52.9935 44.9373 53.3992 44.5306 53.3992 44.031C53.3992 43.5314 52.9935 43.1248 52.4948 43.1248Z" fill="#CF0B04"/>
<path d="M14.1585 51.7925C14.1585 51.2929 13.7527 50.8862 13.254 50.8862C12.7549 50.8862 12.3491 51.2929 12.3491 51.7925C12.3491 52.2921 12.7549 52.6987 13.254 52.6987C13.7527 52.6987 14.1585 52.2921 14.1585 51.7925Z" fill="#CF0B04"/>
</g>
<defs>
<clipPath id="clip0">
<rect width="58" height="58" fill="white"/>
</clipPath>
</defs>
</svg>
