<svg width="58" height="58" viewBox="0 0 58 58" fill="none" xmlns="http://www.w3.org/2000/svg">
<path d="M56.1875 28.0938H55.2812V22.5004C55.2812 20.6045 54.5436 18.8228 53.2032 17.4843C51.8629 16.1439 50.0812 15.4062 48.1862 15.4062H47.125V14.4257C49.2882 13.1696 50.75 10.8333 50.75 8.15625C50.75 4.15878 47.4975 0.90625 43.5 0.90625C39.5025 0.90625 36.25 4.15878 36.25 8.15625C36.25 10.8324 37.7118 13.1696 39.875 14.4257V15.4062H38.8138C36.9188 15.4062 35.1371 16.1439 33.7968 17.4843C32.4564 18.8237 31.7188 20.6045 31.7188 22.5004V28.0938H29.9062V25.375C29.9062 24.8738 29.5002 24.4688 29 24.4688H26.2812V24.1579C26.2812 21.5153 27.173 19.0113 28.807 16.9822C29.1441 17.1318 29.5147 17.2188 29.9062 17.2188C31.4052 17.2188 32.625 15.9989 32.625 14.5C32.625 13.0011 31.4052 11.7812 29.9062 11.7812C28.4073 11.7812 27.1875 13.0011 27.1875 14.5C27.1875 14.9423 27.3035 15.3528 27.4911 15.7225C25.5345 18.0942 24.4688 21.044 24.4688 24.1579V24.4688H21.75C21.2498 24.4688 20.8438 24.8738 20.8438 25.375V28.0938H19.9375C19.4373 28.0938 19.0312 28.4988 19.0312 29V32.625C19.0312 33.1262 19.4373 33.5312 19.9375 33.5312H20.8438V38.9688C18.3452 38.9688 16.3125 41.0015 16.3125 43.5C16.3125 44.8458 16.9142 46.0429 17.8486 46.874C16.4294 47.521 15.2522 48.6085 14.5 49.967C13.7478 48.6094 12.5706 47.5219 11.1514 46.874C12.0858 46.0429 12.6875 44.8458 12.6875 43.5C12.6875 41.0015 10.6548 38.9688 8.15625 38.9688C5.65772 38.9688 3.625 41.0015 3.625 43.5C3.625 44.8458 4.22675 46.0429 5.16109 46.874C2.65531 48.0168 0.90625 50.5397 0.90625 53.4688V56.1875C0.90625 56.6887 1.31225 57.0938 1.8125 57.0938H39.875C40.3753 57.0938 40.7812 56.6887 40.7812 56.1875V55.2812H54.375C54.8753 55.2812 55.2812 54.8762 55.2812 54.375V33.5312H56.1875C56.6878 33.5312 57.0938 33.1262 57.0938 32.625V29C57.0938 28.4988 56.6878 28.0938 56.1875 28.0938ZM29.9062 13.5938C30.4056 13.5938 30.8125 13.9998 30.8125 14.5C30.8125 15.0002 30.4056 15.4062 29.9062 15.4062C29.4069 15.4062 29 15.0002 29 14.5C29 13.9998 29.4069 13.5938 29.9062 13.5938ZM53.4688 22.5004V28.0938H51.6562V24.4688H49.8438V28.0938H44.4062V21.4038L46.7199 22.5602C46.8468 22.6245 46.9863 22.6562 47.125 22.6562C47.2428 22.6562 47.3606 22.6336 47.4721 22.5874C47.715 22.4868 47.9017 22.2856 47.985 22.0373L49.532 17.3973C50.4274 17.632 51.2502 18.0942 51.9227 18.7666C52.9196 19.7635 53.4688 21.0893 53.4688 22.5004ZM40.3281 17.2188L42.1234 19.6122L40.4043 20.4722L39.3204 17.2188H40.3281ZM46.6719 17.2188H47.6805L46.5967 20.4722L44.8775 19.6122L46.6719 17.2188ZM43.5 2.71875C46.1644 2.71875 48.3829 4.64634 48.8451 7.17931C47.1286 6.96181 45.54 6.19513 44.2975 4.95266L44.1425 4.79678C43.8027 4.45513 43.1991 4.45513 42.8593 4.79678L42.7052 4.95175C41.4618 6.19513 39.8732 6.96181 38.1567 7.17841C38.6171 4.64634 40.8356 2.71875 43.5 2.71875ZM38.1305 9.01447C40.1224 8.81691 41.9857 8.01125 43.5 6.68813C45.0143 8.01034 46.8767 8.81691 48.8695 9.01447C48.4572 11.6063 46.2061 13.5938 43.5 13.5938C40.7939 13.5938 38.5428 11.6063 38.1305 9.01447ZM43.5 15.4062C44.1271 15.4062 44.7316 15.3183 45.3125 15.1679V16.0107L43.5 18.4268L41.6875 16.0107V15.1679C42.2684 15.3183 42.8729 15.4062 43.5 15.4062ZM33.5312 22.5004C33.5312 21.0893 34.0804 19.7626 35.0782 18.7657C35.7507 18.0942 36.5735 17.6311 37.4689 17.3964L39.0159 22.0364C39.0992 22.2847 39.2859 22.4859 39.5288 22.5865C39.6394 22.6336 39.7572 22.6562 39.875 22.6562C40.0137 22.6562 40.1532 22.6245 40.2801 22.5611L42.5938 21.4038V28.0938H37.1562V24.4688H35.3438V28.0938H33.5312V22.5004ZM22.6562 26.2812H28.0938V28.0938H22.6562V26.2812ZM18.125 43.5C18.125 42.0011 19.3448 40.7812 20.8438 40.7812C22.3427 40.7812 23.5625 42.0011 23.5625 43.5C23.5625 44.9989 22.3427 46.2188 20.8438 46.2188C19.3448 46.2188 18.125 44.9989 18.125 43.5ZM5.4375 43.5C5.4375 42.0011 6.65731 40.7812 8.15625 40.7812C9.65519 40.7812 10.875 42.0011 10.875 43.5C10.875 44.9989 9.65519 46.2188 8.15625 46.2188C6.65731 46.2188 5.4375 44.9989 5.4375 43.5ZM2.71875 53.4688C2.71875 50.47 5.15747 48.0312 8.15625 48.0312C11.155 48.0312 13.5938 50.47 13.5938 53.4688V55.2812H2.71875V53.4688ZM15.4062 53.4688C15.4062 50.47 17.845 48.0312 20.8438 48.0312C23.8425 48.0312 26.2812 50.47 26.2812 53.4688V55.2812H15.4062V53.4688ZM38.9688 55.2812H28.0938V53.4688C28.0938 50.47 30.5325 48.0312 33.5312 48.0312C36.53 48.0312 38.9688 50.47 38.9688 53.4688V55.2812ZM30.8125 43.5C30.8125 42.0011 32.0323 40.7812 33.5312 40.7812C35.0302 40.7812 36.25 42.0011 36.25 43.5C36.25 44.9989 35.0302 46.2188 33.5312 46.2188C32.0323 46.2188 30.8125 44.9989 30.8125 43.5ZM53.4688 53.4688H40.7812C40.7812 50.5397 39.0322 48.0168 36.5264 46.874C37.4608 46.0429 38.0625 44.8458 38.0625 43.5C38.0625 41.0015 36.0298 38.9688 33.5312 38.9688C31.0327 38.9688 29 41.0015 29 43.5C29 44.8458 29.6017 46.0429 30.5361 46.874C29.1169 47.521 27.9397 48.6085 27.1875 49.967C26.4353 48.6094 25.2581 47.5219 23.8389 46.874C24.7733 46.0429 25.375 44.8458 25.375 43.5C25.375 41.6467 24.254 40.0544 22.6562 39.353V33.5312H53.4688V53.4688ZM55.2812 31.7188H20.8438V29.9062H55.2812V31.7188Z" fill="#CF0B04"/>
<path d="M3.625 19.0312H18.125C19.6239 19.0312 20.8438 17.8114 20.8438 16.3125V14.8752L24.2032 11.5157C24.5576 11.1614 24.5576 10.5886 24.2032 10.2343L20.8438 6.87481V5.4375C20.8438 3.93856 19.6239 2.71875 18.125 2.71875H3.625C2.12606 2.71875 0.90625 3.93856 0.90625 5.4375V16.3125C0.90625 17.8114 2.12606 19.0312 3.625 19.0312ZM2.71875 5.4375C2.71875 4.93725 3.12566 4.53125 3.625 4.53125H18.125C18.6243 4.53125 19.0312 4.93725 19.0312 5.4375V7.25C19.0312 7.49106 19.1264 7.72125 19.2968 7.89072L22.2811 10.875L19.2968 13.8593C19.1264 14.0288 19.0312 14.2589 19.0312 14.5V16.3125C19.0312 16.8127 18.6243 17.2188 18.125 17.2188H3.625C3.12566 17.2188 2.71875 16.8127 2.71875 16.3125V5.4375Z" fill="#CF0B04"/>
<path d="M4.53125 6.34375H17.2188V8.15625H4.53125V6.34375Z" fill="#CF0B04"/>
<path d="M4.53125 13.5938H17.2188V15.4062H4.53125V13.5938Z" fill="#CF0B04"/>
<path d="M6.34375 9.96875H15.4062V11.7812H6.34375V9.96875Z" fill="#CF0B04"/>
</svg>
