<svg width="57" height="57" viewBox="0 0 57 57" fill="none" xmlns="http://www.w3.org/2000/svg">
<path d="M46.092 16.5601C46.7068 16.5601 47.2053 16.0616 47.2053 15.4468V3.33984C47.2053 1.49825 45.7071 0 43.8655 0H3.34204C1.50045 0 0.00219727 1.49825 0.00219727 3.33984V53.6602C0.00219727 55.5017 1.50045 57 3.34204 57H43.8655C45.7071 57 47.2053 55.5017 47.2053 53.6602V45.4584C47.2053 44.8435 46.7068 44.3451 46.092 44.3451C45.4773 44.3451 44.9787 44.8435 44.9787 45.4584V53.6602C44.9787 54.274 44.4793 54.7734 43.8655 54.7734H3.34204C2.72818 54.7734 2.22876 54.274 2.22876 53.6602V3.33984C2.22876 2.72598 2.72818 2.22656 3.34204 2.22656H43.8655C44.4793 2.22656 44.9787 2.72598 44.9787 3.33984V15.4468C44.9787 16.0616 45.4773 16.5601 46.092 16.5601Z" fill="#CF0B04"/>
<path d="M23.6024 6.01172C17.9549 6.01172 13.3602 10.6063 13.3602 16.2539C13.3602 19.1837 14.5971 21.8298 16.5756 23.6983C16.6127 23.7379 16.6521 23.7755 16.6952 23.8096C18.5177 25.4772 20.9432 26.496 23.6023 26.496C26.2614 26.496 28.6869 25.4771 30.5094 23.8096C30.5525 23.7755 30.5919 23.7378 30.629 23.6983C32.6077 21.8298 33.8446 19.1837 33.8446 16.2539C33.8446 10.6063 29.25 6.01172 23.6024 6.01172ZM23.6024 24.2695C21.7845 24.2695 20.1068 23.6603 18.7606 22.6366C19.7391 20.9015 21.565 19.8164 23.6024 19.8164C25.6398 19.8164 27.4657 20.9015 28.4442 22.6366C27.0979 23.6603 25.4203 24.2695 23.6024 24.2695ZM21.8212 15.8086V15.085C21.8212 14.1028 22.6203 13.3037 23.6024 13.3037C24.5845 13.3037 25.3837 14.1028 25.3837 15.085V15.8086C25.3837 16.7907 24.5845 17.5898 23.6024 17.5898C22.6203 17.5898 21.8212 16.7907 21.8212 15.8086ZM30.0528 21.0057C29.2317 19.788 28.0938 18.8409 26.7727 18.2563C27.2971 17.5786 27.6102 16.7297 27.6102 15.8086V15.085C27.6102 12.875 25.8124 11.0771 23.6024 11.0771C21.3924 11.0771 19.5946 12.875 19.5946 15.085V15.8086C19.5946 16.7297 19.9078 17.5786 20.4321 18.2563C19.111 18.8409 17.9731 19.788 17.1521 21.0057C16.1691 19.675 15.5868 18.0315 15.5868 16.2539C15.5868 11.8341 19.1826 8.23828 23.6024 8.23828C28.0222 8.23828 31.618 11.8341 31.618 16.2539C31.618 18.0315 31.0357 19.675 30.0528 21.0057Z" fill="#CF0B04"/>
<path d="M29.614 48.7617H23.6023C22.9875 48.7617 22.489 49.2601 22.489 49.875C22.489 50.4899 22.9875 50.9883 23.6023 50.9883H29.614C30.2288 50.9883 30.7273 50.4899 30.7273 49.875C30.7273 49.2601 30.2288 48.7617 29.614 48.7617Z" fill="#CF0B04"/>
<path d="M29.6141 42.5273H13.8055C13.1908 42.5273 12.6923 43.0258 12.6923 43.6406C12.6923 44.2555 13.1908 44.7539 13.8055 44.7539H29.6141C30.2289 44.7539 30.7274 44.2555 30.7274 43.6406C30.7274 43.0258 30.2289 42.5273 29.6141 42.5273Z" fill="#CF0B04"/>
<path d="M29.6141 36.293H13.8055C13.1908 36.293 12.6923 36.7914 12.6923 37.4062C12.6923 38.0211 13.1908 38.5195 13.8055 38.5195H29.6141C30.2289 38.5195 30.7274 38.0211 30.7274 37.4062C30.7274 36.7914 30.2289 36.293 29.6141 36.293Z" fill="#CF0B04"/>
<path d="M9.83765 30.3848C9.63069 30.1777 9.34347 30.0586 9.04956 30.0586C8.75666 30.0586 8.46943 30.1777 8.26247 30.3848C8.0554 30.5919 7.93628 30.8791 7.93628 31.1719C7.93628 31.4647 8.05529 31.7519 8.26247 31.959C8.47065 32.166 8.75666 32.2852 9.04956 32.2852C9.34347 32.2852 9.62958 32.166 9.83765 31.959C10.0447 31.7519 10.164 31.4647 10.164 31.1719C10.164 30.8791 10.0448 30.5919 9.83765 30.3848Z" fill="#CF0B04"/>
<path d="M9.83765 36.6192C9.62958 36.4121 9.34347 36.293 9.04956 36.293C8.75666 36.293 8.47065 36.4121 8.26247 36.6192C8.0554 36.8262 7.93628 37.1135 7.93628 37.4062C7.93628 37.699 8.05529 37.9863 8.26247 38.1933C8.47065 38.4004 8.75666 38.5195 9.04956 38.5195C9.34347 38.5195 9.62958 38.4004 9.83765 38.1933C10.0447 37.9863 10.164 37.699 10.164 37.4062C10.164 37.1135 10.0448 36.8262 9.83765 36.6192Z" fill="#CF0B04"/>
<path d="M9.83765 42.8535C9.62958 42.6465 9.34347 42.5273 9.04956 42.5273C8.75666 42.5273 8.47065 42.6465 8.26247 42.8535C8.0554 43.0606 7.93628 43.3478 7.93628 43.6406C7.93628 43.9334 8.05529 44.2206 8.26247 44.4277C8.46943 44.6348 8.75666 44.7539 9.04956 44.7539C9.34347 44.7539 9.63069 44.6348 9.83765 44.4277C10.0447 44.2206 10.164 43.9334 10.164 43.6406C10.164 43.3478 10.0448 43.0606 9.83765 42.8535Z" fill="#CF0B04"/>
<path d="M29.6141 30.0586H13.8055C13.1908 30.0586 12.6923 30.557 12.6923 31.1719C12.6923 31.7867 13.1908 32.2852 13.8055 32.2852H29.6141C30.2289 32.2852 30.7274 31.7867 30.7274 31.1719C30.7274 30.557 30.2289 30.0586 29.6141 30.0586Z" fill="#CF0B04"/>
<path d="M54.6624 14.5083C53.5809 13.8839 52.3208 13.718 51.1143 14.0412C49.9079 14.3645 48.8995 15.1382 48.2752 16.2198L34.2654 40.4852C34.1887 40.6182 34.1402 40.7657 34.1231 40.9183L33.137 49.7516C33.088 50.1911 33.3038 50.618 33.6867 50.8392C33.8596 50.939 34.0517 50.9884 34.2433 50.9884C34.4762 50.9884 34.7082 50.9155 34.9036 50.7716L42.0602 45.5008C42.1839 45.4098 42.2874 45.2941 42.3641 45.1611L56.3737 20.8956C57.6629 18.6629 56.8952 15.7975 54.6624 14.5083ZM35.6321 47.4697L36.1471 42.8571L39.3692 44.7174L35.6321 47.4697ZM40.9925 43.0836L36.7504 40.6343L47.9928 21.1619L52.235 23.6112L40.9925 43.0836ZM54.4455 19.7823L53.3482 21.683L49.106 19.2337L50.2034 17.333C50.5305 16.7665 51.0586 16.3613 51.6905 16.1919C52.3226 16.0225 52.9826 16.1095 53.549 16.4366C54.1156 16.7637 54.5208 17.2918 54.6901 17.9237C54.8595 18.5556 54.7726 19.2157 54.4455 19.7823Z" fill="#CF0B04"/>
</svg>
