<svg width="58" height="57" viewBox="0 0 58 57" fill="none" xmlns="http://www.w3.org/2000/svg">
<g clip-path="url(#clip0)">
<path d="M54.8542 2.56055H3.14577C1.41115 2.56055 0 3.94736 0 5.65208V16.8458C0 17.3111 0.384094 17.689 0.858017 17.689C1.33194 17.689 1.71603 17.3111 1.71603 16.8458V5.65208C1.71603 4.87756 2.35767 4.24699 3.14577 4.24699H54.8542C55.6428 4.24699 56.284 4.87756 56.284 5.65208V39.3801C56.284 40.1551 55.6423 40.7852 54.8542 40.7852H37.0908C37.1487 40.3999 37.1793 40.0059 37.1793 39.6045C37.1793 39.2036 37.1487 38.8096 37.0908 38.4243H48.2189C48.6928 38.4243 49.0769 38.0468 49.0769 37.5811C49.0769 35.4424 50.8474 33.7024 53.0236 33.7024C53.4975 33.7024 53.8816 33.3249 53.8816 32.8592V18.5157C53.8816 18.0499 53.4975 17.6725 53.0236 17.6725C52.5497 17.6725 52.1656 18.0499 52.1656 18.5157V32.0799C49.7287 32.4456 47.7976 34.343 47.4259 36.7378H36.6398C35.4623 33.7176 32.4825 31.5663 29 31.5663C25.5175 31.5663 22.5377 33.7176 21.3602 36.7378H10.5741C10.2024 34.343 8.2713 32.4456 5.83443 32.0799V12.9523C8.2713 12.5866 10.2024 10.6892 10.5741 8.29438H47.4259C47.798 10.6892 49.7287 12.5866 52.1656 12.9523V14.5831C52.1656 15.0489 52.5501 15.4263 53.0236 15.4263C53.4975 15.4263 53.8816 15.0489 53.8816 14.5831V12.173C53.8816 11.7073 53.4975 11.3298 53.0236 11.3298C50.8474 11.3298 49.0769 9.58987 49.0769 7.45116C49.0769 6.9854 48.6928 6.60793 48.2189 6.60793H9.78113C9.30721 6.60793 8.92311 6.9854 8.92311 7.45116C8.92311 9.58987 7.15265 11.3298 4.97641 11.3298C4.50249 11.3298 4.11839 11.7073 4.11839 12.173V32.8592C4.11839 33.3249 4.50249 33.7024 4.97641 33.7024C7.15265 33.7024 8.92311 35.4424 8.92311 37.5811C8.92311 38.0468 9.30721 38.4243 9.78113 38.4243H20.9092C20.8513 38.81 20.8207 39.204 20.8207 39.605C20.8207 40.0059 20.8513 40.3999 20.9092 40.7857H3.14577C2.35722 40.7857 1.71603 40.1551 1.71603 39.3801V20.7666C1.71603 20.3009 1.33194 19.9234 0.858017 19.9234C0.384094 19.9234 0 20.3009 0 20.7666V39.3801C0 41.0849 1.41115 42.4717 3.14577 42.4717H21.3602C21.6496 43.2144 22.0482 43.9042 22.5363 44.5226V53.5458C22.5363 53.8267 22.6788 54.0889 22.916 54.2455C23.1532 54.4021 23.4541 54.4325 23.7187 54.3264L29 52.2077L34.2813 54.3264C34.3857 54.3681 34.4959 54.389 34.6052 54.389C34.7734 54.389 34.9406 54.3403 35.084 54.2455C35.3212 54.0889 35.4637 53.8267 35.4637 53.5458V51.134C35.4637 50.6682 35.0791 50.2907 34.6057 50.2907C34.1317 50.2907 33.7476 50.6682 33.7476 51.134V52.2907L29.3244 50.5164C29.1164 50.4334 28.8836 50.4334 28.6756 50.5164L24.2524 52.2907V46.1446C25.5923 47.0866 27.2309 47.6432 29 47.6432C30.7691 47.6432 32.4077 47.0866 33.7476 46.1446V47.1936C33.7476 47.6593 34.1317 48.0368 34.6057 48.0368C35.0791 48.0368 35.4637 47.6593 35.4637 47.1936V44.5226C35.9518 43.9042 36.3504 43.2144 36.6398 42.4717H54.8542C56.5889 42.4717 58 41.0849 58 39.3801V5.65208C58 3.94736 56.5889 2.56055 54.8542 2.56055V2.56055ZM29 45.9568C25.4361 45.9568 22.5363 43.1075 22.5363 39.605C22.5363 36.1025 25.4361 33.2528 29 33.2528C32.5639 33.2528 35.4637 36.1025 35.4637 39.605C35.4637 43.1075 32.5639 45.9568 29 45.9568Z" fill="#CF0B04"/>
<path d="M36.5505 13.6907C37.0244 13.6907 37.4085 13.3132 37.4085 12.8475C37.4085 12.3817 37.0244 12.0043 36.5505 12.0043H21.4496C20.9756 12.0043 20.5916 12.3817 20.5916 12.8475C20.5916 13.3132 20.9756 13.6907 21.4496 13.6907H36.5505Z" fill="#CF0B04"/>
<path d="M42.2704 16.5013H15.7298C15.2559 16.5013 14.8718 16.8788 14.8718 17.3446C14.8718 17.8103 15.2559 18.1878 15.7298 18.1878H42.2704C42.7443 18.1878 43.1284 17.8103 43.1284 17.3446C43.1284 16.8788 42.7443 16.5013 42.2704 16.5013Z" fill="#CF0B04"/>
<path d="M42.2704 20.9984H15.7298C15.2559 20.9984 14.8718 21.3759 14.8718 21.8416C14.8718 22.3074 15.2559 22.6849 15.7298 22.6849H42.2704C42.7443 22.6849 43.1284 22.3074 43.1284 21.8416C43.1284 21.3759 42.7443 20.9984 42.2704 20.9984Z" fill="#CF0B04"/>
<path d="M42.2703 26.1699H38.152C37.678 26.1699 37.2939 26.5474 37.2939 27.0131C37.2939 27.4789 37.678 27.8564 38.152 27.8564H42.2703C42.7443 27.8564 43.1284 27.4789 43.1284 27.0131C43.1284 26.5474 42.7443 26.1699 42.2703 26.1699Z" fill="#CF0B04"/>
<path d="M15.7298 26.1699C15.2559 26.1699 14.8718 26.5474 14.8718 27.0131C14.8718 27.4789 15.2559 27.8564 15.7298 27.8564H19.8482C20.3222 27.8564 20.7063 27.4789 20.7063 27.0131C20.7063 26.5474 20.3222 26.1699 19.8482 26.1699H15.7298Z" fill="#CF0B04"/>
<path d="M29.0001 35.1641C26.5083 35.1641 24.4812 37.1562 24.4812 39.605C24.4812 42.0538 26.5083 44.046 29.0001 44.046C31.4918 44.046 33.5189 42.0538 33.5189 39.605C33.5189 37.1562 31.4918 35.1641 29.0001 35.1641ZM29.0001 42.3595C27.4544 42.3595 26.1972 41.1236 26.1972 39.605C26.1972 38.086 27.4544 36.8505 29.0001 36.8505C30.5457 36.8505 31.8029 38.086 31.8029 39.605C31.8029 41.1236 30.5457 42.3595 29.0001 42.3595Z" fill="#CF0B04"/>
<path d="M26.083 27.0132C26.083 28.594 27.3915 29.8799 29 29.8799C30.6085 29.8799 31.917 28.594 31.917 27.0132C31.917 25.4324 30.6085 24.1465 29 24.1465C27.3915 24.1465 26.083 25.4324 26.083 27.0132ZM30.2014 27.0132C30.2014 27.6642 29.6624 28.1939 29 28.1939C28.3376 28.1939 27.7986 27.6642 27.7986 27.0132C27.7986 26.3622 28.3376 25.8325 29 25.8325C29.6624 25.8325 30.2014 26.3622 30.2014 27.0132Z" fill="#CF0B04"/>
</g>
<defs>
<clipPath id="clip0">
<rect width="58" height="57" fill="white"/>
</clipPath>
</defs>
</svg>
