<svg width="76" height="76" viewBox="0 0 76 76" fill="none" xmlns="http://www.w3.org/2000/svg">
<path d="M69.3204 26.8125H53.7345V15.6797C53.7345 11.9965 50.738 9 47.0548 9H6.6797C2.99651 9 0 11.9965 0 15.6797V42.3985C0 46.0817 2.99651 49.0782 6.6797 49.0782H8.90627V55.7579C8.90627 57.5411 10.898 58.5902 12.3678 57.6105L22.2657 51.0121V60.211C22.2657 63.8942 25.2622 66.8907 28.9454 66.8907H50.8337L63.6322 75.4231C65.1041 76.4044 67.0937 75.3541 67.0937 73.5704V66.8907H69.3203C73.0035 66.8907 76 63.8942 76 60.211V33.4922C76.0002 29.809 73.0036 26.8125 69.3204 26.8125ZM23.251 45.0031C23.2489 45.0046 23.2467 45.006 23.2446 45.0073L13.3594 51.5975V46.8516C13.3594 45.622 12.3625 44.6251 11.1328 44.6251H6.6797C5.45197 44.6251 4.45313 43.6262 4.45313 42.3985V15.6797C4.45313 14.452 5.45197 13.4531 6.6797 13.4531H47.0548C48.2825 13.4531 49.2813 14.452 49.2813 15.6797V42.3985C49.2813 43.6262 48.2825 44.6251 47.0548 44.6251H24.4922C24.0613 44.6251 23.616 44.7584 23.251 45.0031ZM71.547 60.211C71.547 61.4388 70.5482 62.4376 69.3204 62.4376H64.8673C63.6377 62.4376 62.6408 63.4345 62.6408 64.6642V69.41L52.7429 62.8115C52.3772 62.5676 51.9474 62.4376 51.5079 62.4376H28.9454C27.7176 62.4376 26.7188 61.4388 26.7188 60.211V49.0782H47.0548C50.738 49.0782 53.7345 46.0817 53.7345 42.3985V31.2657H69.3204C70.5482 31.2657 71.547 32.2645 71.547 33.4922V60.211Z" fill="white"/>
<path d="M28.9454 26.866H11.1328C9.90316 26.866 8.90625 27.8629 8.90625 29.0925C8.90625 30.3222 9.90316 31.3191 11.1328 31.3191H28.9454C30.175 31.3191 31.1719 30.3222 31.1719 29.0925C31.1719 27.8629 30.175 26.866 28.9454 26.866Z" fill="white"/>
<path d="M42.6016 17.9597H11.1328C9.90316 17.9597 8.90625 18.9566 8.90625 20.1863C8.90625 21.4159 9.90316 22.4129 11.1328 22.4129H42.6016C43.8313 22.4129 44.8282 21.4159 44.8282 20.1863C44.8282 18.9566 43.8313 17.9597 42.6016 17.9597Z" fill="white"/>
</svg>
