<svg width="14" height="14" viewBox="0 0 14 14" fill="none" xmlns="http://www.w3.org/2000/svg">
<path d="M12.7695 1H4.51172C3.83324 1 3.28125 1.55199 3.28125 2.23047V2.64062H2.87109C2.19261 2.64062 1.64062 3.19261 1.64062 3.87109V4.28125H1.23047C0.550348 4.28125 0 4.83537 0 5.51172V11.2539C0 11.9324 0.553109 12.4844 1.23047 12.4844H9.43359C10.1095 12.4844 10.6641 11.934 10.6641 11.2539V10.8438H11.1289C11.8074 10.8438 12.3594 10.2918 12.3594 9.61328V9.20312H12.7695C13.448 9.20312 14 8.65114 14 7.97266V2.23047C14 1.55199 13.448 1 12.7695 1ZM9.22441 5.10156L5.62341 8.73639C5.46282 8.89852 5.20127 8.89852 5.04066 8.73639L1.43965 5.10156H9.22441ZM0.820312 11.084V5.64198L3.52863 8.37573L0.820312 11.084ZM1.40036 11.6641L4.10596 8.95848L4.45791 9.31373C4.93981 9.80015 5.72433 9.80009 6.20618 9.31373L6.55813 8.95848L9.26371 11.6641H1.40036ZM9.84375 11.084L7.13543 8.37573L9.84375 5.64198V11.084ZM11.5391 9.61328C11.5391 9.83944 11.3551 10.0234 11.1289 10.0234H10.6641V5.51172C10.6641 4.83556 10.1139 4.28125 9.43359 4.28125H2.46094V3.87109C2.46094 3.64493 2.64493 3.46094 2.87109 3.46094H11.1289C11.3551 3.46094 11.5391 3.64493 11.5391 3.87109V9.61328ZM13.1797 7.97266C13.1797 8.19882 12.9957 8.38281 12.7695 8.38281H12.3594V3.87109C12.3594 3.19261 11.8074 2.64062 11.1289 2.64062H4.10156V2.23047C4.10156 2.00431 4.28556 1.82031 4.51172 1.82031H12.7695C12.9957 1.82031 13.1797 2.00431 13.1797 2.23047V7.97266Z" fill="white"/>
</svg>
