<svg width="19" height="15" viewBox="0 0 19 15" fill="none" xmlns="http://www.w3.org/2000/svg">
<path d="M18.7812 4.99347L9.67701 0.441373C9.56557 0.385672 9.43439 0.385672 9.32299 0.441373L0.218834 4.99347C0.0847207 5.06053 0 5.19761 0 5.34749C0 5.49745 0.0847207 5.6345 0.218834 5.70152L3.23267 7.20842V10.2333C3.23267 12.1015 5.98563 13.565 9.50004 13.565C13.0144 13.565 15.7674 12.1016 15.7674 10.2333V7.20842L16.8193 6.68246V9.56939C16.3344 9.73464 15.9845 10.1942 15.9845 10.7344C15.9845 11.2241 16.2721 11.6477 16.6871 11.8458L15.8462 14.0643C15.8001 14.1859 15.8167 14.3224 15.8906 14.4295C15.9646 14.5365 16.0863 14.6004 16.2164 14.6004H18.2141C18.3442 14.6004 18.4659 14.5365 18.5399 14.4295C18.6138 14.3224 18.6304 14.1859 18.5843 14.0643L17.7434 11.8458C18.1584 11.6477 18.4459 11.2241 18.4459 10.7344C18.4459 10.1942 18.096 9.7346 17.611 9.56939V6.28666L18.7813 5.70155C18.9154 5.6345 19.0001 5.49741 19.0001 5.34753C19 5.19761 18.9153 5.06053 18.7812 4.99347ZM13.4747 11.9553C12.4197 12.4828 11.0081 12.7733 9.5 12.7733C7.99191 12.7733 6.58035 12.4828 5.52525 11.9553C4.57143 11.4783 4.02433 10.8507 4.02433 10.2334V7.6043L9.32299 10.2536C9.37873 10.2815 9.43936 10.2954 9.5 10.2954C9.56064 10.2954 9.62127 10.2815 9.67701 10.2536L14.9757 7.6043V10.2334C14.9757 10.8507 14.4286 11.4783 13.4747 11.9553ZM16.7897 13.8088L17.2152 12.6861L17.6407 13.8088H16.7897ZM17.6541 10.7344C17.6542 10.9765 17.4572 11.1734 17.2152 11.1734C16.9731 11.1734 16.7762 10.9765 16.7762 10.7344C16.7762 10.493 16.9721 10.2966 17.2132 10.2955C17.2139 10.2955 17.2144 10.2956 17.2151 10.2956C17.2157 10.2956 17.2164 10.2955 17.217 10.2955C17.4582 10.2966 17.6541 10.493 17.6541 10.7344ZM17.1347 5.63965L9.53548 4.95343C9.31776 4.93361 9.12531 5.09433 9.10564 5.31205C9.08597 5.52981 9.24654 5.72222 9.46426 5.74189L15.7881 6.31293L9.5 9.45706L1.28094 5.34749L9.5 1.238L17.7191 5.34753L17.1347 5.63965Z" fill="#484848"/>
</svg>
