<svg width="19" height="19" viewBox="0 0 19 19" fill="none" xmlns="http://www.w3.org/2000/svg">
<g clip-path="url(#clip0)">
<path d="M9.43138 10.2377C9.45106 10.2377 9.47073 10.2377 9.49434 10.2377C9.50221 10.2377 9.51007 10.2377 9.51794 10.2377C9.52975 10.2377 9.54549 10.2377 9.55729 10.2377C10.7101 10.2181 11.6426 9.8128 12.3312 9.03769C13.846 7.33009 13.5942 4.40278 13.5666 4.12342C13.4682 2.0263 12.4767 1.02299 11.6583 0.554773C11.0485 0.204597 10.3363 0.0157382 9.54155 0H9.51401C9.51008 0 9.50221 0 9.49827 0H9.47466C9.03793 0 8.18019 0.0708221 7.35787 0.539035C6.53161 1.00725 5.52436 2.01056 5.426 4.12342C5.39846 4.40278 5.14664 7.33009 6.66145 9.03769C7.34607 9.8128 8.27856 10.2181 9.43138 10.2377ZM6.47653 4.22179C6.47653 4.20998 6.48046 4.19818 6.48046 4.19031C6.6103 1.36923 8.61299 1.06627 9.47073 1.06627H9.48647C9.49434 1.06627 9.50614 1.06627 9.51794 1.06627C10.5803 1.08987 12.3862 1.52268 12.5082 4.19031C12.5082 4.20211 12.5082 4.21392 12.5121 4.22179C12.5161 4.24933 12.7915 6.92483 11.5403 8.3334C11.0446 8.89211 10.3835 9.16753 9.51401 9.1754C9.50614 9.1754 9.50221 9.1754 9.49434 9.1754C9.48647 9.1754 9.48253 9.1754 9.47466 9.1754C8.60906 9.16753 7.94412 8.89211 7.4523 8.3334C6.20504 6.9327 6.47259 4.24539 6.47653 4.22179Z" fill="#484848"/>
<path d="M17.5798 15.1306C17.5798 15.1267 17.5798 15.1227 17.5798 15.1188C17.5798 15.0873 17.5758 15.0558 17.5758 15.0204C17.5522 14.2414 17.5011 12.4197 15.7935 11.8374C15.7817 11.8334 15.7659 11.8295 15.7541 11.8256C13.9796 11.3731 12.5042 10.3501 12.4884 10.3383C12.2484 10.1691 11.9179 10.2281 11.7487 10.4681C11.5795 10.7081 11.6386 11.0386 11.8786 11.2078C11.9455 11.255 13.5114 12.3449 15.4708 12.8485C16.3876 13.1751 16.4899 14.1548 16.5174 15.0519C16.5174 15.0873 16.5174 15.1188 16.5214 15.1503C16.5253 15.5044 16.5017 16.0513 16.4387 16.366C15.8013 16.728 13.3029 17.9792 9.5021 17.9792C5.71705 17.9792 3.20286 16.7241 2.56153 16.3621C2.49857 16.0473 2.47103 15.5004 2.4789 15.1463C2.4789 15.1149 2.48284 15.0834 2.48284 15.048C2.51038 14.1509 2.61268 13.1712 3.52943 12.8446C5.48884 12.341 7.0548 11.2472 7.12169 11.2039C7.36169 11.0347 7.42071 10.7042 7.25153 10.4642C7.08234 10.2242 6.75184 10.1652 6.51183 10.3344C6.49609 10.3462 5.0285 11.3692 3.24614 11.8216C3.2304 11.8256 3.2186 11.8295 3.2068 11.8334C1.4992 12.4197 1.44805 14.2414 1.42444 15.0165C1.42444 15.0519 1.42444 15.0834 1.4205 15.1149C1.4205 15.1188 1.4205 15.1227 1.4205 15.1267C1.41657 15.3313 1.41264 16.3818 1.62117 16.909C1.66051 17.0113 1.73134 17.0979 1.82576 17.1569C1.9438 17.2356 4.77275 19.0376 9.50603 19.0376C14.2393 19.0376 17.0683 17.2316 17.1863 17.1569C17.2768 17.0979 17.3515 17.0113 17.3909 16.909C17.5876 16.3857 17.5837 15.3352 17.5798 15.1306Z" fill="#484848"/>
</g>
<defs>
<clipPath id="clip0">
<rect width="19" height="19" fill="white"/>
</clipPath>
</defs>
</svg>
