<svg width="16" height="16" viewBox="0 0 16 16" fill="none" xmlns="http://www.w3.org/2000/svg">
<g clip-path="url(#clip0)">
<path d="M13.9105 4.15901H4.16552C3.26254 4.15901 2.52433 3.4241 2.52433 2.51782C2.52433 1.61483 3.25924 0.876622 4.16552 0.876622H13.9138C14.1577 0.876622 14.3521 0.678888 14.3521 0.438311C14.3521 0.194439 14.1544 0 13.9138 0H4.16552C2.77809 0 1.64771 1.13038 1.64771 2.51782V13.4822C1.64771 14.8696 2.77809 16 4.16552 16H13.9138C14.1577 16 14.3521 15.8023 14.3521 15.5617V4.59732C14.3488 4.35675 14.1544 4.15901 13.9105 4.15901ZM13.4722 15.1234H4.16552C3.26254 15.1234 2.52433 14.3885 2.52433 13.4822V4.42925C2.96593 4.80824 3.53936 5.03893 4.16552 5.03893H13.4722V15.1234Z" fill="#484848"/>
<path d="M4.30379 2.11908C4.05992 2.11908 3.86548 2.31681 3.86548 2.55739C3.86548 2.79797 4.06321 2.9957 4.30379 2.9957H12.5361C12.78 2.9957 12.9744 2.79797 12.9744 2.55739C12.9744 2.31681 12.7767 2.11908 12.5361 2.11908H4.30379Z" fill="#484848"/>
<path d="M5.84627 13.2054C5.8957 13.2218 5.94514 13.2317 5.99457 13.2317C6.17583 13.2317 6.3439 13.1197 6.40652 12.9417L6.9404 11.4488H8.99684C9.01332 11.4488 9.03309 11.4488 9.04957 11.4455L9.58345 12.9417C9.64607 13.1197 9.81743 13.2317 9.9954 13.2317C10.0448 13.2317 10.0943 13.2218 10.1437 13.2054C10.3711 13.123 10.4897 12.8725 10.4073 12.6451L8.41023 7.04593C8.40693 7.03275 8.40034 7.01957 8.39375 7.00638C8.39045 6.99979 8.38716 6.9932 8.38386 6.98661C8.38057 6.98002 8.37727 6.97343 8.37398 6.96684C8.37068 6.96025 8.36409 6.95365 8.36079 6.94377C8.3575 6.94047 8.3542 6.93388 8.35091 6.93059C8.34761 6.92399 8.34102 6.9174 8.33443 6.91081C8.33113 6.90752 8.32784 6.90093 8.32125 6.89763C8.31795 6.89104 8.31136 6.88774 8.30477 6.88115C8.29818 6.87456 8.29488 6.87127 8.28829 6.86467C8.28499 6.86138 8.2784 6.85808 8.27511 6.85149C8.26852 6.8449 8.26193 6.8416 8.25533 6.83501C8.25204 6.83172 8.24545 6.82842 8.24215 6.82513C8.23556 6.82183 8.22897 6.81524 8.22238 6.81194C8.21579 6.80865 8.2092 6.80535 8.20261 6.80206C8.19601 6.79876 8.18942 6.79547 8.18283 6.79217C8.16965 6.78558 8.15647 6.77899 8.14329 6.77569H8.13999C8.12681 6.7724 8.11362 6.7691 8.10044 6.76581C8.09385 6.76581 8.09056 6.76251 8.08396 6.76251C8.07408 6.75922 8.06749 6.75922 8.0576 6.75592C8.05101 6.75592 8.04442 6.75592 8.03783 6.75262C8.03124 6.75262 8.02135 6.74933 8.01476 6.74933C8.00817 6.74933 8.00158 6.74933 7.99498 6.74933C7.98839 6.74933 7.9818 6.74933 7.97192 6.74933C7.96532 6.74933 7.95544 6.74933 7.94885 6.75262C7.94225 6.75262 7.93566 6.75262 7.92907 6.75592C7.91919 6.75592 7.91259 6.75922 7.90271 6.76251C7.89612 6.76251 7.89282 6.76581 7.88623 6.76581C7.87305 6.7691 7.85987 6.7724 7.84998 6.77569H7.84668C7.8335 6.77899 7.82032 6.78558 7.80714 6.79217C7.80055 6.79547 7.79395 6.79876 7.78736 6.80206C7.78077 6.80535 7.77418 6.80865 7.76759 6.81194C7.761 6.81524 7.75441 6.82183 7.74452 6.82513C7.74123 6.82842 7.73463 6.83172 7.73134 6.83501C7.72475 6.8416 7.71816 6.8449 7.71157 6.85149C7.70827 6.85479 7.70168 6.85808 7.69838 6.86467C7.69179 6.87127 7.6885 6.87456 7.68191 6.88115C7.67531 6.88774 7.67202 6.89104 7.66543 6.89763C7.66213 6.90093 7.65884 6.90752 7.65224 6.91081C7.64565 6.9174 7.64236 6.92399 7.63577 6.93059C7.63247 6.93388 7.62918 6.94047 7.62588 6.94377C7.62258 6.95036 7.61599 6.95695 7.6127 6.96354C7.6094 6.97013 7.60611 6.97672 7.60281 6.98331C7.59952 6.98991 7.59622 6.9965 7.59292 7.00309C7.58633 7.01627 7.57974 7.02945 7.57645 7.04263L5.57274 12.6418C5.50024 12.8725 5.61888 13.123 5.84627 13.2054ZM7.99828 8.49599L8.73978 10.5722H7.25348L7.99828 8.49599Z" fill="#484848"/>
</g>
<defs>
<clipPath id="clip0">
<rect width="16" height="16" fill="white"/>
</clipPath>
</defs>
</svg>
