<svg width="12" height="13" viewBox="0 0 12 13" fill="none" xmlns="http://www.w3.org/2000/svg">
<path d="M5.53834 1.10996C5.70914 0.699318 6.29086 0.699318 6.46166 1.10996L7.73424 4.16962C7.80624 4.34273 7.96905 4.46102 8.15594 4.476L11.4591 4.74081C11.9024 4.77635 12.0822 5.32961 11.7444 5.61894L9.22777 7.77472C9.08537 7.8967 9.02318 8.08809 9.06669 8.27047L9.83557 11.4938C9.93876 11.9264 9.46813 12.2683 9.08858 12.0365L6.26063 10.3092C6.10062 10.2115 5.89938 10.2115 5.73937 10.3092L2.91142 12.0365C2.53187 12.2683 2.06124 11.9264 2.16443 11.4938L2.93331 8.27047C2.97682 8.08809 2.91463 7.8967 2.77224 7.77472L0.255583 5.61894C-0.0821859 5.32961 0.0975766 4.77635 0.540904 4.74081L3.84406 4.476C4.03095 4.46102 4.19376 4.34273 4.26576 4.16962L5.53834 1.10996Z" fill="#F2A91A"/>
</svg>
