<svg width="148" height="153" viewBox="0 0 148 153" fill="none" xmlns="http://www.w3.org/2000/svg">
<path fill-rule="evenodd" clip-rule="evenodd" d="M113.289 152.332L113.584 150.442L137.271 141.013L129.892 116.606L147.103 97.8174L129.892 79.0288L137.272 54.6226L113.585 45.1931L109.646 20.0152L84.2166 21.7575L69.7327 0.772293L47.5923 13.4133L25.4518 0.772682L10.9679 21.7575L0 21.006V33.7212L17.3055 34.9069L29.2764 17.5628L47.5923 28.0204L65.9085 17.5632L77.879 34.9073L98.9104 33.4663L102.171 54.3038L121.758 62.101L115.659 82.2715L129.901 97.8174L115.659 113.364L121.758 133.534L102.17 141.331L100.449 152.332H113.289Z" fill="#B90600"/>
<path d="M27.1111 60.9229C17.6392 60.9229 9.93335 68.6287 9.93335 78.1006C9.93335 87.5724 17.6392 95.2783 27.1111 95.2783C36.5829 95.2783 44.2888 87.5724 44.2888 78.1006C44.2888 68.6287 36.5833 60.9229 27.1111 60.9229ZM27.1111 82.5933C24.6342 82.5933 22.6183 80.5778 22.6183 78.1006C22.6183 75.6237 24.6338 73.6078 27.1111 73.6078C29.5883 73.6078 31.6038 75.6233 31.6038 78.1006C31.6038 80.5774 29.588 82.5933 27.1111 82.5933Z" fill="#B90600"/>
<path d="M68.0736 100.453C58.6022 100.453 50.8959 108.159 50.8959 117.631C50.8959 127.102 58.6022 134.808 68.0736 134.808C77.545 134.808 85.2513 127.102 85.2513 117.631C85.2513 108.159 77.545 100.453 68.0736 100.453ZM68.0736 122.123C65.5967 122.123 63.5808 120.108 63.5808 117.631C63.5808 115.154 65.5963 113.138 68.0736 113.138C70.5505 113.138 72.5664 115.153 72.5664 117.631C72.566 120.107 70.5505 122.123 68.0736 122.123Z" fill="#B90600"/>
<path d="M68.0216 62.4074L17.2832 125.263L27.1534 133.23L77.8918 70.3748L68.0216 62.4074Z" fill="#B90600"/>
</svg>
