<svg width="14" height="14" viewBox="0 0 14 14" fill="none" xmlns="http://www.w3.org/2000/svg">
<g clip-path="url(#clip0)">
<path d="M13.6406 10.3259L11.9002 8.58552C11.4204 8.10571 10.6396 8.10571 10.1598 8.58552L9.36874 9.3766C9.00523 9.74011 8.41373 9.74 8.05036 9.37673L4.62145 5.9449C4.25709 5.58054 4.25704 4.99082 4.62145 4.62641C4.74887 4.49898 5.11476 4.1331 5.41253 3.83532C5.89025 3.35763 5.89693 2.57929 5.41207 2.09448L3.67212 0.360009C3.1923 -0.119793 2.41155 -0.119793 1.933 0.358751C1.57491 0.713728 1.45941 0.828244 1.29885 0.987412C-0.43147 2.7177 -0.43147 5.5331 1.29876 7.26333L6.73176 12.6992C8.46612 14.4336 11.2732 14.4337 13.0077 12.6992L13.6406 12.0663C14.1205 11.5865 14.1205 10.8057 13.6406 10.3259ZM2.51187 0.940135C2.67181 0.780201 2.93201 0.780173 3.09246 0.940572L4.8324 2.67504C4.99272 2.83536 4.99272 3.09483 4.8324 3.25517L4.54231 3.54523L2.22329 1.22621L2.51187 0.940135ZM7.312 12.1191L1.87897 6.68323C0.540274 5.34454 0.466692 3.24248 1.65267 1.81587L3.96498 4.12818C3.3574 4.81694 3.38272 5.86648 4.04118 6.52494L7.46999 9.95662C7.47001 9.95664 7.47007 9.9567 7.4701 9.95672C8.12785 10.6145 9.17733 10.6415 9.86695 10.0331L12.1793 12.3454C10.7572 13.5294 8.65991 13.467 7.312 12.1191ZM13.0605 11.4862L12.7704 11.7763L10.4499 9.4557L10.74 9.16564C10.8999 9.00571 11.1601 9.00568 11.3201 9.16564L13.0605 10.906C13.2205 11.066 13.2205 11.3263 13.0605 11.4862Z" fill="white"/>
</g>
<defs>
<clipPath id="clip0">
<rect width="14" height="14" fill="white"/>
</clipPath>
</defs>
</svg>
