<svg width="18" height="10" viewBox="0 0 18 10" fill="none" xmlns="http://www.w3.org/2000/svg">
<path d="M3.94787 1.03224C4.45038 2.23233 5.08724 3.36381 5.92604 4.37956C6.03729 4.51474 6.17752 4.63491 6.32526 4.73276C6.54104 4.87607 6.74464 4.8257 6.83238 4.58699C6.92518 4.33649 7.01034 3.82882 7.0154 3.56577C7.02925 2.87843 7.01333 2.42797 6.97514 1.74148C6.95039 1.30179 6.78876 0.915713 6.11997 0.799183C5.91343 0.763054 5.89425 0.598649 6.02694 0.434645C6.30318 0.0931985 6.688 0.0387822 7.1053 0.0172472C7.78164 -0.018081 8.46046 0.0107511 9.13763 0.0172472C9.41345 0.0196943 9.69093 0.0411851 9.96257 0.0984488C10.3169 0.173154 10.5066 0.41351 10.565 0.748015C10.5952 0.920563 10.6108 1.09796 10.6066 1.27255C10.5889 2.02281 10.5516 2.77267 10.5428 3.52252C10.539 3.81685 10.5612 4.11852 10.6263 4.40515C10.7174 4.80461 10.9987 4.9049 11.2863 4.61627C11.6515 4.24969 11.9735 3.83718 12.2757 3.41823C12.8249 2.65618 13.235 1.81987 13.5881 0.957581C13.7707 0.512642 13.9105 0.416002 14.4054 0.414801C15.3357 0.412754 16.266 0.411953 17.1963 0.414801C17.3613 0.415601 17.5339 0.43064 17.6896 0.47856C17.9423 0.556514 18.0427 0.755846 17.9835 1.00879C17.8454 1.60154 17.5141 2.10535 17.1594 2.58971C16.5901 3.36675 15.9936 4.12515 15.4109 4.89325C15.3366 4.99109 15.2711 5.09543 15.2102 5.20137C14.9923 5.58219 15.0075 5.79572 15.3252 6.11278C15.8311 6.61743 16.3727 7.08956 16.8626 7.608C17.2186 7.98517 17.5481 8.39438 17.8303 8.82513C18.1871 9.36996 17.9667 9.8831 17.3 9.97445C16.8807 10.0317 14.8321 9.9749 14.7262 9.97445C14.1754 9.97205 13.6926 9.78731 13.3039 9.42557C12.8715 9.02286 12.4785 8.58112 12.0633 8.16092C11.9382 8.03425 11.8047 7.91287 11.6607 7.80689C11.3211 7.55639 10.9878 7.612 10.8291 7.99772C10.6935 8.32902 10.5763 9.19901 10.5709 9.27332C10.5423 9.66184 10.2867 9.90949 9.8366 9.93343C8.5373 10.0016 7.27825 9.86157 6.10534 9.25383C5.11121 8.73903 4.31737 8.01111 3.62971 7.16221C2.53736 5.81387 1.67455 4.33173 0.88682 2.80608C0.846562 2.72808 0.0487145 1.08626 0.0272742 1.0087C-0.0439943 0.749038 0.0224892 0.500985 0.249361 0.415601C0.390794 0.362387 3.02133 0.415423 3.06509 0.417692C3.48483 0.439672 3.77105 0.61093 3.94787 1.03224Z" fill="#DADADA"/>
</svg>
