<svg xmlns="http://www.w3.org/2000/svg" width="27" height="27" viewBox="0 0 27 27"><defs><linearGradient id="5suna" x1="27" x2="0" y1="15" y2="12" gradientUnits="userSpaceOnUse"><stop offset="0" stop-color="#ef5b4d"/><stop offset="1" stop-color="#f78b4d"/></linearGradient></defs><g><g><path d="M26.987 21.307c.057.439-.077.82-.4 1.144l-3.802 3.776c-.172.19-.395.352-.672.486a2.79 2.79 0 0 1-.814.257c-.02 0-.077.005-.172.014a3.87 3.87 0 0 1-.371.015c-.362 0-.948-.062-1.758-.186s-1.801-.43-2.973-.915c-1.172-.487-2.501-1.216-3.987-2.188-1.487-.973-3.068-2.308-4.745-4.004-1.334-1.316-2.44-2.575-3.316-3.776-.876-1.201-1.581-2.312-2.115-3.331-.533-1.02-.933-1.946-1.2-2.776C.395 8.994.214 8.279.119 7.678.023 7.077-.015 6.606.004 6.263c.02-.343.029-.535.029-.573.038-.266.124-.538.257-.815.134-.276.296-.5.486-.672L4.578.4c.266-.267.571-.4.914-.4.248 0 .467.07.658.214.19.143.352.32.486.53l3.058 5.805c.171.305.22.639.143 1.002a1.788 1.788 0 0 1-.486.915l-1.4 1.4a.482.482 0 0 0-.1.188.695.695 0 0 0-.043.214c.076.4.247.858.514 1.372.229.458.581 1.017 1.058 1.674.476.657 1.152 1.416 2.029 2.274.857.877 1.62 1.559 2.287 2.044.666.487 1.224.844 1.672 1.074.447.228.79.366 1.029.414l.357.071c.038 0 .1-.014.186-.043a.477.477 0 0 0 .185-.1l1.63-1.659a1.752 1.752 0 0 1 1.2-.457c.324 0 .581.057.772.171h.029l5.516 3.261c.4.248.638.563.715.944z"/><path fill="url(#5suna)" d="M26.987 21.307c.057.439-.077.82-.4 1.144l-3.802 3.776c-.172.19-.395.352-.672.486a2.79 2.79 0 0 1-.814.257c-.02 0-.077.005-.172.014a3.87 3.87 0 0 1-.371.015c-.362 0-.948-.062-1.758-.186s-1.801-.43-2.973-.915c-1.172-.487-2.501-1.216-3.987-2.188-1.487-.973-3.068-2.308-4.745-4.004-1.334-1.316-2.44-2.575-3.316-3.776-.876-1.201-1.581-2.312-2.115-3.331-.533-1.02-.933-1.946-1.2-2.776C.395 8.994.214 8.279.119 7.678.023 7.077-.015 6.606.004 6.263c.02-.343.029-.535.029-.573.038-.266.124-.538.257-.815.134-.276.296-.5.486-.672L4.578.4c.266-.267.571-.4.914-.4.248 0 .467.07.658.214.19.143.352.32.486.53l3.058 5.805c.171.305.22.639.143 1.002a1.788 1.788 0 0 1-.486.915l-1.4 1.4a.482.482 0 0 0-.1.188.695.695 0 0 0-.043.214c.076.4.247.858.514 1.372.229.458.581 1.017 1.058 1.674.476.657 1.152 1.416 2.029 2.274.857.877 1.62 1.559 2.287 2.044.666.487 1.224.844 1.672 1.074.447.228.79.366 1.029.414l.357.071c.038 0 .1-.014.186-.043a.477.477 0 0 0 .185-.1l1.63-1.659a1.752 1.752 0 0 1 1.2-.457c.324 0 .581.057.772.171h.029l5.516 3.261c.4.248.638.563.715.944z"/></g></g></svg>