<?xml version="1.0" encoding="UTF-8"?>
<!DOCTYPE svg PUBLIC "-//W3C//DTD SVG 1.1//EN" "http://www.w3.org/Graphics/SVG/1.1/DTD/svg11.dtd">
<!-- Creator: CorelDRAW 2017 -->
<svg xmlns="http://www.w3.org/2000/svg" xml:space="preserve" width="15px" height="16px" version="1.1" style="shape-rendering:geometricPrecision; text-rendering:geometricPrecision; image-rendering:optimizeQuality; fill-rule:evenodd; clip-rule:evenodd"
viewBox="0 0 15 16"
 xmlns:xlink="http://www.w3.org/1999/xlink">
 <defs>
  <style type="text/css">
   <![CDATA[
    .fil0 {fill:white}
   ]]>
  </style>
 </defs>
 <g id="Слой_x0020_1">
  <metadata id="CorelCorpID_0Corel-Layer"/>
  <g id="_2117184370976">
   <g>
    <path class="fil0" d="M11.46 7.29c-0.09,-0.18 -0.26,-0.29 -0.46,-0.29l-2 0 0 -6.5c0,-0.28 -0.22,-0.5 -0.5,-0.5l-2 0c-0.28,0 -0.5,0.22 -0.5,0.5l0 6.5 -2 0c-0.2,0 -0.37,0.12 -0.46,0.29 -0.08,0.18 -0.05,0.39 0.08,0.54l3.5 4c0.1,0.11 0.24,0.17 0.38,0.17 0.14,0 0.28,-0.06 0.38,-0.17l3.5 -4c0.13,-0.15 0.16,-0.36 0.08,-0.54z"/>
   </g>
  </g>
  <g id="_2117184370144">
   <g>
    <path class="fil0" d="M13 11l0 3 -11 0 0 -3 -2 0 0 4c0,0.55 0.45,1 1,1l13 0c0.55,0 1,-0.45 1,-1l0 -4 -2 0z"/>
   </g>
  </g>
  <g id="_2117184370528">
  </g>
  <g id="_2117184369920">
  </g>
  <g id="_2117184369760">
  </g>
  <g id="_2117184371104">
  </g>
  <g id="_2117184372832">
  </g>
  <g id="_2117184372000">
  </g>
  <g id="_2117184372384">
  </g>
  <g id="_2117184372768">
  </g>
  <g id="_2117184367360">
  </g>
  <g id="_2117184368576">
  </g>
  <g id="_2117184368032">
  </g>
  <g id="_2117184368992">
  </g>
  <g id="_2117079173456">
  </g>
  <g id="_2117079173968">
  </g>
  <g id="_2117079166576">
  </g>
 </g>
</svg>
