<svg xmlns="http://www.w3.org/2000/svg" width="22" height="22" viewBox="0 0 22 22"><g><g><path fill="#fff" d="M19.342 17.166c.729.733.724 1.63-.009 2.371-.495.499-1.022.975-1.49 1.498-.682.764-1.534 1.011-2.515.956-1.425-.077-2.735-.55-4-1.162-2.809-1.365-5.21-3.255-7.221-5.645-1.49-1.767-2.718-3.695-3.524-5.865-.394-1.048-.674-2.124-.587-3.264.055-.7.316-1.3.834-1.79.56-.53 1.086-1.084 1.636-1.625.715-.705 1.613-.705 2.332-.004.445.435.88.879 1.32 1.319.426.43.852.85 1.278 1.281.752.755.752 1.634.005 2.385-.536.54-1.068 1.08-1.613 1.607-.142.142-.156.257-.082.43.362.86.88 1.625 1.461 2.34 1.173 1.437 2.498 2.714 4.079 3.707.339.212.714.367 1.067.56.179.1.303.067.45-.083.535-.55 1.08-1.09 1.626-1.63.715-.71 1.613-.71 2.332 0 .875.87 1.75 1.74 2.621 2.614zm-5.127-9.413a5.838 5.838 0 0 0-3.336-1.661l.238-1.698c1.64.228 3.13.97 4.307 2.147a7.548 7.548 0 0 1 2.113 4.074l-1.69.289a5.825 5.825 0 0 0-1.632-3.15zM22 10.322l-1.69.288a10.79 10.79 0 0 0-3.03-5.837 10.812 10.812 0 0 0-6.176-3.076L11.342 0c2.726.38 5.196 1.61 7.148 3.562a12.537 12.537 0 0 1 3.51 6.76z"/></g></g></svg>