<svg width="71" height="83" viewBox="0 0 71 83" fill="none" xmlns="http://www.w3.org/2000/svg">
<mask id="path-1-inside-1" fill="white">
<path d="M69.403 26.9017L46.788 20.4405V9.14917H61.1367V11.7488H58.9978C58.3252 11.7488 57.7801 12.2938 57.7801 12.9665V18.002C57.7801 18.6747 58.3252 19.2198 58.9978 19.2198H65.7116C66.3842 19.2198 66.9294 18.6747 66.9294 18.002V12.9667C66.9294 12.2939 66.3842 11.7489 65.7116 11.7489H63.5722V9.14917H69.0686C69.6759 9.14917 70.1904 8.70174 70.2747 8.10031C70.359 7.49888 69.9871 6.92745 69.4032 6.76047L45.9334 0.0552795C45.9321 0.0547932 45.9306 0.054469 45.9293 0.0541447L45.9047 0.047174C45.8951 0.0444181 45.8857 0.0429592 45.8762 0.0405275C45.8501 0.0337189 45.8238 0.0272345 45.797 0.0222091C45.7776 0.0184805 45.7583 0.0160489 45.7388 0.013293C45.7196 0.0105372 45.7004 0.00761917 45.6808 0.00583596C45.6539 0.00340431 45.627 0.00243165 45.6001 0.00178321C45.59 0.00129688 45.5803 0 45.5703 0H45.5442C45.543 0 45.5417 0 45.5406 0H25.4597C25.4576 0 25.4553 0 25.4532 0H25.4294C25.4201 0 25.4111 0.00113477 25.4018 0.00145899C25.3739 0.00210743 25.346 0.00308009 25.3182 0.00567385C25.2995 0.00729495 25.2812 0.0102129 25.2626 0.0128067C25.2425 0.0157247 25.2224 0.0181563 25.2019 0.022047C25.1757 0.0270724 25.1499 0.0333947 25.1244 0.0400412C25.1146 0.0426349 25.1047 0.0440939 25.0948 0.0468498L25.0695 0.0541447C25.0685 0.054469 25.0675 0.0546311 25.0666 0.0549553L1.59661 6.76047C1.01269 6.92745 0.640969 7.49888 0.725266 8.10031C0.809563 8.70174 1.3241 9.14917 1.93136 9.14917H7.42738V11.7488H5.28802C4.61542 11.7488 4.07024 12.2938 4.07024 12.9665V18.002C4.07024 18.6747 4.61542 19.2198 5.28802 19.2198H12.0018C12.6744 19.2198 13.2196 18.6747 13.2196 18.002V12.9667C13.2196 12.2939 12.6744 11.7489 12.0018 11.7489H9.8626V9.14917H24.2116V20.4403L1.59661 26.9017C1.01269 27.0686 0.640969 27.6401 0.725266 28.2415C0.809563 28.8429 1.3241 29.2904 1.93136 29.2904H7.42738V31.89H5.28802C4.61542 31.89 4.07024 32.435 4.07024 33.1077V38.1432C4.07024 38.8159 4.61542 39.361 5.28802 39.361H12.0018C12.6744 39.361 13.2196 38.8159 13.2196 38.1432V33.1077C13.2196 32.435 12.6744 31.89 12.0018 31.89H9.8626V29.2904H24.2116V41.3295L19.2311 58.7605C19.2309 58.7612 19.2308 58.762 19.2305 58.7626L19.2207 58.7965C19.2206 58.797 19.2204 58.7976 19.2202 58.7981L19.218 58.8061C19.2176 58.8075 19.2172 58.809 19.2167 58.8103L14.4398 75.5287H12.0015C11.3289 75.5287 10.7837 76.0737 10.7837 76.7464V80.5643H8.29532C7.62272 80.5643 7.07755 81.1093 7.07755 81.7821C7.07755 82.4548 7.62272 82.9998 8.29532 82.9998H12.0018H58.9981H62.7043C63.3769 82.9998 63.9221 82.4548 63.9221 81.7821C63.9221 81.1093 63.3769 80.5643 62.7043 80.5643H60.2159V76.7464C60.2159 76.0737 59.6707 75.5287 58.9981 75.5287H56.5597L51.7831 58.8114C51.7825 58.809 51.7817 58.8064 51.781 58.8039L51.77 58.7652C51.7693 58.7633 51.7689 58.7613 51.7684 58.7594L46.7882 41.3293V29.2902H61.1369V31.8898H58.998C58.3254 31.8898 57.7802 32.4348 57.7802 33.1076V38.143C57.7802 38.8158 58.3254 39.3608 58.998 39.3608H65.7118C66.3844 39.3608 66.9295 38.8158 66.9295 38.143V33.1077C66.9295 32.435 66.3844 31.89 65.7118 31.89H63.5724V29.2904H69.0687C69.676 29.2904 70.1906 28.8429 70.2748 28.2415C70.3587 27.6401 69.9868 27.0686 69.403 26.9017ZM64.4938 14.1845V16.7844H60.2156V14.1845H64.4938ZM46.788 2.83239L60.3735 6.71379H46.788V2.83239ZM10.784 14.1845V16.7844H6.50578V14.1845H10.784ZM10.784 34.3253V36.9253H6.50578V34.3253H10.784ZM26.6471 2.43554H44.3525V6.71379H26.6471V2.43554ZM44.3525 9.14917V19.0834L29.451 9.14917H44.3525V9.14917ZM26.6471 10.2069L41.5483 20.141H26.6471V10.2069ZM26.6471 22.5766H44.3525V26.855H26.6471V22.5766ZM24.2573 57.9055L35.5 50.0357L46.7426 57.9055H24.2573ZM45.4474 60.3411L35.4998 65.3149L25.5524 60.3411H45.4474ZM29.2926 42.7178H41.707L35.4998 47.0626L29.2926 42.7178ZM44.3525 29.2904V39.2245L29.4512 29.2904H44.3525ZM26.6471 30.348L41.5488 40.2824H26.6471V30.348ZM10.626 6.71362L24.2116 2.83222V6.71362H10.626ZM10.626 26.8548L24.2116 22.9731V26.8548H10.626ZM26.1308 43.4776L33.3763 48.5494L22.5082 56.1569L26.1308 43.4776ZM21.1618 60.8686L32.7769 66.6762L17.29 74.4197L21.1618 60.8686ZM55.6402 77.965H55.6405C55.642 77.965 55.6436 77.9647 55.6451 77.9647H57.7805V80.5648H57.7804H13.2197V77.9647H15.355C15.3567 77.9647 15.3581 77.965 15.3596 77.965C15.3614 77.965 15.3633 77.9647 15.3651 77.9647H15.3826C15.3847 77.9647 15.387 77.9647 15.3891 77.9647H26.8585C27.5311 77.9647 28.0763 77.4197 28.0763 76.7469C28.0763 76.0742 27.5311 75.5292 26.8585 75.5292H20.517L35.4998 68.0377L50.4827 75.5292H32.2878C31.6152 75.5292 31.07 76.0742 31.07 76.7469C31.07 77.4197 31.6152 77.9647 32.2878 77.9647H55.6347C55.6365 77.9647 55.6384 77.965 55.6402 77.965ZM53.7096 74.4197L38.2228 66.6762L49.8378 60.8686L53.7096 74.4197ZM48.4916 56.157L37.6233 48.5494L44.8688 43.4776L48.4916 56.157ZM46.788 26.8548V22.9733L60.3737 26.8548H46.788ZM64.4938 34.3253V36.9253H60.2156V34.3253H64.4938Z"/>
</mask>
<path d="M69.403 26.9017L46.788 20.4405V9.14917H61.1367V11.7488H58.9978C58.3252 11.7488 57.7801 12.2938 57.7801 12.9665V18.002C57.7801 18.6747 58.3252 19.2198 58.9978 19.2198H65.7116C66.3842 19.2198 66.9294 18.6747 66.9294 18.002V12.9667C66.9294 12.2939 66.3842 11.7489 65.7116 11.7489H63.5722V9.14917H69.0686C69.6759 9.14917 70.1904 8.70174 70.2747 8.10031C70.359 7.49888 69.9871 6.92745 69.4032 6.76047L45.9334 0.0552795C45.9321 0.0547932 45.9306 0.054469 45.9293 0.0541447L45.9047 0.047174C45.8951 0.0444181 45.8857 0.0429592 45.8762 0.0405275C45.8501 0.0337189 45.8238 0.0272345 45.797 0.0222091C45.7776 0.0184805 45.7583 0.0160489 45.7388 0.013293C45.7196 0.0105372 45.7004 0.00761917 45.6808 0.00583596C45.6539 0.00340431 45.627 0.00243165 45.6001 0.00178321C45.59 0.00129688 45.5803 0 45.5703 0H45.5442C45.543 0 45.5417 0 45.5406 0H25.4597C25.4576 0 25.4553 0 25.4532 0H25.4294C25.4201 0 25.4111 0.00113477 25.4018 0.00145899C25.3739 0.00210743 25.346 0.00308009 25.3182 0.00567385C25.2995 0.00729495 25.2812 0.0102129 25.2626 0.0128067C25.2425 0.0157247 25.2224 0.0181563 25.2019 0.022047C25.1757 0.0270724 25.1499 0.0333947 25.1244 0.0400412C25.1146 0.0426349 25.1047 0.0440939 25.0948 0.0468498L25.0695 0.0541447C25.0685 0.054469 25.0675 0.0546311 25.0666 0.0549553L1.59661 6.76047C1.01269 6.92745 0.640969 7.49888 0.725266 8.10031C0.809563 8.70174 1.3241 9.14917 1.93136 9.14917H7.42738V11.7488H5.28802C4.61542 11.7488 4.07024 12.2938 4.07024 12.9665V18.002C4.07024 18.6747 4.61542 19.2198 5.28802 19.2198H12.0018C12.6744 19.2198 13.2196 18.6747 13.2196 18.002V12.9667C13.2196 12.2939 12.6744 11.7489 12.0018 11.7489H9.8626V9.14917H24.2116V20.4403L1.59661 26.9017C1.01269 27.0686 0.640969 27.6401 0.725266 28.2415C0.809563 28.8429 1.3241 29.2904 1.93136 29.2904H7.42738V31.89H5.28802C4.61542 31.89 4.07024 32.435 4.07024 33.1077V38.1432C4.07024 38.8159 4.61542 39.361 5.28802 39.361H12.0018C12.6744 39.361 13.2196 38.8159 13.2196 38.1432V33.1077C13.2196 32.435 12.6744 31.89 12.0018 31.89H9.8626V29.2904H24.2116V41.3295L19.2311 58.7605C19.2309 58.7612 19.2308 58.762 19.2305 58.7626L19.2207 58.7965C19.2206 58.797 19.2204 58.7976 19.2202 58.7981L19.218 58.8061C19.2176 58.8075 19.2172 58.809 19.2167 58.8103L14.4398 75.5287H12.0015C11.3289 75.5287 10.7837 76.0737 10.7837 76.7464V80.5643H8.29532C7.62272 80.5643 7.07755 81.1093 7.07755 81.7821C7.07755 82.4548 7.62272 82.9998 8.29532 82.9998H12.0018H58.9981H62.7043C63.3769 82.9998 63.9221 82.4548 63.9221 81.7821C63.9221 81.1093 63.3769 80.5643 62.7043 80.5643H60.2159V76.7464C60.2159 76.0737 59.6707 75.5287 58.9981 75.5287H56.5597L51.7831 58.8114C51.7825 58.809 51.7817 58.8064 51.781 58.8039L51.77 58.7652C51.7693 58.7633 51.7689 58.7613 51.7684 58.7594L46.7882 41.3293V29.2902H61.1369V31.8898H58.998C58.3254 31.8898 57.7802 32.4348 57.7802 33.1076V38.143C57.7802 38.8158 58.3254 39.3608 58.998 39.3608H65.7118C66.3844 39.3608 66.9295 38.8158 66.9295 38.143V33.1077C66.9295 32.435 66.3844 31.89 65.7118 31.89H63.5724V29.2904H69.0687C69.676 29.2904 70.1906 28.8429 70.2748 28.2415C70.3587 27.6401 69.9868 27.0686 69.403 26.9017ZM64.4938 14.1845V16.7844H60.2156V14.1845H64.4938ZM46.788 2.83239L60.3735 6.71379H46.788V2.83239ZM10.784 14.1845V16.7844H6.50578V14.1845H10.784ZM10.784 34.3253V36.9253H6.50578V34.3253H10.784ZM26.6471 2.43554H44.3525V6.71379H26.6471V2.43554ZM44.3525 9.14917V19.0834L29.451 9.14917H44.3525V9.14917ZM26.6471 10.2069L41.5483 20.141H26.6471V10.2069ZM26.6471 22.5766H44.3525V26.855H26.6471V22.5766ZM24.2573 57.9055L35.5 50.0357L46.7426 57.9055H24.2573ZM45.4474 60.3411L35.4998 65.3149L25.5524 60.3411H45.4474ZM29.2926 42.7178H41.707L35.4998 47.0626L29.2926 42.7178ZM44.3525 29.2904V39.2245L29.4512 29.2904H44.3525ZM26.6471 30.348L41.5488 40.2824H26.6471V30.348ZM10.626 6.71362L24.2116 2.83222V6.71362H10.626ZM10.626 26.8548L24.2116 22.9731V26.8548H10.626ZM26.1308 43.4776L33.3763 48.5494L22.5082 56.1569L26.1308 43.4776ZM21.1618 60.8686L32.7769 66.6762L17.29 74.4197L21.1618 60.8686ZM55.6402 77.965H55.6405C55.642 77.965 55.6436 77.9647 55.6451 77.9647H57.7805V80.5648H57.7804H13.2197V77.9647H15.355C15.3567 77.9647 15.3581 77.965 15.3596 77.965C15.3614 77.965 15.3633 77.9647 15.3651 77.9647H15.3826C15.3847 77.9647 15.387 77.9647 15.3891 77.9647H26.8585C27.5311 77.9647 28.0763 77.4197 28.0763 76.7469C28.0763 76.0742 27.5311 75.5292 26.8585 75.5292H20.517L35.4998 68.0377L50.4827 75.5292H32.2878C31.6152 75.5292 31.07 76.0742 31.07 76.7469C31.07 77.4197 31.6152 77.9647 32.2878 77.9647H55.6347C55.6365 77.9647 55.6384 77.965 55.6402 77.965ZM53.7096 74.4197L38.2228 66.6762L49.8378 60.8686L53.7096 74.4197ZM48.4916 56.157L37.6233 48.5494L44.8688 43.4776L48.4916 56.157ZM46.788 26.8548V22.9733L60.3737 26.8548H46.788ZM64.4938 34.3253V36.9253H60.2156V34.3253H64.4938Z" fill="#0EFF51" stroke="#0EFF51" stroke-width="4" mask="url(#path-1-inside-1)"/>
</svg>
