<svg width="197" height="50" viewBox="0 0 197 50" fill="none" xmlns="http://www.w3.org/2000/svg">
<path d="M5.94013 25.5923C6.37655 27.3137 7.22514 28.72 8.51015 29.811C9.74666 30.8778 11.2014 31.4597 12.8016 31.5567C13.1168 31.5809 13.4077 31.5809 13.6987 31.5809C15.4686 31.5809 16.8021 31.2415 17.7719 30.5869C18.8387 30.9263 19.857 31.6537 20.8511 32.8175C21.433 33.4721 21.8936 34.1025 22.2331 34.7086C20.8511 35.6784 19.5418 36.3815 18.3053 36.7937C16.8021 37.3029 14.9594 37.5453 12.8258 37.5453C11.0802 37.5453 9.43147 37.1574 7.83128 36.4058C6.30381 35.6784 4.94607 34.6601 3.7338 33.3509C2.54577 32.0174 1.64869 30.4899 0.994063 28.7927C0.315191 27.0228 0 25.1559 0 23.2163C0 21.2766 0.339436 19.4097 0.994063 17.6398C1.64869 15.9426 2.57002 14.4152 3.7338 13.0817C4.92182 11.7724 6.30381 10.7541 7.83128 10.0267C9.40723 9.27513 11.0802 8.88721 12.8258 8.88721C14.3775 8.88721 15.8565 9.2024 17.2627 9.80853C18.6205 10.3904 19.857 11.239 20.9481 12.3301C22.0149 13.3969 22.9119 14.6576 23.6151 16.1123C24.3182 17.5671 24.8031 19.143 25.0698 20.8402C25.1668 21.6403 25.2395 22.4404 25.2395 23.2163C25.2395 24.0406 25.191 24.8165 25.0698 25.6166H5.94013V25.5923ZM19.2266 20.816C18.7902 19.046 17.9659 17.6398 16.7778 16.5488C15.5413 15.4092 14.1351 14.8516 12.5591 14.8516C10.9832 14.8516 9.57695 15.4092 8.36468 16.5488C7.20089 17.6398 6.40079 19.0703 5.94013 20.816H19.2266Z" fill="white"/>
<path d="M51.0365 11.2878C52.8064 12.5971 54.1642 14.2943 55.1825 16.3794C56.225 18.4887 56.7342 20.7678 56.7342 23.2166V37.5456H51.0365V23.2166C51.0365 22.077 50.8426 21.0102 50.4789 19.9677C50.1152 18.9736 49.606 18.0765 48.9514 17.3007C48.2968 16.5491 47.5452 15.9429 46.6723 15.5308C45.7995 15.0944 44.8782 14.8761 43.9084 14.8761C42.9385 14.8761 42.0172 15.0944 41.1201 15.5308C40.2715 15.9672 39.5199 16.5491 38.8411 17.3007C38.1864 18.0765 37.6773 18.9736 37.3136 19.9677C36.9499 21.0102 36.756 22.077 36.756 23.2166V37.5456H31.0825V10.6332C31.9311 9.93008 33.0706 9.42092 34.5496 9.12998C35.4225 8.93602 36.0528 8.86328 36.465 8.86328C36.562 8.86328 36.659 8.86328 36.756 8.88752V11.3363C38.8896 9.71187 41.2899 8.88752 43.9084 8.88752C46.5026 8.86328 48.8787 9.66338 51.0365 11.2878Z" fill="white"/>
<path d="M68.4445 25.5923C68.8809 27.3137 69.7295 28.72 71.0145 29.811C72.2511 30.8778 73.7058 31.4597 75.306 31.5567C75.6212 31.5809 75.9121 31.5809 76.2031 31.5809C77.973 31.5809 79.3065 31.2415 80.2763 30.5869C81.3431 30.9263 82.3614 31.6537 83.3555 32.8175C83.9374 33.4721 84.398 34.1025 84.7375 34.7086C83.3555 35.6784 82.0462 36.3815 80.8097 36.7937C79.3065 37.3029 77.4638 37.5453 75.3302 37.5453C73.5846 37.5453 71.9359 37.1574 70.3357 36.4058C68.8082 35.6784 67.4505 34.6601 66.2382 33.3509C65.0502 32.0174 64.1531 30.4899 63.4985 28.7927C62.8196 27.0228 62.5044 25.1559 62.5044 23.2163C62.5044 21.2766 62.8438 19.4097 63.4985 17.6398C64.1531 15.9426 65.0744 14.4152 66.2382 13.0817C67.4262 11.7724 68.8082 10.7541 70.3357 10.0267C71.9116 9.27513 73.5846 8.88721 75.3302 8.88721C76.8819 8.88721 78.3609 9.2024 79.7671 9.80853C81.1249 10.3904 82.3614 11.239 83.4525 12.3301C84.5193 13.3969 85.4163 14.6576 86.1195 16.1123C86.8226 17.5671 87.3075 19.143 87.5742 20.8402C87.6712 21.6403 87.7439 22.4404 87.7439 23.2163C87.7439 24.0406 87.6954 24.8165 87.5742 25.6166H68.4445V25.5923ZM81.731 20.816C81.2946 19.046 80.4703 17.6398 79.2822 16.5488C78.0457 15.4092 76.6395 14.8516 75.0635 14.8516C73.4876 14.8516 72.0813 15.4092 70.8691 16.5488C69.7053 17.6398 68.9052 19.0703 68.4445 20.816H81.731Z" fill="white"/>
<path d="M112.305 8.88752C112.402 8.86328 112.523 8.86328 112.668 8.86328C113.08 8.86328 113.687 8.93602 114.487 9.10574C115.941 9.42093 117.105 9.93008 117.978 10.6089V35.8727C117.954 36.4546 117.905 37.0122 117.857 37.5456C117.687 39.1458 117.275 40.649 116.62 42.0795C116.014 43.4615 115.19 44.698 114.196 45.7891C113.177 46.9044 112.038 47.8015 110.777 48.4803C109.444 49.1592 108.037 49.5956 106.583 49.7653C106.025 49.8138 105.467 49.8381 104.885 49.8381C103.164 49.8381 101.515 49.5229 99.9637 48.9167C97.7816 48.0439 96.0601 46.6862 94.7751 44.8678C95.1388 44.4556 95.7692 43.9949 96.642 43.4858C97.8785 42.7342 99.0423 42.3462 100.109 42.2735C100.788 43.0009 101.685 43.4858 102.825 43.7282C103.382 43.8494 104.013 43.9222 104.667 43.9222C105.079 43.9222 105.54 43.8979 105.977 43.8494C106.922 43.7525 107.795 43.4615 108.619 42.9281C109.419 42.4432 110.098 41.8128 110.68 41.0127C111.262 40.2126 111.698 39.3155 111.965 38.3215C112.208 37.4971 112.329 36.6486 112.329 35.7757C112.329 35.5818 112.329 35.3635 112.305 35.1696C110.171 36.7698 107.795 37.5941 105.176 37.5941C103.431 37.5941 101.782 37.2304 100.182 36.4788C98.6302 35.7515 97.2724 34.7332 96.0844 33.3997C94.8964 32.0904 93.9993 30.5629 93.3447 28.8415C92.6658 27.0716 92.3506 25.229 92.3506 23.2893C92.3506 21.3497 92.69 19.4828 93.3447 17.7129C93.9993 15.9914 94.9206 14.464 96.0844 13.1547C97.2724 11.8212 98.6302 10.8029 100.182 10.0756C101.758 9.32394 103.431 8.96026 105.176 8.96026C107.771 8.96026 110.171 9.76036 112.329 11.3848V8.88752H112.305ZM105.152 31.5813C106.122 31.5813 107.043 31.363 107.916 30.9266C108.789 30.4902 109.541 29.9083 110.195 29.1325C110.874 28.3809 111.383 27.4838 111.723 26.4897C112.111 25.4472 112.305 24.3804 112.305 23.2408C112.305 22.1013 112.111 21.0102 111.723 19.9919C111.359 18.9736 110.85 18.0765 110.195 17.3249C109.541 16.5491 108.789 15.9429 107.916 15.5308C107.043 15.0944 106.122 14.9004 105.152 14.9004C104.182 14.9004 103.261 15.1186 102.364 15.5308C101.515 15.9672 100.764 16.5491 100.085 17.3249C99.4303 18.0765 98.9211 18.9736 98.5574 19.9919C98.1937 21.0102 97.9998 22.1013 97.9998 23.2408C97.9998 24.3804 98.1937 25.4472 98.5574 26.4897C98.9211 27.4838 99.4303 28.3809 100.085 29.1325C100.764 29.9083 101.515 30.5145 102.364 30.9266C103.261 31.363 104.182 31.5813 105.152 31.5813Z" fill="white"/>
<path d="M123.748 2.60749C124.597 1.92861 125.736 1.44371 127.215 1.12852C128.088 0.934554 128.718 0.861816 129.131 0.861816C129.228 0.861816 129.324 0.861818 129.421 0.886063V6.58374C129.324 6.5595 129.228 6.55949 129.131 6.55949C128.718 6.55949 128.064 6.65648 127.215 6.8262C125.76 7.11714 124.597 7.60205 123.748 8.30516V2.60749ZM129.421 37.5452H123.748V10.6327C124.597 9.92961 125.736 9.42046 127.215 9.12951C128.088 8.93555 128.718 8.86281 129.131 8.86281C129.228 8.86281 129.324 8.86281 129.421 8.88706V37.5452Z" fill="white"/>
<path d="M157.814 37.2547C157.086 37.3759 156.238 37.4486 155.316 37.5214C154.807 37.5699 154.322 37.5699 153.886 37.5699C152.698 37.5699 151.776 37.4486 151.098 37.2304L145.303 27.9202L139.508 37.2304C138.757 37.4729 137.811 37.5941 136.696 37.5941C135.58 37.5941 134.271 37.4729 132.792 37.2304L141.933 22.5135L133.641 9.20272C134.368 9.08149 135.217 9.00875 136.138 8.93601C136.647 8.88752 137.132 8.88752 137.569 8.88752C138.757 8.88752 139.678 9.00875 140.357 9.22696L145.279 17.131L150.2 9.22696C150.952 8.98451 151.898 8.86328 153.013 8.86328C154.128 8.86328 155.413 8.98451 156.892 9.22696H156.916L148.673 22.5377L157.814 37.2547Z" fill="white"/>
<path d="M171.052 26.0291C173.791 26.0291 173.791 21.7861 171.052 21.7861C168.336 21.7861 168.336 26.0291 171.052 26.0291Z" fill="white"/>
<path d="M177.113 26.0291C179.853 26.0291 179.853 21.7861 177.113 21.7861C174.373 21.7861 174.373 26.0291 177.113 26.0291Z" fill="white"/>
<path d="M157.28 4.93555H193.624V41.6189H158.129" stroke="white" stroke-width="5" stroke-miterlimit="10"/>
</svg>
