<svg xmlns="http://www.w3.org/2000/svg" viewBox="0 0 62.573 62.573"><g fill="#fff"><path d="M37.59 44.948H27.573a1.5 1.5 0 110-3H37.59c3.12 0 4.983-1.866 4.983-4.992 0-2.337-1.347-4.399-3.43-5.262L10.982 19.991c-1.865-.772-3.83-.525-5.609.664C3.729 21.753 3 23.426 3 25.245v11.711c0 2.615 1.943 4.307 3.961 5.018.783.275 1.086 1.132.81 1.913-.275.781-.974 1.191-1.752.916C2.265 43.481 0 40.401 0 36.956V25.245c0-2.838 1.215-5.42 3.706-7.084 2.616-1.748 5.739-2.098 8.532-.941l28.108 11.703c3.208 1.329 5.254 4.479 5.254 8.024 0 4.789-3.235 8.001-8.01 8.001z"/><path d="M17.591 54.625c-6.341 0-11.5-5.158-11.5-11.5 0-6.341 5.159-11.5 11.5-11.5s11.5 5.159 11.5 11.5c0 6.342-5.159 11.5-11.5 11.5zm0-20c-4.687 0-8.5 3.813-8.5 8.5s3.813 8.5 8.5 8.5c4.686 0 8.5-3.813 8.5-8.5s-3.814-8.5-8.5-8.5zm0 15.576c-3.903 0-7.077-3.174-7.077-7.076s3.174-7.076 7.077-7.076c3.901 0 7.076 3.174 7.076 7.076s-3.175 7.076-7.076 7.076zm0-11.152c-2.248 0-4.077 1.828-4.077 4.076s1.829 4.076 4.077 4.076 4.076-1.828 4.076-4.076-1.828-4.076-4.076-4.076zM55.5 47.448a1.5 1.5 0 01-1.5-1.5V13.125c0-.799-.168-2.131-1.278-2.176-1.263.042-2.722 1.198-2.722 2.176v22.373c0 2.779-2.307 4.875-5.085 4.875-.61 0-1.267-.37-1.496-.936-.23-.566-.147-1.214.292-1.639l.162-.185c.42-.409 1.218-.521 1.737-.341.741-.239 1.39-.883 1.39-1.774V13.125c0-2.809 2.677-5.012 5.285-5.168.055-.006-.104-.009-.049-.009h.13c.057 0 .327.003.382.009C55.176 8.111 57 10.149 57 13.125v32.823a1.5 1.5 0 01-1.5 1.5z"/><path d="M58.573 52.948h-8c-2.206 0-4-1.794-4-4s1.794-4 4-4h8c2.206 0 4 1.794 4 4s-1.794 4-4 4zm-8-5a1.001 1.001 0 000 2h8a1.001 1.001 0 000-2h-8zm-10.5-16.035c-.25 0-.501-.062-.727-.188L26.782 24.76a1.501 1.501 0 01-.689-1.806c.234-2.723 2.394-4.72 5.207-4.72.909 0 1.84.225 2.689.65.037.019.073.039.109.06l5.029 2.927c1.717.887 2.873 2.647 2.873 4.966v3.576c0 .532-.494 1.023-.952 1.293-.235.138-.711.207-.975.207zm-10.669-9.248L39 27.866v-1.029c0-1.183-.57-1.961-1.273-2.313-.038-.018-.181-.038-.216-.06l-4.861-2.921c-.425-.205-.781-.309-1.216-.309-.868 0-1.709.453-2.03 1.431z"/></g></svg>