<svg width="99" height="100" viewBox="0 0 99 100" fill="none" xmlns="http://www.w3.org/2000/svg">
<g clip-path="url(#clip0)">
<path d="M3.7125 30.9584C6.81969 23.3523 11.7372 16.6383 18.0289 11.4119C24.3206 6.18556 31.792 2.60839 39.7804 0.99771C47.7687 -0.612971 56.0272 -0.207383 63.8232 2.1785C71.6191 4.56438 78.7117 8.85681 84.4718 14.6751C90.2318 20.4933 94.4814 27.6575 96.8434 35.5323C99.2054 43.407 99.6069 51.7489 98.0124 59.8179C96.4178 67.887 92.8764 75.4338 87.7023 81.789C82.5282 88.1443 75.8813 93.1115 68.3513 96.2501V91.0417C74.882 87.9741 80.5837 83.3604 84.9726 77.5921C89.3616 71.8239 92.3083 65.0714 93.5627 57.9075C94.8171 50.7436 94.3421 43.3798 92.1781 36.4409C90.0141 29.5019 86.225 23.1927 81.1322 18.0484C76.0394 12.9042 69.7932 9.07673 62.9236 6.89089C56.0541 4.70505 48.7639 4.22529 41.6717 5.49234C34.5794 6.75938 27.8944 9.73583 22.1839 14.1691C16.4733 18.6024 11.9058 24.3618 8.86875 30.9584H3.7125ZM49.5 90.4584C44.2396 90.463 39.0302 89.4182 34.1706 87.3839C29.311 85.3497 24.897 82.366 21.1819 78.6042C17.454 74.8533 14.4964 70.3955 12.4789 65.4867C10.4614 60.578 9.4238 55.315 9.42563 50.0001H14.1488C14.1533 52.0958 14.3396 54.1872 14.7056 56.2501L18.5625 53.7501L14.7263 40.4792H6.1875L4.74375 43.3959V50.0001C4.74921 61.9903 9.46568 73.4881 17.8573 81.9685C26.249 90.4488 37.6297 95.2182 49.5 95.2292H56.0381L58.9256 93.7709V85.1251L45.7875 81.2501L43.3125 85.1667C45.3548 85.5362 47.4252 85.7244 49.5 85.7292V90.4792V90.4584ZM15.9225 61.1876C17.6551 66.488 20.5937 71.3044 24.5025 75.2501C28.4092 79.1978 33.1772 82.166 38.4244 83.9167L42.8381 77.2292L43.7869 75.7917L45.4369 76.2709L61.9369 81.0417L63.6488 81.5417V96.7084L62.3494 97.3751L57.6263 99.7501L57.1106 100H49.5C36.3718 100 23.7813 94.7322 14.4982 85.3554C5.21516 75.9786 0 63.2609 0 50.0001L0 42.3126L0.2475 41.7918L2.59875 37.0209L3.25875 35.7084H18.2738L18.7688 37.5001L23.4919 54.1667L23.9663 55.8334L22.5431 56.7918L15.9431 61.2501L15.9225 61.1876Z" fill="#333333"/>
<path d="M35.1846 60.875C35.188 59.3123 35.8034 57.8144 36.8964 56.7083L42.7333 50.8125L48.5702 44.9167C49.8005 43.6701 50.7077 42.1364 51.2114 40.4513C51.7151 38.7662 51.7998 36.9817 51.458 35.2557C51.1162 33.5296 50.3584 31.9153 49.2517 30.5556C48.145 29.1959 46.7235 28.1328 45.1131 27.4602C43.5027 26.7877 41.753 26.5265 40.0188 26.6999C38.2847 26.8732 36.6196 27.4756 35.1708 28.4539C33.7221 29.4322 32.5345 30.7561 31.7131 32.3085C30.8916 33.8609 30.4617 35.5939 30.4614 37.3542H35.1639C35.1556 36.3719 35.3878 35.4028 35.8399 34.5331C36.292 33.6634 36.9499 32.9201 37.7551 32.3694C38.5604 31.8186 39.4879 31.4775 40.4552 31.3764C41.4225 31.2752 42.3996 31.4173 43.2994 31.7898C44.1992 32.1623 44.9939 32.7537 45.6128 33.5115C46.2316 34.2692 46.6554 35.1697 46.8463 36.1329C47.0373 37.0961 46.9896 38.092 46.7074 39.032C46.4252 39.972 45.9173 40.827 45.2289 41.5208L33.5552 53.3125C31.5754 55.3215 30.4632 58.0403 30.4614 60.875V65.6458H51.6845V60.875H35.1846Z" fill="#169877"/>
<path d="M63.4614 56.0417V65.5625L68.1639 65.5833V56.0625H72.8871V51.2917H68.1846V46.5208H63.4614V51.2917H54.9433L77.0121 28.2917L73.5471 25L49.9727 49.6458L49.3127 50.3333V56.0417H63.4614Z" fill="#169877"/>
</g>
<defs>
<clipPath id="clip0">
<rect width="99" height="100" fill="white"/>
</clipPath>
</defs>
</svg>
