<?xml version="1.0" standalone="no"?>
<!DOCTYPE svg PUBLIC "-//W3C//DTD SVG 1.1//EN" "http://www.w3.org/Graphics/SVG/1.1/DTD/svg11.dtd" >
<svg xmlns="http://www.w3.org/2000/svg" xmlns:xlink="http://www.w3.org/1999/xlink" version="1.1">
<metadata>
Created by FontForge 20170731 at Wed Dec 30 15:00:34 2015
 By ,,,
Copyright (c) 2016 by Typetype. Designer Ivan Gladkikh, technical designer Olexa Volochay. All rights reserved.
</metadata>
<defs>
<font id="TTSquaresCondensed-BoldItalic" horiz-adv-x="585" >
  <font-face 
    font-family="TT Squares Condensed"
    font-weight="700"
    font-style="italic"
    font-stretch="normal"
    units-per-em="1000"
    panose-1="2 0 8 3 4 0 0 9 0 3"
    ascent="800"
    descent="-200"
    x-height="500"
    cap-height="700"
    bbox="-160 -350 1130 955"
    underline-thickness="50"
    underline-position="-200"
    unicode-range="U+000D-F6D4"
  />
<missing-glyph horiz-adv-x="0" 
 />
    <glyph glyph-name=".notdef" horiz-adv-x="0" 
 />
    <glyph glyph-name=".null" horiz-adv-x="0" 
 />
    <glyph glyph-name=".null" horiz-adv-x="0" 
 />
    <glyph glyph-name="nonmarkingreturn" horiz-adv-x="333" 
 />
    <glyph glyph-name="CR" unicode="&#xd;" horiz-adv-x="0" 
 />
    <glyph glyph-name="space" unicode=" " horiz-adv-x="210" 
 />
    <glyph glyph-name="exclam" unicode="!" horiz-adv-x="300" 
d="M293 700l-55 -310l-55 -170h-90l5 170l55 310h140zM165 0h-130l23 135h130z" />
    <glyph glyph-name="quotedbl" unicode="&#x22;" horiz-adv-x="395" 
d="M224 590l-48 -130h-70l-2 130l19 110h120zM399 590l-48 -130h-70l-2 130l19 110h120z" />
    <glyph glyph-name="numbersign" unicode="#" horiz-adv-x="750" 
d="M128 530h125l65 170h140l-65 -170h125l65 170h140l-65 -170h95l-21 -120h-120l-46 -120h100l-22 -120h-125l-64 -170h-140l64 170h-125l-64 -170h-140l64 170h-95l22 120h120l46 120h-100zM347 410l-46 -120h125l46 120h-125z" />
    <glyph glyph-name="dollar" unicode="$" horiz-adv-x="645" 
d="M199 -90l16 90h-207l21 120h357l52 40l16 95l-36 40h-246l-101 110l33 185l139 110h95l16 90h120l-16 -90h181l-21 -120h-331l-52 -40l-15 -85l38 -40h245l100 -110l-34 -195l-139 -110h-95l-16 -90h-120z" />
    <glyph glyph-name="percent" unicode="%" horiz-adv-x="815" 
d="M172 470l26 -25h30l34 25l23 130l-25 25h-30l-35 -25zM61 435l35 200l99 75h130l71 -75l-35 -200l-98 -75h-130zM728 700l-513 -700h-105l513 700h105zM665 230l-26 25h-30l-34 -25l-23 -130l26 -25h30l34 25zM776 265l-35 -200l-98 -75h-130l-72 75l35 200l98 75h130z
" />
    <glyph glyph-name="ampersand" unicode="&#x26;" horiz-adv-x="645" 
d="M411 290h-175l-52 -40l-19 -105l26 -25h190zM642 410l-21 -120h-70l-51 -290h-395l-89 95l35 195l81 65l2 10l-42 45l34 195l122 95h315l-21 -120h-250l-35 -25l-18 -105l38 -40h155l12 70h140l-12 -70h70z" />
    <glyph glyph-name="quotesingle" unicode="'" horiz-adv-x="220" 
d="M224 590l-48 -130h-70l-2 130l19 110h120z" />
    <glyph glyph-name="parenleft" unicode="(" horiz-adv-x="355" 
d="M317 640l-34 -25l-118 -670l25 -25h70l-21 -120h-135l-88 95l136 770l122 95h135l-22 -120h-70z" />
    <glyph glyph-name="parenright" unicode=")" horiz-adv-x="355" 
d="M35 -80l35 25l118 670l-26 25h-70l22 120h135l88 -95l-136 -770l-122 -95h-134l20 120h70z" />
    <glyph glyph-name="asterisk" unicode="*" horiz-adv-x="430" 
d="M292 440l-18 -100h-100l18 100l-84 -50l-35 85l84 50l-66 50l65 85l66 -50l18 100h100l-18 -100l84 50l35 -85l-84 -50l66 -50l-65 -85z" />
    <glyph glyph-name="plus" unicode="+" horiz-adv-x="570" 
d="M51 290l21 120h175l33 190h120l-33 -190h175l-21 -120h-175l-34 -190h-120l34 190h-175z" />
    <glyph glyph-name="comma" unicode="," horiz-adv-x="240" 
d="M-5 -80l60 80h-50l23 135h130l-23 -135l-96 -115z" />
    <glyph glyph-name="hyphen" unicode="-" horiz-adv-x="480" 
d="M51 290l21 120h380l-21 -120h-380z" />
    <glyph glyph-name="period" unicode="." horiz-adv-x="240" 
d="M135 0h-130l23 135h130z" />
    <glyph glyph-name="slash" unicode="/" horiz-adv-x="515" 
d="M588 700l-498 -700h-140l498 700h140z" />
    <glyph glyph-name="zero" unicode="0" horiz-adv-x="710" 
d="M319 590l-64 -50l-67 -380l46 -50h180l64 50l67 380l-46 50h-180zM275 710h310l109 -120l-85 -480l-151 -120h-310l-109 120l85 480z" />
    <glyph glyph-name="one" unicode="1" horiz-adv-x="500" 
d="M410 0h-400l21 120h130l81 460h-130l21 120h270l-102 -580h130z" />
    <glyph glyph-name="two" unicode="2" horiz-adv-x="640" 
d="M49 280l151 120h215l64 50l18 105l-25 25h-350l21 120h415l88 -95l-36 -205l-151 -120h-215l-64 -50l-19 -110h385l-21 -120h-525z" />
    <glyph glyph-name="three" unicode="3" horiz-adv-x="630" 
d="M102 580l21 120h405l88 -95l-32 -185l-64 -50l-1 -5l58 -65l-36 -205l-121 -95h-430l21 120h365l34 25l20 115l-38 40h-220l22 120h205l52 40l16 95l-25 25h-340z" />
    <glyph glyph-name="four" unicode="4" horiz-adv-x="645" 
d="M350 0l26 150h-380l18 100l444 450h155l-76 -430h80l-21 -120h-80l-26 -150h-140zM397 270l43 245h-5l-237 -240l-1 -5h200z" />
    <glyph glyph-name="five" unicode="5" horiz-adv-x="645" 
d="M430 0h-405l21 120h340l52 40l21 120l-38 40h-330l67 380h475l-21 -120h-335l-25 -140h255l101 -110l-39 -220z" />
    <glyph glyph-name="six" unicode="6" horiz-adv-x="665" 
d="M138 -10l-101 110l85 480l151 120h375l-21 -120h-310l-64 -50l-16 -90h290l101 -110l-41 -230l-139 -110h-310zM479 280l-38 40h-225l-30 -170l38 -40h180l52 40z" />
    <glyph glyph-name="seven" unicode="7" horiz-adv-x="570" 
d="M77 580l21 120h520l-18 -100l-375 -600h-145l366 575l1 5h-370z" />
    <glyph glyph-name="eight" unicode="8" horiz-adv-x="665" 
d="M458 -10h-355l-89 95l38 210l87 70l1 5l-51 55l34 190l122 95h325l88 -95l-34 -190l-69 -55l-1 -5l63 -70l-38 -210zM189 110h225l34 25l22 125l-38 40h-195l-52 -40l-22 -125zM289 590l-35 -25l-18 -105l38 -40h165l52 40l18 105l-25 25h-195z" />
    <glyph glyph-name="nine" unicode="9" horiz-adv-x="665" 
d="M550 710l100 -110l-84 -480l-151 -120h-375l21 120h310l63 50l16 90h-290l-100 110l40 230l140 110h310zM209 420l38 -40h225l29 170l-37 40h-180l-53 -40z" />
    <glyph glyph-name="colon" unicode=":" horiz-adv-x="260" 
d="M145 0h-130l23 135h130zM209 365h-130l23 135h130z" />
    <glyph glyph-name="semicolon" unicode=";" horiz-adv-x="260" 
d="M5 -80l60 80h-50l23 135h130l-23 -135l-96 -115zM209 365h-130l23 135h130z" />
    <glyph glyph-name="less" unicode="&#x3c;" horiz-adv-x="390" 
d="M213 -10l-189 265l282 265l70 -85l-192 -180l129 -180z" />
    <glyph glyph-name="equal" unicode="=" horiz-adv-x="540" 
d="M82 385l22 120h410l-22 -120h-410zM42 155l21 120h410l-21 -120h-410z" />
    <glyph glyph-name="greater" unicode="&#x3e;" horiz-adv-x="390" 
d="M354 255l-281 -265l-70 85l191 180l-128 180l100 85z" />
    <glyph glyph-name="question" unicode="?" horiz-adv-x="565" 
d="M354 395l58 45l17 95l-42 45h-315l21 120h380l105 -115l-35 -195l-145 -115h-105l-10 -55h-140l21 120l70 55h120zM241 0h-135l23 135h135z" />
    <glyph glyph-name="at" unicode="@" horiz-adv-x="895" 
d="M313 730h445l134 -150l-59 -335l-117 -95h-135l-34 35l-46 -35h-150l-68 70l44 250l93 70h245l-50 -280l22 -20h50l46 35l45 255l-83 95h-355l-117 -95l-65 -370l83 -95h440l-19 -105h-500l-118 150l83 470zM400 260l22 -20h56l27 20l34 190h-80l-29 -20z" />
    <glyph glyph-name="A" unicode="A" horiz-adv-x="700" 
d="M500 0l-38 185h-260l-102 -185h-150l383 700h180l137 -700h-150zM394 535l-126 -230h170z" />
    <glyph glyph-name="B" unicode="B" horiz-adv-x="725" 
d="M595 370l71 -80l-35 -195l-121 -95h-475l123 700h445l88 -95l-32 -185zM466 120l34 25l19 110l-37 40h-255l-31 -175h270zM542 555l-25 25h-240l-29 -165h225l52 40z" />
    <glyph glyph-name="C" unicode="C" horiz-adv-x="645" 
d="M571 120l-21 -120h-400l-109 120l81 460l151 120h400l-21 -120h-335l-64 -50l-64 -360l47 -50h335z" />
    <glyph glyph-name="D" unicode="D" horiz-adv-x="735" 
d="M35 0l123 700h450l109 -120l-81 -460l-151 -120h-450zM196 120h245l63 50l64 360l-46 50h-245z" />
    <glyph glyph-name="E" unicode="E" horiz-adv-x="650" 
d="M158 700h520l-21 -120h-380l-30 -170h290l-21 -120h-290l-30 -170h390l-21 -120h-530z" />
    <glyph glyph-name="F" unicode="F" horiz-adv-x="630" 
d="M158 700h520l-21 -120h-380l-34 -190h285l-21 -120h-285l-47 -270h-140z" />
    <glyph glyph-name="G" unicode="G" horiz-adv-x="730" 
d="M509 170l22 120h-145l21 120h285l-51 -290l-151 -120h-340l-109 120l81 460l151 120h405l-21 -120h-340l-64 -50l-64 -360l47 -50h210z" />
    <glyph glyph-name="H" unicode="H" horiz-adv-x="740" 
d="M226 290l-51 -290h-140l123 700h140l-51 -290h290l51 290h140l-123 -700h-140l51 290h-290z" />
    <glyph glyph-name="I" unicode="I" horiz-adv-x="470" 
d="M375 0h-380l21 120h120l81 460h-120l21 120h380l-21 -120h-120l-81 -460h120z" />
    <glyph glyph-name="J" unicode="J" horiz-adv-x="545" 
d="M299 170l94 530h140l-102 -580l-151 -120h-310l21 120h245z" />
    <glyph glyph-name="K" unicode="K" horiz-adv-x="670" 
d="M226 290l-51 -290h-140l123 700h140l-51 -290h90l231 290h160l-275 -340l167 -360h-160l-134 290h-100z" />
    <glyph glyph-name="L" unicode="L" horiz-adv-x="600" 
d="M158 700h140l-102 -580h355l-21 -120h-495z" />
    <glyph glyph-name="M" unicode="M" horiz-adv-x="875" 
d="M463 160h-95l-113 270h-5l-75 -430h-140l123 700h140l147 -355h5l273 355h140l-123 -700h-140l75 430h-5z" />
    <glyph glyph-name="N" unicode="N" horiz-adv-x="750" 
d="M519 255l79 445h140l-123 -700h-135l-222 445h-5l-78 -445h-140l123 700h135l221 -445h5z" />
    <glyph glyph-name="O" unicode="O" horiz-adv-x="740" 
d="M319 590l-64 -50l-67 -380l46 -50h210l64 50l67 380l-46 50h-210zM275 710h340l109 -120l-85 -480l-151 -120h-340l-109 120l85 480z" />
    <glyph glyph-name="P" unicode="P" horiz-adv-x="695" 
d="M517 210h-305l-37 -210h-140l123 700h445l101 -110l-48 -270zM555 540l-38 40h-240l-44 -250h240l52 40z" />
    <glyph glyph-name="Q" unicode="Q" horiz-adv-x="740" 
d="M275 710h340l109 -120l-85 -480l-87 -66l72 -134h-150l-41 80h-285l-109 120l85 480zM320 200h150l26 -50l12 10l67 380l-46 50h-210l-64 -50l-67 -380l46 -50h135z" />
    <glyph glyph-name="R" unicode="R" horiz-adv-x="710" 
d="M475 0l-105 230h-155l-40 -230h-140l123 700h435l101 -110l-45 -250l-133 -105l119 -235h-160zM545 540l-38 40h-230l-41 -230h230l52 40z" />
    <glyph glyph-name="S" unicode="S" horiz-adv-x="665" 
d="M172 295l-101 110l33 185l139 110h410l-21 -120h-345l-52 -40l-15 -85l38 -40h260l100 -110l-34 -195l-139 -110h-435l21 120h370l52 40l16 95l-37 40h-260z" />
    <glyph glyph-name="T" unicode="T" horiz-adv-x="600" 
d="M320 0h-140l102 580h-210l21 120h560l-21 -120h-210z" />
    <glyph glyph-name="U" unicode="U" horiz-adv-x="745" 
d="M498 160l95 540h140l-104 -590l-151 -120h-315l-109 120l104 590h140l-95 -540l46 -50h185z" />
    <glyph glyph-name="V" unicode="V" horiz-adv-x="675" 
d="M375 0h-175l-127 700h150l91 -535h5l279 535h150z" />
    <glyph glyph-name="W" unicode="W" horiz-adv-x="975" 
d="M648 700l30 -510h5l210 510h145l-298 -700h-190l-24 490h-5l-196 -490h-190l-52 700h145l30 -510h5l210 510h175z" />
    <glyph glyph-name="X" unicode="X" horiz-adv-x="655" 
d="M361 460l197 240h155l-280 -340l172 -360h-155l-125 260h-5l-215 -260h-155l298 360l-160 340h155l113 -240h5z" />
    <glyph glyph-name="Y" unicode="Y" horiz-adv-x="630" 
d="M335 0h-140l40 230l-172 470h150l114 -320h10l226 320h150l-338 -470z" />
    <glyph glyph-name="Z" unicode="Z" horiz-adv-x="615" 
d="M530 0h-545l19 110l442 465l1 5h-345l21 120h520l-19 -110l-442 -465l-1 -5h370z" />
    <glyph glyph-name="bracketleft" unicode="[" horiz-adv-x="375" 
d="M259 -200h-260l170 960h260l-22 -120h-120l-127 -720h120z" />
    <glyph glyph-name="backslash" unicode="\" horiz-adv-x="515" 
d="M213 700l252 -700h-140l-252 700h140z" />
    <glyph glyph-name="bracketright" unicode="]" horiz-adv-x="375" 
d="M114 760h260l-170 -960h-259l20 120h120l127 720h-120z" />
    <glyph glyph-name="asciicircum" unicode="^" horiz-adv-x="410" 
d="M328 700l101 -220h-130l-38 95h-10l-72 -95h-130l179 220h100z" />
    <glyph glyph-name="underscore" unicode="_" horiz-adv-x="375" 
d="M-79 -170l21 120h374l-21 -120h-374z" />
    <glyph glyph-name="grave" unicode="`" horiz-adv-x="270" 
d="M103 700h140l42 -160h-100z" />
    <glyph glyph-name="a" unicode="a" horiz-adv-x="545" 
d="M312 45l-57 -45h-175l-81 85l25 140l110 85h215l9 50l-26 25h-220l21 115h285l84 -90l-72 -410h-115zM320 145l9 50h-150l-29 -20l-7 -40l22 -20h115z" />
    <glyph glyph-name="b" unicode="b" horiz-adv-x="580" 
d="M148 700h135l-35 -200h200l96 -105l-51 -290l-133 -105h-335zM400 345l-38 40h-135l-47 -270h135l52 40z" />
    <glyph glyph-name="c" unicode="c" horiz-adv-x="485" 
d="M167 155l38 -40h215l-20 -115h-280l-97 105l51 290l134 105h280l-21 -115h-215l-52 -40z" />
    <glyph glyph-name="d" unicode="d" horiz-adv-x="580" 
d="M340 0l-3 45l-57 -45h-160l-97 105l51 290l134 105h200l35 200h135l-123 -700h-115zM167 155l38 -40h100l40 30l42 240h-135l-52 -40z" />
    <glyph glyph-name="e" unicode="e" horiz-adv-x="540" 
d="M209 510h205l97 -105l-37 -210h-300l-7 -40l38 -40h215l-20 -115h-280l-97 105l53 300zM202 355l-10 -60h165l10 60l-38 40h-75z" />
    <glyph glyph-name="f" unicode="f" horiz-adv-x="375" 
d="M33 360l20 115h70l21 120l134 105h200l-20 -115h-135l-52 -40l-13 -70h125l-20 -115h-125l-63 -360h-135l63 360h-70z" />
    <glyph glyph-name="g" unicode="g" horiz-adv-x="575" 
d="M252 385l-52 -40l-33 -190l38 -40h135l47 270h-135zM312 -45l8 45h-200l-97 105l51 290l134 105h335l-105 -595l-134 -105h-290l21 115h225z" />
    <glyph glyph-name="h" unicode="h" 
d="M148 700h135l-35 -200h205l88 -95l-71 -405h-135l62 355l-30 30h-140l-67 -385h-135z" />
    <glyph glyph-name="i" unicode="i" horiz-adv-x="275" 
d="M108 500h135l-88 -500h-135zM259 595h-135l23 130h135z" />
    <glyph glyph-name="j" unicode="j" horiz-adv-x="275" 
d="M-40 -85l52 40l96 545h135l-105 -595l-134 -105h-164l21 115h99zM259 595h-135l23 130h135z" />
    <glyph glyph-name="k" unicode="k" horiz-adv-x="550" 
d="M500 0h-150l-90 200h-65l-35 -200h-135l123 700h135l-68 -385h60l148 185h150l-193 -240z" />
    <glyph glyph-name="l" unicode="l" horiz-adv-x="305" 
d="M180 0h-135l103 585h-70l20 115h205z" />
    <glyph glyph-name="m" unicode="m" horiz-adv-x="840" 
d="M622 385h-80l-40 -30l-62 -355h-135l62 355l-30 30h-80l-40 -30l-62 -355h-135l88 500h115l2 -45l58 45h120l46 -50h5l64 50h190l88 -95l-71 -405h-135l62 355z" />
    <glyph glyph-name="n" unicode="n" horiz-adv-x="580" 
d="M223 500l2 -45l58 45h165l88 -95l-71 -405h-135l62 355l-30 30h-105l-40 -30l-62 -355h-135l88 500h115z" />
    <glyph glyph-name="o" unicode="o" horiz-adv-x="570" 
d="M76 405l133 105h230l97 -105l-55 -310l-133 -105h-230l-97 105zM392 355l-38 40h-100l-52 -40l-37 -210l38 -40h100l52 40z" />
    <glyph glyph-name="p" unicode="p" horiz-adv-x="575" 
d="M283 500h160l96 -105l-51 -290l-133 -105h-200l-36 -200h-135l124 700h115l2 -45zM395 345l-38 40h-100l-40 -30l-42 -240h135l52 40z" />
    <glyph glyph-name="q" unicode="q" horiz-adv-x="575" 
d="M419 -200h-135l36 200h-200l-97 105l51 290l134 105h335zM167 155l38 -40h135l47 270h-135l-52 -40z" />
    <glyph glyph-name="r" unicode="r" horiz-adv-x="430" 
d="M223 500l2 -45l58 45h165l-21 -115h-170l-40 -30l-62 -355h-135l88 500h115z" />
    <glyph glyph-name="s" unicode="s" horiz-adv-x="505" 
d="M204 310h175l80 -85l-25 -140l-109 -85h-330l20 115h265l28 20l7 40l-21 20h-175l-80 85l24 135l110 85h305l-21 -115h-240l-28 -20l-6 -35z" />
    <glyph glyph-name="t" unicode="t" horiz-adv-x="395" 
d="M37 385l21 115h70l23 130h135l-23 -130h125l-21 -115h-125l-40 -230l38 -40h100l-20 -115h-165l-97 105l49 280h-70z" />
    <glyph glyph-name="u" unicode="u" 
d="M350 0l-3 45l-57 -45h-165l-89 95l72 405h135l-63 -355l30 -30h105l40 30l63 355h135l-88 -500h-115z" />
    <glyph glyph-name="v" unicode="v" horiz-adv-x="510" 
d="M280 0h-150l-92 500h140l56 -335l174 335h140z" />
    <glyph glyph-name="w" unicode="w" horiz-adv-x="735" 
d="M473 500l21 -305h5l119 305h145l-213 -500h-150l-27 305h-5l-133 -305h-150l-37 500h145l11 -305h5l129 305h135z" />
    <glyph glyph-name="x" unicode="x" horiz-adv-x="495" 
d="M228 160h-5l-128 -160h-145l210 260l-107 240h145l60 -140h5l110 140h145l-193 -240l120 -260h-145z" />
    <glyph glyph-name="y" unicode="y" 
d="M330 0h-205l-89 95l72 405h135l-63 -355l30 -30h140l68 385h135l-105 -595l-134 -105h-285l21 115h220l52 40z" />
    <glyph glyph-name="z" unicode="z" horiz-adv-x="475" 
d="M454 395l-278 -275l-1 -5h240l-20 -115h-415l18 105l279 275v5h-220l21 115h395z" />
    <glyph glyph-name="braceleft" unicode="{" horiz-adv-x="390" 
d="M347 640l-28 -20l-47 -265l-88 -75l62 -75l-47 -265l21 -20h75l-21 -120h-140l-84 90l53 300l-54 60l10 60l76 60l53 300l116 90h140l-22 -120h-75z" />
    <glyph glyph-name="bar" unicode="|" horiz-adv-x="340" 
d="M14 -200l170 960h140l-170 -960h-140z" />
    <glyph glyph-name="braceright" unicode="}" horiz-adv-x="390" 
d="M189 620l-22 20h-75l22 120h140l84 -90l-53 -300l54 -60l-10 -60l-76 -60l-53 -300l-116 -90h-139l20 120h75l29 20l47 265l88 75l-62 75z" />
    <glyph glyph-name="asciitilde" unicode="~" horiz-adv-x="555" 
d="M240 455l112 -100l110 85l63 -95l-196 -150l-112 100l-110 -85l-64 95z" />
    <glyph glyph-name="nbspace" unicode="&#xa0;" horiz-adv-x="230" 
 />
    <glyph glyph-name="exclamdown" unicode="&#xa1;" horiz-adv-x="300" 
d="M-6 -200l55 310l55 170h90l-5 -170l-55 -310h-140zM123 500h130l-24 -135h-130z" />
    <glyph glyph-name="cent" unicode="&#xa2;" horiz-adv-x="495" 
d="M184 -90l16 90h-80l-97 105l51 290l134 105h80l16 90h120l-16 -90h90l-21 -115h-90l-47 -270h90l-20 -115h-90l-16 -90h-120zM167 155l38 -40h15l47 270h-15l-52 -40z" />
    <glyph glyph-name="sterling" unicode="&#xa3;" horiz-adv-x="590" 
d="M201 120h340l-21 -120h-540l21 120h30l99 80l17 100h-80l19 105h80l31 175l151 120h229l-21 -120h-164l-64 -50l-22 -125h215l-19 -105h-215l-23 -130z" />
    <glyph glyph-name="currency" unicode="&#xa4;" horiz-adv-x="720" 
d="M224 110l-19 -110h-140l19 110h-75l18 100h75l12 70h-75l19 110h75l55 310h430l101 -110l-36 -200l-139 -110h-290l-12 -70h300l-18 -100h-300zM570 540l-38 40h-225l-34 -190h225l52 40z" />
    <glyph glyph-name="yen" unicode="&#xa5;" horiz-adv-x="630" 
d="M569 280h-160l-34 -50l-3 -20h185l-18 -100h-185l-19 -110h-140l19 110h-185l18 100h185l3 20l-16 50h-160l18 100h105l-119 320h150l114 -320h10l226 320h150l-231 -320h105z" />
    <glyph glyph-name="brokenbar" unicode="&#xa6;" horiz-adv-x="330" 
d="M9 -200l71 400h140l-71 -400h-140zM319 760l-71 -400h-140l71 400h140z" />
    <glyph glyph-name="section" unicode="&#xa7;" horiz-adv-x="610" 
d="M450 455l100 -110l-33 -190l-59 -50l-1 -5l42 -45l-25 -145l-140 -110h-340l21 120h275l52 40l8 45l-38 40h-165l-100 110l33 190l59 50l1 5l-42 45l26 145l139 110h316l-21 -120h-251l-52 -40l-8 -45l38 -40h165zM196 205l38 -40h100l52 40l16 90l-38 40h-100l-52 -40z
" />
    <glyph glyph-name="dieresis" unicode="&#xa8;" horiz-adv-x="375" 
d="M204 595h-120l22 125h120zM399 595h-120l22 125h120z" />
    <glyph glyph-name="copyright" unicode="&#xa9;" horiz-adv-x="905" 
d="M153 160l83 -95h355l117 95l65 370l-83 95h-355l-117 -95zM617 -40h-445l-133 150l83 470l186 150h445l134 -150l-83 -470zM592 240l-16 -90h-225l-68 70l44 250l93 70h225l-16 -90h-170l-29 -20l-30 -170l22 -20h170z" />
    <glyph glyph-name="ordfeminine" unicode="&#xaa;" horiz-adv-x="420" 
d="M297 440l6 35h-100l-23 -20l-5 -25l18 -15h70zM288 360l-40 -30h-125l-60 60l20 110l80 60h155l6 30l-17 20h-170l16 90h215l68 -70l-53 -300h-93z" />
    <glyph glyph-name="guillemotleft" unicode="&#xab;" horiz-adv-x="580" 
d="M170 5l-141 245l228 245l72 -70l-160 -175l99 -175zM400 5l-141 245l228 245l72 -70l-160 -175l99 -175z" />
    <glyph glyph-name="logicalnot" unicode="&#xac;" horiz-adv-x="520" 
d="M51 290l21 120h420l-37 -210h-120l16 90h-300z" />
    <glyph glyph-name="uni00AD" unicode="&#xad;" horiz-adv-x="480" 
d="M51 290l21 120h380l-21 -120h-380z" />
    <glyph glyph-name="registered" unicode="&#xae;" horiz-adv-x="905" 
d="M496 150l-34 120h-70l-21 -120h-110l69 390h255l67 -70l-23 -130l-63 -50l45 -140h-115zM514 450h-90l-16 -90h90l29 20l8 50zM153 160l83 -95h355l117 95l65 370l-83 95h-355l-117 -95zM617 -40h-445l-133 150l83 470l186 150h445l134 -150l-83 -470z" />
    <glyph glyph-name="macron" unicode="&#xaf;" horiz-adv-x="325" 
d="M86 605l20 110h265l-20 -110h-265z" />
    <glyph glyph-name="degree" unicode="&#xb0;" horiz-adv-x="410" 
d="M191 465l26 -25h30l34 25l24 135l-25 25h-30l-35 -25zM80 430l36 205l99 75h130l71 -75l-36 -205l-98 -75h-130z" />
    <glyph glyph-name="plusminus" unicode="&#xb1;" horiz-adv-x="570" 
d="M13 20l21 120h450l-21 -120h-450zM59 340l22 120h175l33 190h120l-33 -190h175l-22 -120h-175l-30 -170h-120l30 170h-175z" />
    <glyph glyph-name="twosuperior" unicode="&#xb2;" horiz-adv-x="355" 
d="M168 445h170l-13 -75h-275l24 140l76 60h100l18 15l4 25l-12 15h-155l13 75h230l38 -40l-21 -120l-58 -45h-110l-24 -20z" />
    <glyph glyph-name="threesuperior" unicode="&#xb3;" horiz-adv-x="360" 
d="M236 575l18 15l4 25l-8 10h-150l13 75h215l42 -45l-16 -90l-34 -25l34 -35l-16 -90l-58 -45h-230l13 75h165l12 10l5 30l-12 15h-95l13 75h85z" />
    <glyph glyph-name="acute" unicode="&#xb4;" horiz-adv-x="270" 
d="M180 740h140l-138 -160h-100z" />
    <glyph glyph-name="mu" unicode="&#xb5;" 
d="M162 40l-43 -240h-135l124 700h135l-63 -355l30 -30h105l40 30l63 355h135l-88 -500h-115l-3 45l-57 -45h-90z" />
    <glyph glyph-name="paragraph" unicode="&#xb6;" horiz-adv-x="675" 
d="M237 270h-60l-100 110l37 210l139 110h190l-159 -900h-130zM518 700h130l-159 -900h-130z" />
    <glyph glyph-name="periodcentered" unicode="&#xb7;" horiz-adv-x="210" 
d="M169 280h-130l23 135h130z" />
    <glyph glyph-name="cedilla" unicode="&#xb8;" horiz-adv-x="250" 
d="M-10 0h80l-6 -30h30l60 -60l-16 -90l-81 -60h-119l12 70h80l28 20l5 30l-21 20h-70z" />
    <glyph glyph-name="onesuperior" unicode="&#xb9;" horiz-adv-x="295" 
d="M275 370h-215l13 75h55l32 180h-55l13 75h160l-45 -255h55z" />
    <glyph glyph-name="ordmasculine" unicode="&#xba;" horiz-adv-x="415" 
d="M106 630l92 70h165l68 -70l-41 -230l-92 -70h-165l-68 70zM317 580l-25 30h-55l-35 -30l-24 -135l26 -25h55l34 25z" />
    <glyph glyph-name="guillemotright" unicode="&#xbb;" horiz-adv-x="580" 
d="M539 250l-229 -245l-72 70l161 175l-100 175l98 70zM309 250l-229 -245l-72 70l161 175l-100 175l98 70z" />
    <glyph glyph-name="onequarter" unicode="&#xbc;" horiz-adv-x="785" 
d="M708 700l-513 -700h-105l513 700h105zM265 370h-215l13 75h55l32 180h-55l13 75h160l-45 -255h55zM554 0l12 70h-175l12 65l189 195h125l-33 -185h40l-13 -75h-40l-12 -70h-105zM579 145l17 95h-5l-86 -90l-1 -5h75z" />
    <glyph glyph-name="onehalf" unicode="&#xbd;" horiz-adv-x="815" 
d="M708 700l-513 -700h-105l513 700h105zM265 370h-215l13 75h55l32 180h-55l13 75h160l-45 -255h55zM552 75h170l-13 -75h-275l24 140l76 60h100l18 15l4 25l-12 15h-155l13 75h230l38 -40l-21 -120l-58 -45h-110l-24 -20z" />
    <glyph glyph-name="threequarters" unicode="&#xbe;" horiz-adv-x="810" 
d="M733 700l-513 -700h-105l513 700h105zM236 575l18 15l4 25l-8 10h-150l13 75h215l42 -45l-16 -90l-34 -25l34 -35l-16 -90l-58 -45h-230l13 75h165l12 10l5 30l-12 15h-95l13 75h85zM579 0l12 70h-175l12 65l189 195h125l-33 -185h40l-13 -75h-40l-12 -70h-105zM604 145
l17 95h-5l-86 -90l-1 -5h75z" />
    <glyph glyph-name="questiondown" unicode="&#xbf;" horiz-adv-x="570" 
d="M208 105l-58 -45l-17 -95l42 -45h315l-21 -120h-380l-104 115l34 195l145 115h105l10 55h140l-21 -120l-70 -55h-120zM322 500h135l-24 -135h-135z" />
    <glyph glyph-name="Agrave" unicode="&#xc0;" horiz-adv-x="700" 
d="M500 0l-38 185h-260l-102 -185h-150l383 700h180l137 -700h-150zM394 535l-126 -230h170zM302 920h140l45 -140h-100z" />
    <glyph glyph-name="Aacute" unicode="&#xc1;" horiz-adv-x="700" 
d="M500 0l-38 185h-260l-102 -185h-150l383 700h180l137 -700h-150zM394 535l-126 -230h170zM482 920h140l-135 -140h-100z" />
    <glyph glyph-name="Acircumflex" unicode="&#xc2;" horiz-adv-x="700" 
d="M500 0l-38 185h-260l-102 -185h-150l383 700h180l137 -700h-150zM394 535l-126 -230h170zM407 920h110l80 -140h-115l-34 60l-56 -60h-115z" />
    <glyph glyph-name="Atilde" unicode="&#xc3;" horiz-adv-x="700" 
d="M500 0l-38 185h-260l-102 -185h-150l383 700h180l137 -700h-150zM394 535l-126 -230h170zM399 820l-81 -35l-25 85l124 50l83 -40l81 35l25 -85l-124 -50z" />
    <glyph glyph-name="Adieresis" unicode="&#xc4;" horiz-adv-x="700" 
d="M500 0l-38 185h-260l-102 -185h-150l383 700h180l137 -700h-150zM394 535l-126 -230h170zM403 795h-120l19 110h120zM598 795h-120l19 110h120z" />
    <glyph glyph-name="Aring" unicode="&#xc5;" horiz-adv-x="700" 
d="M500 0l-38 185h-260l-102 -185h-150l383 700h180l137 -700h-150zM394 535l-126 -230h170zM405 825l13 -10h50l17 10l9 50l-13 10h-50l-17 -10zM316 800l17 100l69 50h130l51 -50l-17 -100l-69 -50h-130z" />
    <glyph glyph-name="AE" unicode="&#xc6;" horiz-adv-x="1005" 
d="M920 0h-515l32 186h-255l-87 -186h-145l333 700h750l-21 -120h-365l-30 -170h275l-21 -120h-275l-30 -170h375zM507 580h-135l-134 -274h220z" />
    <glyph glyph-name="Ccedilla" unicode="&#xc7;" horiz-adv-x="645" 
d="M250 0h-100l-109 120l81 460l151 120h400l-21 -120h-335l-64 -50l-64 -360l47 -50h335l-21 -120h-220l-6 -30h30l60 -60l-16 -90l-81 -60h-120l13 70h80l28 20l5 30l-21 20h-70z" />
    <glyph glyph-name="Egrave" unicode="&#xc8;" horiz-adv-x="650" 
d="M158 700h520l-21 -120h-380l-30 -170h290l-21 -120h-290l-30 -170h390l-21 -120h-530zM297 920h140l45 -140h-100z" />
    <glyph glyph-name="Eacute" unicode="&#xc9;" horiz-adv-x="650" 
d="M158 700h520l-21 -120h-380l-30 -170h290l-21 -120h-290l-30 -170h390l-21 -120h-530zM477 920h140l-135 -140h-100z" />
    <glyph glyph-name="Ecircumflex" unicode="&#xca;" horiz-adv-x="650" 
d="M158 700h520l-21 -120h-380l-30 -170h290l-21 -120h-290l-30 -170h390l-21 -120h-530zM402 920h110l80 -140h-115l-34 60l-56 -60h-115z" />
    <glyph glyph-name="Edieresis" unicode="&#xcb;" horiz-adv-x="650" 
d="M158 700h520l-21 -120h-380l-30 -170h290l-21 -120h-290l-30 -170h390l-21 -120h-530zM398 795h-120l19 110h120zM593 795h-120l19 110h120z" />
    <glyph glyph-name="Igrave" unicode="&#xcc;" horiz-adv-x="470" 
d="M375 0h-380l21 120h120l81 460h-120l21 120h380l-21 -120h-120l-81 -460h120zM192 920h140l45 -140h-100z" />
    <glyph glyph-name="Iacute" unicode="&#xcd;" horiz-adv-x="470" 
d="M375 0h-380l21 120h120l81 460h-120l21 120h380l-21 -120h-120l-81 -460h120zM372 920h140l-135 -140h-100z" />
    <glyph glyph-name="Icircumflex" unicode="&#xce;" horiz-adv-x="470" 
d="M375 0h-380l21 120h120l81 460h-120l21 120h380l-21 -120h-120l-81 -460h120zM292 920h110l80 -140h-115l-34 60l-56 -60h-115z" />
    <glyph glyph-name="Idieresis" unicode="&#xcf;" horiz-adv-x="470" 
d="M375 0h-380l21 120h120l81 460h-120l21 120h380l-21 -120h-120l-81 -460h120zM288 795h-120l19 110h120zM483 795h-120l19 110h120z" />
    <glyph glyph-name="Eth" unicode="&#xd0;" horiz-adv-x="745" 
d="M45 0l51 290h-75l21 120h75l51 290h450l109 -120l-81 -460l-151 -120h-450zM206 120h245l63 50l64 360l-46 50h-245l-30 -170h115l-21 -120h-115z" />
    <glyph glyph-name="Ntilde" unicode="&#xd1;" horiz-adv-x="750" 
d="M519 255l79 445h140l-123 -700h-135l-222 445h-5l-78 -445h-140l123 700h135l221 -445h5zM424 820l-81 -35l-25 85l124 50l83 -40l81 35l25 -85l-124 -50z" />
    <glyph glyph-name="Ograve" unicode="&#xd2;" horiz-adv-x="740" 
d="M319 590l-64 -50l-67 -380l46 -50h210l64 50l67 380l-46 50h-210zM275 710h340l109 -120l-85 -480l-151 -120h-340l-109 120l85 480zM322 920h140l45 -140h-100z" />
    <glyph glyph-name="Oacute" unicode="&#xd3;" horiz-adv-x="740" 
d="M319 590l-64 -50l-67 -380l46 -50h210l64 50l67 380l-46 50h-210zM275 710h340l109 -120l-85 -480l-151 -120h-340l-109 120l85 480zM502 920h140l-135 -140h-100z" />
    <glyph glyph-name="Ocircumflex" unicode="&#xd4;" horiz-adv-x="740" 
d="M319 590l-64 -50l-67 -380l46 -50h210l64 50l67 380l-46 50h-210zM275 710h340l109 -120l-85 -480l-151 -120h-340l-109 120l85 480zM427 920h110l80 -140h-115l-34 60l-56 -60h-115z" />
    <glyph glyph-name="Otilde" unicode="&#xd5;" horiz-adv-x="740" 
d="M319 590l-64 -50l-67 -380l46 -50h210l64 50l67 380l-46 50h-210zM275 710h340l109 -120l-85 -480l-151 -120h-340l-109 120l85 480zM419 820l-81 -35l-25 85l124 50l83 -40l81 35l25 -85l-124 -50z" />
    <glyph glyph-name="Odieresis" unicode="&#xd6;" horiz-adv-x="740" 
d="M319 590l-64 -50l-67 -380l46 -50h210l64 50l67 380l-46 50h-210zM275 710h340l109 -120l-85 -480l-151 -120h-340l-109 120l85 480zM423 795h-120l19 110h120zM618 795h-120l19 110h120z" />
    <glyph glyph-name="multiply" unicode="&#xd7;" horiz-adv-x="530" 
d="M191 350l-95 140l100 85l95 -140l145 140l70 -85l-145 -140l96 -140l-100 -85l-96 140l-144 -140l-70 85z" />
    <glyph glyph-name="Oslash" unicode="&#xd8;" horiz-adv-x="740" 
d="M275 710h340l24 -30l31 30h110l-86 -90l30 -30l-85 -480l-151 -120h-340l-25 30l-30 -30h-110l86 90l-30 30l85 480zM319 590l-64 -50l-57 -320h5l338 355l-12 15h-210zM444 110l64 50l56 320h-5l-337 -355l12 -15h210z" />
    <glyph glyph-name="Ugrave" unicode="&#xd9;" horiz-adv-x="745" 
d="M498 160l95 540h140l-104 -590l-151 -120h-315l-109 120l104 590h140l-95 -540l46 -50h185zM322 920h140l45 -140h-100z" />
    <glyph glyph-name="Uacute" unicode="&#xda;" horiz-adv-x="745" 
d="M498 160l95 540h140l-104 -590l-151 -120h-315l-109 120l104 590h140l-95 -540l46 -50h185zM502 920h140l-135 -140h-100z" />
    <glyph glyph-name="Ucircumflex" unicode="&#xdb;" horiz-adv-x="745" 
d="M498 160l95 540h140l-104 -590l-151 -120h-315l-109 120l104 590h140l-95 -540l46 -50h185zM429 920h110l80 -140h-115l-34 60l-56 -60h-115z" />
    <glyph glyph-name="Udieresis" unicode="&#xdc;" horiz-adv-x="745" 
d="M498 160l95 540h140l-104 -590l-151 -120h-315l-109 120l104 590h140l-95 -540l46 -50h185zM425 795h-120l19 110h120zM620 795h-120l19 110h120z" />
    <glyph glyph-name="Yacute" unicode="&#xdd;" horiz-adv-x="630" 
d="M335 0h-140l40 230l-172 470h150l114 -320h10l226 320h150l-338 -470zM448 920h140l-135 -140h-100z" />
    <glyph glyph-name="Thorn" unicode="&#xde;" horiz-adv-x="700" 
d="M499 110h-305l-19 -110h-140l123 700h140l-18 -100h305l101 -110l-48 -270zM537 440l-38 40h-240l-44 -250h240l52 40z" />
    <glyph glyph-name="germandbls" unicode="&#xdf;" horiz-adv-x="580" 
d="M20 0l106 605l134 105h200l96 -105l-27 -155l-58 -46l-1 -4l63 -70l-40 -225l-133 -105h-150l20 115h85l52 40l24 135l-38 40h-85l20 115h60l52 40l12 70l-38 40h-70l-52 -40l-97 -555h-135z" />
    <glyph glyph-name="agrave" unicode="&#xe0;" horiz-adv-x="545" 
d="M312 45l-57 -45h-175l-81 85l25 140l110 85h215l9 50l-26 25h-220l21 115h285l84 -90l-72 -410h-115zM320 145l9 50h-150l-29 -20l-7 -40l22 -20h115zM190 740h140l42 -160h-100z" />
    <glyph glyph-name="aacute" unicode="&#xe1;" horiz-adv-x="545" 
d="M312 45l-57 -45h-175l-81 85l25 140l110 85h215l9 50l-26 25h-220l21 115h285l84 -90l-72 -410h-115zM320 145l9 50h-150l-29 -20l-7 -40l22 -20h115zM360 740h140l-138 -160h-100z" />
    <glyph glyph-name="acircumflex" unicode="&#xe2;" horiz-adv-x="545" 
d="M312 45l-57 -45h-175l-81 85l25 140l110 85h215l9 50l-26 25h-220l21 115h285l84 -90l-72 -410h-115zM320 145l9 50h-150l-29 -20l-7 -40l22 -20h115zM305 740h110l77 -160h-115l-32 75l-58 -75h-115z" />
    <glyph glyph-name="atilde" unicode="&#xe3;" horiz-adv-x="545" 
d="M312 45l-57 -45h-175l-81 85l25 140l110 85h215l9 50l-26 25h-220l21 115h285l84 -90l-72 -410h-115zM320 145l9 50h-150l-29 -20l-7 -40l22 -20h115zM294 620l-71 -35l-35 85l127 70l83 -40l71 35l35 -85l-127 -70z" />
    <glyph glyph-name="adieresis" unicode="&#xe4;" horiz-adv-x="545" 
d="M312 45l-57 -45h-175l-81 85l25 140l110 85h215l9 50l-26 25h-220l21 115h285l84 -90l-72 -410h-115zM320 145l9 50h-150l-29 -20l-7 -40l22 -20h115zM294 595h-120l22 125h120zM489 595h-120l22 125h120z" />
    <glyph glyph-name="aring" unicode="&#xe5;" horiz-adv-x="545" 
d="M312 45l-57 -45h-175l-81 85l25 140l110 85h215l9 50l-26 25h-220l21 115h285l84 -90l-72 -410h-115zM320 145l9 50h-150l-29 -20l-7 -40l22 -20h115zM305 655l21 -20h30l29 20l10 55l-22 20h-30l-28 -20zM216 630l18 105l81 60h110l59 -60l-18 -105l-81 -60h-110z" />
    <glyph glyph-name="ae" unicode="&#xe6;" horiz-adv-x="810" 
d="M400 0l-38 45h-10l-52 -45h-220l-81 85l25 140l110 85h205l9 50l-26 25h-210l21 115h275l24 -30h10l47 40h195l97 -105l-37 -210h-290l-7 -40l38 -40h205l-20 -115h-270zM270 115l40 30l9 50h-140l-29 -20l-7 -40l22 -20h105zM482 355l-10 -60h155l10 60l-38 40h-65z" />
    <glyph glyph-name="ccedilla" unicode="&#xe7;" horiz-adv-x="485" 
d="M185 0h-65l-97 105l51 290l134 105h280l-21 -115h-215l-52 -40l-33 -190l38 -40h215l-20 -115h-135l-6 -30h30l60 -60l-16 -90l-81 -60h-120l13 70h80l28 20l5 30l-21 20h-70z" />
    <glyph glyph-name="egrave" unicode="&#xe8;" horiz-adv-x="540" 
d="M209 510h205l97 -105l-37 -210h-300l-7 -40l38 -40h215l-20 -115h-280l-97 105l53 300zM202 355l-10 -60h165l10 60l-38 40h-75zM190 740h140l42 -160h-100z" />
    <glyph glyph-name="eacute" unicode="&#xe9;" horiz-adv-x="540" 
d="M209 510h205l97 -105l-37 -210h-300l-7 -40l38 -40h215l-20 -115h-280l-97 105l53 300zM202 355l-10 -60h165l10 60l-38 40h-75zM370 740h140l-138 -160h-100z" />
    <glyph glyph-name="ecircumflex" unicode="&#xea;" horiz-adv-x="540" 
d="M209 510h205l97 -105l-37 -210h-300l-7 -40l38 -40h215l-20 -115h-280l-97 105l53 300zM202 355l-10 -60h165l10 60l-38 40h-75zM295 740h110l77 -160h-115l-32 75l-58 -75h-115z" />
    <glyph glyph-name="edieresis" unicode="&#xeb;" horiz-adv-x="540" 
d="M209 510h205l97 -105l-37 -210h-300l-7 -40l38 -40h215l-20 -115h-280l-97 105l53 300zM202 355l-10 -60h165l10 60l-38 40h-75zM289 595h-120l22 125h120zM484 595h-120l22 125h120z" />
    <glyph glyph-name="igrave" unicode="&#xec;" horiz-adv-x="275" 
d="M108 500h135l-88 -500h-135zM56 740h140l42 -160h-100z" />
    <glyph glyph-name="iacute" unicode="&#xed;" horiz-adv-x="275" 
d="M108 500h135l-88 -500h-135zM235 740h140l-138 -160h-100z" />
    <glyph glyph-name="icircumflex" unicode="&#xee;" horiz-adv-x="280" 
d="M111 500h135l-88 -500h-135zM165 740h110l77 -160h-115l-32 75l-58 -75h-115z" />
    <glyph glyph-name="idieresis" unicode="&#xef;" horiz-adv-x="275" 
d="M108 500h135l-88 -500h-135zM154 595h-120l22 125h120zM349 595h-120l22 125h120z" />
    <glyph glyph-name="eth" unicode="&#xf0;" horiz-adv-x="545" 
d="M251 630l-28 70h140l28 -70h130l-21 -115h-60l70 -170l-44 -250l-133 -105h-230l-97 105l41 230l133 105h155l-35 85h-135l21 115h65zM225 315l-52 -40l-23 -130l38 -40h100l52 40l30 170h-145z" />
    <glyph glyph-name="ntilde" unicode="&#xf1;" horiz-adv-x="580" 
d="M223 500l2 -45l58 45h165l88 -95l-71 -405h-135l62 355l-30 30h-105l-40 -30l-62 -355h-135l88 500h115zM306 620l-71 -35l-35 85l127 70l83 -40l71 35l35 -85l-127 -70z" />
    <glyph glyph-name="ograve" unicode="&#xf2;" horiz-adv-x="570" 
d="M76 405l133 105h230l97 -105l-55 -310l-133 -105h-230l-97 105zM392 355l-38 40h-100l-52 -40l-37 -210l38 -40h100l52 40zM205 740h140l42 -160h-100z" />
    <glyph glyph-name="oacute" unicode="&#xf3;" horiz-adv-x="570" 
d="M76 405l133 105h230l97 -105l-55 -310l-133 -105h-230l-97 105zM392 355l-38 40h-100l-52 -40l-37 -210l38 -40h100l52 40zM385 740h140l-138 -160h-100z" />
    <glyph glyph-name="ocircumflex" unicode="&#xf4;" horiz-adv-x="570" 
d="M76 405l133 105h230l97 -105l-55 -310l-133 -105h-230l-97 105zM392 355l-38 40h-100l-52 -40l-37 -210l38 -40h100l52 40zM310 740h110l77 -160h-115l-32 75l-58 -75h-115z" />
    <glyph glyph-name="otilde" unicode="&#xf5;" horiz-adv-x="570" 
d="M76 405l133 105h230l97 -105l-55 -310l-133 -105h-230l-97 105zM392 355l-38 40h-100l-52 -40l-37 -210l38 -40h100l52 40zM299 620l-71 -35l-35 85l127 70l83 -40l71 35l35 -85l-127 -70z" />
    <glyph glyph-name="odieresis" unicode="&#xf6;" horiz-adv-x="570" 
d="M76 405l133 105h230l97 -105l-55 -310l-133 -105h-230l-97 105zM392 355l-38 40h-100l-52 -40l-37 -210l38 -40h100l52 40zM302 595h-120l22 125h120zM497 595h-120l22 125h120z" />
    <glyph glyph-name="divide" unicode="&#xf7;" horiz-adv-x="545" 
d="M51 290l21 120h445l-21 -120h-445zM298 75h-125l22 125h125zM373 500h-125l22 125h125z" />
    <glyph glyph-name="oslash" unicode="&#xf8;" horiz-adv-x="570" 
d="M76 405l133 105h230l21 -25l24 25h105l-79 -80l26 -25l-55 -310l-133 -105h-230l-21 25l-24 -25h-105l79 80l-26 25zM303 105l52 40l27 155h-5l-182 -185l8 -10h100zM202 355l-27 -155h5l182 185l-8 10h-100z" />
    <glyph glyph-name="ugrave" unicode="&#xf9;" 
d="M350 0l-3 45l-57 -45h-165l-89 95l72 405h135l-63 -355l30 -30h105l40 30l63 355h135l-88 -500h-115zM210 740h140l42 -160h-100z" />
    <glyph glyph-name="uacute" unicode="&#xfa;" 
d="M350 0l-3 45l-57 -45h-165l-89 95l72 405h135l-63 -355l30 -30h105l40 30l63 355h135l-88 -500h-115zM395 740h140l-138 -160h-100z" />
    <glyph glyph-name="ucircumflex" unicode="&#xfb;" 
d="M350 0l-3 45l-57 -45h-165l-89 95l72 405h135l-63 -355l30 -30h105l40 30l63 355h135l-88 -500h-115zM317 740h110l77 -160h-115l-32 75l-58 -75h-115z" />
    <glyph glyph-name="udieresis" unicode="&#xfc;" 
d="M350 0l-3 45l-57 -45h-165l-89 95l72 405h135l-63 -355l30 -30h105l40 30l63 355h135l-88 -500h-115zM309 595h-120l22 125h120zM504 595h-120l22 125h120z" />
    <glyph glyph-name="yacute" unicode="&#xfd;" 
d="M330 0h-205l-89 95l72 405h135l-63 -355l30 -30h140l68 385h135l-105 -595l-134 -105h-285l21 115h220l52 40zM395 740h140l-138 -160h-100z" />
    <glyph glyph-name="thorn" unicode="&#xfe;" horiz-adv-x="580" 
d="M248 500h200l96 -105l-51 -290l-133 -105h-200l-36 -200h-135l159 900h135zM400 345l-38 40h-135l-47 -270h135l52 40z" />
    <glyph glyph-name="ydieresis" unicode="&#xff;" 
d="M330 0h-205l-89 95l72 405h135l-63 -355l30 -30h140l68 385h135l-105 -595l-134 -105h-285l21 115h220l52 40zM309 595h-120l22 125h120zM504 595h-120l22 125h120z" />
    <glyph glyph-name="Amacron" unicode="&#x100;" horiz-adv-x="700" 
d="M500 0l-38 185h-260l-102 -185h-150l383 700h180l137 -700h-150zM394 535l-126 -230h170zM308 795l19 110h265l-19 -110h-265z" />
    <glyph glyph-name="amacron" unicode="&#x101;" horiz-adv-x="545" 
d="M312 45l-57 -45h-175l-81 85l25 140l110 85h215l9 50l-26 25h-220l21 115h285l84 -90l-72 -410h-115zM320 145l9 50h-150l-29 -20l-7 -40l22 -20h115zM201 605l20 110h265l-20 -110h-265z" />
    <glyph glyph-name="Abreve" unicode="&#x102;" horiz-adv-x="700" 
d="M500 0l-38 185h-260l-102 -185h-150l383 700h180l137 -700h-150zM394 535l-126 -230h170zM515 780h-155l-64 65l14 75h105l-6 -35l17 -15h55l23 15l6 35h105l-14 -75z" />
    <glyph glyph-name="abreve" unicode="&#x103;" horiz-adv-x="545" 
d="M312 45l-57 -45h-175l-81 85l25 140l110 85h215l9 50l-26 25h-220l21 115h285l84 -90l-72 -410h-115zM320 145l9 50h-150l-29 -20l-7 -40l22 -20h115zM407 580h-155l-64 65l17 95h105l-10 -55l18 -15h55l22 15l10 55h105l-17 -95z" />
    <glyph glyph-name="Aogonek" unicode="&#x104;" horiz-adv-x="700" 
d="M500 0l-38 185h-260l-102 -185h-150l383 700h180l137 -700l-117 -95l-7 -40l17 -15h70l-13 -75h-105l-60 60l17 95l93 70h-45zM394 535l-126 -230h170z" />
    <glyph glyph-name="aogonek" unicode="&#x105;" horiz-adv-x="545" 
d="M313 -95l-7 -40l17 -15h70l-13 -75h-105l-60 60l17 95l88 70l-8 45l-57 -45h-175l-81 85l25 140l110 85h215l9 50l-26 25h-220l21 115h285l84 -90l-72 -410zM320 145l9 50h-150l-29 -20l-7 -40l22 -20h115z" />
    <glyph glyph-name="Cacute" unicode="&#x106;" horiz-adv-x="645" 
d="M571 120l-21 -120h-400l-109 120l81 460l151 120h400l-21 -120h-335l-64 -50l-64 -360l47 -50h335zM497 920h140l-135 -140h-100z" />
    <glyph glyph-name="cacute" unicode="&#x107;" horiz-adv-x="485" 
d="M167 155l38 -40h215l-20 -115h-280l-97 105l51 290l134 105h280l-21 -115h-215l-52 -40zM380 740h140l-138 -160h-100z" />
    <glyph glyph-name="Ccircumflex" unicode="&#x108;" horiz-adv-x="645" 
d="M571 120l-21 -120h-400l-109 120l81 460l151 120h400l-21 -120h-335l-64 -50l-64 -360l47 -50h335zM417 920h110l80 -140h-115l-34 60l-56 -60h-115z" />
    <glyph glyph-name="ccircumflex" unicode="&#x109;" horiz-adv-x="485" 
d="M167 155l38 -40h215l-20 -115h-280l-97 105l51 290l134 105h280l-21 -115h-215l-52 -40zM310 740h110l77 -160h-115l-32 75l-58 -75h-115z" />
    <glyph glyph-name="Ccaron" unicode="&#x10c;" horiz-adv-x="645" 
d="M571 120l-21 -120h-400l-109 120l81 460l151 120h400l-21 -120h-335l-64 -50l-64 -360l47 -50h335zM502 780h-110l-80 140h115l34 -60l56 60h115z" />
    <glyph glyph-name="ccaron" unicode="&#x10d;" horiz-adv-x="485" 
d="M167 155l38 -40h215l-20 -115h-280l-97 105l51 290l134 105h280l-21 -115h-215l-52 -40zM390 570h-110l-77 160h115l32 -75l58 75h115z" />
    <glyph glyph-name="Dcaron" unicode="&#x10e;" horiz-adv-x="735" 
d="M35 0l123 700h450l109 -120l-81 -460l-151 -120h-450zM196 120h245l63 50l64 360l-46 50h-245zM487 780h-110l-80 140h115l34 -60l56 60h115z" />
    <glyph glyph-name="dcaron" unicode="&#x10f;" horiz-adv-x="670" 
d="M340 0l-3 45l-57 -45h-160l-97 105l51 290l134 105h200l35 200h135l-123 -700h-115zM167 155l38 -40h100l40 30l42 240h-135l-52 -40zM600 490l59 80h-50l24 135h130l-24 -135l-95 -115z" />
    <glyph glyph-name="Dcroat" unicode="&#x110;" horiz-adv-x="745" 
d="M45 0l51 290h-75l21 120h75l51 290h450l109 -120l-81 -460l-151 -120h-450zM206 120h245l63 50l64 360l-46 50h-245l-30 -170h115l-21 -120h-115z" />
    <glyph glyph-name="dcroat" unicode="&#x111;" horiz-adv-x="580" 
d="M340 0l-3 45l-57 -45h-160l-97 105l42 240l134 105h200l13 75h-100l19 105h100l12 70h135l-12 -70h65l-19 -105h-65l-92 -525h-115zM167 155l38 -40h100l40 30l34 190h-135l-52 -40z" />
    <glyph glyph-name="Emacron" unicode="&#x112;" horiz-adv-x="650" 
d="M158 700h520l-21 -120h-380l-30 -170h290l-21 -120h-290l-30 -170h390l-21 -120h-530zM303 795l19 110h265l-19 -110h-265z" />
    <glyph glyph-name="emacron" unicode="&#x113;" horiz-adv-x="540" 
d="M209 510h205l97 -105l-37 -210h-300l-7 -40l38 -40h215l-20 -115h-280l-97 105l53 300zM202 355l-10 -60h165l10 60l-38 40h-75zM196 605l20 110h265l-20 -110h-265z" />
    <glyph glyph-name="Edotaccent" unicode="&#x116;" horiz-adv-x="650" 
d="M158 700h520l-21 -120h-380l-30 -170h290l-21 -120h-290l-30 -170h390l-21 -120h-530zM503 795h-135l19 110h135z" />
    <glyph glyph-name="edotaccent" unicode="&#x117;" horiz-adv-x="540" 
d="M209 510h205l97 -105l-37 -210h-300l-7 -40l38 -40h215l-20 -115h-280l-97 105l53 300zM202 355l-10 -60h165l10 60l-38 40h-75zM394 595h-135l23 130h135z" />
    <glyph glyph-name="Eogonek" unicode="&#x118;" horiz-adv-x="650" 
d="M448 -95l-7 -40l17 -15h70l-13 -75h-105l-60 60l17 95l93 70h-425l123 700h520l-21 -120h-380l-30 -170h290l-21 -120h-290l-30 -170h390l-21 -120z" />
    <glyph glyph-name="eogonek" unicode="&#x119;" horiz-adv-x="540" 
d="M283 -95l-7 -40l17 -15h70l-13 -75h-105l-60 60l17 95l93 70h-175l-97 105l53 300l133 105h205l97 -105l-37 -210h-300l-7 -40l38 -40h215l-20 -115zM202 355l-10 -60h165l10 60l-38 40h-75z" />
    <glyph glyph-name="Ecaron" unicode="&#x11a;" horiz-adv-x="650" 
d="M158 700h520l-21 -120h-380l-30 -170h290l-21 -120h-290l-30 -170h390l-21 -120h-530zM487 780h-110l-80 140h115l34 -60l56 60h115z" />
    <glyph glyph-name="ecaron" unicode="&#x11b;" horiz-adv-x="540" 
d="M209 510h205l97 -105l-37 -210h-300l-7 -40l38 -40h215l-20 -115h-280l-97 105l53 300zM202 355l-10 -60h165l10 60l-38 40h-75zM377 580h-110l-77 160h115l32 -75l58 75h115z" />
    <glyph glyph-name="Gbreve" unicode="&#x11e;" horiz-adv-x="730" 
d="M509 170l22 120h-145l21 120h285l-51 -290l-151 -120h-340l-109 120l81 460l151 120h405l-21 -120h-340l-64 -50l-64 -360l47 -50h210zM530 780h-155l-64 65l14 75h105l-6 -35l17 -15h55l23 15l6 35h105l-14 -75z" />
    <glyph glyph-name="gbreve" unicode="&#x11f;" horiz-adv-x="575" 
d="M252 385l-52 -40l-33 -190l38 -40h135l47 270h-135zM312 -45l8 45h-200l-97 105l51 290l134 105h335l-105 -595l-134 -105h-290l21 115h225zM430 580h-155l-64 65l17 95h105l-10 -55l18 -15h55l22 15l10 55h105l-17 -95z" />
    <glyph glyph-name="Gcommaaccent" unicode="&#x122;" horiz-adv-x="730" 
d="M509 170l22 120h-145l21 120h285l-51 -290l-151 -120h-340l-109 120l81 460l151 120h405l-21 -120h-340l-64 -50l-64 -360l47 -50h210zM208 -295l59 80h-49l22 135h130l-23 -135l-96 -115z" />
    <glyph glyph-name="gcommaaccent" unicode="&#x123;" horiz-adv-x="575" 
d="M252 385l-52 -40l-33 -190l38 -40h135l47 270h-135zM312 -45l8 45h-200l-97 105l51 290l134 105h335l-105 -595l-134 -105h-290l21 115h225zM446 805l-59 -80h50l-23 -135h-130l23 135l96 115z" />
    <glyph glyph-name="Imacron" unicode="&#x12a;" horiz-adv-x="470" 
d="M375 0h-380l21 120h120l81 460h-120l21 120h380l-21 -120h-120l-81 -460h120zM193 795l19 110h265l-19 -110h-265z" />
    <glyph glyph-name="imacron" unicode="&#x12b;" horiz-adv-x="275" 
d="M108 500h135l-88 -500h-135zM61 605l20 110h265l-20 -110h-265z" />
    <glyph glyph-name="Iogonek" unicode="&#x12e;" horiz-adv-x="470" 
d="M258 -95l-7 -40l17 -15h70l-13 -75h-105l-60 60l17 95l93 70h-275l21 120h120l81 460h-120l21 120h380l-21 -120h-120l-81 -460h120l-21 -120z" />
    <glyph glyph-name="iogonek" unicode="&#x12f;" horiz-adv-x="275" 
d="M38 -95l-7 -40l17 -15h70l-13 -75h-105l-59 60l16 95l93 70h-30l88 500h135l-88 -500zM259 595h-135l23 130h135z" />
    <glyph glyph-name="Idotaccent" unicode="&#x130;" horiz-adv-x="470" 
d="M375 0h-380l21 120h120l81 460h-120l21 120h380l-21 -120h-120l-81 -460h120zM393 795h-135l19 110h135z" />
    <glyph glyph-name="dotlessi" unicode="&#x131;" horiz-adv-x="275" 
d="M108 500h135l-88 -500h-135z" />
    <glyph glyph-name="Kcommaaccent" unicode="&#x136;" horiz-adv-x="670" 
d="M226 290l-51 -290h-140l123 700h140l-51 -290h90l231 290h160l-275 -340l167 -360h-160l-134 290h-100zM203 -295l59 80h-49l22 135h130l-23 -135l-96 -115z" />
    <glyph glyph-name="kcommaaccent" unicode="&#x137;" horiz-adv-x="550" 
d="M500 0h-150l-90 200h-65l-35 -200h-135l123 700h135l-68 -385h60l148 185h150l-193 -240zM143 -295l59 80h-49l22 135h130l-23 -135l-96 -115z" />
    <glyph glyph-name="Lacute" unicode="&#x139;" horiz-adv-x="600" 
d="M158 700h140l-102 -580h355l-21 -120h-495zM287 920h140l-135 -140h-100z" />
    <glyph glyph-name="lacute" unicode="&#x13a;" horiz-adv-x="305" 
d="M180 0h-135l103 585h-70l20 115h205zM292 920h140l-135 -140h-100z" />
    <glyph glyph-name="Lcommaaccent" unicode="&#x13b;" horiz-adv-x="600" 
d="M158 700h140l-102 -580h355l-21 -120h-495zM170 -295l59 80h-49l22 135h130l-23 -135l-96 -115z" />
    <glyph glyph-name="lcommaaccent" unicode="&#x13c;" horiz-adv-x="305" 
d="M180 0h-135l103 585h-70l20 115h205zM0 -295l59 80h-49l22 135h130l-23 -135l-96 -115z" />
    <glyph glyph-name="Lcaron" unicode="&#x13d;" horiz-adv-x="600" 
d="M158 700h140l-102 -580h355l-21 -120h-495zM380 490l59 80h-50l24 135h130l-24 -135l-95 -115z" />
    <glyph glyph-name="lcaron" unicode="&#x13e;" horiz-adv-x="395" 
d="M180 0h-135l103 585h-70l20 115h205zM325 490l59 80h-50l24 135h130l-24 -135l-95 -115z" />
    <glyph glyph-name="Lslash" unicode="&#x141;" horiz-adv-x="610" 
d="M168 702h140l-42 -242l111 63l-24 -135l-111 -63l-36 -203h355l-21 -120h-495l42 238l-78 -45l24 135l78 45z" />
    <glyph glyph-name="lslash" unicode="&#x142;" horiz-adv-x="330" 
d="M180 0h-135l41 235l-77 -40l23 130l77 40l39 220h-70l20 115h205l-44 -250l77 40l-23 -130l-77 -40z" />
    <glyph glyph-name="Nacute" unicode="&#x143;" horiz-adv-x="750" 
d="M519 255l79 445h140l-123 -700h-135l-222 445h-5l-78 -445h-140l123 700h135l221 -445h5zM507 920h140l-135 -140h-100z" />
    <glyph glyph-name="nacute" unicode="&#x144;" horiz-adv-x="580" 
d="M223 500l2 -45l58 45h165l88 -95l-71 -405h-135l62 355l-30 30h-105l-40 -30l-62 -355h-135l88 500h115zM390 740h140l-138 -160h-100z" />
    <glyph glyph-name="Ncommaaccent" unicode="&#x145;" horiz-adv-x="750" 
d="M519 255l79 445h140l-123 -700h-135l-222 445h-5l-78 -445h-140l123 700h135l221 -445h5zM213 -295l59 80h-49l22 135h130l-23 -135l-96 -115z" />
    <glyph glyph-name="ncommaaccent" unicode="&#x146;" horiz-adv-x="580" 
d="M223 500l2 -45l58 45h165l88 -95l-71 -405h-135l62 355l-30 30h-105l-40 -30l-62 -355h-135l88 500h115zM130 -295l59 80h-49l22 135h130l-23 -135l-96 -115z" />
    <glyph glyph-name="Ncaron" unicode="&#x147;" horiz-adv-x="750" 
d="M519 255l79 445h140l-123 -700h-135l-222 445h-5l-78 -445h-140l123 700h135l221 -445h5zM517 780h-110l-80 140h115l34 -60l56 60h115z" />
    <glyph glyph-name="ncaron" unicode="&#x148;" horiz-adv-x="580" 
d="M223 500l2 -45l58 45h165l88 -95l-71 -405h-135l62 355l-30 30h-105l-40 -30l-62 -355h-135l88 500h115zM399 580h-110l-77 160h115l32 -75l58 75h115z" />
    <glyph glyph-name="Omacron" unicode="&#x14c;" horiz-adv-x="740" 
d="M319 590l-64 -50l-67 -380l46 -50h210l64 50l67 380l-46 50h-210zM275 710h340l109 -120l-85 -480l-151 -120h-340l-109 120l85 480zM328 795l19 110h265l-19 -110h-265z" />
    <glyph glyph-name="omacron" unicode="&#x14d;" horiz-adv-x="570" 
d="M76 405l133 105h230l97 -105l-55 -310l-133 -105h-230l-97 105zM392 355l-38 40h-100l-52 -40l-37 -210l38 -40h100l52 40zM209 605l20 110h265l-20 -110h-265z" />
    <glyph glyph-name="Ohungarumlaut" unicode="&#x150;" horiz-adv-x="740" 
d="M319 590l-64 -50l-67 -380l46 -50h210l64 50l67 380l-46 50h-210zM275 710h340l109 -120l-85 -480l-151 -120h-340l-109 120l85 480zM406 920h135l-125 -140h-100zM586 920h135l-125 -140h-100z" />
    <glyph glyph-name="ohungarumlaut" unicode="&#x151;" horiz-adv-x="570" 
d="M76 405l133 105h230l97 -105l-55 -310l-133 -105h-230l-97 105zM392 355l-38 40h-100l-52 -40l-37 -210l38 -40h100l52 40zM290 740h135l-128 -160h-100zM470 740h135l-128 -160h-100z" />
    <glyph glyph-name="OE" unicode="&#x152;" horiz-adv-x="995" 
d="M273 700h750l-21 -120h-340l-30 -170h250l-21 -120h-250l-30 -170h350l-21 -120h-760l-109 120l81 460zM317 580l-64 -50l-64 -360l47 -50h205l81 460h-205z" />
    <glyph glyph-name="oe" unicode="&#x153;" horiz-adv-x="845" 
d="M524 510h195l97 -105l-37 -210h-290l-7 -40l38 -40h205l-20 -115h-270l-33 40h-5l-59 -50h-220l-97 105l55 310l133 105h220l37 -45h5zM382 355l-38 40h-90l-52 -40l-37 -210l38 -40h90l52 40zM517 355l-10 -60h155l10 60l-38 40h-65z" />
    <glyph glyph-name="Racute" unicode="&#x154;" horiz-adv-x="710" 
d="M475 0l-105 230h-155l-40 -230h-140l123 700h435l101 -110l-45 -250l-133 -105l119 -235h-160zM545 540l-38 40h-230l-41 -230h230l52 40zM472 920h140l-135 -140h-100z" />
    <glyph glyph-name="racute" unicode="&#x155;" horiz-adv-x="430" 
d="M223 500l2 -45l58 45h165l-21 -115h-170l-40 -30l-62 -355h-135l88 500h115zM350 740h140l-138 -160h-100z" />
    <glyph glyph-name="Rcommaaccent" unicode="&#x156;" horiz-adv-x="710" 
d="M475 0l-105 230h-155l-40 -230h-140l123 700h435l101 -110l-45 -250l-133 -105l119 -235h-160zM545 540l-38 40h-230l-41 -230h230l52 40zM213 -295l59 80h-49l22 135h130l-23 -135l-96 -115z" />
    <glyph glyph-name="rcommaaccent" unicode="&#x157;" horiz-adv-x="430" 
d="M223 500l2 -45l58 45h165l-21 -115h-170l-40 -30l-62 -355h-135l88 500h115zM-28 -315l59 80h-49l22 135h130l-23 -135l-96 -115z" />
    <glyph glyph-name="Rcaron" unicode="&#x158;" horiz-adv-x="710" 
d="M475 0l-105 230h-155l-40 -230h-140l123 700h435l101 -110l-45 -250l-133 -105l119 -235h-160zM545 540l-38 40h-230l-41 -230h230l52 40zM483 780h-110l-80 140h115l34 -60l56 60h115z" />
    <glyph glyph-name="rcaron" unicode="&#x159;" horiz-adv-x="430" 
d="M223 500l2 -45l58 45h165l-21 -115h-170l-40 -30l-62 -355h-135l88 500h115zM347 580h-110l-77 160h115l32 -75l58 75h115z" />
    <glyph glyph-name="Sacute" unicode="&#x15a;" horiz-adv-x="665" 
d="M172 295l-101 110l33 185l139 110h410l-21 -120h-345l-52 -40l-15 -85l38 -40h260l100 -110l-34 -195l-139 -110h-435l21 120h370l52 40l16 95l-37 40h-260zM462 920h140l-135 -140h-100z" />
    <glyph glyph-name="sacute" unicode="&#x15b;" horiz-adv-x="505" 
d="M204 310h175l80 -85l-25 -140l-109 -85h-330l20 115h265l28 20l7 40l-21 20h-175l-80 85l24 135l110 85h305l-21 -115h-240l-28 -20l-6 -35zM355 740h140l-138 -160h-100z" />
    <glyph glyph-name="Scedilla" unicode="&#x15e;" horiz-adv-x="665" 
d="M215 0h-205l21 120h370l52 40l16 95l-37 40h-260l-101 110l33 185l139 110h410l-21 -120h-345l-52 -40l-15 -85l38 -40h260l100 -110l-34 -195l-139 -110h-150l-6 -30h30l60 -60l-16 -90l-81 -60h-120l13 70h80l28 20l5 30l-21 20h-70z" />
    <glyph glyph-name="scedilla" unicode="&#x15f;" horiz-adv-x="505" 
d="M135 0h-140l20 115h265l28 20l7 40l-21 20h-175l-80 85l24 135l110 85h305l-21 -115h-240l-28 -20l-6 -35l21 -20h175l80 -85l-25 -140l-109 -85h-110l-6 -30h30l60 -60l-16 -90l-81 -60h-120l13 70h80l28 20l5 30l-21 20h-70z" />
    <glyph glyph-name="Scaron" unicode="&#x160;" horiz-adv-x="665" 
d="M172 295l-101 110l33 185l139 110h410l-21 -120h-345l-52 -40l-15 -85l38 -40h260l100 -110l-34 -195l-139 -110h-435l21 120h370l52 40l16 95l-37 40h-260zM472 780h-110l-80 140h115l34 -60l56 60h115z" />
    <glyph glyph-name="scaron" unicode="&#x161;" horiz-adv-x="505" 
d="M204 310h175l80 -85l-25 -140l-109 -85h-330l20 115h265l28 20l7 40l-21 20h-175l-80 85l24 135l110 85h305l-21 -115h-240l-28 -20l-6 -35zM362 580h-110l-77 160h115l32 -75l58 75h115z" />
    <glyph glyph-name="Tcommaaccent" unicode="&#x162;" horiz-adv-x="600" 
d="M320 0h-140l102 580h-210l21 120h560l-21 -120h-210zM138 -295l59 80h-49l22 135h130l-23 -135l-96 -115z" />
    <glyph glyph-name="tcommaaccent" unicode="&#x163;" horiz-adv-x="395" 
d="M37 385l21 115h70l23 130h135l-23 -130h125l-21 -115h-125l-40 -230l38 -40h100l-20 -115h-165l-97 105l49 280h-70zM63 -295l59 80h-49l22 135h130l-23 -135l-96 -115z" />
    <glyph glyph-name="Tcaron" unicode="&#x164;" horiz-adv-x="600" 
d="M320 0h-140l102 580h-210l21 120h560l-21 -120h-210zM442 780h-110l-80 140h115l34 -60l56 60h115z" />
    <glyph glyph-name="tcaron" unicode="&#x165;" horiz-adv-x="490" 
d="M37 385l21 115h70l23 130h135l-23 -130h125l-21 -115h-125l-40 -230l38 -40h100l-20 -115h-165l-97 105l49 280h-70zM420 490l59 80h-50l24 135h130l-24 -135l-95 -115z" />
    <glyph glyph-name="Umacron" unicode="&#x16a;" horiz-adv-x="745" 
d="M498 160l95 540h140l-104 -590l-151 -120h-315l-109 120l104 590h140l-95 -540l46 -50h185zM330 795l19 110h265l-19 -110h-265z" />
    <glyph glyph-name="umacron" unicode="&#x16b;" 
d="M350 0l-3 45l-57 -45h-165l-89 95l72 405h135l-63 -355l30 -30h105l40 30l63 355h135l-88 -500h-115zM216 605l20 110h265l-20 -110h-265z" />
    <glyph glyph-name="Uring" unicode="&#x16e;" horiz-adv-x="745" 
d="M498 160l95 540h140l-104 -590l-151 -120h-315l-109 120l104 590h140l-95 -540l46 -50h185zM427 825l13 -10h50l17 10l9 50l-13 10h-50l-17 -10zM338 800l17 100l69 50h130l51 -50l-17 -100l-69 -50h-130z" />
    <glyph glyph-name="uring" unicode="&#x16f;" 
d="M350 0l-3 45l-57 -45h-165l-89 95l72 405h135l-63 -355l30 -30h105l40 30l63 355h135l-88 -500h-115zM317 655l21 -20h30l29 20l10 55l-22 20h-30l-28 -20zM228 630l18 105l81 60h110l59 -60l-18 -105l-81 -60h-110z" />
    <glyph glyph-name="Uhungarumlaut" unicode="&#x170;" horiz-adv-x="745" 
d="M498 160l95 540h140l-104 -590l-151 -120h-315l-109 120l104 590h140l-95 -540l46 -50h185zM409 920h135l-125 -140h-100zM589 920h135l-125 -140h-100z" />
    <glyph glyph-name="uhungarumlaut" unicode="&#x171;" 
d="M350 0l-3 45l-57 -45h-165l-89 95l72 405h135l-63 -355l30 -30h105l40 30l63 355h135l-88 -500h-115zM297 740h135l-128 -160h-100zM477 740h135l-128 -160h-100z" />
    <glyph glyph-name="Uogonek" unicode="&#x172;" horiz-adv-x="745" 
d="M313 -95l-7 -40l17 -15h70l-13 -75h-105l-60 60l17 95l81 60h-150l-109 120l104 590h140l-95 -540l46 -50h185l64 50l95 540h140l-104 -590l-151 -120h-60z" />
    <glyph glyph-name="uogonek" unicode="&#x173;" 
d="M355 0l-8 45l-57 -45h-165l-89 95l72 405h135l-63 -355l30 -30h105l40 30l63 355h135l-88 -500l-117 -95l-7 -40l17 -15h70l-13 -75h-105l-60 60l17 95z" />
    <glyph glyph-name="Ydieresis" unicode="&#x178;" horiz-adv-x="630" 
d="M335 0h-140l40 230l-172 470h150l114 -320h10l226 320h150l-338 -470zM368 795h-120l19 110h120zM563 795h-120l19 110h120z" />
    <glyph glyph-name="Zacute" unicode="&#x179;" horiz-adv-x="615" 
d="M530 0h-545l19 110l442 465l1 5h-345l21 120h520l-19 -110l-442 -465l-1 -5h370zM444 920h140l-135 -140h-100z" />
    <glyph glyph-name="zacute" unicode="&#x17a;" horiz-adv-x="475" 
d="M454 395l-278 -275l-1 -5h240l-20 -115h-415l18 105l279 275v5h-220l21 115h395zM335 740h140l-138 -160h-100z" />
    <glyph glyph-name="Zdotaccent" unicode="&#x17b;" horiz-adv-x="615" 
d="M530 0h-545l19 110l442 465l1 5h-345l21 120h520l-19 -110l-442 -465l-1 -5h370zM466 795h-135l19 110h135z" />
    <glyph glyph-name="zdotaccent" unicode="&#x17c;" horiz-adv-x="475" 
d="M454 395l-278 -275l-1 -5h240l-20 -115h-415l18 105l279 275v5h-220l21 115h395zM359 595h-135l23 130h135z" />
    <glyph glyph-name="Zcaron" unicode="&#x17d;" horiz-adv-x="615" 
d="M530 0h-545l19 110l442 465l1 5h-345l21 120h520l-19 -110l-442 -465l-1 -5h370zM450 780h-110l-80 140h115l34 -60l56 60h115z" />
    <glyph glyph-name="zcaron" unicode="&#x17e;" horiz-adv-x="475" 
d="M454 395l-278 -275l-1 -5h240l-20 -115h-415l18 105l279 275v5h-220l21 115h395zM344 580h-110l-77 160h115l32 -75l58 75h115z" />
    <glyph glyph-name="florin" unicode="&#x192;" horiz-adv-x="395" 
d="M53 360l20 115h70l21 120l134 105h200l-20 -115h-135l-52 -40l-13 -70h125l-20 -115h-125l-80 -455l-134 -105h-164l21 115h99l52 40l71 405h-70z" />
    <glyph glyph-name="Scommaaccent" unicode="&#x218;" horiz-adv-x="665" 
d="M172 295l-101 110l33 185l139 110h410l-21 -120h-345l-52 -40l-15 -85l38 -40h260l100 -110l-34 -195l-139 -110h-435l21 120h370l52 40l16 95l-37 40h-260zM168 -295l59 80h-49l22 135h130l-23 -135l-96 -115z" />
    <glyph glyph-name="scommaaccent" unicode="&#x219;" horiz-adv-x="505" 
d="M204 310h175l80 -85l-25 -140l-109 -85h-330l20 115h265l28 20l7 40l-21 20h-175l-80 85l24 135l110 85h305l-21 -115h-240l-28 -20l-6 -35zM93 -295l59 80h-49l22 135h130l-23 -135l-96 -115z" />
    <glyph glyph-name="afii57929" unicode="&#x2bc;" horiz-adv-x="190" 
d="M90 600l59 80h-50l24 135h130l-24 -135l-95 -115z" />
    <glyph glyph-name="circumflex" unicode="&#x2c6;" horiz-adv-x="380" 
d="M215 740h110l77 -160h-115l-32 75l-58 -75h-115z" />
    <glyph glyph-name="caron" unicode="&#x2c7;" horiz-adv-x="380" 
d="M297 580h-110l-77 160h115l32 -75l58 75h115z" />
    <glyph glyph-name="breve" unicode="&#x2d8;" horiz-adv-x="365" 
d="M312 580h-155l-64 65l17 95h105l-10 -55l18 -15h55l22 15l10 55h105l-17 -95z" />
    <glyph glyph-name="dotaccent" unicode="&#x2d9;" horiz-adv-x="195" 
d="M219 595h-135l23 130h135z" />
    <glyph glyph-name="ring" unicode="&#x2da;" horiz-adv-x="310" 
d="M180 655l21 -20h30l29 20l10 55l-22 20h-30l-28 -20zM91 630l18 105l81 60h110l59 -60l-18 -105l-81 -60h-110z" />
    <glyph glyph-name="ogonek" unicode="&#x2db;" horiz-adv-x="255" 
d="M48 -95l-7 -40l17 -15h70l-13 -75h-105l-60 60l17 95l93 70h105z" />
    <glyph glyph-name="tilde" unicode="&#x2dc;" horiz-adv-x="380" 
d="M204 620l-71 -35l-35 85l127 70l83 -40l71 35l35 -85l-127 -70z" />
    <glyph glyph-name="hungarumlaut" unicode="&#x2dd;" horiz-adv-x="440" 
d="M175 740h135l-128 -160h-100zM355 740h135l-128 -160h-100z" />
    <glyph glyph-name="afii10023" unicode="&#x401;" horiz-adv-x="650" 
d="M158 700h520l-21 -120h-380l-30 -170h290l-21 -120h-290l-30 -170h390l-21 -120h-530zM395 795h-120l19 110h120zM590 795h-120l19 110h120z" />
    <glyph glyph-name="afii10051" unicode="&#x402;" horiz-adv-x="700" 
d="M245 0h-140l102 580h-145l21 120h445l-21 -120h-160l-23 -130h250l88 -95l-51 -290l-110 -85h-145l21 120h80l23 15l33 190l-25 25h-185z" />
    <glyph glyph-name="afii10052" unicode="&#x403;" 
d="M158 700h490l-21 -120h-350l-102 -580h-140zM462 920h140l-135 -140h-100z" />
    <glyph glyph-name="afii10053" unicode="&#x404;" horiz-adv-x="645" 
d="M512 410l-21 -120h-280l-22 -120l47 -50h335l-21 -120h-400l-109 120l81 460l151 120h400l-21 -120h-335l-64 -50l-21 -120h280z" />
    <glyph glyph-name="afii10054" unicode="&#x405;" horiz-adv-x="665" 
d="M172 295l-101 110l33 185l139 110h410l-21 -120h-345l-52 -40l-15 -85l38 -40h260l100 -110l-34 -195l-139 -110h-435l21 120h370l52 40l16 95l-37 40h-260z" />
    <glyph glyph-name="afii10055" unicode="&#x406;" horiz-adv-x="470" 
d="M375 0h-380l21 120h120l81 460h-120l21 120h380l-21 -120h-120l-81 -460h120z" />
    <glyph glyph-name="afii10056" unicode="&#x407;" horiz-adv-x="470" 
d="M375 0h-380l21 120h120l81 460h-120l21 120h380l-21 -120h-120l-81 -460h120zM285 795h-120l19 110h120zM480 795h-120l19 110h120z" />
    <glyph glyph-name="afii10057" unicode="&#x408;" horiz-adv-x="545" 
d="M299 170l94 530h140l-102 -580l-151 -120h-310l21 120h245z" />
    <glyph glyph-name="afii10058" unicode="&#x409;" horiz-adv-x="1040" 
d="M103 160l135 540h445l-42 -240h265l100 -110l-42 -240l-139 -110h-405l102 580h-170l-118 -470l-151 -120h-125l21 120h60zM781 120l52 40l24 140l-38 40h-200l-38 -220h200z" />
    <glyph glyph-name="afii10059" unicode="&#x40a;" horiz-adv-x="1035" 
d="M229 310l-54 -310h-140l123 700h140l-48 -270h240l48 270h140l-48 -270h265l101 -110l-37 -210l-139 -110h-405l54 310h-240zM776 120l52 40l19 110l-38 40h-200l-33 -190h200z" />
    <glyph glyph-name="afii10060" unicode="&#x40b;" horiz-adv-x="720" 
d="M245 0h-140l102 580h-145l21 120h445l-21 -120h-160l-23 -130h250l88 -95l-62 -355h-140l53 305l-25 25h-185z" />
    <glyph glyph-name="afii10061" unicode="&#x40c;" horiz-adv-x="670" 
d="M226 290l-51 -290h-140l123 700h140l-51 -290h90l231 290h160l-275 -340l167 -360h-160l-134 290h-100zM492 920h140l-135 -140h-100z" />
    <glyph glyph-name="afii10062" unicode="&#x40e;" horiz-adv-x="660" 
d="M588 700h145l-423 -700h-145l104 170h-55l-141 530h150l106 -420h5zM508 955h110l-16 -90l-98 -75h-170l-72 75l16 90h110l-8 -45l26 -25h60l34 25z" />
    <glyph glyph-name="afii10145" unicode="&#x40f;" horiz-adv-x="735" 
d="M600 0h-215l-25 -140h-135l25 140h-215l123 700h140l-102 -580h285l102 580h140z" />
    <glyph glyph-name="afii10017" unicode="&#x410;" horiz-adv-x="700" 
d="M500 0l-38 185h-260l-102 -185h-150l383 700h180l137 -700h-150zM394 535l-126 -230h170z" />
    <glyph glyph-name="afii10018" unicode="&#x411;" horiz-adv-x="715" 
d="M490 0h-455l123 700h525l-21 -120h-385l-25 -140h315l101 -110l-39 -220zM447 120l51 40l21 120l-37 40h-251l-35 -200h251z" />
    <glyph glyph-name="afii10019" unicode="&#x412;" horiz-adv-x="725" 
d="M595 370l71 -80l-35 -195l-121 -95h-475l123 700h445l88 -95l-32 -185zM466 120l34 25l19 110l-37 40h-255l-31 -175h270zM542 555l-25 25h-240l-29 -165h225l52 40z" />
    <glyph glyph-name="afii10020" unicode="&#x413;" 
d="M158 700h490l-21 -120h-350l-102 -580h-140z" />
    <glyph glyph-name="afii10021" unicode="&#x414;" horiz-adv-x="735" 
d="M-19 120h30l99 80l123 500h465l-102 -580h80l-48 -270h-140l27 150h-415l-27 -150h-139zM244 170l-62 -50h274l81 460h-190z" />
    <glyph glyph-name="afii10022" unicode="&#x415;" horiz-adv-x="650" 
d="M158 700h520l-21 -120h-380l-30 -170h290l-21 -120h-290l-30 -170h390l-21 -120h-530z" />
    <glyph glyph-name="afii10024" unicode="&#x416;" horiz-adv-x="1000" 
d="M571 290l-51 -290h-140l51 290h-85l-236 -290h-160l293 360l-155 340h160l129 -290h75l51 290h140l-51 -290h75l231 290h160l-275 -340l167 -360h-160l-134 290h-85z" />
    <glyph glyph-name="afii10025" unicode="&#x417;" horiz-adv-x="635" 
d="M392 300h-230l22 120h225l52 40l16 95l-25 25h-360l21 120h425l88 -95l-32 -185l-70 -55l-1 -5l54 -60l-36 -205l-121 -95h-440l21 120h375l34 25l20 115z" />
    <glyph glyph-name="afii10026" unicode="&#x418;" horiz-adv-x="745" 
d="M610 0h-140l78 445h-5l-378 -445h-130l123 700h140l-79 -445h5l379 445h130z" />
    <glyph glyph-name="afii10027" unicode="&#x419;" horiz-adv-x="745" 
d="M610 0h-140l78 445h-5l-378 -445h-130l123 700h140l-79 -445h5l379 445h130zM548 955h110l-16 -90l-98 -75h-170l-72 75l16 90h110l-8 -45l26 -25h60l34 25z" />
    <glyph glyph-name="afii10028" unicode="&#x41a;" horiz-adv-x="670" 
d="M226 290l-51 -290h-140l123 700h140l-51 -290h90l231 290h160l-275 -340l167 -360h-160l-134 290h-100z" />
    <glyph glyph-name="afii10029" unicode="&#x41b;" horiz-adv-x="725" 
d="M103 160l135 540h475l-123 -700h-140l102 580h-200l-118 -470l-151 -120h-125l21 120h60z" />
    <glyph glyph-name="afii10030" unicode="&#x41c;" horiz-adv-x="875" 
d="M463 160h-95l-113 270h-5l-75 -430h-140l123 700h140l147 -355h5l273 355h140l-123 -700h-140l75 430h-5z" />
    <glyph glyph-name="afii10031" unicode="&#x41d;" horiz-adv-x="740" 
d="M226 290l-51 -290h-140l123 700h140l-51 -290h290l51 290h140l-123 -700h-140l51 290h-290z" />
    <glyph glyph-name="afii10032" unicode="&#x41e;" horiz-adv-x="740" 
d="M319 590l-64 -50l-67 -380l46 -50h210l64 50l67 380l-46 50h-210zM275 710h340l109 -120l-85 -480l-151 -120h-340l-109 120l85 480z" />
    <glyph glyph-name="afii10033" unicode="&#x41f;" horiz-adv-x="740" 
d="M158 700h570l-123 -700h-140l102 580h-290l-102 -580h-140z" />
    <glyph glyph-name="afii10034" unicode="&#x420;" horiz-adv-x="695" 
d="M517 210h-305l-37 -210h-140l123 700h445l101 -110l-48 -270zM555 540l-38 40h-240l-44 -250h240l52 40z" />
    <glyph glyph-name="afii10035" unicode="&#x421;" horiz-adv-x="645" 
d="M571 120l-21 -120h-400l-109 120l81 460l151 120h400l-21 -120h-335l-64 -50l-64 -360l47 -50h335z" />
    <glyph glyph-name="afii10036" unicode="&#x422;" horiz-adv-x="600" 
d="M320 0h-140l102 580h-210l21 120h560l-21 -120h-210z" />
    <glyph glyph-name="afii10037" unicode="&#x423;" horiz-adv-x="660" 
d="M588 700h145l-423 -700h-145l104 170h-55l-141 530h150l106 -420h5z" />
    <glyph glyph-name="afii10038" unicode="&#x424;" horiz-adv-x="910" 
d="M725 540h-155l-64 -360h155l35 25l54 310zM451 660l16 90h140l-16 -90h220l88 -95l-72 -410l-122 -95h-220l-16 -90h-140l16 90h-220l-88 95l72 410l122 95h220zM430 540h-155l-35 -25l-54 -310l25 -25h155z" />
    <glyph glyph-name="afii10039" unicode="&#x425;" horiz-adv-x="655" 
d="M361 460l197 240h155l-280 -340l172 -360h-155l-125 260h-5l-215 -260h-155l298 360l-160 340h155l113 -240h5z" />
    <glyph glyph-name="afii10040" unicode="&#x426;" horiz-adv-x="745" 
d="M708 700l-102 -580h80l-48 -270h-140l27 150h-490l123 700h140l-102 -580h270l102 580h140z" />
    <glyph glyph-name="afii10041" unicode="&#x427;" horiz-adv-x="700" 
d="M74 335l64 365h140l-56 -315l34 -35h230l62 350h140l-123 -700h-140l40 230h-295z" />
    <glyph glyph-name="afii10042" unicode="&#x428;" horiz-adv-x="1010" 
d="M858 700h140l-123 -700h-840l123 700h140l-102 -580h210l102 580h140l-102 -580h210z" />
    <glyph glyph-name="afii10043" unicode="&#x429;" horiz-adv-x="1035" 
d="M998 700l-102 -580h80l-48 -270h-140l27 150h-780l123 700h140l-102 -580h210l102 580h140l-102 -580h210l102 580h140z" />
    <glyph glyph-name="afii10044" unicode="&#x42a;" horiz-adv-x="740" 
d="M62 580l21 120h280l-42 -240h285l100 -110l-42 -240l-139 -110h-425l102 580h-140zM481 120l52 40l24 140l-38 40h-220l-38 -220h220z" />
    <glyph glyph-name="afii10045" unicode="&#x42b;" horiz-adv-x="950" 
d="M938 700l-123 -700h-140l123 700h140zM158 700h140l-42 -240h285l100 -110l-42 -240l-139 -110h-425zM416 120l52 40l24 140l-38 40h-220l-38 -220h220z" />
    <glyph glyph-name="afii10046" unicode="&#x42c;" horiz-adv-x="685" 
d="M426 120l52 40l24 140l-38 40h-230l-38 -220h230zM256 460h295l100 -110l-42 -240l-139 -110h-435l123 700h140z" />
    <glyph glyph-name="afii10047" unicode="&#x42d;" horiz-adv-x="635" 
d="M146 290l21 120h280l21 120l-46 50h-335l21 120h400l109 -120l-81 -460l-151 -120h-400l21 120h335l63 50l22 120h-280z" />
    <glyph glyph-name="afii10048" unicode="&#x42e;" horiz-adv-x="975" 
d="M226 290l-51 -290h-140l123 700h140l-51 -290h125l32 180l151 120h295l109 -120l-85 -480l-151 -120h-295l-109 120l32 180h-125zM599 590l-64 -50l-67 -380l46 -50h165l64 50l67 380l-46 50h-165z" />
    <glyph glyph-name="afii10049" unicode="&#x42f;" horiz-adv-x="710" 
d="M177 240l-93 100l45 250l139 110h430l-123 -700h-140l40 230h-150l-185 -230h-165zM312 580l-52 -40l-27 -150l38 -40h225l41 230h-225z" />
    <glyph glyph-name="afii10065" unicode="&#x430;" horiz-adv-x="545" 
d="M312 45l-57 -45h-175l-81 85l25 140l110 85h215l9 50l-26 25h-220l21 115h285l84 -90l-72 -410h-115zM320 145l9 50h-150l-29 -20l-7 -40l22 -20h115z" />
    <glyph glyph-name="afii10066" unicode="&#x431;" horiz-adv-x="590" 
d="M129 595l134 105h310l-20 -115h-245l-52 -40l-17 -95h210l96 -105l-44 -250l-133 -105h-230l-97 105zM402 295l-38 40h-145l-34 -190l38 -40h100l52 40z" />
    <glyph glyph-name="afii10067" unicode="&#x432;" horiz-adv-x="550" 
d="M440 260l55 -60l-21 -115l-109 -85h-345l88 500h325l76 -80l-22 -120l-46 -35zM190 200l-15 -85h145l28 20l8 45l-21 20h-145zM222 385l-14 -80h125l23 15l9 50l-18 15h-125z" />
    <glyph glyph-name="afii10068" unicode="&#x433;" horiz-adv-x="445" 
d="M155 0h-135l88 500h365l-21 -115h-230z" />
    <glyph glyph-name="afii10069" unicode="&#x434;" 
d="M81 180l77 320h375l-68 -385h65l-43 -245h-135l23 130h-290l-23 -130h-134l42 245h31zM207 155l-52 -40h175l47 270h-115z" />
    <glyph glyph-name="afii10070" unicode="&#x435;" horiz-adv-x="540" 
d="M209 510h205l97 -105l-37 -210h-300l-7 -40l38 -40h215l-20 -115h-280l-97 105l53 300zM202 355l-10 -60h165l10 60l-38 40h-75z" />
    <glyph glyph-name="afii10072" unicode="&#x436;" horiz-adv-x="765" 
d="M100 0h-150l210 260l-107 240h150l82 -185h35l33 185h135l-33 -185h35l148 185h150l-193 -240l120 -260h-150l-90 200h-40l-35 -200h-135l35 200h-40z" />
    <glyph glyph-name="afii10073" unicode="&#x437;" horiz-adv-x="490" 
d="M114 195l19 110h155l23 15l9 50l-18 15h-240l21 115h305l76 -80l-22 -120l-63 -45l51 -55l-21 -115l-109 -85h-320l20 115h255l28 20l8 45l-17 15h-160z" />
    <glyph glyph-name="afii10074" unicode="&#x438;" 
d="M152 0h-132l88 500h135l-49 -275h5l218 275h136l-88 -500h-135l48 275h-5l-222 -276z" />
    <glyph glyph-name="afii10075" unicode="&#x439;" 
d="M152 0h-132l88 500h135l-49 -275h5l218 275h136l-88 -500h-135l48 275h-5l-222 -276zM424 590h-155l-64 65l17 95h105l-10 -55l17 -15h55l23 15l10 55h105l-17 -95z" />
    <glyph glyph-name="afii10076" unicode="&#x43a;" horiz-adv-x="545" 
d="M495 0h-150l-90 200h-65l-35 -200h-135l88 500h135l-33 -185h60l148 185h150l-193 -240z" />
    <glyph glyph-name="afii10077" unicode="&#x43b;" horiz-adv-x="575" 
d="M75 145l88 355h380l-88 -500h-135l67 385h-115l-71 -290l-133 -105h-110l20 115h45z" />
    <glyph glyph-name="afii10078" unicode="&#x43c;" horiz-adv-x="685" 
d="M355 115h-85l-65 145h-5l-45 -260h-135l88 500h135l96 -220h5l174 220h135l-88 -500h-135l45 260h-5z" />
    <glyph glyph-name="afii10079" unicode="&#x43d;" horiz-adv-x="575" 
d="M155 0h-135l88 500h135l-36 -200h165l36 200h135l-88 -500h-135l32 185h-165z" />
    <glyph glyph-name="afii10080" unicode="&#x43e;" horiz-adv-x="570" 
d="M76 405l133 105h230l97 -105l-55 -310l-133 -105h-230l-97 105zM392 355l-38 40h-100l-52 -40l-37 -210l38 -40h100l52 40z" />
    <glyph glyph-name="afii10081" unicode="&#x43f;" horiz-adv-x="575" 
d="M155 0h-135l88 500h435l-88 -500h-135l67 385h-165z" />
    <glyph glyph-name="afii10082" unicode="&#x440;" horiz-adv-x="575" 
d="M283 500h160l96 -105l-51 -290l-133 -105h-200l-36 -200h-135l124 700h115l2 -45zM395 345l-38 40h-100l-40 -30l-42 -240h135l52 40z" />
    <glyph glyph-name="afii10083" unicode="&#x441;" horiz-adv-x="485" 
d="M167 155l38 -40h215l-20 -115h-280l-97 105l51 290l134 105h280l-21 -115h-215l-52 -40z" />
    <glyph glyph-name="afii10084" unicode="&#x442;" horiz-adv-x="465" 
d="M250 0h-135l67 385h-150l21 115h435l-21 -115h-150z" />
    <glyph glyph-name="afii10085" unicode="&#x443;" horiz-adv-x="500" 
d="M44 -200l101 200h-30l-77 500h140l44 -345h5l171 345h140l-354 -700h-140z" />
    <glyph glyph-name="afii10086" unicode="&#x444;" horiz-adv-x="725" 
d="M344 -200h-135l36 200h-125l-97 105l51 290l134 105h125l35 200h135l-35 -200h125l96 -105l-51 -290l-133 -105h-125zM545 345l-38 40h-60l-47 -270h60l52 40zM167 155l38 -40h60l47 270h-60l-52 -40z" />
    <glyph glyph-name="afii10087" unicode="&#x445;" horiz-adv-x="495" 
d="M228 160h-5l-128 -160h-145l210 260l-107 240h145l60 -140h5l110 140h145l-193 -240l120 -260h-145z" />
    <glyph glyph-name="afii10088" unicode="&#x446;" horiz-adv-x="590" 
d="M380 0h-360l88 500h135l-68 -385h160l68 385h135l-68 -385h65l-43 -245h-135z" />
    <glyph glyph-name="afii10089" unicode="&#x447;" horiz-adv-x="550" 
d="M295 0l26 150h-185l-88 95l45 255h135l-36 -205l29 -30h120l42 235h135l-88 -500h-135z" />
    <glyph glyph-name="afii10090" unicode="&#x448;" horiz-adv-x="795" 
d="M368 500h135l-68 -385h125l68 385h135l-88 -500h-655l88 500h135l-68 -385h125z" />
    <glyph glyph-name="afii10091" unicode="&#x449;" horiz-adv-x="815" 
d="M605 0h-585l88 500h135l-68 -385h125l68 385h135l-68 -385h125l68 385h135l-68 -385h65l-43 -245h-135z" />
    <glyph glyph-name="afii10092" unicode="&#x44a;" horiz-adv-x="570" 
d="M390 0h-320l67 385h-110l21 115h245l-28 -155h185l80 -85l-31 -175zM245 230l-20 -115h120l28 20l14 75l-22 20h-120z" />
    <glyph glyph-name="afii10093" unicode="&#x44b;" horiz-adv-x="755" 
d="M635 0h-135l88 500h135zM340 0h-320l88 500h135l-28 -155h185l80 -85l-31 -175zM195 230l-20 -115h120l28 20l14 75l-22 20h-120z" />
    <glyph glyph-name="afii10094" unicode="&#x44c;" horiz-adv-x="530" 
d="M350 0h-330l88 500h135l-28 -155h195l80 -85l-31 -175zM195 230l-20 -115h130l28 20l14 75l-22 20h-130z" />
    <glyph glyph-name="afii10095" unicode="&#x44d;" horiz-adv-x="485" 
d="M220 115l52 40l8 45h-180l18 105h180l7 40l-38 40h-215l21 115h280l96 -105l-51 -290l-133 -105h-280l20 115h215z" />
    <glyph glyph-name="afii10096" unicode="&#x44e;" horiz-adv-x="765" 
d="M155 0h-135l88 500h135l-36 -200h75l19 105l132 105h201l97 -105l-55 -310l-133 -105h-201l-96 105l16 90h-75zM587 355l-38 40h-70l-52 -40l-37 -210l38 -40h70l52 40z" />
    <glyph glyph-name="afii10097" unicode="&#x44f;" horiz-adv-x="545" 
d="M114 170l-71 75l30 170l110 85h330l-88 -500h-135l28 160h-70l-133 -160h-145zM338 275l19 110h-130l-28 -20l-12 -70l21 -20h130z" />
    <glyph glyph-name="afii10071" unicode="&#x451;" horiz-adv-x="540" 
d="M209 510h205l97 -105l-37 -210h-300l-7 -40l38 -40h215l-20 -115h-280l-97 105l53 300zM202 355l-10 -60h165l10 60l-38 40h-75zM289 595h-120l22 125h120zM484 595h-120l22 125h120z" />
    <glyph glyph-name="afii10099" unicode="&#x452;" horiz-adv-x="595" 
d="M504 85l-133 -105h-120l20 115h55l52 40l27 150l-30 30h-140l-55 -315h-135l90 515h-70l21 115h70l12 70h135l-12 -70h110l-21 -115h-110l-15 -85h205l89 -95z" />
    <glyph glyph-name="afii10100" unicode="&#x453;" horiz-adv-x="445" 
d="M155 0h-135l88 500h365l-21 -115h-230zM350 740h140l-138 -160h-100z" />
    <glyph glyph-name="afii10101" unicode="&#x454;" horiz-adv-x="485" 
d="M167 155l38 -40h215l-20 -115h-280l-97 105l51 290l134 105h280l-21 -115h-215l-52 -40l-7 -40h180l-18 -105h-180z" />
    <glyph glyph-name="afii10102" unicode="&#x455;" horiz-adv-x="505" 
d="M204 310h175l80 -85l-25 -140l-109 -85h-330l20 115h265l28 20l7 40l-21 20h-175l-80 85l24 135l110 85h305l-21 -115h-240l-28 -20l-6 -35z" />
    <glyph glyph-name="afii10103" unicode="&#x456;" horiz-adv-x="275" 
d="M108 500h135l-88 -500h-135zM259 595h-135l23 130h135z" />
    <glyph glyph-name="afii10104" unicode="&#x457;" horiz-adv-x="275" 
d="M108 500h135l-88 -500h-135zM154 595h-120l22 125h120zM349 595h-120l22 125h120z" />
    <glyph glyph-name="afii10105" unicode="&#x458;" horiz-adv-x="275" 
d="M-40 -85l52 40l96 545h135l-105 -595l-134 -105h-164l21 115h99zM259 595h-135l23 130h135z" />
    <glyph glyph-name="afii10106" unicode="&#x459;" horiz-adv-x="810" 
d="M630 0h-320l67 385h-105l-71 -290l-133 -105h-110l20 115h45l52 40l88 355h370l-28 -155h185l80 -85l-31 -175zM485 230l-20 -115h120l28 20l14 75l-22 20h-120z" />
    <glyph glyph-name="afii10107" unicode="&#x45a;" horiz-adv-x="810" 
d="M155 0h-135l88 500h135l-31 -175h155l31 175h135l-31 -175h185l80 -85l-28 -155l-109 -85h-320l37 210h-155zM482 210l-17 -95h120l28 20l10 55l-21 20h-120z" />
    <glyph glyph-name="afii10108" unicode="&#x45b;" horiz-adv-x="600" 
d="M490 0h-135l50 285l-30 30h-140l-55 -315h-135l90 515h-70l21 115h70l12 70h135l-12 -70h110l-21 -115h-110l-15 -85h205l89 -95z" />
    <glyph glyph-name="afii10109" unicode="&#x45c;" horiz-adv-x="545" 
d="M495 0h-150l-90 200h-65l-35 -200h-135l88 500h135l-33 -185h60l148 185h150l-193 -240zM390 740h140l-138 -160h-100z" />
    <glyph glyph-name="afii10110" unicode="&#x45e;" horiz-adv-x="500" 
d="M379 590h-155l-64 65l17 95h105l-10 -55l17 -15h55l23 15l10 55h105l-17 -95zM44 -200l101 200h-30l-77 500h140l44 -345h5l171 345h140l-354 -700h-140z" />
    <glyph glyph-name="afii10193" unicode="&#x45f;" horiz-adv-x="575" 
d="M170 0h-150l88 500h135l-68 -385h165l68 385h135l-88 -500h-150l-23 -130h-135z" />
    <glyph glyph-name="afii10050" unicode="&#x490;" horiz-adv-x="590" 
d="M158 700h360l18 100h125l-39 -220h-345l-102 -580h-140z" />
    <glyph glyph-name="afii10098" unicode="&#x491;" horiz-adv-x="440" 
d="M155 0h-135l88 500h245l16 90h115l-37 -205h-225z" />
    <glyph glyph-name="uni1E9E" unicode="&#x1e9e;" horiz-adv-x="715" 
d="M336 350l21 120l111 115l1 5h-140l-64 -50l-95 -540h-140l104 590l151 120h380l-20 -110l-122 -125l-1 -5h50l101 -110l-44 -250l-139 -110h-260l21 120h195l52 40l26 150l-38 40h-150z" />
    <glyph glyph-name="endash" unicode="&#x2013;" horiz-adv-x="535" 
d="M31 290l21 120h475l-21 -120h-475z" />
    <glyph glyph-name="emdash" unicode="&#x2014;" horiz-adv-x="720" 
d="M31 290l21 120h660l-21 -120h-660z" />
    <glyph glyph-name="quoteleft" unicode="&#x2018;" horiz-adv-x="240" 
d="M247 665l-59 -80h50l-24 -135h-130l24 135l95 115z" />
    <glyph glyph-name="quoteright" unicode="&#x2019;" horiz-adv-x="240" 
d="M95 485l59 80h-50l24 135h130l-24 -135l-95 -115z" />
    <glyph glyph-name="quotesinglbase" unicode="&#x201a;" horiz-adv-x="240" 
d="M-5 -80l60 80h-50l23 135h130l-23 -135l-96 -115z" />
    <glyph glyph-name="quotedblleft" unicode="&#x201c;" horiz-adv-x="425" 
d="M247 665l-59 -80h50l-24 -135h-130l24 135l95 115zM432 665l-59 -80h50l-24 -135h-130l24 135l95 115z" />
    <glyph glyph-name="quotedblright" unicode="&#x201d;" horiz-adv-x="425" 
d="M95 485l59 80h-50l24 135h130l-24 -135l-95 -115zM280 485l59 80h-50l24 135h130l-24 -135l-95 -115z" />
    <glyph glyph-name="quotedblbase" unicode="&#x201e;" horiz-adv-x="425" 
d="M-5 -80l60 80h-50l23 135h130l-23 -135l-96 -115zM180 -80l60 80h-50l23 135h130l-23 -135l-96 -115z" />
    <glyph glyph-name="dagger" unicode="&#x2020;" horiz-adv-x="570" 
d="M75 430l21 120h165l36 200h140l-36 -200h165l-21 -120h-165l-84 -480h-140l84 480h-165z" />
    <glyph glyph-name="daggerdbl" unicode="&#x2021;" horiz-adv-x="590" 
d="M501 120h-165l-30 -170h-140l30 170h-165l21 120h165l39 220h-165l21 120h165l30 170h140l-30 -170h165l-21 -120h-165l-39 -220h165z" />
    <glyph glyph-name="bullet" unicode="&#x2022;" horiz-adv-x="345" 
d="M250 260h-165l32 180h165z" />
    <glyph glyph-name="ellipsis" unicode="&#x2026;" horiz-adv-x="710" 
d="M135 0h-130l23 135h130zM370 0h-130l23 135h130zM605 0h-130l23 135h130z" />
    <glyph glyph-name="perthousand" unicode="&#x2030;" horiz-adv-x="1165" 
d="M172 470l26 -25h30l34 25l23 130l-25 25h-30l-35 -25zM61 435l35 200l99 75h130l71 -75l-35 -200l-98 -75h-130zM728 700l-513 -700h-105l513 700h105zM665 230l-26 25h-30l-34 -25l-23 -130l26 -25h30l34 25zM776 265l-35 -200l-98 -75h-130l-72 75l35 200l98 75h130z
M1015 230l-26 25h-30l-34 -25l-23 -130l26 -25h30l34 25zM1126 265l-35 -200l-98 -75h-130l-72 75l35 200l98 75h130z" />
    <glyph glyph-name="guilsinglleft" unicode="&#x2039;" horiz-adv-x="400" 
d="M29 255l282 265l70 -85l-192 -180l129 -180l-100 -85z" />
    <glyph glyph-name="guilsinglright" unicode="&#x203a;" horiz-adv-x="400" 
d="M171 520l188 -265l-281 -265l-70 85l191 180l-128 180z" />
    <glyph glyph-name="fraction" unicode="&#x2044;" horiz-adv-x="495" 
d="M568 700l-513 -700h-105l513 700h105z" />
    <glyph glyph-name="foursuperior" unicode="&#x2074;" horiz-adv-x="360" 
d="M210 370l12 70h-175l12 65l189 195h125l-33 -185h40l-13 -75h-40l-12 -70h-105zM235 515l17 95h-5l-86 -90l-1 -5h75z" />
    <glyph glyph-name="Euro" unicode="&#x20ac;" horiz-adv-x="690" 
d="M57 380l18 105h75l17 95l151 120h400l-21 -120h-335l-64 -50l-8 -45h245l-18 -105h-245l-11 -60h245l-19 -105h-245l-8 -45l47 -50h335l-21 -120h-400l-109 120l16 95h-75l19 105h75l11 60h-75z" />
    <glyph glyph-name="uni20B4" unicode="&#x20b4;" horiz-adv-x="645" 
d="M617 380h-555l15 90h315l41 30l7 40l-38 40h-210l21 120h275l101 -110l-18 -100l-24 -20h85zM51 320h555l-16 -90h-315l-40 -30l-7 -40l38 -40h235l-21 -120h-300l-101 110l18 100l23 20h-85z" />
    <glyph glyph-name="uni20BD" unicode="&#x20bd;" horiz-adv-x="720" 
d="M224 110l-19 -110h-140l19 110h-75l18 100h75l12 70h-75l19 110h75l55 310h430l101 -110l-36 -200l-139 -110h-290l-12 -70h300l-18 -100h-300zM570 540l-38 40h-225l-34 -190h225l52 40z" />
    <glyph glyph-name="afii61352" unicode="&#x2116;" horiz-adv-x="1065" 
d="M714 170l18 100h260l-18 -100h-260zM851 465l26 -25h30l34 25l24 135l-25 25h-30l-35 -25zM740 430l36 205l99 75h130l71 -75l-36 -205l-98 -75h-130zM490 260l78 440h140l-123 -700h-135l-193 440h-5l-77 -440h-140l123 700h135l192 -440h5z" />
    <glyph glyph-name="trademark" unicode="&#x2122;" horiz-adv-x="905" 
d="M254 310h-120l51 290h-110l18 100h340l-18 -100h-110zM673 390h-65l-46 105h-5l-33 -185h-120l69 390h115l75 -170h5l135 170h115l-69 -390h-120l33 185h-5z" />
    <glyph glyph-name="minus" unicode="&#x2212;" horiz-adv-x="540" 
d="M51 290l21 120h440l-21 -120h-440z" />
    <glyph glyph-name="Breve" unicode="&#xf406;" horiz-adv-x="365" 
d="M347 780h-155l-64 65l14 75h105l-6 -35l17 -15h55l23 15l6 35h105l-14 -75z" />
    <glyph glyph-name="Circumflex" unicode="&#xf408;" horiz-adv-x="380" 
d="M247 920h110l80 -140h-115l-34 60l-56 -60h-115z" />
    <glyph glyph-name="Dotaccent" unicode="&#xf40b;" horiz-adv-x="195" 
d="M255 795h-135l19 110h135z" />
    <glyph glyph-name="Ring" unicode="&#xf40c;" horiz-adv-x="310" 
d="M210 825l13 -10h50l17 10l9 50l-13 10h-50l-17 -10zM121 800l17 100l69 50h130l51 -50l-17 -100l-69 -50h-130z" />
    <glyph glyph-name="Tilde" unicode="&#xf40d;" horiz-adv-x="380" 
d="M239 820l-81 -35l-25 85l124 50l83 -40l81 35l25 -85l-124 -50z" />
    <glyph glyph-name="commaaccent" unicode="&#xf6c3;" horiz-adv-x="190" 
d="M-67 -295l59 80h-49l22 135h130l-23 -135l-96 -115z" />
    <glyph glyph-name="Acute" unicode="&#xf6c9;" horiz-adv-x="270" 
d="M212 920h140l-135 -140h-100z" />
    <glyph glyph-name="Caron" unicode="&#xf6ca;" horiz-adv-x="380" 
d="M332 780h-110l-80 140h115l34 -60l56 60h115z" />
    <glyph glyph-name="Dieresis" unicode="&#xf6cb;" horiz-adv-x="375" 
d="M240 795h-120l19 110h120zM435 795h-120l19 110h120z" />
    <glyph glyph-name="Grave" unicode="&#xf6ce;" horiz-adv-x="270" 
d="M142 920h140l45 -140h-100z" />
    <glyph glyph-name="Hungarumlaut" unicode="&#xf6cf;" horiz-adv-x="440" 
d="M207 920h135l-125 -140h-100zM387 920h135l-125 -140h-100z" />
    <glyph glyph-name="Macron" unicode="&#xf6d0;" horiz-adv-x="325" 
d="M120 795l19 110h265l-19 -110h-265z" />
    <glyph glyph-name="cyrBreve" unicode="&#xf6d1;" horiz-adv-x="400" 
d="M378 955h110l-16 -90l-98 -75h-170l-72 75l16 90h110l-8 -45l26 -25h60l34 25z" />
    <glyph glyph-name="cyrbreve" unicode="&#xf6d4;" horiz-adv-x="365" 
d="M314 590h-155l-64 65l17 95h105l-10 -55l17 -15h55l23 15l10 55h105l-17 -95z" />
    <glyph glyph-name="Germandbls" horiz-adv-x="715" 
d="M336 350l21 120l111 115l1 5h-140l-64 -50l-95 -540h-140l104 590l151 120h380l-20 -110l-122 -125l-1 -5h50l101 -110l-44 -250l-139 -110h-260l21 120h195l52 40l26 150l-38 40h-150z" />
    <glyph glyph-name="foundryicon" horiz-adv-x="1230" 
d="M100 -110v920h1030v-920h-1030zM1110 -90v880h-990v-880h990zM635 610h110q36 0 58 -19t22 -46t-22 -46t-58 -19h-55v-80h-55v210zM635 300h110q36 0 58 -19t22 -46t-22 -46t-58 -19h-55v-80h-55v210zM495 170l-75 130h60l40 -75h5l40 75h65l-80 -130v-80h-55v80z
M495 480l-75 130h60l40 -75h5l40 75h65l-80 -130v-80h-55v80zM300 255h-65v45h165l25 -45h-70v-165h-55v165zM300 565h-65v45h165l25 -45h-70v-165h-55v165zM790 400v65q20 4 38 21t22 39h80v-45h-85v-35h120v-45h-175zM790 90v65q20 4 38 21t22 39h80v-45h-85v-35h120v-45
h-175zM810 300h155v-45h-115q-9 37 -40 45zM810 610h155v-45h-115q-9 37 -40 45zM765 545q0 7 -6.5 13.5t-13.5 6.5h-55v-40h55q8 0 14 6t6 14zM765 235q0 7 -6.5 13.5t-13.5 6.5h-55v-40h55q8 0 14 6t6 14z" />
    </font>
</defs>
</svg>
