<svg width="65" height="72" viewBox="0 0 65 72" xmlns="http://www.w3.org/2000/svg"><title>29111B9E-27DC-4F79-AB6B-4CDEDACDB213</title><g fill="none" fill-rule="evenodd"><path d="M23.91 62.143c0 5.444 4.68 9.857 10.454 9.857 5.774 0 10.454-4.413 10.454-9.857H23.91z" fill="#E1E6EB" fill-rule="nonzero"/><path d="M5.958 43.39c5.774-5.483 5.906-5.89 5.906-17.39 0-14.036 7.217-23 20.757-23 13.54 0 20.758 8.964 20.758 23v.07c0 4.974.36 8.01 1.83 11.447a17.458 17.458 0 0 0 4.075 5.874C64.137 48 62.81 55.57 56.838 55.57H8.404c-5.97 0-7.299-7.571-2.446-12.18z" stroke="#E1E6EB" stroke-width="5.325" stroke-linecap="round" stroke-linejoin="round"/><path stroke="#E1E6EB" stroke-width="2.663" fill="#E1E6EB" stroke-linecap="round" stroke-linejoin="round" d="M28.673 41.564l2.29-10.03h-5.725l10.306-12.257-2.29 10.03h5.726z"/></g></svg>