<svg width="22" height="23" viewBox="0 0 22 23" xmlns="http://www.w3.org/2000/svg"><title>323766E2-E21C-4164-8AA8-3DA106ACC8A0</title><g fill="#FFF" fill-rule="evenodd" opacity=".5"><path d="M6.62 21.12c-.37-.14-3.24-2.168-3.518-2.445C1.11 16.6 0 13.925 0 11.021c0-.461.046-.923.093-1.338.046-.276.092-.553.138-.876C1.204 3.69 5.741 0 10.971 0 17.037 0 21.99 4.934 21.99 10.975c0 6.086-4.907 11.02-11.017 11.02-1.528 0-2.963-.276-4.352-.876zm4.354-8.854c.716 0 1.297-.578 1.297-1.291 0-.714-.58-1.292-1.297-1.292-.715 0-1.296.578-1.296 1.292 0 .713.58 1.29 1.296 1.29zm4.954 0c.716 0 1.296-.578 1.296-1.291 0-.714-.58-1.292-1.296-1.292-.716 0-1.296.578-1.296 1.292 0 .713.58 1.29 1.296 1.29zm-9.953 0c.716 0 1.296-.578 1.296-1.291 0-.714-.58-1.292-1.296-1.292-.716 0-1.296.578-1.296 1.292 0 .713.58 1.29 1.296 1.29z" fill-rule="nonzero"/><path d="M1.172 20.312c1.331.165 2.616-.305 3.856-1.41 1.465-1.308 3.901-1.202 7.309.316-2.138 2.111-4.348 3.175-6.63 3.191-2.054.014-3.682-.592-4.883-1.818l.306-.3c.011.012.026.02.042.021z"/></g></svg>