<svg width="22" height="22" viewBox="0 0 22 22" xmlns="http://www.w3.org/2000/svg"><title>324B2D9D-96BC-4ECA-9211-42F22E0099BC</title><g transform="translate(1 1)" fill="none" fill-rule="evenodd"><path d="M15.217 2.087c1.044 1.565 1.653 3.391 1.653 5.391 0 5.392-4.348 9.652-9.74 9.652-2 0-3.826-.608-5.39-1.652 1.738 2.609 4.782 4.348 8.173 4.348 5.391 0 9.74-4.348 9.74-9.652 0-3.391-1.74-6.348-4.436-8.087" fill="#010202" fill-rule="nonzero" opacity=".3"/><path d="M.435 9.217l3.13 2.261-3.13-2.26zm2.261-5.391c-.348.348-.609.783-.87 1.217h.261l.609-1.217zm3.826 15.131l-.87-.261c.522.26 1.044.434 1.565.608l-.695-.347z"/><path d="M16.174 11.478l3.217-2.26.087 1.043V10A9.538 9.538 0 0 0 9.913.435c-1.565 0-2.956.348-4.26 1.043l1.13-.26-.696 3.478 1.652 2.26-1.304 4-2.957.522-1.391 4.087c.87 1.305 2.174 2.348 3.565 3.044l.87.26h.087l3.304-2.521 3.478 2.435-1.13.521c2.174-.521 4.087-1.826 5.391-3.565l-1.478-4.26z"/><path d="M.435 9.217v.87c0 2 .608 3.913 1.739 5.478l1.391-4.087-3.13-2.26zm5.652-4.521l.783-3.392-1.13.261c-1.131.609-2.175 1.392-2.957 2.348l-.61 1.13 3.914-.347zm3.826 11.652L6.609 18.87l.695.347c.87.261 1.74.435 2.696.435.783 0 1.565-.087 2.348-.26l1.13-.522-3.565-2.522zM6.522 18.87l3.391-2.522zm9.652-7.392l1.391 4.261c1.13-1.565 1.826-3.391 1.913-5.478l-.087-1.044-3.217 2.261z" stroke="#333" stroke-width="1.333" stroke-linecap="round" stroke-linejoin="round"/><path d="M6.435 10.87l1.304-4-1.652-2.174-4 .347h-.26A8.847 8.847 0 0 0 .434 9.304l3.13 2.261 2.87-.695z" stroke="#333" stroke-width="1.333" stroke-linecap="round" stroke-linejoin="round"/><path stroke="#333" stroke-width="1.333" stroke-linecap="round" stroke-linejoin="round" d="M2 5.043l4.087-.347L2 4.956zm4.087-.347L6.87 1.13m6.434.174L14 4.783m0 0l4.174.521M14 4.783L11.913 6.87m-2.087 6.521l.087 2.957m3.304-5.478l2.957.608m-6.348 1.913l3.391-2.521-1.304-4H7.739l-1.304 4z"/><circle stroke="#333" stroke-width="1.304" cx="9.913" cy="10.087" r="9.565"/></g></svg>