<svg width="17" height="17" viewBox="0 0 17 17" xmlns="http://www.w3.org/2000/svg"><title>4B7FBF44-7D97-45BD-B680-0D81526CDCF1</title><g transform="translate(1 1)" fill="none" fill-rule="evenodd"><circle stroke="#333" stroke-width="1.5" cx="7.5" cy="7.5" r="7.5"/><path d="M7.512 9.408c.276 0 .468-.216.516-.48l.048-.552c1.332-.228 2.424-.912 2.424-2.424v-.024c0-1.5-1.14-2.436-2.82-2.436-1.104 0-1.908.396-2.544.996a.674.674 0 0 0-.24.516c0 .36.3.66.672.66a.723.723 0 0 0 .444-.168c.48-.432.996-.66 1.632-.66.864 0 1.38.468 1.38 1.14V6c0 .756-.624 1.188-1.752 1.296-.324.036-.516.276-.468.6l.12 1.032c.036.276.24.48.516.48h.072zm-.924 1.704v.12c0 .468.36.828.852.828s.852-.36.852-.828v-.12c0-.468-.36-.828-.852-.828s-.852.36-.852.828z" fill="#333" fill-rule="nonzero"/></g></svg>