<svg width="22" height="22" viewBox="0 0 22 22" xmlns="http://www.w3.org/2000/svg"><title>627CADC3-D14F-4D28-BB19-B1A25E4A2868</title><g transform="translate(1 1.289)" fill="none" fill-rule="evenodd"><path d="M15.043 1.867c.087.089.087.177.174.266 1.392 1.69 2.261 3.823 2.261 6.223 0 5.244-4.174 9.51-9.304 9.51-1.74 0-3.391-.533-4.783-1.333-.695-.266-1.304-.622-1.913-.977C3.218 18.222 6.261 20 9.652 20c5.391 0 9.74-4.444 9.74-9.867a9.972 9.972 0 0 0-4.349-8.266z" fill="#010202" fill-rule="nonzero" opacity=".3"/><ellipse stroke="#333" stroke-width="1.304" cx="9.826" cy="10.044" rx="9.565" ry="9.778"/><path d="M13.652 1.244s-2.87 2.49-5.217 7.29c-2.348 4.8-2.87 10.222-2.87 10.222" stroke="#333" stroke-width="1.304"/><path d="M19.391 8.622s-4.26.711-9.565-.978C4.61 5.956 3.13 3.29 3.13 3.29M.26 11.022s3.827-1.955 8.61-.444c4.782 1.422 7.652 6.31 7.652 6.31" stroke="#333" stroke-width="1.304"/></g></svg>