<svg width="34" height="34" viewBox="0 0 34 34" xmlns="http://www.w3.org/2000/svg"><title>6A2B8891-67A8-4856-88EF-4F35B79E8F38</title><defs><linearGradient x1="50%" y1="100%" x2="50%" y2="7.777%" id="a"><stop stop-color="#FFF" stop-opacity=".568" offset="0%"/><stop stop-color="#FFF" stop-opacity="0" offset="100%"/></linearGradient></defs><g fill="none" fill-rule="evenodd"><rect fill="#D71014" width="34" height="34" rx="17"/><g transform="translate(9 6)"><path d="M8.526 20c4.71 0 8.527-3.838 8.527-8.571 0-4.734-3.818-8.572-8.527-8.572S0 6.695 0 11.43C0 16.162 3.817 20 8.526 20z" stroke="#FFF" stroke-width="2"/><path d="M8.526 9.524V4.762c3.663 0 6.632 2.985 6.632 6.667a6.66 6.66 0 0 1-1.94 4.711c-.81-.71-2.295-2.22-3.378-3.34a1.9 1.9 0 0 0 .581-1.371 1.9 1.9 0 0 0-1.895-1.905z" fill="url(#a)" fill-rule="nonzero"/><path d="M8.526 13.333a1.9 1.9 0 0 1-1.894-1.904 1.9 1.9 0 0 1 1.894-1.905 1.9 1.9 0 0 1 1.895 1.905 1.9 1.9 0 0 1-1.895 1.904z" fill="#FFF" fill-rule="nonzero"/><path d="M9.474 12.381l2.842 2.857" stroke="#FFF" stroke-width="1.905" stroke-linecap="round"/><path d="M7.579.952h1.895V3.81H7.579V.952zM5.684.476C5.684.213 5.9 0 6.15 0h4.754a.476.476 0 0 1 0 .952H6.15a.476.476 0 0 1-.465-.476z" fill="#FFF" fill-rule="nonzero"/><rect fill="#FFF" fill-rule="nonzero" transform="rotate(45 15.885 4.54)" x="14.938" y="3.112" width="1.895" height="2.857" rx=".947"/></g></g></svg>