<svg width="20" height="12" viewBox="0 0 20 12" xmlns="http://www.w3.org/2000/svg"><title>208FBF32-D888-4BEB-8B45-587F62C2B236</title><path d="M9.785 11.95h1.196s.36-.042.545-.251c.17-.192.165-.552.165-.552s-.024-1.687.72-1.936c.735-.244 1.677 1.63 2.676 2.352.755.545 1.33.426 1.33.426l2.67-.04s1.397-.09.735-1.245c-.054-.095-.386-.855-1.986-2.417-1.675-1.635-1.45-1.37.567-4.198 1.228-1.722 1.72-2.773 1.566-3.224-.146-.429-1.05-.316-1.05-.316l-3.007.02s-.223-.032-.389.072c-.161.102-.265.34-.265.34s-.476 1.332-1.11 2.466c-1.34 2.39-1.875 2.517-2.094 2.369-.51-.346-.382-1.39-.382-2.132 0-2.318.334-3.284-.65-3.534-.328-.083-.569-.138-1.405-.147C8.544-.01 7.637.006 7.122.27c-.342.177-.606.569-.445.592.199.028.649.127.887.469.308.44.298 1.431.298 1.431s.177 2.728-.414 3.067c-.405.232-.961-.242-2.155-2.412-.612-1.111-1.074-2.34-1.074-2.34s-.088-.23-.247-.352C3.779.576 3.509.53 3.509.53L.652.55S.222.561.065.757c-.14.175-.01.536-.01.536s2.236 5.505 4.77 8.279c2.323 2.544 4.96 2.377 4.96 2.377z" fill="#5A676E" fill-rule="evenodd"/></svg>