<svg width="22" height="20" viewBox="0 0 22 20" xmlns="http://www.w3.org/2000/svg"><title>2D79607E-EA58-44F3-B731-697E92B5E413</title><defs><radialGradient cx="114.44%" cy="23.747%" fx="114.44%" fy="23.747%" r="137.517%" gradientTransform="matrix(-.74767 .49818 -.66407 -.5609 2.158 -.2)" id="a"><stop stop-color="#FD213A" stop-opacity=".353" offset="0%"/><stop stop-color="#FD213A" offset="100%"/></radialGradient></defs><g fill="none" fill-rule="evenodd"><path d="M15.224 18.943H1L2.109 5.005c.172-2.16 2.014-3.829 4.228-3.829H20.56l-1.109 13.937c-.172 2.162-2.014 3.83-4.228 3.83z" stroke="#333" stroke-width="1.304" stroke-linecap="round" stroke-linejoin="round"/><path d="M19.56.176l-1.108 13.937c-.172 2.162-2.014 3.83-4.228 3.83H6.233" stroke="url(#a)" stroke-width="1.304" stroke-linecap="round" stroke-linejoin="round" transform="translate(1 1)"/><path d="M15.976 7.694l-1.406 3.17-.365-3.17H7.013c-.462 0-.858.358-.938.849l-.605 3.705h3.264l.18-1.106H6.946l.312-1.917a.488.488 0 0 1 .47-.425h2.9l-.562 3.449h1.31L11.94 8.8h1.14l.46 3.449h1.19l-.002-.02a.963.963 0 0 0 .682-.55l1.84-3.985h-1.273z" fill="#333"/></g></svg>