<svg width="16" height="17" viewBox="0 0 16 17" xmlns="http://www.w3.org/2000/svg"><title>24E5BBDE-B5F3-455C-9DC2-8DAE2700A405</title><g transform="translate(0 .147)" fill="none" fill-rule="evenodd"><ellipse fill="#B9BCBF" fill-rule="nonzero" cx="8" cy="8.018" rx="7.794" ry="7.861"/><g stroke="#0D1215" stroke-linecap="round"><g transform="translate(1.074 2.777)" stroke-width=".903" stroke-linejoin="round"><path d="M3.097 2.49s.119-.486-.06-1.032C2.8.79 1.906.243 1.132.728c-.953.608-.953 1.945.06 3.463.714 1.154 2.56 2.612 4.644 3.22M10.6 2.49s-.119-.486.06-1.032c.238-.668 1.132-1.215 1.906-.73.953.608.953 1.945-.06 3.463-.714 1.154-2.56 2.612-4.645 3.22"/><ellipse cx="6.849" cy="9.536" rx="1" ry="1"/></g><path d="M7.983 12.738v-1.154c0-.243.06-.486.178-.608.06-.182.239-.303.477-.486.357-.303.714-.607.893-.79.238-.242.417-.485.536-.667.357-.608.834-1.519.953-3.402.06-.729.179-1.336.238-1.64.06-.121-.06-.243-.179-.243H4.945c-.119 0-.238.122-.178.243.06.304.178.911.238 1.64.12 1.883.595 2.794.953 3.402.119.182.298.425.536.668.119.121.476.486.893.79.179.12.357.303.477.485.06.183.119.365.178.608v.911l-.06.243c-.059.85-.118 1.883-.952 2.49-.298.182-.596.364-.894.425.298.061.596.122.894.122h1.846c.298-.061.595-.061.893-.122-.298-.06-.655-.182-.893-.425-.774-.607-.893-1.64-.893-2.49z" stroke-width=".903" fill="#0D1215" fill-rule="nonzero"/><path d="M8.788 8.108l-.702-.41h-.1l-.703.41c-.1 0-.201 0-.201-.103l.1-.819v-.102L6.58 6.47c-.1-.103 0-.205.1-.205l.803-.102s.1 0 .1-.103l.402-.716c0-.103.201-.103.201 0l.301.716.1.103.803.102c.1 0 .1.102.1.205l-.601.614v.102l.1.82c0 .102-.1.204-.2.102z" stroke-width=".583" fill="#B9BCBF" fill-rule="nonzero" stroke-linejoin="round"/></g></g></svg>