<svg width="20" height="21" viewBox="0 0 20 21" xmlns="http://www.w3.org/2000/svg"><title>F00C7D43-C91C-4497-831A-5D8369244148</title><defs><linearGradient x1="84.35%" y1="14.217%" x2="7.731%" y2="86.468%" id="a"><stop stop-color="#D71014" offset="0%"/><stop stop-color="#ED7026" offset="100%"/></linearGradient><linearGradient x1="50%" y1="100%" x2="50%" y2="7.777%" id="b"><stop stop-color="#D81815" offset="0%"/><stop stop-color="#E14E47" stop-opacity="0" offset="100%"/></linearGradient></defs><g transform="translate(1)" fill="none" fill-rule="evenodd"><path d="M9 20c4.97 0 9-3.838 9-8.571 0-4.734-4.03-8.572-9-8.572S0 6.695 0 11.43C0 16.162 4.03 20 9 20z" stroke="url(#a)" stroke-width="1.905"/><path d="M9 10.365V4.762c3.737 0 6.767 2.885 6.767 6.445 0 1.778-.756 3.389-1.98 4.555-.827-.687-2.341-2.146-3.446-3.229.365-.335.592-.805.592-1.326 0-1.017-.865-.842-1.933-.842z" fill="url(#b)" fill-rule="nonzero"/><path d="M9 13.333c-1.105 0-2-.852-2-1.904s.895-1.905 2-1.905 2 .853 2 1.905-.895 1.904-2 1.904z" fill="url(#a)" fill-rule="nonzero"/><path d="M10 12.381l3 2.857" stroke="url(#a)" stroke-width="1.905" stroke-linecap="round"/><path d="M8 .952h2V3.81H8V.952zM6 .476C6 .213 6.228 0 6.491 0h5.018c.271 0 .491.22.491.476a.489.489 0 0 1-.491.476H6.491A.489.489 0 0 1 6 .476z" fill="#D91B16" fill-rule="nonzero"/><rect fill="#D71014" fill-rule="nonzero" transform="rotate(45 16.768 4.54)" x="15.768" y="3.112" width="2" height="2.857" rx=".952"/></g></svg>