<svg xmlns="http://www.w3.org/2000/svg" width="20" height="19" viewBox="0 0 20 19"><g><g><path d="M19.983 2.514l-.89 4.169a.73.73 0 0 1-.862.56l-4.155-.894a.729.729 0 0 1 .304-1.425l2.42.52a7.98 7.98 0 0 0-6.906-3.988c-4.404 0-7.986 3.595-7.986 8.013a.727.727 0 1 1-1.452 0c0-5.221 4.234-9.47 9.438-9.47a9.428 9.428 0 0 1 8.142 4.68l.527-2.47a.726.726 0 1 1 1.42.305zm-.539 6.704a9.426 9.426 0 0 1-2.542 6.784A9.364 9.364 0 0 1 10.009 19a9.427 9.427 0 0 1-7.964-4.392l-.619 2.314a.727.727 0 1 1-1.402-.377l1.1-4.117a.727.727 0 0 1 .89-.516l4.104 1.105a.729.729 0 0 1-.376 1.407l-2.524-.679a7.98 7.98 0 0 0 7.057 3.794 7.92 7.92 0 0 0 5.567-2.533 7.975 7.975 0 0 0 2.151-5.74.726.726 0 0 1 1.451-.048z"/></g></g></svg>