<svg width="59" height="59" viewBox="0 0 59 59" fill="none" xmlns="http://www.w3.org/2000/svg">
<path d="M39.4084 32.2544V51.5877" stroke="#0EFF51" stroke-width="2" stroke-linecap="round" stroke-linejoin="round"/>
<path d="M20.075 32.2544V51.5877" stroke="#0EFF51" stroke-width="2" stroke-linecap="round" stroke-linejoin="round"/>
<path d="M29.7417 37.0876V56.421" stroke="#0EFF51" stroke-width="2" stroke-linecap="round" stroke-linejoin="round"/>
<path d="M49.0752 40.9063C51.6157 39.7937 53.6961 37.8409 54.9672 35.3759C56.2383 32.9109 56.6228 30.0836 56.056 27.3686C55.4892 24.6537 54.0057 22.2164 51.8545 20.4658C49.7033 18.7152 47.0153 17.7579 44.2419 17.7547H41.1969C40.4308 14.7883 38.9708 12.0464 36.937 9.75503C34.9033 7.46367 32.3541 5.68845 29.4996 4.57568C26.6451 3.46291 23.5671 3.04447 20.5191 3.35483C17.4711 3.6652 14.5406 4.69549 11.969 6.36078C9.39734 8.02607 7.25831 10.2787 5.72818 12.9329C4.19805 15.5872 3.32062 18.5671 3.16822 21.627C3.01583 24.687 3.59282 27.7393 4.85165 30.5325C6.11049 33.3256 8.01511 35.7796 10.4085 37.6922" stroke="#0EFF51" stroke-width="2" stroke-linecap="round" stroke-linejoin="round"/>
</svg>
