<svg xmlns="http://www.w3.org/2000/svg" width="456" height="78" viewBox="0 0 456 78"><g><g><path fill="#ef084f" d="M70.747 2.345c7.24-.375 14.44-.71 21.592-.999 7.152-.29 14.256-.535 21.314-.732a1583.946 1583.946 0 0 1 21.04-.45c6.97-.103 13.901-.157 20.802-.166 27.594-.046 54.735.675 81.965 1.704 54.386 2.14 109.319 4.92 164.739 4.874 17.71.147 32.114 2.64 40.638 7.473 4.36 2.434 7.524 5.508 9.717 9.272a24.787 24.787 0 0 1 2.527 6.147 26.776 26.776 0 0 1 .673 3.445 27.932 27.932 0 0 1 .22 2.742c.009.312.014.626.013.943-.008 10.316-2.995 20.31-12.717 27.394-4.815 3.566-11.255 6.464-19.174 8.578-3.954 1.056-8.267 1.918-12.871 2.56a133.14 133.14 0 0 1-7.113.795 141.488 141.488 0 0 1-7.48.437c-7.793.34-15.519.62-23.156.847-7.639.226-15.19.399-22.647.524a1876.2 1876.2 0 0 1-22.105.24c-7.28.039-14.475.037-21.598.004-28.491-.135-55.855-.75-83.276-1.413-54.93-1.378-109.62-2.815-170.396-3.029-20.7.032-35.716-3.731-43.695-10.566-4.09-3.417-6.683-7.632-8.188-12.416-.75-2.39-1.228-4.915-1.446-7.521a38.042 38.042 0 0 1-.028-5.96c.05-.67.12-1.341.208-2.012a19.183 19.183 0 0 1-.027-3.84c.118-1.234.362-2.424.725-3.567.727-2.288 1.93-4.392 3.563-6.321 3.267-3.86 8.258-7.015 14.617-9.589 12.709-5.136 30.947-8.01 51.564-9.398z"/></g></g></svg>