<svg xmlns="http://www.w3.org/2000/svg" width="256" height="93" viewBox="0 0 256 93"><g><g><path fill="#ef084f" d="M45.624 3.508c3.85-.59 7.645-1.105 11.387-1.543 3.743-.438 7.434-.8 11.083-1.088a283.614 283.614 0 0 1 21.46-.88c14.074-.056 27.854.907 41.896 2.296 27.976 2.843 57.32 7.01 87.577 8.369 9.602.558 19.206 5.112 26.075 11.805 3.45 3.35 6.27 7.226 8.195 11.485a30.826 30.826 0 0 1 2.16 6.683 28.689 28.689 0 0 1 .525 4.476 28.397 28.397 0 0 1-.035 2.803c-.598 10.222-5.45 20.005-13.513 28.267-3.996 4.095-8.714 7.74-13.76 10.48-2.523 1.369-5.126 2.508-7.764 3.352-1.319.421-2.646.769-3.976 1.034a32.663 32.663 0 0 1-2.997.454c-.333.034-.666.062-1 .085-4.107.398-8.134.702-12.087.924-3.953.221-7.833.36-11.649.428-7.633.137-15.01-.006-22.244-.327-14.459-.648-28.383-1.977-42.52-3.35-28.284-2.814-57.205-5.637-89.495-5.847-10.865.063-20.381-4.485-26.563-11.43-3.11-3.49-5.44-7.618-6.852-12.245A35.208 35.208 0 0 1 .13 52.442a36.753 36.753 0 0 1-.123-3.892 37.732 37.732 0 0 1 .3-4.03C.95 23.19 24.353 7.395 45.624 3.508z"/></g></g></svg>