<svg width="100" height="22" viewBox="0 0 100 22" xmlns="http://www.w3.org/2000/svg"><title>11C66B9B-C68E-4C84-A101-A1F728C0937B</title><g fill="none" fill-rule="evenodd"><path d="M8.856 0h60.375l-3.497 22H0L2.655 5.293A6.28 6.28 0 0 1 8.856 0z" fill="#FF0036"/><path d="M91.144 22H68.53l3.497-22H100l-2.655 16.707A6.28 6.28 0 0 1 91.144 22z" fill="#0161DA"/><path fill="#FFF" d="M52.773 6.404h-2.814l-2.584 3.2h-.368l.572-3.2h-2.635l-1.51 8.454h2.634l.574-3.213h.73l1.337 3.213h2.847l-2.062-4.527zm-28.638 0H11.53A1.93 1.93 0 0 0 9.62 7.98l-1.23 6.878h6.64l.367-2.053h-4.004l.636-3.56a.965.965 0 0 1 .955-.788h5.93l-1.144 6.4h2.635l1.144-6.4h2.219l.367-2.053zm3.075 4.824l1.277-2.624h.337l.335 2.624h-1.95zm1.048-4.832a1.94 1.94 0 0 0-1.735 1.057l-3.747 7.404h2.667l.767-1.576h3.211l.201 1.576h2.59l-1.236-8.461h-2.718zm28.465 4.832l1.278-2.624h.336l.336 2.624h-1.95zm1.049-4.832a1.94 1.94 0 0 0-1.735 1.057l-3.747 7.404h2.667l.767-1.576h3.21l.202 1.576h2.59L60.49 6.396h-2.718zM39.33 9.68h-2.274l.218-1.223h2.584l-.528 1.224zm-.123 3.125h-2.71l.247-1.383h2.71l-.247 1.383zm1.19-6.401h-3.84v.004a1.927 1.927 0 0 0-1.832 1.572l-1.23 6.877h6.153a1.93 1.93 0 0 0 1.91-1.577l.395-2.219h-.004l.032-.182-1.152-.253 1.492-1.641.463-2.58h-2.386v-.001zm50.33-.216l-3.07 6.167-.795-6.168h-9.356c-.505 0-.937.35-1.025.827l-.257 1.325h2.827l-1.228 6.709h2.829l1.227-6.709h2.525l1.004 6.709h2.597l-.004-.037a2.071 2.071 0 0 0 1.489-1.071l4.017-7.752h-2.78z"/></g></svg>