<svg width="49" height="48" viewBox="0 0 49 48" fill="none" xmlns="http://www.w3.org/2000/svg">
<path d="M34.4214 42V38C34.4214 35.8783 33.5785 33.8434 32.0782 32.3431C30.578 30.8429 28.5431 30 26.4214 30H10.4214C8.29965 30 6.26482 30.8429 4.76453 32.3431C3.26424 33.8434 2.42139 35.8783 2.42139 38V42" stroke="#0EFF51" stroke-width="2" stroke-linecap="round" stroke-linejoin="round"/>
<path d="M18.4214 22C22.8397 22 26.4214 18.4183 26.4214 14C26.4214 9.58172 22.8397 6 18.4214 6C14.0031 6 10.4214 9.58172 10.4214 14C10.4214 18.4183 14.0031 22 18.4214 22Z" stroke="#0EFF51" stroke-width="2" stroke-linecap="round" stroke-linejoin="round"/>
<path d="M46.4214 41.9998V37.9998C46.4201 36.2272 45.8301 34.5053 44.7441 33.1044C43.6581 31.7035 42.1376 30.7029 40.4214 30.2598" stroke="#0EFF51" stroke-width="2" stroke-linecap="round" stroke-linejoin="round"/>
<path d="M32.4214 6.25977C34.1422 6.70037 35.6675 7.70117 36.7567 9.10439C37.8459 10.5076 38.4371 12.2334 38.4371 14.0098C38.4371 15.7861 37.8459 17.5119 36.7567 18.9151C35.6675 20.3184 34.1422 21.3192 32.4214 21.7598" stroke="#0EFF51" stroke-width="2" stroke-linecap="round" stroke-linejoin="round"/>
</svg>
