<svg xmlns="http://www.w3.org/2000/svg" width="106.048" height="106.048"><path d="M39.449 41.772c2.074.021 4.174.09 6.087.192l-8.272-11.413c-1.225-.684-5.646-3.516-9.134-4.619l.163-.725c.031 0 6.957 1.113 10.312 4.088l9.191 12.614.328.249c.997.096 1.939.202 2.729.324l-7.392-10.139 2.731-8.07C45.843 20.75 40.121 9.58 40.11 9.57l.577-.461c4.588 3.806 7.376 15.28 7.376 15.28l-2.545 7.633 5.769 7.884a39.618 39.618 0 01-.264-4.741c.147-4.852.381-8.658 1.962-9.051 1.595.394 1.823 4.189 1.974 9.051 0 1.74-.104 3.325-.26 4.697l5.728-7.84-2.553-7.84c.486-1.287 3.65-11.987 7.409-15.084l.56.472c0 .01-5.731 11.18-6.1 14.55l2.755 8.212-7.405 10.129c.798-.091 1.735-.208 2.755-.303l.321-.249 9.228-12.679c3.304-2.915 10.242-4.018 10.273-4.039l.187.735c-3.501 1.093-7.892 3.904-9.16 4.619l-8.27 11.412c1.916-.108 3.997-.17 6.095-.17 7.275.111 14.592.587 14.897 3.886 0 .329-.083.657-.249.971-.869 1.755-3.304 2.216-6.317 2.247-5.234 0-12.469-1.649-17.149-2.848l-1.481 1.396c1.714.536 4.371 1.639 6.183 3.547l.207.339.87 7.005 4.868 5.95-.549.513-6.027-5.634-.86-7.017c-1.512-1.597-4.173-2.604-5.654-3.05-.196.445-.471.854-.864 1.145-.021.101-.042.191-.052.271l.021-.01c.87 0 1.983.391 1.978 1.628a.984.984 0 010 .189c-.187 1.421-1.579 2.221-2.47 2.651l-.45 8.251-.749.01-.817-8.393c-.862-.482-2.04-1.261-2.178-2.535 0-.065-.016-.127-.016-.179 0-1.222 1.118-1.629 1.971-1.629h.013c-.013-.075-.039-.176-.039-.256-.401-.301-.678-.709-.859-1.16-1.499.461-4.166 1.442-5.592 2.864l-1.087 7.436-5.908 5.416-.533-.513 4.782-5.784 1.043-7.379.111-.126c1.81-1.929 4.472-3 6.167-3.557l-1.457-1.386c-4.682 1.232-11.931 2.848-17.158 2.858-3.019-.041-5.453-.502-6.333-2.258a2.086 2.086 0 01-.223-.95c.291-3.326 7.602-3.802 14.887-3.924zm65.289 28.593l-5.598 5.593 4.121 4.116.564-.564a.652.652 0 01.912 0 .65.65 0 010 .911l-.564.57.559.564a.635.635 0 01.006.906.64.64 0 01-.906.004l-.57-.564-4.121 4.111 4.121 4.116.57-.569a.642.642 0 11.9.917l-.559.559.564.57a.65.65 0 010 .911.636.636 0 01-.456.187.659.659 0 01-.456-.187l-.564-.569-4.204 4.204c.01.062.062.104.062.146v.01a.59.59 0 01-.149.363c-.021.03-.011.062-.036.088a.682.682 0 01-.456.191h-.488a.64.64 0 01-.455-.187c-.088-.083-.104-.202-.124-.311-.016-.052-.062-.094-.062-.146s.047-.093.062-.145v-.006l-4.21-4.209-4.199 4.204c.01.062.057.104.057.146v.01a.559.559 0 01-.15.363c-.021.03-.01.062-.031.088a.68.68 0 01-.461.191h-.481a.663.663 0 01-.461-.187c-.088-.083-.098-.202-.119-.311-.021-.052-.062-.094-.062-.146s.041-.093.062-.145v-.006l-4.204-4.204-4.215 4.215c.021.058.062.088.062.14 0 .353-.29.643-.642.643h-.477a.646.646 0 01-.643-.643c0-.062.053-.093.067-.145l-4.21-4.21-4.204 4.204v.006c.016.052.062.093.062.145s-.047.099-.062.146c-.031.108-.041.228-.124.311a.646.646 0 01-.456.187h-.492a.68.68 0 01-.455-.191c-.026-.026-.016-.058-.036-.088a.574.574 0 01-.15-.363v-.01c0-.052.057-.094.067-.146l-4.215-4.21-4.21 4.21c.016.062.067.104.067.146v.01a.611.611 0 01-.146.363c-.021.03-.01.062-.041.088a.653.653 0 01-.456.191h-.486a.65.65 0 01-.456-.187c-.083-.083-.093-.202-.119-.311-.016-.052-.067-.094-.067-.146s.052-.093.067-.145v-.006l-4.199-4.209-4.205 4.209c.011.058.058.099.058.15v.006c0 .088-.062.15-.102.238-.03.072-.036.16-.096.212a.635.635 0 01-.45.187h-.481a.665.665 0 01-.461-.187c-.085-.083-.101-.202-.122-.311-.018-.052-.06-.094-.06-.146s.042-.093.06-.145l.005-.016-4.205-4.205-4.212 4.21c.018.062.065.104.065.146v.01c0 .146-.07.265-.147.363-.016.03-.011.062-.034.088a.688.688 0 01-.456.191h-.487a.641.641 0 01-.455-.187c-.091-.083-.102-.202-.122-.311-.018-.052-.064-.094-.064-.146s.046-.093.064-.145v-.006l-4.199-4.209-4.218 4.209v.006c.018.052.065.093.065.145s-.047.099-.065.146c-.026.108-.042.228-.122.311a.64.64 0 01-.456.187h-.487a.645.645 0 01-.456-.187c-.091-.083-.101-.202-.122-.311-.018-.052-.064-.094-.064-.146s.046-.093.064-.145l.005-.006-4.212-4.209-4.21 4.204c.019.062.07.104.07.146v.01c0 .146-.075.265-.148.363-.023.03-.01.062-.039.088a.664.664 0 01-.456.191h-.486a.645.645 0 01-.456-.187c-.085-.083-.096-.202-.122-.311-.018-.052-.065-.094-.065-.146s.047-.093.065-.145v-.006l-4.207-4.215-4.2 4.21c.013.062.065.104.065.146v.01c0 .146-.07.265-.148.363-.021.03-.01.062-.039.088a.664.664 0 01-.456.191h-.49a.645.645 0 01-.456-.187c-.085-.083-.096-.202-.122-.311-.018-.052-.06-.094-.06-.146s.042-.093.06-.145v-.006l-4.212-4.209-.557.559a.662.662 0 01-.456.187.673.673 0 01-.456-.187.65.65 0 010-.911l.557-.564-.557-.554a.652.652 0 01.005-.912.645.645 0 01.906.006l.551.559 4.127-4.116-4.127-4.111-.551.554a.666.666 0 01-.456.191.644.644 0 01-.456-1.092l.557-.555-.557-.564a.65.65 0 010-.911.643.643 0 01.912 0l.551.549 4.122-4.116-5.59-5.582c-.075-.072-.08-.166-.106-.264C.505 69.853 0 69.355 0 68.636c0-.952.774-1.719 1.724-1.719h102.599a1.72 1.72 0 011.725 1.719c0 .762-.538 1.279-1.212 1.512-.031.073-.031.156-.098.217zm-90.485 0l-.583.575 4.109 4.106 4.119-4.112-.572-.569h-7.073zm10.043 0l-.572.569 4.114 4.112 4.109-4.112-.577-.569h-7.074zm10.048 0l-.567.564 4.114 4.117 4.119-4.112-.572-.569h-7.094zm10.063 0l-.572.569 4.114 4.112 4.114-4.112-.572-.569h-7.084zm10.067 0l-.585.575 4.106 4.106 4.116-4.117-.564-.564h-7.073zm10.035 0l-.569.564 4.122 4.117 4.121-4.112-.574-.569h-7.1zm10.066 0l-.575.57 4.117 4.112 4.111-4.117-.569-.564h-7.084zm-61.819 1.476l-4.119 4.117 4.114 4.116 4.122-4.116-4.117-4.117zm.904 9.15l4.12 4.116 4.114-4.116-4.114-4.117-4.12 4.117zm9.15-.917l4.117-4.106-4.117-4.121-4.114 4.111 4.114 4.116zm.908.917l4.119 4.116 4.114-4.116-4.125-4.117-4.108 4.117zm9.153-.917l4.104-4.106-4.117-4.121-4.114 4.111 4.127 4.116zm.9.917l4.114 4.116L42 80.991l-4.114-4.117-4.115 4.117zm9.153-.912l4.114-4.111-4.114-4.121-4.122 4.111 4.122 4.121zm.906.912l4.119 4.116 4.109-4.116-4.109-4.117-4.119 4.117zm9.148-.917l4.116-4.116-4.116-4.106-4.117 4.106 4.117 4.116zm.9.917l4.117 4.116 4.116-4.116-4.116-4.117-4.117 4.117zm9.15-.912l4.127-4.121-4.127-4.117-4.111 4.117 4.111 4.121zm.911.912l4.116 4.116 4.117-4.116-4.117-4.122-4.116 4.122zm9.15-.917l4.117-4.116-4.112-4.111-4.121 4.111 4.116 4.116zm.911.917l4.117 4.111 4.111-4.111-4.111-4.122L74 80.991zm9.15-.917l4.111-4.116-4.111-4.111-4.122 4.111 4.122 4.116zm.912.917l4.116 4.111 4.106-4.111-4.111-4.117-4.111 4.117zm9.139-.917l4.127-4.116-4.127-4.111-4.122 4.111 4.122 4.116zm-1.481-9.709h-7.094l-.564.564 4.116 4.117 4.117-4.112-.575-.569zM7.731 75.047l4.119-4.112-.572-.569H3.04l4.691 4.681zm0 10.06l4.114-4.116-4.114-4.117-4.114 4.117 4.114 4.116zm4.114 5.935L7.731 86.92l-4.114 4.116 4.114 4.122 4.114-4.116zm.906-.917l4.117-4.111-4.117-4.111-4.109 4.111 4.109 4.111zm9.147.911l-4.114-4.116-4.119 4.122 4.119 4.116 4.114-4.122zm.912-.906l4.122-4.116-4.122-4.111-4.119 4.111 4.119 4.116zm9.142.906l-4.114-4.116-4.119 4.116 4.109 4.122 4.124-4.122zm5.027-5.022l-4.114-4.111-4.116 4.106 4.116 4.111 4.114-4.106zm5.026 5.022l-4.114-4.116-4.114 4.122 4.114 4.116 4.114-4.122zm.919-.906l4.119-4.116-4.119-4.111-4.127 4.111 4.127 4.116zm9.135.906L47.95 86.92l-4.119 4.116 4.119 4.122 4.109-4.122zm.919-.906l4.116-4.116-4.116-4.111-4.117 4.111 4.117 4.116zm9.139.906l-4.112-4.116-4.121 4.116 4.121 4.122 4.112-4.122zm.911-.906l4.121-4.116-4.121-4.111-4.111 4.111 4.111 4.116zm9.145.912l-4.117-4.122-4.116 4.116 4.116 4.122 4.117-4.116zm.916-.912l4.117-4.116-4.117-4.111-4.116 4.111 4.116 4.116zm9.144.912l-4.116-4.117-4.111 4.117 4.111 4.116 4.116-4.116zm.917-.912l4.116-4.116-4.116-4.111-4.122 4.111 4.122 4.116zm9.134.906l-4.106-4.111-4.116 4.117 4.111 4.116 4.111-4.122zm.922-.906l4.122-4.116-4.122-4.111-4.116 4.111 4.116 4.116zm5.023-3.21l-4.121 4.116 4.121 4.122 4.122-4.122-4.122-4.116zm0-10.051l-4.121 4.122 4.121 4.111 4.122-4.111-4.122-4.122zm4.702-6.504h-8.243l-.58.569 4.121 4.112 4.702-4.681z" fill="#fff"/></svg>