<svg width="57" height="55" viewBox="0 0 57 55" fill="none" xmlns="http://www.w3.org/2000/svg">
<path d="M56.5 47.5C56.5 48.2621 55.9047 49.1185 54.4962 49.9948C53.1144 50.8545 51.0816 51.6471 48.5253 52.3198C43.4201 53.6632 36.3399 54.5 28.5 54.5C20.6601 54.5 13.5799 53.6632 8.4747 52.3198C5.91842 51.6471 3.88564 50.8545 2.50381 49.9948C1.09534 49.1185 0.5 48.2621 0.5 47.5C0.5 46.7379 1.09534 45.8815 2.50381 45.0052C3.88564 44.1455 5.91842 43.3529 8.4747 42.6802C13.5799 41.3368 20.6601 40.5 28.5 40.5C36.3399 40.5 43.4201 41.3368 48.5253 42.6802C51.0816 43.3529 53.1144 44.1455 54.4962 45.0052C55.9047 45.8815 56.5 46.7379 56.5 47.5Z" stroke="white"/>
<path d="M41 14.0909C41 24.2727 28 33 28 33C28 33 15 24.2727 15 14.0909C15 10.619 16.3696 7.28926 18.8076 4.83424C21.2456 2.37922 24.5522 1 28 1C31.4478 1 34.7544 2.37922 37.1924 4.83424C39.6304 7.28926 41 10.619 41 14.0909Z" stroke="white" stroke-width="2" stroke-linecap="round" stroke-linejoin="round"/>
<path d="M28.5 18C30.9853 18 33 15.9853 33 13.5C33 11.0147 30.9853 9 28.5 9C26.0147 9 24 11.0147 24 13.5C24 15.9853 26.0147 18 28.5 18Z" stroke="white" stroke-width="2" stroke-linecap="round" stroke-linejoin="round"/>
</svg>
