<svg xmlns="http://www.w3.org/2000/svg" viewBox="0 0 470 470"><g fill="#fff"><path d="M382.5 120c24.813 0 45-20.187 45-45s-20.187-45-45-45-45 20.187-45 45 20.187 45 45 45zm0-75c16.542 0 30 13.458 30 30s-13.458 30-30 30c-13.953 0-25.712-9.575-29.051-22.5H390a7.5 7.5 0 000-15h-36.551C356.788 54.575 368.547 45 382.5 45zM133.359 295.001C143.907 318.552 167.569 335 195 335c37.22 0 67.5-30.28 67.5-67.5v-25a7.5 7.5 0 00-7.5-7.5H105.874a7.501 7.501 0 00-6.492 3.744 37.493 37.493 0 00-5.022 18.757c0 20.678 16.822 37.5 37.5 37.5h1.499zM142.5 250h105v17.5c0 28.949-23.551 52.5-52.5 52.5s-52.5-23.551-52.5-52.5V250zm-33.14 7.501c0-2.568.438-5.106 1.282-7.501H127.5v17.5c0 4.189.383 8.289 1.117 12.269-10.875-1.577-19.257-10.962-19.257-22.268zM142.5 455h-40a7.5 7.5 0 000 15h40a7.5 7.5 0 000-15zm305 0h-40a7.5 7.5 0 000 15h40a7.5 7.5 0 000-15z"/><path d="M462.5 0h-375A7.5 7.5 0 0080 7.5v75c0 20.678 16.822 37.5 37.5 37.5H140v30h-15v-7.5a7.5 7.5 0 00-6.99-7.482l-110-7.5A7.498 7.498 0 000 135v45a7.497 7.497 0 008.01 7.482l110-7.5A7.5 7.5 0 00125 172.5V165h16.29c3.096 8.729 11.432 15 21.21 15h25v12.5a7.5 7.5 0 0015 0V180h25c12.407 0 22.5-10.093 22.5-22.5V120h45v230H117.5C96.822 350 80 366.822 80 387.5v45a7.5 7.5 0 007.5 7.5h375a7.5 7.5 0 007.5-7.5V7.5a7.5 7.5 0 00-7.5-7.5zM110 165.494l-95 6.477v-28.942l95 6.477v15.988zm125-7.994c0 4.136-3.364 7.5-7.5 7.5h-65c-4.136 0-7.5-3.364-7.5-7.5V120h80v37.5zM455 425H95v-37.5c0-12.407 10.093-22.5 22.5-22.5H295v37.5a7.5 7.5 0 0015 0v-290a7.5 7.5 0 00-7.5-7.5h-185C105.093 105 95 94.907 95 82.5V15h360v410z"/><circle cx="352.5" cy="357.5" r="7.5"/><circle cx="352.5" cy="312.5" r="7.5"/><circle cx="352.5" cy="267.5" r="7.5"/></g></svg>